<svg width="333" height="340" viewBox="0 0 333 340" fill="none" xmlns="http://www.w3.org/2000/svg">
<path d="M256.645 110.258C261.452 105.326 261.041 97.4092 255.821 92.9925C253.638 91.1496 254.174 88.6993 254.091 88.2257V84.1487H252.125C252.125 81.9764 250.354 80.2056 248.182 80.2056C246.009 80.2056 244.239 81.9764 244.239 84.1487H242.272V88.2257C242.19 88.7096 242.735 91.1393 240.532 93.0131C237.886 95.2678 236.363 98.552 236.363 102.022C236.352 112.616 249.283 117.815 256.645 110.258ZM248.182 82.172C249.273 82.172 250.148 83.0574 250.148 84.1384H246.205C246.215 83.0574 247.09 82.172 248.182 82.172ZM244.239 86.1151H252.125V88.2154H244.239V86.1151ZM241.799 94.5059C243.116 93.3837 243.95 91.8497 244.177 90.1921H247.193V97.2136C245.495 97.6563 244.239 99.2006 244.239 101.033H246.205C246.205 99.9419 247.09 99.0668 248.171 99.0668C249.252 99.0668 250.138 99.9522 250.138 101.033H252.104C252.104 99.2006 250.848 97.6563 249.149 97.2136V90.1921H252.166C252.392 91.8497 253.226 93.3837 254.534 94.4956C261.473 100.374 257.345 111.617 248.449 111.864C239.173 112.121 234.746 100.498 241.799 94.5059Z" fill="#FAD7A1"/>
<path d="M249.035 0.683838H247.326V80.1953H249.035V0.683838Z" fill="#FAD7A1"/>
<path d="M290.166 145.53C294.974 140.599 294.562 132.681 289.342 128.265C287.16 126.422 287.695 123.971 287.613 123.498V119.421H285.646C285.646 117.249 283.876 115.478 281.703 115.478C279.531 115.478 277.76 117.249 277.76 119.421H275.794V123.498C275.711 123.982 276.257 126.412 274.054 128.285C271.408 130.54 269.884 133.824 269.884 137.294C269.874 147.888 282.805 153.097 290.166 145.53ZM281.703 117.455C282.794 117.455 283.67 118.34 283.67 119.421H279.726C279.726 118.34 280.612 117.455 281.703 117.455ZM277.76 121.398H285.646V123.498H277.76V121.398ZM275.32 129.778C276.638 128.656 277.472 127.122 277.698 125.464H280.715V132.486C279.016 132.928 277.76 134.473 277.76 136.305H279.726C279.726 135.214 280.612 134.339 281.693 134.339C282.784 134.339 283.659 135.224 283.659 136.305H285.626C285.626 134.473 284.37 132.928 282.671 132.486V125.464H285.688C285.914 127.122 286.748 128.656 288.055 129.768C294.995 135.646 290.866 146.889 281.971 147.136C272.695 147.404 268.268 135.78 275.32 129.778Z" fill="#FAD7A1"/>
<path d="M282.558 1.66199H280.849V115.488H282.558V1.66199Z" fill="#FAD7A1"/>
<path d="M167.568 339.753C258.544 339.753 332.295 335.687 332.295 330.672C332.295 325.657 258.544 321.592 167.568 321.592C76.5924 321.592 2.8418 325.657 2.8418 330.672C2.8418 335.687 76.5924 339.753 167.568 339.753Z" fill="#134487"/>
<path d="M58.0354 289.532V278.372H52.5171L51.5802 264.524L84.1755 263.876C84.1755 263.876 77.2261 232.526 69.4015 224.969C69.4015 224.969 75.5376 236.737 70.1737 237.962C64.8098 239.187 64.2024 220.491 64.2024 220.491L62.8846 219.441C62.8846 219.441 61.8344 241.216 56.6455 241.751C51.4669 242.276 58.5811 221.026 58.5811 221.026C58.5811 221.026 43.3645 246.343 33.7691 243.151C24.1738 239.949 56.4087 216.301 56.4087 216.301C56.4087 216.301 35.8179 219.091 35.7356 214.478C35.6532 209.876 60.0224 212.728 60.0224 212.728C60.0224 212.728 46.5251 200.744 48.6666 197.007C50.808 193.28 64.8613 213.047 64.8613 213.047C64.8613 213.047 73.8286 213.284 75.6612 216.939C77.4937 220.594 67.4042 218.926 67.4042 218.926C67.4042 218.926 77.6379 230.755 81.2516 245.601C84.8652 260.447 75.2493 194.989 55.6984 151.491C55.6984 151.491 62.6786 172.71 57.2735 173.05C51.8685 173.389 47.4517 142.658 47.4517 142.658C47.4517 142.658 47.3694 183.623 38.7109 182.964C30.0525 182.295 43.9616 140.743 43.9616 140.743C43.9616 140.743 15.4021 189.45 8.90571 184.21C2.40931 178.959 34.5516 141.247 34.5516 141.247C34.5516 141.247 7.57761 162.898 0.99884 158.482C-5.57993 154.065 34.4692 133.001 34.4692 133.001C34.4692 133.001 0.494365 128.501 3.3256 122.921C6.15684 117.341 37.6299 128.749 37.6299 128.749C37.6299 128.749 16.895 108.261 19.8909 104.266C22.8869 100.271 43.3747 127.245 43.3747 127.245C43.3747 127.245 44.7029 115.169 48.2857 115.509C51.8685 115.838 48.6151 129.912 48.6151 129.912C48.6151 129.912 69.9266 137.325 70.7605 143.986C71.5945 150.647 49.9432 137.654 49.9432 137.654C49.9432 137.654 75.5273 179.68 84.1652 240.907C84.1652 240.907 76.876 176.684 96.4476 156.577C96.4476 156.577 81.8075 146.271 84.9991 140.207C88.201 134.143 96.4476 151.491 96.4476 151.491C96.4476 151.491 95.1607 127.184 101.976 122.592C108.792 118 99.3303 151.491 99.3303 151.491C99.3303 151.491 117.419 116.054 123.679 116.61C129.939 117.166 101.842 152.222 101.842 152.222C101.842 152.222 141.768 121.614 151.785 125.928C161.803 130.241 104.488 153.334 104.488 153.334C104.488 153.334 144.826 145.406 147.472 154.24C150.118 163.073 105.322 155.558 105.322 155.558C105.322 155.558 129.805 162.94 128.137 170.651C126.469 178.372 102.542 157.514 102.542 157.514C102.542 157.514 110.192 177.116 105.466 177.26C100.741 177.405 98.0949 157.514 98.0949 157.514C98.0949 157.514 78.8836 181.883 88.2524 264.535H116.153V279.535H109.863V289.552H58.0354V289.532Z" fill="#F2B771"/>
<path d="M250.219 254.857C250.219 254.857 243.363 296.862 231.502 302.267C231.502 302.267 241.798 316.506 242.632 332.937H237.638C237.638 332.937 235.559 315.054 227.137 303.822C227.137 303.822 218.51 306.53 211.025 306.427L209.882 307.878C209.882 307.878 217.058 327.841 218.407 335.326H213.207C213.207 335.326 206.032 310.061 203.952 308.506L142.509 306.941C142.509 306.941 135.961 324.722 137.104 333.658H132.667C132.667 333.658 134.201 310.267 137.526 306.21L104.066 301.485L103.489 298.54L101.821 290.119L97.6209 268.869L97.6106 268.859C97.0753 268.478 78.6053 255.197 81.591 242.235C84.6178 229.077 93.6778 226.215 101.636 226.874C109.605 227.533 160.104 221.006 160.104 221.006L204.673 149.164C204.673 149.164 226.931 149.103 230.37 150.245C233.798 151.388 243.888 152.644 242.632 179.978C241.386 207.323 254.07 234.451 254.904 236.222C255.728 238.014 259.269 248 250.219 254.857Z" fill="#4177B7"/>
<path d="M101.822 290.139L97.6216 268.89L101.585 272.339C101.585 272.339 101.678 283.88 102.316 288.091C102.43 288.811 102.234 289.491 101.822 290.139Z" fill="#474A57"/>
<path d="M231.502 302.267C231.502 302.267 241.798 316.506 242.632 332.937H237.638C237.638 332.937 235.559 315.054 227.137 303.822C227.137 303.822 218.51 306.53 211.025 306.427L209.882 307.878C209.882 307.878 217.058 327.841 218.407 335.326H213.207C213.207 335.326 206.032 310.061 203.952 308.506L142.509 306.942C142.509 306.942 135.961 324.722 137.104 333.658H132.666C132.666 333.658 134.2 310.267 137.526 306.211L104.066 301.485L103.489 298.54C107.741 298.952 114.876 299.776 125.83 301.372C146.184 304.326 205.321 304.81 205.321 304.81C218.396 301.433 229.021 267.356 229.021 267.356C229.021 267.356 241.849 256.937 243.857 255.413C245.864 253.889 250.23 254.847 250.23 254.847C250.23 254.847 243.363 296.862 231.502 302.267Z" fill="#474A57"/>
<path d="M127.992 227.523L166.662 253.138L187.17 229.561L127.992 227.523Z" fill="#18191F"/>
<path d="M217.089 301.361C217.089 301.361 231.029 280.987 232.727 268.89L243.816 260.612C243.816 260.612 237.885 288.924 230.452 298.345C230.452 298.345 222.906 301.516 217.089 301.361Z" fill="#4177B7"/>
<path d="M192.215 273.697C192.205 273.697 192.195 273.697 192.184 273.697L171.007 272.853C170.615 272.833 170.307 272.503 170.327 272.112C170.348 271.721 170.667 271.412 171.068 271.432L192.246 272.277C192.637 272.297 192.946 272.627 192.926 273.018C192.915 273.389 192.596 273.697 192.215 273.697Z" fill="#6AA2DB"/>
<path d="M214.495 282.232C210.48 282.232 205.703 281.831 201.852 280.317C199.289 279.309 197.6 277.754 196.849 275.705C195.582 272.256 197.467 268.704 197.549 268.55C197.734 268.2 198.167 268.076 198.517 268.262C198.867 268.447 198.99 268.879 198.805 269.229C198.784 269.27 197.147 272.39 198.197 275.221C198.805 276.869 200.215 278.135 202.377 278.989C210.14 282.037 222.433 280.297 222.556 280.276C222.948 280.215 223.308 280.493 223.37 280.884C223.421 281.275 223.154 281.635 222.762 281.697C222.495 281.728 218.963 282.232 214.495 282.232Z" fill="#6AA2DB"/>
<path d="M203.026 277.332C202.871 277.332 202.717 277.28 202.583 277.177C202.274 276.93 202.223 276.488 202.47 276.179C202.603 276.004 206.001 271.813 217.542 266.625C225.995 262.826 232.285 256.556 236.877 251.974C238.493 250.358 239.893 248.958 241.149 247.908C245.206 244.489 250.127 242.358 253.123 242.719C254.266 242.852 255.131 243.326 255.707 244.119C255.944 244.438 255.872 244.881 255.553 245.117C255.234 245.344 254.791 245.282 254.554 244.963C254.214 244.5 253.689 244.232 252.958 244.139C250.374 243.831 245.793 245.869 242.076 248.999C240.872 250.008 239.492 251.387 237.896 252.983C233.222 257.637 226.829 264.02 218.139 267.922C206.979 272.936 203.633 277.023 203.602 277.064C203.448 277.239 203.242 277.332 203.026 277.332Z" fill="#6AA2DB"/>
<path d="M228.095 238.436C227.9 238.436 227.704 238.353 227.56 238.199C227.302 237.9 227.323 237.458 227.622 237.19C238.998 227.101 253.082 235.512 253.226 235.605C253.566 235.81 253.669 236.243 253.463 236.583C253.257 236.922 252.825 237.025 252.485 236.819C252.351 236.737 239.152 228.882 228.569 238.261C228.425 238.374 228.26 238.436 228.095 238.436Z" fill="#6AA2DB"/>
<path d="M103.088 271.958C102.913 271.958 102.749 271.896 102.605 271.772C102.316 271.505 102.296 271.062 102.553 270.763C102.759 270.537 107.66 265.266 121.239 263.814C121.63 263.773 121.981 264.051 122.022 264.452C122.063 264.843 121.785 265.193 121.394 265.235C108.421 266.624 103.665 271.68 103.613 271.731C103.469 271.875 103.284 271.958 103.088 271.958Z" fill="#6AA2DB"/>
<path d="M136.415 271.227H136.405L112.19 270.856C111.799 270.846 111.479 270.527 111.49 270.135C111.5 269.744 111.809 269.435 112.2 269.435H112.21L136.425 269.806C136.816 269.816 137.136 270.135 137.125 270.527C137.125 270.918 136.806 271.227 136.415 271.227Z" fill="#6AA2DB"/>
<path d="M252.112 266.004L250.348 267.457L302.917 331.271L304.681 329.818L252.112 266.004Z" fill="#969BAB"/>
<path d="M310.357 267.007L254.272 329.178L255.97 330.709L312.054 268.537L310.357 267.007Z" fill="#969BAB"/>
<path d="M281.559 267.757H279.273V331.167H281.559V267.757Z" fill="#969BAB"/>
<path d="M319.168 255.001H244.599V268.107H319.168V255.001Z" fill="#E5954C"/>
<path d="M261.874 246.713C261.874 249.297 263.943 251.418 268.586 251.604C269.214 252.942 270.058 254.116 271.232 255.032H284.575C288.93 251.593 288.94 244.489 288.94 239.589H266.877C266.877 240.34 266.877 241.154 266.898 241.988C263.428 242.564 261.874 244.459 261.874 246.713ZM281.764 253.076C281.764 253.076 284.369 245.859 282.825 241.298H286.274C286.274 241.298 287.396 248.752 281.764 253.076ZM264.715 246.765C264.694 245.529 265.045 244.582 266.98 244.129C267.093 245.9 267.32 247.733 267.793 249.431C265.137 249.112 264.736 248.165 264.715 246.765Z" fill="url(#paint0_linear)"/>
<path d="M210.078 126.113C207.226 119.689 201.924 119.503 198.805 123.621C195.685 127.74 205.394 136.81 205.394 136.81C205.394 136.81 215.751 138.889 210.078 126.113Z" fill="#FCEDD0"/>
<path d="M176.69 132.609C176.69 132.609 169.71 125.752 175.527 119.802C181.344 113.851 188.458 118.124 188.458 118.124C188.458 118.124 189.106 113.594 194.666 113.079C200.225 112.564 199.844 123.94 201.008 126.01C202.171 128.079 221.578 158.863 212.652 170.63L169.452 162.744C169.452 162.744 171.656 151.491 175.403 148.907L176.69 132.609Z" fill="#FCEDD0"/>
<path d="M201.316 141.854C198.948 146.786 194.737 144.212 194.737 144.212L193.162 148.814V151.645C187.242 160.458 178.162 156.711 178.162 156.711L177.863 154.641L177.565 152.562C176.37 152.521 175.104 152.15 174.054 151.584C171.83 150.389 171.243 147.97 171.068 145.592C170.831 142.493 171.583 139.373 172.767 136.532C173.333 135.162 174.27 133.917 174.816 132.568C174.816 132.558 177.843 125.073 183.299 123.755C183.299 123.755 185.41 122.89 186.882 125.413C188.354 127.945 190.846 128.45 192.699 128.996C194.552 129.551 194.552 133.845 194.171 136.666C193.79 139.497 195.726 140.166 195.777 138.9C195.808 137.922 196.941 137.201 197.692 136.769C198.567 136.264 199.432 136.295 200.348 136.789C202.181 137.808 202.099 140.207 201.316 141.854Z" fill="#F2B771"/>
<path d="M190.64 148.3C190.64 148.3 188.159 152.953 177.864 154.642L177.565 152.562C177.565 152.572 185.256 152.902 190.64 148.3Z" fill="#D17C5A"/>
<path d="M176.957 155.815C176.957 155.815 175.64 157.452 176.185 158.533C176.731 159.624 177.091 160.932 175.238 161.21C173.375 161.478 159.136 167.325 155.986 173.503C152.835 179.68 150.951 190.603 149.366 196.4C147.78 202.196 141.459 226.905 141.459 226.905L204.961 226.081C204.961 226.081 203.149 210.865 203.458 207.395C203.767 203.926 206.32 195.72 206.32 195.72L211.591 204.379L228.846 226.905C228.846 226.905 236.609 220.656 230.658 211.616C230.658 211.616 230.205 207.478 231.482 206.046C232.758 204.615 227.189 192.034 227.189 192.034L215.884 170.641C215.884 170.641 199.391 159.336 197.96 158.06C196.529 156.783 198.454 155.671 195.674 154.23C195.674 154.23 196.354 149.906 193.162 149.195C193.162 149.195 191.824 152.263 190.238 153.488C188.643 154.714 185.41 156.773 181.765 156.598C178.121 156.423 178.255 155.269 178.255 155.269C178.255 155.269 177.441 155.074 176.957 155.815Z" fill="url(#paint1_linear)"/>
<path d="M149.716 211.215C149.685 211.215 149.654 211.204 149.613 211.194C149.469 211.143 149.386 210.978 149.448 210.824L159.836 182.491C159.888 182.346 160.053 182.264 160.207 182.326C160.351 182.377 160.433 182.542 160.372 182.696L149.984 211.029C149.942 211.143 149.829 211.215 149.716 211.215Z" fill="#E5954C"/>
<path d="M167.424 217.855C167.373 217.855 167.321 217.845 167.27 217.814C167.136 217.732 167.095 217.557 167.177 217.423C168.279 215.632 169.411 213.727 170.029 211.73C170.348 210.679 170.286 209.526 170.214 208.404C170.183 207.961 170.163 207.519 170.163 207.086C170.142 204.368 170.832 202.083 171.563 199.653C171.707 199.179 171.851 198.696 171.995 198.201C172.531 196.348 172.994 194.094 173.447 191.921C173.766 190.387 174.055 188.936 174.384 187.638C174.425 187.484 174.569 187.391 174.724 187.432C174.878 187.474 174.971 187.628 174.93 187.772C174.61 189.069 174.312 190.511 174.003 192.034C173.55 194.217 173.087 196.482 172.541 198.356C172.397 198.85 172.253 199.334 172.109 199.807C171.388 202.196 170.708 204.44 170.729 207.076C170.729 207.498 170.76 207.931 170.781 208.363C170.853 209.537 170.925 210.751 170.564 211.894C169.926 213.953 168.783 215.899 167.661 217.721C167.62 217.804 167.527 217.855 167.424 217.855Z" fill="#E5954C"/>
<path d="M193.503 220.378C193.462 220.378 193.41 220.367 193.369 220.347C193.091 220.203 186.626 216.682 184.69 215.24C182.631 213.696 177.123 210.298 170.379 212.08C170.225 212.121 170.07 212.028 170.029 211.874C169.988 211.719 170.081 211.565 170.235 211.524C177.216 209.681 182.909 213.181 185.03 214.777C186.934 216.198 193.575 219.811 193.637 219.842C193.771 219.914 193.822 220.089 193.75 220.234C193.698 220.326 193.596 220.378 193.503 220.378Z" fill="#E5954C"/>
<path d="M206.309 196.008C206.206 196.008 206.103 195.947 206.052 195.854L202.768 189.296C202.696 189.152 202.757 188.987 202.891 188.915C203.035 188.843 203.2 188.905 203.272 189.038L206.556 195.597C206.629 195.741 206.567 195.905 206.433 195.977C206.402 195.998 206.351 196.008 206.309 196.008Z" fill="#E5954C"/>
<path d="M204.158 187.751C204.137 187.751 204.127 187.751 204.106 187.751C203.952 187.72 203.849 187.576 203.88 187.422C205.332 179.258 215.277 170.785 215.699 170.424C215.823 170.321 215.998 170.342 216.101 170.455C216.204 170.579 216.183 170.754 216.07 170.857C215.967 170.939 205.867 179.556 204.446 187.515C204.415 187.648 204.292 187.751 204.158 187.751Z" fill="#E5954C"/>
<path d="M188.478 159.182C188.457 159.182 188.437 159.182 188.437 159.182C188.282 159.182 188.159 159.048 188.159 158.893C188.159 158.739 188.293 158.615 188.447 158.615C188.499 158.615 192.257 158.657 195.427 154.065C195.52 153.931 195.695 153.9 195.829 153.993C195.963 154.085 195.994 154.261 195.901 154.394C192.699 159.027 188.952 159.182 188.478 159.182Z" fill="#E5954C"/>
<path d="M185.823 163.145C183.269 163.145 181.447 162.631 181.406 162.62C181.251 162.579 181.169 162.414 181.21 162.27C181.251 162.116 181.416 162.033 181.56 162.075C181.653 162.105 191.32 164.834 197.281 157.328C197.384 157.205 197.559 157.184 197.683 157.287C197.806 157.39 197.827 157.565 197.724 157.689C194.152 162.188 189.302 163.145 185.823 163.145Z" fill="#E5954C"/>
<path d="M229.011 208.6C228.888 208.6 228.764 208.517 228.733 208.383C228.682 208.178 227.344 203.328 217.872 204.636C217.717 204.657 217.573 204.554 217.553 204.389C217.532 204.234 217.635 204.09 217.8 204.07C227.817 202.69 229.238 208.023 229.289 208.25C229.331 208.404 229.228 208.558 229.084 208.589C229.063 208.6 229.032 208.6 229.011 208.6Z" fill="#E5954C"/>
<path d="M167.424 217.567C167.424 217.567 175.866 217.886 179.634 219.739C183.403 221.593 190.115 226.267 190.115 226.267L184.031 229.973L155.986 228.501L161.134 224.331C161.123 224.331 166.92 221.212 167.424 217.567Z" fill="#0D3475"/>
<path d="M149.345 222.694L187.171 227.945L152.65 232.351L149.345 222.694Z" fill="#AEBECC"/>
<path d="M221.495 241.452C216.811 244.582 200.626 259.191 200.626 259.191L165.694 255.969L166.641 248.978L184.01 229.973L187.15 229.561V227.945L186.038 228.068L204.745 210.412C204.745 210.412 221.011 203.576 226.715 214.612C232.439 225.639 226.19 238.323 221.495 241.452Z" fill="#0D3475"/>
<path d="M171.037 266.944C171.037 266.944 168.711 279.7 162.688 280.606C161.092 277.023 164.634 267.263 164.634 267.263L171.037 266.944Z" fill="#1A1A1A"/>
<path d="M95.212 231.445C91.2277 243.079 95.1091 251.686 102.172 256.082C109.245 260.478 162.688 280.606 162.688 280.606C162.688 280.606 166.961 255.331 171.728 252.324L165.025 247.897C165.025 247.897 151.219 238.189 138.051 232.825C126.201 228.017 99.0625 220.203 95.212 231.445Z" fill="#0D3475"/>
<path d="M202.017 254.322L201.286 253.447C201.471 253.292 220.229 237.55 222.278 235.708L223.04 236.552C220.981 238.415 202.789 253.673 202.017 254.322Z" fill="#134487"/>
<path d="M171.522 252.86C171.254 252.757 144.61 242.42 136.682 238.22C128.755 234.019 120.539 228.47 120.457 228.408L121.095 227.461C121.177 227.512 129.352 233.031 137.217 237.211C145.083 241.38 171.666 251.696 171.934 251.799L171.522 252.86Z" fill="#134487"/>
<path d="M145.566 242.276C145.34 242.276 145.124 242.142 145.031 241.916C143.579 238.158 135.364 233.453 135.281 233.412C135.003 233.257 134.911 232.907 135.065 232.629C135.22 232.351 135.57 232.259 135.848 232.413C136.198 232.609 144.496 237.365 146.091 241.504C146.205 241.802 146.061 242.132 145.762 242.245C145.7 242.266 145.628 242.276 145.566 242.276Z" fill="#134487"/>
<path d="M171.727 252.335L189.24 256.576C189.24 256.576 192.164 253.189 196.302 253.755C200.441 254.322 205.311 255.022 205.311 255.022C205.311 255.022 197.898 264.483 198.176 268.9C198.176 268.9 195.921 266.264 190.835 266.738C185.76 267.211 165.097 268.9 165.097 268.9C165.097 268.9 168.227 254.394 171.727 252.335Z" fill="#F2B771"/>
<path d="M187.171 227.945V229.561L184.031 229.973L186.059 228.068L187.171 227.945Z" fill="#6B4F4E"/>
<path d="M186.059 228.068L184.031 229.973L154.112 233.968L105.003 226.905L91.7734 184.859L143.817 189.522L154.4 231.62L186.059 228.068Z" fill="#D9DBE1"/>
<path d="M169.452 182.799C169.452 182.799 174.394 185.94 174.641 187.412C174.888 188.884 172.51 190.521 170.08 188.719C167.64 186.928 169.452 182.799 169.452 182.799Z" fill="black"/>
<path d="M160.104 182.604C160.104 182.604 163.955 173.06 164.315 168.993C164.686 164.927 164.243 159.305 166.755 155.455C169.267 151.604 170.307 147.394 170.307 147.394C170.307 147.394 171.357 146.652 171.017 149.834C170.678 153.015 169.988 154.559 169.905 156.67C169.823 158.78 169.741 159.305 169.741 159.305C169.741 159.305 172.304 156.464 174.734 158.976C177.164 161.488 177.926 162.188 179.099 162.384C180.273 162.579 177.133 163.403 175.352 162.672C175.352 162.672 176.917 164.432 179.099 164.659C181.282 164.885 179.171 166.564 177.565 166.286C175.959 166.008 173.519 164.947 173.519 164.947C173.519 164.947 176.402 167.624 177.215 167.912C178.029 168.201 175.146 169.745 172.304 167.387C172.304 167.387 173.437 170.919 171.491 173.029C171.491 173.029 170.914 175.016 171.017 178.753C171.12 182.491 170.07 188.709 170.07 188.709C170.07 188.709 162.04 182.532 160.104 182.604Z" fill="#F2B771"/>
<path d="M209.604 203.493C209.604 203.493 212.981 199.447 216.687 203.153C216.687 203.153 220.538 202.34 221.681 205.789C221.681 205.789 224.718 207.477 224.924 209.969C225.13 212.471 221.681 218.205 217.264 217.186C217.264 217.186 215.606 219.75 212.374 218.473C212.374 218.473 210.417 219.554 209.604 219.152C208.791 218.751 209.604 215.776 209.604 215.776C209.604 215.776 206.835 215.096 207.514 213.346C208.194 211.596 209.264 209.969 209.264 209.969C209.264 209.969 205.352 211.524 203.056 210.844C200.76 210.165 203.128 210.237 205.352 208.414C207.576 206.592 209.604 203.493 209.604 203.493Z" fill="#E4946E"/>
<path d="M213.274 207.623L209.347 215.65L209.856 215.899L213.783 207.871L213.274 207.623Z" fill="#BF6A4C"/>
<path d="M216.972 209.559L212.116 218.333L212.611 218.607L217.468 209.834L216.972 209.559Z" fill="#BF6A4C"/>
<path d="M220.556 211.056L217.016 217.06L217.504 217.348L221.044 211.344L220.556 211.056Z" fill="#BF6A4C"/>
<path d="M190.805 133.67C190.579 133.67 190.373 133.536 190.28 133.32C189.827 132.249 187.181 130.89 185.616 130.293C185.318 130.18 185.174 129.85 185.287 129.552C185.4 129.253 185.73 129.109 186.028 129.222C186.491 129.397 190.548 131.003 191.33 132.877C191.454 133.165 191.32 133.505 191.021 133.629C190.96 133.649 190.888 133.67 190.805 133.67Z" fill="#FCEDD0"/>
<path d="M188.149 136.964C187.963 136.964 187.778 136.872 187.665 136.707C186.378 134.72 184.7 135.605 184.514 135.708C184.247 135.863 183.897 135.77 183.732 135.502C183.577 135.235 183.66 134.885 183.938 134.73C184.885 134.164 187.098 133.732 188.622 136.089C188.797 136.357 188.715 136.707 188.457 136.882C188.365 136.933 188.262 136.964 188.149 136.964Z" fill="black"/>
<path d="M174.621 135.008C174.528 135.008 174.425 134.988 174.343 134.936C174.075 134.782 173.972 134.432 174.126 134.164C174.579 133.361 176.031 132.094 178.306 133.021C178.595 133.145 178.739 133.474 178.615 133.762C178.492 134.051 178.162 134.195 177.874 134.071C176.021 133.32 175.207 134.576 175.115 134.72C175.002 134.905 174.816 135.008 174.621 135.008Z" fill="black"/>
<path d="M175.907 130.962C175.712 130.962 175.516 130.859 175.413 130.674C175.259 130.396 175.351 130.056 175.629 129.891C177.514 128.821 179.912 129.171 180.015 129.191C180.324 129.243 180.54 129.531 180.489 129.84C180.437 130.149 180.149 130.365 179.84 130.313C179.82 130.313 177.73 130.005 176.196 130.88C176.093 130.931 176 130.962 175.907 130.962Z" fill="#FCEDD0"/>
<path d="M179.779 140.434C179.542 140.31 177.493 139.178 177.473 137.963C177.462 137.5 177.73 137.108 178.265 136.789C180.18 135.667 180.16 131.981 180.16 131.94L180.726 131.93C180.726 132.094 180.747 135.986 178.543 137.273C178.029 137.572 178.039 137.85 178.039 137.942C178.049 138.611 179.274 139.507 180.047 139.919L179.779 140.434Z" fill="#E5954C"/>
<path d="M178.533 146.014C175.949 146.405 174.415 141.649 174.415 141.649C174.415 141.649 179.676 142.421 182.363 142.174C185.05 141.927 182.034 145.489 178.533 146.014Z" fill="#FDFDFB"/>
<path d="M42.3249 293.805C42.3249 293.805 27.4172 295.534 24.8639 302.206C22.3107 308.877 21.312 334.142 21.312 334.142C21.312 334.142 107.474 340.525 129.198 334.142C129.198 334.142 131.102 302.164 116.843 295.658C110.172 292.61 42.3249 293.805 42.3249 293.805Z" fill="#FCEDD0"/>
<path d="M28.7761 301.238C28.7761 301.238 76.866 309.598 119.335 301.269L28.7761 301.238Z" fill="#FAD7A1"/>
<path d="M88.2625 330.137C88.2625 330.137 90.5789 335.542 93.9558 335.099C97.3327 334.657 100.01 326.842 101.76 319.934C103.51 313.026 108.061 308.064 108.061 308.064C108.061 308.064 95.9016 313.191 93.7911 316.238C91.6805 319.286 88.2625 330.137 88.2625 330.137Z" fill="#FAD7A1"/>
<path d="M111.643 305.675C103.829 314.745 98.8048 311.883 97.137 319.409C95.4588 326.945 93.4409 331.764 89.5287 331.064C85.6267 330.363 83.4853 327.089 84.4839 321.087C85.4826 315.085 89.3948 309.721 97.6209 306.787C105.847 303.863 112.961 301.001 108.225 295.843C108.225 295.843 105.291 303.307 97.3429 303.441C89.3948 303.585 83.2485 303.513 83.2485 303.513C83.2485 303.513 81.3026 307.343 78.2964 306.931C75.4857 306.54 74.9401 305.171 74.8886 305.006C74.8783 304.996 74.8783 304.996 74.8783 304.985H58.2821L54.8022 288.163C54.8022 288.163 60.8662 284.466 62.6165 282.86C64.3564 281.254 82.5587 270.722 95.047 276.518C107.525 282.304 106.763 290.747 106.763 290.747C106.763 290.747 119.457 296.615 111.643 305.675Z" fill="#E5954C"/>
<path d="M83.2487 303.513C83.2487 303.513 81.3028 307.343 78.2966 306.931C75.4859 306.54 74.9403 305.171 74.8888 305.006C74.8785 304.996 74.8785 304.996 74.8785 304.985C74.1166 299.817 78.7084 299.879 80.4277 299.992C82.1676 300.105 83.2487 303.513 83.2487 303.513Z" fill="#FBFCFD"/>
<path d="M74.8786 305.418C74.683 305.418 74.5079 305.284 74.4565 305.078C74.0343 303.112 74.2094 301.681 74.9815 300.702C75.8978 299.539 77.4421 299.354 78.832 299.313C81.0764 299.261 83.5061 297.779 86.4815 294.638C89.9202 291.014 96.0356 288.379 96.293 288.276C96.5092 288.183 96.7563 288.286 96.849 288.502C96.9416 288.719 96.8387 288.976 96.6225 289.069C96.5607 289.1 90.4143 291.745 87.0889 295.236C83.9488 298.54 81.3235 300.116 78.8423 300.167C77.648 300.198 76.3405 300.342 75.6404 301.228C75.0433 301.979 74.93 303.215 75.2801 304.893C75.3316 305.119 75.1771 305.346 74.9506 305.397C74.9403 305.418 74.9095 305.418 74.8786 305.418Z" fill="#D46918"/>
<path d="M81.6842 299.662C81.6018 299.662 81.5194 299.642 81.4474 299.59C81.2518 299.457 81.2003 299.199 81.3238 298.993C83.0946 296.316 80.109 293.887 79.9854 293.784C79.2339 293.187 76.0732 289.099 75.7128 288.636C75.5687 288.451 75.5996 288.183 75.7849 288.039C75.9702 287.895 76.2379 287.926 76.382 288.121C77.7616 289.913 80.006 292.723 80.5105 293.125C81.8077 294.165 83.7844 296.821 82.0342 299.467C81.9621 299.601 81.818 299.662 81.6842 299.662Z" fill="#D46918"/>
<path d="M79.1824 291.57C79.1824 291.57 88.8704 289.903 89.4572 290.726C90.0337 291.55 83.9594 296.986 83.9594 296.986L82.621 297.933C82.621 297.933 82.7549 296.502 82.549 295.967C82.3431 295.421 81.0047 293.732 80.2325 292.919C79.4604 292.106 79.1824 291.57 79.1824 291.57Z" fill="#FDFCFC"/>
<path d="M42.0256 282.727C42.0256 282.727 41.6756 287.154 43.3537 290.139C45.0319 293.125 42.5919 295.009 41.9947 295.699C41.3976 296.399 38.4017 299.673 45.0216 302.463C51.6518 305.253 61.0619 305.675 66.1581 303.997C66.1581 303.997 72.2221 303.019 73.6222 299.189C75.0224 295.349 66.992 280.657 64.4799 280.606C61.9678 280.564 61.1339 286.834 61.1339 286.834C61.1339 286.834 52.6196 287.535 51.4356 287.257C50.2517 286.979 42.7257 281.048 42.0256 282.727Z" fill="#E5954C"/>
<path d="M66.1586 304.429C65.9527 304.429 65.7674 304.285 65.7365 304.069C65.6953 303.832 65.86 303.616 66.0865 303.575C66.1483 303.565 71.924 302.586 73.2213 299.035C74.0861 296.667 70.7607 288.924 67.4352 284.096C65.8909 281.841 64.8717 281.038 64.4702 281.028C62.7199 280.997 61.7625 285.362 61.5566 286.886L61.5154 287.226L61.1756 287.257C60.3005 287.329 52.5584 287.957 51.3435 287.668C51.117 287.617 50.9729 287.38 51.0244 287.154C51.0758 286.927 51.3126 286.783 51.5391 286.834C52.3319 287.02 57.3663 286.711 60.7638 286.433C60.9903 284.992 61.9478 280.173 64.4599 280.173C64.4702 280.173 64.4805 280.173 64.4907 280.173C65.3556 280.184 66.5807 281.347 68.1456 283.612C71.3166 288.224 75.0847 296.43 74.0243 299.333C72.5624 303.359 66.4881 304.378 66.2307 304.419C66.2101 304.429 66.1895 304.429 66.1586 304.429Z" fill="#D46918"/>
<path d="M65.5818 290.057C64.0478 290.057 63.2962 292.816 62.2872 292.806C61.2783 292.796 57.6131 292.796 57.294 295.194C56.9748 297.593 58.1897 300.97 61.1342 301.248C64.0786 301.526 69.0616 299.93 69.3602 296.389C69.6587 292.837 68.2792 292.281 67.7129 291.642C67.157 290.994 66.8996 290.057 65.5818 290.057Z" fill="white"/>
<path d="M60.0433 289.954C59.9712 289.954 59.8991 289.933 59.8373 289.903C59.6314 289.789 59.5594 289.522 59.6726 289.316C59.6829 289.295 60.5477 287.751 60.7227 286.762C60.7639 286.526 60.9904 286.371 61.2169 286.412C61.4537 286.454 61.6082 286.67 61.567 286.907C61.3714 288.039 60.4551 289.655 60.4242 289.728C60.3418 289.882 60.1874 289.954 60.0433 289.954Z" fill="#C95D32"/>
<path d="M44.5075 293.022C44.456 293.022 44.4046 293.012 44.3531 292.991C44.1369 292.909 44.0236 292.651 44.1163 292.435C45.2591 289.573 47.4314 288.08 47.5138 288.018C47.7094 287.885 47.9771 287.936 48.1109 288.132C48.2448 288.327 48.1933 288.595 47.9977 288.729C47.9771 288.739 45.9489 290.15 44.909 292.754C44.837 292.919 44.6723 293.022 44.5075 293.022Z" fill="#D46918"/>
<path d="M51.59 298.705C51.415 298.705 51.2503 298.592 51.1885 298.417C50.4369 296.286 47.2762 296.872 47.2454 296.872C47.0189 296.914 46.7924 296.769 46.7409 296.533C46.6997 296.296 46.8438 296.08 47.0806 296.028C48.4293 295.771 51.1885 295.863 51.9915 298.128C52.0739 298.355 51.9504 298.592 51.7342 298.674C51.6827 298.695 51.6312 298.705 51.59 298.705Z" fill="#C95D32"/>
<path d="M60.3418 298.705C60.2491 298.705 60.1462 298.674 60.0638 298.602C59.8888 298.448 59.8579 298.19 60.0123 298.005C60.0741 297.933 61.5463 296.214 65.4792 296.903C65.716 296.945 65.8704 297.161 65.8292 297.398C65.7881 297.634 65.5616 297.789 65.3351 297.748C61.9273 297.15 60.7227 298.499 60.6712 298.551C60.5786 298.654 60.455 298.705 60.3418 298.705Z" fill="#C95D32"/>
<path d="M51.8787 299.642C51.8787 299.642 57.9838 300.054 59.106 299.487C60.2282 298.921 57.6132 301.773 56.9749 302.298C56.3366 302.823 55.1423 303.492 54.1642 302.669C53.1965 301.845 52.064 300.466 51.8787 299.642Z" fill="black"/>
<defs>
<linearGradient id="paint0_linear" x1="76.616" y1="254.286" x2="267.562" y2="234.756" gradientUnits="userSpaceOnUse">
<stop stop-color="#114380"/>
<stop offset="1" stop-color="#2A2A5B"/>
</linearGradient>
<linearGradient id="paint1_linear" x1="141.543" y1="187.823" x2="233.393" y2="187.823" gradientUnits="userSpaceOnUse">
<stop stop-color="#C46A18"/>
<stop offset="1" stop-color="#D2511D"/>
</linearGradient>
</defs>
</svg>
