<svg width="64" height="414" viewBox="0 0 64 414" fill="none" xmlns="http://www.w3.org/2000/svg">
<path d="M50.2082 373.164L49.7296 371.742L48.7082 372.086L48.7082 373.164L50.2082 373.164ZM50.2082 395.592L48.7082 395.592L48.7082 396.673L49.7339 397.015L50.2082 395.592ZM63 399.856L64.5 399.856L64.5 398.775L63.4743 398.433L63 399.856ZM63 413.458L62.4767 414.864L64.5 415.617L64.5 413.458L63 413.458ZM0.917168 390.348L-0.582832 390.348L-0.582832 391.39L0.39387 391.753L0.917168 390.348ZM0.917168 378.494L0.39133 377.089L-0.582832 377.454L-0.582832 378.494L0.917168 378.494ZM63 355.255L64.5 355.255L64.5 353.092L62.4742 353.851L63 355.255ZM63 368.857L63.4786 370.279L64.5 369.935L64.5 368.857L63 368.857ZM39.8469 392.138L39.3741 393.562L41.3469 394.217L41.3469 392.138L39.8469 392.138ZM39.8469 376.618L41.3469 376.618L41.3469 374.532L39.3694 375.196L39.8469 376.618ZM16.6084 384.421L16.131 382.999L11.8728 384.429L16.1357 385.844L16.6084 384.421ZM48.7082 373.164L48.7082 395.592L51.7082 395.592L51.7082 373.164L48.7082 373.164ZM49.7339 397.015L62.5257 401.279L63.4743 398.433L50.6825 394.169L49.7339 397.015ZM61.5 399.856L61.5 413.458L64.5 413.458L64.5 399.856L61.5 399.856ZM63.5233 412.052L1.44047 388.942L0.39387 391.753L62.4767 414.864L63.5233 412.052ZM2.41717 390.348L2.41717 378.494L-0.582832 378.494L-0.582832 390.348L2.41717 390.348ZM1.44301 379.899L63.5258 356.66L62.4742 353.851L0.39133 377.089L1.44301 379.899ZM61.5 355.255L61.5 368.857L64.5 368.857L64.5 355.255L61.5 355.255ZM62.5214 367.436L49.7296 371.742L50.6868 374.586L63.4786 370.279L62.5214 367.436ZM41.3469 392.138L41.3469 376.618L38.3469 376.618L38.3469 392.138L41.3469 392.138ZM39.3694 375.196L16.131 382.999L17.0859 385.843L40.3243 378.04L39.3694 375.196ZM16.1357 385.844L39.3741 393.562L40.3196 390.715L17.0812 382.997L16.1357 385.844ZM63 349.457L63 350.957L64.5 350.957L64.5 349.457L63 349.457ZM0.917169 349.457L-0.582831 349.457L-0.582831 350.957L0.917169 350.957L0.917169 349.457ZM5.26638 310.569L6.46955 311.465L6.47374 311.46L5.26638 310.569ZM25.9891 307.073L26.8317 305.832L26.8246 305.827L25.9891 307.073ZM31.0632 313.597L29.6646 314.139L31.3726 318.544L32.5184 313.961L31.0632 313.597ZM35.8814 306.092L36.7837 307.291L36.7926 307.284L35.8814 306.092ZM58.3097 309.034L59.4776 308.093L58.3097 309.034ZM63 325.323L64.5 325.323L64.5 325.311L63 325.323ZM35.9667 336.665L34.4667 336.665L34.4667 338.165L35.9667 338.165L35.9667 336.665ZM52.7239 336.665L52.7239 338.165L54.2239 338.165L54.2239 336.665L52.7239 336.665ZM50.592 318.671L51.7363 317.701L51.7349 317.699L50.592 318.671ZM35.9667 324.939L34.4668 324.917L34.4667 324.928L34.4667 324.939L35.9667 324.939ZM26.9271 336.665L26.9271 338.165L28.4271 338.165L28.4271 336.665L26.9271 336.665ZM26.9271 327.199L28.4271 327.199L28.4271 327.186L28.4269 327.172L26.9271 327.199ZM13.1546 319.993L14.342 320.909L14.3509 320.898L14.3596 320.886L13.1546 319.993ZM11.2785 336.665L9.77852 336.665L9.77852 338.165L11.2785 338.165L11.2785 336.665ZM63 347.957L0.917169 347.957L0.917169 350.957L63 350.957L63 347.957ZM2.41717 349.457L2.41717 327.71L-0.582831 327.71L-0.582831 349.457L2.41717 349.457ZM2.41717 327.71C2.41717 320.333 3.843 314.993 6.46953 311.465L4.06322 309.674C0.890815 313.935 -0.582831 320.022 -0.582831 327.71L2.41717 327.71ZM6.47374 311.46C9.01643 308.011 12.7527 306.228 17.9303 306.228L17.9303 303.228C11.9647 303.228 7.25842 305.34 4.05902 309.679L6.47374 311.46ZM17.9303 306.228C20.7003 306.228 23.0905 306.935 25.1535 308.319L26.8246 305.827C24.2258 304.084 21.2434 303.228 17.9303 303.228L17.9303 306.228ZM25.1465 308.314C27.1782 309.694 28.686 311.615 29.6646 314.139L32.4617 313.055C31.2799 310.007 29.405 307.579 26.8317 305.832L25.1465 308.314ZM32.5184 313.961C33.2386 311.08 34.6658 308.885 36.7837 307.291L34.9791 304.894C32.2645 306.938 30.4796 309.746 29.6079 313.233L32.5184 313.961ZM36.7926 307.284C38.9091 305.665 41.5319 304.821 44.7504 304.821L44.7504 301.821C40.976 301.821 37.6862 302.824 34.9702 304.901L36.7926 307.284ZM44.7504 304.821C50.3764 304.821 54.4192 306.598 57.1418 309.976L59.4776 308.093C56.0601 303.853 51.0634 301.821 44.7504 301.821L44.7504 304.821ZM57.1418 309.976C59.9236 313.427 61.4448 318.478 61.5 325.335L64.5 325.311C64.4415 318.068 62.8358 312.26 59.4776 308.093L57.1418 309.976ZM61.5 325.323L61.5 349.457L64.5 349.457L64.5 325.323L61.5 325.323ZM35.9667 338.165L52.7239 338.165L52.7239 335.165L35.9667 335.165L35.9667 338.165ZM54.2239 336.665L54.2239 325.706L51.2239 325.706L51.2239 336.665L54.2239 336.665ZM54.2239 325.706C54.2239 322.47 53.4599 319.735 51.7363 317.701L49.4476 319.641C50.5666 320.961 51.2239 322.917 51.2239 325.706L54.2239 325.706ZM51.7349 317.699C49.961 315.613 47.5283 314.613 44.6225 314.613L44.6225 317.613C46.7765 317.613 48.3234 318.318 49.4491 319.642L51.7349 317.699ZM44.6225 314.613C41.5335 314.613 38.9418 315.415 37.1236 317.269C35.3145 319.114 34.5127 321.755 34.4668 324.917L37.4665 324.961C37.506 322.239 38.1894 320.467 39.2655 319.369C40.3326 318.281 42.0262 317.613 44.6225 317.613L44.6225 314.613ZM34.4667 324.939L34.4667 336.665L37.4667 336.665L37.4667 324.939L34.4667 324.939ZM28.4271 336.665L28.4271 327.199L25.4271 327.199L25.4271 336.665L28.4271 336.665ZM28.4269 327.172C28.3673 323.79 27.6652 320.986 26.0853 319.004C24.4518 316.956 22.0709 316.02 19.2094 316.02L19.2094 319.02C21.3794 319.02 22.8005 319.697 23.7396 320.875C24.7323 322.12 25.3733 324.155 25.4274 327.225L28.4269 327.172ZM19.2094 316.02C16.1098 316.02 13.5515 316.939 11.9497 319.099L14.3596 320.886C15.2024 319.749 16.6806 319.02 19.2094 319.02L19.2094 316.02ZM11.9673 319.076C10.4129 321.09 9.77852 324.07 9.77852 327.71L12.7785 327.71C12.7785 324.302 13.3949 322.136 14.342 320.909L11.9673 319.076ZM9.77852 327.71L9.77852 336.665L12.7785 336.665L12.7785 327.71L9.77852 327.71ZM11.2785 338.165L26.9271 338.165L26.9271 335.165L11.2785 335.165L11.2785 338.165ZM60.1005 255.224L58.8255 256.014L58.828 256.018L60.1005 255.224ZM60.1432 282.811L61.4222 283.595L60.1432 282.811ZM49.5686 292.192L50.2193 293.543L50.2226 293.542L49.5686 292.192ZM33.7068 295.56L33.7068 297.06L33.7139 297.06L33.7068 295.56ZM14.5191 292.277L13.8748 293.632L13.8784 293.633L14.5191 292.277ZM3.81664 282.939L5.0932 282.152L5.09166 282.149L3.81664 282.939ZM3.81664 255.352L5.08919 256.146L5.09567 256.135L3.81664 255.352ZM14.5191 246.014L15.1566 247.371L15.1666 247.367L14.5191 246.014ZM15.6704 279.059L16.5313 277.831L16.5264 277.827L15.6704 279.059ZM30.3383 282.598L30.3317 284.098L30.3383 284.098L30.3383 282.598ZM48.3321 259.146L49.181 257.91L49.1761 257.906L48.3321 259.146ZM33.5789 255.65L33.5855 254.15L33.5789 254.15L33.5789 255.65ZM33.3657 244.188C39.3008 244.188 44.4341 245.236 48.8036 247.286L50.0778 244.57C45.2373 242.299 39.6538 241.188 33.3657 241.188L33.3657 244.188ZM48.8036 247.286C53.1651 249.332 56.4882 252.242 58.8255 256.014L61.3755 254.434C58.7099 250.132 54.9264 246.845 50.0778 244.57L48.8036 247.286ZM58.828 256.018C61.166 259.764 62.3528 264.088 62.3528 269.039L65.3528 269.039C65.3528 263.585 64.038 258.699 61.373 254.429L58.828 256.018ZM62.3528 269.039C62.3528 273.932 61.1802 278.247 58.8641 282.028L61.4222 283.595C64.0523 279.302 65.3528 274.436 65.3528 269.039L62.3528 269.039ZM58.8641 282.028C56.5522 285.801 53.253 288.74 48.9146 290.842L50.2226 293.542C55.0374 291.209 58.788 287.894 61.4222 283.595L58.8641 282.028ZM48.9179 290.84C44.5447 292.946 39.4835 294.033 33.6997 294.06L33.7139 297.06C39.8691 297.031 45.3824 295.872 50.2193 293.543L48.9179 290.84ZM33.7068 294.06L30.6368 294.06L30.6368 297.06L33.7068 297.06L33.7068 294.06ZM30.6368 294.06C24.7045 294.06 19.558 292.999 15.1598 290.921L13.8784 293.633C18.7471 295.933 24.3457 297.06 30.6368 297.06L30.6368 294.06ZM15.1634 290.923C10.7364 288.817 7.40005 285.89 5.0932 282.152L2.54009 283.727C5.1794 288.004 8.97804 291.303 13.8748 293.632L15.1634 290.923ZM5.09166 282.149C2.75028 278.371 1.56438 274.044 1.56438 269.124L-1.43562 269.124C-1.43562 274.551 -0.12001 279.434 2.54163 283.729L5.09166 282.149ZM1.56438 269.124C1.56438 264.204 2.7503 259.893 5.08915 256.146L2.54414 254.557C-0.120025 258.826 -1.43562 263.697 -1.43562 269.124L1.56438 269.124ZM5.09567 256.135C7.40214 252.371 10.7357 249.447 15.1566 247.371L13.8816 244.656C8.9787 246.958 5.17731 250.259 2.53761 254.568L5.09567 256.135ZM15.1666 247.367C19.564 245.262 24.6941 244.188 30.5941 244.188L30.5941 241.188C24.3277 241.188 18.7412 242.33 13.8716 244.661L15.1666 247.367ZM30.5941 244.188L33.3657 244.188L33.3657 241.188L30.5941 241.188L30.5941 244.188ZM30.5515 254.15C23.9016 254.15 18.6023 255.334 14.8619 257.911L16.5641 260.382C19.5891 258.297 24.1822 257.15 30.5515 257.15L30.5515 254.15ZM14.8619 257.911C11.0486 260.539 9.13893 264.34 9.13893 269.124L12.1389 269.124C12.1389 265.266 13.612 262.416 16.5641 260.382L14.8619 257.911ZM9.13893 269.124C9.13893 273.878 11.0329 277.663 14.8144 280.291L16.5264 277.827C13.5992 275.793 12.1389 272.955 12.1389 269.124L9.13893 269.124ZM14.8095 280.287C18.4938 282.87 23.7389 284.069 30.3317 284.098L30.3449 281.098C24.0322 281.07 19.4986 279.91 16.5313 277.831L14.8095 280.287ZM30.3383 284.098L33.3657 284.098L33.3657 281.098L30.3383 281.098L30.3383 284.098ZM33.3657 284.098C39.8599 284.098 45.1124 282.909 48.9509 280.35L47.2868 277.854C44.1325 279.956 39.5496 281.098 33.3657 281.098L33.3657 284.098ZM48.9509 280.35C52.8851 277.727 54.8635 273.893 54.8635 269.039L51.8635 269.039C51.8635 272.94 50.3455 275.814 47.2868 277.854L48.9509 280.35ZM54.8635 269.039C54.8635 264.284 52.9687 260.51 49.181 257.91L47.4832 260.383C50.404 262.388 51.8635 265.208 51.8635 269.039L54.8635 269.039ZM49.1761 257.906C45.4416 255.364 40.1783 254.179 33.5855 254.15L33.5723 257.15C39.8849 257.178 44.4572 258.323 47.488 260.386L49.1761 257.906ZM33.5789 254.15L30.5515 254.15L30.5515 257.15L33.5789 257.15L33.5789 254.15ZM0.917171 186.404L0.917171 184.904L-0.582829 184.904L-0.582829 186.404L0.917171 186.404ZM57.9259 192.8L56.8257 193.819L56.8291 193.823L57.9259 192.8ZM42.2773 233.989L42.2773 235.489L42.2868 235.489L42.2964 235.489L42.2773 233.989ZM0.91717 233.989L-0.58283 233.989L-0.58283 235.489L0.91717 235.489L0.91717 233.989ZM0.91717 221.197L0.91717 219.697L-0.58283 219.697L-0.58283 221.197L0.91717 221.197ZM50.8052 218.298L51.8815 219.343L51.8893 219.335L51.897 219.327L50.8052 218.298ZM42.2347 199.238L42.2572 197.738L42.2459 197.738L42.2347 197.738L42.2347 199.238ZM0.917171 199.238L-0.582829 199.238L-0.582829 200.738L0.917171 200.738L0.917171 199.238ZM0.917171 187.904L41.8083 187.904L41.8083 184.904L0.917171 184.904L0.917171 187.904ZM41.8083 187.904C48.2615 187.904 53.2067 189.914 56.8257 193.819L59.0262 191.78C54.7426 187.158 48.9428 184.904 41.8083 184.904L41.8083 187.904ZM56.8291 193.823C60.4565 197.711 62.3528 203.107 62.3528 210.197L65.3528 210.197C65.3528 202.561 63.2979 196.359 59.0228 191.776L56.8291 193.823ZM62.3528 210.197C62.3528 217.176 60.5109 222.54 56.9815 226.462L59.2114 228.469C63.3571 223.863 65.3528 217.715 65.3528 210.197L62.3528 210.197ZM56.9815 226.462C53.472 230.361 48.6258 232.408 42.2582 232.489L42.2964 235.489C49.3459 235.4 55.0459 233.097 59.2114 228.469L56.9815 226.462ZM42.2773 232.489L0.91717 232.489L0.91717 235.489L42.2773 235.489L42.2773 232.489ZM2.41717 233.989L2.41717 221.197L-0.58283 221.197L-0.58283 233.989L2.41717 233.989ZM0.91717 222.697L41.8935 222.697L41.8935 219.697L0.91717 219.697L0.91717 222.697ZM41.8935 222.697C46.1596 222.697 49.6067 221.686 51.8815 219.343L49.7288 217.253C48.2514 218.775 45.7574 219.697 41.8935 219.697L41.8935 222.697ZM51.897 219.327C54.0736 217.016 55.0767 213.909 55.0767 210.197L52.0767 210.197C52.0767 213.364 51.2321 215.657 49.7133 217.269L51.897 219.327ZM55.0767 210.197C55.0767 206.348 54.0612 203.185 51.7835 200.984C49.5192 198.797 46.2527 197.798 42.2572 197.738L42.2121 200.738C45.778 200.792 48.1825 201.677 49.6989 203.142C51.2019 204.594 52.0767 206.853 52.0767 210.197L55.0767 210.197ZM42.2347 197.738L0.917171 197.738L0.917171 200.738L42.2347 200.738L42.2347 197.738ZM2.41717 199.238L2.41717 186.404L-0.582829 186.404L-0.582829 199.238L2.41717 199.238ZM11.2785 129.182L12.7785 129.182L12.7785 127.682L11.2785 127.682L11.2785 129.182ZM11.2785 148.199L9.77852 148.199L9.77852 149.699L11.2785 149.699L11.2785 148.199ZM63 148.199L64.5 148.199L64.5 146.699L63 146.699L63 148.199ZM63 160.991L63 162.491L64.5 162.491L64.5 160.991L63 160.991ZM11.2785 160.991L11.2785 159.491L9.77852 159.491L9.77852 160.991L11.2785 160.991ZM11.2785 179.752L11.2785 181.252L12.7785 181.252L12.7785 179.752L11.2785 179.752ZM0.917171 179.752L-0.582829 179.752L-0.582829 181.252L0.917171 181.252L0.917171 179.752ZM0.917171 129.182L0.917171 127.682L-0.582829 127.682L-0.582829 129.182L0.917171 129.182ZM9.77852 129.182L9.77852 148.199L12.7785 148.199L12.7785 129.182L9.77852 129.182ZM11.2785 149.699L63 149.699L63 146.699L11.2785 146.699L11.2785 149.699ZM61.5 148.199L61.5 160.991L64.5 160.991L64.5 148.199L61.5 148.199ZM63 159.491L11.2785 159.491L11.2785 162.491L63 162.491L63 159.491ZM9.77852 160.991L9.77852 179.752L12.7785 179.752L12.7785 160.991L9.77852 160.991ZM11.2785 178.252L0.917171 178.252L0.917171 181.252L11.2785 181.252L11.2785 178.252ZM2.41717 179.752L2.41717 129.182L-0.582829 129.182L-0.582829 179.752L2.41717 179.752ZM0.917171 130.682L11.2785 130.682L11.2785 127.682L0.917171 127.682L0.917171 130.682ZM0.917172 55.6717L0.917172 54.1717L-0.582828 54.1717L-0.582828 55.6717L0.917172 55.6717ZM57.9259 62.0676L56.8257 63.0871L56.8291 63.0908L57.9259 62.0676ZM42.2773 103.257L42.2773 104.757L42.2868 104.757L42.2964 104.757L42.2773 103.257ZM0.917172 103.257L-0.582828 103.257L-0.582828 104.757L0.917172 104.757L0.917172 103.257ZM0.917172 90.4654L0.917172 88.9654L-0.582828 88.9654L-0.582828 90.4654L0.917172 90.4654ZM50.8052 87.5659L51.8815 88.6106L51.8893 88.6026L51.897 88.5944L50.8052 87.5659ZM42.2347 68.5061L42.2572 67.0063L42.2459 67.0061L42.2347 67.0061L42.2347 68.5061ZM0.917172 68.5061L-0.582828 68.5061L-0.582828 70.0061L0.917172 70.0061L0.917172 68.5061ZM0.917172 57.1717L41.8083 57.1717L41.8083 54.1717L0.917172 54.1717L0.917172 57.1717ZM41.8083 57.1717C48.2615 57.1717 53.2067 59.1818 56.8257 63.0871L59.0262 61.048C54.7426 56.4255 48.9428 54.1717 41.8083 54.1717L41.8083 57.1717ZM56.8291 63.0908C60.4565 66.9791 62.3528 72.3748 62.3528 79.4644L65.3528 79.4644C65.3528 71.8292 63.2979 65.627 59.0228 61.0444L56.8291 63.0908ZM62.3528 79.4644C62.3528 86.4437 60.5109 91.8084 56.9815 95.7299L59.2114 97.7368C63.3571 93.1305 65.3528 86.9825 65.3528 79.4644L62.3528 79.4644ZM56.9815 95.7299C53.472 99.6294 48.6258 101.676 42.2582 101.757L42.2964 104.757C49.346 104.667 55.0459 102.365 59.2114 97.7368L56.9815 95.7299ZM42.2773 101.757L0.917172 101.757L0.917172 104.757L42.2773 104.757L42.2773 101.757ZM2.41717 103.257L2.41717 90.4654L-0.582828 90.4654L-0.582828 103.257L2.41717 103.257ZM0.917172 91.9654L41.8935 91.9654L41.8935 88.9654L0.917172 88.9654L0.917172 91.9654ZM41.8935 91.9654C46.1596 91.9654 49.6067 90.9544 51.8815 88.6106L49.7288 86.5212C48.2514 88.0434 45.7574 88.9654 41.8935 88.9654L41.8935 91.9654ZM51.897 88.5944C54.0736 86.2839 55.0767 83.1765 55.0767 79.4644L52.0767 79.4644C52.0767 82.6315 51.2322 84.925 49.7133 86.5374L51.897 88.5944ZM55.0767 79.4644C55.0767 75.6158 54.0612 72.4529 51.7835 70.2522C49.5192 68.0645 46.2527 67.0664 42.2572 67.0063L42.2121 70.006C45.778 70.0596 48.1825 70.9446 49.6989 72.4097C51.2019 73.8618 52.0767 76.1212 52.0767 79.4644L55.0767 79.4644ZM42.2347 67.0061L0.917172 67.0061L0.917172 70.0061L42.2347 70.0061L42.2347 67.0061ZM2.41717 68.5061L2.41717 55.6717L-0.582828 55.6717L-0.582828 68.5061L2.41717 68.5061ZM41.1687 15.5481L42.3591 16.4608L42.3639 16.4544L42.3687 16.4481L41.1687 15.5481ZM37.0753 24.7582L38.5011 25.2243L38.5037 25.216L37.0753 24.7582ZM32.8114 35.2901L34.1311 36.0031L34.1321 36.0013L32.8114 35.2901ZM8.46433 43.0504L7.58753 44.2675L7.58997 44.2693L8.46433 43.0504ZM2.28163 34.9063L0.896682 35.4825L0.898339 35.4864L2.28163 34.9063ZM2.49483 11.1136L3.85385 11.7486L3.85807 11.7393L2.49483 11.1136ZM9.27448 3.05478L10.0924 4.3122L10.1009 4.30658L9.27448 3.05478ZM19.2521 0.155304L20.7521 0.155304L20.7521 -1.3447L19.2521 -1.3447L19.2521 0.155304ZM19.2521 12.9471L19.2521 14.4471L20.7521 14.4471L20.7521 12.9471L19.2521 12.9471ZM12.643 15.6334L13.7641 16.63L13.773 16.6199L12.643 15.6334ZM12.2592 30.4719L13.4569 29.5687L13.4522 29.5625L13.4474 29.5563L12.2592 30.4719ZM22.5353 30.0455L23.778 30.8856L23.7834 30.8775L22.5353 30.0455ZM26.3728 21.0486L27.8087 21.4824L27.8093 21.4806L26.3728 21.0486ZM59.2904 6.25272L60.4914 5.35407L60.4874 5.34873L59.2904 6.25272ZM61.2518 35.7165L62.6201 36.3312L62.6237 36.3229L61.2518 35.7165ZM54.0458 44.7134L54.8832 45.9579L54.8911 45.9525L54.0458 44.7134ZM43.4712 47.7834L41.9712 47.7834L41.9712 49.2834L43.4712 49.2834L43.4712 47.7834ZM43.4712 34.949L43.4712 33.449L41.9712 33.449L41.9712 34.949L43.4712 34.949ZM51.9138 15.5481L53.133 14.6743L53.1282 14.6677L53.1234 14.661L51.9138 15.5481ZM46.7118 11.4897C43.8955 11.4897 41.5717 12.5107 39.9687 14.6481L42.3687 16.4481C43.324 15.1743 44.6957 14.4897 46.7118 14.4897L46.7118 11.4897ZM39.9783 14.6354C38.5014 16.5618 37.074 19.8479 35.6469 24.3004L38.5037 25.216C39.9193 20.7995 41.2207 17.9456 42.3591 16.4608L39.9783 14.6354ZM35.6496 24.2921C34.2134 28.685 32.8242 32.1023 31.4907 34.5789L34.1321 36.0013C35.5843 33.3043 37.0377 29.7003 38.5011 25.2243L35.6496 24.2921ZM31.4917 34.5771C27.8697 41.2805 23.1789 44.3647 17.4186 44.3647L17.4186 47.3647C24.5638 47.3647 30.1349 43.3991 34.1311 36.0031L31.4917 34.5771ZM17.4186 44.3647C14.3639 44.3647 11.6878 43.5169 9.33869 41.8316L7.58997 44.2693C10.4713 46.3363 13.7647 47.3647 17.4186 47.3647L17.4186 44.3647ZM9.34113 41.8334C6.95813 40.1166 5.05493 37.6409 3.66492 34.3263L0.898339 35.4864C2.46466 39.2215 4.68326 42.1752 7.58753 44.2675L9.34113 41.8334ZM3.66657 34.3302C2.27458 30.9841 1.56439 27.2041 1.56439 22.9673L-1.43561 22.9673C-1.43561 27.5427 -0.66764 31.7221 0.896688 35.4825L3.66657 34.3302ZM1.56439 22.9673C1.56439 18.7176 2.34002 14.9886 3.85382 11.7485L1.13584 10.4787C-0.590951 14.1746 -1.43561 18.3481 -1.43561 22.9673L1.56439 22.9673ZM3.85807 11.7393C5.34293 8.50449 7.4242 6.04779 10.0924 4.31216L8.45657 1.79739C5.26896 3.87088 2.83046 6.78671 1.13158 10.4879L3.85807 11.7393ZM10.1009 4.30658C12.7682 2.54562 15.8031 1.6553 19.2521 1.6553L19.2521 -1.3447C15.2534 -1.3447 11.6365 -0.302032 8.44805 1.80298L10.1009 4.30658ZM17.7521 0.155304L17.7521 12.9471L20.7521 12.9471L20.7521 0.155304L17.7521 0.155304ZM19.2521 11.4471C16.0692 11.4471 13.4172 12.4658 11.513 14.6469L13.773 16.6199C14.9957 15.2193 16.7497 14.4471 19.2521 14.4471L19.2521 11.4471ZM11.5219 14.6368C9.61114 16.7864 8.75518 19.7034 8.75518 23.1805L11.7552 23.1805C11.7552 20.1765 12.4911 18.062 13.7641 16.6299L11.5219 14.6368ZM8.75518 23.1805C8.75518 26.5008 9.4623 29.2995 11.071 31.3874L13.4474 29.5563C12.3841 28.1763 11.7552 26.1141 11.7552 23.1805L8.75518 23.1805ZM11.0616 31.375C12.6509 33.4825 14.8272 34.5728 17.4612 34.5728L17.4612 31.5728C15.7745 31.5728 14.4828 30.9292 13.4569 29.5687L11.0616 31.375ZM17.4612 34.5728C20.085 34.5728 22.2006 33.2188 23.778 30.8856L21.2926 29.2054C20.1411 30.9087 18.874 31.5728 17.4612 31.5728L17.4612 34.5728ZM23.7834 30.8775C25.2665 28.6529 26.5969 25.4931 27.8087 21.4824L24.937 20.6147C23.761 24.5065 22.5331 27.3446 21.2872 29.2134L23.7834 30.8775ZM27.8093 21.4806C29.9678 14.3042 32.5936 9.26743 35.5913 6.19089L33.4426 4.09732C29.9591 7.67252 27.1555 13.2387 24.9364 20.6165L27.8093 21.4806ZM35.5913 6.19089C38.5369 3.16776 42.1802 1.6553 46.6265 1.6553L46.6265 -1.3447C41.4079 -1.3447 36.9781 0.46872 33.4426 4.09732L35.5913 6.19089ZM46.6265 1.6553C51.5587 1.6553 55.3245 3.49045 58.0934 7.15674L60.4874 5.34873C57.1163 0.885102 52.4394 -1.3447 46.6265 -1.3447L46.6265 1.6553ZM58.0894 7.1514C60.8784 10.8788 62.3528 16.0002 62.3528 22.6689L65.3528 22.6689C65.3528 15.5793 63.7856 9.75659 60.4914 5.35407L58.0894 7.1514ZM62.3528 22.6689C62.3528 27.2594 61.5203 31.3989 59.8798 35.11L62.6237 36.3229C64.4513 32.1884 65.3528 27.6295 65.3528 22.6689L62.3528 22.6689ZM59.8835 35.1018C58.2152 38.8152 55.9774 41.5797 53.2004 43.4743L54.8911 45.9525C58.1973 43.6968 60.7636 40.4634 62.62 36.3312L59.8835 35.1018ZM53.2083 43.4689C50.4373 45.3335 47.21 46.2834 43.4712 46.2834L43.4712 49.2834C47.7486 49.2834 51.571 48.1866 54.8832 45.9579L53.2083 43.4689ZM44.9712 47.7834L44.9712 34.949L41.9712 34.949L41.9712 47.7834L44.9712 47.7834ZM43.4712 36.449C47.2049 36.449 50.254 35.3208 52.3286 32.8416C54.3604 30.4136 55.2473 26.9348 55.2473 22.6689L52.2473 22.6689C52.2473 26.5897 51.4215 29.251 50.0279 30.9163C48.6772 32.5305 46.5882 33.449 43.4712 33.449L43.4712 36.449ZM55.2473 22.6689C55.2473 19.4488 54.6034 16.726 53.133 14.6743L50.6946 16.4219C51.6689 17.7814 52.2473 19.8057 52.2473 22.6689L55.2473 22.6689ZM53.1234 14.661C51.5744 12.5488 49.3797 11.4897 46.7118 11.4897L46.7118 14.4897C48.4783 14.4897 49.7517 15.1362 50.7042 16.4352L53.1234 14.661Z" fill="#D46918"/>
</svg>
