<?xml version="1.0" standalone="no"?>
<!DOCTYPE svg PUBLIC "-//W3C//DTD SVG 20010904//EN"
 "http://www.w3.org/TR/2001/REC-SVG-20010904/DTD/svg10.dtd">
<svg version="1.0" xmlns="http://www.w3.org/2000/svg"
 width="1024.000000pt" height="1024.000000pt" viewBox="0 0 1024.000000 1024.000000"
 preserveAspectRatio="xMidYMid meet">

<g transform="translate(0.000000,1024.000000) scale(0.100000,-0.100000)"
fill="#000000" stroke="none">
<path d="M5242 9368 c-5 -7 -12 -22 -14 -33 -3 -15 -11 -20 -33 -19 -17 0 -32
-3 -35 -8 -3 -4 -21 3 -40 16 -43 28 -149 50 -203 41 -60 -11 -174 -51 -224
-80 -29 -17 -67 -29 -116 -34 -78 -9 -174 -47 -251 -100 -24 -17 -50 -31 -56
-31 -7 0 -32 -13 -57 -30 -24 -16 -46 -30 -49 -30 -5 0 -98 -74 -152 -121 -18
-15 -33 -31 -32 -35 0 -4 -10 -8 -23 -10 -13 -1 -39 -17 -58 -36 -72 -69 -122
-107 -104 -78 3 6 1 10 -4 10 -6 0 -11 -4 -11 -10 0 -5 -17 -18 -37 -29 -48
-24 -106 -76 -109 -97 -1 -9 -6 -19 -10 -22 -4 -4 -4 1 -1 11 4 11 1 17 -8 17
-14 0 -20 -12 -16 -33 2 -12 -51 -100 -69 -114 -9 -7 -19 -8 -24 -2 -15 14
-30 11 -17 -5 9 -11 7 -15 -10 -19 -26 -7 -44 -3 -93 17 -33 14 -37 19 -32 40
3 14 2 28 -4 31 -5 3 -7 0 -4 -8 3 -8 -2 -17 -12 -21 -15 -6 -15 -8 0 -31 9
-13 16 -31 16 -39 0 -13 -5 -13 -37 1 -39 16 -83 26 -83 19 0 -2 17 -16 37
-32 20 -15 33 -22 29 -16 -9 15 4 15 39 2 23 -9 25 -13 15 -25 -14 -17 -50
-20 -50 -5 0 6 -6 10 -14 10 -23 0 -66 40 -67 63 0 15 -2 17 -6 7 -3 -8 -11
-22 -18 -30 -11 -12 -11 -21 1 -45 8 -16 12 -22 9 -12 -3 10 1 17 10 17 9 0
15 -10 15 -26 0 -14 -4 -23 -10 -19 -5 3 -10 0 -10 -7 0 -7 -12 0 -25 15 -34
38 -33 10 1 -44 17 -27 30 -39 40 -35 8 3 12 2 9 -3 -3 -5 -1 -12 5 -16 19
-12 10 -26 -12 -20 l-23 6 20 -18 c24 -21 39 -53 25 -53 -15 0 -12 -19 5 -36
34 -35 12 -45 -29 -13 -14 11 -26 18 -26 15 0 -8 47 -53 60 -58 18 -6 -64 -43
-87 -39 -7 1 -13 -3 -13 -9 0 -5 9 -10 21 -10 15 0 19 -5 15 -15 -4 -10 1 -15
16 -15 19 0 20 -1 5 -17 -8 -10 -16 -21 -16 -26 -1 -18 -26 -93 -35 -107 -30
-41 -77 -167 -83 -220 -2 -19 -11 -46 -20 -59 -8 -13 -10 -20 -4 -17 13 9 5
-42 -15 -98 -9 -23 -13 -55 -10 -75 4 -25 -1 -52 -18 -91 -17 -37 -21 -57 -13
-62 8 -5 7 -10 -1 -21 -7 -7 -9 -17 -5 -20 3 -4 0 -14 -8 -24 -8 -9 -9 -14 -3
-10 15 8 24 -35 13 -56 -6 -9 -3 -19 6 -27 15 -13 21 -35 8 -27 -5 3 -8 -27
-9 -66 0 -40 -3 -84 -6 -99 -4 -15 -2 -30 3 -34 5 -3 7 -25 4 -50 -3 -24 -2
-44 3 -44 4 0 5 -28 2 -62 -4 -35 -4 -65 0 -68 9 -7 7 -99 -2 -93 -11 6 -10
-5 2 -26 5 -10 12 -46 15 -79 3 -33 12 -79 20 -102 25 -70 16 -355 -16 -562
-16 -98 -13 -198 6 -259 9 -27 25 -24 25 6 0 16 6 25 15 25 17 0 21 -35 5 -45
-5 -3 -10 -11 -10 -17 0 -6 8 -3 19 6 17 15 19 15 25 1 3 -9 2 -13 -3 -10 -15
9 -25 -16 -26 -61 l0 -41 26 20 c15 10 33 17 41 14 9 -4 7 -6 -4 -6 -10 -1
-18 -6 -18 -12 0 -5 -5 -7 -12 -3 -8 5 -9 2 -5 -10 4 -9 3 -15 -2 -12 -5 3
-11 -4 -15 -17 -3 -12 -1 -24 4 -25 6 -2 7 -9 3 -15 -17 -27 -22 -215 -10
-352 19 -220 28 -306 41 -390 7 -49 21 -142 30 -205 68 -469 145 -669 396
-1027 86 -122 244 -336 295 -398 l35 -42 -100 -88 c-55 -49 -120 -101 -143
-117 -56 -37 -547 -197 -897 -292 -506 -137 -774 -205 -855 -215 -44 -5 -139
-24 -212 -40 -89 -21 -158 -31 -215 -31 -139 -1 -436 -43 -504 -73 -32 -14
-85 -28 -116 -32 -69 -8 -137 -52 -246 -158 -115 -113 -301 -425 -353 -591
-10 -35 -50 -133 -89 -220 -146 -328 -160 -398 -160 -790 l0 -266 1591 0 c971
0 1588 4 1584 9 -3 5 3 12 12 14 17 4 17 5 1 6 -17 1 -25 31 -12 44 4 4 8 25
10 48 3 23 10 49 16 57 7 8 13 29 14 46 0 17 15 92 33 166 40 171 37 160 52
195 7 17 11 36 10 43 -1 7 5 22 14 34 17 25 20 42 5 33 -6 -3 -7 1 -4 9 3 9
10 14 15 11 4 -3 6 4 4 17 -3 12 0 25 6 29 6 3 12 24 13 47 1 22 8 47 14 55
10 12 10 16 0 20 -8 3 -6 6 6 6 12 1 16 6 12 17 -4 9 -2 22 3 28 5 6 10 16 11
21 2 6 4 15 6 20 3 11 29 114 50 195 7 30 16 78 19 105 3 28 19 115 36 195 35
174 35 174 48 276 25 200 83 430 157 620 73 188 124 331 153 434 l28 95 17
-28 c14 -21 16 -35 10 -64 -4 -21 -9 -45 -10 -53 -1 -8 -10 -46 -22 -85 -26
-90 -31 -126 -23 -148 5 -14 10 -4 20 35 17 67 52 160 58 154 3 -3 -6 -44 -20
-93 -28 -97 -44 -186 -29 -165 6 10 17 -11 35 -70 33 -103 35 -122 43 -393 6
-207 8 -224 35 -297 15 -42 42 -103 58 -136 27 -54 44 -102 86 -253 16 -55 33
-89 84 -169 21 -33 42 -72 46 -87 10 -41 85 -137 97 -125 17 17 16 125 -1 145
-13 15 -13 20 -2 27 8 4 20 6 27 3 13 -5 30 34 20 44 -3 4 -6 -1 -6 -10 0 -18
-19 -24 -21 -7 -1 6 -2 16 -3 23 -2 14 18 37 33 37 6 0 11 9 11 21 0 14 5 19
14 16 10 -4 12 0 9 14 -4 14 0 19 13 20 11 0 14 3 6 6 -6 2 -10 9 -6 14 3 5 0
9 -5 9 -6 0 -11 5 -11 11 0 8 5 7 15 -1 9 -7 18 -10 21 -7 7 6 -20 49 -27 43
-2 -2 -10 2 -17 10 -7 8 -8 14 -2 14 5 0 9 3 9 8 -5 27 2 41 18 35 14 -5 13
-1 -5 24 -27 37 -28 54 -4 47 15 -5 14 -4 -2 10 -11 9 -20 29 -20 48 -1 18 -5
39 -9 46 -5 6 -5 17 -2 22 3 6 -1 13 -9 16 -9 3 -13 10 -10 15 3 5 1 9 -4 9
-5 0 -10 10 -10 23 -1 12 -3 29 -6 37 -15 52 -19 58 -34 53 -12 -5 -14 -1 -9
17 4 16 0 29 -14 41 -16 14 -18 21 -9 43 13 36 13 39 -4 33 -16 -6 -28 16 -20
37 3 7 -2 16 -10 19 -9 4 -12 14 -9 26 3 12 1 21 -3 21 -5 0 -10 11 -10 25 -2
21 1 25 18 19 14 -4 18 -2 14 5 -4 6 -2 19 4 30 7 14 7 22 0 26 -6 4 -10 3 -9
-2 4 -21 -2 -33 -16 -33 -8 0 -15 7 -15 15 0 13 -4 14 -22 5 -21 -10 -22 -10
-5 4 11 8 25 12 33 9 8 -3 14 1 14 10 0 8 -6 18 -12 20 -10 4 -10 6 0 6 19 1
15 41 -5 42 -15 0 -15 2 2 9 17 7 14 9 -15 10 l-35 2 28 10 c15 5 27 14 27 19
0 5 5 9 11 9 6 0 9 -7 5 -15 -3 -8 -1 -15 5 -15 5 0 8 -10 6 -22 -2 -13 -2
-18 0 -12 2 7 14 14 26 17 20 6 20 5 5 -7 -22 -16 -23 -26 -4 -26 8 0 16 7 20
15 8 22 35 18 46 -7 8 -20 9 -20 9 -4 1 18 2 18 20 2 11 -10 24 -15 29 -12 5
3 10 0 9 -7 -1 -29 4 -47 12 -47 5 0 8 11 6 25 -3 32 9 32 23 0 8 -17 18 -24
34 -22 17 1 23 -3 22 -15 -2 -25 10 -22 30 4 l17 23 -11 -22 c-8 -18 -7 -28 5
-47 15 -23 15 -24 -9 -24 -17 0 -23 5 -19 14 3 8 0 14 -6 14 -7 0 -24 12 -38
26 -16 16 -29 22 -35 16 -10 -10 26 -42 48 -42 6 0 14 -10 17 -21 4 -14 11
-20 20 -16 8 3 19 1 25 -5 8 -8 13 -3 18 16 8 32 26 35 21 4 -2 -13 -2 -18 0
-11 5 15 32 25 46 16 7 -4 8 0 3 13 -6 15 -5 16 5 7 10 -10 9 -16 -1 -28 -7
-9 -18 -14 -25 -11 -16 6 -12 -31 5 -47 10 -10 12 -9 7 5 -7 21 21 32 40 16
13 -10 21 -6 49 27 33 40 42 69 25 79 -5 4 -7 -4 -4 -16 3 -15 -2 -10 -13 11
-13 25 -15 36 -6 39 16 5 16 23 0 20 -7 -2 -13 6 -13 17 -1 11 -6 19 -13 17
-7 -1 -12 2 -12 8 0 16 37 11 44 -6 3 -8 11 -12 17 -8 6 3 15 0 20 -7 4 -7 11
-10 16 -6 4 5 3 11 -3 15 -6 4 -13 15 -17 25 -4 10 -11 15 -17 12 -5 -3 -10
-2 -10 4 0 6 -12 8 -30 4 -16 -3 -30 -1 -30 4 0 5 27 9 60 9 37 -1 59 -5 56
-11 -2 -6 4 -11 13 -12 9 -1 26 -4 38 -8 16 -5 22 -2 25 12 3 16 4 16 10 1 5
-11 -1 -22 -18 -32 -20 -14 -24 -14 -24 -2 0 9 -7 12 -20 9 -32 -9 -24 -40 15
-59 31 -14 34 -19 23 -33 -11 -14 -11 -14 4 -3 13 10 14 20 7 45 -11 40 -11
40 1 32 6 -3 10 -1 10 4 0 15 27 14 32 -1 2 -6 10 -8 17 -4 9 6 5 14 -14 31
-14 13 -25 30 -25 37 0 10 2 10 9 -1 7 -11 11 -10 20 5 9 16 10 17 11 2 0 -10
11 -19 30 -23 28 -6 43 -25 20 -25 -5 0 -10 -5 -10 -11 0 -6 7 -9 15 -6 8 4
17 2 20 -4 8 -13 25 -1 25 17 0 8 -4 13 -8 10 -4 -2 -14 5 -22 17 -12 20 -12
21 3 8 11 -9 17 -10 17 -2 0 19 18 12 25 -9 4 -11 11 -18 16 -15 14 9 11 27
-3 19 -10 -5 -10 -4 -1 6 10 11 15 11 28 0 8 -7 19 -10 23 -6 4 4 -1 12 -11
17 -18 11 -23 29 -8 29 5 0 16 -7 24 -15 13 -12 16 -12 20 6 4 15 2 19 -10 15
-9 -4 -13 -1 -11 6 7 20 33 15 33 -6 0 -11 7 -21 15 -24 8 -3 12 -1 8 3 -10
11 21 39 44 40 11 1 23 8 28 15 6 9 10 8 18 -6 6 -11 14 -15 19 -10 4 5 3 11
-4 13 -7 2 -9 12 -6 20 5 13 2 15 -12 10 -15 -6 -16 -5 -5 8 12 15 14 15 23 0
7 -13 11 -14 25 -3 12 10 14 10 8 1 -4 -7 -3 -13 3 -13 5 0 13 5 16 11 4 6 13
8 21 5 9 -3 11 0 7 12 -3 9 -3 14 1 11 4 -4 21 6 39 22 17 16 41 29 52 30 11
0 14 3 8 6 -7 2 -13 16 -13 29 0 17 6 24 20 24 21 0 29 20 8 20 -7 1 6 10 30
21 49 23 55 34 12 26 -19 -4 -30 -2 -30 4 0 6 -7 9 -15 6 -25 -10 -25 8 0 20
18 8 24 8 22 -1 -1 -6 15 -12 40 -14 32 -2 47 2 62 17 25 25 26 31 6 31 -8 0
-15 5 -15 11 0 6 7 9 15 5 25 -9 17 10 -10 24 -35 19 -24 24 20 10 33 -11 37
-10 56 14 14 18 27 25 39 21 10 -3 21 -1 25 4 9 16 -51 7 -72 -10 -13 -11 -17
-11 -20 -1 -3 6 -9 12 -15 12 -6 0 -7 -7 -4 -16 8 -22 -32 -8 -57 20 -10 11
-16 16 -13 10 3 -7 -1 -15 -10 -18 -13 -5 -15 -2 -11 14 4 15 0 20 -13 20 -11
0 -21 4 -25 10 -7 12 -45 -20 -45 -38 0 -7 -4 -11 -9 -7 -5 3 -12 -3 -14 -12
-3 -13 -5 -11 -6 6 -1 19 -4 21 -15 12 -12 -10 -13 -8 -9 8 5 20 14 25 38 22
6 -1 1 6 -9 14 -13 10 -15 15 -6 15 7 0 10 3 7 7 -4 4 -21 -3 -37 -16 -17 -12
-30 -17 -30 -12 0 5 5 11 12 13 14 5 3 38 -13 38 -6 0 -9 -7 -6 -14 4 -10 1
-13 -9 -9 -17 6 -18 -8 -1 -26 10 -11 6 -13 -23 -7 -19 3 -30 3 -24 -2 18 -12
24 -52 8 -52 -8 0 -14 8 -14 18 -1 14 -3 14 -19 -6 -20 -23 -46 -29 -56 -12
-4 6 -11 8 -16 4 -5 -3 -7 -9 -5 -12 2 -4 -13 -17 -34 -29 -34 -18 -42 -19
-65 -7 -22 11 -27 11 -32 -2 -4 -11 -13 -14 -32 -9 -15 3 -21 2 -14 -3 9 -5 7
-11 -7 -20 -16 -10 -20 -10 -20 0 0 9 -16 13 -45 14 -34 1 -45 -3 -41 -12 3
-7 1 -16 -4 -19 -5 -3 -11 4 -15 15 -3 11 -15 20 -26 20 -10 0 -19 4 -19 8 0
5 -22 7 -48 5 -39 -2 -54 2 -72 19 -17 16 -37 22 -71 23 -42 1 -46 0 -31 -13
9 -7 11 -11 5 -7 -7 3 -13 1 -13 -6 0 -7 -3 -10 -6 -6 -3 3 -17 2 -31 -4 -16
-6 -22 -6 -18 1 4 6 -4 9 -17 7 -17 -1 -22 3 -20 16 3 20 -9 22 -27 4 -10 -10
-11 -9 -6 4 5 13 1 16 -17 14 -13 -2 -31 -6 -41 -10 -14 -6 -20 -2 -24 14 -3
11 -8 22 -12 22 -38 8 -51 5 -51 -13 0 -14 -5 -18 -16 -14 -9 3 -21 6 -27 7
-7 0 -2 4 11 9 16 7 22 18 22 40 0 25 -4 30 -24 30 -25 0 -41 24 -29 42 4 7 1
8 -6 4 -7 -5 -10 -15 -6 -25 5 -13 4 -14 -6 -3 -21 20 -28 14 -26 -25 1 -22
-3 -38 -11 -40 -7 -3 -11 3 -10 14 2 10 -1 19 -7 20 -5 1 -9 -4 -9 -12 1 -7
-4 -11 -12 -8 -18 7 -18 12 3 35 17 19 20 18 -62 22 -11 1 -21 9 -23 19 -2 9
-10 17 -17 17 -9 0 -12 6 -8 17 5 12 2 15 -9 11 -11 -5 -14 1 -13 23 1 16 -2
29 -7 29 -4 0 -8 7 -8 15 0 8 -4 15 -10 15 -13 0 -13 33 0 46 14 14 1 46 -16
40 -8 -3 -14 0 -15 7 -7 97 -7 98 7 86 15 -12 18 -5 14 38 -2 35 9 47 28 30
34 -29 84 -12 74 26 -5 21 -5 21 21 4 14 -9 38 -17 52 -17 16 0 25 -6 25 -15
0 -8 4 -15 9 -15 5 0 16 -16 25 -35 11 -21 22 -32 30 -29 8 3 16 -2 19 -13 3
-10 5 -2 6 17 1 27 4 31 11 20 9 -13 11 -13 19 0 9 12 11 12 17 -3 3 -9 13
-17 21 -17 9 0 13 6 9 15 -4 10 1 15 14 15 11 0 20 -3 20 -7 0 -5 16 -9 34
-10 26 -1 33 2 29 13 -3 8 0 14 6 14 6 0 11 -4 11 -10 0 -5 7 -10 15 -10 18 0
20 16 3 23 -8 3 -6 6 5 6 9 1 17 -4 17 -11 0 -9 3 -9 11 -1 9 9 15 8 26 -3 12
-11 18 -12 29 -3 11 9 18 8 29 -1 18 -15 49 -5 39 12 -5 9 -2 8 9 -1 20 -16
18 -18 44 36 11 23 24 39 28 35 5 -4 5 -1 1 5 -6 10 -13 10 -36 -2 -16 -8 -32
-19 -35 -25 -4 -6 -11 -7 -17 -4 -8 5 -9 1 -5 -10 4 -9 3 -15 -2 -12 -14 9
-11 66 4 66 7 0 15 -5 17 -12 7 -21 43 9 45 39 4 57 11 85 22 96 6 6 11 21 11
32 0 22 -8 25 -60 25 -25 1 -25 1 -5 16 19 16 19 16 -13 10 -24 -4 -32 -2 -29
7 2 6 14 13 27 13 13 1 26 7 28 13 3 9 7 9 18 0 10 -8 14 -8 14 0 0 6 6 11 14
11 8 0 18 5 22 11 5 8 -1 10 -17 7 -19 -3 -25 0 -25 14 0 21 7 23 23 7 13 -13
49 -8 46 6 0 6 3 17 8 27 6 11 4 18 -7 22 -8 3 -12 10 -9 16 9 15 41 12 55 -5
11 -14 15 -14 32 2 15 13 21 14 27 5 4 -7 12 -12 17 -10 5 1 20 -4 33 -11 20
-11 26 -11 40 3 14 15 14 18 1 26 -13 9 -13 11 -1 19 10 6 18 5 25 -3 6 -7 19
-16 30 -20 14 -5 17 -3 11 11 -4 10 -9 27 -11 38 -4 15 -2 14 6 -3 5 -13 16
-22 22 -19 7 2 22 0 32 -6 15 -7 18 -6 13 6 -4 11 -1 15 13 12 11 -2 22 1 25
6 4 5 23 16 43 25 20 8 47 25 59 36 13 12 23 18 23 14 0 -4 15 4 33 18 19 15
39 26 44 26 6 0 15 6 21 13 6 7 32 12 64 11 30 0 57 5 63 12 12 14 85 27 85
15 0 -5 11 -16 25 -25 22 -15 24 -15 18 0 -5 14 -2 14 23 -2 29 -18 29 -18 14
1 -14 17 -13 18 3 12 20 -8 23 6 4 22 -10 8 -17 7 -26 -2 -11 -10 -11 -8 -2
10 9 18 9 22 -2 18 -8 -4 -13 3 -14 16 -3 30 -21 48 -44 42 -12 -3 -25 0 -29
7 -4 7 -19 13 -34 13 -14 0 -26 3 -26 7 0 4 -20 8 -45 7 -34 0 -44 -4 -41 -14
5 -11 -6 -14 -47 -14 -28 0 -83 0 -122 -1 -63 -1 -132 4 -250 18 -96 12 -391
10 -427 -2 -32 -11 -45 -11 -80 2 -24 8 -54 14 -68 12 -14 -1 -30 0 -35 4 -6
3 -25 9 -42 13 -18 3 -36 11 -39 17 -4 6 -2 8 4 4 6 -3 13 -2 17 4 3 5 -1 10
-10 10 -11 0 -15 5 -11 15 3 8 1 15 -5 15 -5 0 -14 -10 -19 -23 -9 -22 -9 -22
-11 3 -1 14 -1 28 0 33 0 4 -8 7 -20 7 -17 0 -20 -4 -15 -24 6 -26 -8 -46 -17
-24 -4 9 -6 8 -6 -2 -1 -9 4 -21 10 -27 16 -16 -30 -14 -50 1 -12 9 -13 8 -7
-3 7 -10 2 -12 -25 -6 -19 5 -40 8 -47 8 -7 0 -11 5 -9 11 3 6 9 10 15 9 6 -2
9 4 6 12 -5 11 -1 14 12 9 15 -5 16 -4 4 4 -8 6 -18 8 -22 6 -14 -9 -9 23 6
35 11 9 15 8 20 -5 5 -14 9 -14 23 -3 15 12 16 12 10 -3 -3 -10 -2 -18 3 -18
6 0 10 9 10 19 0 16 6 18 35 14 22 -3 35 -1 35 7 0 7 8 9 23 4 40 -13 76 -12
70 3 -7 17 13 17 21 1 3 -7 4 0 2 15 -2 20 2 32 15 40 11 7 19 18 19 25 0 9 7
11 21 7 15 -5 19 -4 15 4 -4 6 0 11 9 11 9 0 14 -4 10 -9 -3 -5 -1 -12 4 -15
5 -3 11 3 14 14 4 17 9 19 32 10 33 -13 38 -13 30 0 -3 6 1 7 9 4 9 -3 16 -10
16 -14 0 -13 -27 -19 -38 -8 -6 6 -16 7 -22 3 -8 -5 0 -13 21 -23 19 -9 47
-29 63 -45 l30 -29 17 20 c9 12 20 18 24 14 5 -4 5 1 2 10 -4 10 -2 18 3 18 6
0 10 -5 10 -12 0 -6 3 -8 6 -5 4 4 1 14 -6 23 -12 13 -11 17 0 24 12 7 11 10
-3 16 -16 6 -25 27 -9 21 4 -1 18 8 32 21 13 12 34 22 47 22 13 0 23 4 23 9 0
5 -10 7 -22 4 -17 -3 -19 -2 -9 5 7 5 10 15 6 22 -4 7 -2 16 6 21 11 7 10 9
-3 9 -20 0 -21 5 -8 35 5 11 9 15 9 8 2 -21 40 -36 57 -22 12 10 13 9 9 -3 -5
-12 0 -15 23 -13 16 1 35 6 43 11 8 5 22 7 33 5 11 -1 16 2 12 8 -6 10 6 15
27 12 4 0 7 9 7 20 0 16 3 19 13 11 8 -7 18 -5 35 8 12 10 22 21 22 25 0 13
29 35 45 35 12 0 16 6 12 20 -3 10 0 21 7 23 6 2 8 7 5 11 -3 3 -17 2 -30 -3
-16 -6 -32 -4 -51 5 -18 9 -29 11 -33 3 -5 -7 -11 -7 -20 1 -9 8 -15 8 -20 0
-3 -6 -10 -8 -15 -5 -11 7 -76 14 -166 19 -39 2 -77 7 -85 12 -24 15 -69 13
-69 -3 0 -8 -4 -11 -10 -8 -5 3 -10 1 -10 -4 0 -6 -7 -11 -15 -11 -8 0 -15 -5
-15 -11 0 -5 -4 -7 -10 -4 -5 3 -16 3 -22 -2 -22 -13 -91 -10 -123 6 -16 8
-33 16 -37 17 -5 1 -9 3 -10 4 -2 1 -15 3 -29 4 -29 1 -66 29 -81 61 -21 44
-45 84 -49 81 -3 -4 -3 48 0 87 1 5 6 5 11 2 23 -14 29 8 8 26 l-23 20 23 -6
c26 -8 30 10 5 24 -15 9 -16 10 -2 11 9 0 20 10 26 23 11 24 6 50 -7 42 -5 -3
-11 -1 -15 5 -3 5 2 10 13 10 10 0 27 10 38 22 17 19 17 21 2 15 -10 -4 -18
-2 -18 3 0 4 13 11 28 15 29 6 39 33 18 47 -7 5 -4 8 8 8 12 0 16 5 12 15 -3
8 -1 15 5 15 6 0 8 9 4 20 -7 22 17 64 31 52 4 -4 2 1 -5 11 -10 13 -11 17 -1
17 9 0 11 10 6 30 -4 21 -2 29 5 24 7 -4 10 3 8 17 -1 13 3 35 8 49 5 13 9 48
9 77 -1 29 2 53 7 53 5 0 7 7 3 15 -3 8 -1 15 3 15 10 0 9 26 -1 36 -6 6 -4
16 9 54 3 8 6 40 7 70 1 31 6 62 11 69 5 10 4 12 -3 7 -16 -9 -15 7 0 22 9 9
8 12 -8 12 -19 1 -19 1 0 15 11 8 14 15 7 15 -7 0 -9 5 -5 11 3 6 0 15 -7 20
-12 8 -12 11 1 19 12 8 12 10 1 10 -9 0 -12 8 -9 24 3 16 0 27 -10 31 -11 4
-12 8 -2 20 10 12 9 20 -6 42 -10 16 -17 35 -15 43 2 10 -3 9 -14 -5 -14 -16
-16 -17 -11 -3 3 10 2 17 -2 16 -13 -4 -53 23 -47 32 3 5 1 11 -5 15 -6 4 -7
11 -4 17 4 6 3 13 -2 17 -5 3 -17 19 -26 36 -9 16 -22 31 -29 34 -7 2 -9 -1
-4 -9 5 -9 2 -10 -15 -5 -15 5 -20 4 -16 -4 11 -17 0 -13 -15 6 -8 10 -9 14
-2 10 24 -15 24 15 1 41 -14 15 -32 38 -41 52 -19 28 -23 10 -5 -23 10 -20 10
-21 -5 -8 -10 7 -17 19 -17 25 -1 12 -35 56 -44 56 -3 0 -2 -7 1 -17 4 -11 3
-14 -5 -9 -7 4 -12 13 -12 21 0 8 -4 17 -10 20 -6 4 -7 -1 -3 -11 6 -15 4 -15
-19 0 -14 9 -43 18 -65 19 -22 1 -52 10 -66 20 -15 10 -27 14 -27 10 0 -4 -13
6 -29 21 -27 26 -29 27 -24 7 5 -19 3 -20 -20 -12 -15 6 -28 6 -34 0 -6 -6
-18 -2 -33 11 -13 11 -28 20 -34 20 -6 0 -4 -5 4 -11 11 -8 5 -9 -25 -4 -22 4
-44 13 -48 21 -4 8 -13 14 -18 14 -6 0 -7 -4 -4 -10 3 -5 1 -10 -4 -10 -6 0
-11 5 -11 10 0 6 -4 10 -10 10 -5 0 -7 -8 -4 -17 5 -15 3 -15 -11 2 -11 14
-29 20 -61 21 -24 1 -47 4 -51 8 -10 10 -53 7 -53 -4 0 -5 -7 -7 -15 -4 -8 4
-17 -1 -21 -10 -9 -23 -41 -20 -54 4 -6 11 -17 19 -25 18 -14 -3 -15 -1 -15
32 0 14 5 18 18 14 12 -4 10 0 -7 15 -19 17 -20 21 -6 21 15 0 15 1 -1 17 -13
13 -19 14 -22 5 -2 -6 -8 -12 -14 -12 -6 0 -5 6 2 15 7 9 19 14 26 11 8 -3 13
6 13 27 0 18 1 39 2 47 1 8 -1 26 -6 40 -7 22 -6 23 9 11 21 -18 33 -7 16 15
-11 13 -11 17 -1 24 9 5 10 9 2 14 -6 4 -9 12 -5 17 4 6 14 3 25 -7 30 -27 22
-10 -11 25 -17 17 -28 36 -25 41 3 6 2 17 -3 27 -7 11 -6 21 4 31 19 18 18 36
-1 28 -10 -4 -15 1 -15 15 0 11 6 22 13 25 18 7 23 94 5 94 -9 0 -9 3 2 10 13
9 13 11 0 19 -17 12 -10 22 19 24 24 2 24 2 11 28 -12 21 -1 26 17 8 9 -9 11
-7 6 9 -3 12 -12 23 -22 25 -13 4 -13 5 3 6 12 1 17 7 14 19 -4 12 1 18 14 19
10 1 16 -2 13 -8 -4 -5 -1 -9 4 -9 6 0 11 6 11 13 1 8 5 7 13 -4 7 -9 18 -14
25 -12 17 6 15 23 -3 23 -8 0 -15 5 -15 11 0 5 5 7 10 4 6 -3 10 4 10 16 0 18
3 19 15 9 16 -13 35 -6 35 15 0 8 -7 11 -19 8 -10 -3 -22 0 -25 6 -5 7 3 11
18 11 17 0 26 6 26 16 0 9 5 13 13 9 6 -4 4 0 -7 9 -10 8 -15 19 -11 25 3 6
-5 16 -19 23 -28 12 -37 31 -10 21 12 -4 15 0 12 18 -2 19 1 23 17 21 16 -2
17 -1 6 7 -22 14 -20 50 3 67 21 16 21 16 -4 9 -14 -4 -26 -12 -28 -16 -8 -20
-19 -7 -18 19 1 25 5 28 29 27 15 -1 28 3 29 9 0 6 2 18 2 26 1 9 11 15 23 14
12 0 20 3 17 7 -2 4 4 12 13 18 10 5 15 13 10 17 -4 4 -15 0 -25 -9 -10 -10
-22 -17 -27 -17 -4 0 2 9 14 19 12 10 20 24 19 31 -2 7 3 15 11 18 8 2 11 0 7
-6 -3 -6 -2 -13 3 -17 6 -3 8 3 6 15 -2 11 1 20 7 20 5 0 8 6 5 14 -3 7 7 25
22 40 30 29 46 34 37 11 -3 -8 0 -14 7 -12 22 4 37 25 30 44 -3 10 -3 15 2 11
4 -4 15 -2 24 5 14 11 15 10 1 -7 -13 -17 -13 -19 0 -14 8 2 21 17 29 32 7 16
16 24 20 19 11 -18 53 -27 50 -11 -1 7 -1 22 0 33 1 17 3 18 11 5 7 -11 12
-12 18 -3 8 13 60 29 80 24 8 -1 13 6 12 16 -4 31 -1 35 15 20 8 -9 23 -13 34
-10 13 3 21 -1 24 -14 5 -16 6 -16 5 2 -1 38 2 45 20 45 13 0 14 -2 4 -9 -11
-7 -10 -9 3 -14 9 -4 17 -1 19 6 2 6 8 21 12 32 7 17 9 15 12 -12 4 -37 8 -40
33 -17 16 14 18 14 24 -5 9 -30 22 -26 30 9 7 33 25 51 25 24 0 -13 3 -14 15
-4 8 7 15 9 15 4 0 -5 7 0 15 10 15 19 15 19 15 -1 0 -25 15 -39 25 -23 9 14
55 13 55 -2 0 -7 7 -3 15 9 8 11 24 23 35 26 17 4 20 2 15 -16 -4 -12 -9 -30
-11 -39 -6 -19 11 -25 21 -8 4 6 11 8 16 4 5 -3 16 0 24 6 8 7 22 9 31 6 15
-6 15 -8 0 -31 -18 -27 -7 -35 14 -10 7 8 21 15 31 15 10 0 21 5 24 10 11 19
24 10 19 -13 -3 -22 0 -24 30 -22 18 1 39 6 46 10 9 6 11 4 5 -5 -6 -10 0 -12
28 -7 25 4 34 2 31 -6 -2 -7 6 -13 21 -13 14 -1 25 2 25 6 0 4 11 10 25 12 14
3 22 1 18 -5 -3 -5 4 -6 18 -1 13 4 38 8 54 8 17 0 33 4 36 9 4 5 9 5 13 -2 4
-6 -5 -13 -21 -17 -83 -18 -84 -29 -2 -14 30 5 68 11 84 14 17 2 30 5 30 6 0
1 17 3 38 5 33 4 37 2 27 -10 -7 -9 -8 -15 -2 -15 5 0 15 6 21 14 6 8 21 16
32 19 15 4 18 2 10 -7 -6 -7 -8 -16 -4 -19 3 -4 -1 -7 -10 -7 -10 0 -17 -5
-17 -11 0 -11 8 -7 50 22 17 12 36 16 60 12 30 -5 32 -7 15 -15 -15 -6 -12 -7
13 -5 22 3 31 0 28 -8 -5 -13 68 -4 102 13 17 9 86 8 171 -2 33 -4 48 0 62 13
12 11 29 16 44 13 31 -6 31 -9 -2 -46 l-28 -30 27 17 c15 9 30 17 33 17 11 0
4 -24 -12 -44 -13 -15 -7 -13 19 7 21 15 39 23 43 17 3 -5 20 -7 38 -4 18 3
49 7 70 9 l39 4 -23 -19 -22 -20 27 0 c16 0 25 4 21 10 -3 6 -1 10 4 10 6 0
11 -5 11 -12 0 -9 3 -9 12 0 14 14 38 16 38 3 0 -5 -10 -11 -22 -14 -12 -4
-19 -9 -16 -12 3 -4 15 -2 25 4 14 7 27 6 46 -4 19 -10 36 -11 59 -4 41 11 48
11 48 -1 0 -5 -7 -10 -15 -10 -8 0 -15 -4 -15 -10 0 -5 -6 -10 -14 -10 -8 0
-17 -4 -21 -9 -3 -6 9 -7 30 -4 21 3 41 1 50 -7 8 -7 22 -9 31 -6 14 5 15 4 4
-9 -10 -12 -10 -15 3 -15 8 0 18 6 20 13 4 8 6 7 6 -4 1 -8 -4 -20 -10 -26 -8
-8 0 -8 29 0 43 11 87 3 62 -13 -11 -7 -8 -10 13 -15 15 -4 24 -11 21 -16 -3
-5 2 -9 10 -9 10 0 13 -6 10 -15 -4 -9 0 -15 10 -15 9 0 16 -5 16 -11 0 -5 -6
-7 -12 -3 -7 4 -3 -3 10 -15 12 -12 27 -19 34 -15 6 4 8 3 5 -3 -4 -6 5 -18
18 -27 14 -10 23 -22 19 -28 -4 -6 -3 -8 3 -5 6 4 17 -1 24 -10 10 -12 10 -14
2 -9 -8 4 -13 2 -13 -5 0 -10 -3 -10 -12 -1 -7 7 -16 12 -22 12 -5 0 4 -15 22
-33 18 -18 32 -38 32 -44 0 -6 7 -16 16 -24 8 -7 13 -21 10 -31 -2 -11 2 -22
9 -24 8 -3 11 -12 8 -20 -3 -8 -1 -14 4 -14 14 0 42 -62 41 -92 0 -15 -7 -28
-15 -30 -11 -2 -9 -8 7 -26 25 -27 21 -39 -8 -23 -31 16 -34 13 -12 -9 29 -29
25 -40 -11 -33 l-31 6 31 -32 c28 -28 33 -61 10 -61 -11 0 -12 17 -1 23 4 2 1
2 -7 0 -8 -2 -18 2 -22 9 -6 9 -10 7 -15 -7 -4 -11 -12 -23 -18 -27 -7 -5 -7
-8 2 -8 7 0 10 -4 7 -10 -3 -5 2 -10 12 -10 17 -1 17 -1 -1 -15 -10 -7 -15
-18 -11 -24 3 -6 -1 -11 -9 -11 -9 0 -16 6 -17 13 0 6 -4 3 -9 -8 -5 -11 -9
-14 -9 -7 -1 6 -8 12 -18 12 -15 0 -15 -1 0 -18 9 -10 15 -28 12 -40 -2 -14 4
-27 18 -37 22 -16 21 -16 -8 -10 -16 4 -39 9 -50 12 -17 4 -16 1 8 -21 31 -31
35 -50 8 -43 -13 3 -18 0 -16 -12 1 -9 7 -15 13 -14 6 1 13 -4 16 -12 3 -9 0
-15 -9 -15 -7 0 -17 -5 -20 -10 -8 -13 19 -40 39 -40 22 0 28 -17 8 -25 -14
-5 -12 -9 13 -20 29 -13 30 -13 5 -15 l-25 -1 28 -15 c30 -16 49 -11 41 10 -3
7 2 13 11 13 9 0 14 -6 11 -14 -7 -17 20 -43 68 -66 29 -14 36 -21 27 -30 -20
-20 -12 -25 34 -19 35 3 46 1 51 -12 3 -9 11 -16 16 -16 6 0 19 -10 30 -22 12
-14 31 -22 53 -22 20 -1 33 -6 31 -11 -2 -6 2 -19 10 -30 8 -10 14 -15 14 -9
0 5 10 -7 21 -26 12 -19 27 -38 33 -42 6 -4 7 -8 2 -8 -5 0 -3 -7 4 -15 11
-13 10 -14 -4 -9 -21 8 -20 2 3 -25 11 -13 24 -21 28 -18 5 3 9 -3 9 -13 0
-12 -5 -16 -16 -12 -12 4 -12 2 3 -15 19 -21 23 -38 7 -28 -11 7 -2 -23 13
-43 15 -19 18 -115 4 -124 -9 -6 -9 -10 0 -16 9 -5 11 -24 8 -53 -2 -24 0 -60
5 -79 5 -19 11 -54 14 -78 3 -23 8 -47 12 -54 4 -6 3 -8 -3 -5 -6 4 -9 -8 -8
-31 3 -50 15 -74 32 -68 11 5 13 1 7 -16 -6 -21 -6 -21 17 -6 24 15 25 15 24
-11 0 -14 -4 -29 -10 -33 -6 -5 -6 -8 2 -8 6 0 15 5 18 10 16 26 22 2 21 -89
-1 -55 2 -94 6 -88 6 9 8 9 8 0 0 -7 4 -13 10 -13 6 0 6 9 1 23 -5 12 -7 33
-5 47 9 66 16 90 24 90 5 0 12 9 15 20 7 23 45 27 45 5 0 -8 4 -15 8 -15 4 0
8 -9 8 -20 0 -13 -7 -20 -21 -21 -13 0 -8 -4 13 -10 19 -6 37 -19 42 -32 5
-12 9 -19 9 -14 1 4 9 -1 19 -10 11 -10 29 -26 41 -36 13 -10 20 -25 17 -33
-3 -8 -1 -14 4 -14 6 0 10 7 10 15 0 8 8 23 18 33 13 13 18 33 18 74 0 50 -2
55 -21 51 -11 -2 -14 -1 -7 3 18 9 15 48 -8 76 -11 14 -38 33 -60 42 l-41 16
39 48 c21 26 46 61 56 77 14 25 12 24 -17 -9 -20 -22 -39 -36 -46 -32 -7 5
-11 0 -11 -13 0 -11 -5 -23 -10 -26 -6 -4 -10 -3 -9 2 3 19 -2 23 -15 11 -7
-7 -11 -20 -9 -28 4 -13 4 -13 -6 0 -6 8 -11 44 -11 80 1 49 3 61 11 48 11
-20 29 -24 29 -7 0 5 -4 7 -10 4 -6 -3 -10 5 -10 19 0 32 17 43 22 14 3 -15 9
-4 18 35 9 39 17 56 26 53 7 -3 16 4 19 15 4 10 11 19 16 19 5 0 9 9 9 21 0
12 26 47 63 84 40 40 55 60 40 54 -19 -7 -23 -5 -23 11 0 11 4 20 10 20 5 0 7
7 4 15 -4 8 -1 15 5 15 8 0 9 5 3 16 -6 11 -4 27 5 46 15 28 21 50 22 76 1 7
6 10 11 7 11 -7 9 14 -6 63 -3 12 -2 22 3 22 5 0 7 16 5 35 -4 33 3 41 31 36
5 -1 6 8 2 19 -4 12 -2 20 5 20 7 0 5 8 -4 22 -17 23 -22 88 -8 88 4 0 13 -5
20 -12 9 -9 12 -9 12 0 0 6 -6 15 -13 19 -7 4 -20 20 -30 35 -21 33 -23 61 -2
34 18 -23 16 -38 20 139 3 144 3 138 15 130 5 -3 3 9 -4 27 -8 19 -10 41 -6
53 4 11 3 26 -4 34 -9 12 -4 13 34 8 l45 -7 -27 17 c-16 10 -28 22 -28 27 0 5
-10 17 -22 27 l-21 19 21 0 c19 0 20 3 12 26 -14 36 -13 37 18 30 26 -6 26 -6
8 9 -11 8 -16 15 -11 15 5 0 -1 9 -14 21 -13 12 -20 27 -17 36 4 9 1 23 -6 31
-11 13 -10 15 5 9 12 -5 16 -3 11 5 -4 6 -8 21 -10 32 -2 12 -7 38 -13 59 -5
20 -6 37 -1 37 13 0 -1 85 -16 93 -19 11 -18 27 4 43 16 13 16 13 -3 14 l-20
1 20 16 c20 15 20 15 -2 10 -13 -3 -23 -1 -23 5 0 5 -4 6 -10 3 -19 -12 -10 4
18 31 15 15 20 22 10 15 -11 -8 -18 -9 -23 -1 -3 6 -10 8 -15 5 -4 -3 -13 2
-20 10 -11 13 -10 14 5 9 14 -6 16 -4 10 6 -6 10 -1 11 21 6 l29 -6 -22 19
c-32 27 -29 30 15 20 l37 -8 -25 19 c-14 11 -33 20 -42 20 -27 0 -21 19 8 26
17 5 22 10 15 17 -7 7 -15 7 -23 0 -7 -5 -22 -10 -33 -10 -29 -2 -27 33 2 48
13 7 23 16 23 21 0 5 -5 6 -12 2 -7 -5 -9 -2 -5 9 3 9 -1 18 -10 21 -14 6 -14
8 3 21 17 13 17 14 2 15 -9 0 -20 -4 -23 -10 -3 -5 -18 -9 -33 -9 -16 1 -20 3
-10 6 9 2 15 10 12 18 -3 8 4 16 18 21 l23 8 -25 7 c-17 5 -19 7 -7 8 25 1 11
21 -14 21 -16 0 -19 4 -14 21 4 12 3 19 -2 16 -4 -3 -17 1 -28 9 -15 11 -16
17 -7 26 9 9 12 9 12 -2 0 -10 3 -11 11 -3 15 15 1 36 -18 29 -12 -5 -14 -1
-10 20 4 23 2 25 -20 19 -23 -5 -24 -5 -9 10 9 9 19 14 24 11 4 -2 14 -1 21 4
10 6 8 9 -8 15 -11 3 -21 11 -21 16 0 5 -5 9 -12 9 -6 0 -8 -3 -5 -7 8 -7 -11
-33 -24 -33 -15 0 13 48 35 59 18 10 17 11 -13 6 -34 -5 -34 -5 -16 15 19 21
8 29 -13 8 -6 -6 -14 -9 -18 -6 -5 6 -13 43 -16 78 0 8 -5 18 -11 21 -6 4 -3
19 6 39 15 28 15 30 1 19 -13 -10 -17 -10 -24 1 -4 7 -6 19 -3 27 4 9 -3 16
-16 20 -11 3 -21 13 -21 22 0 10 -7 26 -16 37 -8 10 -13 13 -9 7 13 -27 -4
-11 -29 27 -27 41 -37 68 -12 34 8 -10 17 -16 20 -13 3 3 -17 30 -45 60 -28
30 -57 66 -65 82 -8 15 -18 27 -22 27 -4 0 -28 18 -52 40 -25 22 -62 50 -82
62 -20 12 -41 33 -46 47 -13 36 -83 112 -123 135 l-34 18 30 -26 c17 -14 33
-25 36 -26 10 0 42 -71 35 -77 -3 -3 -21 8 -40 25 -19 17 -65 47 -103 68 -76
42 -99 58 -178 125 -37 31 -68 49 -95 53 -22 3 -40 10 -40 15 0 5 -11 12 -25
15 -14 4 -25 11 -25 16 0 6 -6 10 -14 10 -7 0 -35 9 -61 21 -26 11 -58 19 -71
16 -13 -2 -24 0 -24 5 0 5 -3 7 -8 4 -4 -2 -42 6 -85 18 -61 18 -74 25 -64 35
10 10 6 12 -18 9 -20 -2 -29 1 -27 10 1 6 -6 12 -15 12 -27 0 -68 25 -65 39 1
7 -5 11 -15 10 -10 -2 -29 1 -42 5 -13 5 -27 4 -33 -2 -6 -6 -22 -7 -45 0 -33
9 -168 4 -208 -9 -11 -3 -25 -13 -31 -21 -10 -13 -14 -13 -35 6 -12 12 -25 18
-28 13 -3 -4 -17 -12 -30 -16 -22 -7 -23 -5 -19 19 6 28 -3 34 -20 14z m476
-49 c12 -5 22 -11 22 -15 0 -11 -72 7 -88 22 -13 13 -11 14 14 8 16 -4 39 -11
52 -15z m-861 5 c-3 -3 -12 -4 -19 -1 -8 3 -5 6 6 6 11 1 17 -2 13 -5z m-42
-14 c-4 -7 2 -9 19 -4 14 3 26 4 26 0 0 -11 -55 -34 -83 -34 -23 0 -25 3 -15
15 7 9 21 19 33 23 27 12 27 12 20 0z m290 -10 c3 -5 1 -10 -4 -10 -6 0 -11 5
-11 10 0 6 2 10 4 10 3 0 8 -4 11 -10z m185 -4 c0 -3 -4 -8 -10 -11 -5 -3 -10
-1 -10 4 0 6 5 11 10 11 6 0 10 -2 10 -4z m560 -66 c0 -5 -5 -10 -11 -10 -5 0
-7 5 -4 10 3 6 8 10 11 10 2 0 4 -4 4 -10z m130 -22 c0 -6 -6 -5 -15 2 -8 7
-15 14 -15 16 0 2 7 1 15 -2 8 -4 15 -11 15 -16z m-1527 -35 c-9 -7 -20 -13
-24 -13 -4 0 -9 6 -12 13 -3 8 5 12 24 12 26 0 27 -1 12 -12z m-68 -13 c-3 -5
-11 -10 -16 -10 -6 0 -7 5 -4 10 3 6 11 10 16 10 6 0 7 -4 4 -10z m-1005 -681
c0 -6 -4 -7 -10 -4 -5 3 -10 11 -10 16 0 6 5 7 10 4 6 -3 10 -11 10 -16z m80
-29 c0 -4 -13 -5 -30 -2 -16 2 -30 10 -30 17 0 11 6 11 30 2 17 -6 30 -14 30
-17z m-245 -101 c11 -17 -1 -21 -15 -4 -8 9 -8 15 -2 15 6 0 14 -5 17 -11z
m56 -10 c14 -14 18 -24 11 -31 -6 -6 -15 -2 -26 13 -28 41 -19 52 15 18z
m3906 -121 c-3 -8 -6 -5 -6 6 -1 11 2 17 5 13 3 -3 4 -12 1 -19z m-3873 -49
c-2 -5 -14 -1 -24 9 -26 22 -25 24 5 10 13 -6 22 -15 19 -19z m-68 -104 c-13
-10 -15 -15 -6 -15 7 0 10 -3 7 -6 -9 -9 -38 16 -31 27 3 5 15 9 27 9 22 -1
22 -1 3 -15z m211 -700 c0 -8 -4 -12 -9 -9 -4 3 -8 9 -8 15 0 5 4 9 8 9 5 0 9
-7 9 -15z m-57 -19 c0 -3 -4 -8 -10 -11 -5 -3 -10 -1 -10 4 0 6 5 11 10 11 6
0 10 -2 10 -4z m24 -11 c-4 -8 -11 -15 -16 -15 -6 0 -5 6 2 15 7 8 14 15 16
15 2 0 1 -7 -2 -15z m3076 -10 c11 -13 10 -14 -4 -9 -9 3 -16 10 -16 15 0 13
6 11 20 -6z m-3057 -15 c-3 -12 -8 -19 -11 -16 -5 6 5 36 12 36 2 0 2 -9 -1
-20z m49 -42 c-8 -8 -8 -15 -1 -24 7 -8 7 -14 -1 -19 -13 -8 -24 20 -16 40 3
8 11 15 18 15 9 0 9 -3 0 -12z m-152 -349 c0 -5 -4 -9 -10 -9 -5 0 -10 7 -10
16 0 8 5 12 10 9 6 -3 10 -10 10 -16z m3244 -48 c-2 -3 -12 3 -22 13 -16 17
-16 18 5 5 12 -7 20 -15 17 -18z m-127 -111 c14 -11 22 -20 18 -20 -4 0 -18 9
-32 20 -14 11 -22 20 -18 20 4 0 18 -9 32 -20z m-3147 -202 c0 -6 -6 -5 -15 2
-8 7 -15 14 -15 16 0 2 7 1 15 -2 8 -4 15 -11 15 -16z m28 -249 c14 0 13 -2
-3 -9 -31 -13 -34 -12 -27 12 3 12 7 17 10 10 2 -6 11 -12 20 -13z m197 -209
c-3 -5 2 -10 12 -10 15 0 16 -2 3 -10 -22 -14 -26 -12 -27 10 -1 11 3 20 8 20
6 0 7 -4 4 -10z m-408 -42 c-3 -8 -6 -5 -6 6 -1 11 2 17 5 13 3 -3 4 -12 1
-19z m1183 -23 c14 -19 14 -19 -2 -6 -10 7 -18 18 -18 24 0 6 1 8 3 6 1 -2 9
-13 17 -24z m-1170 -81 c0 -7 -5 -16 -10 -19 -6 -4 -8 -10 -6 -14 3 -4 -2 -8
-10 -8 -10 0 -13 6 -8 16 4 9 7 29 7 45 1 26 2 27 14 10 7 -10 13 -23 13 -30z
m-30 -114 c-4 -25 -9 -37 -10 -27 -1 9 -3 23 -4 30 -2 13 14 51 19 45 1 -1 -1
-23 -5 -48z m35 20 c3 -5 -1 -10 -9 -10 -9 0 -16 5 -16 10 0 6 4 10 9 10 6 0
13 -4 16 -10z m556 -77 c1 -21 2 -23 6 -8 8 34 24 42 18 10 -3 -17 -1 -43 4
-60 5 -16 10 -24 10 -17 1 8 13 0 27 -18 78 -92 219 -73 294 40 15 23 30 42
33 43 15 5 44 -37 45 -65 1 -40 -13 -58 -44 -58 -13 0 -24 -4 -24 -10 0 -5 -6
-10 -14 -10 -8 0 -18 -4 -21 -10 -3 -5 0 -7 7 -5 8 3 34 -2 58 -10 25 -9 67
-18 95 -21 27 -3 52 -10 56 -16 5 -7 9 -7 13 1 12 19 29 12 23 -9 -3 -12 -1
-18 5 -14 6 4 9 1 6 -7 -3 -8 -13 -14 -24 -14 -10 0 -25 -4 -31 -8 -8 -5 -13
-4 -13 3 0 6 -4 8 -10 5 -5 -3 -10 0 -10 7 0 10 -2 10 -9 -1 -7 -11 -13 -9
-29 7 -11 11 -17 24 -14 28 4 3 -2 2 -14 -4 -13 -7 -33 -8 -50 -3 -16 4 -44 4
-62 0 -18 -4 -47 -3 -65 2 -21 6 -33 5 -38 -2 -5 -8 -8 -8 -13 0 -9 15 3 33
16 25 6 -4 6 1 -1 14 -9 16 -17 19 -38 14 -34 -9 -112 -7 -135 3 -12 5 -18 3
-18 -6 0 -7 -7 -3 -16 9 -9 13 -22 21 -30 18 -22 -8 -13 25 11 46 19 17 19 19
-7 22 -7 1 -13 10 -13 21 0 11 -4 26 -9 34 -5 8 -4 16 4 21 7 4 9 13 6 19 -4
6 -2 11 3 11 6 0 12 -12 12 -27z m279 6 c0 -11 -4 -17 -10 -14 -5 3 -10 13
-10 21 0 8 5 14 10 14 6 0 10 -9 10 -21z m-870 -19 c-20 -13 -33 -13 -25 0 3
6 14 10 23 10 15 0 15 -2 2 -10z m-18 -127 c-2 -21 -4 -44 -4 -50 -1 -7 -6
-13 -11 -13 -5 0 -7 14 -3 31 3 17 6 42 6 56 0 13 4 22 8 19 5 -3 7 -22 4 -43z
m806 -68 c-8 -17 -15 -22 -26 -16 -8 5 -24 6 -36 4 -20 -4 -20 -4 -2 11 10 8
23 13 27 10 5 -3 17 0 26 5 10 6 19 11 20 11 2 0 -2 -11 -9 -25z m3289 -7 c-3
-7 -5 -2 -5 12 0 14 2 19 5 13 2 -7 2 -19 0 -25z m-3900 -41 c7 -5 11 -12 8
-18 -3 -5 1 -6 9 -3 8 3 12 12 9 20 -4 10 0 12 11 8 9 -3 16 -11 16 -16 0 -6
7 -8 15 -4 13 5 14 2 4 -17 -9 -18 -9 -20 2 -9 18 16 34 16 20 -1 -6 -8 -8
-17 -4 -20 3 -4 1 -7 -5 -7 -7 0 -12 -5 -12 -11 0 -5 4 -8 9 -5 17 11 42 -6
39 -26 -2 -17 3 -21 32 -23 19 -2 36 -8 38 -14 2 -7 14 -8 29 -5 18 5 24 3 19
-5 -5 -7 3 -11 23 -11 21 0 31 -5 31 -15 0 -8 9 -15 19 -15 11 0 22 -4 25 -9
3 -5 21 -5 40 -1 39 8 47 5 39 -16 -3 -8 0 -14 7 -14 6 0 8 5 5 10 -10 16 21
12 34 -4 10 -11 8 -16 -6 -24 -16 -9 -15 -11 10 -17 28 -7 36 -20 15 -27 -27
-9 4 -24 46 -22 25 1 46 -3 46 -8 0 -6 6 -8 14 -5 7 3 18 1 24 -5 6 -6 19 -8
29 -4 14 6 15 9 4 15 -9 6 -10 11 -2 15 6 4 11 3 11 -2 0 -22 39 -19 57 4 12
17 19 20 25 11 6 -9 11 -8 21 3 18 22 56 42 67 35 6 -4 10 3 10 14 0 23 15 28
23 9 3 -7 6 -2 6 11 1 18 5 22 21 18 10 -3 21 0 23 7 3 8 8 8 18 -1 10 -8 20
-9 29 -3 29 19 31 9 5 -25 -27 -35 -43 -109 -25 -120 5 -3 6 -13 3 -21 -4 -11
-8 -12 -13 -4 -5 7 -9 2 -12 -14 -3 -14 -1 -23 3 -20 5 3 9 0 9 -5 0 -6 -4
-11 -10 -11 -5 0 -10 -4 -10 -10 0 -5 8 -10 17 -10 15 0 14 -2 -3 -19 -10 -10
-23 -16 -29 -13 -5 3 0 -6 13 -20 20 -22 21 -26 8 -31 -9 -4 -16 -15 -16 -26
0 -11 -13 -35 -29 -53 -15 -18 -26 -39 -24 -46 3 -8 -1 -10 -11 -6 -12 5 -15
2 -10 -10 3 -9 1 -16 -6 -16 -6 0 -8 -6 -4 -12 4 -7 4 -10 -1 -6 -10 10 -37
-11 -29 -23 3 -5 0 -9 -5 -9 -6 0 -11 -7 -11 -15 0 -8 -6 -12 -14 -9 -11 4
-13 0 -9 -15 4 -17 1 -21 -18 -21 -18 0 -20 -3 -10 -9 11 -7 9 -10 -8 -16 -11
-3 -25 -4 -30 0 -5 3 -12 1 -15 -4 -3 -5 1 -11 9 -15 18 -7 20 -28 3 -25 -29
3 -40 -2 -35 -16 4 -8 1 -17 -4 -21 -7 -4 -7 -10 0 -17 17 -17 13 -29 -6 -19
-21 12 -53 -24 -53 -60 0 -19 -2 -20 -11 -8 -9 12 -10 11 -6 -7 3 -13 1 -26
-4 -29 -5 -3 -9 -14 -9 -26 0 -14 5 -18 15 -14 19 7 19 1 -2 -19 -15 -16 -15
-19 0 -45 25 -41 22 -63 -5 -55 -18 5 -20 4 -8 -4 8 -6 11 -11 6 -11 -5 0 -2
-7 5 -16 12 -15 11 -16 -9 -10 -27 9 -29 0 -2 -14 16 -8 24 -6 41 11 11 11 23
18 26 16 8 -9 -21 -47 -37 -47 -13 0 -13 -2 -1 -9 21 -13 25 -52 6 -44 -11 3
-12 9 -6 17 7 8 4 16 -11 25 -17 11 -22 10 -35 -8 -8 -12 -19 -18 -25 -15 -6
4 -8 -1 -3 -15 4 -15 3 -21 -6 -19 -7 2 -18 -8 -26 -22 -12 -25 -13 -25 -13
-2 0 25 -15 30 -24 6 -3 -8 -10 -12 -16 -9 -5 3 -10 4 -10 0 0 -3 9 -9 19 -13
17 -6 18 -9 5 -26 -11 -16 -14 -17 -14 -4 0 9 -6 18 -12 21 -10 3 -10 10 1 31
12 21 12 29 2 39 -11 10 -12 7 -6 -13 4 -17 3 -21 -3 -11 -5 7 -15 11 -21 7
-7 -4 -9 -1 -5 7 3 8 0 18 -6 22 -9 6 -9 10 1 17 10 7 9 8 -5 4 -10 -4 -25 -1
-34 6 -12 10 -16 10 -19 1 -3 -7 -9 -13 -14 -13 -6 0 -7 5 -3 11 4 7 1 10 -7
7 -15 -5 -39 34 -38 61 0 9 5 4 11 -11 5 -16 14 -28 20 -28 5 0 7 6 4 13 -3 6
-9 20 -12 30 -4 9 -17 20 -30 23 -13 3 -24 11 -24 16 0 10 17 8 54 -7 16 -7
17 -6 7 14 -7 12 -16 19 -21 16 -13 -8 1 28 14 37 6 4 7 11 2 15 -5 4 -11 2
-13 -5 -3 -6 -10 -9 -16 -5 -6 4 -8 0 -4 -10 3 -10 2 -17 -3 -17 -6 0 -10 6
-10 14 0 9 -7 12 -19 9 -16 -4 -19 -1 -15 19 2 12 2 17 -2 11 -9 -19 -20 -16
-20 6 0 11 3 18 7 15 4 -2 10 3 13 11 4 11 0 15 -12 13 -12 -2 -17 3 -16 20 0
14 -4 21 -12 18 -7 -3 -10 2 -7 15 4 13 0 19 -12 19 -12 0 -15 -5 -10 -19 5
-16 2 -18 -14 -14 -18 4 -18 7 -6 19 8 8 12 21 9 29 -4 8 -1 15 6 15 9 0 7 7
-5 20 -10 11 -22 17 -26 14 -5 -3 -9 2 -9 11 0 9 -9 28 -20 42 -11 14 -20 32
-20 39 0 8 -6 14 -12 14 -7 0 -13 13 -14 30 -1 17 3 30 7 30 5 0 9 5 9 11 0 6
-7 9 -14 6 -10 -4 -13 -1 -9 9 3 8 0 21 -7 29 -10 12 -9 15 5 15 14 0 15 3 6
14 -6 7 -9 28 -6 47 5 30 4 31 -5 10 -13 -30 -23 -22 -14 12 6 25 22 31 35 13
14 -18 16 11 5 46 -11 30 -11 35 0 31 20 -7 17 12 -3 28 -9 8 -14 9 -10 3 4
-7 0 -14 -8 -17 -9 -4 -12 -1 -8 9 3 7 0 14 -7 14 -7 0 -10 7 -6 15 3 8 2 15
-3 15 -10 0 -24 38 -22 58 1 6 -2 12 -8 12 -5 0 -7 9 -4 20 4 15 1 19 -9 15
-11 -4 -14 1 -13 17 1 13 -3 32 -10 43 -6 11 -11 32 -10 46 0 18 -4 26 -15 25
-8 -1 -14 5 -12 13 1 7 -3 20 -10 29 -11 13 -9 15 15 10 22 -4 25 -3 16 8 -9
11 -8 14 4 14 8 0 18 7 21 15 3 9 1 15 -7 14 -27 -3 -37 2 -36 19 0 10 3 12 6
5 14 -36 54 14 47 60 -1 9 4 17 12 17 9 0 13 4 10 9 -4 5 0 11 6 14 7 2 17 -3
22 -12 5 -9 15 -20 23 -24z m-91 -54 c-10 -10 -19 5 -10 18 6 11 8 11 12 0 2
-7 1 -15 -2 -18z m-76 -3 c0 -5 -5 -10 -11 -10 -5 0 -7 5 -4 10 3 6 8 10 11
10 2 0 4 -4 4 -10z m734 -35 c-4 -8 -10 -12 -15 -9 -5 3 -12 -2 -15 -10 -7
-19 -25 -22 -21 -3 2 12 34 36 49 37 4 0 5 -7 2 -15z m94 -72 c-6 -7 -21 -13
-34 -13 -12 0 -26 -5 -29 -10 -8 -13 -35 6 -35 24 0 6 4 5 9 -3 5 -8 15 -12
22 -9 8 3 18 6 23 6 5 0 13 6 17 14 7 10 9 10 9 0 0 -7 4 -11 10 -7 5 3 7 13
4 23 -5 14 -4 14 4 2 8 -10 8 -18 0 -27z m-128 -3 c0 -5 -5 -10 -11 -10 -5 0
-7 5 -4 10 3 6 8 10 11 10 2 0 4 -4 4 -10z m440 2 c0 -10 -22 -32 -32 -32 -4
0 -8 5 -8 10 0 6 7 10 16 10 8 0 12 5 9 10 -3 6 -1 10 4 10 6 0 11 -4 11 -8z
m-645 -12 c3 -5 -1 -10 -9 -10 -9 0 -16 5 -16 10 0 6 4 10 9 10 6 0 13 -4 16
-10z m179 -69 c-2 -2 -10 4 -18 12 -9 8 -21 18 -28 20 -10 4 -10 8 2 16 11 7
18 3 31 -17 9 -15 15 -29 13 -31z m163 53 c-3 -3 -12 -4 -19 -1 -8 3 -5 6 6 6
11 1 17 -2 13 -5z m-140 -10 c-3 -3 -12 -4 -19 -1 -8 3 -5 6 6 6 11 1 17 -2
13 -5z m35 -16 c-7 -7 -12 -8 -12 -2 0 14 12 26 19 19 2 -3 -1 -11 -7 -17z
m11 -23 c-3 -9 -8 -14 -10 -11 -3 3 -2 9 2 15 9 16 15 13 8 -4z m417 -65 c0
-5 -4 -10 -10 -10 -5 0 -10 5 -10 10 0 6 5 10 10 10 6 0 10 -4 10 -10z m0 -84
c0 -3 -4 -8 -10 -11 -5 -3 -10 -1 -10 4 0 6 5 11 10 11 6 0 10 -2 10 -4z
m-163 -402 c-3 -3 -12 -4 -19 -1 -8 3 -5 6 6 6 11 1 17 -2 13 -5z m-23 -47
c-3 -9 -11 -17 -16 -17 -6 0 -5 6 2 15 6 8 8 20 4 27 -5 10 -4 10 5 2 6 -6 9
-18 5 -27z m-754 -38 c0 -6 -4 -7 -10 -4 -5 3 -10 11 -10 16 0 6 5 7 10 4 6
-3 10 -11 10 -16z m33 -64 c-3 -9 -8 -14 -10 -11 -3 3 -2 9 2 15 9 16 15 13 8
-4z m1487 -175 c-20 -13 -33 -13 -25 0 3 6 14 10 23 10 15 0 15 -2 2 -10z
m-925 -50 c17 -33 19 -44 6 -35 -16 9 -24 -15 -11 -30 19 -23 -4 -18 -25 5
-13 14 -21 17 -26 9 -4 -6 -13 -9 -20 -7 -9 3 -2 11 19 22 30 16 36 25 33 54
-3 21 8 13 24 -18z m-48 -2 c-3 -8 -6 -5 -6 6 -1 11 2 17 5 13 3 -3 4 -12 1
-19z m103 -24 c0 -8 4 -13 8 -10 4 2 14 1 22 -5 11 -6 8 -9 -12 -9 -21 0 -25
-4 -21 -20 3 -11 0 -20 -6 -20 -6 0 -11 19 -11 46 0 27 4 43 10 39 6 -3 10
-13 10 -21z m10 -124 c0 -5 -4 -10 -10 -10 -5 0 -10 5 -10 10 0 6 5 10 10 10
6 0 10 -4 10 -10z m-147 -37 c-3 -7 -9 -10 -14 -7 -14 8 -11 21 5 21 8 0 12
-6 9 -14z m-40 -7 c4 -10 1 -13 -8 -9 -8 3 -12 9 -9 14 7 12 11 11 17 -5z
m227 10 c0 -3 -4 -8 -10 -11 -5 -3 -10 -1 -10 4 0 6 5 11 10 11 6 0 10 -2 10
-4z m-383 -58 c-3 -8 -6 -5 -6 6 -1 11 2 17 5 13 3 -3 4 -12 1 -19z m503 -79
c0 -6 -4 -7 -10 -4 -5 3 -10 11 -10 16 0 6 5 7 10 4 6 -3 10 -11 10 -16z m-27
-13 c9 -7 17 -22 17 -32 -1 -18 -1 -18 -11 -1 -5 9 -17 17 -24 17 -8 0 -15 7
-15 15 0 18 9 19 33 1z m-531 -128 c1 -9 5 -15 8 -13 4 2 12 -12 19 -31 7 -18
16 -34 21 -34 4 0 15 -16 24 -35 11 -23 21 -32 31 -29 9 4 15 0 15 -10 0 -9
-4 -16 -10 -16 -5 0 -10 -7 -10 -15 0 -8 -4 -15 -10 -15 -5 0 -10 -5 -10 -11
0 -5 4 -8 8 -5 4 2 9 -5 9 -16 2 -18 0 -19 -15 -5 -9 8 -23 12 -29 10 -7 -3
-13 1 -13 7 0 7 -7 10 -15 6 -8 -3 -15 -1 -15 3 0 5 6 12 13 14 6 3 3 6 -7 6
-16 1 -17 4 -8 13 14 14 -12 48 -37 48 -12 0 -13 2 -3 9 16 10 12 32 -8 48
-10 9 -11 12 -2 13 6 0 12 8 12 18 0 15 -2 15 -10 2 -8 -11 -9 -7 -4 15 3 17
8 36 10 44 3 9 -1 11 -12 7 -12 -5 -14 -1 -9 15 5 15 4 19 -4 15 -13 -8 -14
-4 -5 18 3 9 12 16 20 16 8 0 14 6 15 13 1 13 28 -78 31 -105z m1958 2 c13 -8
13 -10 -2 -10 -9 0 -20 5 -23 10 -8 13 5 13 25 0z m-143 -6 c-3 -3 -12 -4 -19
-1 -8 3 -5 6 6 6 11 1 17 -2 13 -5z m-407 -43 c0 -6 10 -8 22 -6 55 11 65 -54
17 -103 -24 -25 -40 -32 -70 -32 -21 0 -41 5 -44 10 -11 18 -35 11 -35 -10 0
-24 -16 -28 -129 -34 -91 -6 -107 1 -105 44 2 54 16 90 38 95 141 32 162 32
187 3 10 -13 18 -31 19 -40 0 -30 18 -20 30 17 6 19 17 35 25 35 7 0 15 7 19
15 6 16 26 21 26 6z m173 -33 c4 -10 8 -9 16 2 10 13 11 13 11 0 0 -13 1 -13
10 0 8 12 10 11 10 -7 0 -15 -9 -24 -31 -32 -41 -14 -64 1 -46 30 14 22 23 24
30 7z m-546 -59 c13 -39 8 -75 -10 -82 -7 -2 -43 -1 -81 3 -49 6 -73 13 -83
26 -29 40 -10 64 64 80 83 18 96 15 110 -27z m-1039 -24 c-3 -3 -9 2 -12 12
-6 14 -5 15 5 6 7 -7 10 -15 7 -18z m152 -30 c0 -8 -8 -15 -17 -15 -16 -1 -16
-2 1 -15 18 -13 18 -15 3 -15 -26 0 -34 30 -12 46 24 17 25 17 25 -1z m60 -18
c0 -5 -4 -5 -10 -2 -5 3 -10 14 -10 23 0 15 2 15 10 2 5 -8 10 -19 10 -23z
m-130 -42 c0 -8 -4 -15 -10 -15 -5 0 -10 7 -10 15 0 8 5 15 10 15 6 0 10 -7
10 -15z m50 -5 c0 -5 -4 -10 -10 -10 -5 0 -10 5 -10 10 0 6 5 10 10 10 6 0 10
-4 10 -10z m880 -130 c0 -5 -2 -10 -4 -10 -3 0 -8 5 -11 10 -3 6 -1 10 4 10 6
0 11 -4 11 -10z m170 -16 c0 -8 -4 -12 -10 -9 -5 3 -10 10 -10 16 0 5 5 9 10
9 6 0 10 -7 10 -16z m-280 -164 c0 -5 -5 -10 -11 -10 -5 0 -7 5 -4 10 3 6 8
10 11 10 2 0 4 -4 4 -10z m180 -10 c0 -5 -7 -10 -15 -10 -8 0 -15 5 -15 10 0
6 7 10 15 10 8 0 15 -4 15 -10z m100 0 c-8 -5 -19 -10 -25 -10 -5 0 -3 5 5 10
8 5 20 10 25 10 6 0 3 -5 -5 -10z m-310 -10 c0 -5 -5 -10 -11 -10 -5 0 -7 5
-4 10 3 6 8 10 11 10 2 0 4 -4 4 -10z m275 -10 c4 -6 16 -8 28 -4 26 8 21 1
-12 -16 -13 -7 -21 -7 -17 -2 4 6 -2 15 -11 21 -10 6 -13 11 -6 11 6 0 15 -5
18 -10z m-100 -10 c-3 -5 -1 -10 6 -10 10 0 10 -3 1 -12 -10 -10 -15 -10 -22
2 -6 9 -5 17 3 22 16 10 19 10 12 -2z m61 -58 c-11 -10 -15 4 -8 28 l7 25 3
-23 c2 -13 1 -26 -2 -30z m-16 28 c0 -5 -4 -10 -10 -10 -5 0 -10 5 -10 10 0 6
5 10 10 10 6 0 10 -4 10 -10z m-520 -20 c6 -11 8 -20 6 -20 -3 0 -10 9 -16 20
-6 11 -8 20 -6 20 3 0 10 -9 16 -20z m479 -22 l12 -23 -5 25 c-5 24 -5 24 19
-4 20 -23 22 -32 13 -49 -10 -20 -11 -20 -22 2 -7 12 -15 19 -19 16 -4 -3 -5
-2 -2 2 3 3 -2 17 -10 30 -9 13 -12 23 -7 23 5 0 14 -10 21 -22z m111 -58 c0
-5 -5 -10 -11 -10 -5 0 -7 5 -4 10 3 6 8 10 11 10 2 0 4 -4 4 -10z m-416 -29
c16 -17 16 -19 0 -25 -11 -4 -15 -2 -11 8 3 7 0 19 -6 25 -6 6 -9 11 -6 11 3
0 14 -8 23 -19z m1096 -453 c0 -16 -3 -19 -11 -11 -6 6 -8 16 -5 22 11 17 16
13 16 -11z m122 10 c-9 -9 -15 -9 -24 0 -9 9 -7 12 12 12 19 0 21 -3 12 -12z
m-95 -60 c-3 -8 -6 -5 -6 6 -1 11 2 17 5 13 3 -3 4 -12 1 -19z m98 10 c5 4 5
1 1 -6 -6 -10 -11 -10 -22 -1 -8 6 -14 14 -14 16 0 3 6 0 13 -6 8 -6 18 -7 22
-3z m-31 -25 c4 -10 4 -14 0 -10 -4 4 -13 2 -21 -5 -7 -6 -16 -8 -20 -4 -5 5
22 33 33 36 1 0 5 -8 8 -17z m56 -2 c0 -5 -7 -12 -16 -15 -14 -5 -15 -4 -4 9
14 17 20 19 20 6z m38 -44 c-12 -10 -26 -16 -31 -14 -15 5 -21 27 -7 27 6 0 8
-4 5 -10 -3 -5 -1 -10 4 -10 11 0 15 15 12 34 -1 5 4 13 11 17 23 15 28 -24 6
-44z m-178 -17 c0 -5 -5 -10 -11 -10 -5 0 -7 5 -4 10 3 6 8 10 11 10 2 0 4 -4
4 -10z m80 -40 c-19 -13 -30 -13 -30 0 0 6 10 10 23 10 18 0 19 -2 7 -10z
m-40 -50 c0 -5 -2 -10 -4 -10 -3 0 -8 5 -11 10 -3 6 -1 10 4 10 6 0 11 -4 11
-10z m-1 -47 c-26 -33 -54 -52 -60 -41 -4 7 -12 2 -20 -11 -8 -11 -18 -21 -22
-21 -5 0 1 13 13 30 13 18 26 27 35 23 11 -4 13 -1 8 13 -4 11 -3 15 5 10 6
-3 13 -2 17 4 3 5 13 10 22 10 13 0 14 -2 2 -17z m-122 -29 c-3 -3 -12 -4 -19
-1 -8 3 -5 6 6 6 11 1 17 -2 13 -5z m-237 -124 c0 -5 -5 -10 -11 -10 -5 0 -7
5 -4 10 3 6 8 10 11 10 2 0 4 -4 4 -10z m-70 -10 c0 -5 -5 -10 -11 -10 -5 0
-7 5 -4 10 3 6 8 10 11 10 2 0 4 -4 4 -10z m-10 -26 c0 -2 -7 -4 -15 -4 -8 0
-15 4 -15 10 0 5 7 7 15 4 8 -4 15 -8 15 -10z m-120 -106 c0 -11 -49 23 -50
35 0 4 11 0 25 -9 14 -9 25 -20 25 -26z m-670 2 c-8 -5 -17 -7 -19 -4 -3 3 1
9 9 14 8 5 17 7 19 4 3 -3 -1 -9 -9 -14z m390 -70 c0 -5 -4 -10 -10 -10 -5 0
-10 5 -10 10 0 6 5 10 10 10 6 0 10 -4 10 -10z m-198 -812 c-5 -7 -12 -22 -14
-33 -2 -12 -6 -16 -10 -9 -7 10 17 54 29 54 3 0 1 -6 -5 -12z m-56 -125 c-11
-11 -19 6 -11 24 8 17 8 17 12 0 3 -10 2 -21 -1 -24z m4 -63 c0 -5 -4 -10 -10
-10 -5 0 -10 5 -10 10 0 6 5 10 10 10 6 0 10 -4 10 -10z m-3 -105 c0 -8 -4
-12 -9 -9 -5 3 -6 10 -3 15 9 13 12 11 12 -6z"/>
<path d="M3940 5601 c0 -5 7 -12 16 -15 14 -5 15 -4 4 9 -14 17 -20 19 -20 6z"/>
<path d="M3370 5430 c0 -5 5 -10 11 -10 5 0 7 5 4 10 -3 6 -8 10 -11 10 -2 0
-4 -4 -4 -10z"/>
<path d="M3288 4907 c-3 -19 -2 -25 4 -19 6 6 8 18 6 28 -3 14 -5 12 -10 -9z"/>
<path d="M3326 4722 c-3 -5 7 -26 21 -48 33 -50 32 -48 39 -41 4 4 2 13 -5 20
-6 8 -9 22 -5 31 11 28 -34 63 -50 38z"/>
<path d="M3477 4476 c-4 -10 -1 -13 8 -9 8 3 12 9 9 14 -7 12 -11 11 -17 -5z"/>
<path d="M3495 4440 c3 -5 8 -10 11 -10 2 0 4 5 4 10 0 6 -5 10 -11 10 -5 0
-7 -4 -4 -10z"/>
<path d="M3796 4424 c-8 -21 -8 -24 5 -24 5 0 7 5 4 10 -3 6 -1 10 4 10 6 0
11 5 11 10 0 16 -17 12 -24 -6z"/>
<path d="M3810 4365 c0 -8 -7 -15 -17 -15 -9 0 -14 -2 -11 -5 12 -12 57 7 51
21 -7 19 -23 18 -23 -1z"/>
<path d="M3555 4320 c-3 -5 -1 -10 4 -10 6 0 11 5 11 10 0 6 -2 10 -4 10 -3 0
-8 -4 -11 -10z"/>
<path d="M3570 4270 c0 -5 5 -10 10 -10 6 0 10 5 10 10 0 6 -4 10 -10 10 -5 0
-10 -4 -10 -10z"/>
<path d="M3780 4260 c0 -5 5 -10 10 -10 6 0 10 5 10 10 0 6 -4 10 -10 10 -5 0
-10 -4 -10 -10z"/>
<path d="M3660 4246 c0 -2 7 -7 16 -10 8 -3 12 -2 9 4 -6 10 -25 14 -25 6z"/>
<path d="M3521 8714 c0 -11 3 -14 6 -6 3 7 2 16 -1 19 -3 4 -6 -2 -5 -13z"/>
<path d="M3510 8684 c0 -3 7 -12 15 -20 16 -17 18 -14 9 10 -6 15 -24 23 -24
10z"/>
<path d="M3540 8631 c0 -6 4 -13 10 -16 6 -3 7 1 4 9 -7 18 -14 21 -14 7z"/>
<path d="M7230 8289 c0 -5 5 -7 10 -4 6 3 10 8 10 11 0 2 -4 4 -10 4 -5 0 -10
-5 -10 -11z"/>
<path d="M3183 8263 c-7 -3 -13 -9 -13 -15 0 -6 7 -8 15 -4 8 3 21 -4 29 -16
19 -26 32 -18 17 10 -12 22 -30 31 -48 25z"/>
<path d="M7293 8171 c-14 -23 5 -36 28 -19 11 8 10 9 -3 4 -21 -6 -23 5 -6 22
7 7 8 12 2 12 -5 0 -15 -9 -21 -19z"/>
<path d="M3145 7950 c27 -12 35 -12 35 0 0 6 -12 10 -27 9 -25 0 -26 -1 -8 -9z"/>
<path d="M5185 7770 c-3 -5 3 -10 15 -10 12 0 18 5 15 10 -3 6 -10 10 -15 10
-5 0 -12 -4 -15 -10z"/>
<path d="M5980 7680 c0 -5 5 -10 11 -10 5 0 7 5 4 10 -3 6 -8 10 -11 10 -2 0
-4 -4 -4 -10z"/>
<path d="M6130 7590 c-13 -8 -12 -10 3 -10 9 0 17 5 17 10 0 12 -1 12 -20 0z"/>
<path d="M3530 7415 c-11 -13 -10 -14 4 -9 9 3 16 10 16 15 0 13 -6 11 -20 -6z"/>
<path d="M3520 7380 c0 -5 5 -10 11 -10 5 0 7 5 4 10 -3 6 -8 10 -11 10 -2 0
-4 -4 -4 -10z"/>
<path d="M3516 7148 c7 -22 28 -48 38 -48 13 0 5 28 -9 34 -8 3 -15 12 -15 21
0 8 -5 15 -11 15 -6 0 -8 -9 -3 -22z"/>
<path d="M3477 7110 c-16 -16 -35 -26 -42 -23 -24 9 -36 -6 -24 -28 13 -25 55
-22 53 3 -1 9 4 19 12 22 8 3 11 0 7 -9 -3 -9 2 -18 12 -21 12 -5 15 -14 11
-30 -5 -18 -2 -24 9 -24 12 0 15 6 9 22 -3 11 -7 41 -9 65 -1 24 -4 45 -6 47
-2 2 -17 -8 -32 -24z m-27 -50 c0 -5 -4 -10 -10 -10 -5 0 -10 5 -10 10 0 6 5
10 10 10 6 0 10 -4 10 -10z"/>
<path d="M3570 7103 c0 -5 5 -15 10 -23 8 -12 10 -11 10 8 0 12 -4 22 -10 22
-5 0 -10 -3 -10 -7z"/>
<path d="M3530 7050 c0 -5 5 -10 11 -10 5 0 7 5 4 10 -3 6 -8 10 -11 10 -2 0
-4 -4 -4 -10z"/>
<path d="M3595 7051 c-3 -5 -2 -12 3 -15 5 -3 9 1 9 9 0 17 -3 19 -12 6z"/>
<path d="M3469 7038 c-5 -49 -4 -68 6 -65 13 5 18 77 5 77 -6 0 -11 -6 -11
-12z"/>
<path d="M3564 7030 c0 -11 4 -20 8 -20 4 0 8 9 8 20 0 11 -4 20 -8 20 -4 0
-8 -9 -8 -20z"/>
<path d="M3620 7020 c0 -5 5 -10 10 -10 6 0 10 5 10 10 0 6 -4 10 -10 10 -5 0
-10 -4 -10 -10z"/>
<path d="M3340 6965 c0 -2 7 -8 15 -15 12 -10 15 -10 15 2 0 8 -7 15 -15 15
-8 0 -15 -1 -15 -2z"/>
<path d="M3528 6958 c5 -5 16 -8 23 -6 8 3 3 7 -10 11 -17 4 -21 3 -13 -5z"/>
<path d="M3478 6943 c7 -3 16 -2 19 1 4 3 -2 6 -13 5 -11 0 -14 -3 -6 -6z"/>
<path d="M3515 6930 c-8 -13 3 -30 18 -30 8 0 7 3 -2 9 -7 5 -10 14 -7 20 4 6
5 11 2 11 -3 0 -8 -4 -11 -10z"/>
<path d="M6390 6860 c0 -5 5 -10 11 -10 5 0 7 5 4 10 -3 6 -8 10 -11 10 -2 0
-4 -4 -4 -10z"/>
<path d="M3347 6488 c-16 -12 -15 -13 7 -13 15 0 22 5 19 13 -3 6 -6 12 -7 12
-1 0 -10 -6 -19 -12z"/>
<path d="M5660 6181 c-35 -6 -39 -9 -17 -11 43 -4 45 -5 53 -12 4 -5 -24 -5
-62 -2 -38 3 -114 7 -169 9 -55 2 -112 6 -128 10 -16 4 -33 3 -41 -4 -7 -6
-33 -15 -57 -20 -24 -5 -55 -13 -69 -17 l-25 -7 25 21 c14 12 20 21 13 22 -22
0 -43 -12 -43 -26 0 -8 -9 -14 -20 -14 -12 0 -35 -8 -53 -17 -18 -9 -35 -16
-39 -15 -5 1 -8 -5 -8 -13 0 -8 -7 -15 -16 -15 -13 0 -14 -3 -5 -14 9 -11 8
-15 -5 -20 -24 -9 -26 -8 -19 14 6 19 4 19 -20 8 -15 -6 -24 -17 -21 -25 3 -7
-6 -24 -20 -38 -18 -18 -21 -25 -9 -25 8 0 15 -5 15 -11 0 -15 28 -41 38 -35
10 6 10 -69 0 -80 -4 -4 -3 -14 4 -21 9 -11 9 -16 -3 -23 -10 -7 -11 -12 -2
-21 6 -6 9 -18 6 -26 -5 -12 -7 -12 -14 -1 -6 9 -9 7 -9 -9 0 -13 -4 -23 -9
-23 -5 0 -12 -7 -15 -16 -5 -12 -2 -15 10 -10 12 5 14 1 9 -17 -4 -15 -4 -18
3 -8 12 16 33 6 26 -13 -3 -7 2 -19 11 -26 8 -7 15 -19 15 -27 0 -8 5 -11 10
-8 6 4 8 10 6 13 -2 4 11 12 30 18 28 9 34 8 34 -4 0 -9 6 -12 16 -8 9 3 20 6
25 6 5 0 9 7 9 16 0 8 4 13 8 10 5 -3 7 -19 4 -36 -4 -28 -1 -32 36 -46 38
-16 40 -18 37 -54 -2 -21 -7 -45 -11 -52 -6 -10 -4 -10 9 1 10 8 21 11 24 7 4
-4 1 -11 -7 -16 -20 -13 -23 -12 -45 4 -13 9 -16 19 -11 32 8 19 8 19 15 0 4
-11 10 -15 14 -10 3 6 2 16 -3 24 -7 12 -12 11 -29 -4 -16 -15 -18 -22 -10
-39 6 -11 7 -22 3 -26 -19 -14 -7 -44 34 -81 24 -22 49 -40 56 -40 7 0 21 -9
31 -20 10 -11 23 -20 29 -20 6 0 4 5 -4 10 -12 8 -10 9 7 7 12 -2 26 -7 30
-12 5 -4 2 -5 -4 -1 -7 4 -13 5 -13 1 0 -12 45 -22 58 -13 8 7 12 7 12 -1 0
-28 22 -6 45 43 28 62 30 69 13 64 -7 -3 -16 -15 -20 -29 -5 -16 -6 -11 -4 19
2 23 -1 45 -7 49 -6 4 -7 1 -2 -7 5 -9 4 -11 -4 -6 -26 17 -2 29 64 33 39 2
73 9 77 16 6 9 11 8 18 -3 8 -12 12 -12 18 -2 9 13 58 12 80 -2 8 -5 12 1 12
19 0 22 4 25 26 21 20 -4 24 -2 20 10 -3 9 -6 17 -6 19 0 2 -13 0 -30 -5 -18
-5 -32 -5 -36 1 -3 6 -11 5 -21 -2 -11 -10 -16 -10 -22 0 -5 7 -17 12 -27 11
-11 -1 -21 -1 -24 0 -23 10 -95 8 -102 -3 -6 -9 -8 -9 -8 2 0 7 -6 11 -15 7
-8 -3 -18 2 -23 10 -7 12 -14 13 -36 4 -21 -8 -25 -7 -20 3 5 8 3 8 -9 -2 -14
-11 -18 -11 -23 4 -6 13 -9 14 -16 3 -6 -9 -7 -3 -3 17 8 38 9 38 45 37 33 -1
40 13 11 23 -26 8 -33 32 -19 58 10 20 10 21 -7 7 -17 -14 -17 -13 -10 9 5 16
4 21 -4 17 -7 -4 -9 -1 -5 8 3 8 12 17 20 20 8 3 12 2 9 -4 -11 -17 37 -6 59
15 32 29 53 29 60 2 7 -30 97 -124 131 -137 68 -26 148 1 195 65 21 29 70 59
54 34 -7 -12 9 -12 22 0 5 6 9 -10 9 -44 0 -40 -5 -58 -20 -72 -25 -23 -35
-53 -10 -33 13 11 22 9 59 -11 25 -13 42 -27 39 -33 -3 -5 -1 -6 5 -2 6 3 13
2 17 -4 10 -16 25 -12 25 8 0 14 2 15 10 2 5 -8 10 -12 12 -10 19 30 27 50 18
50 -5 0 -10 4 -10 8 0 5 23 8 50 7 28 -1 50 1 50 5 0 11 37 19 47 10 14 -15
68 -16 65 -2 -2 10 2 10 17 2 28 -15 35 -12 17 6 -9 8 -16 22 -16 30 0 8 -7
14 -15 14 -8 0 -15 5 -15 10 0 7 16 9 39 6 28 -3 41 -1 45 9 3 10 0 12 -11 8
-10 -4 -14 -2 -9 5 3 6 2 13 -3 17 -6 3 -8 12 -4 20 3 10 -1 15 -12 15 -9 0
-13 5 -10 10 3 6 -2 10 -12 11 -11 0 -13 3 -5 6 6 2 9 10 6 16 -5 8 -2 8 7 0
21 -21 34 -15 14 7 -10 11 -22 17 -26 14 -5 -3 -9 2 -9 12 0 13 -3 14 -15 4
-13 -11 -15 -8 -15 19 0 31 -7 36 -50 33 -8 0 -18 4 -21 10 -4 6 -18 12 -31
14 -42 4 -43 5 -23 13 17 7 17 8 -8 13 -15 3 -27 1 -27 -3 0 -5 -5 -9 -11 -9
-5 0 -8 4 -5 8 3 5 -9 9 -25 9 -17 0 -34 4 -37 10 -9 12 -54 24 -46 12 3 -5 1
-9 -5 -9 -5 0 -12 4 -16 10 -3 5 -12 7 -19 4 -8 -3 -17 -1 -20 5 -4 6 -13 8
-21 4 -8 -3 -15 0 -15 6 0 6 -15 11 -32 11 -18 1 -51 1 -73 1 -25 0 -34 3 -26
8 11 7 11 10 0 15 -8 3 -2 4 13 2 16 -2 36 3 45 10 25 19 44 17 36 -2 -5 -13
-2 -14 13 -6 10 6 32 13 47 17 18 4 25 10 20 18 -5 9 -3 9 8 2 8 -6 53 -10
101 -10 49 0 88 -2 88 -4 0 -3 -7 -13 -17 -23 -10 -11 -12 -18 -4 -18 6 0 17
11 23 25 7 16 19 25 35 25 22 0 34 -19 13 -21 -5 -1 -14 -3 -20 -4 -5 -1 -13
-3 -16 -4 -4 0 -1 -7 6 -15 10 -13 16 -12 47 5 24 14 39 17 47 10 11 -9 82 -7
134 4 12 3 22 1 22 -5 0 -5 -5 -10 -11 -10 -5 0 -7 -5 -3 -11 3 -6 9 -7 13 -2
5 8 16 9 46 5 18 -3 15 -42 -3 -43 -50 -3 -70 -7 -87 -17 -19 -11 -18 -11 7
-12 15 0 38 4 53 10 48 18 157 32 169 20 7 -7 4 -10 -10 -10 -11 0 -29 -7 -40
-15 -23 -17 -15 -19 21 -5 15 6 32 7 38 3 7 -4 3 -9 -9 -14 -17 -7 -17 -8 -1
-8 10 -1 20 6 24 15 4 11 13 14 32 9 25 -6 25 -5 6 8 -11 7 -39 22 -62 33 -31
14 -41 24 -37 36 7 25 -41 52 -95 54 -72 3 -73 3 -66 15 4 6 13 8 20 6 6 -3
19 3 28 13 14 17 13 18 -31 24 -26 3 -63 8 -82 11 -19 3 -53 5 -75 5 -41 -1
-41 14 0 22 16 3 15 5 -7 10 -15 3 -25 1 -22 -3 7 -12 -18 -11 -91 2 -96 17
-117 18 -111 2 3 -7 -1 -13 -9 -13 -7 0 -17 -5 -21 -12 -5 -7 -2 -9 9 -5 9 3
17 1 20 -6 2 -7 25 -12 57 -12 75 0 72 -18 -5 -33 -97 -18 -148 -16 -170 8
-18 20 -17 20 13 20 42 0 51 18 9 19 -49 1 -73 7 -67 17 3 5 29 8 58 7 28 -1
52 2 52 7 0 6 -9 10 -21 10 -11 0 -29 4 -39 10 -26 14 -117 19 -170 11z m324
-46 c3 -8 1 -15 -4 -15 -6 0 -10 7 -10 15 0 8 2 15 4 15 2 0 6 -7 10 -15z
m-857 -42 c-9 -9 -19 -14 -22 -11 -3 3 2 13 11 22 9 9 19 14 22 11 3 -3 -2
-13 -11 -22z m1050 -39 c-3 -3 -12 -4 -19 -1 -8 3 -5 6 6 6 11 1 17 -2 13 -5z
m-1192 -52 c-3 -3 -11 0 -18 7 -9 10 -8 11 6 5 10 -3 15 -9 12 -12z m1432 -8
c-3 -3 -12 -4 -19 -1 -8 3 -5 6 6 6 11 1 17 -2 13 -5z m-1427 -154 c0 -5 -4
-10 -10 -10 -5 0 -10 5 -10 10 0 6 5 10 10 10 6 0 10 -4 10 -10z m720 -82 c0
-5 -4 -8 -10 -8 -5 0 -10 10 -10 23 0 18 2 19 10 7 5 -8 10 -18 10 -22z m458
-83 c-3 -3 -9 2 -12 12 -6 14 -5 15 5 6 7 -7 10 -15 7 -18z m-928 -21 c0 -8
-4 -12 -10 -9 -5 3 -10 10 -10 16 0 5 5 9 10 9 6 0 10 -7 10 -16z m670 -15 c0
-6 -4 -7 -10 -4 -5 3 -10 11 -10 16 0 6 5 7 10 4 6 -3 10 -11 10 -16z m20 -69
c0 -5 -7 -7 -15 -4 -8 4 -15 8 -15 10 0 2 7 4 15 4 8 0 15 -4 15 -10z m40 -31
c0 -4 -7 -6 -15 -3 -8 4 -15 10 -15 15 0 4 7 6 15 3 8 -4 15 -10 15 -15z
m-562 -171 c-2 -6 -10 -14 -16 -16 -7 -2 -10 2 -6 12 7 18 28 22 22 4z m4 -80
c-7 -7 -12 -8 -12 -2 0 14 12 26 19 19 2 -3 -1 -11 -7 -17z"/>
<path d="M4260 6110 c0 -5 5 -10 10 -10 6 0 10 5 10 10 0 6 -4 10 -10 10 -5 0
-10 -4 -10 -10z"/>
<path d="M5846 6002 c-2 -4 4 -8 14 -8 10 0 16 4 14 8 -3 4 -9 8 -14 8 -5 0
-11 -4 -14 -8z"/>
<path d="M5748 5983 c7 -3 16 -2 19 1 4 3 -2 6 -13 5 -11 0 -14 -3 -6 -6z"/>
<path d="M5890 5978 c0 -4 6 -8 14 -8 8 0 17 4 20 8 2 4 -4 8 -15 8 -10 0 -19
-4 -19 -8z"/>
<path d="M6129 5963 c-13 -16 -12 -17 4 -4 9 7 17 15 17 17 0 8 -8 3 -21 -13z"/>
<path d="M6268 5943 c6 -2 18 -2 25 0 6 3 1 5 -13 5 -14 0 -19 -2 -12 -5z"/>
<path d="M6205 5880 c-3 -5 -1 -10 4 -10 6 0 11 5 11 10 0 6 -2 10 -4 10 -3 0
-8 -4 -11 -10z"/>
<path d="M6445 5880 c3 -5 8 -10 11 -10 2 0 4 5 4 10 0 6 -5 10 -11 10 -5 0
-7 -4 -4 -10z"/>
<path d="M7580 5873 c-86 -6 -119 -25 -162 -95 -16 -24 -16 -26 0 -23 9 1 16
9 14 17 -1 10 6 16 21 16 21 0 25 -7 35 -62 6 -33 14 -92 18 -131 4 -38 8 -77
9 -84 3 -22 23 -25 29 -4 2 10 3 -8 2 -39 -3 -53 -2 -56 15 -45 11 7 19 14 19
17 0 3 10 21 22 40 28 45 28 45 32 175 2 61 7 127 11 147 6 29 4 39 -8 44 -9
3 -13 12 -10 20 3 8 4 13 2 12 -2 -1 -24 -3 -49 -5z"/>
<path d="M7357 5713 c-4 -3 -7 -11 -7 -17 0 -6 5 -5 12 2 6 6 9 14 7 17 -3 3
-9 2 -12 -2z"/>
<path d="M6270 5620 c6 -11 15 -18 21 -15 5 4 3 12 -5 21 -21 20 -28 17 -16
-6z"/>
<path d="M5866 5542 c6 -4 13 -15 17 -24 7 -21 23 -23 33 -6 4 6 3 8 -3 5 -6
-4 -13 2 -16 13 -3 11 -13 20 -24 20 -11 0 -14 -3 -7 -8z"/>
<path d="M5802 5513 c8 -10 6 -13 -5 -13 -14 0 -14 -3 -1 -30 9 -16 21 -30 27
-30 7 0 6 4 -3 10 -11 7 -7 10 17 10 59 0 65 9 29 40 -33 29 -86 40 -64 13z
m28 -33 c0 -5 -2 -10 -4 -10 -3 0 -8 5 -11 10 -3 6 -1 10 4 10 6 0 11 -4 11
-10z"/>
<path d="M5460 5321 c0 -5 5 -13 10 -16 6 -3 10 -2 10 4 0 5 -4 13 -10 16 -5
3 -10 2 -10 -4z"/>
<path d="M5445 5281 c-6 -11 13 -26 22 -17 4 3 1 6 -6 6 -7 0 -9 5 -6 10 3 6
4 10 1 10 -3 0 -7 -4 -11 -9z"/>
<path d="M7163 5087 c-39 -42 -67 -117 -45 -117 14 0 50 38 57 60 4 11 10 18
14 15 9 -5 9 50 0 59 -3 3 -15 -4 -26 -17z"/>
<path d="M7070 5071 c0 -6 4 -13 10 -16 6 -3 7 1 4 9 -7 18 -14 21 -14 7z"/>
<path d="M6971 5047 c-8 -10 -7 -14 4 -14 8 0 15 6 15 14 0 7 -2 13 -4 13 -2
0 -9 -6 -15 -13z"/>
<path d="M6950 5015 c0 -6 6 -17 12 -23 10 -10 10 -15 -2 -23 -12 -9 -12 -10
-1 -7 21 6 23 21 6 43 -8 11 -15 15 -15 10z"/>
<path d="M6980 5009 c0 -5 5 -7 10 -4 6 3 10 8 10 11 0 2 -4 4 -10 4 -5 0 -10
-5 -10 -11z"/>
<path d="M7013 4995 c4 -5 -1 -17 -10 -28 -18 -19 -17 -19 5 -6 25 16 28 25
10 35 -7 4 -10 3 -5 -1z"/>
<path d="M4313 4868 c-2 -18 0 -20 7 -8 12 18 13 30 2 30 -4 0 -9 -10 -9 -22z"/>
<path d="M7010 4700 c0 -5 5 -10 10 -10 6 0 10 5 10 10 0 6 -4 10 -10 10 -5 0
-10 -4 -10 -10z"/>
<path d="M6755 4640 c-3 -5 -1 -10 4 -10 6 0 11 5 11 10 0 6 -2 10 -4 10 -3 0
-8 -4 -11 -10z"/>
<path d="M5198 4600 c-2 -16 -1 -27 4 -24 4 3 8 1 8 -5 0 -5 -6 -12 -12 -14
-8 -3 -8 -6 -2 -6 6 -1 19 9 30 21 18 21 18 21 0 15 -15 -6 -17 -3 -13 13 3
11 2 22 -3 25 -4 3 -10 -8 -12 -25z"/>
<path d="M6710 4616 c0 -2 7 -6 15 -10 8 -3 15 -1 15 4 0 6 -7 10 -15 10 -8 0
-15 -2 -15 -4z"/>
<path d="M7020 4610 c0 -5 5 -10 10 -10 6 0 10 5 10 10 0 6 -4 10 -10 10 -5 0
-10 -4 -10 -10z"/>
<path d="M5170 4526 c0 -9 30 -14 35 -6 4 6 -3 10 -14 10 -12 0 -21 -2 -21 -4z"/>
<path d="M6917 4065 c-4 -8 -2 -17 3 -20 6 -4 10 3 10 14 0 25 -6 27 -13 6z"/>
<path d="M4555 4030 c-3 -5 -1 -10 4 -10 6 0 11 5 11 10 0 6 -2 10 -4 10 -3 0
-8 -4 -11 -10z"/>
<path d="M5615 4020 c-3 -5 -1 -10 4 -10 6 0 11 5 11 10 0 6 -2 10 -4 10 -3 0
-8 -4 -11 -10z"/>
<path d="M5650 3979 c-12 -9 -10 -10 8 -6 18 4 22 2 18 -9 -3 -8 -1 -14 3 -14
5 0 18 -3 28 -7 14 -5 12 -1 -7 20 -28 30 -30 31 -50 16z"/>
<path d="M5755 3919 c-4 -6 -5 -12 -2 -15 2 -3 7 2 10 11 7 17 1 20 -8 4z"/>
<path d="M5741 3874 c0 -11 3 -14 6 -6 3 7 2 16 -1 19 -3 4 -6 -2 -5 -13z"/>
<path d="M5770 3879 c0 -5 5 -7 10 -4 6 3 10 8 10 11 0 2 -4 4 -10 4 -5 0 -10
-5 -10 -11z"/>
<path d="M5754 3785 c1 -38 10 -35 20 8 5 19 3 27 -7 27 -9 0 -13 -12 -13 -35z"/>
<path d="M6846 3605 c-9 -26 -7 -32 5 -12 6 10 9 21 6 23 -2 3 -7 -2 -11 -11z"/>
<path d="M5067 3574 c-4 -4 -7 -14 -7 -23 0 -13 2 -13 9 -2 5 8 14 10 21 6 8
-5 11 -3 8 5 -5 16 -22 23 -31 14z"/>
<path d="M7138 3358 c124 -241 159 -326 191 -464 26 -111 68 -406 76 -539 4
-55 16 -143 26 -195 37 -181 42 -223 35 -350 -3 -69 -17 -180 -30 -247 -45
-222 -220 -791 -362 -1173 -36 -96 -70 -188 -76 -205 -19 -50 -69 -149 -86
-167 -14 -17 65 -18 1656 -18 l1672 0 0 758 0 758 -92 39 c-51 21 -228 100
-393 176 -165 75 -329 149 -365 164 -337 141 -573 244 -905 397 -490 226 -522
243 -554 281 -14 18 -62 70 -107 117 -143 150 -331 370 -564 659 -108 134
-204 231 -230 231 -4 0 44 -100 108 -222z"/>
<path d="M4883 3563 c4 -6 2 -13 -4 -15 -7 -2 -6 -8 4 -16 12 -10 16 -10 20 2
3 8 -2 20 -11 28 -9 8 -13 8 -9 1z"/>
<path d="M4873 3500 c13 -33 24 -40 22 -12 -1 22 -13 42 -25 42 -4 0 -3 -13 3
-30z"/>
<path d="M6916 3465 c-3 -8 -1 -15 4 -15 6 0 10 7 10 15 0 8 -2 15 -4 15 -2 0
-6 -7 -10 -15z"/>
<path d="M6907 3397 c-4 -10 -7 -28 -6 -40 0 -21 1 -21 10 2 5 14 8 32 7 40
-3 13 -5 13 -11 -2z"/>
<path d="M6886 3315 c-3 -9 -6 -22 -5 -28 0 -7 5 -1 10 12 5 13 8 26 5 28 -2
2 -6 -3 -10 -12z"/>
<path d="M4791 3244 c0 -11 3 -14 6 -6 3 7 2 16 -1 19 -3 4 -6 -2 -5 -13z"/>
<path d="M4710 3200 c0 -5 5 -10 11 -10 5 0 7 5 4 10 -3 6 -8 10 -11 10 -2 0
-4 -4 -4 -10z"/>
<path d="M4800 3150 c0 -5 5 -10 10 -10 6 0 10 5 10 10 0 6 -4 10 -10 10 -5 0
-10 -4 -10 -10z"/>
<path d="M6175 3140 c-3 -5 -1 -10 4 -10 6 0 11 5 11 10 0 6 -2 10 -4 10 -3 0
-8 -4 -11 -10z"/>
<path d="M4285 3110 c-3 -5 -1 -10 4 -10 6 0 11 5 11 10 0 6 -2 10 -4 10 -3 0
-8 -4 -11 -10z"/>
<path d="M4660 3109 c0 -5 5 -7 10 -4 6 3 10 8 10 11 0 2 -4 4 -10 4 -5 0 -10
-5 -10 -11z"/>
<path d="M6796 3035 c-9 -26 -7 -32 5 -12 6 10 9 21 6 23 -2 3 -7 -2 -11 -11z"/>
<path d="M6703 2868 c-22 -35 -61 -101 -88 -148 -26 -47 -67 -110 -90 -140
-23 -30 -63 -86 -90 -124 -26 -38 -55 -76 -64 -86 -51 -55 -81 -92 -81 -100 0
-6 -4 -10 -10 -10 -5 0 -10 -7 -10 -15 0 -8 -7 -15 -15 -15 -8 0 -21 -15 -29
-33 -7 -18 -41 -62 -75 -97 -33 -35 -61 -68 -61 -73 0 -4 -4 -6 -9 -3 -5 3
-11 -1 -15 -9 -3 -8 -12 -15 -21 -15 -8 0 -15 -7 -15 -15 0 -9 -11 -21 -25
-27 -14 -6 -25 -19 -25 -28 0 -24 -26 -45 -34 -28 -3 7 -3 2 0 -11 5 -20 3
-23 -11 -17 -12 4 -16 2 -12 -8 3 -8 -2 -16 -13 -19 -14 -4 -17 -11 -13 -27 4
-15 2 -21 -4 -17 -6 4 -10 -1 -9 -11 1 -12 -6 -17 -24 -17 -23 0 -25 -3 -22
-31 3 -24 -2 -34 -22 -47 -14 -10 -26 -14 -26 -10 0 5 -5 0 -11 -10 -5 -9 -7
-22 -4 -27 3 -6 0 -10 -8 -10 -18 0 -33 -33 -18 -38 6 -2 8 -8 5 -13 -3 -6
-11 -5 -20 2 -11 9 -14 8 -14 -5 0 -10 4 -15 9 -12 11 7 36 -22 27 -31 -3 -3
-6 -1 -6 5 0 7 -5 12 -11 12 -6 0 -9 -9 -6 -19 3 -14 0 -20 -12 -20 -44 0 -83
-22 -62 -35 6 -4 11 0 11 11 0 15 2 16 10 3 6 -10 10 -11 10 -2 0 6 7 12 16
12 14 0 14 -3 4 -15 -11 -13 -10 -14 4 -9 23 9 20 -5 -6 -27 -11 -11 -16 -19
-10 -19 7 0 9 -7 5 -17 -4 -10 -2 -14 4 -10 6 4 22 3 35 -2 12 -6 17 -11 11
-12 -7 -1 -17 -2 -22 -3 -5 0 -13 -4 -17 -8 -4 -4 -18 -5 -30 -2 -26 7 -30 0
-12 -20 13 -14 59 -9 70 7 3 6 20 10 36 10 27 0 35 8 70 71 109 198 138 248
189 323 31 46 84 111 118 146 44 45 77 91 108 153 25 49 64 112 88 139 23 28
71 111 107 185 36 74 79 158 97 185 18 28 55 88 82 135 105 176 153 286 66
148z m-833 -1138 c0 -5 -5 -10 -11 -10 -5 0 -7 5 -4 10 3 6 8 10 11 10 2 0 4
-4 4 -10z m-60 -70 c0 -5 -4 -10 -10 -10 -5 0 -10 5 -10 10 0 6 5 10 10 10 6
0 10 -4 10 -10z m-65 -228 c-3 -3 -11 0 -18 7 -9 10 -8 11 6 5 10 -3 15 -9 12
-12z m59 -15 c3 4 6 1 6 -5 0 -7 -3 -12 -7 -12 -15 1 -43 28 -43 41 1 9 7 6
19 -8 10 -12 21 -19 25 -16z"/>
<path d="M4160 2830 c20 -13 33 -13 25 0 -3 6 -14 10 -23 10 -15 0 -15 -2 -2
-10z"/>
<path d="M5444 2791 c4 -6 2 -11 -4 -11 -6 0 -8 -5 -4 -11 5 -8 9 -8 14 1 5 9
9 9 14 1 4 -6 12 -11 17 -11 15 0 1 18 -23 31 -15 8 -19 8 -14 0z"/>
<path d="M5810 2790 c0 -5 5 -10 11 -10 5 0 7 5 4 10 -3 6 -8 10 -11 10 -2 0
-4 -4 -4 -10z"/>
<path d="M5730 2777 c14 -8 27 -12 30 -10 7 6 -23 23 -40 23 -8 0 -4 -6 10
-13z"/>
<path d="M5582 2769 c10 -5 15 -17 12 -27 -5 -14 -4 -14 4 -2 12 16 -2 40 -22
40 -6 0 -3 -5 6 -11z"/>
<path d="M5787 2711 c-10 -11 -8 -13 13 -6 45 13 56 23 26 22 -15 -1 -33 -8
-39 -16z"/>
<path d="M5700 2700 c0 -13 5 -20 13 -17 6 2 12 10 12 17 0 7 -6 15 -12 18 -8
2 -13 -5 -13 -18z"/>
<path d="M5637 2690 c3 -11 9 -20 14 -20 5 0 9 9 9 20 0 11 -6 20 -14 20 -9 0
-12 -7 -9 -20z"/>
<path d="M5675 2700 c-3 -5 -1 -10 4 -10 6 0 11 5 11 10 0 6 -2 10 -4 10 -3 0
-8 -4 -11 -10z"/>
<path d="M5290 2685 c-10 -12 -10 -15 4 -15 9 0 16 7 16 15 0 8 -2 15 -4 15
-2 0 -9 -7 -16 -15z"/>
<path d="M4582 2644 c-14 -16 -5 -18 17 -5 7 5 9 11 5 14 -5 3 -15 -1 -22 -9z"/>
<path d="M5726 2641 c-4 -5 0 -12 6 -15 10 -5 10 -7 1 -12 -7 -3 -13 -10 -13
-16 0 -17 27 10 33 32 5 20 -16 29 -27 11z"/>
<path d="M5686 2595 c4 -8 8 -15 10 -15 2 0 4 7 4 15 0 8 -4 15 -10 15 -5 0
-7 -7 -4 -15z"/>
<path d="M5746 2575 c-3 -8 -1 -15 3 -15 5 0 11 7 15 15 3 8 1 15 -3 15 -5 0
-11 -7 -15 -15z"/>
<path d="M5590 2500 c-8 -5 -10 -10 -5 -10 6 0 17 5 25 10 8 5 11 10 5 10 -5
0 -17 -5 -25 -10z"/>
<path d="M5559 2447 c12 -15 10 -17 -15 -18 -29 0 -29 0 -6 -12 19 -8 25 -8
33 4 11 18 7 31 -12 38 -12 4 -12 2 0 -12z"/>
<path d="M5485 2379 c-4 -6 -5 -12 -2 -15 2 -3 7 2 10 11 7 17 1 20 -8 4z"/>
<path d="M5495 2350 c-3 -5 -1 -10 4 -10 6 0 11 5 11 10 0 6 -2 10 -4 10 -3 0
-8 -4 -11 -10z"/>
<path d="M5435 2331 c-3 -5 -2 -12 3 -15 5 -3 9 1 9 9 0 17 -3 19 -12 6z"/>
<path d="M5470 2289 c0 -5 5 -7 10 -4 6 3 10 8 10 11 0 2 -4 4 -10 4 -5 0 -10
-5 -10 -11z"/>
<path d="M5276 2261 c-4 -7 -5 -15 -2 -18 9 -9 19 4 14 18 -4 11 -6 11 -12 0z"/>
<path d="M5377 2244 c-8 -8 1 -24 14 -24 5 0 9 7 9 15 0 15 -12 20 -23 9z"/>
<path d="M5248 2223 c7 -3 16 -2 19 1 4 3 -2 6 -13 5 -11 0 -14 -3 -6 -6z"/>
<path d="M5320 2209 c0 -5 5 -7 10 -4 6 3 10 8 10 11 0 2 -4 4 -10 4 -5 0 -10
-5 -10 -11z"/>
<path d="M5510 2200 c0 -5 5 -10 11 -10 5 0 7 5 4 10 -3 6 -8 10 -11 10 -2 0
-4 -4 -4 -10z"/>
<path d="M5280 2160 c0 -5 5 -10 11 -10 5 0 7 5 4 10 -3 6 -8 10 -11 10 -2 0
-4 -4 -4 -10z"/>
<path d="M4370 2156 c0 -2 7 -7 16 -10 8 -3 12 -2 9 4 -6 10 -25 14 -25 6z"/>
<path d="M5100 2139 c0 -5 5 -7 10 -4 6 3 10 8 10 11 0 2 -4 4 -10 4 -5 0 -10
-5 -10 -11z"/>
<path d="M5310 2140 c0 -5 5 -10 10 -10 6 0 10 5 10 10 0 6 -4 10 -10 10 -5 0
-10 -4 -10 -10z"/>
<path d="M5015 2131 c-3 -5 -1 -12 5 -16 5 -3 10 1 10 9 0 18 -6 21 -15 7z"/>
<path d="M4430 2121 c0 -5 7 -14 15 -21 16 -14 18 -10 9 14 -6 17 -24 22 -24
7z"/>
<path d="M4807 2109 c-3 -12 -3 -18 0 -15 3 3 14 -5 23 -17 10 -12 22 -18 27
-14 4 5 0 13 -10 18 -9 6 -17 16 -17 24 0 23 -17 26 -23 4z"/>
<path d="M5070 2110 c0 -5 5 -10 10 -10 6 0 10 5 10 10 0 6 -4 10 -10 10 -5 0
-10 -4 -10 -10z"/>
<path d="M5415 2110 c3 -5 8 -10 11 -10 2 0 4 5 4 10 0 6 -5 10 -11 10 -5 0
-7 -4 -4 -10z"/>
<path d="M4935 2060 c3 -5 8 -10 11 -10 2 0 4 5 4 10 0 6 -5 10 -11 10 -5 0
-7 -4 -4 -10z"/>
<path d="M4830 2031 c0 -6 -13 -25 -30 -43 -16 -17 -30 -35 -30 -40 0 -15 48
25 53 45 3 9 13 17 22 17 9 0 15 5 13 12 -6 16 -28 23 -28 9z"/>
<path d="M4865 1980 c-6 -10 1 -14 19 -11 5 1 6 -5 3 -12 -4 -11 0 -13 14 -10
21 6 17 18 -11 33 -13 7 -21 7 -25 0z"/>
<path d="M4720 1940 c-8 -5 -11 -12 -7 -16 4 -4 13 -2 19 4 15 15 7 24 -12 12z"/>
<path d="M4811 1934 c0 -11 3 -14 6 -6 3 7 2 16 -1 19 -3 4 -6 -2 -5 -13z"/>
<path d="M4331 1904 c0 -11 3 -14 6 -6 3 7 2 16 -1 19 -3 4 -6 -2 -5 -13z"/>
<path d="M4765 1890 c3 -5 8 -10 11 -10 2 0 4 5 4 10 0 6 -5 10 -11 10 -5 0
-7 -4 -4 -10z"/>
<path d="M4350 1820 c0 -5 5 -10 10 -10 6 0 10 5 10 10 0 6 -4 10 -10 10 -5 0
-10 -4 -10 -10z"/>
<path d="M5639 1523 c-13 -16 -12 -17 4 -4 9 7 17 15 17 17 0 8 -8 3 -21 -13z"/>
<path d="M5620 1451 c0 -6 4 -13 10 -16 6 -3 7 1 4 9 -7 18 -14 21 -14 7z"/>
<path d="M5630 1372 c0 -11 5 -24 10 -27 6 -4 9 2 7 14 -4 29 -17 39 -17 13z"/>
<path d="M5586 1344 c-11 -28 -6 -39 9 -20 8 11 15 23 15 28 0 14 -18 9 -24
-8z"/>
<path d="M3781 1074 c-18 -8 -37 -12 -41 -9 -15 9 -125 -109 -152 -162 -15
-29 -23 -53 -17 -53 5 0 9 5 9 10 0 6 5 10 11 10 5 0 7 -4 4 -10 -3 -5 1 -23
10 -41 15 -27 18 -29 29 -14 11 16 60 15 75 -1 3 -4 -1 -5 -10 -2 -24 9 -39
-5 -23 -20 11 -10 14 -10 14 0 1 8 6 5 15 -6 8 -11 12 -29 9 -43 -4 -14 -2
-23 6 -23 6 0 8 5 5 10 -9 14 8 13 23 -2 9 -9 12 -9 12 1 0 7 7 19 15 27 8 9
18 27 21 42 3 15 8 34 11 42 4 8 5 19 4 23 -1 5 9 21 22 36 l23 28 25 -21 c14
-12 23 -30 22 -41 -3 -17 -1 -16 7 3 6 15 14 21 22 16 8 -5 6 2 -3 16 -10 15
-25 24 -35 22 -16 -2 -16 -1 -4 7 12 9 12 13 -5 33 -25 29 -55 82 -64 113 -6
22 -7 23 -40 9z m-141 -244 c0 -5 -4 -10 -10 -10 -5 0 -10 5 -10 10 0 6 5 10
10 10 6 0 10 -4 10 -10z"/>
<path d="M4415 971 c-3 -5 -1 -12 5 -16 5 -3 10 1 10 9 0 18 -6 21 -15 7z"/>
<path d="M6107 926 c-10 -25 -9 -28 5 -20 8 5 9 2 4 -11 -5 -15 -4 -16 9 -5 9
7 12 16 7 19 -5 3 -11 13 -14 20 -3 12 -6 11 -11 -3z"/>
<path d="M6141 921 c11 -16 11 -23 1 -33 -6 -6 -12 -17 -12 -22 0 -6 5 -4 10
4 8 13 10 12 11 -5 1 -11 1 -26 0 -33 -1 -7 5 -15 14 -18 8 -3 15 -12 15 -20
0 -8 5 -14 10 -14 6 0 10 9 10 20 0 11 4 20 10 20 5 0 7 -7 4 -15 -7 -18 17
-20 35 -2 8 6 11 7 8 2 -3 -6 3 -11 14 -11 15 0 6 14 -38 58 -38 38 -59 54
-64 46 -9 -15 -2 -28 15 -28 8 0 18 -6 24 -13 8 -10 6 -16 -9 -26 -12 -7 -24
-9 -27 -5 -4 4 -1 9 6 11 17 6 15 23 -3 23 -8 0 -15 6 -16 13 -1 6 -2 23 -2
36 -1 13 -8 26 -15 29 -11 3 -11 1 -1 -17z"/>
<path d="M3842 888 c-16 -16 -15 -39 2 -60 20 -27 29 -21 10 7 -15 23 -12 45
6 45 5 0 7 -7 4 -15 -4 -8 -2 -15 4 -15 15 0 22 26 9 39 -14 14 -20 14 -35 -1z"/>
<path d="M4405 890 c3 -5 8 -10 11 -10 2 0 4 5 4 10 0 6 -5 10 -11 10 -5 0 -7
-4 -4 -10z"/>
<path d="M3820 820 c0 -5 5 -10 11 -10 5 0 7 5 4 10 -3 6 -8 10 -11 10 -2 0
-4 -4 -4 -10z"/>
<path d="M6218 773 c7 -3 16 -2 19 1 4 3 -2 6 -13 5 -11 0 -14 -3 -6 -6z"/>
<path d="M6241 759 c-13 -11 -21 -23 -17 -27 4 -4 12 1 17 11 6 9 19 17 30 17
11 0 17 5 14 10 -9 14 -17 12 -44 -11z"/>
<path d="M6320 748 c11 -12 20 -26 20 -32 0 -5 3 -7 6 -4 7 8 -25 58 -38 58
-5 0 0 -10 12 -22z"/>
<path d="M3690 750 c0 -5 5 -10 10 -10 6 0 10 5 10 10 0 6 -4 10 -10 10 -5 0
-10 -4 -10 -10z"/>
<path d="M6292 734 c-7 -8 -8 -14 -2 -14 5 0 10 -7 10 -15 0 -8 4 -15 9 -15
15 0 19 25 7 42 -9 13 -13 13 -24 2z"/>
<path d="M6353 703 c-20 -7 -15 -23 5 -17 14 5 14 3 -2 -10 -18 -14 -18 -16
-3 -16 16 0 16 -3 3 -34 -13 -31 -13 -36 5 -55 18 -19 17 -26 -4 -22 -4 1 -3
-7 2 -17 7 -13 7 -22 0 -29 -8 -8 -7 -18 1 -33 11 -20 10 -22 -4 -17 -20 8
-21 -7 -1 -23 12 -10 13 -15 4 -21 -7 -4 -13 -22 -15 -41 -4 -49 -12 -97 -19
-108 -17 -27 -45 -156 -45 -205 l0 -55 260 0 c143 0 260 2 260 5 0 11 -181
348 -230 426 -71 116 -159 231 -170 224 -6 -4 -7 1 -3 11 4 12 3 15 -5 10 -7
-4 -12 -1 -12 8 0 18 -10 25 -27 19z m22 -103 c3 -5 1 -10 -4 -10 -6 0 -11 5
-11 10 0 6 2 10 4 10 3 0 8 -4 11 -10z"/>
<path d="M4660 689 c0 -5 5 -7 12 -3 8 5 9 1 4 -12 -5 -14 -4 -16 5 -7 6 6 8
16 5 22 -9 14 -26 14 -26 0z"/>
<path d="M3275 279 c-4 -6 -5 -12 -2 -15 2 -3 7 2 10 11 7 17 1 20 -8 4z"/>
<path d="M3225 136 c-4 -20 -11 -39 -16 -42 -12 -7 -12 -24 0 -24 10 0 36 88
28 96 -3 3 -9 -10 -12 -30z"/>
<path d="M3180 56 c0 -2 7 -6 15 -10 8 -3 15 -1 15 4 0 6 -7 10 -15 10 -8 0
-15 -2 -15 -4z"/>
</g>
</svg>
