<svg width="296" height="415" viewBox="0 0 296 415" fill="none" xmlns="http://www.w3.org/2000/svg">
<rect x="1" width="295" height="230" fill="#6AA2DB"/>
<g clip-path="url(#clip0)">
<circle cx="269.011" cy="218.406" r="7.73608" transform="rotate(180 269.011 218.406)" fill="#D46918"/>
<circle cx="269.011" cy="250.183" r="7.73608" transform="rotate(180 269.011 250.183)" fill="#D46918"/>
<circle cx="269.011" cy="313.74" r="7.73608" transform="rotate(180 269.011 313.74)" fill="#D46918"/>
<circle cx="269.011" cy="281.962" r="7.73608" transform="rotate(180 269.011 281.962)" fill="#D46918"/>
<circle cx="269.011" cy="345.519" r="7.73608" transform="rotate(180 269.011 345.519)" fill="#D46918"/>
<circle cx="269.011" cy="186.628" r="7.73608" transform="rotate(180 269.011 186.628)" fill="#D46918"/>
<circle cx="269.011" cy="154.849" r="7.73608" transform="rotate(180 269.011 154.849)" fill="#D46918"/>
<circle opacity="0.8" cx="269.011" cy="123.071" r="7.73608" transform="rotate(180 269.011 123.071)" fill="#D46918"/>
<circle opacity="0.6" cx="269.011" cy="91.2927" r="7.73608" transform="rotate(180 269.011 91.2927)" fill="#D46918"/>
<circle opacity="0.4" cx="269.011" cy="59.5144" r="7.73608" transform="rotate(180 269.011 59.5144)" fill="#D46918"/>
<circle opacity="0.2" cx="269.011" cy="27.7361" r="7.73608" transform="rotate(180 269.011 27.7361)" fill="#D46918"/>
<circle cx="238.758" cy="218.406" r="7.73608" transform="rotate(180 238.758 218.406)" fill="#D46918"/>
<circle cx="238.758" cy="250.183" r="7.73608" transform="rotate(180 238.758 250.183)" fill="#D46918"/>
<circle cx="238.758" cy="313.74" r="7.73608" transform="rotate(180 238.758 313.74)" fill="#D46918"/>
<circle cx="238.758" cy="281.962" r="7.73608" transform="rotate(180 238.758 281.962)" fill="#D46918"/>
<circle cx="238.758" cy="345.519" r="7.73608" transform="rotate(180 238.758 345.519)" fill="#D46918"/>
<circle cx="238.758" cy="186.628" r="7.73608" transform="rotate(180 238.758 186.628)" fill="#D46918"/>
<circle cx="238.758" cy="154.849" r="7.73608" transform="rotate(180 238.758 154.849)" fill="#D46918"/>
<circle opacity="0.8" cx="238.758" cy="123.071" r="7.73608" transform="rotate(180 238.758 123.071)" fill="#D46918"/>
<circle opacity="0.6" cx="238.758" cy="91.2927" r="7.73608" transform="rotate(180 238.758 91.2927)" fill="#D46918"/>
<circle opacity="0.4" cx="238.758" cy="59.5144" r="7.73608" transform="rotate(180 238.758 59.5144)" fill="#D46918"/>
<circle opacity="0.2" cx="238.758" cy="27.7361" r="7.73608" transform="rotate(180 238.758 27.7361)" fill="#D46918"/>
<circle cx="208.505" cy="218.406" r="7.73608" transform="rotate(180 208.505 218.406)" fill="#D46918"/>
<circle cx="208.505" cy="250.183" r="7.73608" transform="rotate(180 208.505 250.183)" fill="#D46918"/>
<circle cx="208.505" cy="313.74" r="7.73608" transform="rotate(180 208.505 313.74)" fill="#D46918"/>
<circle cx="208.505" cy="281.962" r="7.73608" transform="rotate(180 208.505 281.962)" fill="#D46918"/>
<circle cx="208.505" cy="345.519" r="7.73608" transform="rotate(180 208.505 345.519)" fill="#D46918"/>
<circle cx="208.505" cy="186.628" r="7.73608" transform="rotate(180 208.505 186.628)" fill="#D46918"/>
<circle cx="208.505" cy="154.849" r="7.73608" transform="rotate(180 208.505 154.849)" fill="#D46918"/>
<circle opacity="0.8" cx="208.505" cy="123.071" r="7.73608" transform="rotate(180 208.505 123.071)" fill="#D46918"/>
<circle opacity="0.6" cx="208.505" cy="91.2927" r="7.73608" transform="rotate(180 208.505 91.2927)" fill="#D46918"/>
<circle opacity="0.4" cx="208.505" cy="59.5144" r="7.73608" transform="rotate(180 208.505 59.5144)" fill="#D46918"/>
<circle opacity="0.2" cx="208.505" cy="27.7361" r="7.73608" transform="rotate(180 208.505 27.7361)" fill="#D46918"/>
<circle cx="178.252" cy="218.406" r="7.73608" transform="rotate(180 178.252 218.406)" fill="#D46918"/>
<circle cx="178.252" cy="250.183" r="7.73608" transform="rotate(180 178.252 250.183)" fill="#D46918"/>
<circle cx="178.252" cy="313.74" r="7.73608" transform="rotate(180 178.252 313.74)" fill="#D46918"/>
<circle cx="178.252" cy="281.962" r="7.73608" transform="rotate(180 178.252 281.962)" fill="#D46918"/>
<circle cx="178.252" cy="345.519" r="7.73608" transform="rotate(180 178.252 345.519)" fill="#D46918"/>
<circle cx="178.252" cy="186.628" r="7.73608" transform="rotate(180 178.252 186.628)" fill="#D46918"/>
<circle cx="178.252" cy="154.849" r="7.73608" transform="rotate(180 178.252 154.849)" fill="#D46918"/>
<circle opacity="0.8" cx="178.252" cy="123.071" r="7.73608" transform="rotate(180 178.252 123.071)" fill="#D46918"/>
<circle opacity="0.6" cx="178.252" cy="91.2927" r="7.73608" transform="rotate(180 178.252 91.2927)" fill="#D46918"/>
<circle opacity="0.4" cx="178.252" cy="59.5144" r="7.73608" transform="rotate(180 178.252 59.5144)" fill="#D46918"/>
<circle opacity="0.2" cx="178.252" cy="27.7361" r="7.73608" transform="rotate(180 178.252 27.7361)" fill="#D46918"/>
<circle cx="148" cy="218.406" r="7.73608" transform="rotate(180 148 218.406)" fill="#D46918"/>
<circle cx="148" cy="250.183" r="7.73608" transform="rotate(180 148 250.183)" fill="#D46918"/>
<circle cx="148" cy="313.74" r="7.73608" transform="rotate(180 148 313.74)" fill="#D46918"/>
<circle cx="148" cy="281.962" r="7.73608" transform="rotate(180 148 281.962)" fill="#D46918"/>
<circle cx="148" cy="345.519" r="7.73608" transform="rotate(180 148 345.519)" fill="#D46918"/>
<circle cx="148" cy="186.628" r="7.73608" transform="rotate(180 148 186.628)" fill="#D46918"/>
<circle cx="148" cy="154.849" r="7.73608" transform="rotate(180 148 154.849)" fill="#D46918"/>
<circle opacity="0.8" cx="148" cy="123.071" r="7.73608" transform="rotate(180 148 123.071)" fill="#D46918"/>
<circle opacity="0.6" cx="148" cy="91.2927" r="7.73608" transform="rotate(180 148 91.2927)" fill="#D46918"/>
<circle opacity="0.4" cx="148" cy="59.5144" r="7.73608" transform="rotate(180 148 59.5144)" fill="#D46918"/>
<circle opacity="0.2" cx="148" cy="27.7361" r="7.73608" transform="rotate(180 148 27.7361)" fill="#D46918"/>
<circle cx="117.747" cy="218.406" r="7.73608" transform="rotate(180 117.747 218.406)" fill="#D46918"/>
<circle cx="117.747" cy="250.183" r="7.73608" transform="rotate(180 117.747 250.183)" fill="#D46918"/>
<circle cx="117.747" cy="313.74" r="7.73608" transform="rotate(180 117.747 313.74)" fill="#D46918"/>
<circle cx="117.747" cy="281.962" r="7.73608" transform="rotate(180 117.747 281.962)" fill="#D46918"/>
<circle cx="117.747" cy="345.519" r="7.73608" transform="rotate(180 117.747 345.519)" fill="#D46918"/>
<circle cx="117.748" cy="186.628" r="7.73608" transform="rotate(180 117.748 186.628)" fill="#D46918"/>
<circle cx="117.747" cy="154.849" r="7.73608" transform="rotate(180 117.747 154.849)" fill="#D46918"/>
<circle opacity="0.8" cx="117.747" cy="123.071" r="7.73608" transform="rotate(180 117.747 123.071)" fill="#D46918"/>
<circle opacity="0.6" cx="117.747" cy="91.2927" r="7.73608" transform="rotate(180 117.747 91.2927)" fill="#D46918"/>
<circle opacity="0.4" cx="117.747" cy="59.5144" r="7.73608" transform="rotate(180 117.747 59.5144)" fill="#D46918"/>
<circle opacity="0.2" cx="117.747" cy="27.7361" r="7.73608" transform="rotate(180 117.747 27.7361)" fill="#D46918"/>
<circle cx="87.4945" cy="218.406" r="7.73608" transform="rotate(180 87.4945 218.406)" fill="#D46918"/>
<circle cx="87.4945" cy="250.183" r="7.73608" transform="rotate(180 87.4945 250.183)" fill="#D46918"/>
<circle cx="87.4945" cy="313.74" r="7.73608" transform="rotate(180 87.4945 313.74)" fill="#D46918"/>
<circle cx="87.4945" cy="281.962" r="7.73608" transform="rotate(180 87.4945 281.962)" fill="#D46918"/>
<circle cx="87.4945" cy="345.519" r="7.73608" transform="rotate(180 87.4945 345.519)" fill="#D46918"/>
<circle cx="87.4945" cy="186.628" r="7.73608" transform="rotate(180 87.4945 186.628)" fill="#D46918"/>
<circle cx="87.4945" cy="154.849" r="7.73608" transform="rotate(180 87.4945 154.849)" fill="#D46918"/>
<circle opacity="0.8" cx="87.4945" cy="123.071" r="7.73608" transform="rotate(180 87.4945 123.071)" fill="#D46918"/>
<circle opacity="0.6" cx="87.4945" cy="91.2927" r="7.73608" transform="rotate(180 87.4945 91.2927)" fill="#D46918"/>
<circle opacity="0.4" cx="87.4945" cy="59.5144" r="7.73608" transform="rotate(180 87.4945 59.5144)" fill="#D46918"/>
<circle opacity="0.2" cx="87.4945" cy="27.7361" r="7.73608" transform="rotate(180 87.4945 27.7361)" fill="#D46918"/>
<circle cx="57.2429" cy="218.406" r="7.73608" transform="rotate(180 57.2429 218.406)" fill="#D46918"/>
<circle cx="57.2429" cy="250.183" r="7.73608" transform="rotate(180 57.2429 250.183)" fill="#D46918"/>
<circle cx="57.2429" cy="313.74" r="7.73608" transform="rotate(180 57.2429 313.74)" fill="#D46918"/>
<circle cx="57.2429" cy="281.962" r="7.73608" transform="rotate(180 57.2429 281.962)" fill="#D46918"/>
<circle cx="57.2429" cy="345.519" r="7.73608" transform="rotate(180 57.2429 345.519)" fill="#D46918"/>
<circle cx="57.2429" cy="186.628" r="7.73608" transform="rotate(180 57.2429 186.628)" fill="#D46918"/>
<circle cx="57.2429" cy="154.849" r="7.73608" transform="rotate(180 57.2429 154.849)" fill="#D46918"/>
<circle opacity="0.8" cx="57.2429" cy="123.071" r="7.73608" transform="rotate(180 57.2429 123.071)" fill="#D46918"/>
<circle opacity="0.6" cx="57.2429" cy="91.2942" r="7.73608" transform="rotate(180 57.2429 91.2942)" fill="#D46918"/>
<circle opacity="0.4" cx="57.2429" cy="59.5144" r="7.73608" transform="rotate(180 57.2429 59.5144)" fill="#D46918"/>
<circle opacity="0.2" cx="57.2429" cy="27.7361" r="7.73608" transform="rotate(180 57.2429 27.7361)" fill="#D46918"/>
<circle cx="26.9886" cy="218.406" r="7.73608" transform="rotate(180 26.9886 218.406)" fill="#D46918"/>
<circle cx="26.9886" cy="250.183" r="7.73608" transform="rotate(180 26.9886 250.183)" fill="#D46918"/>
<circle cx="26.9886" cy="313.74" r="7.73608" transform="rotate(180 26.9886 313.74)" fill="#D46918"/>
<circle cx="26.9886" cy="281.962" r="7.73608" transform="rotate(180 26.9886 281.962)" fill="#D46918"/>
<circle cx="26.9886" cy="345.519" r="7.73608" transform="rotate(180 26.9886 345.519)" fill="#D46918"/>
<circle cx="26.9886" cy="186.628" r="7.73608" transform="rotate(180 26.9886 186.628)" fill="#D46918"/>
<circle cx="26.9886" cy="154.849" r="7.73608" transform="rotate(180 26.9886 154.849)" fill="#D46918"/>
<circle opacity="0.8" cx="26.9886" cy="123.071" r="7.73608" transform="rotate(180 26.9886 123.071)" fill="#D46918"/>
<circle opacity="0.6" cx="26.9886" cy="91.2942" r="7.73608" transform="rotate(180 26.9886 91.2942)" fill="#D46918"/>
<circle opacity="0.4" cx="26.9886" cy="59.5144" r="7.73608" transform="rotate(180 26.9886 59.5144)" fill="#D46918"/>
<circle opacity="0.2" cx="26.9886" cy="27.7361" r="7.73608" transform="rotate(180 26.9886 27.7361)" fill="#D46918"/>
</g>
<rect width="295" height="184" transform="translate(0 231)" fill="#FAFAFA"/>
<defs>
<clipPath id="clip0">
<rect width="269" height="333" fill="white" transform="translate(19 20)"/>
</clipPath>
</defs>
</svg>
