<svg width="599" height="567" viewBox="0 0 599 567" fill="none" xmlns="http://www.w3.org/2000/svg">
<mask id="mask0_865:1397" style="mask-type:alpha" maskUnits="userSpaceOnUse" x="152" y="0" width="295" height="230">
<rect x="152" width="295" height="230" fill="#C4C4C4"/>
</mask>
<g mask="url(#mask0_865:1397)">
<rect x="152" width="295" height="230" fill="#6AA2DB"/>
<g clip-path="url(#clip0_865:1397)">
<circle cx="421.011" cy="216.406" r="7.73608" transform="rotate(180 421.011 216.406)" fill="#D46918"/>
<circle cx="421.011" cy="184.628" r="7.73608" transform="rotate(180 421.011 184.628)" fill="#D46918"/>
<circle cx="421.011" cy="152.849" r="7.73608" transform="rotate(180 421.011 152.849)" fill="#D46918"/>
<circle opacity="0.8" cx="421.011" cy="121.071" r="7.73608" transform="rotate(180 421.011 121.071)" fill="#D46918"/>
<circle opacity="0.6" cx="421.011" cy="89.2927" r="7.73608" transform="rotate(180 421.011 89.2927)" fill="#D46918"/>
<circle opacity="0.4" cx="421.011" cy="57.5144" r="7.73608" transform="rotate(180 421.011 57.5144)" fill="#D46918"/>
<circle opacity="0.2" cx="421.011" cy="25.7361" r="7.73608" transform="rotate(180 421.011 25.7361)" fill="#D46918"/>
<circle cx="390.758" cy="216.406" r="7.73608" transform="rotate(180 390.758 216.406)" fill="#D46918"/>
<circle cx="390.758" cy="184.628" r="7.73608" transform="rotate(180 390.758 184.628)" fill="#D46918"/>
<circle cx="390.758" cy="152.849" r="7.73608" transform="rotate(180 390.758 152.849)" fill="#D46918"/>
<circle opacity="0.8" cx="390.758" cy="121.071" r="7.73608" transform="rotate(180 390.758 121.071)" fill="#D46918"/>
<circle opacity="0.6" cx="390.758" cy="89.2927" r="7.73608" transform="rotate(180 390.758 89.2927)" fill="#D46918"/>
<circle opacity="0.4" cx="390.758" cy="57.5144" r="7.73608" transform="rotate(180 390.758 57.5144)" fill="#D46918"/>
<circle opacity="0.2" cx="390.758" cy="25.7361" r="7.73608" transform="rotate(180 390.758 25.7361)" fill="#D46918"/>
<circle cx="360.505" cy="216.406" r="7.73608" transform="rotate(180 360.505 216.406)" fill="#D46918"/>
<circle cx="360.505" cy="184.628" r="7.73608" transform="rotate(180 360.505 184.628)" fill="#D46918"/>
<circle cx="360.505" cy="152.849" r="7.73608" transform="rotate(180 360.505 152.849)" fill="#D46918"/>
<circle opacity="0.8" cx="360.505" cy="121.071" r="7.73608" transform="rotate(180 360.505 121.071)" fill="#D46918"/>
<circle opacity="0.6" cx="360.505" cy="89.2927" r="7.73608" transform="rotate(180 360.505 89.2927)" fill="#D46918"/>
<circle opacity="0.4" cx="360.505" cy="57.5144" r="7.73608" transform="rotate(180 360.505 57.5144)" fill="#D46918"/>
<circle opacity="0.2" cx="360.505" cy="25.7361" r="7.73608" transform="rotate(180 360.505 25.7361)" fill="#D46918"/>
<circle cx="330.252" cy="216.406" r="7.73608" transform="rotate(180 330.252 216.406)" fill="#D46918"/>
<circle cx="330.252" cy="184.628" r="7.73608" transform="rotate(180 330.252 184.628)" fill="#D46918"/>
<circle cx="330.252" cy="152.849" r="7.73608" transform="rotate(180 330.252 152.849)" fill="#D46918"/>
<circle opacity="0.8" cx="330.252" cy="121.071" r="7.73608" transform="rotate(180 330.252 121.071)" fill="#D46918"/>
<circle opacity="0.6" cx="330.252" cy="89.2927" r="7.73608" transform="rotate(180 330.252 89.2927)" fill="#D46918"/>
<circle opacity="0.4" cx="330.252" cy="57.5144" r="7.73608" transform="rotate(180 330.252 57.5144)" fill="#D46918"/>
<circle opacity="0.2" cx="330.252" cy="25.7361" r="7.73608" transform="rotate(180 330.252 25.7361)" fill="#D46918"/>
<circle cx="300" cy="216.406" r="7.73608" transform="rotate(180 300 216.406)" fill="#D46918"/>
<circle cx="300" cy="184.628" r="7.73608" transform="rotate(180 300 184.628)" fill="#D46918"/>
<circle cx="300" cy="152.849" r="7.73608" transform="rotate(180 300 152.849)" fill="#D46918"/>
<circle opacity="0.8" cx="300" cy="121.071" r="7.73608" transform="rotate(180 300 121.071)" fill="#D46918"/>
<circle opacity="0.6" cx="300" cy="89.2927" r="7.73608" transform="rotate(180 300 89.2927)" fill="#D46918"/>
<circle opacity="0.4" cx="300" cy="57.5144" r="7.73608" transform="rotate(180 300 57.5144)" fill="#D46918"/>
<circle opacity="0.2" cx="300" cy="25.7361" r="7.73608" transform="rotate(180 300 25.7361)" fill="#D46918"/>
<circle cx="269.747" cy="216.406" r="7.73608" transform="rotate(180 269.747 216.406)" fill="#D46918"/>
<circle cx="269.747" cy="184.628" r="7.73608" transform="rotate(180 269.747 184.628)" fill="#D46918"/>
<circle cx="269.747" cy="152.849" r="7.73608" transform="rotate(180 269.747 152.849)" fill="#D46918"/>
<circle opacity="0.8" cx="269.747" cy="121.071" r="7.73608" transform="rotate(180 269.747 121.071)" fill="#D46918"/>
<circle opacity="0.6" cx="269.747" cy="89.2927" r="7.73608" transform="rotate(180 269.747 89.2927)" fill="#D46918"/>
<circle opacity="0.4" cx="269.747" cy="57.5144" r="7.73608" transform="rotate(180 269.747 57.5144)" fill="#D46918"/>
<circle opacity="0.2" cx="269.747" cy="25.7361" r="7.73608" transform="rotate(180 269.747 25.7361)" fill="#D46918"/>
<circle cx="239.494" cy="216.406" r="7.73608" transform="rotate(180 239.494 216.406)" fill="#D46918"/>
<circle cx="239.494" cy="184.628" r="7.73608" transform="rotate(180 239.494 184.628)" fill="#D46918"/>
<circle cx="239.494" cy="152.849" r="7.73608" transform="rotate(180 239.494 152.849)" fill="#D46918"/>
<circle opacity="0.8" cx="239.494" cy="121.071" r="7.73608" transform="rotate(180 239.494 121.071)" fill="#D46918"/>
<circle opacity="0.6" cx="239.494" cy="89.2927" r="7.73608" transform="rotate(180 239.494 89.2927)" fill="#D46918"/>
<circle opacity="0.4" cx="239.494" cy="57.5144" r="7.73608" transform="rotate(180 239.494 57.5144)" fill="#D46918"/>
<circle opacity="0.2" cx="239.494" cy="25.7361" r="7.73608" transform="rotate(180 239.494 25.7361)" fill="#D46918"/>
<circle cx="209.242" cy="216.406" r="7.73608" transform="rotate(180 209.242 216.406)" fill="#D46918"/>
<circle cx="209.242" cy="184.628" r="7.73608" transform="rotate(180 209.242 184.628)" fill="#D46918"/>
<circle cx="209.242" cy="152.849" r="7.73608" transform="rotate(180 209.242 152.849)" fill="#D46918"/>
<circle opacity="0.8" cx="209.242" cy="121.071" r="7.73608" transform="rotate(180 209.242 121.071)" fill="#D46918"/>
<circle opacity="0.6" cx="209.242" cy="89.2942" r="7.73608" transform="rotate(180 209.242 89.2942)" fill="#D46918"/>
<circle opacity="0.4" cx="209.242" cy="57.5144" r="7.73608" transform="rotate(180 209.242 57.5144)" fill="#D46918"/>
<circle opacity="0.2" cx="209.242" cy="25.7361" r="7.73608" transform="rotate(180 209.242 25.7361)" fill="#D46918"/>
<circle cx="178.989" cy="216.406" r="7.73608" transform="rotate(180 178.989 216.406)" fill="#D46918"/>
<circle cx="178.989" cy="184.628" r="7.73608" transform="rotate(180 178.989 184.628)" fill="#D46918"/>
<circle cx="178.989" cy="152.849" r="7.73608" transform="rotate(180 178.989 152.849)" fill="#D46918"/>
<circle opacity="0.8" cx="178.989" cy="121.071" r="7.73608" transform="rotate(180 178.989 121.071)" fill="#D46918"/>
<circle opacity="0.6" cx="178.989" cy="89.2942" r="7.73608" transform="rotate(180 178.989 89.2942)" fill="#D46918"/>
<circle opacity="0.4" cx="178.989" cy="57.5144" r="7.73608" transform="rotate(180 178.989 57.5144)" fill="#D46918"/>
<circle opacity="0.2" cx="178.989" cy="25.7361" r="7.73608" transform="rotate(180 178.989 25.7361)" fill="#D46918"/>
</g>
</g>
<g filter="url(#filter0_d_865:1397)">
<rect width="295" height="184" transform="translate(152 227)" fill="#FAFAFA"/>
</g>
<defs>
<filter id="filter0_d_865:1397" x="0" y="79" width="599" height="488" filterUnits="userSpaceOnUse" color-interpolation-filters="sRGB">
<feFlood flood-opacity="0" result="BackgroundImageFix"/>
<feColorMatrix in="SourceAlpha" type="matrix" values="0 0 0 0 0 0 0 0 0 0 0 0 0 0 0 0 0 0 127 0" result="hardAlpha"/>
<feOffset dy="4"/>
<feGaussianBlur stdDeviation="76"/>
<feComposite in2="hardAlpha" operator="out"/>
<feColorMatrix type="matrix" values="0 0 0 0 0.831373 0 0 0 0 0.411765 0 0 0 0 0.0941176 0 0 0 0.1 0"/>
<feBlend mode="normal" in2="BackgroundImageFix" result="effect1_dropShadow_865:1397"/>
<feBlend mode="normal" in="SourceGraphic" in2="effect1_dropShadow_865:1397" result="shape"/>
</filter>
<clipPath id="clip0_865:1397">
<rect width="267" height="333" fill="white" transform="translate(166 18)"/>
</clipPath>
</defs>
</svg>
