<svg width="178" height="101" viewBox="0 0 178 101" fill="none" xmlns="http://www.w3.org/2000/svg">
<path d="M19.8125 80.3789H8.5625V92H2.70312V63.5625H21.2188V68.3086H8.5625V75.6523H19.8125V80.3789ZM35.6133 76.1602C34.8451 76.056 34.168 76.0039 33.582 76.0039C31.4466 76.0039 30.0469 76.7266 29.3828 78.1719V92H23.7383V70.8672H29.0703L29.2266 73.3867C30.3594 71.4466 31.9284 70.4766 33.9336 70.4766C34.5586 70.4766 35.1445 70.5612 35.6914 70.7305L35.6133 76.1602ZM36.7656 81.2383C36.7656 79.1419 37.1693 77.2734 37.9766 75.6328C38.7839 73.9922 39.9427 72.7227 41.4531 71.8242C42.9766 70.9258 44.7409 70.4766 46.7461 70.4766C49.5977 70.4766 51.9219 71.349 53.7188 73.0938C55.5286 74.8385 56.5378 77.2083 56.7461 80.2031L56.7852 81.6484C56.7852 84.8906 55.8802 87.4948 54.0703 89.4609C52.2604 91.4141 49.832 92.3906 46.7852 92.3906C43.7383 92.3906 41.3034 91.4141 39.4805 89.4609C37.6706 87.5078 36.7656 84.8516 36.7656 81.4922V81.2383ZM42.4102 81.6484C42.4102 83.6536 42.7878 85.1901 43.543 86.2578C44.2982 87.3125 45.3789 87.8398 46.7852 87.8398C48.1523 87.8398 49.2201 87.319 49.9883 86.2773C50.7565 85.2227 51.1406 83.543 51.1406 81.2383C51.1406 79.2721 50.7565 77.7487 49.9883 76.668C49.2201 75.5872 48.1393 75.0469 46.7461 75.0469C45.3659 75.0469 44.2982 75.5872 43.543 76.668C42.7878 77.7357 42.4102 79.3958 42.4102 81.6484ZM65.457 70.8672L65.6328 73.3086C67.1432 71.4206 69.168 70.4766 71.707 70.4766C73.9466 70.4766 75.6133 71.1341 76.707 72.4492C77.8008 73.7643 78.3607 75.7305 78.3867 78.3477V92H72.7422V78.4844C72.7422 77.2865 72.4818 76.4206 71.9609 75.8867C71.4401 75.3398 70.5742 75.0664 69.3633 75.0664C67.7747 75.0664 66.5833 75.7435 65.7891 77.0977V92H60.1445V70.8672H65.457ZM89.4414 65.6719V70.8672H93.0547V75.0078H89.4414V85.5547C89.4414 86.3359 89.5911 86.8958 89.8906 87.2344C90.1901 87.5729 90.763 87.7422 91.6094 87.7422C92.2344 87.7422 92.7878 87.6966 93.2695 87.6055V91.8828C92.1628 92.2214 91.0234 92.3906 89.8516 92.3906C85.8932 92.3906 83.875 90.3919 83.7969 86.3945V75.0078H80.7109V70.8672H83.7969V65.6719H89.4414ZM107.176 82.0977H96.1797V77.5469H107.176V82.0977ZM129.188 79.6758H117.938V87.293H131.141V92H112.078V63.5625H131.102V68.3086H117.938V75.0859H129.188V79.6758ZM139.402 70.8672L139.578 73.3086C141.089 71.4206 143.113 70.4766 145.652 70.4766C147.892 70.4766 149.559 71.1341 150.652 72.4492C151.746 73.7643 152.306 75.7305 152.332 78.3477V92H146.688V78.4844C146.688 77.2865 146.427 76.4206 145.906 75.8867C145.385 75.3398 144.52 75.0664 143.309 75.0664C141.72 75.0664 140.529 75.7435 139.734 77.0977V92H134.09V70.8672H139.402ZM155.75 81.2773C155.75 77.9831 156.486 75.3594 157.957 73.4062C159.441 71.4531 161.466 70.4766 164.031 70.4766C166.089 70.4766 167.788 71.2448 169.129 72.7812V62H174.793V92H169.695L169.422 89.7539C168.016 91.5117 166.206 92.3906 163.992 92.3906C161.505 92.3906 159.507 91.4141 157.996 89.4609C156.499 87.4948 155.75 84.7669 155.75 81.2773ZM161.395 81.6875C161.395 83.6667 161.74 85.1836 162.43 86.2383C163.12 87.293 164.122 87.8203 165.438 87.8203C167.182 87.8203 168.413 87.0846 169.129 85.6133V77.2734C168.426 75.8021 167.208 75.0664 165.477 75.0664C162.755 75.0664 161.395 77.2734 161.395 81.6875Z" fill="#FAFAFA"/>
<mask id="mask0_820:1404" style="mask-type:alpha" maskUnits="userSpaceOnUse" x="2" y="35" width="175" height="33">
<path d="M20.2305 54.3789V55.3789H21.2305V54.3789H20.2305ZM8.98047 54.3789V53.3789H7.98047V54.3789H8.98047ZM8.98047 66V67H9.98047V66H8.98047ZM3.12109 66H2.12109V67H3.12109V66ZM3.12109 37.5625V36.5625H2.12109V37.5625H3.12109ZM21.6367 37.5625H22.6367V36.5625H21.6367V37.5625ZM21.6367 42.3086V43.3086H22.6367V42.3086H21.6367ZM8.98047 42.3086V41.3086H7.98047V42.3086H8.98047ZM8.98047 49.6523H7.98047V50.6523H8.98047V49.6523ZM20.2305 49.6523H21.2305V48.6523H20.2305V49.6523ZM20.2305 53.3789H8.98047V55.3789H20.2305V53.3789ZM7.98047 54.3789V66H9.98047V54.3789H7.98047ZM8.98047 65H3.12109V67H8.98047V65ZM4.12109 66V37.5625H2.12109V66H4.12109ZM3.12109 38.5625H21.6367V36.5625H3.12109V38.5625ZM20.6367 37.5625V42.3086H22.6367V37.5625H20.6367ZM21.6367 41.3086H8.98047V43.3086H21.6367V41.3086ZM7.98047 42.3086V49.6523H9.98047V42.3086H7.98047ZM8.98047 50.6523H20.2305V48.6523H8.98047V50.6523ZM19.2305 49.6523V54.3789H21.2305V49.6523H19.2305ZM36.0312 50.1602L35.8969 51.1511L37.0149 51.3027L37.0311 50.1745L36.0312 50.1602ZM29.8008 52.1719L28.8921 51.7544L28.8008 51.9531V52.1719H29.8008ZM29.8008 66V67H30.8008V66H29.8008ZM24.1562 66H23.1562V67H24.1562V66ZM24.1562 44.8672V43.8672H23.1562V44.8672H24.1562ZM29.4883 44.8672L30.4864 44.8053L30.4282 43.8672H29.4883V44.8672ZM29.6445 47.3867L28.6464 47.4486L28.85 50.7307L30.5081 47.891L29.6445 47.3867ZM36.1094 44.7305L37.1093 44.7449L37.12 43.9965L36.4051 43.7752L36.1094 44.7305ZM36.1656 49.1692C35.3661 49.0608 34.6425 49.0039 34 49.0039V51.0039C34.5293 51.0039 35.1599 51.0512 35.8969 51.1511L36.1656 49.1692ZM34 49.0039C31.6325 49.0039 29.7765 49.8296 28.8921 51.7544L30.7095 52.5894C31.1532 51.6236 32.0967 51.0039 34 51.0039V49.0039ZM28.8008 52.1719V66H30.8008V52.1719H28.8008ZM29.8008 65H24.1562V67H29.8008V65ZM25.1562 66V44.8672H23.1562V66H25.1562ZM24.1562 45.8672H29.4883V43.8672H24.1562V45.8672ZM28.4902 44.9291L28.6464 47.4486L30.6426 47.3248L30.4864 44.8053L28.4902 44.9291ZM30.5081 47.891C31.4876 46.2134 32.7505 45.4766 34.3516 45.4766V43.4766C31.9422 43.4766 30.0671 44.6798 28.781 46.8825L30.5081 47.891ZM34.3516 45.4766C34.8855 45.4766 35.3709 45.5487 35.8137 45.6858L36.4051 43.7752C35.7541 43.5737 35.0677 43.4766 34.3516 43.4766V45.4766ZM35.1095 44.7161L35.0314 50.1458L37.0311 50.1745L37.1093 44.7449L35.1095 44.7161ZM38.3945 49.6328L37.4973 49.1913L38.3945 49.6328ZM41.8711 45.8242L41.3631 44.9628L41.3599 44.9648L41.8711 45.8242ZM54.1367 47.0938L53.4401 47.8112L53.4427 47.8137L54.1367 47.0938ZM57.1641 54.2031L58.1637 54.1761L58.1631 54.1549L58.1617 54.1337L57.1641 54.2031ZM57.2031 55.6484H58.2031V55.6349L58.2028 55.6214L57.2031 55.6484ZM54.4883 63.4609L55.2218 64.1406L55.224 64.1382L54.4883 63.4609ZM39.8984 63.4609L39.1649 64.1406L39.1674 64.1433L39.8984 63.4609ZM43.9609 60.2578L43.1445 60.8353L43.1479 60.84L43.9609 60.2578ZM50.4062 60.2773L51.2111 60.8709L51.2146 60.8661L50.4062 60.2773ZM43.9609 50.668L44.7774 51.2454L44.7806 51.2408L43.9609 50.668ZM38.1836 55.2383C38.1836 53.2725 38.5614 51.5587 39.2918 50.0743L37.4973 49.1913C36.6131 50.9881 36.1836 53.0113 36.1836 55.2383H38.1836ZM39.2918 50.0743C40.0172 48.6 41.0453 47.479 42.3823 46.6837L41.3599 44.9648C39.6761 45.9663 38.3864 47.3843 37.4973 49.1913L39.2918 50.0743ZM42.3791 46.6856C43.7289 45.8895 45.3131 45.4766 47.1641 45.4766V43.4766C45.0046 43.4766 43.0602 43.962 41.3631 44.9629L42.3791 46.6856ZM47.1641 45.4766C49.7945 45.4766 51.8561 46.2731 53.4401 47.8112L54.8334 46.3763C52.8236 44.4248 50.2367 43.4766 47.1641 43.4766V45.4766ZM53.4427 47.8137C55.0409 49.3545 55.9718 51.4741 56.1665 54.2725L58.1617 54.1337C57.9397 50.9426 56.8523 48.3226 54.8308 46.3738L53.4427 47.8137ZM56.1644 54.2301L56.2035 55.6755L58.2028 55.6214L58.1637 54.1761L56.1644 54.2301ZM56.2031 55.6484C56.2031 58.6961 55.3578 61.0398 53.7525 62.7837L55.224 64.1382C57.2385 61.9498 58.2031 59.0852 58.2031 55.6484H56.2031ZM53.7548 62.7812C52.1622 64.4999 50.0157 65.3906 47.2031 65.3906V67.3906C50.4843 67.3906 53.1946 66.3283 55.2218 64.1406L53.7548 62.7812ZM47.2031 65.3906C44.3906 65.3906 42.2359 64.4998 40.6295 62.7786L39.1674 64.1433C41.2068 66.3283 43.9219 67.3906 47.2031 67.3906V65.3906ZM40.6319 62.7812C39.0349 61.0578 38.1836 58.6681 38.1836 55.4922H36.1836C36.1836 59.035 37.1422 61.9578 39.1649 64.1406L40.6319 62.7812ZM38.1836 55.4922V55.2383H36.1836V55.4922H38.1836ZM41.8281 55.6484C41.8281 57.7572 42.2216 59.5304 43.1445 60.8353L44.7774 59.6803C44.1899 58.8498 43.8281 57.55 43.8281 55.6484H41.8281ZM43.1479 60.84C44.1086 62.1817 45.506 62.8398 47.2031 62.8398V60.8398C46.0877 60.8398 45.3237 60.4433 44.774 59.6756L43.1479 60.84ZM47.2031 62.8398C48.867 62.8398 50.2422 62.1845 51.2111 60.8709L49.6014 59.6838C49.0338 60.4535 48.2737 60.8398 47.2031 60.8398V62.8398ZM51.2146 60.8661C52.1713 59.5526 52.5586 57.6112 52.5586 55.2383H50.5586C50.5586 57.4747 50.1777 58.8927 49.5979 59.6886L51.2146 60.8661ZM52.5586 55.2383C52.5586 53.1596 52.1552 51.4024 51.2213 50.0886L49.5912 51.2473C50.1938 52.095 50.5586 53.3846 50.5586 55.2383H52.5586ZM51.2213 50.0886C50.2545 48.7286 48.8617 48.0469 47.1641 48.0469V50.0469C48.2529 50.0469 49.0215 50.4459 49.5912 51.2473L51.2213 50.0886ZM47.1641 48.0469C45.4754 48.0469 44.0937 48.7322 43.1412 50.0952L44.7806 51.2408C45.3386 50.4423 46.0923 50.0469 47.1641 50.0469V48.0469ZM43.1445 50.0905C42.2109 51.4104 41.8281 53.3222 41.8281 55.6484H43.8281C43.8281 53.4695 44.2005 52.061 44.7774 51.2454L43.1445 50.0905ZM65.875 44.8672L66.8724 44.7954L66.8056 43.8672H65.875V44.8672ZM66.0508 47.3086L65.0534 47.3804L65.2367 49.927L66.8317 47.9333L66.0508 47.3086ZM77.125 46.4492L77.8938 45.8098L77.125 46.4492ZM78.8047 52.3477L79.8047 52.3477L79.8046 52.3377L78.8047 52.3477ZM78.8047 66V67H79.8047V66H78.8047ZM73.1602 66H72.1602V67H73.1602V66ZM72.3789 49.8867L71.6547 50.5764L71.6631 50.585L72.3789 49.8867ZM66.207 51.0977L65.3445 50.5917L65.207 50.826V51.0977H66.207ZM66.207 66V67H67.207V66H66.207ZM60.5625 66H59.5625V67H60.5625V66ZM60.5625 44.8672V43.8672H59.5625V44.8672H60.5625ZM64.8776 44.939L65.0534 47.3804L67.0482 47.2368L66.8724 44.7954L64.8776 44.939ZM66.8317 47.9333C68.1416 46.2959 69.8721 45.4766 72.125 45.4766V43.4766C69.2998 43.4766 66.9808 44.5453 65.2699 46.6839L66.8317 47.9333ZM72.125 45.4766C74.166 45.4766 75.5075 46.0682 76.3562 47.0887L77.8938 45.8098C76.555 44.2 74.5632 43.4766 72.125 43.4766V45.4766ZM76.3562 47.0887C77.2425 48.1543 77.7798 49.8543 77.8047 52.3576L79.8046 52.3377C79.7775 49.6066 79.195 47.3743 77.8938 45.8098L76.3562 47.0887ZM77.8047 52.3477V66H79.8047V52.3477H77.8047ZM78.8047 65H73.1602V67H78.8047V65ZM74.1602 66V52.4844H72.1602V66H74.1602ZM74.1602 52.4844C74.1602 51.1769 73.8815 49.9949 73.0947 49.1884L71.6631 50.585C71.918 50.8463 72.1602 51.396 72.1602 52.4844H74.1602ZM73.103 49.1971C72.306 48.3602 71.1059 48.0664 69.7812 48.0664V50.0664C70.8785 50.0664 71.4101 50.3195 71.6548 50.5764L73.103 49.1971ZM69.7812 48.0664C67.8431 48.0664 66.3209 48.927 65.3445 50.5917L67.0696 51.6036C67.6817 50.5599 68.5423 50.0664 69.7812 50.0664V48.0664ZM65.207 51.0977V66H67.207V51.0977H65.207ZM66.207 65H60.5625V67H66.207V65ZM61.5625 66V44.8672H59.5625V66H61.5625ZM60.5625 45.8672H65.875V43.8672H60.5625V45.8672ZM89.8594 39.6719H90.8594V38.6719H89.8594V39.6719ZM89.8594 44.8672H88.8594V45.8672H89.8594V44.8672ZM93.4727 44.8672H94.4727V43.8672H93.4727V44.8672ZM93.4727 49.0078V50.0078H94.4727V49.0078H93.4727ZM89.8594 49.0078V48.0078H88.8594V49.0078H89.8594ZM90.3086 61.2344L91.0576 60.5718L90.3086 61.2344ZM93.6875 61.6055H94.6875V60.3985L93.5016 60.6229L93.6875 61.6055ZM93.6875 65.8828L93.98 66.8391L94.6875 66.6227V65.8828H93.6875ZM84.2148 60.3945H83.2148V60.4043L83.215 60.4141L84.2148 60.3945ZM84.2148 49.0078H85.2148V48.0078H84.2148V49.0078ZM81.1289 49.0078H80.1289V50.0078H81.1289V49.0078ZM81.1289 44.8672V43.8672H80.1289V44.8672H81.1289ZM84.2148 44.8672V45.8672H85.2148V44.8672H84.2148ZM84.2148 39.6719V38.6719H83.2148V39.6719H84.2148ZM88.8594 39.6719V44.8672H90.8594V39.6719H88.8594ZM89.8594 45.8672H93.4727V43.8672H89.8594V45.8672ZM92.4727 44.8672V49.0078H94.4727V44.8672H92.4727ZM93.4727 48.0078H89.8594V50.0078H93.4727V48.0078ZM88.8594 49.0078V59.5547H90.8594V49.0078H88.8594ZM88.8594 59.5547C88.8594 60.4174 89.016 61.2824 89.5596 61.8969L91.0576 60.5718C91.0022 60.5092 90.8594 60.2544 90.8594 59.5547H88.8594ZM89.5596 61.8969C90.1604 62.5761 91.1227 62.7422 92.0273 62.7422V60.7422C91.6636 60.7422 91.4113 60.705 91.2462 60.6562C91.0832 60.608 91.049 60.5621 91.0576 60.5718L89.5596 61.8969ZM92.0273 62.7422C92.6986 62.7422 93.3163 62.6934 93.8734 62.588L93.5016 60.6229C93.0951 60.6998 92.606 60.7422 92.0273 60.7422V62.7422ZM92.6875 61.6055V65.8828H94.6875V61.6055H92.6875ZM93.395 64.9265C92.3842 65.2357 91.3435 65.3906 90.2695 65.3906V67.3906C91.5393 67.3906 92.7772 67.207 93.98 66.8391L93.395 64.9265ZM90.2695 65.3906C88.4486 65.3906 87.2492 64.9321 86.4908 64.1811C85.7306 63.4283 85.2507 62.2205 85.2147 60.375L83.215 60.4141C83.2571 62.566 83.8254 64.3562 85.0834 65.6021C86.3433 66.8498 88.1321 67.3906 90.2695 67.3906V65.3906ZM85.2148 60.3945V49.0078H83.2148V60.3945H85.2148ZM84.2148 48.0078H81.1289V50.0078H84.2148V48.0078ZM82.1289 49.0078V44.8672H80.1289V49.0078H82.1289ZM81.1289 45.8672H84.2148V43.8672H81.1289V45.8672ZM85.2148 44.8672V39.6719H83.2148V44.8672H85.2148ZM84.2148 40.6719H89.8594V38.6719H84.2148V40.6719ZM107.594 56.0977V57.0977H108.594V56.0977H107.594ZM96.5977 56.0977H95.5977V57.0977H96.5977V56.0977ZM96.5977 51.5469V50.5469H95.5977V51.5469H96.5977ZM107.594 51.5469H108.594V50.5469H107.594V51.5469ZM107.594 55.0977H96.5977V57.0977H107.594V55.0977ZM97.5977 56.0977V51.5469H95.5977V56.0977H97.5977ZM96.5977 52.5469H107.594V50.5469H96.5977V52.5469ZM106.594 51.5469V56.0977H108.594V51.5469H106.594ZM129.605 53.6758V54.6758H130.605V53.6758H129.605ZM118.355 53.6758V52.6758H117.355V53.6758H118.355ZM118.355 61.293H117.355V62.293H118.355V61.293ZM131.559 61.293H132.559V60.293H131.559V61.293ZM131.559 66V67H132.559V66H131.559ZM112.496 66H111.496V67H112.496V66ZM112.496 37.5625V36.5625H111.496V37.5625H112.496ZM131.52 37.5625H132.52V36.5625H131.52V37.5625ZM131.52 42.3086V43.3086H132.52V42.3086H131.52ZM118.355 42.3086V41.3086H117.355V42.3086H118.355ZM118.355 49.0859H117.355V50.0859H118.355V49.0859ZM129.605 49.0859H130.605V48.0859H129.605V49.0859ZM129.605 52.6758H118.355V54.6758H129.605V52.6758ZM117.355 53.6758V61.293H119.355V53.6758H117.355ZM118.355 62.293H131.559V60.293H118.355V62.293ZM130.559 61.293V66H132.559V61.293H130.559ZM131.559 65H112.496V67H131.559V65ZM113.496 66V37.5625H111.496V66H113.496ZM112.496 38.5625H131.52V36.5625H112.496V38.5625ZM130.52 37.5625V42.3086H132.52V37.5625H130.52ZM131.52 41.3086H118.355V43.3086H131.52V41.3086ZM117.355 42.3086V49.0859H119.355V42.3086H117.355ZM118.355 50.0859H129.605V48.0859H118.355V50.0859ZM128.605 49.0859V53.6758H130.605V49.0859H128.605ZM139.82 44.8672L140.818 44.7954L140.751 43.8672H139.82V44.8672ZM139.996 47.3086L138.999 47.3804L139.182 49.927L140.777 47.9333L139.996 47.3086ZM151.07 46.4492L151.839 45.8098L151.07 46.4492ZM152.75 52.3477L153.75 52.3477L153.75 52.3377L152.75 52.3477ZM152.75 66V67H153.75V66H152.75ZM147.105 66H146.105V67H147.105V66ZM146.324 49.8867L145.6 50.5764L145.608 50.585L146.324 49.8867ZM140.152 51.0977L139.29 50.5917L139.152 50.826V51.0977H140.152ZM140.152 66V67H141.152V66H140.152ZM134.508 66H133.508V67H134.508V66ZM134.508 44.8672V43.8672H133.508V44.8672H134.508ZM138.823 44.939L138.999 47.3804L140.994 47.2368L140.818 44.7954L138.823 44.939ZM140.777 47.9333C142.087 46.2959 143.817 45.4766 146.07 45.4766V43.4766C143.245 43.4766 140.926 44.5453 139.215 46.6839L140.777 47.9333ZM146.07 45.4766C148.111 45.4766 149.453 46.0682 150.301 47.0887L151.839 45.8098C150.5 44.2 148.509 43.4766 146.07 43.4766V45.4766ZM150.301 47.0887C151.188 48.1543 151.725 49.8543 151.75 52.3576L153.75 52.3377C153.723 49.6066 153.14 47.3743 151.839 45.8098L150.301 47.0887ZM151.75 52.3477V66H153.75V52.3477H151.75ZM152.75 65H147.105V67H152.75V65ZM148.105 66V52.4844H146.105V66H148.105ZM148.105 52.4844C148.105 51.1769 147.827 49.9949 147.04 49.1884L145.608 50.585C145.863 50.8463 146.105 51.396 146.105 52.4844H148.105ZM147.048 49.1971C146.251 48.3602 145.051 48.0664 143.727 48.0664V50.0664C144.824 50.0664 145.355 50.3195 145.6 50.5764L147.048 49.1971ZM143.727 48.0664C141.788 48.0664 140.266 48.927 139.29 50.5917L141.015 51.6036C141.627 50.5599 142.488 50.0664 143.727 50.0664V48.0664ZM139.152 51.0977V66H141.152V51.0977H139.152ZM140.152 65H134.508V67H140.152V65ZM135.508 66V44.8672H133.508V66H135.508ZM134.508 45.8672H139.82V43.8672H134.508V45.8672ZM158.375 47.4062L157.579 46.8012L157.576 46.8045L158.375 47.4062ZM169.547 46.7812L168.794 47.4389L170.547 49.4476V46.7812H169.547ZM169.547 36V35H168.547V36H169.547ZM175.211 36H176.211V35H175.211V36ZM175.211 66V67H176.211V66H175.211ZM170.113 66L169.121 66.1208L169.228 67H170.113V66ZM169.84 63.7539L170.833 63.6331L170.545 61.2716L169.059 63.1292L169.84 63.7539ZM158.414 63.4609L157.618 64.0668L157.623 64.0727L158.414 63.4609ZM169.547 59.6133L170.446 60.0509L170.547 59.8437V59.6133H169.547ZM169.547 51.2734H170.547V51.0468L170.449 50.8423L169.547 51.2734ZM157.168 55.2773C157.168 52.1256 157.872 49.7363 159.174 48.008L157.576 46.8045C155.936 48.9825 155.168 51.8406 155.168 55.2773H157.168ZM159.171 48.0113C160.457 46.32 162.18 45.4766 164.449 45.4766V43.4766C161.588 43.4766 159.262 44.5863 157.579 46.8012L159.171 48.0113ZM164.449 45.4766C166.221 45.4766 167.644 46.1221 168.794 47.4389L170.3 46.1236C168.767 44.3675 166.792 43.4766 164.449 43.4766V45.4766ZM170.547 46.7812V36H168.547V46.7812H170.547ZM169.547 37H175.211V35H169.547V37ZM174.211 36V66H176.211V36H174.211ZM175.211 65H170.113V67H175.211V65ZM171.106 65.8792L170.833 63.6331L168.847 63.8748L169.121 66.1208L171.106 65.8792ZM169.059 63.1292C167.839 64.6545 166.314 65.3906 164.41 65.3906V67.3906C166.933 67.3906 169.028 66.3689 170.621 64.3786L169.059 63.1292ZM164.41 65.3906C162.23 65.3906 160.525 64.5553 159.205 62.8492L157.623 64.0727C159.324 66.2728 161.616 67.3906 164.41 67.3906V65.3906ZM159.21 62.8551C157.89 61.122 157.168 58.6359 157.168 55.2773H155.168C155.168 58.8979 155.944 61.8676 157.619 64.0668L159.21 62.8551ZM160.812 55.6875C160.812 57.7592 161.17 59.5001 162.011 60.7858L163.684 59.6908C163.146 58.8671 162.812 57.5742 162.812 55.6875H160.812ZM162.011 60.7858C162.895 62.1372 164.221 62.8203 165.855 62.8203V60.8203C164.86 60.8203 164.18 60.4487 163.684 59.6908L162.011 60.7858ZM165.855 62.8203C166.869 62.8203 167.799 62.6057 168.6 62.1268C169.405 61.6457 170.015 60.9359 170.446 60.0509L168.648 59.1756C168.362 59.762 167.999 60.1557 167.574 60.4103C167.144 60.6671 166.586 60.8203 165.855 60.8203V62.8203ZM170.547 59.6133V51.2734H168.547V59.6133H170.547ZM170.449 50.8423C170.026 49.957 169.423 49.2453 168.624 48.7623C167.828 48.2816 166.903 48.0664 165.895 48.0664V50.0664C166.618 50.0664 167.167 50.2191 167.589 50.474C168.007 50.7267 168.365 51.1186 168.645 51.7046L170.449 50.8423ZM165.895 48.0664C164.208 48.0664 162.855 48.7807 161.982 50.1969C161.158 51.5336 160.812 53.4102 160.812 55.6875H162.812C162.812 53.5507 163.148 52.1168 163.684 51.2465C164.172 50.4557 164.86 50.0664 165.895 50.0664V48.0664Z" fill="#FAFAFA"/>
</mask>
<g mask="url(#mask0_820:1404)">
<rect x="2" y="29" width="174" height="25" fill="#FAFAFA" fill-opacity="0.8"/>
</g>
<mask id="mask1_820:1404" style="mask-type:alpha" maskUnits="userSpaceOnUse" x="1" y="7" width="175" height="33">
<path d="M19.7305 26.3789V27.3789H20.7305V26.3789H19.7305ZM8.48047 26.3789V25.3789H7.48047V26.3789H8.48047ZM8.48047 38V39H9.48047V38H8.48047ZM2.62109 38H1.62109V39H2.62109V38ZM2.62109 9.5625V8.5625H1.62109V9.5625H2.62109ZM21.1367 9.5625H22.1367V8.5625H21.1367V9.5625ZM21.1367 14.3086V15.3086H22.1367V14.3086H21.1367ZM8.48047 14.3086V13.3086H7.48047V14.3086H8.48047ZM8.48047 21.6523H7.48047V22.6523H8.48047V21.6523ZM19.7305 21.6523H20.7305V20.6523H19.7305V21.6523ZM19.7305 25.3789H8.48047V27.3789H19.7305V25.3789ZM7.48047 26.3789V38H9.48047V26.3789H7.48047ZM8.48047 37H2.62109V39H8.48047V37ZM3.62109 38V9.5625H1.62109V38H3.62109ZM2.62109 10.5625H21.1367V8.5625H2.62109V10.5625ZM20.1367 9.5625V14.3086H22.1367V9.5625H20.1367ZM21.1367 13.3086H8.48047V15.3086H21.1367V13.3086ZM7.48047 14.3086V21.6523H9.48047V14.3086H7.48047ZM8.48047 22.6523H19.7305V20.6523H8.48047V22.6523ZM18.7305 21.6523V26.3789H20.7305V21.6523H18.7305ZM35.5312 22.1602L35.3969 23.1511L36.5149 23.3027L36.5311 22.1745L35.5312 22.1602ZM29.3008 24.1719L28.3921 23.7544L28.3008 23.9531V24.1719H29.3008ZM29.3008 38V39H30.3008V38H29.3008ZM23.6562 38H22.6562V39H23.6562V38ZM23.6562 16.8672V15.8672H22.6562V16.8672H23.6562ZM28.9883 16.8672L29.9864 16.8053L29.9282 15.8672H28.9883V16.8672ZM29.1445 19.3867L28.1464 19.4486L28.35 22.7307L30.0081 19.891L29.1445 19.3867ZM35.6094 16.7305L36.6093 16.7449L36.62 15.9965L35.9051 15.7752L35.6094 16.7305ZM35.6656 21.1692C34.8661 21.0608 34.1425 21.0039 33.5 21.0039V23.0039C34.0293 23.0039 34.6599 23.0512 35.3969 23.1511L35.6656 21.1692ZM33.5 21.0039C31.1325 21.0039 29.2765 21.8296 28.3921 23.7544L30.2095 24.5894C30.6532 23.6236 31.5967 23.0039 33.5 23.0039V21.0039ZM28.3008 24.1719V38H30.3008V24.1719H28.3008ZM29.3008 37H23.6562V39H29.3008V37ZM24.6562 38V16.8672H22.6562V38H24.6562ZM23.6562 17.8672H28.9883V15.8672H23.6562V17.8672ZM27.9902 16.9291L28.1464 19.4486L30.1426 19.3248L29.9864 16.8053L27.9902 16.9291ZM30.0081 19.891C30.9876 18.2134 32.2505 17.4766 33.8516 17.4766V15.4766C31.4422 15.4766 29.5671 16.6798 28.281 18.8825L30.0081 19.891ZM33.8516 17.4766C34.3855 17.4766 34.8709 17.5487 35.3137 17.6858L35.9051 15.7752C35.2541 15.5737 34.5677 15.4766 33.8516 15.4766V17.4766ZM34.6095 16.7161L34.5314 22.1458L36.5311 22.1745L36.6093 16.7449L34.6095 16.7161ZM37.8945 21.6328L36.9973 21.1913L37.8945 21.6328ZM41.3711 17.8242L40.8631 16.9628L40.8599 16.9648L41.3711 17.8242ZM53.6367 19.0938L52.9401 19.8112L52.9427 19.8137L53.6367 19.0938ZM56.6641 26.2031L57.6637 26.1761L57.6631 26.1549L57.6617 26.1337L56.6641 26.2031ZM56.7031 27.6484H57.7031V27.6349L57.7028 27.6214L56.7031 27.6484ZM53.9883 35.4609L54.7218 36.1406L54.724 36.1382L53.9883 35.4609ZM39.3984 35.4609L38.6649 36.1406L38.6674 36.1433L39.3984 35.4609ZM43.4609 32.2578L42.6445 32.8353L42.6479 32.84L43.4609 32.2578ZM49.9062 32.2773L50.7111 32.8709L50.7146 32.8661L49.9062 32.2773ZM43.4609 22.668L44.2774 23.2454L44.2806 23.2408L43.4609 22.668ZM37.6836 27.2383C37.6836 25.2725 38.0614 23.5587 38.7918 22.0743L36.9973 21.1913C36.1131 22.9881 35.6836 25.0113 35.6836 27.2383H37.6836ZM38.7918 22.0743C39.5172 20.6 40.5453 19.479 41.8823 18.6837L40.8599 16.9648C39.1761 17.9663 37.8864 19.3843 36.9973 21.1913L38.7918 22.0743ZM41.8791 18.6856C43.2289 17.8895 44.8131 17.4766 46.6641 17.4766V15.4766C44.5046 15.4766 42.5602 15.962 40.8631 16.9629L41.8791 18.6856ZM46.6641 17.4766C49.2945 17.4766 51.3561 18.2731 52.9401 19.8112L54.3334 18.3763C52.3236 16.4248 49.7367 15.4766 46.6641 15.4766V17.4766ZM52.9427 19.8137C54.5409 21.3545 55.4718 23.4741 55.6665 26.2725L57.6617 26.1337C57.4397 22.9426 56.3523 20.3226 54.3308 18.3738L52.9427 19.8137ZM55.6644 26.2301L55.7035 27.6755L57.7028 27.6214L57.6637 26.1761L55.6644 26.2301ZM55.7031 27.6484C55.7031 30.6961 54.8578 33.0398 53.2525 34.7837L54.724 36.1382C56.7385 33.9498 57.7031 31.0852 57.7031 27.6484H55.7031ZM53.2548 34.7812C51.6622 36.4999 49.5157 37.3906 46.7031 37.3906V39.3906C49.9843 39.3906 52.6946 38.3283 54.7218 36.1406L53.2548 34.7812ZM46.7031 37.3906C43.8906 37.3906 41.7359 36.4998 40.1295 34.7786L38.6674 36.1433C40.7068 38.3283 43.4219 39.3906 46.7031 39.3906V37.3906ZM40.1319 34.7812C38.5349 33.0578 37.6836 30.6681 37.6836 27.4922H35.6836C35.6836 31.035 36.6422 33.9578 38.6649 36.1406L40.1319 34.7812ZM37.6836 27.4922V27.2383H35.6836V27.4922H37.6836ZM41.3281 27.6484C41.3281 29.7572 41.7216 31.5304 42.6445 32.8353L44.2774 31.6803C43.6899 30.8498 43.3281 29.55 43.3281 27.6484H41.3281ZM42.6479 32.84C43.6086 34.1817 45.006 34.8398 46.7031 34.8398V32.8398C45.5877 32.8398 44.8237 32.4433 44.274 31.6756L42.6479 32.84ZM46.7031 34.8398C48.367 34.8398 49.7422 34.1845 50.7111 32.8709L49.1014 31.6838C48.5338 32.4535 47.7737 32.8398 46.7031 32.8398V34.8398ZM50.7146 32.8661C51.6713 31.5526 52.0586 29.6112 52.0586 27.2383H50.0586C50.0586 29.4747 49.6777 30.8927 49.0979 31.6886L50.7146 32.8661ZM52.0586 27.2383C52.0586 25.1596 51.6552 23.4024 50.7213 22.0886L49.0912 23.2473C49.6938 24.095 50.0586 25.3846 50.0586 27.2383H52.0586ZM50.7213 22.0886C49.7545 20.7286 48.3617 20.0469 46.6641 20.0469V22.0469C47.7529 22.0469 48.5215 22.4459 49.0912 23.2473L50.7213 22.0886ZM46.6641 20.0469C44.9754 20.0469 43.5937 20.7322 42.6412 22.0952L44.2806 23.2408C44.8386 22.4423 45.5923 22.0469 46.6641 22.0469V20.0469ZM42.6445 22.0905C41.7109 23.4104 41.3281 25.3222 41.3281 27.6484H43.3281C43.3281 25.4695 43.7005 24.061 44.2774 23.2454L42.6445 22.0905ZM65.375 16.8672L66.3724 16.7954L66.3056 15.8672H65.375V16.8672ZM65.5508 19.3086L64.5534 19.3804L64.7367 21.927L66.3317 19.9333L65.5508 19.3086ZM76.625 18.4492L77.3938 17.8098L76.625 18.4492ZM78.3047 24.3477L79.3047 24.3477L79.3046 24.3377L78.3047 24.3477ZM78.3047 38V39H79.3047V38H78.3047ZM72.6602 38H71.6602V39H72.6602V38ZM71.8789 21.8867L71.1547 22.5764L71.1631 22.585L71.8789 21.8867ZM65.707 23.0977L64.8445 22.5917L64.707 22.826V23.0977H65.707ZM65.707 38V39H66.707V38H65.707ZM60.0625 38H59.0625V39H60.0625V38ZM60.0625 16.8672V15.8672H59.0625V16.8672H60.0625ZM64.3776 16.939L64.5534 19.3804L66.5482 19.2368L66.3724 16.7954L64.3776 16.939ZM66.3317 19.9333C67.6416 18.2959 69.3721 17.4766 71.625 17.4766V15.4766C68.7998 15.4766 66.4808 16.5453 64.7699 18.6839L66.3317 19.9333ZM71.625 17.4766C73.666 17.4766 75.0075 18.0682 75.8562 19.0887L77.3938 17.8098C76.055 16.2 74.0632 15.4766 71.625 15.4766V17.4766ZM75.8562 19.0887C76.7425 20.1543 77.2798 21.8543 77.3047 24.3576L79.3046 24.3377C79.2775 21.6066 78.695 19.3743 77.3938 17.8098L75.8562 19.0887ZM77.3047 24.3477V38H79.3047V24.3477H77.3047ZM78.3047 37H72.6602V39H78.3047V37ZM73.6602 38V24.4844H71.6602V38H73.6602ZM73.6602 24.4844C73.6602 23.1769 73.3815 21.9949 72.5947 21.1884L71.1631 22.585C71.418 22.8463 71.6602 23.396 71.6602 24.4844H73.6602ZM72.603 21.1971C71.806 20.3602 70.6059 20.0664 69.2812 20.0664V22.0664C70.3785 22.0664 70.9101 22.3195 71.1548 22.5764L72.603 21.1971ZM69.2812 20.0664C67.3431 20.0664 65.8209 20.927 64.8445 22.5917L66.5696 23.6036C67.1817 22.5599 68.0423 22.0664 69.2812 22.0664V20.0664ZM64.707 23.0977V38H66.707V23.0977H64.707ZM65.707 37H60.0625V39H65.707V37ZM61.0625 38V16.8672H59.0625V38H61.0625ZM60.0625 17.8672H65.375V15.8672H60.0625V17.8672ZM89.3594 11.6719H90.3594V10.6719H89.3594V11.6719ZM89.3594 16.8672H88.3594V17.8672H89.3594V16.8672ZM92.9727 16.8672H93.9727V15.8672H92.9727V16.8672ZM92.9727 21.0078V22.0078H93.9727V21.0078H92.9727ZM89.3594 21.0078V20.0078H88.3594V21.0078H89.3594ZM89.8086 33.2344L90.5576 32.5718L89.8086 33.2344ZM93.1875 33.6055H94.1875V32.3985L93.0016 32.6229L93.1875 33.6055ZM93.1875 37.8828L93.48 38.8391L94.1875 38.6227V37.8828H93.1875ZM83.7148 32.3945H82.7148V32.4043L82.715 32.4141L83.7148 32.3945ZM83.7148 21.0078H84.7148V20.0078H83.7148V21.0078ZM80.6289 21.0078H79.6289V22.0078H80.6289V21.0078ZM80.6289 16.8672V15.8672H79.6289V16.8672H80.6289ZM83.7148 16.8672V17.8672H84.7148V16.8672H83.7148ZM83.7148 11.6719V10.6719H82.7148V11.6719H83.7148ZM88.3594 11.6719V16.8672H90.3594V11.6719H88.3594ZM89.3594 17.8672H92.9727V15.8672H89.3594V17.8672ZM91.9727 16.8672V21.0078H93.9727V16.8672H91.9727ZM92.9727 20.0078H89.3594V22.0078H92.9727V20.0078ZM88.3594 21.0078V31.5547H90.3594V21.0078H88.3594ZM88.3594 31.5547C88.3594 32.4174 88.516 33.2824 89.0596 33.8969L90.5576 32.5718C90.5022 32.5092 90.3594 32.2544 90.3594 31.5547H88.3594ZM89.0596 33.8969C89.6604 34.5761 90.6227 34.7422 91.5273 34.7422V32.7422C91.1636 32.7422 90.9113 32.705 90.7462 32.6562C90.5832 32.608 90.549 32.5621 90.5576 32.5718L89.0596 33.8969ZM91.5273 34.7422C92.1986 34.7422 92.8163 34.6934 93.3734 34.588L93.0016 32.6229C92.5951 32.6998 92.106 32.7422 91.5273 32.7422V34.7422ZM92.1875 33.6055V37.8828H94.1875V33.6055H92.1875ZM92.895 36.9265C91.8842 37.2357 90.8435 37.3906 89.7695 37.3906V39.3906C91.0393 39.3906 92.2772 39.207 93.48 38.8391L92.895 36.9265ZM89.7695 37.3906C87.9486 37.3906 86.7492 36.9321 85.9908 36.1811C85.2306 35.4283 84.7507 34.2205 84.7147 32.375L82.715 32.4141C82.7571 34.566 83.3254 36.3562 84.5834 37.6021C85.8433 38.8498 87.6321 39.3906 89.7695 39.3906V37.3906ZM84.7148 32.3945V21.0078H82.7148V32.3945H84.7148ZM83.7148 20.0078H80.6289V22.0078H83.7148V20.0078ZM81.6289 21.0078V16.8672H79.6289V21.0078H81.6289ZM80.6289 17.8672H83.7148V15.8672H80.6289V17.8672ZM84.7148 16.8672V11.6719H82.7148V16.8672H84.7148ZM83.7148 12.6719H89.3594V10.6719H83.7148V12.6719ZM107.094 28.0977V29.0977H108.094V28.0977H107.094ZM96.0977 28.0977H95.0977V29.0977H96.0977V28.0977ZM96.0977 23.5469V22.5469H95.0977V23.5469H96.0977ZM107.094 23.5469H108.094V22.5469H107.094V23.5469ZM107.094 27.0977H96.0977V29.0977H107.094V27.0977ZM97.0977 28.0977V23.5469H95.0977V28.0977H97.0977ZM96.0977 24.5469H107.094V22.5469H96.0977V24.5469ZM106.094 23.5469V28.0977H108.094V23.5469H106.094ZM129.105 25.6758V26.6758H130.105V25.6758H129.105ZM117.855 25.6758V24.6758H116.855V25.6758H117.855ZM117.855 33.293H116.855V34.293H117.855V33.293ZM131.059 33.293H132.059V32.293H131.059V33.293ZM131.059 38V39H132.059V38H131.059ZM111.996 38H110.996V39H111.996V38ZM111.996 9.5625V8.5625H110.996V9.5625H111.996ZM131.02 9.5625H132.02V8.5625H131.02V9.5625ZM131.02 14.3086V15.3086H132.02V14.3086H131.02ZM117.855 14.3086V13.3086H116.855V14.3086H117.855ZM117.855 21.0859H116.855V22.0859H117.855V21.0859ZM129.105 21.0859H130.105V20.0859H129.105V21.0859ZM129.105 24.6758H117.855V26.6758H129.105V24.6758ZM116.855 25.6758V33.293H118.855V25.6758H116.855ZM117.855 34.293H131.059V32.293H117.855V34.293ZM130.059 33.293V38H132.059V33.293H130.059ZM131.059 37H111.996V39H131.059V37ZM112.996 38V9.5625H110.996V38H112.996ZM111.996 10.5625H131.02V8.5625H111.996V10.5625ZM130.02 9.5625V14.3086H132.02V9.5625H130.02ZM131.02 13.3086H117.855V15.3086H131.02V13.3086ZM116.855 14.3086V21.0859H118.855V14.3086H116.855ZM117.855 22.0859H129.105V20.0859H117.855V22.0859ZM128.105 21.0859V25.6758H130.105V21.0859H128.105ZM139.32 16.8672L140.318 16.7954L140.251 15.8672H139.32V16.8672ZM139.496 19.3086L138.499 19.3804L138.682 21.927L140.277 19.9333L139.496 19.3086ZM150.57 18.4492L151.339 17.8098L150.57 18.4492ZM152.25 24.3477L153.25 24.3477L153.25 24.3377L152.25 24.3477ZM152.25 38V39H153.25V38H152.25ZM146.605 38H145.605V39H146.605V38ZM145.824 21.8867L145.1 22.5764L145.108 22.585L145.824 21.8867ZM139.652 23.0977L138.79 22.5917L138.652 22.826V23.0977H139.652ZM139.652 38V39H140.652V38H139.652ZM134.008 38H133.008V39H134.008V38ZM134.008 16.8672V15.8672H133.008V16.8672H134.008ZM138.323 16.939L138.499 19.3804L140.494 19.2368L140.318 16.7954L138.323 16.939ZM140.277 19.9333C141.587 18.2959 143.317 17.4766 145.57 17.4766V15.4766C142.745 15.4766 140.426 16.5453 138.715 18.6839L140.277 19.9333ZM145.57 17.4766C147.611 17.4766 148.953 18.0682 149.801 19.0887L151.339 17.8098C150 16.2 148.009 15.4766 145.57 15.4766V17.4766ZM149.801 19.0887C150.688 20.1543 151.225 21.8543 151.25 24.3576L153.25 24.3377C153.223 21.6066 152.64 19.3743 151.339 17.8098L149.801 19.0887ZM151.25 24.3477V38H153.25V24.3477H151.25ZM152.25 37H146.605V39H152.25V37ZM147.605 38V24.4844H145.605V38H147.605ZM147.605 24.4844C147.605 23.1769 147.327 21.9949 146.54 21.1884L145.108 22.585C145.363 22.8463 145.605 23.396 145.605 24.4844H147.605ZM146.548 21.1971C145.751 20.3602 144.551 20.0664 143.227 20.0664V22.0664C144.324 22.0664 144.855 22.3195 145.1 22.5764L146.548 21.1971ZM143.227 20.0664C141.288 20.0664 139.766 20.927 138.79 22.5917L140.515 23.6036C141.127 22.5599 141.988 22.0664 143.227 22.0664V20.0664ZM138.652 23.0977V38H140.652V23.0977H138.652ZM139.652 37H134.008V39H139.652V37ZM135.008 38V16.8672H133.008V38H135.008ZM134.008 17.8672H139.32V15.8672H134.008V17.8672ZM157.875 19.4062L157.079 18.8012L157.076 18.8045L157.875 19.4062ZM169.047 18.7812L168.294 19.4389L170.047 21.4476V18.7812H169.047ZM169.047 8V7H168.047V8H169.047ZM174.711 8H175.711V7H174.711V8ZM174.711 38V39H175.711V38H174.711ZM169.613 38L168.621 38.1208L168.728 39H169.613V38ZM169.34 35.7539L170.333 35.6331L170.045 33.2716L168.559 35.1292L169.34 35.7539ZM157.914 35.4609L157.118 36.0668L157.123 36.0727L157.914 35.4609ZM169.047 31.6133L169.946 32.0509L170.047 31.8437V31.6133H169.047ZM169.047 23.2734H170.047V23.0468L169.949 22.8423L169.047 23.2734ZM156.668 27.2773C156.668 24.1256 157.372 21.7363 158.674 20.008L157.076 18.8045C155.436 20.9825 154.668 23.8406 154.668 27.2773H156.668ZM158.671 20.0113C159.957 18.32 161.68 17.4766 163.949 17.4766V15.4766C161.088 15.4766 158.762 16.5863 157.079 18.8012L158.671 20.0113ZM163.949 17.4766C165.721 17.4766 167.144 18.1221 168.294 19.4389L169.8 18.1236C168.267 16.3675 166.292 15.4766 163.949 15.4766V17.4766ZM170.047 18.7812V8H168.047V18.7812H170.047ZM169.047 9H174.711V7H169.047V9ZM173.711 8V38H175.711V8H173.711ZM174.711 37H169.613V39H174.711V37ZM170.606 37.8792L170.333 35.6331L168.347 35.8748L168.621 38.1208L170.606 37.8792ZM168.559 35.1292C167.339 36.6545 165.814 37.3906 163.91 37.3906V39.3906C166.433 39.3906 168.528 38.3689 170.121 36.3786L168.559 35.1292ZM163.91 37.3906C161.73 37.3906 160.025 36.5553 158.705 34.8492L157.123 36.0727C158.824 38.2728 161.116 39.3906 163.91 39.3906V37.3906ZM158.71 34.8551C157.39 33.122 156.668 30.6359 156.668 27.2773H154.668C154.668 30.8979 155.444 33.8676 157.119 36.0668L158.71 34.8551ZM160.312 27.6875C160.312 29.7592 160.67 31.5001 161.511 32.7858L163.184 31.6908C162.646 30.8671 162.312 29.5742 162.312 27.6875H160.312ZM161.511 32.7858C162.395 34.1372 163.721 34.8203 165.355 34.8203V32.8203C164.36 32.8203 163.68 32.4487 163.184 31.6908L161.511 32.7858ZM165.355 34.8203C166.369 34.8203 167.299 34.6057 168.1 34.1268C168.905 33.6457 169.515 32.9359 169.946 32.0509L168.148 31.1756C167.862 31.762 167.499 32.1557 167.074 32.4103C166.644 32.6671 166.086 32.8203 165.355 32.8203V34.8203ZM170.047 31.6133V23.2734H168.047V31.6133H170.047ZM169.949 22.8423C169.526 21.957 168.923 21.2453 168.124 20.7623C167.328 20.2816 166.403 20.0664 165.395 20.0664V22.0664C166.118 22.0664 166.667 22.2191 167.089 22.474C167.507 22.7267 167.865 23.1186 168.145 23.7046L169.949 22.8423ZM165.395 20.0664C163.708 20.0664 162.355 20.7807 161.482 22.1969C160.658 23.5336 160.312 25.4102 160.312 27.6875H162.312C162.312 25.5507 162.648 24.1168 163.184 23.2465C163.672 22.4557 164.36 22.0664 165.395 22.0664V20.0664Z" fill="#FAFAFA"/>
</mask>
<g mask="url(#mask1_820:1404)">
<rect x="1" y="1" width="175" height="23" fill="#FAFAFA" fill-opacity="0.5"/>
</g>
</svg>
