<svg width="459" height="267" viewBox="0 0 459 267" fill="none" xmlns="http://www.w3.org/2000/svg">
<path d="M159.653 189.158H121.945V251.401H159.653V189.158Z" fill="#134487"/>
<path d="M196.618 245.916H82.863V251.402H196.618V245.916Z" fill="#292A5B"/>
<path d="M159.653 189.158H121.945V204.24H159.653V189.158Z" fill="#342939"/>
<path d="M260.398 35.3188H18.4556V195.191H260.398V35.3188Z" fill="#292A5B"/>
<path d="M257.274 39.0261H22.177V191.784H257.274V39.0261Z" fill="#A0CDF4"/>
<path d="M62.3629 53.9516H29.9693C28.9681 53.9516 28.1599 53.1465 28.1599 52.149C28.1599 51.1516 28.9681 50.3464 29.9693 50.3464H62.3629C63.3641 50.3464 64.1723 51.1516 64.1723 52.149C64.1723 53.1465 63.3641 53.9516 62.3629 53.9516Z" fill="white"/>
<path d="M51.2957 58.2237H28.9621C28.4615 58.2237 28.0574 57.8212 28.0574 57.3224C28.0574 56.8237 28.4615 56.4211 28.9621 56.4211H51.2957C51.7963 56.4211 52.2003 56.8237 52.2003 57.3224C52.2003 57.8212 51.7963 58.2237 51.2957 58.2237Z" fill="white"/>
<path d="M51.2957 61.6307H28.9621C28.4615 61.6307 28.0574 61.2281 28.0574 60.7294C28.0574 60.2307 28.4615 59.8281 28.9621 59.8281H51.2957C51.7963 59.8281 52.2003 60.2307 52.2003 60.7294C52.2003 61.2281 51.7963 61.6307 51.2957 61.6307Z" fill="white"/>
<path d="M209.181 92.1485C233.3 92.1485 252.853 72.6691 252.853 48.6399C252.853 24.6108 233.3 5.13135 209.181 5.13135C185.061 5.13135 165.509 24.6108 165.509 48.6399C165.509 72.6691 185.061 92.1485 209.181 92.1485Z" fill="#EEEFF4"/>
<path d="M171.395 87.7081L178.802 75.2222L185.587 83.8866L171.395 87.7081Z" fill="#EEEFF4"/>
<path d="M116.306 81.2848C116.306 81.2848 107.573 65.4761 123.73 58.0855C123.73 58.0855 136.101 40.2518 139.014 53.591C139.014 53.591 148.477 55.6219 145.129 61.7087C145.129 61.7087 156.191 63.0126 154.007 71.7131C151.824 80.4136 120.383 85.4909 120.383 85.4909L116.306 81.2848Z" fill="#0D3475"/>
<path d="M151.239 97.6765C150.974 106.623 141.722 106.263 140.009 106.119C139.918 106.101 139.828 106.089 139.737 106.089L140.075 111.605L141.046 127.401H116.011V93.3262C110.19 94.3417 104.22 85.3468 110.19 79.26C116.155 73.1673 122.416 82.3064 122.416 82.3064H124.599V73.023C132.602 73.8943 129.695 60.9877 129.695 60.9877C157.789 57.653 151.528 87.8163 151.239 97.6765Z" fill="#E5954C"/>
<path d="M140.075 111.604L124.177 101.888C124.563 102.015 136.987 106.064 139.737 106.088L140.075 111.604Z" fill="#3F2E41"/>
<path d="M135.552 91.9202H146.927C146.927 91.9202 145.244 96.0601 142.572 96.0601C139.9 96.0601 137.035 93.7888 135.552 91.9202Z" fill="white"/>
<path d="M138.917 89.0841C138.706 89.0841 138.525 88.9279 138.501 88.7116C138.471 88.4833 138.64 88.273 138.869 88.2429L139.611 88.1528C141.016 87.9906 142.029 87.8704 142.198 87.576C142.379 87.2515 141.818 86.0618 141.408 85.1965C139.75 81.6815 141.36 78.9956 141.432 78.8874C141.553 78.6892 141.812 78.6291 142.011 78.7492C142.21 78.8694 142.271 79.1278 142.15 79.3261C142.09 79.4222 140.715 81.7536 142.174 84.842C142.958 86.5064 143.29 87.3536 142.934 87.9906C142.56 88.6635 141.607 88.7717 139.707 88.994L138.971 89.0841C138.947 89.0841 138.935 89.0841 138.917 89.0841Z" fill="black"/>
<path d="M135.72 77.2241C135.605 77.2903 135.46 77.3045 135.327 77.2425C133.104 76.2049 129.784 79.1456 129.751 79.1719C129.576 79.3279 129.311 79.3144 129.155 79.1406C128.998 78.9668 129.012 78.702 129.187 78.5459C129.338 78.4102 132.96 75.1979 135.686 76.4798C135.898 76.5802 135.985 76.8282 135.89 77.036C135.854 77.119 135.793 77.1819 135.72 77.2241Z" fill="black"/>
<path d="M144.259 79.9075C144.189 79.8888 144.118 79.8511 144.059 79.7918C143.898 79.6242 143.907 79.359 144.075 79.1985C145.079 78.2474 147.465 76.9378 149.279 78.8108C149.44 78.9784 149.437 79.2452 149.269 79.4057C149.101 79.5661 148.833 79.563 148.672 79.3955C146.981 77.6485 144.746 79.7205 144.654 79.8078C144.551 79.9111 144.399 79.9449 144.259 79.9075Z" fill="black"/>
<path d="M133.182 83.0455C134.054 83.0455 134.762 82.3407 134.762 81.4712C134.762 80.6018 134.054 79.897 133.182 79.897C132.309 79.897 131.601 80.6018 131.601 81.4712C131.601 82.3407 132.309 83.0455 133.182 83.0455Z" fill="#1F1923"/>
<path d="M147.325 83.8866C148.197 83.8866 148.905 83.1817 148.905 82.3123C148.905 81.4429 148.197 80.738 147.325 80.738C146.452 80.738 145.744 81.4429 145.744 82.3123C145.744 83.1817 146.452 83.8866 147.325 83.8866Z" fill="#1F1923"/>
<path d="M74.0935 191.784L82.682 144.802L116.011 115.077C116.011 115.077 120.522 124.066 128.387 123.634C136.251 123.201 140.184 113.335 140.184 113.335C140.184 113.335 145.419 121.308 149.785 123.195C154.152 125.082 171.618 137.406 178.458 150.168C185.297 162.93 185.593 191.784 185.593 191.784H74.0935Z" fill="#619ED7"/>
<path d="M209.024 191.784C209.024 191.784 199.272 156.399 195.635 149.008C195.635 149.008 217.902 130.736 219.362 124.355C219.362 124.355 210.773 126.818 203.644 133.927L203.126 132.262C203.126 132.262 219.874 122.138 220.526 115.414C220.526 115.414 208.168 118.575 199.386 125.214L198.819 124.241C198.819 124.241 214.512 114.278 214.512 110.391C214.512 110.391 214.512 109.988 212.643 110.391C210.773 110.793 193.614 120.84 193.614 120.84C193.614 120.84 198.005 114.843 198.005 110.631C198.005 110.631 177.354 125.13 176.377 132.743C175.4 140.356 175.973 147.326 175.888 149.104C175.81 150.889 172.716 191.784 172.716 191.784H209.024Z" fill="#E5954C"/>
<path d="M190.544 140.554C190.454 140.554 190.363 140.512 190.303 140.434C190.201 140.302 190.231 140.116 190.363 140.013C192.794 138.169 194.079 136.06 194.169 133.752C194.344 129.48 190.382 125.881 190.339 125.845L190.152 125.677L193.349 120.678C193.439 120.539 193.626 120.497 193.765 120.587C193.904 120.678 193.946 120.864 193.856 121.002L190.93 125.581C191.757 126.38 194.935 129.727 194.772 133.782C194.67 136.276 193.307 138.535 190.725 140.494C190.671 140.53 190.611 140.554 190.544 140.554Z" fill="black"/>
<path d="M203.638 134.227C203.481 134.227 203.349 134.107 203.337 133.951C202.969 129.39 197.124 123.49 197.07 123.436C196.955 123.315 196.955 123.129 197.07 123.009C197.191 122.889 197.378 122.895 197.498 123.009C197.746 123.255 203.554 129.126 203.94 133.903C203.952 134.071 203.831 134.215 203.662 134.227C203.65 134.227 203.644 134.227 203.638 134.227Z" fill="black"/>
<path d="M311.036 111.178H282.701C279.897 111.178 277.629 108.913 277.629 106.125V40.3721C277.629 37.5781 279.903 35.3188 282.701 35.3188H311.036C313.841 35.3188 316.108 37.5841 316.108 40.3721V106.125C316.108 108.919 313.835 111.178 311.036 111.178Z" fill="#412438"/>
<path d="M314.981 40.5884V105.938C314.981 108.144 313.183 109.928 310.97 109.928H283.063C280.85 109.928 279.053 108.144 279.053 105.938V40.5884C279.053 38.3832 280.85 36.5986 283.063 36.5986H310.97C313.183 36.5986 314.981 38.3832 314.981 40.5884Z" fill="#619ED7"/>
<path d="M315.59 56.2347C321.262 56.2347 325.861 51.6534 325.861 46.002C325.861 40.3506 321.262 35.7693 315.59 35.7693C309.917 35.7693 305.319 40.3506 305.319 46.002C305.319 51.6534 309.917 56.2347 315.59 56.2347Z" fill="#FAFAFA"/>
<path d="M308.286 51.8364L305.928 55.3274L310.186 53.5789L308.286 51.8364Z" fill="#FAFAFA"/>
<path d="M311.941 46.5428C312.604 46.5428 313.141 46.0075 313.141 45.3471C313.141 44.6867 312.604 44.1514 311.941 44.1514C311.278 44.1514 310.741 44.6867 310.741 45.3471C310.741 46.0075 311.278 46.5428 311.941 46.5428Z" fill="#A0CDF4"/>
<path d="M315.56 46.5428C316.222 46.5428 316.76 46.0075 316.76 45.3471C316.76 44.6867 316.222 44.1514 315.56 44.1514C314.897 44.1514 314.359 44.6867 314.359 45.3471C314.359 46.0075 314.897 46.5428 315.56 46.5428Z" fill="#A0CDF4"/>
<path d="M319.178 46.5428C319.841 46.5428 320.378 46.0075 320.378 45.3471C320.378 44.6867 319.841 44.1514 319.178 44.1514C318.515 44.1514 317.978 44.6867 317.978 45.3471C317.978 46.0075 318.515 46.5428 319.178 46.5428Z" fill="#A0CDF4"/>
<path d="M295.638 81.8376C303.459 81.8376 309.8 75.6825 309.8 68.0898C309.8 60.4971 303.459 54.342 295.638 54.342C287.817 54.342 281.477 60.4971 281.477 68.0898C281.477 75.6825 287.817 81.8376 295.638 81.8376Z" fill="#0D3475"/>
<path d="M301.024 83.1897L301.145 85.0764L301.422 89.4868H292.333V78.0704C292.333 78.0704 288.377 78.1485 289.487 74.0566C290.277 71.1424 294.547 73.66 294.547 74.8437L295.639 74.9218V68.096C295.639 68.096 302.309 65.5784 304.426 71.2205C304.426 71.2205 306.796 82.7931 301.024 83.1897Z" fill="url(#paint0_linear)"/>
<path d="M301.145 85.0763C299.016 84.0548 296.827 82.1982 295.608 81.0806C297.55 82.4445 301.024 83.1896 301.024 83.1896L301.145 85.0763Z" fill="#341D2F"/>
<path d="M299.782 73.5458C299.691 73.5458 299.601 73.5037 299.541 73.4256C298.931 72.6084 297.195 73.041 297.176 73.0471C297.014 73.0891 296.851 72.993 296.809 72.8368C296.766 72.6745 296.863 72.5123 297.02 72.4702C297.104 72.4462 299.161 71.9174 300.023 73.0711C300.126 73.2033 300.095 73.3956 299.963 73.4917C299.909 73.5277 299.848 73.5458 299.782 73.5458Z" fill="black"/>
<path d="M302.128 73.5577C302.043 73.5577 301.959 73.5216 301.899 73.4495C301.79 73.3233 301.808 73.1371 301.935 73.0289C302.357 72.6744 303.334 72.2237 304.046 73.0529C304.154 73.1791 304.142 73.3714 304.016 73.4796C303.889 73.5877 303.696 73.5757 303.587 73.4495C303.099 72.8787 302.399 73.4315 302.327 73.4976C302.267 73.5336 302.194 73.5577 302.128 73.5577Z" fill="black"/>
<path d="M298.003 76.7303L300.204 78.7071C300.307 78.8033 300.301 78.9715 300.186 79.0496C299.824 79.296 299.016 79.6505 298.003 78.8814C297.466 78.4668 296.549 76.1655 298.003 76.7303Z" fill="white"/>
<path d="M301.314 77.4033C301.302 77.4033 301.284 77.4033 301.271 77.4033L300.24 77.3552C300.071 77.3492 299.945 77.205 299.951 77.0428C299.957 76.8745 300.083 76.7543 300.264 76.7543L301.296 76.8024C301.308 76.8024 301.362 76.8024 301.38 76.7904C301.555 76.5681 301.223 75.4805 301.048 74.8977C300.922 74.4891 300.807 74.1045 300.753 73.7981C300.723 73.6359 300.831 73.4796 301 73.4496C301.163 73.4195 301.32 73.5277 301.35 73.6959C301.398 73.9663 301.507 74.3389 301.627 74.7294C301.935 75.7449 302.224 76.7003 301.856 77.1689C301.766 77.2711 301.603 77.4033 301.314 77.4033Z" fill="black"/>
<path d="M298.799 75.4204C299.189 75.4204 299.505 75.1057 299.505 74.7174C299.505 74.3292 299.189 74.0144 298.799 74.0144C298.409 74.0144 298.093 74.3292 298.093 74.7174C298.093 75.1057 298.409 75.4204 298.799 75.4204Z" fill="black"/>
<path d="M303.111 75.4204C303.501 75.4204 303.817 75.1057 303.817 74.7174C303.817 74.3292 303.501 74.0144 303.111 74.0144C302.721 74.0144 302.405 74.3292 302.405 74.7174C302.405 75.1057 302.721 75.4204 303.111 75.4204Z" fill="black"/>
<path d="M314.981 102.285V105.938C314.981 108.143 313.183 109.928 310.97 109.928H283.063C280.85 109.928 279.053 108.143 279.053 105.938V100.17L292.333 85.3948C292.333 85.3948 295.892 89.012 298.021 88.4652C300.156 87.9124 301.163 85.3948 301.163 85.3948L314.981 102.285Z" fill="#CEE8F9"/>
<path d="M430.816 251.402H271.2V148.984C271.2 145.98 273.643 143.54 276.664 143.54H425.358C428.374 143.54 430.822 145.974 430.822 148.984V251.402H430.816Z" fill="#134487"/>
<path d="M428.874 150.841V246.102H273.015V150.841C273.015 147.969 275.355 145.637 278.238 145.637H423.651C426.534 145.637 428.874 147.969 428.874 150.841Z" fill="#A1DDFF"/>
<path d="M302.701 188.227C317.547 188.227 329.582 176.237 329.582 161.446C329.582 146.656 317.547 134.666 302.701 134.666C287.855 134.666 275.82 146.656 275.82 161.446C275.82 176.237 287.855 188.227 302.701 188.227Z" fill="#F4F5F7"/>
<path d="M314.932 183.402L325.957 186.43L321.844 177.808L314.932 183.402Z" fill="#F4F5F7"/>
<path d="M293.136 164.523C294.508 164.523 295.62 163.414 295.62 162.047C295.62 160.68 294.508 159.571 293.136 159.571C291.763 159.571 290.651 160.68 290.651 162.047C290.651 163.414 291.763 164.523 293.136 164.523Z" fill="#4177B7"/>
<path d="M302.182 164.523C303.554 164.523 304.667 163.414 304.667 162.047C304.667 160.68 303.554 159.571 302.182 159.571C300.81 159.571 299.697 160.68 299.697 162.047C299.697 163.414 300.81 164.523 302.182 164.523Z" fill="#4177B7"/>
<path d="M311.489 164.589C312.861 164.589 313.973 163.48 313.973 162.113C313.973 160.746 312.861 159.638 311.489 159.638C310.116 159.638 309.004 160.746 309.004 162.113C309.004 163.48 310.116 164.589 311.489 164.589Z" fill="#4177B7"/>
<path d="M367.434 184.249C374.602 184.249 380.413 178.177 380.413 170.688C380.413 163.198 374.602 157.126 367.434 157.126C360.266 157.126 354.455 163.198 354.455 170.688C354.455 178.177 360.266 184.249 367.434 184.249Z" fill="#342939"/>
<path d="M332.151 188.828C332.151 188.828 340.203 185.198 341.222 182.747C341.222 182.747 344.527 172.274 356.053 173.121L366.017 184.171C366.017 184.171 367.241 192.715 359.955 193.725L343.768 181.737C343.768 181.737 342.585 181.713 342.181 183.011C341.777 184.309 339.22 191.91 332.151 188.828Z" fill="#342939"/>
<path d="M402.481 246.102H315.167C316.392 241.553 322.327 221.154 332.151 215.247C332.797 214.857 333.43 214.478 334.039 214.112C343.906 208.097 349.123 204.252 349.123 204.252V200.202C349.105 200.196 349.087 200.19 349.063 200.184C349.021 200.172 348.96 200.16 348.882 200.136C348.876 200.13 348.87 200.13 348.864 200.13C347.766 199.793 343.526 198.261 343.436 194.56C343.333 190.306 343.761 181.737 343.761 181.737C343.761 181.737 346.005 177.075 349.123 177.051C349.123 177.051 350.715 187.355 359.455 185.793C359.455 185.793 363.465 185.078 364.31 187.584C365.154 190.089 363.321 193.767 360.486 194.397C360.486 194.397 360.444 205.063 360.625 205.195C360.661 205.225 362.121 205.724 364.491 206.751L364.708 206.847C365.353 207.13 366.065 207.448 366.831 207.809L367.114 207.941C377.452 212.862 397.047 224.705 402.481 246.102Z" fill="url(#paint1_linear)"/>
<path d="M354.455 200.436L349.123 202.978V200.202C350.649 200.749 354.455 200.436 354.455 200.436Z" fill="#723B41"/>
<path d="M374.804 246.102H315.167C316.392 241.553 322.327 221.154 332.151 215.248C332.797 214.857 333.43 214.478 334.039 214.112L330.264 220.024C330.264 220.024 351.976 220.253 353.882 221.737L364.491 206.751L364.708 206.847L366.831 207.809L367.114 207.941L357.283 222.26L365.57 223.744L374.804 246.102Z" fill="white"/>
<path d="M375.13 246.102H374.485L363.653 219.622C363.586 219.466 363.659 219.291 363.815 219.231C363.966 219.165 364.147 219.237 364.207 219.394L375.13 246.102Z" fill="black"/>
<path d="M347.043 187.476C346.958 187.476 346.874 187.439 346.813 187.373C345.818 186.256 344.956 186.7 344.92 186.718C344.775 186.797 344.594 186.742 344.51 186.604C344.431 186.46 344.479 186.28 344.624 186.196C345.07 185.943 346.198 185.775 347.266 186.977C347.374 187.103 347.362 187.289 347.242 187.403C347.181 187.452 347.109 187.476 347.043 187.476Z" fill="black"/>
<path d="M350.438 188.04C350.396 188.04 350.36 188.034 350.324 188.016C350.173 187.95 350.101 187.776 350.161 187.626C350.179 187.59 350.559 186.707 351.524 186.31C352.242 186.022 353.074 186.076 354.003 186.466C354.154 186.532 354.226 186.706 354.16 186.863C354.093 187.013 353.918 187.085 353.761 187.019C352.809 186.61 352.012 186.628 351.385 187.061C350.915 187.391 350.71 187.848 350.71 187.854C350.667 187.968 350.553 188.04 350.438 188.04Z" fill="black"/>
<path d="M349.19 192.805C348.508 192.805 347.706 192.703 347.459 192.27C347.356 192.084 347.296 191.778 347.628 191.351C348.49 190.221 347.597 187.872 347.585 187.848C347.525 187.692 347.603 187.518 347.76 187.458C347.917 187.397 348.092 187.476 348.152 187.632C348.195 187.74 349.178 190.318 348.11 191.718C347.983 191.886 347.983 191.964 347.989 191.976C348.104 192.18 349.087 192.264 350.052 192.156C350.209 192.138 350.366 192.258 350.384 192.421C350.402 192.583 350.281 192.733 350.118 192.751C349.919 192.775 349.576 192.805 349.19 192.805Z" fill="black"/>
<path d="M346.421 193.995H351.825C351.825 193.995 351.156 196.098 349.666 196.098C348.176 196.098 346.94 195.99 346.421 193.995Z" fill="white"/>
<path d="M345.909 189.735C346.305 189.735 346.626 189.415 346.626 189.02C346.626 188.625 346.305 188.305 345.909 188.305C345.512 188.305 345.191 188.625 345.191 189.02C345.191 189.415 345.512 189.735 345.909 189.735Z" fill="#342939"/>
<path d="M352.338 189.735C352.734 189.735 353.056 189.415 353.056 189.02C353.056 188.625 352.734 188.305 352.338 188.305C351.942 188.305 351.62 188.625 351.62 189.02C351.62 189.415 351.942 189.735 352.338 189.735Z" fill="#342939"/>
<path d="M246.315 247.634H455.369V250.41L444.67 251.402H260.398L246.315 250.41V247.634Z" fill="#0D3475"/>
<path d="M400.298 138.427H336.862C332.495 138.427 328.949 134.9 328.949 130.544V41.9883C328.949 37.6381 332.489 34.105 336.862 34.105H400.298C404.665 34.105 408.211 37.6321 408.211 41.9883V130.544C408.205 134.894 404.665 138.427 400.298 138.427Z" fill="#524243"/>
<path d="M400.485 136.913H336.735C333.279 136.913 330.475 134.119 330.475 130.676V42.0724C330.475 38.6295 333.279 35.8354 336.735 35.8354H400.485C403.941 35.8354 406.745 38.6295 406.745 42.0724V130.676C406.745 134.125 403.941 136.913 400.485 136.913Z" fill="#4177B7"/>
<path d="M343.436 125.442C343.436 125.442 326.639 108.168 354.455 87.1974C354.455 87.1974 344.624 73.7621 355.444 61.7989C366.264 49.8357 390.721 58.6263 388.941 75.4205C388.941 75.4205 387.904 85.2746 383.604 87.4918C383.604 87.4918 383.755 113.774 382.416 119.536C381.077 125.298 343.436 125.442 343.436 125.442Z" fill="white"/>
<path d="M379.629 85.3948L382.796 102.555L366.964 105.71L366.391 102.117L365.649 97.4421C365.643 97.4421 365.643 97.4421 365.637 97.4481C365.57 97.4721 365.16 97.6344 364.527 97.7245C362.199 98.061 356.91 97.4241 355.39 85.3948C353.424 69.8144 356.916 69.1594 356.916 69.1594C356.916 69.1594 361.614 79.4582 374.605 77.8419C374.605 77.8419 379.955 72.6324 383.779 78.5089C385.196 81.8437 382.03 85.1965 379.629 85.3948Z" fill="#FAD7A1"/>
<path d="M374.738 94.7803L366.391 102.117L365.649 97.4421C369.473 96.697 374.43 94.8944 374.738 94.7803Z" fill="#453037"/>
<path d="M407.469 128.771V132.905C407.469 132.905 404.381 136.522 402.343 137.478C401.372 137.928 386.239 137.952 370.582 137.85C353.206 137.742 335.185 137.478 335.185 137.478C335.185 137.478 329.769 134.864 329.582 132.148L366.71 104.136L382.609 101.534L407.469 128.771Z" fill="#134487"/>
<path d="M407.469 128.771V132.905C407.469 132.905 404.381 136.522 402.343 137.478C401.372 137.928 386.239 137.952 370.582 137.85L382.609 101.534L407.469 128.771Z" fill="#0D3475"/>
<path d="M364.063 80.3776C364.032 80.3776 363.996 80.3716 363.966 80.3596C363.809 80.3055 363.725 80.1373 363.773 79.9811C363.785 79.951 364.726 77.2531 368.604 78.3047C368.767 78.3467 368.857 78.5149 368.815 78.6712C368.773 78.8334 368.61 78.9295 368.447 78.8815C365.136 77.9862 364.376 80.0772 364.346 80.1673C364.304 80.2995 364.189 80.3776 364.063 80.3776Z" fill="black"/>
<path d="M359.787 81.4891C359.702 81.4891 359.624 81.453 359.563 81.3869C358.134 79.8006 356.113 80.8521 356.029 80.8942C355.884 80.9723 355.697 80.9182 355.619 80.774C355.541 80.6298 355.595 80.4436 355.74 80.3654C355.764 80.3534 358.261 79.0436 360.01 80.9843C360.118 81.1105 360.112 81.2968 359.986 81.4109C359.931 81.465 359.859 81.4891 359.787 81.4891Z" fill="black"/>
<path d="M361.674 88.1827C361.433 88.1827 361.228 88.1347 361.095 88.0265C360.987 87.9364 360.824 87.7321 360.921 87.3596C361.216 86.1939 360.914 81.6874 360.914 81.6453C360.902 81.4771 361.029 81.3389 361.198 81.3269C361.355 81.3209 361.506 81.441 361.518 81.6093C361.53 81.7956 361.825 86.26 361.512 87.5158C361.5 87.5759 361.5 87.5939 361.5 87.5939C361.711 87.7321 363.025 87.3535 364.25 86.7887C364.401 86.7226 364.581 86.7827 364.648 86.9329C364.72 87.0831 364.654 87.2634 364.503 87.3295C363.864 87.6179 362.525 88.1827 361.674 88.1827Z" fill="black"/>
<path d="M365.257 91.9742C365.203 91.9742 365.16 91.9742 365.148 91.9742C364.817 91.9622 364.557 91.6798 364.569 91.3493C364.581 91.0249 364.847 90.7725 365.172 90.7725C365.178 90.7725 365.184 90.7725 365.197 90.7725C365.227 90.7725 368.152 90.8386 369.491 88.6514C369.666 88.369 370.04 88.2789 370.317 88.4532C370.6 88.6274 370.691 88.9939 370.516 89.2763C368.954 91.842 365.878 91.9742 365.257 91.9742Z" fill="black"/>
<path d="M358.23 84.4934C358.83 84.4934 359.316 84.0092 359.316 83.4119C359.316 82.8146 358.83 82.3303 358.23 82.3303C357.631 82.3303 357.145 82.8146 357.145 83.4119C357.145 84.0092 357.631 84.4934 358.23 84.4934Z" fill="black"/>
<path d="M366.879 82.7029C367.479 82.7029 367.965 82.2187 367.965 81.6214C367.965 81.024 367.479 80.5398 366.879 80.5398C366.28 80.5398 365.793 81.024 365.793 81.6214C365.793 82.2187 366.28 82.7029 366.879 82.7029Z" fill="black"/>
<path d="M194.7 52.1551C196.825 52.1551 198.548 50.4387 198.548 48.3216C198.548 46.2044 196.825 44.488 194.7 44.488C192.575 44.488 190.852 46.2044 190.852 48.3216C190.852 50.4387 192.575 52.1551 194.7 52.1551Z" fill="#4177B7"/>
<path d="M209.175 52.1551C211.3 52.1551 213.023 50.4387 213.023 48.3216C213.023 46.2044 211.3 44.488 209.175 44.488C207.05 44.488 205.327 46.2044 205.327 48.3216C205.327 50.4387 207.05 52.1551 209.175 52.1551Z" fill="#4177B7"/>
<path d="M223.65 52.1551C225.775 52.1551 227.498 50.4387 227.498 48.3216C227.498 46.2044 225.775 44.488 223.65 44.488C221.525 44.488 219.802 46.2044 219.802 48.3216C219.802 50.4387 221.525 52.1551 223.65 52.1551Z" fill="#4177B7"/>
<path d="M140.027 180.68C148.447 180.68 155.274 173.879 155.274 165.49C155.274 157.101 148.447 150.3 140.027 150.3C131.606 150.3 124.78 157.101 124.78 165.49C124.78 173.879 131.606 180.68 140.027 180.68Z" fill="white"/>
<path d="M367.923 131.98C372.752 131.98 376.668 128.079 376.668 123.267C376.668 118.455 372.752 114.555 367.923 114.555C363.093 114.555 359.177 118.455 359.177 123.267C359.177 128.079 363.093 131.98 367.923 131.98Z" fill="white"/>
<path d="M140.033 146.473C129.49 146.473 120.944 154.987 120.944 165.49C120.944 175.993 129.49 184.507 140.033 184.507C150.575 184.507 159.122 175.993 159.122 165.49C159.11 154.993 150.569 146.485 140.033 146.473ZM145.485 175.675C136.83 175.663 129.816 168.681 129.81 160.058C129.81 158.298 130.787 156.687 132.343 155.858C133.899 155.035 135.787 155.131 137.253 156.117C137.403 156.219 137.512 156.381 137.542 156.561L138.567 162.323C138.622 162.618 138.477 162.906 138.211 163.045L135.528 164.445C136.625 166.92 138.61 168.897 141.094 169.99L142.494 167.311C142.632 167.046 142.922 166.902 143.217 166.956L149.001 167.978C149.182 168.008 149.345 168.116 149.448 168.266C150.437 169.72 150.533 171.607 149.707 173.157C148.875 174.707 147.252 175.675 145.485 175.675Z" fill="#D46918"/>
<path d="M297.213 92.8274C293.166 92.8274 289.885 96.0961 289.885 100.128C289.885 104.16 293.166 107.428 297.213 107.428C301.26 107.428 304.541 104.16 304.541 100.128C304.541 96.0961 301.26 92.8274 297.213 92.8274ZM299.306 104.04C295.982 104.034 293.286 101.354 293.286 98.0429C293.286 97.3699 293.66 96.745 294.257 96.4326C294.854 96.1141 295.578 96.1562 296.145 96.5347C296.205 96.5768 296.242 96.6369 296.254 96.703L296.646 98.9141C296.664 99.0283 296.61 99.1365 296.507 99.1905L295.476 99.7253C295.898 100.675 296.658 101.432 297.611 101.852L298.148 100.825C298.202 100.723 298.31 100.669 298.425 100.687L300.644 101.077C300.717 101.089 300.777 101.131 300.813 101.185C301.193 101.744 301.229 102.465 300.91 103.066C300.608 103.667 299.987 104.04 299.306 104.04Z" fill="#D46918"/>
<path d="M367.923 112.752C362.09 112.752 357.368 117.463 357.368 123.267C357.368 129.078 362.096 133.782 367.923 133.782C373.755 133.782 378.477 129.072 378.477 123.267C378.471 117.463 373.749 112.758 367.923 112.752ZM370.938 128.903C366.149 128.897 362.271 125.034 362.265 120.263C362.265 119.29 362.802 118.4 363.664 117.944C364.527 117.487 365.57 117.541 366.379 118.088C366.463 118.142 366.523 118.232 366.541 118.334L367.108 121.519C367.138 121.681 367.06 121.843 366.909 121.915L365.426 122.691C366.035 124.06 367.132 125.154 368.502 125.755L369.28 124.271C369.358 124.127 369.515 124.048 369.678 124.072L372.88 124.637C372.983 124.655 373.067 124.709 373.127 124.794C373.676 125.599 373.731 126.638 373.272 127.497C372.814 128.363 371.915 128.903 370.938 128.903Z" fill="#D46918"/>
<path d="M350.842 225.757C346.289 225.757 342.598 229.434 342.598 233.971C342.598 238.507 346.289 242.184 350.842 242.184C355.396 242.184 359.087 238.507 359.087 233.971C359.081 229.434 355.396 225.763 350.842 225.757ZM353.201 238.369C349.461 238.363 346.434 235.347 346.427 231.621C346.427 230.864 346.85 230.167 347.519 229.807C348.195 229.452 349.009 229.494 349.642 229.921C349.708 229.963 349.751 230.035 349.769 230.113L350.209 232.601C350.233 232.727 350.167 232.853 350.058 232.913L348.9 233.514C349.377 234.583 350.233 235.437 351.307 235.911L351.91 234.752C351.97 234.637 352.097 234.577 352.223 234.601L354.72 235.04C354.799 235.052 354.871 235.1 354.913 235.166C355.342 235.797 355.384 236.608 355.028 237.281C354.66 237.948 353.96 238.369 353.201 238.369Z" fill="#D46918"/>
<path d="M419.719 155.618H402.337C401.299 155.618 400.455 154.777 400.455 153.743C400.455 152.71 401.299 151.868 402.337 151.868H419.719C420.756 151.868 421.601 152.71 421.601 153.743C421.601 154.777 420.756 155.618 419.719 155.618Z" fill="white"/>
<path d="M420.925 160.497H408.193C407.819 160.497 407.518 160.196 407.518 159.824C407.518 159.451 407.819 159.151 408.193 159.151H420.925C421.299 159.151 421.6 159.451 421.6 159.824C421.6 160.196 421.299 160.497 420.925 160.497Z" fill="white"/>
<path d="M420.78 158.057H408.048C407.674 158.057 407.373 157.757 407.373 157.384C407.373 157.012 407.674 156.711 408.048 156.711H420.78C421.154 156.711 421.456 157.012 421.456 157.384C421.456 157.757 421.154 158.057 420.78 158.057Z" fill="white"/>
<path d="M350.529 43.3944H336.198C335.505 43.3944 334.938 42.8296 334.938 42.1386C334.938 41.4476 335.505 40.8828 336.198 40.8828H350.529C351.222 40.8828 351.789 41.4476 351.789 42.1386C351.789 42.8296 351.228 43.3944 350.529 43.3944Z" fill="white"/>
<path d="M345.945 45.6776H335.571C335.221 45.6776 334.938 45.3952 334.938 45.0467C334.938 44.6982 335.221 44.4158 335.571 44.4158H345.945C346.295 44.4158 346.578 44.6982 346.578 45.0467C346.572 45.3952 346.289 45.6776 345.945 45.6776Z" fill="white"/>
<path d="M345.945 47.7987H335.571C335.221 47.7987 334.938 47.5163 334.938 47.1678C334.938 46.8193 335.221 46.5369 335.571 46.5369H345.945C346.295 46.5369 346.578 46.8193 346.578 47.1678C346.572 47.5223 346.289 47.7987 345.945 47.7987Z" fill="white"/>
<path d="M293.642 41.5077H282.828C282.466 41.5077 282.165 41.2133 282.165 40.8467C282.165 40.4862 282.46 40.1858 282.828 40.1858H293.642C294.004 40.1858 294.305 40.4802 294.305 40.8467C294.305 41.2133 294.004 41.5077 293.642 41.5077Z" fill="white"/>
<path d="M290.06 43.4245H282.575C282.352 43.4245 282.177 43.2442 282.177 43.0279C282.177 42.8056 282.358 42.6313 282.575 42.6313H290.06C290.283 42.6313 290.458 42.8116 290.458 43.0279C290.458 43.2442 290.277 43.4245 290.06 43.4245Z" fill="white"/>
<path d="M290.06 44.7824H282.575C282.352 44.7824 282.177 44.6021 282.177 44.3858C282.177 44.1635 282.358 43.9893 282.575 43.9893H290.06C290.283 43.9893 290.458 44.1695 290.458 44.3858C290.458 44.6081 290.277 44.7824 290.06 44.7824Z" fill="white"/>
<defs>
<linearGradient id="paint0_linear" x1="289.305" y1="78.4474" x2="304.992" y2="78.4474" gradientUnits="userSpaceOnUse">
<stop stop-color="#C46A18"/>
<stop offset="1" stop-color="#D2511D"/>
</linearGradient>
<linearGradient id="paint1_linear" x1="315.248" y1="211.375" x2="402.95" y2="211.375" gradientUnits="userSpaceOnUse">
<stop stop-color="#C46A18"/>
<stop offset="1" stop-color="#D2511D"/>
</linearGradient>
</defs>
</svg>
