<svg width="399" height="242" viewBox="0 0 399 242" fill="none" xmlns="http://www.w3.org/2000/svg">
<path d="M387.005 29.0673V211.171C387.005 219.746 380.058 226.708 371.489 226.708H29.5382C20.9692 226.708 14.0115 219.756 14.0115 211.171V29.0673C14.0115 20.4923 20.9585 13.5298 29.5382 13.5298H371.489C380.058 13.5298 387.005 20.4923 387.005 29.0673Z" fill="#EEEFF4"/>
<path d="M387.005 29.0673V54.4612H14.0115V29.0673C14.0115 20.4923 20.9585 13.5298 29.5382 13.5298H371.489C380.058 13.5298 387.005 20.4923 387.005 29.0673Z" fill="url(#paint0_linear)"/>
<path d="M62.9714 81.3287H29.2074C27.3827 81.3287 25.8887 79.8444 25.8887 78.0077C25.8887 76.1816 27.372 74.6866 29.2074 74.6866H62.9714C64.7962 74.6866 66.2902 76.1709 66.2902 78.0077C66.2796 79.8444 64.7962 81.3287 62.9714 81.3287ZM29.2074 75.1458C27.6281 75.1458 26.3369 76.4272 26.3369 78.0183C26.3369 79.5988 27.6174 80.8909 29.2074 80.8909H62.9714C64.5508 80.8909 65.842 79.6094 65.842 78.0183C65.842 76.4379 64.5615 75.1458 62.9714 75.1458H29.2074Z" fill="#D9DBE1"/>
<path d="M86.3737 81.3287H72.5863C70.7616 81.3287 69.2676 79.8444 69.2676 78.0077C69.2676 76.1816 70.7509 74.6866 72.5863 74.6866H86.3737C88.1985 74.6866 89.6925 76.1709 89.6925 78.0077C89.6925 79.8444 88.1985 81.3287 86.3737 81.3287ZM72.5863 75.1458C71.007 75.1458 69.7158 76.4272 69.7158 78.0183C69.7158 79.5988 70.9963 80.8909 72.5863 80.8909H86.3737C87.953 80.8909 89.2443 79.6094 89.2443 78.0183C89.2443 76.4379 87.9637 75.1458 86.3737 75.1458H72.5863Z" fill="#D9DBE1"/>
<path d="M62.9714 93.3208H29.2074C27.3827 93.3208 25.8887 91.8365 25.8887 89.9998C25.8887 88.1737 27.372 86.6787 29.2074 86.6787H62.9714C64.7962 86.6787 66.2902 88.163 66.2902 89.9998C66.2796 91.8258 64.7962 93.3208 62.9714 93.3208ZM29.2074 87.1379C27.6281 87.1379 26.3369 88.4193 26.3369 90.0105C26.3369 91.5909 27.6174 92.883 29.2074 92.883H62.9714C64.5508 92.883 65.842 91.6016 65.842 90.0105C65.842 88.43 64.5615 87.1379 62.9714 87.1379H29.2074Z" fill="#D9DBE1"/>
<path d="M86.3737 93.3208H72.5863C70.7616 93.3208 69.2676 91.8365 69.2676 89.9998C69.2676 88.1737 70.7509 86.6787 72.5863 86.6787H86.3737C88.1985 86.6787 89.6925 88.163 89.6925 89.9998C89.6925 91.8258 88.1985 93.3208 86.3737 93.3208ZM72.5863 87.1379C71.007 87.1379 69.7158 88.4193 69.7158 90.0105C69.7158 91.5909 70.9963 92.883 72.5863 92.883H86.3737C87.953 92.883 89.2443 91.6016 89.2443 90.0105C89.2443 88.43 87.9637 87.1379 86.3737 87.1379H72.5863Z" fill="#D9DBE1"/>
<path d="M62.9714 104.149H29.2074C27.3827 104.149 25.8887 102.665 25.8887 100.828C25.8887 99.0019 27.372 97.5069 29.2074 97.5069H62.9714C64.7962 97.5069 66.2902 98.9912 66.2902 100.828C66.2796 102.665 64.7962 104.149 62.9714 104.149ZM29.2074 97.9661C27.6281 97.9661 26.3369 99.2475 26.3369 100.839C26.3369 102.419 27.6174 103.711 29.2074 103.711H62.9714C64.5508 103.711 65.842 102.43 65.842 100.839C65.842 99.2582 64.5615 97.9661 62.9714 97.9661H29.2074Z" fill="#D9DBE1"/>
<path d="M86.3737 104.149H72.5863C70.7616 104.149 69.2676 102.665 69.2676 100.828C69.2676 99.0019 70.7509 97.5069 72.5863 97.5069H86.3737C88.1985 97.5069 89.6925 98.9912 89.6925 100.828C89.6925 102.665 88.1985 104.149 86.3737 104.149ZM72.5863 97.9661C71.007 97.9661 69.7158 99.2475 69.7158 100.839C69.7158 102.419 70.9963 103.711 72.5863 103.711H86.3737C87.953 103.711 89.2443 102.43 89.2443 100.839C89.2443 99.2582 87.9637 97.9661 86.3737 97.9661H72.5863Z" fill="#D9DBE1"/>
<path d="M62.9714 115.714H29.2074C27.3827 115.714 25.8887 114.23 25.8887 112.393C25.8887 110.567 27.372 109.072 29.2074 109.072H62.9714C64.7962 109.072 66.2902 110.556 66.2902 112.393C66.2796 114.219 64.7962 115.714 62.9714 115.714ZM29.2074 109.52C27.6281 109.52 26.3369 110.802 26.3369 112.393C26.3369 113.973 27.6174 115.266 29.2074 115.266H62.9714C64.5508 115.266 65.842 113.984 65.842 112.393C65.842 110.813 64.5615 109.52 62.9714 109.52H29.2074Z" fill="#D9DBE1"/>
<path d="M86.3737 115.714H72.5863C70.7616 115.714 69.2676 114.23 69.2676 112.393C69.2676 110.567 70.7509 109.072 72.5863 109.072H86.3737C88.1985 109.072 89.6925 110.556 89.6925 112.393C89.6925 114.219 88.1985 115.714 86.3737 115.714ZM72.5863 109.52C71.007 109.52 69.7158 110.802 69.7158 112.393C69.7158 113.973 70.9963 115.266 72.5863 115.266H86.3737C87.953 115.266 89.2443 113.984 89.2443 112.393C89.2443 110.813 87.9637 109.52 86.3737 109.52H72.5863Z" fill="#D9DBE1"/>
<path d="M232.208 82.7277C235.172 82.7277 237.575 80.3228 237.575 77.3563C237.575 74.3898 235.172 71.9849 232.208 71.9849C229.243 71.9849 226.84 74.3898 226.84 77.3563C226.84 80.3228 229.243 82.7277 232.208 82.7277Z" fill="#CEE8F9"/>
<path d="M232.208 100.07C235.172 100.07 237.575 97.6649 237.575 94.6984C237.575 91.7319 235.172 89.327 232.208 89.327C229.243 89.327 226.84 91.7319 226.84 94.6984C226.84 97.6649 229.243 100.07 232.208 100.07Z" fill="#D9DBE1"/>
<path d="M232.208 116.002C235.172 116.002 237.575 113.598 237.575 110.631C237.575 107.664 235.172 105.26 232.208 105.26C229.243 105.26 226.84 107.664 226.84 110.631C226.84 113.598 229.243 116.002 232.208 116.002Z" fill="url(#paint1_linear)"/>
<path d="M367.776 81.2646H247.564C245.323 81.2646 243.498 79.4386 243.498 77.1961C243.498 74.9536 245.323 73.1275 247.564 73.1275H367.776C370.017 73.1275 371.842 74.9536 371.842 77.1961C371.842 79.4386 370.017 81.2646 367.776 81.2646ZM247.564 73.5867C245.568 73.5867 243.957 75.2098 243.957 77.1961C243.957 79.193 245.579 80.8055 247.564 80.8055H367.776C369.771 80.8055 371.383 79.1823 371.383 77.1961C371.383 75.1992 369.761 73.5867 367.776 73.5867H247.564Z" fill="#D9DBE1"/>
<path d="M367.776 98.767H247.564C245.323 98.767 243.498 96.9409 243.498 94.6984C243.498 92.4559 245.323 90.6298 247.564 90.6298H367.776C370.017 90.6298 371.842 92.4559 371.842 94.6984C371.842 96.9409 370.017 98.767 367.776 98.767ZM247.564 91.089C245.568 91.089 243.957 92.7122 243.957 94.6984C243.957 96.6953 245.579 98.3078 247.564 98.3078H367.776C369.771 98.3078 371.383 96.6846 371.383 94.6984C371.383 92.7015 369.761 91.089 367.776 91.089H247.564Z" fill="#D9DBE1"/>
<path d="M367.776 114.689H247.564C245.323 114.689 243.498 112.863 243.498 110.62C243.498 108.378 245.323 106.552 247.564 106.552H367.776C370.017 106.552 371.842 108.378 371.842 110.62C371.842 112.863 370.017 114.689 367.776 114.689ZM247.564 107.011C245.568 107.011 243.957 108.634 243.957 110.62C243.957 112.607 245.579 114.23 247.564 114.23H367.776C369.771 114.23 371.383 112.607 371.383 110.62C371.383 108.634 369.761 107.011 367.776 107.011H247.564Z" fill="#D9DBE1"/>
<path d="M351.598 39.0519H76.8868C74.3577 39.0519 72.3088 37.0016 72.3088 34.4707C72.3088 31.9399 74.3577 29.8896 76.8868 29.8896H351.587C354.117 29.8896 356.165 31.9399 356.165 34.4707C356.176 36.9909 354.127 39.0519 351.598 39.0519Z" fill="white"/>
<path d="M62.4378 38.6568C65.0075 38.6568 67.0905 36.5723 67.0905 34.0009C67.0905 31.4295 65.0075 29.345 62.4378 29.345C59.8682 29.345 57.7852 31.4295 57.7852 34.0009C57.7852 36.5723 59.8682 38.6568 62.4378 38.6568Z" fill="white"/>
<path d="M48.5545 38.6568C51.1242 38.6568 53.2072 36.5723 53.2072 34.0009C53.2072 31.4295 51.1242 29.345 48.5545 29.345C45.9849 29.345 43.9019 31.4295 43.9019 34.0009C43.9019 36.5723 45.9849 38.6568 48.5545 38.6568Z" fill="white"/>
<path d="M34.4684 38.6568C37.038 38.6568 39.121 36.5723 39.121 34.0009C39.121 31.4295 37.038 29.345 34.4684 29.345C31.8988 29.345 29.8157 31.4295 29.8157 34.0009C29.8157 36.5723 31.8988 38.6568 34.4684 38.6568Z" fill="white"/>
<path d="M209.019 146.415H164.093C160.187 146.415 157.018 143.244 157.018 139.335V73.9498C157.018 70.0414 160.187 66.8698 164.093 66.8698H209.019C212.925 66.8698 216.094 70.0414 216.094 73.9498V139.346C216.094 143.254 212.925 146.415 209.019 146.415Z" fill="white"/>
<path d="M208.272 117.006H164.605V119.249H208.272V117.006Z" fill="#A0CDF4"/>
<path d="M208.272 124.449H164.605V126.692H208.272V124.449Z" fill="#A0CDF4"/>
<path d="M196.598 131.892H164.605V134.135H196.598V131.892Z" fill="#A0CDF4"/>
<path d="M208.272 75.7758H164.605V108.602H208.272V75.7758Z" fill="#FFB55E"/>
<path d="M208.272 103.06V108.602H168.681L188.573 91.1745C189.437 90.4163 190.536 89.9998 191.689 89.9998C192.265 89.9998 192.831 90.1066 193.353 90.3095C193.876 90.5124 194.378 90.8007 194.805 91.1851L208.272 103.06Z" fill="#6AA2DB"/>
<path d="M178.542 93.3635L164.615 104.929V108.591H168.692L184.048 95.1362L181.444 93.2568C180.558 92.6267 179.374 92.6694 178.542 93.3635Z" fill="#134487"/>
<path d="M174.326 88.0776C176.413 88.0776 178.104 86.3852 178.104 84.2974C178.104 82.2096 176.413 80.5172 174.326 80.5172C172.24 80.5172 170.549 82.2096 170.549 84.2974C170.549 86.3852 172.24 88.0776 174.326 88.0776Z" fill="#F4F5F7"/>
<path d="M273.399 96.706C273.399 96.706 270.069 81.0831 288.115 78.264C306.16 75.4448 315.625 97.3468 315.625 97.3468C315.625 97.3468 319.083 109.253 329.444 112.073C339.806 114.892 354.405 123.595 347.618 140.756L260.977 168.541C260.977 168.541 248.951 162.262 254.062 154.456C259.185 146.639 255.599 139.09 256.111 137.039C256.624 134.989 262.13 128.582 264.691 126.799C267.252 125.004 271.606 120.776 270.454 111.432C269.301 102.088 270.582 98.1156 273.399 96.706Z" fill="#D46918"/>
<path d="M317.93 137.488L315.412 160.992L294.443 159.059L293.472 142.998C293.472 142.998 296.278 143.094 295.691 140.777C295.52 140.072 295.222 138.919 294.88 137.659C294.112 134.765 293.173 131.294 293.173 131.294H293.162C292.714 131.401 275.234 135.395 275.949 100.412C275.949 100.412 282.224 106.434 291.177 100.412C293.098 99.5145 296.684 100.924 296.684 105.281C296.684 109.638 303.076 108.356 304.356 105.281C305.637 102.206 310.567 100.337 312.499 102.953C314.43 105.569 314.334 111.272 308.732 114.849C308.742 114.849 303.332 131.679 317.93 137.488Z" fill="#FAD7A1"/>
<path d="M302.916 124.438C302.916 124.438 301.806 132.821 294.891 137.659C294.122 134.765 293.183 131.294 293.183 131.294C293.183 131.294 301.187 127.77 302.916 124.438Z" fill="#F2B771"/>
<path d="M284.967 106.125C284.871 106.125 284.764 106.093 284.678 106.028C284.486 105.868 284.454 105.591 284.614 105.398C284.636 105.366 287.229 102.248 291.369 104.17C291.594 104.277 291.69 104.544 291.594 104.768C291.487 104.993 291.22 105.089 290.996 104.993C287.506 103.369 285.404 105.868 285.319 105.975C285.223 106.061 285.095 106.125 284.967 106.125Z" fill="#E5954C"/>
<path d="M276.035 107.096C275.939 107.096 275.842 107.064 275.768 107C275.565 106.851 275.533 106.562 275.682 106.37C277.443 104.042 279.972 104.64 281.05 105.281C281.263 105.409 281.338 105.687 281.21 105.9C281.082 106.114 280.805 106.189 280.591 106.06C280.484 105.996 278.105 104.662 276.397 106.915C276.312 107.032 276.173 107.096 276.035 107.096Z" fill="#E5954C"/>
<path d="M285.372 118.64C284.486 118.64 283.494 118.49 283.003 117.882C282.608 117.401 282.576 116.761 282.907 115.981C284.006 113.343 282.32 108.111 282.309 108.057C282.235 107.822 282.363 107.566 282.598 107.491C282.832 107.417 283.088 107.545 283.163 107.78C283.238 108.004 284.967 113.386 283.739 116.323C283.558 116.771 283.537 117.102 283.707 117.305C284.145 117.839 285.831 117.796 286.887 117.593C287.133 117.54 287.368 117.711 287.421 117.946C287.464 118.191 287.314 118.426 287.069 118.48C286.898 118.512 286.183 118.64 285.372 118.64Z" fill="#CF6A37"/>
<path d="M287.698 122.442C285.906 122.442 284.7 121.523 284.678 121.513C284.486 121.363 284.444 121.075 284.604 120.882C284.753 120.69 285.041 120.648 285.233 120.808C285.361 120.904 288.275 123.082 291.807 119.548C291.988 119.366 292.266 119.366 292.447 119.548C292.629 119.729 292.629 120.007 292.447 120.188C290.697 121.94 289.032 122.442 287.698 122.442Z" fill="#CF6A37"/>
<path d="M288.253 111.218C288.966 111.218 289.544 110.482 289.544 109.574C289.544 108.666 288.966 107.929 288.253 107.929C287.54 107.929 286.962 108.666 286.962 109.574C286.962 110.482 287.54 111.218 288.253 111.218Z" fill="#1E1401"/>
<path d="M280.26 112.275C280.974 112.275 281.552 111.539 281.552 110.631C281.552 109.723 280.974 108.986 280.26 108.986C279.547 108.986 278.969 109.723 278.969 110.631C278.969 111.539 279.547 112.275 280.26 112.275Z" fill="#1E1401"/>
<path d="M363.689 176.518C363.689 176.518 373.336 170.549 373.944 165.199C371.97 164.056 359.25 166.758 359.25 166.758L363.689 176.518Z" fill="#4177B7"/>
<path d="M286.962 191.18C286.962 191.18 285.948 197.876 283.537 204.892C280.687 213.178 275.907 221.913 268.565 220.664C256.09 218.539 262.397 191.746 263.485 187.475C263.581 187.101 263.635 186.898 263.635 186.898L286.962 191.18Z" fill="#FAD7A1"/>
<path d="M286.962 191.18C286.962 191.18 285.948 197.876 283.537 204.892C278.574 202.532 267.338 196.37 263.496 187.475C263.592 187.101 263.645 186.898 263.645 186.898L286.962 191.18Z" fill="#F2B771"/>
<path d="M336.754 181.473L347.255 204.208L297.046 219.489L285.212 193.508C285.212 193.508 255.354 190.006 250.082 186.578L257.403 174.82C257.403 174.82 267.466 161.461 271.361 155.15C275.256 148.839 283.814 140.777 294.517 142.849C294.517 142.849 296.011 140.862 295.019 137.701L303.236 143.842L311.613 133.537C311.613 133.537 313.502 136.164 318.016 137.317C320.63 137.99 324.12 138.161 328.633 137.029C340.927 133.953 349.805 137.862 359.516 148.572C369.227 159.283 373.965 165.188 373.965 165.188C373.965 165.188 349.122 167.025 336.754 181.473Z" fill="#A0CDF4"/>
<path d="M318.005 137.317C316.372 143.148 308.945 155.118 305.914 155.193C302.884 155.279 302.724 150.003 302.724 150.003C302.809 152.235 301.849 152.876 301.849 152.876C296.342 152.79 294.496 142.838 294.496 142.838C294.496 142.838 295.99 140.852 294.998 137.691L303.215 143.831L311.591 133.526C311.602 133.537 313.502 136.174 318.005 137.317Z" fill="white"/>
<path d="M326.28 159.88L325.471 160.291L336.336 181.68L337.144 181.269L326.28 159.88Z" fill="#4177B7"/>
<path d="M284.764 193.615C284.753 193.583 283.931 190.337 280.165 184.955C277.699 181.431 278.852 176.113 279.876 171.414C280.666 167.794 281.402 164.387 280.421 162.391L281.232 161.985C282.363 164.259 281.584 167.826 280.762 171.606C279.738 176.337 278.671 181.238 280.911 184.431C284.796 189.974 285.618 193.263 285.65 193.391L284.764 193.615Z" fill="#4177B7"/>
<path d="M360.978 226.505L347.778 198.965L309.18 213.541L293.664 212.73L281.285 226.505H360.978Z" fill="url(#paint2_linear)"/>
<path d="M315.785 206.963L314.921 206.718C314.974 206.536 316.137 202.19 311.762 199.339C307.291 196.434 306.448 194.779 309.478 189.45C310.748 187.218 305.989 168.146 302.489 155.877L303.353 155.631C304.26 158.792 312.125 186.631 310.268 189.899C307.494 194.8 308.166 195.922 312.264 198.591C314.846 200.268 315.668 202.457 315.903 203.995C316.159 205.65 315.807 206.91 315.785 206.963Z" fill="#4177B7"/>
<path d="M309.222 167.207C310.189 167.207 310.973 166.422 310.973 165.455C310.973 164.488 310.189 163.704 309.222 163.704C308.256 163.704 307.472 164.488 307.472 165.455C307.472 166.422 308.256 167.207 309.222 167.207Z" fill="white"/>
<path d="M312.008 179.327C312.974 179.327 313.758 178.543 313.758 177.576C313.758 176.608 312.974 175.824 312.008 175.824C311.041 175.824 310.258 176.608 310.258 177.576C310.258 178.543 311.041 179.327 312.008 179.327Z" fill="white"/>
<path d="M358.524 220.482L312.595 226.911H276.216C276.216 226.911 276.643 221.198 281.21 220.344C285.778 219.489 345.27 199.915 345.27 199.915L341.236 191.169L336.754 181.463C336.754 181.463 345.27 171.104 361.501 167.474C361.501 167.474 372.354 195.633 372.781 198.346C373.208 201.058 375.641 214.342 358.524 220.482Z" fill="#FAD7A1"/>
<path d="M361.501 167.484C351.043 172.599 344.054 185.211 341.236 191.17L336.754 181.463C336.754 181.473 347.074 169.748 361.501 167.484Z" fill="#F2B771"/>
<path d="M313.79 226.911H271.841V222.672H310.567C311.431 222.672 312.21 223.184 312.552 223.985L313.79 226.911Z" fill="#D9DBE1"/>
<path d="M283.867 224.423H278.372V225.512H283.867V224.423Z" fill="#969BAB"/>
<path d="M290.708 224.423H285.212V225.512H290.708V224.423Z" fill="#969BAB"/>
<path d="M293.76 224.423H291.967V225.512H293.76V224.423Z" fill="#969BAB"/>
<path d="M274.05 226.911H197.473L189.042 176.294C188.562 173.379 190.814 170.72 193.759 170.72H261.618C263.592 170.72 265.278 172.151 265.588 174.105L274.05 226.911Z" fill="#D9DBE1"/>
<path d="M274.05 226.911H268.511C266.527 214.983 261.073 182.103 260.625 177.682C260.07 172.268 256.442 170.72 256.442 170.72H261.618C263.592 170.72 265.278 172.151 265.587 174.105L274.05 226.911Z" fill="#969BAB"/>
<path d="M227.203 204.657C230.433 204.657 233.051 202.037 233.051 198.805C233.051 195.573 230.433 192.953 227.203 192.953C223.973 192.953 221.355 195.573 221.355 198.805C221.355 202.037 223.973 204.657 227.203 204.657Z" fill="white"/>
<path d="M354.008 196.971L292.802 216.714L292.94 217.141L354.145 197.398L354.008 196.971Z" fill="#CF6A37"/>
<path d="M196.373 141.193C196.373 141.193 191.988 151.092 191.881 154.157L191.827 154.296L188.605 162.636L169.578 211.918C169.407 212.356 169.194 212.772 168.938 213.168C167.337 215.656 161.126 224.797 155.662 226.121C155.662 226.121 143.732 228.064 138.941 224.903L124.556 226.228H27.8416C27.8416 226.228 13.3073 217.29 20.9693 196.423C25.7073 183.502 33.1452 163.971 38.3742 150.569C41.5862 142.325 43.9659 136.399 44.3714 135.758C45.4386 134.06 47.6795 118.886 91.656 117.423C118.249 125.56 122.197 125.154 122.197 125.154L124.79 125.101C124.79 125.101 134.16 128.379 139.303 133.644C140.392 134.754 141.299 135.961 141.875 137.242C145.205 144.579 151.607 190.443 151.607 190.443L169.877 154.638L174.124 146.308C174.124 146.308 174.134 146.287 174.156 146.234C174.625 145.016 181.583 129.575 179.63 114.059L181.508 113.108C181.508 113.108 184.966 115.949 185.478 125.154C185.478 125.154 189.661 123.638 190.376 126.606L196.427 123.232L197.323 124.342L195.989 127.439C195.957 127.407 202.488 132.512 196.373 141.193Z" fill="#F2B771"/>
<path d="M196.373 141.193C196.373 141.193 191.988 151.092 191.881 154.157L191.827 154.296L174.124 146.298C174.124 146.298 180.42 130.248 178.873 114.518C178.798 113.739 179.214 112.991 179.918 112.628C180.857 112.137 182.01 112.5 182.522 113.429C183.589 115.404 185.137 119.227 185.467 125.154C185.467 125.154 189.651 123.638 190.365 126.606L195.989 122.944C196.619 122.538 197.441 122.677 197.91 123.264C198.326 123.798 198.326 124.545 197.899 125.069L195.979 127.439C195.957 127.407 202.488 132.512 196.373 141.193Z" fill="#D46918"/>
<path d="M191.827 154.285L188.605 162.625L169.866 154.627L174.113 146.298C174.113 146.298 174.124 146.276 174.145 146.223L191.827 154.285Z" fill="white"/>
<path d="M96.1057 204.924L92.136 226.217H102.039L105.795 206.258L96.1057 204.924Z" fill="white"/>
<path d="M139.292 133.622C136.198 136.847 132.281 140.969 127.362 146.223C107.716 167.132 92.5095 147.472 88.273 141.994C84.0471 136.516 70.1104 123.819 60.2395 138.759C53.6979 148.658 44.1044 150.462 38.3633 150.559C41.5753 142.315 43.955 136.388 44.3606 135.747C45.4277 134.049 47.6687 118.875 91.6451 117.412C118.238 125.549 122.186 125.143 122.186 125.143L124.779 125.09C124.779 125.079 134.149 128.358 139.292 133.622Z" fill="#E5954C"/>
<path d="M181.231 134.391C181.167 134.391 181.103 134.359 181.06 134.306C180.985 134.209 180.996 134.071 181.092 133.985L190.205 126.403C190.301 126.318 190.44 126.339 190.525 126.435C190.6 126.532 190.589 126.67 190.493 126.756L181.38 134.338C181.337 134.37 181.284 134.391 181.231 134.391Z" fill="#691515"/>
<path d="M185.275 131.027C185.265 131.027 185.254 131.027 185.254 131.027C185.126 131.017 185.041 130.899 185.051 130.782C185.382 127.856 185.233 125.175 185.233 125.154C185.222 125.026 185.318 124.919 185.446 124.919C185.563 124.908 185.681 125.005 185.681 125.133C185.681 125.165 185.83 127.877 185.499 130.835C185.489 130.942 185.382 131.027 185.275 131.027Z" fill="#691515"/>
<path d="M190.739 148.252C190.696 148.252 190.654 148.241 190.611 148.209C190.504 148.134 190.483 147.996 190.558 147.9C190.579 147.868 193.076 144.226 192.382 140.617C192.041 138.812 190.952 137.306 189.17 136.132L188.968 135.993L196.171 126.788L196.203 127.397C196.619 136.783 193.385 140.136 192.852 140.617C193.524 144.386 191.048 147.996 190.942 148.156C190.878 148.22 190.803 148.252 190.739 148.252ZM189.618 135.886C191.251 137.018 192.286 138.428 192.724 140.093C193.514 139.228 195.979 135.875 195.765 128.037L189.618 135.886Z" fill="#691515"/>
<path d="M196.373 141.418C196.363 141.418 196.363 141.418 196.352 141.418C196.331 141.418 195.712 141.343 195.135 140.852C194.613 140.403 194.036 139.495 194.218 137.755C194.228 137.627 194.346 137.541 194.463 137.552C194.591 137.563 194.677 137.68 194.666 137.798C194.538 139.036 194.794 139.944 195.434 140.499C195.904 140.905 196.405 140.958 196.405 140.958C196.533 140.969 196.619 141.087 196.608 141.204C196.576 141.332 196.48 141.418 196.373 141.418Z" fill="#691515"/>
<path d="M105.934 206.654L140.947 213.007C140.947 213.007 156.922 217.386 159.653 221.433C162.385 225.48 142.473 218.582 142.473 218.582C142.473 218.582 140.616 224.957 138.748 225.811C136.817 226.687 102.156 226.441 102.156 226.441L105.934 206.654Z" fill="#D46918"/>
<path d="M124.534 211.438C124.534 211.438 125.975 214.897 121.311 218.005L120.394 226.527H109.808L111.014 216.158C111.014 216.158 108.623 213.766 108.943 211.662C109.263 209.558 124.534 211.438 124.534 211.438Z" fill="#134487"/>
<path d="M117.053 216.916C121.539 216.916 125.174 214.344 125.174 211.171C125.174 207.998 121.539 205.426 117.053 205.426C112.568 205.426 108.933 207.998 108.933 211.171C108.933 214.344 112.568 216.916 117.053 216.916Z" fill="white"/>
<path d="M117 212.025L114.556 208.106L114.941 207.871L117.096 211.32L119.145 209.377L119.455 209.708L117 212.025Z" fill="#4177B7"/>
<path d="M115.901 222.234C116.614 222.234 117.192 221.655 117.192 220.942C117.192 220.228 116.614 219.65 115.901 219.65C115.188 219.65 114.61 220.228 114.61 220.942C114.61 221.655 115.188 222.234 115.901 222.234Z" fill="#D46918"/>
<path d="M105.945 207.102C105.923 207.102 105.902 207.102 105.881 207.102L44.4994 198.666C44.2539 198.634 44.0832 198.41 44.1152 198.153C44.1472 197.908 44.3713 197.726 44.6274 197.769L106.009 206.205C106.254 206.237 106.425 206.461 106.393 206.718C106.35 206.942 106.158 207.102 105.945 207.102Z" fill="#F39035"/>
<path d="M58.7668 200.631C58.7241 200.631 58.6921 200.631 58.6494 200.62C58.404 200.556 58.2653 200.31 58.3293 200.065L70.4839 154.307C70.5479 154.061 70.7934 153.922 71.0388 153.986C71.2842 154.05 71.423 154.296 71.3589 154.542L59.2043 200.3C59.151 200.492 58.9696 200.631 58.7668 200.631Z" fill="#F39035"/>
<path d="M125.505 210.658C125.473 210.658 125.441 210.658 125.409 210.647C125.164 210.594 125.014 210.359 125.057 210.113L135.109 162.529C135.163 162.284 135.398 162.134 135.643 162.177C135.888 162.23 136.038 162.465 135.995 162.711L125.943 210.295C125.9 210.509 125.719 210.658 125.505 210.658Z" fill="#F39035"/>
<path d="M152.184 200.631C151.949 200.631 151.746 200.449 151.735 200.204L151.148 190.454C151.138 190.208 151.319 189.995 151.575 189.974C151.821 189.963 152.034 190.144 152.055 190.401L152.642 200.15C152.653 200.396 152.472 200.609 152.216 200.631C152.194 200.631 152.184 200.631 152.184 200.631Z" fill="#F39035"/>
<path d="M106.542 139.72L115.186 127.546V135.662L124.78 125.079L122.187 121.021L115.784 126.585L98.6777 110.556L91.6453 117.401L106.542 139.72Z" fill="white"/>
<path d="M101.367 91.2279C101.367 91.2279 98.0692 77.7407 104.419 74.772C104.419 74.772 104.355 71.0558 105.657 68.7065C106.83 66.5922 111.75 59.5122 123.616 63.8798C135.483 68.2474 141.747 65.9087 139.826 80.3677C139.826 80.3677 147.99 81.1579 145.108 91.8472C145.108 91.8472 143.113 92.6695 142.942 94.645C142.771 96.6206 140.413 100.529 134.533 97.9981C128.653 95.4566 101.367 91.2279 101.367 91.2279Z" fill="#292A5B"/>
<path d="M137.809 90.2027C137.425 90.1172 135.088 90.8647 134.426 99.4718C133.594 110.172 123.222 116.12 123.222 116.12L122.197 121.011L118.622 123.926L115.794 126.574L98.6882 110.546L105.614 98.2544C98.048 90.6725 101.569 82.6208 103.661 82.1509C108.058 81.1685 107.46 91.1103 107.46 91.1103L108.495 92.1675C108.495 92.1675 110.064 85.5895 109.071 83.379C108.058 81.1578 109.392 80.154 109.392 80.154C114.247 80.0579 115.741 74.2915 116.104 73.3197C116.467 72.3586 121.151 75.4447 122.859 78.7978C124.566 82.1509 132.474 80.9763 132.474 80.9763C132.185 84.0838 136.774 89.1241 137.809 90.2027Z" fill="#D46918"/>
<path d="M138.642 91.3987L137.841 90.5765L138.001 90.4163L137.82 90.5551C137.788 90.5231 137.724 90.459 137.628 90.3629L137.137 89.829L137.841 89.9892C138.001 90.0212 138.129 90.1493 138.204 90.3309L138.642 91.3987Z" fill="#1E1401"/>
<path d="M122.218 116.611C119.903 116.611 110.501 115.757 107.545 102.12C107.492 101.874 107.652 101.64 107.887 101.586C108.132 101.533 108.367 101.693 108.42 101.928C109.744 108.036 112.636 112.361 116.776 114.411C119.881 115.949 122.613 115.693 122.635 115.693C122.88 115.671 123.104 115.842 123.126 116.098C123.147 116.344 122.976 116.568 122.72 116.59C122.731 116.59 122.539 116.611 122.218 116.611Z" fill="#691515"/>
<path d="M123.734 85.8138C123.563 85.8138 123.392 85.7177 123.318 85.5468C121.717 81.9267 116.776 82.7063 116.723 82.717C116.477 82.7597 116.243 82.5888 116.2 82.3432C116.157 82.0976 116.328 81.8627 116.573 81.82C116.627 81.8093 122.261 80.923 124.139 85.1837C124.235 85.408 124.139 85.6749 123.905 85.7817C123.851 85.7924 123.787 85.8138 123.734 85.8138Z" fill="#470C03"/>
<path d="M135.558 90.9716C135.419 90.9716 135.28 90.9075 135.195 90.7793C132.196 86.6146 129.582 88.3019 129.475 88.3766C129.272 88.5155 128.984 88.4621 128.845 88.2592C128.707 88.0563 128.76 87.7786 128.963 87.6291C128.995 87.6078 132.388 85.3332 135.931 90.2454C136.08 90.4483 136.027 90.7259 135.824 90.8754C135.739 90.9502 135.643 90.9716 135.558 90.9716Z" fill="#470C03"/>
<path d="M125.399 100.625C124.235 100.625 122.528 99.5679 121.941 99.1834C121.738 99.0446 121.674 98.767 121.813 98.5534C121.952 98.3505 122.229 98.2864 122.443 98.4252C123.777 99.3009 125.303 99.9203 125.591 99.696C125.633 99.6533 125.708 99.3863 125.431 98.6281C124.033 94.8479 126.839 89.2202 126.957 88.9853C127.074 88.761 127.341 88.6756 127.565 88.7824C127.789 88.8999 127.874 89.1668 127.768 89.3911C127.736 89.4445 125.014 94.9013 126.274 98.3185C126.412 98.7029 126.839 99.8562 126.146 100.401C125.943 100.561 125.687 100.625 125.399 100.625Z" fill="#691515"/>
<path d="M122.026 105.452C120.97 105.452 120.074 105.174 119.337 104.608C117.619 103.295 117.512 100.956 117.512 100.849C117.502 100.476 117.79 100.166 118.163 100.155C118.526 100.134 118.846 100.433 118.857 100.807C118.857 100.839 118.953 102.622 120.159 103.54C120.938 104.128 122.037 104.256 123.456 103.914C123.819 103.829 124.182 104.053 124.267 104.416C124.353 104.779 124.129 105.142 123.766 105.228C123.158 105.377 122.571 105.452 122.026 105.452Z" fill="white"/>
<path d="M120.834 88.9366C121.006 87.883 120.739 86.9628 120.239 86.8814C119.739 86.7999 119.194 87.588 119.023 88.6416C118.852 89.6952 119.118 90.6153 119.618 90.6968C120.119 90.7783 120.663 89.9902 120.834 88.9366Z" fill="#1E1401"/>
<path d="M131.677 93.5987C131.849 92.5451 131.582 91.6249 131.082 91.5435C130.581 91.462 130.037 92.2501 129.866 93.3037C129.694 94.3573 129.961 95.2775 130.461 95.3589C130.961 95.4404 131.506 94.6523 131.677 93.5987Z" fill="#1E1401"/>
<path d="M306.256 112.222C306.224 112.222 306.181 112.222 306.149 112.211C305.861 112.147 305.68 111.87 305.733 111.581C305.765 111.432 306.544 107.865 308.881 106.381C309.852 105.762 310.951 105.591 312.136 105.868C312.424 105.932 312.605 106.221 312.531 106.509C312.467 106.797 312.178 106.968 311.89 106.904C310.983 106.691 310.183 106.808 309.457 107.267C307.504 108.506 306.789 111.752 306.779 111.784C306.725 112.051 306.501 112.222 306.256 112.222Z" fill="#CF6A37"/>
<path d="M308.038 126.307C307.75 126.307 307.472 126.222 307.216 126.062C306.757 125.752 306.512 125.229 306.565 124.684L309.361 110.994L316.468 119.783C316.767 120.05 316.938 120.519 316.884 120.989C316.831 121.459 316.543 121.876 316.127 122.111L308.742 126.136C308.518 126.254 308.283 126.307 308.038 126.307ZM309.959 113.418L307.632 124.844C307.622 125.015 307.76 125.133 307.825 125.175C307.889 125.218 308.049 125.303 308.241 125.197L315.625 121.171C315.743 121.107 315.817 120.989 315.839 120.861C315.849 120.733 315.807 120.605 315.711 120.509L309.959 113.418Z" fill="white"/>
<defs>
<linearGradient id="paint0_linear" x1="-2538.94" y1="52.4837" x2="-466.212" y2="-1049.74" gradientUnits="userSpaceOnUse">
<stop stop-color="#114380"/>
<stop offset="1" stop-color="#2A2A5B"/>
</linearGradient>
<linearGradient id="paint1_linear" x1="226.85" y1="110.6" x2="237.633" y2="110.6" gradientUnits="userSpaceOnUse">
<stop stop-color="#C46A18"/>
<stop offset="1" stop-color="#D2511D"/>
</linearGradient>
<linearGradient id="paint2_linear" x1="281.359" y1="212.655" x2="361.405" y2="212.655" gradientUnits="userSpaceOnUse">
<stop stop-color="#C46A18"/>
<stop offset="1" stop-color="#D2511D"/>
</linearGradient>
</defs>
</svg>
