<svg width="399" height="354" viewBox="0 0 399 354" fill="none" xmlns="http://www.w3.org/2000/svg">
<path d="M309.467 316.341C307.81 317.343 305.924 318.455 304.558 319.132C301.535 320.606 297.714 317.984 296.578 317.041V314.625L309.225 314.069C309.225 314.057 309.285 314.963 309.467 316.341Z" stroke="black" stroke-width="0.5" stroke-miterlimit="10"/>
<path d="M34.2295 329.691C36.6601 329.691 38.6305 327.722 38.6305 325.293C38.6305 322.864 36.6601 320.896 34.2295 320.896C31.7988 320.896 29.8284 322.864 29.8284 325.293C29.8284 327.722 31.7988 329.691 34.2295 329.691Z" fill="#474A57"/>
<path d="M55.1103 329.691C57.541 329.691 59.5114 327.722 59.5114 325.293C59.5114 322.864 57.541 320.896 55.1103 320.896C52.6797 320.896 50.7092 322.864 50.7092 325.293C50.7092 327.722 52.6797 329.691 55.1103 329.691Z" fill="#474A57"/>
<path d="M359.414 330.791C361.845 330.791 363.815 328.822 363.815 326.393C363.815 323.964 361.845 321.995 359.414 321.995C356.984 321.995 355.013 323.964 355.013 326.393C355.013 328.822 356.984 330.791 359.414 330.791Z" fill="#18191F"/>
<path d="M338.533 330.791C340.964 330.791 342.935 328.822 342.935 326.393C342.935 323.964 340.964 321.995 338.533 321.995C336.103 321.995 334.132 323.964 334.132 326.393C334.132 328.822 336.103 330.791 338.533 330.791Z" fill="#18191F"/>
<path d="M30.6747 222.525V261.67H25.1855C25.1855 261.67 23.9159 269.523 35.6441 268.303C35.6441 268.303 43.7208 275.601 52.1845 267.977H55.7876V295.077H58.109V317.633H36.1398C36.1398 317.633 33.2259 317.416 33.1655 321.391H88.5539V317.295H63.2718V294.956H65.7626V267.747H87.236V235.017L30.6747 222.525Z" fill="#474A57"/>
<path d="M362.969 223.624V262.77H368.458C368.458 262.77 369.728 270.623 358 269.403C358 269.403 349.923 276.7 341.459 269.076H337.856V296.176H335.535V318.733H357.516C357.516 318.733 360.43 318.515 360.491 322.49H305.102V318.395H330.396V296.055H327.906V268.847H306.432V236.117L362.969 223.624Z" fill="#474A57"/>
<path d="M52.1965 224.639H30.6747C23.2871 224.639 17.29 218.646 17.29 211.264V190.181C17.29 182.799 23.2871 176.807 30.6747 176.807H52.1965V224.639Z" fill="#4177B7"/>
<path d="M341.447 225.751H362.969C370.357 225.751 376.354 219.758 376.354 212.376V191.293C376.354 183.911 370.357 177.918 362.969 177.918H341.447V225.751Z" fill="#A0CDF4"/>
<path d="M52.1965 224.639H35.7892C28.4016 224.639 22.4045 218.646 22.4045 211.264V190.181C22.4045 182.799 28.4016 176.807 35.7892 176.807H52.1965V224.639Z" fill="#6AA2DB"/>
<path d="M341.447 225.751H357.855C365.242 225.751 371.239 219.758 371.239 212.376V191.293C371.239 183.911 365.242 177.918 357.855 177.918H341.447V225.751Z" fill="#CEE8F9"/>
<path d="M90.3917 264.062H22.3682C19.5631 264.062 17.29 261.791 17.29 258.988C17.29 256.185 19.5631 253.913 22.3682 253.913H90.3917V264.062Z" fill="#4177B7"/>
<path d="M303.252 265.174H371.276C374.081 265.174 376.354 262.902 376.354 260.099C376.354 257.296 374.081 255.025 371.276 255.025H303.252V265.174Z" fill="#A0CDF4"/>
<path d="M90.3916 264.062H41.2178C38.4127 264.062 36.1396 261.791 36.1396 258.988C36.1396 256.185 38.4127 253.913 41.2178 253.913H90.4036V264.062H90.3916Z" fill="#6AA2DB"/>
<path d="M303.252 265.174H352.438C355.243 265.174 357.516 262.902 357.516 260.099C357.516 257.296 355.243 255.025 352.438 255.025H303.252V265.174Z" fill="#CEE8F9"/>
<path d="M114.839 330.054C114.839 330.054 97.4044 330.428 92.0118 330.054C86.6193 329.679 86.0994 323.699 86.0994 323.699L85.7125 330.054H82.5689C82.5689 330.054 82.194 323.167 82.0369 319.132C81.8918 315.096 85.3981 308.367 85.3981 308.367L96.7757 310.01C94.3091 321.753 105.227 324.291 105.227 324.291C105.469 324.001 105.783 323.795 106.11 323.686C107.391 323.167 109.048 323.699 109.048 323.699C109.048 323.699 115.855 326.61 116.98 327.806C118.128 329.002 114.839 330.054 114.839 330.054Z" fill="#D46918"/>
<path d="M105.263 324.291C98.9157 328.181 93.6682 319.796 90.984 314.867C88.2878 309.937 85.4343 308.367 85.4343 308.367L96.8119 310.01C94.3453 321.753 105.263 324.291 105.263 324.291Z" fill="#FAD7A1"/>
<path d="M168.269 314.504C168.269 314.504 150.979 323.324 147.243 323.687C143.616 324.037 139.215 320.4 138.949 320.183L141.331 326.683L138.344 328.254C138.344 328.254 134.451 321.898 133.109 318.757C131.755 315.616 131.984 308.367 131.984 308.367L133.967 307.509L143.435 303.413C144.112 314.71 157.206 312.994 157.206 312.994C157.206 312.982 157.218 312.982 157.218 312.982C157.254 312.897 157.424 312.571 157.714 312.221C157.726 312.197 157.726 312.185 157.738 312.172C158.21 311.629 158.996 311.061 160.047 311.351C161.922 311.883 168.656 311.653 169.249 312.1C169.841 312.547 168.269 314.504 168.269 314.504Z" fill="#D46918"/>
<path d="M157.194 313.006C151.354 321.826 138.489 309.937 136.325 308.741C135.43 308.246 134.62 307.835 133.967 307.521L143.434 303.425C144.099 314.722 157.194 313.006 157.194 313.006Z" fill="#FAD7A1"/>
<path d="M157.702 312.221C157.532 312.474 157.375 312.728 157.206 312.982C157.23 312.897 157.412 312.571 157.702 312.221Z" stroke="black" stroke-width="0.8" stroke-miterlimit="10"/>
<path d="M71.2938 148.082L71.4859 147.873C71.4857 147.873 71.4861 147.873 71.4867 147.872C71.4868 147.872 71.4867 147.872 71.4868 147.872C71.4876 147.871 71.4888 147.87 71.4905 147.868C71.4924 147.865 71.495 147.862 71.4981 147.859C71.5096 147.845 71.5286 147.821 71.5532 147.787C71.6025 147.72 71.6738 147.614 71.7517 147.47C71.9073 147.182 72.0891 146.744 72.1747 146.159C72.3439 145.004 72.1468 143.206 70.478 140.797C67.1054 135.931 60.8018 132.211 53.5794 134.679L71.2938 148.082ZM71.2938 148.082L71.3785 148.356M71.2938 148.082L71.3785 148.356M71.3785 148.356C72.1922 150.996 72.7733 155.546 72.0924 159.866C71.4107 164.19 69.4907 168.154 65.4242 169.858C63.4121 170.7 60.9282 170.667 58.2856 169.998C55.6488 169.331 52.9021 168.044 50.4045 166.445C47.9071 164.847 45.679 162.95 44.0732 161.08C42.4497 159.19 41.5296 157.406 41.5002 156.027C41.4352 152.981 42.1412 148.412 44.0374 144.213M71.3785 148.356L44.0374 144.213M44.0374 144.213C45.9332 140.014 48.987 136.249 53.5793 134.679L44.0374 144.213Z" fill="#134487" stroke="#134487"/>
<path d="M74.9758 159.336C74.9758 159.336 75.8584 148.668 71.1309 144.766" stroke="#134487" stroke-miterlimit="10" stroke-linecap="round"/>
<path d="M40.6497 147.46C40.6497 147.46 42.0038 136.695 50.3949 136.127" stroke="#134487" stroke-miterlimit="10"/>
<path d="M62.4859 169.038C62.4496 171.926 62.5827 175.743 63.4653 176.807C60.8295 175.562 49.1738 170.742 49.1738 170.742C49.1738 170.742 54.1311 166.404 54.1795 158.563C54.1795 158.563 50.3225 158.14 49.9597 154.588C49.597 151.024 51.6525 148.74 55.2072 151.749C55.2072 151.749 54.784 143.908 61.4824 142.107C61.4824 142.107 67.9027 147.001 69.9823 147.943C69.9823 147.943 69.7405 150.782 69.9823 152.715C70.2241 154.636 70.0427 164.169 62.5826 165.607C62.5947 165.619 62.498 167.129 62.4859 169.038Z" fill="#FAD7A1"/>
<path d="M63.8401 177.072C63.7071 177.036 63.5741 176.94 63.4653 176.807C63.9731 177.06 64.1545 177.169 63.8401 177.072Z" stroke="black" stroke-width="0.8" stroke-miterlimit="10"/>
<path d="M62.5947 165.619C62.5947 165.619 62.498 167.129 62.4859 169.038C58.6047 168.519 55.9084 162.405 55.9084 162.405C59.3181 165.486 62.5947 165.619 62.5947 165.619Z" fill="#E57F77"/>
<path d="M58.1814 148.608C58.2298 148.559 59.2696 147.327 60.5996 147.375C61.3613 147.399 62.0505 147.822 62.6309 148.632L62.0384 149.055C61.591 148.438 61.0953 148.112 60.5633 148.1C59.6081 148.076 58.1935 148.595 58.1814 148.608Z" fill="#134487"/>
<path d="M69.3415 148.825C69.0392 148.342 67.8301 148.281 67.3102 148.257C66.754 148.269 65.4361 148.571 65.291 148.849C65.3757 148.704 66.1132 147.387 67.286 147.351C68.0598 147.327 68.7248 147.822 69.3415 148.825Z" fill="#134487"/>
<path d="M58.8103 151.253C58.8103 151.253 58.9675 150.613 60.3942 150.637C61.8209 150.674 62.1111 151.568 62.3288 152.027" stroke="black" stroke-width="0.8" stroke-miterlimit="10" stroke-linecap="round"/>
<path d="M66.0527 152.027C66.0527 152.027 66.6694 150.637 68.6644 151.157" stroke="black" stroke-width="0.8" stroke-miterlimit="10" stroke-linecap="round"/>
<path opacity="0.1" d="M64.8919 152.027C64.8919 152.027 64.6017 153.162 65.2425 153.996C65.8833 154.83 66.4033 156.412 64.5654 156.992" stroke="#18191F" stroke-width="0.75" stroke-miterlimit="10" stroke-linecap="round"/>
<path d="M62.7519 161.378C60.9503 161.402 59.5236 159.481 59.8138 157.282C59.8138 157.282 61.5548 158.285 62.5221 158.539C63.4894 158.793 66.0406 158.442 66.0406 158.442C66.0406 158.442 66.0164 161.342 62.7519 161.378Z" fill="#FAFAFA"/>
<path d="M80.7673 227.599C80.7673 227.599 107.186 225.738 111.249 227.599C115.311 229.46 117.524 231.151 124.476 244.707C131.428 258.263 151.427 300.948 151.427 300.948L123.291 313.489L105.663 263.688L80.7673 227.599Z" fill="#6AA2DB"/>
<path d="M86.3292 253.176L68.7006 253.853C68.7006 253.853 48.8715 256.728 42.5964 255.037C42.5964 255.037 26.9507 251.654 35.9584 225.738C38.8724 222.005 74.2987 217.776 74.2987 217.776L93.1122 230.317C93.1122 230.317 109.725 233.362 112.772 237.772C115.819 242.182 114.634 247.595 114.465 252.681C114.295 257.767 105.82 312.644 105.82 312.644L74.7945 308.403L86.3292 253.176Z" fill="#A0CDF4"/>
<path d="M77.2851 206.021L77.2367 219.891C77.2367 219.891 52.0151 221.22 46.8281 222.597C41.6411 223.987 35.9705 225.738 35.9705 225.738C35.9705 225.738 32.053 223.262 34.1689 220.845C36.2848 218.429 37.905 215.662 36.1035 214.091C34.2898 212.533 34.2898 211.143 35.3176 208.727C36.3453 206.311 36.043 203.242 35.378 201.913C34.713 200.584 32.8994 195.703 34.5921 190.689C34.5921 190.689 24.5808 163.009 25.2458 159.336C25.2458 159.336 28.5708 149.755 41.9676 150.166C41.9676 150.166 44.7364 149.864 45.1596 151.314C45.5827 152.752 45.0387 159.336 46.0059 160.532C46.9732 161.74 51.2534 166.501 51.2534 166.501C51.2534 166.501 51.1325 164.519 53.6111 164.519V165.957L61.5669 171.986L62.5342 174.874V171.321V168.144L64.3237 168.071L66.2098 170.657C66.2098 170.657 75.5077 170.838 76.2816 171.08C77.0675 171.321 81.5895 176.384 82.0852 178.377C82.5447 180.395 82.5447 202.275 77.2851 206.021Z" fill="#D46918"/>
<path d="M45.1354 151.338C44.4583 152.365 43.7449 153.271 43.0074 154.069C38.6305 158.841 33.4072 159.868 29.7558 159.892C27.0474 159.904 25.2217 159.36 25.2217 159.36C25.2217 159.36 26.322 156.183 29.8162 153.573C32.3795 151.64 36.2486 150.009 41.9434 150.19C41.9434 150.19 42.3303 150.142 42.8381 150.166C43.6845 150.202 44.8694 150.432 45.1354 151.338Z" fill="#994125"/>
<path d="M63.042 171.998C63.042 171.998 64.5655 173.581 64.4929 174.97C64.4929 174.97 65.5932 174.088 66.1856 170.693" stroke="#E5954C" stroke-width="0.75" stroke-miterlimit="10"/>
<path d="M62.0142 175.417L59.8741 172.626C59.8741 172.626 57.6252 175.659 58.387 177.109C58.387 177.109 53.5869 176.674 51.4468 167.032" stroke="#E5954C" stroke-width="0.75" stroke-miterlimit="10" stroke-linecap="round"/>
<path d="M67.7576 210.261C67.7576 210.261 69.148 199.267 68.338 195.763C67.54 192.272 62.498 174.898 62.498 174.898" stroke="#E5954C" stroke-miterlimit="10"/>
<path d="M74.468 177.773C74.468 177.773 76.8016 179.743 78.9175 186.665" stroke="#E5954C" stroke-miterlimit="10"/>
<path d="M52.6076 90.2519C53.0307 91.5809 52.8494 96.5828 47.4206 99.3617C47.4206 99.3617 46.2115 99.4221 45.8487 103.457C45.486 107.493 41.8587 128.66 41.8587 128.66L42.826 150.166L42.9953 154.069C38.6184 158.841 33.3951 159.868 29.7437 159.892C29.7557 158.684 29.7678 156.388 29.8041 153.573C29.8887 144.766 30.0822 130.968 30.4087 130.243C30.8923 129.156 38.0743 100.22 38.0743 100.22C38.0743 100.22 37.6511 96.897 37.1675 96.3654C36.6838 95.8217 36.8652 85.8058 41.3388 87.4368C41.3388 87.4368 42.427 85.5641 44.8452 87.2556C44.8452 87.2556 45.5586 85.2017 47.4931 86.8932C47.4931 86.8932 49.0649 84.5372 50.4554 87.316V88.4638C50.4554 88.4638 50.7577 85.5762 52.9824 86.4703C52.9703 86.4582 52.1965 88.935 52.6076 90.2519Z" fill="#FAD7A1"/>
<path d="M72.4608 162.369C71.2396 164.084 70.224 167.733 72.4608 170.633C74.6976 173.532 77.9501 174.487 78.1315 175.937C78.3128 177.387 78.4942 189.082 78.1315 192.151C77.7687 195.232 76.8982 206.625 82.2545 207.471C87.6107 208.316 90.0168 206.142 90.3796 200.536C90.7423 194.93 83.7416 175.031 83.7416 175.031C83.7416 175.031 84.0802 169.727 82.2545 167.914C82.2545 167.914 83.1371 165.136 81.2751 164.423C81.2751 164.423 80.9124 162.188 79.1592 163.215L78.0105 162.61C78.0105 162.61 77.1642 160.013 75.3505 162.369C75.3626 162.369 73.9722 160.254 72.4608 162.369Z" fill="#FAD7A1"/>
<path d="M151.463 79.8735C151.463 79.8735 146.59 79.2331 146.469 81.6495C146.348 84.0659 144.317 104.798 143.289 106.502C142.274 108.206 139.432 112.869 139.432 112.869L156.215 137.891C156.215 137.891 158.258 119.901 159.503 114.5C160.749 109.1 165.065 93.2361 165.065 91.1942C165.065 91.1942 167.447 89.9498 165.633 86.7722L165.525 82.6886C165.525 82.7006 156.456 78.0974 151.463 79.8735Z" fill="#D9DBE1"/>
<path d="M128.526 100.812C128.526 100.812 120.534 92.1971 122.034 86.0837C122.034 86.0837 117.125 77.7955 124.125 75.7174C124.125 75.7174 127.801 72.9627 128.478 71.5612C129.167 70.1597 133.085 68.3716 135.043 70.8242C135.043 70.8242 138.381 67.5742 141.669 72.8781C141.669 72.8781 147.908 71.5612 146.711 77.8559C146.711 77.8559 147.715 79.4507 146.602 80.1877C146.602 80.1877 150.979 85.4554 146.723 87.6301C142.467 89.8049 128.526 100.812 128.526 100.812Z" fill="#4177B7"/>
<path d="M125.927 115.443C125.927 115.443 130.932 108.665 127.063 97.1264C127.063 97.1264 121.731 93.4052 124.911 90.5055C124.911 90.5055 125.842 89.9377 126.193 90.8438C126.543 91.75 127.559 93.6106 127.922 93.0065C128.285 92.4024 128.103 89.6719 128.357 88.2221C128.611 86.7722 130.074 81.2266 134.669 81.8307C139.263 82.4348 141.681 81.5408 142.866 80.55C142.866 80.55 144.547 80.5984 145.405 82.8215C146.264 85.0445 147.098 89.6115 147.473 91.6896C147.836 93.7677 148.924 106.369 140.388 108.544C140.388 108.544 138.683 114.887 139.71 115.503C140.738 116.119 138.997 120.577 138.997 120.577L136.736 123.815L125.927 115.443Z" fill="#E5954C"/>
<path opacity="0.15" d="M140.11 88.9712C140.11 88.9712 139.952 92.1487 140.714 93.4536C141.476 94.7705 143.374 97.2956 139.009 96.6794" stroke="#18191F" stroke-miterlimit="10" stroke-linecap="round"/>
<path d="M141.512 101.56C138.743 102.817 136.095 99.5066 136.736 99.2528C137.377 98.9991 139.964 99.3857 140.75 99.132C143.386 98.2501 146.215 99.422 141.512 101.56Z" fill="#FDFEFD"/>
<path d="M131.392 89.3094C131.392 89.3094 134.511 86.6756 136.567 88.7053" stroke="#4177B7" stroke-miterlimit="10"/>
<path d="M141.282 88.3309C141.282 88.3309 143.954 86.2045 145.937 88.4155" stroke="#4177B7" stroke-miterlimit="10"/>
<path d="M135.135 92.9047C135.626 92.7791 135.904 92.2056 135.755 91.6238C135.606 91.042 135.087 90.6722 134.595 90.7979C134.104 90.9235 133.826 91.497 133.975 92.0788C134.124 92.6606 134.643 93.0304 135.135 92.9047Z" fill="black"/>
<path d="M143.657 91.8534C144.148 91.7277 144.426 91.1542 144.277 90.5724C144.128 89.9906 143.609 89.6208 143.118 89.7465C142.626 89.8721 142.348 90.4456 142.497 91.0274C142.646 91.6093 143.165 91.979 143.657 91.8534Z" fill="black"/>
<path opacity="0.15" d="M139.976 108.532C131.537 109.668 130.122 101.561 130.122 101.561" stroke="#18191F" stroke-miterlimit="10" stroke-linecap="round"/>
<path d="M182.428 240.442C182.428 244.067 175.161 314.359 175.161 314.359H157.182V247.425L152.213 238.932L151.427 237.591L149.77 246L129.699 315.845L110.644 311.387L124.923 234.437C124.923 234.437 106.872 191.1 116.097 182.231C125.322 173.351 159.092 176.227 159.092 176.227L159.104 176.239C159.467 177.169 182.428 236.842 182.428 240.442Z" fill="#134487"/>
<path d="M142.673 330.102H111.684C111.684 330.102 110.68 324.399 110.644 322.08C110.632 320.436 112.736 315.495 113.969 312.752C114.477 311.617 114.839 310.855 114.839 310.855L126.011 312.982C126.011 314.528 126.084 315.954 126.725 317.186C127.619 318.914 129.639 320.255 134.173 320.956C141.911 322.14 142.673 330.102 142.673 330.102Z" fill="#4177B7"/>
<path d="M126.725 317.186C125.105 317.73 123.545 318.817 121.961 319.289C119.253 320.074 117.028 316.256 116.109 314.432C115.698 313.61 114.815 313.066 113.981 312.74C114.489 311.605 114.852 310.843 114.852 310.843L126.024 312.97C126.011 314.528 126.084 315.954 126.725 317.186Z" fill="#E5954C"/>
<path d="M182.428 240.442C182.428 244.067 175.161 314.359 175.161 314.359H157.182V247.425L152.212 238.932L151.427 237.591L154.897 187.342L159.104 176.215L159.116 176.227C159.467 177.169 182.428 236.842 182.428 240.442Z" fill="#0D3475"/>
<path d="M104.357 120.36C104.357 120.36 103.559 136.429 107.597 147.085C111.635 157.753 114.38 158.394 114.38 163.939C114.38 169.485 109.906 177.048 110.85 179.283C111.793 181.519 111.648 183.319 123.182 182.666C134.717 182.014 160.023 180.214 160.023 180.214C160.023 180.214 166.516 179.416 162.695 168.253C158.875 157.089 161.692 153.271 160.676 147.725C159.673 142.18 152.817 112.785 142.008 112.857C142.008 112.857 140.787 125.265 126.991 118.342C120.522 122.873 104.357 120.36 104.357 120.36Z" fill="#F4F5F7"/>
<path d="M127.777 107.541C127.777 107.541 130.05 114.452 133.508 115.261C133.508 115.261 131.235 119.853 132.214 122.45L124.972 116.784C124.972 116.784 122.433 111.806 127.777 107.541Z" fill="#D9DBE1"/>
<path d="M140.134 109.607C140.134 109.607 138.163 114.609 137.51 114.996C136.857 115.37 141.73 119.695 141.186 121.375C140.642 123.054 145.115 111.721 140.134 109.607Z" fill="#D9DBE1"/>
<path d="M149.927 82.3503C149.927 82.3503 152.394 44.6789 152.055 41.5255C152.055 41.5255 149.939 37.8405 148.634 37.6593C147.328 37.4781 144.523 37.913 145.804 26.4352C145.804 26.4352 147.388 24.8525 147.981 27.8367C147.981 27.8367 148.295 25.1304 150.87 27.2447C150.87 27.2447 151.644 25.4083 153.639 26.991C153.639 26.991 155.791 25.1545 156.783 27.7038C156.783 27.7038 158.463 26.556 159.431 28.8516C160.398 31.1472 162.514 34.2885 160.205 38.5534C160.205 38.5534 160.458 45.2951 160.737 47.3853C161.015 49.4754 162.103 74.6662 162.103 77.2759C162.103 79.8735 162.417 83.3048 162.417 83.3048C162.417 83.3048 150.907 83.0511 149.927 82.3503Z" fill="#E5954C"/>
<path opacity="0.15" d="M148.077 30.3618C148.077 30.3618 147.739 33.6964 150.592 34.3368C153.446 34.9771 155.743 35.9074 156.045 37.913" stroke="#18191F" stroke-miterlimit="10" stroke-linecap="round"/>
<path opacity="0.15" d="M150.967 28.5133V32.2104C150.967 32.2104 150.085 33.6964 148.875 32.9353" stroke="#18191F" stroke-miterlimit="10" stroke-linecap="round"/>
<path opacity="0.15" d="M153.688 27.7039V32.6454C153.688 32.6454 153.228 34.1073 150.955 33.1649" stroke="#18191F" stroke-miterlimit="10" stroke-linecap="round"/>
<path opacity="0.15" d="M156.722 28.7308V33.1528C156.722 33.1528 155.779 35.098 153.845 33.4669" stroke="#18191F" stroke-miterlimit="10" stroke-linecap="round"/>
<path opacity="0.15" d="M159.757 32.5125C159.757 32.5125 160.217 33.9985 159.334 34.1314C158.451 34.2643 157.182 34.1193 157.146 32.9353" stroke="#18191F" stroke-miterlimit="10" stroke-linecap="round"/>
<path d="M196.695 329.945C194.277 330.042 160.144 329.945 160.144 329.945C160.144 329.945 156.807 327.903 158.294 323.904L159.382 317.162L160.059 312.994H172.985L173.359 316.244C173.359 316.244 173.372 316.377 173.456 316.594C173.734 317.319 174.822 318.999 179.03 320.002C184.519 321.294 198.932 322.78 198.932 326.779C198.932 326.792 199.113 329.848 196.695 329.945Z" fill="#4177B7"/>
<path d="M173.456 316.594C171.981 316.474 170.554 316.703 169.672 317.682C167.12 320.533 163.433 319.518 162.744 318.25C162.32 317.464 160.652 317.223 159.382 317.15L160.059 312.982H172.985L173.359 316.232C173.347 316.244 173.359 316.377 173.456 316.594Z" fill="#E5954C"/>
<path d="M125.322 87.8476L125.939 93.3207C127.777 97.1023 125.685 101.198 125.685 102.781C125.685 104.364 127.22 116.059 127.22 116.059C127.873 137.722 117.245 136.9 117.245 136.9C104.889 138.157 105.263 122.45 105.263 122.45C105.263 122.45 104.913 107.106 103.74 103.844C102.567 100.582 103.401 95.8096 104.018 93.7556C104.635 91.7017 103.897 89.3216 103.522 88.7537C103.147 88.1859 103.147 87.1348 103.147 87.1348C103.147 87.1348 103.704 86.4944 103.172 81.7221C102.918 79.4628 104.381 78.1096 105.989 77.3122C107.79 76.4181 109.761 76.2006 109.761 76.2006C113.534 75.5724 124.307 76.5269 127.087 78.7258C127.438 79.0036 127.656 79.2936 127.728 79.5956C128.393 82.4107 126.967 83.631 126.967 83.631C128.139 87.1831 125.322 87.8476 125.322 87.8476Z" fill="#D9DBE1"/>
<path d="M127.088 78.7499C125.056 79.7044 123.037 80.2481 121.091 80.5018C116.23 81.1301 111.817 79.934 108.673 78.605C107.633 78.1821 106.727 77.723 105.989 77.3243C106.993 76.8168 108.069 76.539 108.806 76.3819C109.387 76.2611 109.773 76.2127 109.773 76.2127C112.107 75.8261 117.113 76.0436 121.26 76.7806C123.799 77.2518 126.024 77.9042 127.088 78.7499Z" fill="#969BAB"/>
<path d="M108.673 78.6049C111.817 79.9339 116.23 81.13 121.09 80.5017L108.673 78.6049Z" fill="#D6B196"/>
<path d="M126.108 38.6742C124.476 39.375 123.315 41.8639 122.965 42.915C122.686 43.7366 121.683 66.6801 121.248 76.7927C121.175 78.3996 121.115 79.6802 121.09 80.5018C116.23 81.1301 111.817 79.934 108.673 78.6049C108.649 78.5204 108.649 78.4358 108.649 78.3512C108.673 77.8196 108.709 77.1551 108.794 76.3819C109.386 70.788 111.527 59.6363 112.083 56.9179C112.724 53.837 115.396 40.2449 115.396 40.2449C113.775 37.6835 114.295 34.3127 115.396 31.123C116.508 27.9213 118.89 28.6221 118.89 28.6221C120.244 26.3507 121.84 28.1388 121.84 28.1388C123.061 25.7949 124.548 27.7884 124.548 27.7884C126.604 25.4445 127.632 28.5254 127.632 28.5254C127.692 26.4715 129.941 27.1722 129.941 27.1722C131.331 32.8628 127.728 37.9735 126.108 38.6742Z" fill="#E5954C"/>
<path opacity="0.15" d="M118.491 29.7095V34.3972C118.491 34.3972 118.104 35.5209 117.113 35.5209C116.121 35.5209 115.855 33.7207 115.855 33.7207" stroke="#18191F" stroke-miterlimit="10" stroke-linecap="round"/>
<path opacity="0.15" d="M121.876 28.9724L121.683 34.0831C121.683 34.0831 120.558 36.3907 118.817 34.6026" stroke="#18191F" stroke-miterlimit="10" stroke-linecap="round"/>
<path opacity="0.15" d="M124.935 28.5133L124.694 33.2977C124.694 33.2977 123.533 36.0283 121.671 34.071" stroke="#18191F" stroke-miterlimit="10" stroke-linecap="round"/>
<path opacity="0.15" d="M119.458 39.4716C119.458 39.4716 119.579 36.4149 122.88 36.1732C126.314 35.9316 126.725 32.2466 127.523 28.9603" stroke="#18191F" stroke-miterlimit="10" stroke-linecap="round"/>
<path d="M236.535 88.4396C229.461 87.026 219.631 89.8411 222.485 100.05C225.338 110.26 222.497 131.391 213.441 137.118C204.397 142.844 215.521 148.753 215.521 148.753C215.521 148.753 227.406 153.513 227.902 153.549C228.397 153.573 245.458 155.349 245.458 155.349C245.458 155.349 257.718 126.449 253.704 119.551C251.189 115.225 250.016 91.1339 236.535 88.4396Z" fill="#0D3475"/>
<path d="M237.925 111.069C238.844 114.065 236.619 124.649 236.232 126.461C231.662 127.319 228.228 126.039 226.281 124.963C226.39 124.117 226.426 123.223 226.426 122.366C226.426 120.058 226.148 118.016 226.148 118.016C215.593 114.742 222.013 99.6999 222.013 99.6999C223.005 93.224 227.684 92.1125 227.684 92.1125C230.211 88.2342 232.109 88.6691 232.109 88.6691C229.945 89.2007 228.228 92.1487 228.228 92.1487C235.12 93.6227 237.562 105.644 237.562 105.644C240.029 103.566 243.039 105.173 243.366 106.236C243.886 110.707 237.925 111.069 237.925 111.069Z" fill="#D46918"/>
<path d="M234.999 113.485C234.201 119.55 226.426 122.366 226.426 122.366C226.426 120.058 226.16 118.028 226.16 118.028C232.762 118.499 234.999 113.485 234.999 113.485Z" fill="#843C3B"/>
<path d="M236.268 103.361C234.6 100.667 231.033 101.44 230.9 101.464L230.743 100.57C230.9 100.546 234.552 99.9658 236.547 103.18L236.268 103.361Z" fill="#0D3475"/>
<path d="M226.789 100.509C225.919 100.135 223.186 99.5549 222.557 100.618L222.485 100.437C223.621 98.4796 226.62 99.7482 227.043 99.9295L226.789 100.509Z" fill="#0D3475"/>
<g opacity="0.1">
<path d="M228.035 109.245C228.023 109.245 228.011 109.245 227.998 109.245C226.112 109.088 225.157 108.701 224.903 108.012C224.589 107.179 225.411 106.333 226.209 105.511L226.523 105.185C227.684 103.953 227.406 101.295 227.394 101.271C227.321 101.029 227.067 100.944 227.309 100.872C227.551 100.812 227.805 100.944 227.865 101.186C227.902 101.307 228.688 104.207 227.176 105.801L226.85 106.14C226.366 106.647 225.629 107.396 225.75 107.698C225.774 107.771 226.028 108.169 228.071 108.351C228.325 108.375 228.506 108.592 228.482 108.846C228.47 109.076 228.277 109.245 228.035 109.245Z" fill="#181818"/>
</g>
<path d="M226.62 113.316C225.072 113.497 224.045 111.721 224.021 110.803C224.021 110.803 228.833 111.226 229.981 110.61C229.981 110.598 229.885 112.942 226.62 113.316Z" fill="#FDFEFD"/>
<path d="M224.6 103.216C224.8 102.721 224.645 102.193 224.255 102.035C223.865 101.878 223.387 102.152 223.187 102.647C222.987 103.142 223.142 103.671 223.532 103.828C223.922 103.985 224.4 103.712 224.6 103.216Z" fill="#020202"/>
<path d="M233.347 105.333C233.546 104.838 233.392 104.309 233.002 104.152C232.611 103.995 232.133 104.269 231.934 104.764C231.734 105.259 231.888 105.788 232.279 105.945C232.669 106.102 233.147 105.828 233.347 105.333Z" fill="#020202"/>
<path opacity="0.1" d="M238.614 108.133L241.637 106.865" stroke="#18191F" stroke-miterlimit="10" stroke-linecap="round"/>
<path d="M216.5 37.9009L215.412 67.4533L263.993 70.353L265.347 40.1844C265.395 39.0608 264.525 38.0942 263.4 38.0459L218.64 35.9195C217.503 35.8712 216.548 36.7532 216.5 37.9009Z" fill="#020202"/>
<path d="M218.543 39.822L217.54 65.8585L262.361 68.4199L263.618 41.8397C263.666 40.849 262.856 40.0032 261.816 39.9549L220.514 38.0822C219.462 38.0339 218.579 38.8192 218.543 39.822Z" fill="#0D3475"/>
<path d="M224.299 58.8751L236.244 53.0395L241.963 55.0934L247.973 51.4447L253.667 64.0703L224.117 62.5238L224.299 58.8751Z" fill="#F2B771"/>
<path d="M224.238 60.0471L236.015 57.4374L241.685 60.3733L247.102 58.0173L253.667 64.0824L224.117 62.5359L224.238 60.0471Z" fill="#E5954C"/>
<path d="M254.973 49.1853L255.07 47.4335L254.973 49.1853Z" fill="#CEE8F9"/>
<path d="M254.84 51.8193L254.937 50.0674L254.84 51.8193Z" fill="#CEE8F9"/>
<path d="M254.695 54.4531L254.792 52.7012L254.695 54.4531Z" fill="#CEE8F9"/>
<path d="M254.562 57.087L254.659 55.3351L254.562 57.087Z" fill="#CEE8F9"/>
<path d="M254.429 59.7208L254.526 57.9689L254.429 59.7208Z" fill="#CEE8F9"/>
<path d="M254.284 62.3547L254.381 60.6028L254.284 62.3547Z" fill="#CEE8F9"/>
<path d="M255.106 46.5516L255.215 44.3526L254.163 44.2922L253.159 63.6112L224.129 62.101L224.081 62.983L226.197 63.0917L226.124 64.4086L227.176 64.469L227.249 63.1521L229.365 63.2608L229.292 64.5778L230.344 64.6382L230.416 63.3212L232.532 63.43L232.46 64.7469L233.512 64.8073L233.584 63.4904L235.7 63.5991L235.628 64.9161L236.68 64.9765L236.752 63.6595L238.868 63.7683L238.795 65.0852L239.847 65.1456L239.92 63.8287L242.036 63.9374L241.963 65.2543L243.015 65.3148L243.088 63.9978L245.204 64.1066L245.131 65.4235L246.183 65.4839L246.256 64.167L248.371 64.2757L248.299 65.5926L249.351 65.653L249.423 64.3361L251.539 64.4449L251.467 65.7618L252.519 65.8222L252.591 64.5053L253.643 64.5657C253.933 64.5778 254.187 64.3965 254.199 64.1549L254.248 63.2729" fill="#CEE8F9"/>
<path d="M239.944 43.1082L241.528 43.1927L241.48 44.0747L239.896 43.9901L239.944 43.1082Z" fill="#CEE8F9"/>
<path d="M242.58 43.2532L249.967 43.6398L249.919 44.5218L242.531 44.1352L242.58 43.2532Z" fill="#CEE8F9"/>
<path d="M239.823 45.3071L244.575 45.5608L244.527 46.4428L239.775 46.1891L239.823 45.3071Z" fill="#CEE8F9"/>
<path d="M245.639 45.6091L247.223 45.6937L247.174 46.5757L245.591 46.4911L245.639 45.6091Z" fill="#CEE8F9"/>
<path d="M239.714 47.506L242.35 47.6389L242.302 48.5209L239.666 48.388L239.714 47.506Z" fill="#CEE8F9"/>
<path d="M243.414 47.6992L244.998 47.7838L244.95 48.6658L243.366 48.5812L243.414 47.6992Z" fill="#CEE8F9"/>
<path d="M237.695 45.6333C237.562 48.3034 234.842 50.3332 231.638 50.164C228.433 49.9949 225.943 47.6993 226.088 45.0292C226.221 42.3591 228.941 40.3293 232.145 40.4985C233.681 40.5831 235.132 41.163 236.184 42.1296C237.211 43.0961 237.768 44.3526 237.695 45.6333Z" fill="#6AA2DB"/>
<path d="M232.145 40.5106L231.891 45.3434L226.088 45.0414C226.221 42.3592 228.941 40.3415 232.145 40.5106Z" fill="#F2B771"/>
<path d="M236.172 42.1296L231.892 45.3313L232.146 40.4985C233.681 40.5831 235.132 41.1751 236.172 42.1296Z" fill="url(#paint0_linear)"/>
<path d="M264.223 321.475L263.521 329.969H261.019L260.172 323.916C260.039 327.951 256.231 329.969 256.231 329.969H253.341C253.341 329.969 241.081 330.464 239.4 329.969C237.732 329.486 236.764 329.341 236.764 328.241C236.764 327.492 239.074 326.659 241.855 324.846C243.185 323.988 244.611 322.889 245.953 321.475C250.137 317.09 251.394 306.506 250.27 300.513C249.157 294.533 237.345 275.383 234.564 266.636C231.783 257.876 229.425 234.389 229.425 234.389L254.441 236.274C254.441 236.274 245.542 259.713 251.116 267.928C256.702 276.144 257.802 294.11 258.371 297.034C258.758 299.051 259.918 304.996 260.934 309.091C261.393 310.952 261.829 312.426 262.119 312.97C263.098 314.722 264.223 321.475 264.223 321.475Z" fill="#D46918"/>
<path d="M212.655 295.789C211.131 302.084 212.256 307.219 212.667 308.717C212.74 309.007 212.8 309.164 212.8 309.164C217.116 318.636 214.892 329.486 214.892 329.486H211.966C211.966 329.486 211.131 324.206 211.131 324.629C211.131 325.052 203.877 329.486 203.877 329.486C203.877 329.486 185.342 330.754 182.44 330.199C179.526 329.655 179.49 328.254 179.49 328.254C182.44 327.988 184.713 327.299 186.647 326.272C190.746 324.109 193.285 320.461 197.469 316.244C203.611 310.046 202.341 297.179 202.486 291.053C202.619 284.928 196.634 236.286 196.634 236.286L197.13 230.752L223.283 231.32C223.283 231.32 218.277 236.189 218.144 238.098C218.011 240.019 217.116 243.426 218.374 251.086C219.619 258.746 214.469 288.274 212.655 295.789Z" fill="#D46918"/>
<path d="M214.88 329.486H211.954C211.954 329.486 211.119 324.206 211.119 324.629C211.119 325.052 203.865 329.486 203.865 329.486C203.865 329.486 185.33 330.754 182.428 330.199C179.514 329.655 179.478 328.254 179.478 328.254C182.428 327.988 184.701 327.299 186.635 326.272C188.896 326.586 193.14 326.973 195.583 326.03C199.016 324.726 205.727 317.344 207.287 312.97C208.193 310.384 210.733 309.224 212.655 308.693C212.728 308.983 212.788 309.14 212.788 309.14C217.104 318.636 214.88 329.486 214.88 329.486Z" fill="#6AA2DB"/>
<path d="M264.223 321.475L263.521 329.969H261.019L260.172 323.916C260.039 327.951 256.231 329.969 256.231 329.969H253.341C253.341 329.969 241.081 330.464 239.4 329.969C237.731 329.486 236.764 329.341 236.764 328.241C236.764 327.492 239.074 326.659 241.854 324.846C248.045 325.97 251.733 322.708 253.643 318.177C254.937 315.096 258.685 311.23 260.934 309.092C261.393 310.952 261.829 312.426 262.119 312.97C263.098 314.722 264.223 321.475 264.223 321.475Z" fill="#6AA2DB"/>
<path d="M251.503 182.811C251.503 182.811 254.453 193.77 255.989 212.605C257.645 232.903 254.453 236.286 254.453 236.286H196.622C196.622 236.286 201.35 189.94 207.504 180.407C213.707 170.814 251.503 182.811 251.503 182.811Z" fill="url(#paint1_linear)"/>
<path d="M236.232 126.461C236.196 126.631 236.172 126.727 236.172 126.727C230.84 139.184 223.295 137.625 223.887 134.858C224.492 132.08 224.105 130.557 225.58 127.658C225.943 126.945 226.16 126.002 226.281 124.975C228.228 126.039 231.662 127.319 236.232 126.461Z" fill="#D46918"/>
<path d="M270.268 60.2524C270.208 61.4485 266.847 72.8901 266.992 74.3762C267.149 75.8502 267.052 90.9767 266.448 93.9972C265.855 97.0177 263.123 108.737 262.143 111.951C261.599 113.751 257.827 119.937 254.478 125.434C251.842 129.784 249.46 133.71 249.121 134.701C248.36 136.973 243.801 152.486 246.086 160.834C248.36 169.183 254.236 186.448 252.603 187.644C250.983 188.828 204.784 184.769 204.784 184.769C204.784 184.769 215.146 162.683 215.146 157.041C215.146 151.398 204.506 144.415 212.764 135.015C212.764 135.015 215.037 128.721 212.329 124.166C211.639 123.006 210.769 121.387 209.85 119.514C207.166 114.041 204.107 106.466 204.191 102.165C204.3 96.4015 208.327 69.4951 208.327 69.4951C208.327 69.4951 207.976 54.5981 209.922 53.3899C211.869 52.1938 215.194 49.8378 216.234 50.0674C217.274 50.2969 221.167 51.9038 221.167 51.9038C221.167 51.9038 220.188 53.4503 216.572 52.8221L213.477 54.4773L218.809 56.6037C218.809 56.6037 220.248 60.8445 218.229 62.8017C218.229 62.8017 217.31 63.4904 217.552 64.7469C217.782 66.0034 217.89 68.9877 215.775 69.9663C215.775 69.9663 214.166 79.7647 214.445 83.5464C214.735 87.328 213.755 101.548 213.755 101.548L218.555 111.431L224.528 123.731C224.528 123.731 225.145 124.299 226.294 124.939C226.173 125.966 225.955 126.92 225.592 127.621C224.117 130.521 224.516 132.043 223.9 134.822C223.295 137.601 230.852 139.159 236.184 126.691C236.184 126.691 236.208 126.594 236.244 126.425C237.901 126.123 239.715 125.531 241.649 124.552C241.649 124.552 244.104 121.23 246.945 117.025C250.427 111.878 254.502 105.403 255.3 102.153C256.775 96.2565 261.865 74.4245 261.865 74.4245V67.2479C261.865 67.2479 260.16 66.4988 260.16 65.3027C260.16 64.1187 260.862 64.167 260.862 64.167C260.862 64.167 259.314 63.4662 260.511 62.0406C260.511 62.0406 259.362 59.0201 265.77 58.9234C265.77 58.9234 263.437 56.942 263.243 56.35C263.243 56.35 259.229 56.5433 258.637 55.6492L263.546 53.9578L269.99 58.2468C269.966 58.2831 270.305 59.0684 270.268 60.2524Z" fill="#FAD7A1"/>
<path d="M216.548 52.8462L213.453 54.5015L218.785 56.6279C218.785 56.6279 220.224 60.8686 218.205 62.8259C218.205 62.8259 217.286 63.5146 217.528 64.7711C217.757 66.0276 217.866 69.0118 215.75 69.9905C215.75 69.9905 214.142 79.7889 214.42 83.5705C214.711 87.3522 213.731 101.573 213.731 101.573L218.531 111.456C216.839 113.207 212.861 117.231 209.826 119.538C207.142 114.065 204.083 106.49 204.167 102.189C204.276 96.4257 208.302 69.5193 208.302 69.5193C208.302 69.5193 207.952 54.6223 209.898 53.4141C211.845 52.218 215.17 49.862 216.21 50.0916C217.25 50.3211 221.143 51.928 221.143 51.928C221.143 51.928 220.164 53.4866 216.548 52.8462Z" fill="#D46918"/>
<path d="M270.268 60.2524C270.208 61.4486 266.846 72.8901 266.992 74.3762C267.149 75.8502 267.052 90.9767 266.447 93.9972C265.855 97.0177 263.122 108.737 262.143 111.951C261.599 113.751 257.827 119.937 254.477 125.434C251.467 124.166 248.505 119.744 246.921 117.049C250.403 111.903 254.477 105.427 255.275 102.177C256.751 96.2807 261.841 74.4487 261.841 74.4487V67.272C261.841 67.272 260.136 66.523 260.136 65.3268C260.136 64.1428 260.837 64.1911 260.837 64.1911C260.837 64.1911 259.29 63.4904 260.487 62.0647C260.487 62.0647 259.338 59.0443 265.746 58.9476C265.746 58.9476 263.413 56.9662 263.219 56.3742C263.219 56.3742 259.205 56.5675 258.613 55.6734L263.521 53.9819L269.966 58.271C269.966 58.2831 270.304 59.0684 270.268 60.2524Z" fill="#D46918"/>
<path d="M328.861 135.003C328.861 135.003 329.102 126.908 335.051 125.447C335.051 125.447 340.383 115.817 351.652 128.322C362.921 140.827 342.983 149.248 341.121 149.864C339.271 150.48 328.861 135.003 328.861 135.003Z" fill="#D46918"/>
<path d="M352.728 143.267C352.728 143.267 357.032 135.378 358.108 130.243C359.185 125.108 364.226 102.237 364.226 102.237C364.226 102.237 364.916 98.4555 364.916 98.3105C364.916 98.1655 362.993 96.1479 362.993 94.8188C362.993 94.8188 361.857 94.5772 361.119 92.4629C360.382 90.3485 359.837 88.4879 360.781 87.4972C361.712 86.5186 365.75 83.9572 367.37 84.3076C368.99 84.6459 370.514 86.7119 371.058 86.7602C371.602 86.8085 372.932 88.2342 372.871 91.1339C372.823 94.0335 370.61 99.3858 370.61 99.3858C370.61 99.3858 370.272 100.618 370.659 102.43C371.058 104.243 368.591 129.446 368.337 131.584C368.083 133.723 364.178 147.689 363.549 148.825C362.945 149.961 352.728 143.267 352.728 143.267Z" fill="#F2B771"/>
<path d="M311.099 142.82L310.398 140.839C310.398 140.839 309.225 125.857 309.431 123.888C309.636 121.906 320.046 98.2984 320.046 98.2984C320.046 98.2984 320.542 89.2732 321.038 87.7629C321.534 86.2527 325.161 84.3438 326.177 84.235C327.192 84.1384 328.353 83.7759 329.502 84.7908C330.65 85.8057 333.455 88.9711 333.455 88.9711C333.455 88.9711 333.854 91.0492 332.137 92.8857C330.42 94.7342 328.607 95.5558 328.607 95.5558C328.607 95.5558 326.696 97.6943 326.6 97.6943C326.503 97.6943 325.898 100.425 325.947 101.488C325.995 102.551 322.67 119.321 321.231 123.103C319.793 126.896 324.242 139.365 324.242 139.365L311.099 142.82Z" fill="#F2B771"/>
<path d="M342.717 167.25C342.717 167.25 340.142 150.456 342.354 147.822C342.354 147.822 347.13 146.892 347.638 144.536C348.134 142.18 345.994 139.896 344.216 141.54C342.427 143.183 340.154 146.409 340.154 146.409C340.154 146.409 333.443 154.661 332.089 155.301C330.735 155.941 327.071 155.796 327.071 155.796L327.664 174.874L342.717 167.25Z" fill="#F2B771"/>
<path d="M271.175 330.199H232.786C232.786 330.199 230.574 329.993 231.686 327.48C231.686 327.48 232.025 323.856 235.652 323.747C239.267 323.638 246.316 323.638 250.27 321.439C254.236 319.24 257.645 317.936 257.645 317.936L258.419 314.637H270.413V317.936C270.401 317.911 276.229 324.46 271.175 330.199Z" fill="#0D3475"/>
<path d="M310.362 330.344L275.709 330.199C275.709 330.199 275.371 328.785 276.785 325.716C278.164 322.72 285.466 322.418 286.458 322.406C287.449 322.394 293.833 320.992 294.377 318.673C294.849 316.679 296.167 316.909 296.493 317.005L296.578 317.029V314.613L309.225 314.057C309.225 314.057 309.285 314.951 309.467 316.329C309.527 316.727 309.576 317.162 309.66 317.621C309.854 318.83 310.132 320.219 310.519 321.645C311.583 325.499 310.362 330.344 310.362 330.344Z" fill="#0D3475"/>
<path d="M270.401 314.613V317.911C267.669 321.21 262.627 320.449 261.502 319.144C260.378 317.827 257.645 317.911 257.645 317.911L258.419 314.613H270.401Z" fill="#F2B771"/>
<path d="M296.614 315.592C296.614 315.592 295.901 318.503 299.734 319.349C309.612 321.512 309.37 315.592 309.37 315.592" fill="#F2B771"/>
<path d="M254.32 315.93H272.807L288.453 253.176L310.519 247.148L306.178 222.283L264.223 227.744L254.32 315.93Z" fill="#0D3475"/>
<path d="M293.543 315.93L291.85 246.398C291.85 246.398 293.93 228.614 301.85 226.765C309.769 224.917 353.889 211.615 353.889 211.615C353.889 211.615 365.883 238.316 357.818 247.148C345.981 260.111 317.314 251.859 317.314 251.859C317.314 251.859 318.45 261.09 316.177 272.773C313.916 284.457 311.28 315.918 311.28 315.918H293.543V315.93Z" fill="#134487"/>
<path d="M327.821 158.273C327.821 158.273 330.421 161.801 331.714 163.275C333.008 164.761 331.714 172.3 331.714 172.3C331.714 172.3 334.689 164.882 334.689 163.335C334.689 161.789 340.009 155.12 340.94 154.685C341.871 154.25 343.684 155.796 345.002 155.24C346.32 154.685 351.326 143.823 351.435 142.059C351.543 140.295 365.895 146.239 365.895 146.239C365.895 146.239 362.522 157.512 360.309 161.608C358.097 165.691 354.53 175.2 354.082 178.184C353.635 181.168 350.105 198.312 350.878 201.732C351.652 205.151 357.202 220.326 357.202 220.326L307.303 209.235C307.303 209.235 315.15 184.153 314.714 177.628C314.279 171.104 312.913 158.732 312.466 156.086C312.018 153.428 310.398 142.156 310.398 140.839L326.709 136.912C326.697 136.912 326.225 153.706 327.821 158.273Z" fill="#4177B7"/>
<path d="M328.51 136.912C328.51 136.912 325.657 138.41 325.221 140.911C324.798 143.412 320.941 145.478 321.509 149.187C322.078 152.897 322.223 155.675 326.007 156.461C329.792 157.246 332.5 157.669 335.499 152.969C335.499 152.969 338.642 150.686 339.706 148.402C340.782 146.119 342.777 142.409 343.201 141.987C343.624 141.564 344.99 138.845 344.99 138.845L328.51 136.912Z" fill="#D46918"/>
<path d="M328.159 149.876C326.612 149.538 325.741 144.355 327.192 143.159C328.643 141.95 329.949 144.186 330.312 144.439C330.674 144.693 332.863 145.925 333.068 146.07C333.274 146.215 335.269 147.146 334.701 147.858C334.132 148.559 332.246 150.77 328.159 149.876Z" fill="#F2B771"/>
<path d="M328.897 147.52C327.531 146.783 327.7 144.741 328.208 143.968C328.208 143.968 331.908 147.073 333.201 147.23C333.201 147.23 331.787 149.079 328.897 147.52Z" fill="#FDFEFD"/>
<path d="M334.58 128.854C333.371 128.999 330.578 131.355 329.937 132.708C329.296 134.061 327.797 137.42 327.374 137.988C326.95 138.555 326.37 140.549 326.95 141.056C327.519 141.552 331.085 142.905 332.162 144.053C333.238 145.188 336.937 149.755 342.511 141.987C342.511 141.987 342.584 137.71 345.51 136.997C345.51 136.997 343.515 131.5 340.444 131.222C337.361 130.92 334.58 128.854 334.58 128.854Z" fill="#F2B771"/>
<path d="M332.733 136.946C332.933 136.451 332.778 135.922 332.388 135.765C331.998 135.608 331.52 135.882 331.32 136.377C331.12 136.872 331.275 137.401 331.665 137.558C332.055 137.715 332.533 137.441 332.733 136.946Z" fill="#020202"/>
<path d="M338.077 140.14C338.276 139.645 338.122 139.116 337.732 138.959C337.341 138.802 336.863 139.076 336.664 139.571C336.464 140.066 336.618 140.595 337.009 140.752C337.399 140.909 337.877 140.635 338.077 140.14Z" fill="#020202"/>
<path d="M335.813 136.912C335.813 136.912 331.775 139.945 330.807 140.199C329.84 140.452 330.553 141.467 332.028 142.41" stroke="#E5954C" stroke-width="0.5" stroke-miterlimit="10"/>
<path d="M338.062 136.912C338.062 136.912 341.254 135.583 341.532 139.22" stroke="#D46918" stroke-miterlimit="10" stroke-linecap="round"/>
<path d="M332.041 133.3C332.041 133.3 335.112 132.478 335.462 135.342" stroke="#D46918" stroke-miterlimit="10" stroke-linecap="round"/>
<path opacity="0.15" d="M38.3281 92.4145C38.3281 92.4145 39.3075 96.1358 41.109 93.4294V88.4396" stroke="#18191F" stroke-miterlimit="10" stroke-linecap="round"/>
<path opacity="0.15" d="M44.5067 88.1497V92.6683C44.5067 92.6683 43.1646 96.0633 41.1091 93.4295" stroke="#18191F" stroke-miterlimit="10" stroke-linecap="round"/>
<path opacity="0.15" d="M47.5173 88.1497V92.7045C47.5173 92.7045 45.4256 95.3022 44.5188 92.6683" stroke="#18191F" stroke-miterlimit="10" stroke-linecap="round"/>
<path opacity="0.15" d="M42.27 98.1897C42.27 98.1897 41.6896 95.7733 46.0061 94.9397C50.3225 94.106 50.4313 88.4517 50.4313 88.4517" stroke="#18191F" stroke-miterlimit="10" stroke-linecap="round"/>
<path d="M353.828 215.602H47.9525C45.752 215.602 43.9746 213.826 43.9746 211.627C43.9746 209.428 45.752 207.652 47.9525 207.652H353.828C356.029 207.652 357.806 209.428 357.806 211.627C357.818 213.814 356.029 215.602 353.828 215.602Z" fill="#EEEFF4"/>
<path d="M345.969 215.602H56.7185V228.976H345.969V215.602Z" fill="#D9DBE1"/>
<path d="M75.4111 228.976H68.5918V331.298H75.4111V228.976Z" fill="#969BAB"/>
<path d="M331.352 228.976H324.532V331.298H331.352V228.976Z" fill="#969BAB"/>
<path d="M366.415 86.132C366.415 86.132 366.463 87.1589 365.919 87.2072C365.387 87.2556 362.292 87.2918 362.292 87.8355C362.292 88.3671 362.51 92.9341 362.51 92.9341C362.51 92.9341 364.118 93.3811 364.347 91.8588C364.565 90.3365 364.347 89.1283 364.347 89.1283C364.347 89.1283 366.318 90.5177 367.878 89.3457" stroke="#E5954C" stroke-width="0.5" stroke-miterlimit="10"/>
<path d="M365.097 97.3922C365.097 97.3922 364.093 95.6524 364.807 94.6617C365.52 93.6831 367.394 92.0762 366.911 89.7686" stroke="#E5954C" stroke-width="0.5" stroke-miterlimit="10"/>
<path d="M362.304 91.8467L360.902 88.6571C360.902 88.6571 360.587 87.6422 361.434 87.1106C362.28 86.579 366.076 84.5493 366.282 84.368" stroke="#E5954C" stroke-width="0.5" stroke-miterlimit="10"/>
<path d="M363.997 93.5864C363.997 93.5864 366.101 91.4359 365.774 89.7806" stroke="#E5954C" stroke-width="0.5" stroke-miterlimit="10"/>
<path d="M325.838 98.8783C325.838 98.8783 327.724 96.9935 326.588 94.9275C325.463 92.8615 326.394 90.2881 326.394 90.2881" stroke="#E5954C" stroke-width="0.5" stroke-miterlimit="10"/>
<path d="M325.064 89.3578C325.064 89.3578 326.261 91.1701 329.175 90.1069C329.175 90.1069 326.745 93.0428 329.175 94.5893" stroke="#E5954C" stroke-width="0.5" stroke-miterlimit="10"/>
<path d="M327.845 86.2407C327.845 86.2407 327.881 87.9805 328.873 88.2584C329.864 88.5363 331.92 89.6599 331.92 89.6599L329.876 94.1061" stroke="#E5954C" stroke-width="0.5" stroke-miterlimit="10"/>
<path d="M330.686 93.804L333.491 90.2882C333.491 90.2882 333.358 89.08 332.597 88.5C331.847 87.9201 328.764 84.803 328.764 84.803" stroke="#E5954C" stroke-width="0.5" stroke-miterlimit="10"/>
<path d="M333.141 205.078L331.702 207.64H259.447L258.758 205.187L250.633 176.384C250.27 175.115 251.237 173.847 252.555 173.847H299.105L308.234 205.09H333.141V205.078Z" fill="#474A57"/>
<path d="M305.561 205.187H258.745L250.62 176.384C250.258 175.115 251.225 173.847 252.543 173.847H296.892L305.561 205.187Z" fill="#969BAB"/>
<path d="M276.906 192.706C278.228 192.706 279.3 191.635 279.3 190.314C279.3 188.993 278.228 187.922 276.906 187.922C275.584 187.922 274.512 188.993 274.512 190.314C274.512 191.635 275.584 192.706 276.906 192.706Z" fill="#474A57"/>
<path d="M92.2173 205.078L93.6561 207.64H165.911L166.601 205.187L174.726 176.384C175.088 175.115 174.121 173.847 172.803 173.847H126.253L117.125 205.09H92.2173V205.078Z" fill="#18191F"/>
<path d="M119.785 205.187H166.601L174.726 176.384C175.088 175.115 174.121 173.847 172.803 173.847H128.454L119.785 205.187Z" fill="#474A57"/>
<path d="M148.44 192.706C149.762 192.706 150.834 191.635 150.834 190.314C150.834 188.993 149.762 187.922 148.44 187.922C147.118 187.922 146.046 188.993 146.046 190.314C146.046 191.635 147.118 192.706 148.44 192.706Z" fill="#969BAB"/>
<defs>
<linearGradient id="paint0_linear" x1="231.896" y1="42.9008" x2="236.195" y2="42.9008" gradientUnits="userSpaceOnUse">
<stop stop-color="#C46A18"/>
<stop offset="1" stop-color="#D2511D"/>
</linearGradient>
<linearGradient id="paint1_linear" x1="-212.974" y1="233.407" x2="212.155" y2="208.496" gradientUnits="userSpaceOnUse">
<stop stop-color="#114380"/>
<stop offset="1" stop-color="#2A2A5B"/>
</linearGradient>
</defs>
</svg>
