<svg width="610" height="256" viewBox="0 0 610 256" fill="none" xmlns="http://www.w3.org/2000/svg">
<path d="M0 153V233.313H11.2438C14.8133 233.313 17.6689 230.458 17.6689 226.888V205.646L36.2302 233.313V233.492H46.5816C50.6865 233.492 53.0067 228.851 50.6865 225.639L32.0197 198.863L45.6892 181.02C48.1879 177.629 45.8677 172.989 41.7628 172.989H33.3746L17.6689 193.624V159.425C17.6689 155.856 14.8133 153 11.2438 153H0Z" fill="url(#paint0_linear)"/>
<path fill-rule="evenodd" clip-rule="evenodd" d="M69.783 232.599C73.3524 234.206 77.2789 234.92 81.2053 234.92C84.7747 234.92 88.5227 234.206 91.9137 232.956C94.7693 231.529 97.0894 229.208 98.6957 226.353C99.4081 225.07 100.007 223.731 100.48 222.346V233.313H114.223V196.369C114.223 190.837 113.152 186.196 111.01 182.627C108.69 179.057 105.299 176.202 101.373 174.595C96.3755 172.632 91.1998 171.74 85.8456 171.918C84.816 171.918 83.7864 171.96 82.7171 172.002C81.5622 172.049 80.361 172.097 79.0636 172.097C77.9035 172.186 76.7434 172.231 75.5833 172.275C74.4233 172.32 73.2632 172.365 72.1031 172.454C69.783 172.454 67.8197 172.632 66.035 172.811V181.199C66.035 184.768 68.8906 187.624 72.4601 187.446H73.7094C75.1134 187.358 76.4742 187.313 77.8132 187.269C79.1975 187.224 80.5583 187.179 81.9192 187.089C84.5963 186.91 86.738 186.91 88.3442 186.91C91.5568 186.91 93.8769 187.802 95.3047 189.23C96.7325 190.658 97.4464 192.978 97.4464 196.191V196.548H86.7379C81.9192 196.369 77.1004 197.083 72.4601 198.511C68.7121 199.582 65.3211 201.723 62.8225 204.757C60.5023 207.97 59.253 211.718 59.4315 215.644C59.253 219.214 60.1454 222.783 62.1086 225.996C64.0718 228.851 66.5704 231.172 69.783 232.599ZM97.4464 206.364H86.5595C83.5254 206.364 81.0268 207.078 79.4205 208.684C77.8143 210.29 76.7434 212.432 76.9219 214.752C76.9219 217.072 77.8143 219.214 79.4205 220.642C81.0268 222.069 83.347 222.962 86.5595 222.962C88.3442 222.962 90.129 222.605 91.9137 221.891C93.52 221.177 94.9477 219.928 95.8401 218.321C96.5939 216.814 97.1708 215.129 97.4464 213.455V206.364Z" fill="url(#paint1_linear)"/>
<path d="M129.215 226.709V172.989H134.212C139.209 172.989 143.314 177.094 143.314 182.091V189.093C143.689 187.277 144.17 185.476 144.742 183.697C145.991 179.949 148.49 176.737 151.703 174.417C155.094 172.275 159.02 171.204 162.946 171.204H163.66C167.765 171.026 171.692 172.097 175.083 174.417C178.295 176.737 180.794 179.949 182.043 183.697C182.106 183.873 182.167 184.049 182.227 184.226C182.284 184.049 182.342 183.873 182.4 183.697C183.649 179.949 186.148 176.737 189.36 174.417C192.751 172.275 196.678 171.204 200.604 171.204H201.318C205.423 171.026 209.35 172.097 212.741 174.417C215.953 176.737 218.452 179.949 219.879 183.697C221.664 188.695 222.378 193.87 222.378 199.046V233.313H211.313C207.565 233.313 204.709 230.279 204.709 226.709V197.975C204.888 195.12 203.995 192.264 202.211 190.122C200.426 187.981 197.749 186.91 194.893 187.088C192.038 186.91 189.36 188.159 187.397 190.301C185.434 192.621 184.542 195.477 184.72 198.511V233.491H173.655C169.907 233.491 167.051 230.457 167.051 226.888V198.154C167.23 195.298 166.337 192.443 164.553 190.301C162.768 188.159 160.091 187.088 157.414 187.267C154.558 187.088 151.703 188.338 149.739 190.479C147.776 192.799 146.884 195.655 147.062 198.689V233.67H135.997C132.249 233.313 129.215 230.279 129.215 226.709Z" fill="url(#paint2_linear)"/>
<path fill-rule="evenodd" clip-rule="evenodd" d="M237.37 172.989V247.055C237.37 251.696 240.94 255.265 245.401 255.265H254.861V225.918C256.768 228.667 259.329 230.835 262.356 232.421C266.283 234.384 270.388 235.276 274.671 235.276C278.776 235.276 282.702 234.562 286.45 232.956C289.841 231.35 292.875 229.208 295.196 226.352C297.694 223.318 299.479 219.927 300.728 216.358C301.978 212.431 302.513 208.327 302.513 204.222V201.723C302.513 197.618 301.799 193.513 300.55 189.587C299.479 186.017 297.516 182.805 295.017 179.949C292.697 177.272 289.663 174.952 286.272 173.524C282.702 171.918 278.776 171.204 274.85 171.204C270.388 171.204 266.104 172.275 262.178 174.417C258.43 176.558 255.217 179.771 253.254 183.697C252.565 185.076 251.97 186.502 251.47 187.967V181.734C251.47 176.915 247.543 172.989 242.724 172.989H237.37ZM277.705 218.321C275.385 219.749 272.708 220.463 269.852 220.463C267.354 220.463 264.855 219.927 262.535 218.857C260.215 217.607 258.252 215.822 256.824 213.681C255.217 211.361 254.504 208.505 254.504 205.649V201.545C254.504 198.511 255.217 195.655 256.645 193.156C258.073 190.836 260.036 189.051 262.356 187.802C264.677 186.553 267.175 186.017 269.852 186.017C272.529 186.017 275.385 186.731 277.705 188.159C279.847 189.587 281.81 191.55 282.881 194.049C284.309 196.726 284.844 199.938 284.844 202.972C284.844 206.006 284.13 209.219 282.881 212.075C281.81 214.573 280.025 216.715 277.705 218.321Z" fill="url(#paint3_linear)"/>
<path fill-rule="evenodd" clip-rule="evenodd" d="M331.961 234.919C328.035 234.919 324.108 234.205 320.539 232.599C317.326 231.171 314.828 228.851 312.864 225.996C310.901 222.783 310.009 219.214 310.187 215.644C310.009 211.718 311.258 207.97 313.578 204.757C316.077 201.723 319.468 199.581 323.216 198.511C327.856 197.083 332.675 196.369 337.494 196.547H348.202V196.19C348.202 192.978 347.488 190.658 346.061 189.23C344.633 187.802 342.313 186.91 339.1 186.91C337.494 186.91 335.352 186.91 332.675 187.088C331.314 187.179 329.953 187.224 328.569 187.269C327.23 187.313 325.869 187.358 324.465 187.445C320.36 187.624 316.969 184.233 316.969 180.128V172.989C318.754 172.81 320.717 172.632 323.037 172.632C325.358 172.632 327.678 172.453 329.998 172.275C331.295 172.275 332.497 172.227 333.651 172.181C334.721 172.138 335.75 172.097 336.78 172.097C342.134 171.918 347.31 172.81 352.307 174.774C356.234 176.38 359.625 179.057 361.945 182.805C364.086 186.374 365.336 191.015 365.336 196.547V233.491H356.412C353.378 233.313 351.236 230.993 351.236 228.316V222.346C350.763 223.731 350.164 225.07 349.452 226.353C347.845 229.208 345.525 231.528 342.67 232.956C339.279 234.205 335.709 234.919 331.961 234.919ZM337.315 206.363H348.202V213.678C347.954 215.279 347.436 216.881 346.596 218.321C345.704 219.927 344.276 221.177 342.67 221.891C340.885 222.605 339.1 222.962 337.315 222.962C334.103 222.962 331.783 222.069 330.176 220.641C328.57 219.214 327.678 217.072 327.678 214.752C327.678 212.432 328.57 210.29 330.176 208.684C331.961 207.077 334.281 206.363 337.315 206.363Z" fill="url(#paint4_linear)"/>
<path d="M380.148 172.989V225.639C380.148 229.922 383.539 233.313 387.466 233.67H397.46V198.511C397.282 195.477 398.353 192.443 400.494 190.301C402.636 188.338 405.492 187.088 408.526 187.267C411.381 187.088 414.237 188.159 416.2 190.301C418.163 192.443 419.234 195.298 419.056 198.154V225.817C419.056 230.101 422.447 233.492 426.73 233.492H436.725V199.046C436.725 189.766 434.94 182.805 431.192 178.165C427.622 173.524 422.09 171.204 415.129 171.204H414.415C410.31 171.026 406.206 172.097 402.636 174.238C399.424 176.558 396.746 179.771 395.497 183.519C394.925 185.234 394.444 187.017 394.069 188.836V178.522C394.069 175.488 391.571 172.989 388.537 172.989H380.148Z" fill="url(#paint5_linear)"/>
<path fill-rule="evenodd" clip-rule="evenodd" d="M481.165 235.455C476.346 235.455 471.527 234.741 467.065 232.956C463.139 231.35 459.57 229.029 456.535 226.174C453.68 223.318 451.538 219.927 450.11 216.179C448.683 212.431 447.969 208.505 447.969 204.4V201.902C447.969 197.797 448.683 193.692 450.289 189.944C451.895 186.196 454.037 182.805 456.892 179.949C459.926 177.094 463.496 174.774 467.422 173.167C476.346 169.776 486.162 169.776 495.086 173.167C499.012 174.774 502.582 176.915 505.437 179.949C508.293 182.805 510.435 186.196 512.041 189.944C513.647 193.692 514.361 197.797 514.361 201.902V204.4C514.361 208.505 513.647 212.431 512.219 216.179C509.185 223.854 503.117 229.922 495.443 232.956C490.981 234.741 486.162 235.633 481.165 235.455ZM481.165 220.641C484.199 220.82 487.233 219.927 489.732 218.5C492.052 217.072 493.836 214.93 494.907 212.253C497.227 206.542 497.227 200.117 494.907 194.406C493.836 191.907 491.873 189.765 489.553 188.159C484.377 185.125 477.952 185.125 472.777 188.159C470.456 189.587 468.672 191.729 467.422 194.406C465.102 200.117 465.102 206.542 467.422 212.253C468.493 214.752 470.456 216.893 472.777 218.5C475.454 219.927 478.309 220.641 481.165 220.641Z" fill="url(#paint6_linear)"/>
<path d="M530.423 229.057C535.242 232.627 542.024 234.411 550.591 234.411C555.41 234.59 560.229 233.697 564.869 232.091C568.438 230.663 571.829 228.343 574.149 225.131C576.291 222.097 577.362 218.349 577.362 214.601C577.719 209.425 575.399 204.428 571.294 201.215C567.189 197.824 561.478 195.861 553.982 194.969L549.342 194.612C547.021 194.612 544.701 193.898 542.56 192.827C541.132 191.935 540.418 190.507 540.418 188.901C540.418 187.294 541.489 185.688 542.917 184.796C544.88 183.546 547.021 183.011 549.342 183.189C552.554 183.189 555.231 183.903 557.016 185.331C557.202 185.517 557.387 185.681 557.565 185.838C557.901 186.135 558.211 186.409 558.444 186.759C560.407 189.079 563.441 190.328 566.475 190.328H575.577C575.399 183.903 572.9 178.906 568.081 175.515C563.441 172.124 557.194 170.339 549.342 170.339C545.058 170.161 540.596 170.875 536.492 172.481C532.922 173.73 529.888 175.872 527.568 178.906C525.426 182.119 524.177 185.866 524.355 189.614C524.355 194.433 526.318 199.074 529.888 202.286C533.636 205.677 538.99 207.64 546.308 208.354L551.126 208.89C555.053 209.247 557.73 209.96 559.336 211.031C560.764 211.924 561.656 213.53 561.656 215.315C561.656 217.456 560.407 219.241 558.622 219.955C556.124 221.026 553.625 221.74 550.948 221.561C546.843 221.561 543.809 220.669 541.846 219.241C541.31 218.884 540.775 218.349 540.239 217.813C538.276 215.493 535.421 214.065 532.387 214.065H522.749C522.749 219.955 525.605 225.666 530.423 229.057Z" fill="url(#paint7_linear)"/>
<path d="M590.034 228.851V213.681H604.847C607.346 213.681 609.309 215.644 609.309 218.143V233.313H594.496C591.997 233.313 590.034 231.35 590.034 228.851Z" fill="url(#paint8_linear)"/>
<g opacity="0.8">
<mask id="mask0" style="mask-type:alpha" maskUnits="userSpaceOnUse" x="0" y="50" width="609" height="93">
<rect y="50" width="609" height="93" fill="#C4C4C4"/>
</mask>
<g mask="url(#mask0)">
<g opacity="0.8">
<mask id="path-4-inside-1" fill="white">
<path d="M0 88V168.313H11.2438C14.8133 168.313 17.6689 165.458 17.6689 161.888V140.646L36.2302 168.313V168.492H46.5816C50.6865 168.492 53.0067 163.851 50.6865 160.639L32.0197 133.863L45.6892 116.02C48.1879 112.629 45.8677 107.989 41.7628 107.989H33.3746L17.6689 128.624V94.4251C17.6689 90.8556 14.8133 88 11.2438 88H0Z"/>
<path fill-rule="evenodd" clip-rule="evenodd" d="M69.783 167.599C73.3524 169.206 77.2789 169.92 81.2053 169.92C84.7747 169.92 88.5227 169.206 91.9137 167.956C94.7693 166.529 97.0894 164.208 98.6957 161.353C99.4081 160.07 100.007 158.731 100.48 157.346V168.313H114.223V131.369C114.223 125.837 113.152 121.196 111.01 117.627C108.69 114.057 105.299 111.202 101.373 109.595C96.3755 107.632 91.1998 106.74 85.8456 106.918C84.816 106.918 83.7864 106.96 82.7171 107.002C81.5622 107.049 80.361 107.097 79.0636 107.097C77.9035 107.186 76.7434 107.231 75.5833 107.275C74.4233 107.32 73.2632 107.365 72.1031 107.454C69.783 107.454 67.8197 107.632 66.035 107.811V116.199C66.035 119.768 68.8906 122.624 72.4601 122.446H73.7094C75.1134 122.358 76.4742 122.313 77.8132 122.269C79.1975 122.224 80.5583 122.179 81.9192 122.089C84.5963 121.91 86.738 121.91 88.3442 121.91C91.5568 121.91 93.8769 122.802 95.3047 124.23C96.7325 125.658 97.4464 127.978 97.4464 131.191V131.548H86.7379C81.9192 131.369 77.1004 132.083 72.4601 133.511C68.7121 134.582 65.3211 136.723 62.8225 139.757C60.5023 142.97 59.253 146.718 59.4315 150.644C59.253 154.214 60.1454 157.783 62.1086 160.996C64.0718 163.851 66.5704 166.172 69.783 167.599ZM97.4464 141.364H86.5595C83.5254 141.364 81.0268 142.078 79.4205 143.684C77.8143 145.29 76.7434 147.432 76.9219 149.752C76.9219 152.072 77.8143 154.214 79.4205 155.642C81.0268 157.069 83.347 157.962 86.5595 157.962C88.3442 157.962 90.129 157.605 91.9137 156.891C93.52 156.177 94.9477 154.928 95.8401 153.321C96.5939 151.814 97.1708 150.129 97.4464 148.455V141.364Z"/>
<path d="M129.215 161.709V107.989H134.212C139.209 107.989 143.314 112.094 143.314 117.091V124.093C143.689 122.277 144.17 120.476 144.742 118.697C145.991 114.949 148.49 111.737 151.703 109.417C155.094 107.275 159.02 106.204 162.946 106.204H163.66C167.765 106.026 171.692 107.097 175.083 109.417C178.295 111.737 180.794 114.949 182.043 118.697C182.106 118.873 182.167 119.049 182.227 119.226C182.284 119.049 182.342 118.873 182.4 118.697C183.649 114.949 186.148 111.737 189.36 109.417C192.751 107.275 196.678 106.204 200.604 106.204H201.318C205.423 106.026 209.35 107.097 212.741 109.417C215.953 111.737 218.452 114.949 219.879 118.697C221.664 123.695 222.378 128.87 222.378 134.046V168.313H211.313C207.565 168.313 204.709 165.279 204.709 161.709V132.975C204.888 130.12 203.995 127.264 202.211 125.122C200.426 122.981 197.749 121.91 194.893 122.088C192.038 121.91 189.36 123.159 187.397 125.301C185.434 127.621 184.542 130.477 184.72 133.511V168.491H173.655C169.907 168.491 167.051 165.457 167.051 161.888V133.154C167.23 130.298 166.337 127.443 164.553 125.301C162.768 123.159 160.091 122.088 157.414 122.267C154.558 122.088 151.703 123.338 149.739 125.479C147.776 127.799 146.884 130.655 147.062 133.689V168.67H135.997C132.249 168.313 129.215 165.279 129.215 161.709Z"/>
<path fill-rule="evenodd" clip-rule="evenodd" d="M237.37 107.989V182.055C237.37 186.696 240.94 190.265 245.401 190.265H254.861V160.918C256.768 163.667 259.329 165.835 262.356 167.421C266.283 169.384 270.388 170.276 274.671 170.276C278.776 170.276 282.702 169.562 286.45 167.956C289.841 166.35 292.875 164.208 295.196 161.352C297.694 158.318 299.479 154.927 300.728 151.358C301.978 147.431 302.513 143.327 302.513 139.222V136.723C302.513 132.618 301.799 128.513 300.55 124.587C299.479 121.017 297.516 117.805 295.017 114.949C292.697 112.272 289.663 109.952 286.272 108.524C282.702 106.918 278.776 106.204 274.85 106.204C270.388 106.204 266.104 107.275 262.178 109.417C258.43 111.558 255.217 114.771 253.254 118.697C252.565 120.076 251.97 121.502 251.47 122.967V116.734C251.47 111.915 247.543 107.989 242.724 107.989H237.37ZM277.705 153.321C275.385 154.749 272.708 155.463 269.852 155.463C267.354 155.463 264.855 154.927 262.535 153.857C260.215 152.607 258.252 150.822 256.824 148.681C255.217 146.361 254.504 143.505 254.504 140.649V136.545C254.504 133.511 255.217 130.655 256.645 128.156C258.073 125.836 260.036 124.051 262.356 122.802C264.677 121.553 267.175 121.017 269.852 121.017C272.529 121.017 275.385 121.731 277.705 123.159C279.847 124.587 281.81 126.55 282.881 129.049C284.309 131.726 284.844 134.938 284.844 137.972C284.844 141.006 284.13 144.219 282.881 147.075C281.81 149.573 280.025 151.715 277.705 153.321Z"/>
<path fill-rule="evenodd" clip-rule="evenodd" d="M331.961 169.919C328.035 169.919 324.108 169.205 320.539 167.599C317.326 166.171 314.828 163.851 312.864 160.996C310.901 157.783 310.009 154.214 310.187 150.644C310.009 146.718 311.258 142.97 313.578 139.757C316.077 136.723 319.468 134.581 323.216 133.511C327.856 132.083 332.675 131.369 337.494 131.547H348.202V131.19C348.202 127.978 347.488 125.658 346.061 124.23C344.633 122.802 342.313 121.91 339.1 121.91C337.494 121.91 335.352 121.91 332.675 122.088C331.314 122.179 329.953 122.224 328.569 122.269C327.23 122.313 325.869 122.358 324.465 122.445C320.36 122.624 316.969 119.233 316.969 115.128V107.989C318.754 107.81 320.717 107.632 323.037 107.632C325.358 107.632 327.678 107.453 329.998 107.275C331.295 107.275 332.497 107.227 333.651 107.181C334.721 107.138 335.75 107.097 336.78 107.097C342.134 106.918 347.31 107.81 352.307 109.774C356.234 111.38 359.625 114.057 361.945 117.805C364.086 121.374 365.336 126.015 365.336 131.547V168.491H356.412C353.378 168.313 351.236 165.993 351.236 163.316V157.346C350.763 158.731 350.164 160.07 349.452 161.353C347.845 164.208 345.525 166.528 342.67 167.956C339.279 169.205 335.709 169.919 331.961 169.919ZM337.315 141.363H348.202V148.678C347.954 150.279 347.436 151.881 346.596 153.321C345.704 154.927 344.276 156.177 342.67 156.891C340.885 157.605 339.1 157.962 337.315 157.962C334.103 157.962 331.783 157.069 330.176 155.641C328.57 154.214 327.678 152.072 327.678 149.752C327.678 147.432 328.57 145.29 330.176 143.684C331.961 142.077 334.281 141.363 337.315 141.363Z"/>
<path d="M380.148 107.989V160.639C380.148 164.922 383.539 168.313 387.466 168.67H397.46V133.511C397.282 130.477 398.353 127.443 400.494 125.301C402.636 123.338 405.492 122.088 408.526 122.267C411.381 122.088 414.237 123.159 416.2 125.301C418.163 127.443 419.234 130.298 419.056 133.154V160.817C419.056 165.101 422.447 168.492 426.73 168.492H436.725V134.046C436.725 124.766 434.94 117.805 431.192 113.165C427.622 108.524 422.09 106.204 415.129 106.204H414.415C410.31 106.026 406.206 107.097 402.636 109.238C399.424 111.558 396.746 114.771 395.497 118.519C394.925 120.234 394.444 122.017 394.069 123.836V113.522C394.069 110.488 391.571 107.989 388.537 107.989H380.148Z"/>
<path fill-rule="evenodd" clip-rule="evenodd" d="M481.165 170.455C476.346 170.455 471.527 169.741 467.065 167.956C463.139 166.35 459.57 164.029 456.535 161.174C453.68 158.318 451.538 154.927 450.11 151.179C448.683 147.431 447.969 143.505 447.969 139.4V136.902C447.969 132.797 448.683 128.692 450.289 124.944C451.895 121.196 454.037 117.805 456.892 114.949C459.926 112.094 463.496 109.774 467.422 108.167C476.346 104.776 486.162 104.776 495.086 108.167C499.012 109.774 502.582 111.915 505.437 114.949C508.293 117.805 510.435 121.196 512.041 124.944C513.647 128.692 514.361 132.797 514.361 136.902V139.4C514.361 143.505 513.647 147.431 512.219 151.179C509.185 158.854 503.117 164.922 495.443 167.956C490.981 169.741 486.162 170.633 481.165 170.455ZM481.165 155.641C484.199 155.82 487.233 154.927 489.732 153.5C492.052 152.072 493.836 149.93 494.907 147.253C497.227 141.542 497.227 135.117 494.907 129.406C493.836 126.907 491.873 124.765 489.553 123.159C484.377 120.125 477.952 120.125 472.777 123.159C470.456 124.587 468.672 126.729 467.422 129.406C465.102 135.117 465.102 141.542 467.422 147.253C468.493 149.752 470.456 151.893 472.777 153.5C475.454 154.927 478.309 155.641 481.165 155.641Z"/>
<path d="M530.423 164.057C535.242 167.627 542.024 169.411 550.591 169.411C555.41 169.59 560.229 168.697 564.869 167.091C568.438 165.663 571.829 163.343 574.149 160.131C576.291 157.097 577.362 153.349 577.362 149.601C577.719 144.425 575.399 139.428 571.294 136.215C567.189 132.824 561.478 130.861 553.982 129.969L549.342 129.612C547.021 129.612 544.701 128.898 542.56 127.827C541.132 126.935 540.418 125.507 540.418 123.901C540.418 122.294 541.489 120.688 542.917 119.796C544.88 118.546 547.021 118.011 549.342 118.189C552.554 118.189 555.231 118.903 557.016 120.331C557.202 120.517 557.387 120.681 557.565 120.838C557.901 121.135 558.211 121.409 558.444 121.759C560.407 124.079 563.441 125.328 566.475 125.328H575.577C575.399 118.903 572.9 113.906 568.081 110.515C563.441 107.124 557.194 105.339 549.342 105.339C545.058 105.161 540.596 105.875 536.492 107.481C532.922 108.73 529.888 110.872 527.568 113.906C525.426 117.119 524.177 120.866 524.355 124.614C524.355 129.433 526.318 134.074 529.888 137.286C533.636 140.677 538.99 142.64 546.308 143.354L551.126 143.89C555.053 144.247 557.73 144.96 559.336 146.031C560.764 146.924 561.656 148.53 561.656 150.315C561.656 152.456 560.407 154.241 558.622 154.955C556.124 156.026 553.625 156.74 550.948 156.561C546.843 156.561 543.809 155.669 541.846 154.241C541.31 153.884 540.775 153.349 540.239 152.813C538.276 150.493 535.421 149.065 532.387 149.065H522.749C522.749 154.955 525.605 160.666 530.423 164.057Z"/>
</mask>
<path d="M0 88V168.313H11.2438C14.8133 168.313 17.6689 165.458 17.6689 161.888V140.646L36.2302 168.313V168.492H46.5816C50.6865 168.492 53.0067 163.851 50.6865 160.639L32.0197 133.863L45.6892 116.02C48.1879 112.629 45.8677 107.989 41.7628 107.989H33.3746L17.6689 128.624V94.4251C17.6689 90.8556 14.8133 88 11.2438 88H0Z" stroke="#0D3475" stroke-width="2" mask="url(#path-4-inside-1)"/>
<path fill-rule="evenodd" clip-rule="evenodd" d="M69.783 167.599C73.3524 169.206 77.2789 169.92 81.2053 169.92C84.7747 169.92 88.5227 169.206 91.9137 167.956C94.7693 166.529 97.0894 164.208 98.6957 161.353C99.4081 160.07 100.007 158.731 100.48 157.346V168.313H114.223V131.369C114.223 125.837 113.152 121.196 111.01 117.627C108.69 114.057 105.299 111.202 101.373 109.595C96.3755 107.632 91.1998 106.74 85.8456 106.918C84.816 106.918 83.7864 106.96 82.7171 107.002C81.5622 107.049 80.361 107.097 79.0636 107.097C77.9035 107.186 76.7434 107.231 75.5833 107.275C74.4233 107.32 73.2632 107.365 72.1031 107.454C69.783 107.454 67.8197 107.632 66.035 107.811V116.199C66.035 119.768 68.8906 122.624 72.4601 122.446H73.7094C75.1134 122.358 76.4742 122.313 77.8132 122.269C79.1975 122.224 80.5583 122.179 81.9192 122.089C84.5963 121.91 86.738 121.91 88.3442 121.91C91.5568 121.91 93.8769 122.802 95.3047 124.23C96.7325 125.658 97.4464 127.978 97.4464 131.191V131.548H86.7379C81.9192 131.369 77.1004 132.083 72.4601 133.511C68.7121 134.582 65.3211 136.723 62.8225 139.757C60.5023 142.97 59.253 146.718 59.4315 150.644C59.253 154.214 60.1454 157.783 62.1086 160.996C64.0718 163.851 66.5704 166.172 69.783 167.599ZM97.4464 141.364H86.5595C83.5254 141.364 81.0268 142.078 79.4205 143.684C77.8143 145.29 76.7434 147.432 76.9219 149.752C76.9219 152.072 77.8143 154.214 79.4205 155.642C81.0268 157.069 83.347 157.962 86.5595 157.962C88.3442 157.962 90.129 157.605 91.9137 156.891C93.52 156.177 94.9477 154.928 95.8401 153.321C96.5939 151.814 97.1708 150.129 97.4464 148.455V141.364Z" stroke="#0D3475" stroke-width="2" mask="url(#path-4-inside-1)"/>
<path d="M129.215 161.709V107.989H134.212C139.209 107.989 143.314 112.094 143.314 117.091V124.093C143.689 122.277 144.17 120.476 144.742 118.697C145.991 114.949 148.49 111.737 151.703 109.417C155.094 107.275 159.02 106.204 162.946 106.204H163.66C167.765 106.026 171.692 107.097 175.083 109.417C178.295 111.737 180.794 114.949 182.043 118.697C182.106 118.873 182.167 119.049 182.227 119.226C182.284 119.049 182.342 118.873 182.4 118.697C183.649 114.949 186.148 111.737 189.36 109.417C192.751 107.275 196.678 106.204 200.604 106.204H201.318C205.423 106.026 209.35 107.097 212.741 109.417C215.953 111.737 218.452 114.949 219.879 118.697C221.664 123.695 222.378 128.87 222.378 134.046V168.313H211.313C207.565 168.313 204.709 165.279 204.709 161.709V132.975C204.888 130.12 203.995 127.264 202.211 125.122C200.426 122.981 197.749 121.91 194.893 122.088C192.038 121.91 189.36 123.159 187.397 125.301C185.434 127.621 184.542 130.477 184.72 133.511V168.491H173.655C169.907 168.491 167.051 165.457 167.051 161.888V133.154C167.23 130.298 166.337 127.443 164.553 125.301C162.768 123.159 160.091 122.088 157.414 122.267C154.558 122.088 151.703 123.338 149.739 125.479C147.776 127.799 146.884 130.655 147.062 133.689V168.67H135.997C132.249 168.313 129.215 165.279 129.215 161.709Z" stroke="#0D3475" stroke-width="2" mask="url(#path-4-inside-1)"/>
<path fill-rule="evenodd" clip-rule="evenodd" d="M237.37 107.989V182.055C237.37 186.696 240.94 190.265 245.401 190.265H254.861V160.918C256.768 163.667 259.329 165.835 262.356 167.421C266.283 169.384 270.388 170.276 274.671 170.276C278.776 170.276 282.702 169.562 286.45 167.956C289.841 166.35 292.875 164.208 295.196 161.352C297.694 158.318 299.479 154.927 300.728 151.358C301.978 147.431 302.513 143.327 302.513 139.222V136.723C302.513 132.618 301.799 128.513 300.55 124.587C299.479 121.017 297.516 117.805 295.017 114.949C292.697 112.272 289.663 109.952 286.272 108.524C282.702 106.918 278.776 106.204 274.85 106.204C270.388 106.204 266.104 107.275 262.178 109.417C258.43 111.558 255.217 114.771 253.254 118.697C252.565 120.076 251.97 121.502 251.47 122.967V116.734C251.47 111.915 247.543 107.989 242.724 107.989H237.37ZM277.705 153.321C275.385 154.749 272.708 155.463 269.852 155.463C267.354 155.463 264.855 154.927 262.535 153.857C260.215 152.607 258.252 150.822 256.824 148.681C255.217 146.361 254.504 143.505 254.504 140.649V136.545C254.504 133.511 255.217 130.655 256.645 128.156C258.073 125.836 260.036 124.051 262.356 122.802C264.677 121.553 267.175 121.017 269.852 121.017C272.529 121.017 275.385 121.731 277.705 123.159C279.847 124.587 281.81 126.55 282.881 129.049C284.309 131.726 284.844 134.938 284.844 137.972C284.844 141.006 284.13 144.219 282.881 147.075C281.81 149.573 280.025 151.715 277.705 153.321Z" stroke="#0D3475" stroke-width="2" mask="url(#path-4-inside-1)"/>
<path fill-rule="evenodd" clip-rule="evenodd" d="M331.961 169.919C328.035 169.919 324.108 169.205 320.539 167.599C317.326 166.171 314.828 163.851 312.864 160.996C310.901 157.783 310.009 154.214 310.187 150.644C310.009 146.718 311.258 142.97 313.578 139.757C316.077 136.723 319.468 134.581 323.216 133.511C327.856 132.083 332.675 131.369 337.494 131.547H348.202V131.19C348.202 127.978 347.488 125.658 346.061 124.23C344.633 122.802 342.313 121.91 339.1 121.91C337.494 121.91 335.352 121.91 332.675 122.088C331.314 122.179 329.953 122.224 328.569 122.269C327.23 122.313 325.869 122.358 324.465 122.445C320.36 122.624 316.969 119.233 316.969 115.128V107.989C318.754 107.81 320.717 107.632 323.037 107.632C325.358 107.632 327.678 107.453 329.998 107.275C331.295 107.275 332.497 107.227 333.651 107.181C334.721 107.138 335.75 107.097 336.78 107.097C342.134 106.918 347.31 107.81 352.307 109.774C356.234 111.38 359.625 114.057 361.945 117.805C364.086 121.374 365.336 126.015 365.336 131.547V168.491H356.412C353.378 168.313 351.236 165.993 351.236 163.316V157.346C350.763 158.731 350.164 160.07 349.452 161.353C347.845 164.208 345.525 166.528 342.67 167.956C339.279 169.205 335.709 169.919 331.961 169.919ZM337.315 141.363H348.202V148.678C347.954 150.279 347.436 151.881 346.596 153.321C345.704 154.927 344.276 156.177 342.67 156.891C340.885 157.605 339.1 157.962 337.315 157.962C334.103 157.962 331.783 157.069 330.176 155.641C328.57 154.214 327.678 152.072 327.678 149.752C327.678 147.432 328.57 145.29 330.176 143.684C331.961 142.077 334.281 141.363 337.315 141.363Z" stroke="#0D3475" stroke-width="2" mask="url(#path-4-inside-1)"/>
<path d="M380.148 107.989V160.639C380.148 164.922 383.539 168.313 387.466 168.67H397.46V133.511C397.282 130.477 398.353 127.443 400.494 125.301C402.636 123.338 405.492 122.088 408.526 122.267C411.381 122.088 414.237 123.159 416.2 125.301C418.163 127.443 419.234 130.298 419.056 133.154V160.817C419.056 165.101 422.447 168.492 426.73 168.492H436.725V134.046C436.725 124.766 434.94 117.805 431.192 113.165C427.622 108.524 422.09 106.204 415.129 106.204H414.415C410.31 106.026 406.206 107.097 402.636 109.238C399.424 111.558 396.746 114.771 395.497 118.519C394.925 120.234 394.444 122.017 394.069 123.836V113.522C394.069 110.488 391.571 107.989 388.537 107.989H380.148Z" stroke="#0D3475" stroke-width="2" mask="url(#path-4-inside-1)"/>
<path fill-rule="evenodd" clip-rule="evenodd" d="M481.165 170.455C476.346 170.455 471.527 169.741 467.065 167.956C463.139 166.35 459.57 164.029 456.535 161.174C453.68 158.318 451.538 154.927 450.11 151.179C448.683 147.431 447.969 143.505 447.969 139.4V136.902C447.969 132.797 448.683 128.692 450.289 124.944C451.895 121.196 454.037 117.805 456.892 114.949C459.926 112.094 463.496 109.774 467.422 108.167C476.346 104.776 486.162 104.776 495.086 108.167C499.012 109.774 502.582 111.915 505.437 114.949C508.293 117.805 510.435 121.196 512.041 124.944C513.647 128.692 514.361 132.797 514.361 136.902V139.4C514.361 143.505 513.647 147.431 512.219 151.179C509.185 158.854 503.117 164.922 495.443 167.956C490.981 169.741 486.162 170.633 481.165 170.455ZM481.165 155.641C484.199 155.82 487.233 154.927 489.732 153.5C492.052 152.072 493.836 149.93 494.907 147.253C497.227 141.542 497.227 135.117 494.907 129.406C493.836 126.907 491.873 124.765 489.553 123.159C484.377 120.125 477.952 120.125 472.777 123.159C470.456 124.587 468.672 126.729 467.422 129.406C465.102 135.117 465.102 141.542 467.422 147.253C468.493 149.752 470.456 151.893 472.777 153.5C475.454 154.927 478.309 155.641 481.165 155.641Z" stroke="#0D3475" stroke-width="2" mask="url(#path-4-inside-1)"/>
<path d="M530.423 164.057C535.242 167.627 542.024 169.411 550.591 169.411C555.41 169.59 560.229 168.697 564.869 167.091C568.438 165.663 571.829 163.343 574.149 160.131C576.291 157.097 577.362 153.349 577.362 149.601C577.719 144.425 575.399 139.428 571.294 136.215C567.189 132.824 561.478 130.861 553.982 129.969L549.342 129.612C547.021 129.612 544.701 128.898 542.56 127.827C541.132 126.935 540.418 125.507 540.418 123.901C540.418 122.294 541.489 120.688 542.917 119.796C544.88 118.546 547.021 118.011 549.342 118.189C552.554 118.189 555.231 118.903 557.016 120.331C557.202 120.517 557.387 120.681 557.565 120.838C557.901 121.135 558.211 121.409 558.444 121.759C560.407 124.079 563.441 125.328 566.475 125.328H575.577C575.399 118.903 572.9 113.906 568.081 110.515C563.441 107.124 557.194 105.339 549.342 105.339C545.058 105.161 540.596 105.875 536.492 107.481C532.922 108.73 529.888 110.872 527.568 113.906C525.426 117.119 524.177 120.866 524.355 124.614C524.355 129.433 526.318 134.074 529.888 137.286C533.636 140.677 538.99 142.64 546.308 143.354L551.126 143.89C555.053 144.247 557.73 144.96 559.336 146.031C560.764 146.924 561.656 148.53 561.656 150.315C561.656 152.456 560.407 154.241 558.622 154.955C556.124 156.026 553.625 156.74 550.948 156.561C546.843 156.561 543.809 155.669 541.846 154.241C541.31 153.884 540.775 153.349 540.239 152.813C538.276 150.493 535.421 149.065 532.387 149.065H522.749C522.749 154.955 525.605 160.666 530.423 164.057Z" stroke="#0D3475" stroke-width="2" mask="url(#path-4-inside-1)"/>
</g>
</g>
</g>
<g opacity="0.5">
<mask id="mask1" style="mask-type:alpha" maskUnits="userSpaceOnUse" x="0" y="0" width="609" height="76">
<rect width="609" height="76" fill="#C4C4C4"/>
</mask>
<g mask="url(#mask1)">
<mask id="path-6-inside-2" fill="white">
<path d="M0 38V118.313H11.2438C14.8133 118.313 17.6689 115.458 17.6689 111.888V90.6464L36.2302 118.313V118.492H46.5816C50.6865 118.492 53.0067 113.851 50.6865 110.639L32.0197 83.8627L45.6892 66.0204C48.1879 62.6294 45.8677 57.9891 41.7628 57.9891H33.3746L17.6689 78.6243V44.4251C17.6689 40.8556 14.8133 38 11.2438 38H0Z"/>
<path fill-rule="evenodd" clip-rule="evenodd" d="M69.783 117.599C73.3524 119.206 77.2789 119.92 81.2053 119.92C84.7747 119.92 88.5227 119.206 91.9137 117.956C94.7693 116.529 97.0894 114.208 98.6957 111.353C99.4081 110.07 100.007 108.731 100.48 107.346V118.313H114.223V81.3692C114.223 75.8365 113.152 71.1962 111.01 67.6267C108.69 64.0573 105.299 61.2017 101.373 59.5954C96.3755 57.6322 91.1998 56.7398 85.8456 56.9183C84.816 56.9183 83.7864 56.9596 82.7171 57.0024C81.5622 57.0487 80.361 57.0968 79.0636 57.0968C77.9035 57.186 76.7434 57.2307 75.5833 57.2753C74.4233 57.3199 73.2632 57.3645 72.1031 57.4538C69.783 57.4538 67.8197 57.6322 66.035 57.8107V66.199C66.035 69.7684 68.8906 72.624 72.4601 72.4455H73.7094C75.1134 72.3578 76.4742 72.3132 77.8132 72.2693C79.1975 72.2239 80.5583 72.1793 81.9192 72.0886C84.5963 71.9101 86.738 71.9101 88.3442 71.9101C91.5568 71.9101 93.8769 72.8025 95.3047 74.2303C96.7325 75.6581 97.4464 77.9782 97.4464 81.1907V81.5477H86.7379C81.9192 81.3692 77.1004 82.0831 72.4601 83.5109C68.7121 84.5817 65.3211 86.7234 62.8225 89.7574C60.5023 92.97 59.253 96.7179 59.4315 100.644C59.253 104.214 60.1454 107.783 62.1086 110.996C64.0718 113.851 66.5704 116.172 69.783 117.599ZM97.4464 91.3638H86.5595C83.5254 91.3638 81.0268 92.0776 79.4205 93.6839C77.8143 95.2901 76.7434 97.4318 76.9219 99.752C76.9219 102.072 77.8143 104.214 79.4205 105.642C81.0268 107.069 83.347 107.962 86.5595 107.962C88.3442 107.962 90.129 107.605 91.9137 106.891C93.52 106.177 94.9477 104.928 95.8401 103.321C96.5939 101.814 97.1708 100.129 97.4464 98.4549V91.3638Z"/>
<path d="M129.215 111.709V57.9889H134.212C139.209 57.9889 143.314 62.0938 143.314 67.0911V74.0934C143.689 72.2775 144.17 70.4761 144.742 68.6973C145.991 64.9494 148.49 61.7368 151.703 59.4167C155.094 57.275 159.02 56.2042 162.946 56.2042H163.66C167.765 56.0257 171.692 57.0965 175.083 59.4167C178.295 61.7368 180.794 64.9494 182.043 68.6973C182.106 68.8732 182.167 69.0492 182.227 69.2255C182.284 69.0488 182.342 68.8727 182.4 68.6973C183.649 64.9494 186.148 61.7368 189.36 59.4167C192.751 57.275 196.678 56.2042 200.604 56.2042H201.318C205.423 56.0257 209.35 57.0965 212.741 59.4167C215.953 61.7368 218.452 64.9494 219.879 68.6973C221.664 73.6946 222.378 78.8703 222.378 84.0461V118.313H211.313C207.565 118.313 204.709 115.279 204.709 111.709V82.9752C204.888 80.1196 203.995 77.2641 202.211 75.1224C200.426 72.9807 197.749 71.9099 194.893 72.0883C192.038 71.9099 189.36 73.1592 187.397 75.3009C185.434 77.621 184.542 80.4766 184.72 83.5106V118.491H173.655C169.907 118.491 167.051 115.457 167.051 111.888V83.1537C167.23 80.2981 166.337 77.4426 164.553 75.3009C162.768 73.1592 160.091 72.0883 157.414 72.2668C154.558 72.0883 151.703 73.3376 149.739 75.4793C147.776 77.7995 146.884 80.6551 147.062 83.6891V118.67H135.997C132.249 118.313 129.215 115.279 129.215 111.709Z"/>
<path fill-rule="evenodd" clip-rule="evenodd" d="M237.37 57.9888V132.055C237.37 136.696 240.94 140.265 245.401 140.265H254.861V110.918C256.768 113.667 259.329 115.835 262.356 117.421C266.283 119.384 270.388 120.276 274.671 120.276C278.776 120.276 282.702 119.562 286.45 117.956C289.841 116.35 292.875 114.208 295.196 111.352C297.694 108.318 299.479 104.927 300.728 101.358C301.978 97.4315 302.513 93.3266 302.513 89.2217V86.7231C302.513 82.6182 301.799 78.5133 300.55 74.5869C299.479 71.0174 297.516 67.8049 295.017 64.9493C292.697 62.2722 289.663 59.952 286.272 58.5242C282.702 56.918 278.776 56.2041 274.85 56.2041C270.388 56.2041 266.104 57.2749 262.178 59.4166C258.43 61.5583 255.217 64.7708 253.254 68.6973C252.565 70.0762 251.97 71.5024 251.47 72.9666V66.734C251.47 61.9152 247.543 57.9888 242.724 57.9888H237.37ZM277.705 103.321C275.385 104.749 272.708 105.463 269.852 105.463C267.354 105.463 264.855 104.927 262.535 103.857C260.215 102.607 258.252 100.822 256.824 98.6808C255.217 96.3606 254.504 93.5051 254.504 90.6495V86.5446C254.504 83.5106 255.217 80.655 256.645 78.1563C258.073 75.8362 260.036 74.0514 262.356 72.8021C264.677 71.5528 267.175 71.0174 269.852 71.0174C272.529 71.0174 275.385 71.7313 277.705 73.1591C279.847 74.5869 281.81 76.5501 282.881 79.0487C284.309 81.7258 284.844 84.9383 284.844 87.9724C284.844 91.0064 284.13 94.219 282.881 97.0746C281.81 99.5732 280.025 101.715 277.705 103.321Z"/>
<path fill-rule="evenodd" clip-rule="evenodd" d="M331.961 119.919C328.035 119.919 324.108 119.205 320.539 117.599C317.326 116.171 314.828 113.851 312.864 110.996C310.901 107.783 310.009 104.214 310.187 100.644C310.009 96.7177 311.258 92.9697 313.578 89.7572C316.077 86.7231 319.468 84.5814 323.216 83.5106C327.856 82.0828 332.675 81.369 337.494 81.5474H348.202V81.1905C348.202 77.9779 347.488 75.6578 346.061 74.23C344.633 72.8022 342.313 71.9098 339.1 71.9098C337.494 71.9098 335.352 71.9098 332.675 72.0883C331.314 72.179 329.953 72.2236 328.569 72.269C327.23 72.3129 325.869 72.3575 324.465 72.4453C320.36 72.6237 316.969 69.2327 316.969 65.1278V57.9889C318.754 57.8104 320.717 57.6319 323.037 57.6319C325.358 57.6319 327.678 57.4535 329.998 57.275C331.295 57.275 332.497 57.2269 333.651 57.1806C334.721 57.1378 335.75 57.0965 336.78 57.0965C342.134 56.9181 347.31 57.8104 352.307 59.7736C356.234 61.3799 359.625 64.057 361.945 67.8049C364.086 71.3744 365.336 76.0148 365.336 81.5474V118.491H356.412C353.378 118.313 351.236 115.993 351.236 113.316V107.346C350.763 108.731 350.164 110.07 349.452 111.353C347.845 114.208 345.525 116.528 342.67 117.956C339.279 119.205 335.709 119.919 331.961 119.919ZM337.315 91.3635H348.202V98.6781C347.954 100.279 347.436 101.881 346.596 103.321C345.704 104.927 344.276 106.177 342.67 106.891C340.885 107.605 339.1 107.962 337.315 107.962C334.103 107.962 331.783 107.069 330.176 105.641C328.57 104.214 327.678 102.072 327.678 99.7517C327.678 97.4316 328.57 95.2899 330.176 93.6836C331.961 92.0774 334.281 91.3635 337.315 91.3635Z"/>
<path d="M380.148 57.989V110.639C380.148 114.922 383.539 118.313 387.466 118.67H397.46V83.5107C397.282 80.4766 398.353 77.4426 400.494 75.3009C402.636 73.3377 405.492 72.0884 408.526 72.2669C411.381 72.0884 414.237 73.1593 416.2 75.3009C418.163 77.4426 419.234 80.2982 419.056 83.1538V110.817C419.056 115.101 422.447 118.492 426.73 118.492H436.725V84.0461C436.725 74.7655 434.94 67.805 431.192 63.1647C427.622 58.5244 422.09 56.2042 415.129 56.2042H414.415C410.31 56.0258 406.206 57.0966 402.636 59.2383C399.424 61.5585 396.746 64.771 395.497 68.5189C394.925 70.2342 394.444 72.0173 394.069 73.836V63.5217C394.069 60.4876 391.571 57.989 388.537 57.989H380.148Z"/>
<path fill-rule="evenodd" clip-rule="evenodd" d="M481.165 120.455C476.346 120.455 471.527 119.741 467.065 117.956C463.139 116.35 459.57 114.029 456.535 111.174C453.68 108.318 451.538 104.927 450.11 101.179C448.683 97.4315 447.969 93.505 447.969 89.4002V86.9015C447.969 82.7966 448.683 78.6917 450.289 74.9438C451.895 71.1958 454.037 67.8048 456.892 64.9492C459.926 62.0937 463.496 59.7735 467.422 58.1673C476.346 54.7763 486.162 54.7763 495.086 58.1673C499.012 59.7735 502.582 61.9152 505.437 64.9492C508.293 67.8048 510.435 71.1958 512.041 74.9438C513.647 78.6917 514.361 82.7966 514.361 86.9015V89.4002C514.361 93.505 513.647 97.4315 512.219 101.179C509.185 108.854 503.117 114.922 495.443 117.956C490.981 119.741 486.162 120.633 481.165 120.455ZM481.165 105.641C484.199 105.82 487.233 104.927 489.732 103.5C492.052 102.072 493.836 99.9301 494.907 97.253C497.227 91.5418 497.227 85.1168 494.907 79.4056C493.836 76.907 491.873 74.7653 489.553 73.159C484.377 70.125 477.952 70.125 472.777 73.159C470.456 74.5868 468.672 76.7285 467.422 79.4056C465.102 85.1168 465.102 91.5418 467.422 97.253C468.493 99.7516 470.456 101.893 472.777 103.5C475.454 104.927 478.309 105.641 481.165 105.641Z"/>
<path d="M530.423 114.057C535.242 117.627 542.024 119.411 550.591 119.411C555.41 119.59 560.229 118.697 564.869 117.091C568.438 115.663 571.829 113.343 574.149 110.131C576.291 107.097 577.362 103.349 577.362 99.6007C577.719 94.425 575.399 89.4277 571.294 86.2152C567.189 82.8242 561.478 80.861 553.982 79.9686L549.342 79.6117C547.021 79.6117 544.701 78.8978 542.56 77.827C541.132 76.9346 540.418 75.5068 540.418 73.9005C540.418 72.2943 541.489 70.688 542.917 69.7956C544.88 68.5463 547.021 68.0109 549.342 68.1894C552.554 68.1894 555.231 68.9033 557.016 70.331C557.202 70.5167 557.387 70.6808 557.565 70.8384C557.901 71.1354 558.211 71.4091 558.444 71.7589C560.407 74.079 563.441 75.3283 566.475 75.3283H575.577C575.399 68.9033 572.9 63.906 568.081 60.515C563.441 57.124 557.194 55.3393 549.342 55.3393C545.058 55.1608 540.596 55.8747 536.492 57.481C532.922 58.7303 529.888 60.8719 527.568 63.906C525.426 67.1185 524.177 70.8665 524.355 74.6144C524.355 79.4332 526.318 84.0735 529.888 87.286C533.636 90.677 538.99 92.6402 546.308 93.3541L551.126 93.8896C555.053 94.2465 557.73 94.9604 559.336 96.0312C560.764 96.9236 561.656 98.5299 561.656 100.315C561.656 102.456 560.407 104.241 558.622 104.955C556.124 106.026 553.625 106.74 550.948 106.561C546.843 106.561 543.809 105.669 541.846 104.241C541.31 103.884 540.775 103.349 540.239 102.813C538.276 100.493 535.421 99.0653 532.387 99.0653H522.749C522.749 104.955 525.605 110.666 530.423 114.057Z"/>
</mask>
<path d="M0 38V118.313H11.2438C14.8133 118.313 17.6689 115.458 17.6689 111.888V90.6464L36.2302 118.313V118.492H46.5816C50.6865 118.492 53.0067 113.851 50.6865 110.639L32.0197 83.8627L45.6892 66.0204C48.1879 62.6294 45.8677 57.9891 41.7628 57.9891H33.3746L17.6689 78.6243V44.4251C17.6689 40.8556 14.8133 38 11.2438 38H0Z" stroke="#0D3475" stroke-width="2" mask="url(#path-6-inside-2)"/>
<path fill-rule="evenodd" clip-rule="evenodd" d="M69.783 117.599C73.3524 119.206 77.2789 119.92 81.2053 119.92C84.7747 119.92 88.5227 119.206 91.9137 117.956C94.7693 116.529 97.0894 114.208 98.6957 111.353C99.4081 110.07 100.007 108.731 100.48 107.346V118.313H114.223V81.3692C114.223 75.8365 113.152 71.1962 111.01 67.6267C108.69 64.0573 105.299 61.2017 101.373 59.5954C96.3755 57.6322 91.1998 56.7398 85.8456 56.9183C84.816 56.9183 83.7864 56.9596 82.7171 57.0024C81.5622 57.0487 80.361 57.0968 79.0636 57.0968C77.9035 57.186 76.7434 57.2307 75.5833 57.2753C74.4233 57.3199 73.2632 57.3645 72.1031 57.4538C69.783 57.4538 67.8197 57.6322 66.035 57.8107V66.199C66.035 69.7684 68.8906 72.624 72.4601 72.4455H73.7094C75.1134 72.3578 76.4742 72.3132 77.8132 72.2693C79.1975 72.2239 80.5583 72.1793 81.9192 72.0886C84.5963 71.9101 86.738 71.9101 88.3442 71.9101C91.5568 71.9101 93.8769 72.8025 95.3047 74.2303C96.7325 75.6581 97.4464 77.9782 97.4464 81.1907V81.5477H86.7379C81.9192 81.3692 77.1004 82.0831 72.4601 83.5109C68.7121 84.5817 65.3211 86.7234 62.8225 89.7574C60.5023 92.97 59.253 96.7179 59.4315 100.644C59.253 104.214 60.1454 107.783 62.1086 110.996C64.0718 113.851 66.5704 116.172 69.783 117.599ZM97.4464 91.3638H86.5595C83.5254 91.3638 81.0268 92.0776 79.4205 93.6839C77.8143 95.2901 76.7434 97.4318 76.9219 99.752C76.9219 102.072 77.8143 104.214 79.4205 105.642C81.0268 107.069 83.347 107.962 86.5595 107.962C88.3442 107.962 90.129 107.605 91.9137 106.891C93.52 106.177 94.9477 104.928 95.8401 103.321C96.5939 101.814 97.1708 100.129 97.4464 98.4549V91.3638Z" stroke="#0D3475" stroke-width="2" mask="url(#path-6-inside-2)"/>
<path d="M129.215 111.709V57.9889H134.212C139.209 57.9889 143.314 62.0938 143.314 67.0911V74.0934C143.689 72.2775 144.17 70.4761 144.742 68.6973C145.991 64.9494 148.49 61.7368 151.703 59.4167C155.094 57.275 159.02 56.2042 162.946 56.2042H163.66C167.765 56.0257 171.692 57.0965 175.083 59.4167C178.295 61.7368 180.794 64.9494 182.043 68.6973C182.106 68.8732 182.167 69.0492 182.227 69.2255C182.284 69.0488 182.342 68.8727 182.4 68.6973C183.649 64.9494 186.148 61.7368 189.36 59.4167C192.751 57.275 196.678 56.2042 200.604 56.2042H201.318C205.423 56.0257 209.35 57.0965 212.741 59.4167C215.953 61.7368 218.452 64.9494 219.879 68.6973C221.664 73.6946 222.378 78.8703 222.378 84.0461V118.313H211.313C207.565 118.313 204.709 115.279 204.709 111.709V82.9752C204.888 80.1196 203.995 77.2641 202.211 75.1224C200.426 72.9807 197.749 71.9099 194.893 72.0883C192.038 71.9099 189.36 73.1592 187.397 75.3009C185.434 77.621 184.542 80.4766 184.72 83.5106V118.491H173.655C169.907 118.491 167.051 115.457 167.051 111.888V83.1537C167.23 80.2981 166.337 77.4426 164.553 75.3009C162.768 73.1592 160.091 72.0883 157.414 72.2668C154.558 72.0883 151.703 73.3376 149.739 75.4793C147.776 77.7995 146.884 80.6551 147.062 83.6891V118.67H135.997C132.249 118.313 129.215 115.279 129.215 111.709Z" stroke="#0D3475" stroke-width="2" mask="url(#path-6-inside-2)"/>
<path fill-rule="evenodd" clip-rule="evenodd" d="M237.37 57.9888V132.055C237.37 136.696 240.94 140.265 245.401 140.265H254.861V110.918C256.768 113.667 259.329 115.835 262.356 117.421C266.283 119.384 270.388 120.276 274.671 120.276C278.776 120.276 282.702 119.562 286.45 117.956C289.841 116.35 292.875 114.208 295.196 111.352C297.694 108.318 299.479 104.927 300.728 101.358C301.978 97.4315 302.513 93.3266 302.513 89.2217V86.7231C302.513 82.6182 301.799 78.5133 300.55 74.5869C299.479 71.0174 297.516 67.8049 295.017 64.9493C292.697 62.2722 289.663 59.952 286.272 58.5242C282.702 56.918 278.776 56.2041 274.85 56.2041C270.388 56.2041 266.104 57.2749 262.178 59.4166C258.43 61.5583 255.217 64.7708 253.254 68.6973C252.565 70.0762 251.97 71.5024 251.47 72.9666V66.734C251.47 61.9152 247.543 57.9888 242.724 57.9888H237.37ZM277.705 103.321C275.385 104.749 272.708 105.463 269.852 105.463C267.354 105.463 264.855 104.927 262.535 103.857C260.215 102.607 258.252 100.822 256.824 98.6808C255.217 96.3606 254.504 93.5051 254.504 90.6495V86.5446C254.504 83.5106 255.217 80.655 256.645 78.1563C258.073 75.8362 260.036 74.0514 262.356 72.8021C264.677 71.5528 267.175 71.0174 269.852 71.0174C272.529 71.0174 275.385 71.7313 277.705 73.1591C279.847 74.5869 281.81 76.5501 282.881 79.0487C284.309 81.7258 284.844 84.9383 284.844 87.9724C284.844 91.0064 284.13 94.219 282.881 97.0746C281.81 99.5732 280.025 101.715 277.705 103.321Z" stroke="#0D3475" stroke-width="2" mask="url(#path-6-inside-2)"/>
<path fill-rule="evenodd" clip-rule="evenodd" d="M331.961 119.919C328.035 119.919 324.108 119.205 320.539 117.599C317.326 116.171 314.828 113.851 312.864 110.996C310.901 107.783 310.009 104.214 310.187 100.644C310.009 96.7177 311.258 92.9697 313.578 89.7572C316.077 86.7231 319.468 84.5814 323.216 83.5106C327.856 82.0828 332.675 81.369 337.494 81.5474H348.202V81.1905C348.202 77.9779 347.488 75.6578 346.061 74.23C344.633 72.8022 342.313 71.9098 339.1 71.9098C337.494 71.9098 335.352 71.9098 332.675 72.0883C331.314 72.179 329.953 72.2236 328.569 72.269C327.23 72.3129 325.869 72.3575 324.465 72.4453C320.36 72.6237 316.969 69.2327 316.969 65.1278V57.9889C318.754 57.8104 320.717 57.6319 323.037 57.6319C325.358 57.6319 327.678 57.4535 329.998 57.275C331.295 57.275 332.497 57.2269 333.651 57.1806C334.721 57.1378 335.75 57.0965 336.78 57.0965C342.134 56.9181 347.31 57.8104 352.307 59.7736C356.234 61.3799 359.625 64.057 361.945 67.8049C364.086 71.3744 365.336 76.0148 365.336 81.5474V118.491H356.412C353.378 118.313 351.236 115.993 351.236 113.316V107.346C350.763 108.731 350.164 110.07 349.452 111.353C347.845 114.208 345.525 116.528 342.67 117.956C339.279 119.205 335.709 119.919 331.961 119.919ZM337.315 91.3635H348.202V98.6781C347.954 100.279 347.436 101.881 346.596 103.321C345.704 104.927 344.276 106.177 342.67 106.891C340.885 107.605 339.1 107.962 337.315 107.962C334.103 107.962 331.783 107.069 330.176 105.641C328.57 104.214 327.678 102.072 327.678 99.7517C327.678 97.4316 328.57 95.2899 330.176 93.6836C331.961 92.0774 334.281 91.3635 337.315 91.3635Z" stroke="#0D3475" stroke-width="2" mask="url(#path-6-inside-2)"/>
<path d="M380.148 57.989V110.639C380.148 114.922 383.539 118.313 387.466 118.67H397.46V83.5107C397.282 80.4766 398.353 77.4426 400.494 75.3009C402.636 73.3377 405.492 72.0884 408.526 72.2669C411.381 72.0884 414.237 73.1593 416.2 75.3009C418.163 77.4426 419.234 80.2982 419.056 83.1538V110.817C419.056 115.101 422.447 118.492 426.73 118.492H436.725V84.0461C436.725 74.7655 434.94 67.805 431.192 63.1647C427.622 58.5244 422.09 56.2042 415.129 56.2042H414.415C410.31 56.0258 406.206 57.0966 402.636 59.2383C399.424 61.5585 396.746 64.771 395.497 68.5189C394.925 70.2342 394.444 72.0173 394.069 73.836V63.5217C394.069 60.4876 391.571 57.989 388.537 57.989H380.148Z" stroke="#0D3475" stroke-width="2" mask="url(#path-6-inside-2)"/>
<path fill-rule="evenodd" clip-rule="evenodd" d="M481.165 120.455C476.346 120.455 471.527 119.741 467.065 117.956C463.139 116.35 459.57 114.029 456.535 111.174C453.68 108.318 451.538 104.927 450.11 101.179C448.683 97.4315 447.969 93.505 447.969 89.4002V86.9015C447.969 82.7966 448.683 78.6917 450.289 74.9438C451.895 71.1958 454.037 67.8048 456.892 64.9492C459.926 62.0937 463.496 59.7735 467.422 58.1673C476.346 54.7763 486.162 54.7763 495.086 58.1673C499.012 59.7735 502.582 61.9152 505.437 64.9492C508.293 67.8048 510.435 71.1958 512.041 74.9438C513.647 78.6917 514.361 82.7966 514.361 86.9015V89.4002C514.361 93.505 513.647 97.4315 512.219 101.179C509.185 108.854 503.117 114.922 495.443 117.956C490.981 119.741 486.162 120.633 481.165 120.455ZM481.165 105.641C484.199 105.82 487.233 104.927 489.732 103.5C492.052 102.072 493.836 99.9301 494.907 97.253C497.227 91.5418 497.227 85.1168 494.907 79.4056C493.836 76.907 491.873 74.7653 489.553 73.159C484.377 70.125 477.952 70.125 472.777 73.159C470.456 74.5868 468.672 76.7285 467.422 79.4056C465.102 85.1168 465.102 91.5418 467.422 97.253C468.493 99.7516 470.456 101.893 472.777 103.5C475.454 104.927 478.309 105.641 481.165 105.641Z" stroke="#0D3475" stroke-width="2" mask="url(#path-6-inside-2)"/>
<path d="M530.423 114.057C535.242 117.627 542.024 119.411 550.591 119.411C555.41 119.59 560.229 118.697 564.869 117.091C568.438 115.663 571.829 113.343 574.149 110.131C576.291 107.097 577.362 103.349 577.362 99.6007C577.719 94.425 575.399 89.4277 571.294 86.2152C567.189 82.8242 561.478 80.861 553.982 79.9686L549.342 79.6117C547.021 79.6117 544.701 78.8978 542.56 77.827C541.132 76.9346 540.418 75.5068 540.418 73.9005C540.418 72.2943 541.489 70.688 542.917 69.7956C544.88 68.5463 547.021 68.0109 549.342 68.1894C552.554 68.1894 555.231 68.9033 557.016 70.331C557.202 70.5167 557.387 70.6808 557.565 70.8384C557.901 71.1354 558.211 71.4091 558.444 71.7589C560.407 74.079 563.441 75.3283 566.475 75.3283H575.577C575.399 68.9033 572.9 63.906 568.081 60.515C563.441 57.124 557.194 55.3393 549.342 55.3393C545.058 55.1608 540.596 55.8747 536.492 57.481C532.922 58.7303 529.888 60.8719 527.568 63.906C525.426 67.1185 524.177 70.8665 524.355 74.6144C524.355 79.4332 526.318 84.0735 529.888 87.286C533.636 90.677 538.99 92.6402 546.308 93.3541L551.126 93.8896C555.053 94.2465 557.73 94.9604 559.336 96.0312C560.764 96.9236 561.656 98.5299 561.656 100.315C561.656 102.456 560.407 104.241 558.622 104.955C556.124 106.026 553.625 106.74 550.948 106.561C546.843 106.561 543.809 105.669 541.846 104.241C541.31 103.884 540.775 103.349 540.239 102.813C538.276 100.493 535.421 99.0653 532.387 99.0653H522.749C522.749 104.955 525.605 110.666 530.423 114.057Z" stroke="#0D3475" stroke-width="2" mask="url(#path-6-inside-2)"/>
</g>
</g>
<defs>
<linearGradient id="paint0_linear" x1="-5.31601" y1="235.557" x2="466.273" y2="207.384" gradientUnits="userSpaceOnUse">
<stop stop-color="#114380"/>
<stop offset="1" stop-color="#2A2A5B"/>
</linearGradient>
<linearGradient id="paint1_linear" x1="-5.31601" y1="235.557" x2="466.273" y2="207.384" gradientUnits="userSpaceOnUse">
<stop stop-color="#114380"/>
<stop offset="1" stop-color="#2A2A5B"/>
</linearGradient>
<linearGradient id="paint2_linear" x1="-5.31601" y1="235.557" x2="466.273" y2="207.384" gradientUnits="userSpaceOnUse">
<stop stop-color="#114380"/>
<stop offset="1" stop-color="#2A2A5B"/>
</linearGradient>
<linearGradient id="paint3_linear" x1="-5.31601" y1="235.557" x2="466.273" y2="207.384" gradientUnits="userSpaceOnUse">
<stop stop-color="#114380"/>
<stop offset="1" stop-color="#2A2A5B"/>
</linearGradient>
<linearGradient id="paint4_linear" x1="-5.31601" y1="235.557" x2="466.273" y2="207.384" gradientUnits="userSpaceOnUse">
<stop stop-color="#114380"/>
<stop offset="1" stop-color="#2A2A5B"/>
</linearGradient>
<linearGradient id="paint5_linear" x1="-5.31601" y1="235.557" x2="466.273" y2="207.384" gradientUnits="userSpaceOnUse">
<stop stop-color="#114380"/>
<stop offset="1" stop-color="#2A2A5B"/>
</linearGradient>
<linearGradient id="paint6_linear" x1="-5.31601" y1="235.557" x2="466.273" y2="207.384" gradientUnits="userSpaceOnUse">
<stop stop-color="#114380"/>
<stop offset="1" stop-color="#2A2A5B"/>
</linearGradient>
<linearGradient id="paint7_linear" x1="-5.31601" y1="235.557" x2="466.273" y2="207.384" gradientUnits="userSpaceOnUse">
<stop stop-color="#114380"/>
<stop offset="1" stop-color="#2A2A5B"/>
</linearGradient>
<linearGradient id="paint8_linear" x1="590.052" y1="223.44" x2="609.412" y2="223.44" gradientUnits="userSpaceOnUse">
<stop stop-color="#C46A18"/>
<stop offset="1" stop-color="#D2511D"/>
</linearGradient>
</defs>
</svg>
