<svg width="43" height="47" viewBox="0 0 43 47" fill="none" xmlns="http://www.w3.org/2000/svg">
<path d="M6.36345 18.5767L0.230811 22.0592L6.29604 25.6008C7.68222 26.4269 9.43416 25.4567 9.44976 23.8313L9.48263 20.4063C9.49822 18.7809 7.76522 17.7773 6.36345 18.5767Z" fill="url(#paint0_linear)"/>
<path d="M35.3182 9.68182C35.3182 9.68182 29.4917 17.5796 28.195 19.541C26.8982 21.5025 26.7128 22.6618 28.6665 24.8867C30.5626 27.053 36.6486 34.4845 36.6486 34.4845C36.6486 34.4845 41.4108 34.5882 41.7029 34.4169C42.053 34.2461 43.6313 33.2162 41.5028 31.0477C38.9712 28.527 33.6889 22.0902 33.6889 22.0902C33.6889 22.0902 33.0589 21.1552 33.8826 20.0601C34.7644 18.9655 38.5899 13.7771 40.2988 11.2391C40.5937 10.7774 39.8486 9.72529 38.8032 9.71526C37.2936 9.64272 35.3182 9.68182 35.3182 9.68182Z" fill="url(#paint1_linear)"/>
<path d="M24.8371 0.23398L24.1982 0.227849C23.6755 0.222833 23.1505 0.450019 22.8556 0.911638L14.9087 11.866C12.7893 14.8065 11.6517 18.337 11.6172 21.9362C11.5771 26.1158 12.9907 30.1352 15.6324 33.2956L26.0261 45.8193C26.3132 46.1704 26.7181 46.3485 27.1828 46.353L31.7713 46.397L31.8158 41.7529C31.8225 41.0563 32.3503 40.5389 33.0473 40.5456L36.2999 40.5768L24.4848 24.8463L24.4424 29.2582C24.4274 30.8256 24.6486 31.9888 23.0803 31.9738L20.3505 31.9476L20.434 23.24L20.4624 20.2794L20.5421 11.9781L23.6786 12.0082C24.7821 12.0188 24.6079 12.0171 24.5488 18.1705L32.0992 6.16732L28.0916 6.12887C27.3946 6.12218 26.8193 5.5361 26.826 4.83949L26.87 0.253488" fill="url(#paint2_linear)"/>
<defs>
<linearGradient id="paint0_linear" x1="0.231011" y1="22.0384" x2="9.46077" y2="22.127" gradientUnits="userSpaceOnUse">
<stop stop-color="#C46916"/>
<stop offset="1" stop-color="#D24F1C"/>
</linearGradient>
<linearGradient id="paint1_linear" x1="27.184" y1="21.9443" x2="42.6809" y2="22.093" gradientUnits="userSpaceOnUse">
<stop stop-color="#154380"/>
<stop offset="1" stop-color="#29285B"/>
</linearGradient>
<linearGradient id="paint2_linear" x1="11.5648" y1="23.1882" x2="36.4248" y2="23.4268" gradientUnits="userSpaceOnUse">
<stop stop-color="#154380"/>
<stop offset="1" stop-color="#29285B"/>
</linearGradient>
</defs>
</svg>
