<svg width="43" height="47" viewBox="0 0 43 47" fill="none" xmlns="http://www.w3.org/2000/svg">
<path d="M6.09893 18.5189L0 22.0601L6.09893 25.5433C7.49298 26.3561 9.23553 25.3692 9.23553 23.7437V20.3185C9.23553 18.693 7.49298 17.7061 6.09893 18.5189Z" fill="url(#paint0_linear_523:10369)"/>
<path d="M34.9673 9.3466C34.9673 9.3466 29.2168 17.2999 27.939 19.2737C26.6611 21.2475 26.4868 22.4086 28.4617 24.6146C30.3786 26.7626 36.5356 34.1354 36.5356 34.1354C36.5356 34.1354 41.2985 34.1934 41.589 34.0193C41.9375 33.8451 43.5058 32.8001 41.3566 30.6522C38.8009 28.1559 33.4571 21.77 33.4571 21.77C33.4571 21.77 32.8181 20.8412 33.6313 19.7381C34.5026 18.6351 38.2781 13.4103 39.9626 10.856C40.253 10.3916 39.4979 9.3466 38.4524 9.3466C36.9422 9.28855 34.9673 9.3466 34.9673 9.3466Z" fill="url(#paint1_linear_523:10369)"/>
<path d="M24.3958 0H23.7569C23.2341 0 22.7114 0.232213 22.4209 0.69664L14.5794 11.7268C12.4884 14.6875 11.3848 18.2287 11.3848 21.828C11.3848 26.0079 12.8369 30.0136 15.5088 33.1484L26.0222 45.5719C26.3126 45.9202 26.7192 46.0943 27.1839 46.0943H31.7726V41.4501C31.7726 40.7534 32.2954 40.231 32.9924 40.231H36.2452L24.2797 24.6146V29.0267C24.2797 30.5941 24.512 31.7552 22.9437 31.7552H20.2137V23.0472V20.0864V11.7848H23.3503C24.4539 11.7848 24.2797 11.7848 24.2797 17.9385L31.7145 5.86339H27.7067C27.0097 5.86339 26.4288 5.28285 26.4288 4.58621V0" fill="url(#paint2_linear_523:10369)"/>
<defs>
<linearGradient id="paint0_linear_523:10369" x1="0" y1="22.0394" x2="9.23018" y2="22.0394" gradientUnits="userSpaceOnUse">
<stop stop-color="#C46916"/>
<stop offset="1" stop-color="#D24F1C"/>
</linearGradient>
<linearGradient id="paint1_linear_523:10369" x1="26.9511" y1="21.6865" x2="42.4487" y2="21.6865" gradientUnits="userSpaceOnUse">
<stop stop-color="#154380"/>
<stop offset="1" stop-color="#29285B"/>
</linearGradient>
<linearGradient id="paint2_linear_523:10369" x1="11.3444" y1="23.0805" x2="36.2056" y2="23.0805" gradientUnits="userSpaceOnUse">
<stop stop-color="#154380"/>
<stop offset="1" stop-color="#29285B"/>
</linearGradient>
</defs>
</svg>
