<svg width="599" height="573" viewBox="0 0 599 573" fill="none" xmlns="http://www.w3.org/2000/svg">
<mask id="mask0_866:1398" style="mask-type:alpha" maskUnits="userSpaceOnUse" x="152" y="0" width="295" height="230">
<rect x="152" width="295" height="230" fill="#C4C4C4"/>
</mask>
<g mask="url(#mask0_866:1398)">
<rect x="152" width="295" height="230" fill="#F2B771"/>
<g clip-path="url(#clip0_866:1398)">
<circle cx="416.011" cy="213.406" r="7.73608" transform="rotate(180 416.011 213.406)" fill="#D46918"/>
<circle cx="416.011" cy="181.628" r="7.73608" transform="rotate(180 416.011 181.628)" fill="#D46918"/>
<circle cx="416.011" cy="149.849" r="7.73608" transform="rotate(180 416.011 149.849)" fill="#D46918"/>
<circle opacity="0.8" cx="416.011" cy="118.071" r="7.73608" transform="rotate(180 416.011 118.071)" fill="#D46918"/>
<circle opacity="0.6" cx="416.011" cy="86.2927" r="7.73608" transform="rotate(180 416.011 86.2927)" fill="#D46918"/>
<circle opacity="0.4" cx="416.011" cy="54.5144" r="7.73608" transform="rotate(180 416.011 54.5144)" fill="#D46918"/>
<circle opacity="0.2" cx="416.011" cy="22.7361" r="7.73608" transform="rotate(180 416.011 22.7361)" fill="#D46918"/>
<circle cx="385.758" cy="213.406" r="7.73608" transform="rotate(180 385.758 213.406)" fill="#D46918"/>
<circle cx="385.758" cy="181.628" r="7.73608" transform="rotate(180 385.758 181.628)" fill="#D46918"/>
<circle cx="385.758" cy="149.849" r="7.73608" transform="rotate(180 385.758 149.849)" fill="#D46918"/>
<circle opacity="0.8" cx="385.758" cy="118.071" r="7.73608" transform="rotate(180 385.758 118.071)" fill="#D46918"/>
<circle opacity="0.6" cx="385.758" cy="86.2927" r="7.73608" transform="rotate(180 385.758 86.2927)" fill="#D46918"/>
<circle opacity="0.4" cx="385.758" cy="54.5144" r="7.73608" transform="rotate(180 385.758 54.5144)" fill="#D46918"/>
<circle opacity="0.2" cx="385.758" cy="22.7361" r="7.73608" transform="rotate(180 385.758 22.7361)" fill="#D46918"/>
<circle cx="355.505" cy="213.406" r="7.73608" transform="rotate(180 355.505 213.406)" fill="#D46918"/>
<circle cx="355.505" cy="181.628" r="7.73608" transform="rotate(180 355.505 181.628)" fill="#D46918"/>
<circle cx="355.505" cy="149.849" r="7.73608" transform="rotate(180 355.505 149.849)" fill="#D46918"/>
<circle opacity="0.8" cx="355.505" cy="118.071" r="7.73608" transform="rotate(180 355.505 118.071)" fill="#D46918"/>
<circle opacity="0.6" cx="355.505" cy="86.2927" r="7.73608" transform="rotate(180 355.505 86.2927)" fill="#D46918"/>
<circle opacity="0.4" cx="355.505" cy="54.5144" r="7.73608" transform="rotate(180 355.505 54.5144)" fill="#D46918"/>
<circle opacity="0.2" cx="355.505" cy="22.7361" r="7.73608" transform="rotate(180 355.505 22.7361)" fill="#D46918"/>
<circle cx="325.252" cy="213.406" r="7.73608" transform="rotate(180 325.252 213.406)" fill="#D46918"/>
<circle cx="325.252" cy="181.628" r="7.73608" transform="rotate(180 325.252 181.628)" fill="#D46918"/>
<circle cx="325.252" cy="149.849" r="7.73608" transform="rotate(180 325.252 149.849)" fill="#D46918"/>
<circle opacity="0.8" cx="325.252" cy="118.071" r="7.73608" transform="rotate(180 325.252 118.071)" fill="#D46918"/>
<circle opacity="0.6" cx="325.252" cy="86.2927" r="7.73608" transform="rotate(180 325.252 86.2927)" fill="#D46918"/>
<circle opacity="0.4" cx="325.252" cy="54.5144" r="7.73608" transform="rotate(180 325.252 54.5144)" fill="#D46918"/>
<circle opacity="0.2" cx="325.252" cy="22.7361" r="7.73608" transform="rotate(180 325.252 22.7361)" fill="#D46918"/>
<circle cx="295" cy="213.406" r="7.73608" transform="rotate(180 295 213.406)" fill="#D46918"/>
<circle cx="295" cy="181.628" r="7.73608" transform="rotate(180 295 181.628)" fill="#D46918"/>
<circle cx="295" cy="149.849" r="7.73608" transform="rotate(180 295 149.849)" fill="#D46918"/>
<circle opacity="0.8" cx="295" cy="118.071" r="7.73608" transform="rotate(180 295 118.071)" fill="#D46918"/>
<circle opacity="0.6" cx="295" cy="86.2927" r="7.73608" transform="rotate(180 295 86.2927)" fill="#D46918"/>
<circle opacity="0.4" cx="295" cy="54.5144" r="7.73608" transform="rotate(180 295 54.5144)" fill="#D46918"/>
<circle opacity="0.2" cx="295" cy="22.7361" r="7.73608" transform="rotate(180 295 22.7361)" fill="#D46918"/>
<circle cx="264.747" cy="213.406" r="7.73608" transform="rotate(180 264.747 213.406)" fill="#D46918"/>
<circle cx="264.747" cy="181.628" r="7.73608" transform="rotate(180 264.747 181.628)" fill="#D46918"/>
<circle cx="264.747" cy="149.849" r="7.73608" transform="rotate(180 264.747 149.849)" fill="#D46918"/>
<circle opacity="0.8" cx="264.747" cy="118.071" r="7.73608" transform="rotate(180 264.747 118.071)" fill="#D46918"/>
<circle opacity="0.6" cx="264.747" cy="86.2927" r="7.73608" transform="rotate(180 264.747 86.2927)" fill="#D46918"/>
<circle opacity="0.4" cx="264.747" cy="54.5144" r="7.73608" transform="rotate(180 264.747 54.5144)" fill="#D46918"/>
<circle opacity="0.2" cx="264.747" cy="22.7361" r="7.73608" transform="rotate(180 264.747 22.7361)" fill="#D46918"/>
<circle cx="234.494" cy="213.406" r="7.73608" transform="rotate(180 234.494 213.406)" fill="#D46918"/>
<circle cx="234.494" cy="181.628" r="7.73608" transform="rotate(180 234.494 181.628)" fill="#D46918"/>
<circle cx="234.494" cy="149.849" r="7.73608" transform="rotate(180 234.494 149.849)" fill="#D46918"/>
<circle opacity="0.8" cx="234.494" cy="118.071" r="7.73608" transform="rotate(180 234.494 118.071)" fill="#D46918"/>
<circle opacity="0.6" cx="234.494" cy="86.2927" r="7.73608" transform="rotate(180 234.494 86.2927)" fill="#D46918"/>
<circle opacity="0.4" cx="234.494" cy="54.5144" r="7.73608" transform="rotate(180 234.494 54.5144)" fill="#D46918"/>
<circle opacity="0.2" cx="234.494" cy="22.7361" r="7.73608" transform="rotate(180 234.494 22.7361)" fill="#D46918"/>
<circle cx="204.242" cy="213.406" r="7.73608" transform="rotate(180 204.242 213.406)" fill="#D46918"/>
<circle cx="204.242" cy="181.628" r="7.73608" transform="rotate(180 204.242 181.628)" fill="#D46918"/>
<circle cx="204.242" cy="149.849" r="7.73608" transform="rotate(180 204.242 149.849)" fill="#D46918"/>
<circle opacity="0.8" cx="204.242" cy="118.071" r="7.73608" transform="rotate(180 204.242 118.071)" fill="#D46918"/>
<circle opacity="0.6" cx="204.242" cy="86.2942" r="7.73608" transform="rotate(180 204.242 86.2942)" fill="#D46918"/>
<circle opacity="0.4" cx="204.242" cy="54.5144" r="7.73608" transform="rotate(180 204.242 54.5144)" fill="#D46918"/>
<circle opacity="0.2" cx="204.242" cy="22.7361" r="7.73608" transform="rotate(180 204.242 22.7361)" fill="#D46918"/>
<circle cx="173.989" cy="213.406" r="7.73608" transform="rotate(180 173.989 213.406)" fill="#D46918"/>
<circle cx="173.989" cy="181.628" r="7.73608" transform="rotate(180 173.989 181.628)" fill="#D46918"/>
<circle cx="173.989" cy="149.849" r="7.73608" transform="rotate(180 173.989 149.849)" fill="#D46918"/>
<circle opacity="0.8" cx="173.989" cy="118.071" r="7.73608" transform="rotate(180 173.989 118.071)" fill="#D46918"/>
<circle opacity="0.6" cx="173.989" cy="86.2942" r="7.73608" transform="rotate(180 173.989 86.2942)" fill="#D46918"/>
<circle opacity="0.4" cx="173.989" cy="54.5144" r="7.73608" transform="rotate(180 173.989 54.5144)" fill="#D46918"/>
<circle opacity="0.2" cx="173.989" cy="22.7361" r="7.73608" transform="rotate(180 173.989 22.7361)" fill="#D46918"/>
</g>
</g>
<g filter="url(#filter0_d_866:1398)">
<rect width="295" height="184" transform="translate(152 233)" fill="#FAFAFA"/>
</g>
<defs>
<filter id="filter0_d_866:1398" x="0" y="85" width="599" height="488" filterUnits="userSpaceOnUse" color-interpolation-filters="sRGB">
<feFlood flood-opacity="0" result="BackgroundImageFix"/>
<feColorMatrix in="SourceAlpha" type="matrix" values="0 0 0 0 0 0 0 0 0 0 0 0 0 0 0 0 0 0 127 0" result="hardAlpha"/>
<feOffset dy="4"/>
<feGaussianBlur stdDeviation="76"/>
<feComposite in2="hardAlpha" operator="out"/>
<feColorMatrix type="matrix" values="0 0 0 0 0.831373 0 0 0 0 0.411765 0 0 0 0 0.0941176 0 0 0 0.1 0"/>
<feBlend mode="normal" in2="BackgroundImageFix" result="effect1_dropShadow_866:1398"/>
<feBlend mode="normal" in="SourceGraphic" in2="effect1_dropShadow_866:1398" result="shape"/>
</filter>
<clipPath id="clip0_866:1398">
<rect width="267" height="333" fill="white" transform="translate(161 15)"/>
</clipPath>
</defs>
</svg>
