<svg width="909" height="50" viewBox="0 0 909 50" fill="none" xmlns="http://www.w3.org/2000/svg">
<path d="M2.5 21.6328L1.60274 21.1913L2.5 21.6328ZM5.97656 17.8242L5.46857 16.9628L5.46534 16.9648L5.97656 17.8242ZM18.2422 19.0938L17.5456 19.8112L17.5481 19.8137L18.2422 19.0938ZM21.2695 26.2031L22.2692 26.1761L22.2686 26.1549L22.2671 26.1337L21.2695 26.2031ZM21.3086 27.6484H22.3086V27.6349L22.3082 27.6214L21.3086 27.6484ZM18.5938 35.4609L19.3272 36.1406L19.3295 36.1382L18.5938 35.4609ZM4.00391 35.4609L3.27041 36.1406L3.27285 36.1433L4.00391 35.4609ZM8.06641 32.2578L7.24998 32.8353L7.25335 32.84L8.06641 32.2578ZM14.5117 32.2773L15.3165 32.8709L15.32 32.8661L14.5117 32.2773ZM8.06641 22.668L8.88284 23.2454L8.8861 23.2408L8.06641 22.668ZM2.28906 27.2383C2.28906 25.2725 2.66683 23.5587 3.39726 22.0743L1.60274 21.1913C0.718588 22.9881 0.289062 25.0113 0.289062 27.2383H2.28906ZM3.39726 22.0743C4.1227 20.6 5.15076 19.479 6.48779 18.6837L5.46534 16.9648C3.78153 17.9663 2.49188 19.3843 1.60274 21.1913L3.39726 22.0743ZM6.48455 18.6856C7.83436 17.8895 9.41861 17.4766 11.2695 17.4766V15.4766C9.11003 15.4766 7.16564 15.962 5.46858 16.9629L6.48455 18.6856ZM11.2695 17.4766C13.9 17.4766 15.9615 18.2731 17.5456 19.8112L18.9388 18.3763C16.9291 16.4248 14.3422 15.4766 11.2695 15.4766V17.4766ZM17.5481 19.8137C19.1464 21.3545 20.0773 23.4741 20.2719 26.2725L22.2671 26.1337C22.0451 22.9426 20.9578 20.3226 18.9362 18.3738L17.5481 19.8137ZM20.2699 26.2301L20.309 27.6755L22.3082 27.6214L22.2692 26.1761L20.2699 26.2301ZM20.3086 27.6484C20.3086 30.6961 19.4633 33.0398 17.858 34.7837L19.3295 36.1382C21.344 33.9498 22.3086 31.0852 22.3086 27.6484H20.3086ZM17.8603 34.7812C16.2677 36.4999 14.1212 37.3906 11.3086 37.3906V39.3906C14.5897 39.3906 17.3 38.3283 19.3272 36.1406L17.8603 34.7812ZM11.3086 37.3906C8.49611 37.3906 6.34141 36.4998 4.73496 34.7786L3.27285 36.1433C5.31224 38.3283 8.02733 39.3906 11.3086 39.3906V37.3906ZM4.7374 34.7812C3.14038 33.0578 2.28906 30.6681 2.28906 27.4922H0.289062C0.289062 31.035 1.24764 33.9578 3.27042 36.1406L4.7374 34.7812ZM2.28906 27.4922V27.2383H0.289062V27.4922H2.28906ZM5.93359 27.6484C5.93359 29.7572 6.32706 31.5304 7.24999 32.8353L8.88282 31.6803C8.29533 30.8498 7.93359 29.55 7.93359 27.6484H5.93359ZM7.25335 32.84C8.21406 34.1817 9.6115 34.8398 11.3086 34.8398V32.8398C10.1932 32.8398 9.42917 32.4433 8.87946 31.6756L7.25335 32.84ZM11.3086 34.8398C12.9724 34.8398 14.3477 34.1845 15.3165 32.8709L13.7069 31.6838C13.1393 32.4535 12.3791 32.8398 11.3086 32.8398V34.8398ZM15.32 32.8661C16.2767 31.5526 16.6641 29.6112 16.6641 27.2383H14.6641C14.6641 29.4747 14.2832 30.8927 13.7034 31.6886L15.32 32.8661ZM16.6641 27.2383C16.6641 25.1596 16.2607 23.4024 15.3268 22.0886L13.6967 23.2473C14.2992 24.095 14.6641 25.3846 14.6641 27.2383H16.6641ZM15.3268 22.0886C14.36 20.7286 12.9671 20.0469 11.2695 20.0469V22.0469C12.3584 22.0469 13.127 22.4459 13.6967 23.2473L15.3268 22.0886ZM11.2695 20.0469C9.58086 20.0469 8.19915 20.7322 7.24671 22.0952L8.8861 23.2408C9.44408 22.4423 10.1978 22.0469 11.2695 22.0469V20.0469ZM7.24999 22.0905C6.31642 23.4104 5.93359 25.3222 5.93359 27.6484H7.93359C7.93359 25.4695 8.30598 24.061 8.88282 23.2454L7.24999 22.0905ZM37.4414 35.8516L38.4388 35.779L38.2575 33.2865L36.6693 35.2161L37.4414 35.8516ZM26.4648 36.4375L25.7252 37.1106L25.7289 37.1146L26.4648 36.4375ZM24.6484 30.7148L23.6484 30.7148L23.6485 30.7252L24.6484 30.7148ZM24.6484 16.8672V15.8672H23.6484V16.8672H24.6484ZM30.293 16.8672H31.293V15.8672H30.293V16.8672ZM37.2461 31.8281L38.1263 32.3027L38.2461 32.0806V31.8281H37.2461ZM37.2461 16.8672V15.8672H36.2461V16.8672H37.2461ZM42.9102 16.8672H43.9102V15.8672H42.9102V16.8672ZM42.9102 38V39H43.9102V38H42.9102ZM37.5977 38L36.6003 38.0725L36.6677 39H37.5977V38ZM36.6693 35.2161C35.4908 36.6479 33.8635 37.3906 31.6602 37.3906V39.3906C34.3787 39.3906 36.6055 38.4407 38.2135 36.4871L36.6693 35.2161ZM31.6602 37.3906C29.5909 37.3906 28.1595 36.8025 27.2008 35.7604L25.7289 37.1146C27.1661 38.6767 29.1982 39.3906 31.6602 39.3906V37.3906ZM27.2044 35.7645C26.2433 34.7083 25.673 33.0761 25.6484 30.7045L23.6485 30.7252C23.676 33.3797 24.3166 35.5626 25.7252 37.1105L27.2044 35.7645ZM25.6484 30.7148V16.8672H23.6484V30.7148H25.6484ZM24.6484 17.8672H30.293V15.8672H24.6484V17.8672ZM29.293 16.8672V30.5195H31.293V16.8672H29.293ZM29.293 30.5195C29.293 31.7521 29.5718 32.8632 30.3058 33.6687C31.0558 34.4918 32.1189 34.8203 33.3008 34.8203V32.8203C32.4775 32.8203 32.0366 32.5987 31.7841 32.3216C31.5155 32.0268 31.293 31.4875 31.293 30.5195H29.293ZM33.3008 34.8203C35.4666 34.8203 37.1868 34.0451 38.1263 32.3027L36.3659 31.3535C35.8731 32.2674 34.9631 32.8203 33.3008 32.8203V34.8203ZM38.2461 31.8281V16.8672H36.2461V31.8281H38.2461ZM37.2461 17.8672H42.9102V15.8672H37.2461V17.8672ZM41.9102 16.8672V38H43.9102V16.8672H41.9102ZM42.9102 37H37.5977V39H42.9102V37ZM38.595 37.9275L38.4388 35.779L36.444 35.9241L36.6003 38.0725L38.595 37.9275ZM59.043 22.1602L58.9086 23.1511L60.0266 23.3027L60.0429 22.1745L59.043 22.1602ZM52.8125 24.1719L51.9038 23.7544L51.8125 23.9531V24.1719H52.8125ZM52.8125 38V39H53.8125V38H52.8125ZM47.168 38H46.168V39H47.168V38ZM47.168 16.8672V15.8672H46.168V16.8672H47.168ZM52.5 16.8672L53.4981 16.8053L53.4399 15.8672H52.5V16.8672ZM52.6562 19.3867L51.6582 19.4486L51.8617 22.7307L53.5198 19.891L52.6562 19.3867ZM59.1211 16.7305L60.121 16.7449L60.1318 15.9965L59.4168 15.7752L59.1211 16.7305ZM59.1773 21.1692C58.3779 21.0608 57.6543 21.0039 57.0117 21.0039V23.0039C57.541 23.0039 58.1716 23.0512 58.9086 23.1511L59.1773 21.1692ZM57.0117 21.0039C54.6442 21.0039 52.7882 21.8296 51.9038 23.7544L53.7212 24.5894C54.1649 23.6236 55.1084 23.0039 57.0117 23.0039V21.0039ZM51.8125 24.1719V38H53.8125V24.1719H51.8125ZM52.8125 37H47.168V39H52.8125V37ZM48.168 38V16.8672H46.168V38H48.168ZM47.168 17.8672H52.5V15.8672H47.168V17.8672ZM51.5019 16.9291L51.6582 19.4486L53.6543 19.3248L53.4981 16.8053L51.5019 16.9291ZM53.5198 19.891C54.4993 18.2134 55.7623 17.4766 57.3633 17.4766V15.4766C54.9539 15.4766 53.0788 16.6798 51.7927 18.8825L53.5198 19.891ZM57.3633 17.4766C57.8972 17.4766 58.3827 17.5487 58.8254 17.6858L59.4168 15.7752C58.7658 15.5737 58.0794 15.4766 57.3633 15.4766V17.4766ZM58.1212 16.7161L58.0431 22.1458L60.0429 22.1745L60.121 16.7449L58.1212 16.7161ZM88.5352 35.4609L87.7371 34.8584L87.7364 34.8592L88.5352 35.4609ZM77.3828 36.1641L78.1313 35.5009L76.3828 33.5274V36.1641H77.3828ZM77.3828 46.125V47.125H78.3828V46.125H77.3828ZM71.7383 46.125H70.7383V47.125H71.7383V46.125ZM71.7383 16.8672V15.8672H70.7383V16.8672H71.7383ZM76.9727 16.8672L77.9682 16.7733L77.8828 15.8672H76.9727V16.8672ZM77.168 18.9375L76.1724 19.0314L76.3981 21.4234L77.9362 19.5777L77.168 18.9375ZM88.5938 19.3672L87.7938 19.9672L88.5938 19.3672ZM84.0625 22.668L83.2226 23.2108L83.2273 23.218L84.0625 22.668ZM77.3828 23.0977L76.485 22.6574L76.3828 22.8657V23.0977H77.3828ZM77.3828 31.75H76.3828V31.9841L76.4867 32.1939L77.3828 31.75ZM89.7617 27.6289C89.7617 30.7363 89.0539 33.1142 87.7371 34.8584L89.3332 36.0635C90.9852 33.8754 91.7617 31.0319 91.7617 27.6289H89.7617ZM87.7364 34.8592C86.4601 36.5535 84.7678 37.3906 82.5586 37.3906V39.3906C85.3754 39.3906 87.6675 38.2746 89.3339 36.0626L87.7364 34.8592ZM82.5586 37.3906C80.6846 37.3906 79.2408 36.7532 78.1313 35.5009L76.6343 36.8272C78.1551 38.5437 80.1617 39.3906 82.5586 39.3906V37.3906ZM76.3828 36.1641V46.125H78.3828V36.1641H76.3828ZM77.3828 45.125H71.7383V47.125H77.3828V45.125ZM72.7383 46.125V16.8672H70.7383V46.125H72.7383ZM71.7383 17.8672H76.9727V15.8672H71.7383V17.8672ZM75.9771 16.9611L76.1724 19.0314L78.1635 18.8436L77.9682 16.7733L75.9771 16.9611ZM77.9362 19.5777C79.1068 18.1729 80.6054 17.4766 82.5195 17.4766V15.4766C80.0326 15.4766 77.9635 16.4208 76.3997 18.2973L77.9362 19.5777ZM82.5195 17.4766C84.8385 17.4766 86.5544 18.3147 87.7938 19.9672L89.3937 18.7672C87.7425 16.5655 85.4089 15.4766 82.5195 15.4766V17.4766ZM87.7938 19.9672C89.0659 21.6634 89.7617 24.0814 89.7617 27.3359H91.7617C91.7617 23.8196 91.0122 20.9251 89.3937 18.7672L87.7938 19.9672ZM89.7617 27.3359V27.6289H91.7617V27.3359H89.7617ZM86.1172 27.2188C86.1172 25.1547 85.7517 23.4149 84.8977 22.118L83.2273 23.218C83.7795 24.0565 84.1172 25.3505 84.1172 27.2188H86.1172ZM84.9023 22.1251C84.0183 20.7574 82.6844 20.0664 81.0352 20.0664V22.0664C82.0421 22.0664 82.7265 22.4431 83.2227 23.2108L84.9023 22.1251ZM81.0352 20.0664C80.0248 20.0664 79.1003 20.2596 78.3079 20.7003C77.506 21.1463 76.899 21.813 76.485 22.6574L78.2807 23.5379C78.5307 23.0281 78.8644 22.6793 79.28 22.4482C79.705 22.2118 80.2747 22.0664 81.0352 22.0664V20.0664ZM76.3828 23.0977V31.75H78.3828V23.0977H76.3828ZM76.4867 32.1939C76.9113 33.0511 77.524 33.731 78.3306 34.1876C79.1295 34.6399 80.0591 34.8398 81.0742 34.8398V32.8398C80.3185 32.8398 79.7475 32.6915 79.3159 32.4472C78.892 32.2072 78.5444 31.8421 78.2789 31.3061L76.4867 32.1939ZM81.0742 34.8398C82.7524 34.8398 84.0953 34.1217 84.9599 32.7057C85.7755 31.37 86.1172 29.495 86.1172 27.2188H84.1172C84.1172 29.3566 83.785 30.7921 83.253 31.6634C82.7699 32.4545 82.0913 32.8398 81.0742 32.8398V34.8398ZM100.234 38V39H101.234V38H100.234ZM94.5703 38H93.5703V39H94.5703V38ZM94.5703 16.8672V15.8672H93.5703V16.8672H94.5703ZM100.234 16.8672H101.234V15.8672H100.234V16.8672ZM95.0781 9.30859L94.3876 8.58519L94.3794 8.59322L95.0781 9.30859ZM99.6875 13.5078L99.0051 12.7767L98.997 12.7845L99.6875 13.5078ZM95.0977 13.5078L94.4071 14.2312L94.4153 14.2389L95.0977 13.5078ZM100.234 37H94.5703V39H100.234V37ZM95.5703 38V16.8672H93.5703V38H95.5703ZM94.5703 17.8672H100.234V15.8672H94.5703V17.8672ZM99.2344 16.8672V38H101.234V16.8672H99.2344ZM95.2383 11.3984C95.2383 10.7971 95.4263 10.3664 95.7769 10.024L94.3794 8.59322C93.6101 9.34458 93.2383 10.3071 93.2383 11.3984H95.2383ZM95.7686 10.0319C96.1144 9.70191 96.6198 9.48828 97.4023 9.48828V7.48828C96.2317 7.48828 95.1877 7.82153 94.3876 8.58524L95.7686 10.0319ZM97.4023 9.48828C98.1676 9.48828 98.6683 9.69954 99.0166 10.0319L100.398 8.58524C99.5999 7.8239 98.5641 7.48828 97.4023 7.48828V9.48828ZM99.0166 10.0319C99.3772 10.3762 99.5664 10.8044 99.5664 11.3984H101.566C101.566 10.2997 101.183 9.33478 100.398 8.58524L99.0166 10.0319ZM99.5664 11.3984C99.5664 12.003 99.3727 12.4338 99.0052 12.7768L100.37 14.2389C101.174 13.4881 101.566 12.5126 101.566 11.3984H99.5664ZM98.997 12.7845C98.6463 13.1193 98.1504 13.3281 97.4023 13.3281V15.3281C98.5553 15.3281 99.5829 14.9901 100.378 14.2312L98.997 12.7845ZM97.4023 13.3281C96.6551 13.3281 96.1471 13.1194 95.78 12.7768L94.4153 14.2389C95.2201 14.9899 96.2486 15.3281 97.4023 15.3281V13.3281ZM95.7881 12.7845C95.4308 12.4434 95.2383 12.0104 95.2383 11.3984H93.2383C93.2383 12.5053 93.6187 13.4785 94.4072 14.2312L95.7881 12.7845ZM110.859 38V39H111.859V38H110.859ZM105.195 38H104.195V39H105.195V38ZM105.195 8V7H104.195V8H105.195ZM110.859 8H111.859V7H110.859V8ZM110.859 37H105.195V39H110.859V37ZM106.195 38V8H104.195V38H106.195ZM105.195 9H110.859V7H105.195V9ZM109.859 8V38H111.859V8H109.859ZM121.484 38V39H122.484V38H121.484ZM115.82 38H114.82V39H115.82V38ZM115.82 8V7H114.82V8H115.82ZM121.484 8H122.484V7H121.484V8ZM121.484 37H115.82V39H121.484V37ZM116.82 38V8H114.82V38H116.82ZM115.82 9H121.484V7H115.82V9ZM120.484 8V38H122.484V8H120.484ZM138.398 38L137.509 38.4563L137.787 39H138.398V38ZM137.832 36.1055L138.82 35.9521L138.497 33.8676L137.088 35.4376L137.832 36.1055ZM127.344 36.5938L126.681 37.3428L126.685 37.3459L127.344 36.5938ZM127.793 26.9062L127.209 26.0942L127.206 26.0964L127.793 26.9062ZM135 25.0898V24.0898L134.996 24.0899L135 25.0898ZM137.598 25.0898V26.0898H138.598V25.0898H137.598ZM136.836 21.5352L136.072 22.1804L136.08 22.1901L136.836 21.5352ZM132.227 21.3398L131.586 20.5716L131.577 20.5793L132.227 21.3398ZM131.426 23.2148V24.2148H132.426V23.2148H131.426ZM125.781 23.2148H124.781V24.2148H125.781V23.2148ZM130.117 17.375L130.508 18.2955L130.515 18.2923L130.117 17.375ZM140.957 18.4492L140.304 19.2062L140.311 19.2121L140.957 18.4492ZM143.262 33.1172L142.262 33.1172L142.262 33.1237L143.262 33.1172ZM144.102 37.668H145.102V37.4187L144.985 37.1985L144.102 37.668ZM144.102 38V39H145.102V38H144.102ZM136.035 33.5273L136.495 34.4151L136.502 34.4118L136.508 34.4083L136.035 33.5273ZM137.598 32.0234L138.477 32.4997L138.598 32.2769V32.0234H137.598ZM137.598 28.3906H138.598V27.3906H137.598V28.3906ZM130.977 31.3203L129.981 31.2274L129.979 31.2445L129.978 31.2616L130.977 31.3203ZM130.957 31.6523L129.959 31.5936L129.957 31.623V31.6523H130.957ZM131.699 33.3906L132.377 32.6551L131.699 33.3906ZM139.288 37.5437C139.09 37.157 138.926 36.6352 138.82 35.9521L136.844 36.2588C136.972 37.0861 137.186 37.8273 137.509 38.4563L139.288 37.5437ZM137.088 35.4376C135.924 36.7338 134.425 37.3906 132.5 37.3906V39.3906C134.95 39.3906 137.005 38.524 138.576 36.7734L137.088 35.4376ZM132.5 37.3906C130.636 37.3906 129.162 36.8576 128.003 35.8416L126.685 37.3459C128.26 38.7258 130.223 39.3906 132.5 39.3906V37.3906ZM128.006 35.8448C126.869 34.8384 126.312 33.6017 126.312 32.0625H124.312C124.312 34.1692 125.11 35.9532 126.681 37.3427L128.006 35.8448ZM126.312 32.0625C126.312 30.1074 127.014 28.7057 128.38 27.7161L127.206 26.0964C125.265 27.5026 124.312 29.5384 124.312 32.0625H126.312ZM128.377 27.7183C129.806 26.6906 131.971 26.1024 135.004 26.0898L134.996 24.0899C131.753 24.1033 129.113 24.7261 127.209 26.0942L128.377 27.7183ZM135 26.0898H137.598V24.0898H135V26.0898ZM138.598 25.0898V23.8789H136.598V25.0898H138.598ZM138.598 23.8789C138.598 22.7262 138.295 21.6914 137.592 20.8802L136.08 22.1901C136.393 22.5508 136.598 23.0785 136.598 23.8789H138.598ZM137.6 20.89C136.847 19.9982 135.722 19.6562 134.473 19.6562V21.6562C135.384 21.6562 135.835 21.9002 136.072 22.1803L137.6 20.89ZM134.473 19.6562C133.367 19.6562 132.365 19.9224 131.586 20.5716L132.867 22.1081C133.181 21.8458 133.677 21.6562 134.473 21.6562V19.6562ZM131.577 20.5793C130.79 21.2513 130.426 22.171 130.426 23.2148H132.426C132.426 22.6701 132.595 22.3399 132.876 22.1004L131.577 20.5793ZM131.426 22.2148H125.781V24.2148H131.426V22.2148ZM126.781 23.2148C126.781 22.2129 127.085 21.2836 127.724 20.4034L126.104 19.2294C125.232 20.4325 124.781 21.7688 124.781 23.2148H126.781ZM127.724 20.4034C128.356 19.5317 129.267 18.8223 130.508 18.2955L129.726 16.4545C128.207 17.0996 126.983 18.0177 126.104 19.2294L127.724 20.4034ZM130.515 18.2923C131.753 17.7551 133.164 17.4766 134.766 17.4766V15.4766C132.929 15.4766 131.242 15.7969 129.719 16.4577L130.515 18.2923ZM134.766 17.4766C137.202 17.4766 139.01 18.0893 140.304 19.2062L141.61 17.6923C139.857 16.179 137.538 15.4766 134.766 15.4766V17.4766ZM140.311 19.2121C141.582 20.2899 142.262 21.8237 142.262 23.957H144.262C144.262 21.3508 143.405 19.2127 141.604 17.6863L140.311 19.2121ZM142.262 23.957V33.1172H144.262V23.957H142.262ZM142.262 33.1237C142.275 35.1893 142.56 36.8978 143.219 38.1374L144.985 37.1985C144.55 36.3809 144.274 35.0555 144.262 33.1107L142.262 33.1237ZM143.102 37.668V38H145.102V37.668H143.102ZM144.102 37H138.398V39H144.102V37ZM133.73 35.0742C134.715 35.0742 135.643 34.8573 136.495 34.4151L135.575 32.6396C135.021 32.9266 134.412 33.0742 133.73 33.0742V35.0742ZM136.508 34.4083C137.362 33.9501 138.034 33.317 138.477 32.4997L136.718 31.5472C136.484 31.9799 136.115 32.3494 135.562 32.6463L136.508 34.4083ZM138.598 32.0234V28.3906H136.598V32.0234H138.598ZM137.598 27.3906H135.488V29.3906H137.598V27.3906ZM135.488 27.3906C133.984 27.3906 132.679 27.6464 131.697 28.2844C130.662 28.9563 130.097 29.9791 129.981 31.2274L131.972 31.4132C132.038 30.7084 132.317 30.2664 132.786 29.9617C133.307 29.6232 134.167 29.3906 135.488 29.3906V27.3906ZM129.978 31.2616L129.959 31.5936L131.955 31.7111L131.975 31.379L129.978 31.2616ZM129.957 31.6523C129.957 32.6207 130.311 33.4716 131.022 34.1262L132.377 32.6551C132.098 32.3982 131.957 32.0903 131.957 31.6523H129.957ZM131.022 34.1262C131.748 34.7952 132.692 35.0742 133.73 35.0742V33.0742C133.05 33.0742 132.64 32.8975 132.377 32.6551L131.022 34.1262ZM159.473 22.1602L159.338 23.1511L160.456 23.3027L160.473 22.1745L159.473 22.1602ZM153.242 24.1719L152.334 23.7544L152.242 23.9531V24.1719H153.242ZM153.242 38V39H154.242V38H153.242ZM147.598 38H146.598V39H147.598V38ZM147.598 16.8672V15.8672H146.598V16.8672H147.598ZM152.93 16.8672L153.928 16.8053L153.87 15.8672H152.93V16.8672ZM153.086 19.3867L152.088 19.4486L152.291 22.7307L153.95 19.891L153.086 19.3867ZM159.551 16.7305L160.551 16.7449L160.561 15.9965L159.846 15.7752L159.551 16.7305ZM159.607 21.1692C158.808 21.0608 158.084 21.0039 157.441 21.0039V23.0039C157.971 23.0039 158.601 23.0512 159.338 23.1511L159.607 21.1692ZM157.441 21.0039C155.074 21.0039 153.218 21.8296 152.334 23.7544L154.151 24.5894C154.595 23.6236 155.538 23.0039 157.441 23.0039V21.0039ZM152.242 24.1719V38H154.242V24.1719H152.242ZM153.242 37H147.598V39H153.242V37ZM148.598 38V16.8672H146.598V38H148.598ZM147.598 17.8672H152.93V15.8672H147.598V17.8672ZM151.932 16.9291L152.088 19.4486L154.084 19.3248L153.928 16.8053L151.932 16.9291ZM153.95 19.891C154.929 18.2134 156.192 17.4766 157.793 17.4766V15.4766C155.384 15.4766 153.508 16.6798 152.222 18.8825L153.95 19.891ZM157.793 17.4766C158.327 17.4766 158.812 17.5487 159.255 17.6858L159.846 15.7752C159.195 15.5737 158.509 15.4766 157.793 15.4766V17.4766ZM158.551 16.7161L158.473 22.1458L160.473 22.1745L160.551 16.7449L158.551 16.7161ZM172.617 30.5391L172.105 31.398L172.115 31.4038L172.125 31.4093L172.617 30.5391ZM169.336 29.4648L169.131 30.4435L169.133 30.4441L169.336 29.4648ZM164.121 18.3711L164.749 19.1494L164.75 19.1488L164.121 18.3711ZM176.66 18.3711L176.041 19.1563L176.044 19.1587L176.66 18.3711ZM179.082 23.293V24.293H180.082V23.293H179.082ZM173.438 23.293H172.438V24.293H173.438V23.293ZM172.656 21.3008L171.94 21.9992L171.949 22.0079L172.656 21.3008ZM168.105 24.3086L167.551 25.1406L167.561 25.1477L167.572 25.1545L168.105 24.3086ZM171.113 25.3047L170.914 26.2846L170.922 26.2863L171.113 25.3047ZM174.668 26.2422L175.012 25.3034L175.011 25.3028L174.668 26.2422ZM176.66 36.6133L177.243 37.4262L177.247 37.4231L176.66 36.6133ZM165.527 37.4531L165.104 38.3594L165.115 38.3641L165.527 37.4531ZM162.305 34.8555L161.488 35.4322L161.491 35.4367L162.305 34.8555ZM161.133 31.2812V30.2812H160.133V31.2812H161.133ZM166.484 31.2812L167.483 31.2294L167.434 30.2812H166.484V31.2812ZM172.812 33.7812L173.406 34.5858L173.41 34.5835L172.812 33.7812ZM174.652 32.1602C174.652 31.0495 174.057 30.2051 173.11 29.6688L172.125 31.4093C172.557 31.6542 172.652 31.8906 172.652 32.1602H174.652ZM173.129 29.6801C172.303 29.1878 171.074 28.8034 169.539 28.4856L169.133 30.4441C170.618 30.7513 171.577 31.083 172.105 31.398L173.129 29.6801ZM169.541 28.4862C167.109 27.9757 165.407 27.2261 164.329 26.3102C163.29 25.427 162.797 24.3648 162.797 23.0586H160.797C160.797 24.9685 161.561 26.5821 163.034 27.8343C164.469 29.0538 166.537 29.8993 169.131 30.4435L169.541 28.4862ZM162.797 23.0586C162.797 21.5068 163.418 20.2231 164.749 19.1494L163.493 17.5928C161.725 19.0191 160.797 20.8604 160.797 23.0586H162.797ZM164.75 19.1488C166.093 18.0627 167.891 17.4766 170.234 17.4766V15.4766C167.551 15.4766 165.274 16.1535 163.492 17.5934L164.75 19.1488ZM170.234 17.4766C172.763 17.4766 174.664 18.0708 176.041 19.1563L177.279 17.5859C175.453 16.1453 173.07 15.4766 170.234 15.4766V17.4766ZM176.044 19.1587C177.421 20.2357 178.082 21.588 178.082 23.293H180.082C180.082 20.9615 179.129 19.0325 177.276 17.5835L176.044 19.1587ZM179.082 22.293H173.438V24.293H179.082V22.293ZM174.438 23.293C174.438 22.2485 174.091 21.321 173.363 20.5937L171.949 22.0079C172.264 22.3223 172.438 22.7229 172.438 23.293H174.438ZM173.372 20.6025C172.588 19.7992 171.461 19.5 170.215 19.5V21.5C171.182 21.5 171.682 21.7347 171.94 21.9991L173.372 20.6025ZM170.215 19.5C169.125 19.5 168.132 19.7456 167.371 20.3732L168.644 21.9159C168.925 21.6841 169.403 21.5 170.215 21.5V19.5ZM167.371 20.3732C166.625 20.9891 166.227 21.8168 166.227 22.7852H168.227C168.227 22.4254 168.349 22.1593 168.644 21.9159L167.371 20.3732ZM166.227 22.7852C166.227 23.7913 166.728 24.5921 167.551 25.1406L168.66 23.4765C168.311 23.2438 168.227 23.029 168.227 22.7852H166.227ZM167.572 25.1545C168.332 25.6337 169.485 25.9936 170.914 26.2846L171.313 24.3248C169.929 24.0429 169.077 23.7387 168.639 23.4627L167.572 25.1545ZM170.922 26.2863C172.296 26.5533 173.426 26.8536 174.325 27.1816L175.011 25.3028C173.983 24.9277 172.743 24.6029 171.304 24.3231L170.922 26.2863ZM174.324 27.181C175.694 27.6839 176.637 28.3396 177.237 29.1018C177.827 29.852 178.141 30.7745 178.141 31.9258H180.141C180.141 30.3818 179.709 29.0093 178.808 27.865C177.917 26.7327 176.623 25.8943 175.012 25.3034L174.324 27.181ZM178.141 31.9258C178.141 33.5105 177.486 34.7804 176.074 35.8034L177.247 37.4231C179.142 36.0503 180.141 34.1953 180.141 31.9258H178.141ZM176.078 35.8004C174.637 36.8329 172.722 37.3906 170.254 37.3906V39.3906C173.02 39.3906 175.376 38.7635 177.243 37.4261L176.078 35.8004ZM170.254 37.3906C168.602 37.3906 167.17 37.0994 165.94 36.5422L165.115 38.3641C166.645 39.0569 168.365 39.3906 170.254 39.3906V37.3906ZM165.95 36.5469C164.72 35.9727 163.788 35.2113 163.118 34.2742L161.491 35.4367C162.384 36.6871 163.601 37.6575 165.104 38.3593L165.95 36.5469ZM163.122 34.2788C162.452 33.3297 162.133 32.3377 162.133 31.2812H160.133C160.133 32.7769 160.595 34.1677 161.488 35.4322L163.122 34.2788ZM161.133 32.2812H166.484V30.2812H161.133V32.2812ZM165.486 31.3331C165.55 32.5779 166.029 33.6369 166.986 34.3769L168.21 32.795C167.786 32.4672 167.523 31.9898 167.483 31.2294L165.486 31.3331ZM166.986 34.3769C167.901 35.0848 169.063 35.3867 170.371 35.3867V33.3867C169.361 33.3867 168.675 33.1548 168.21 32.795L166.986 34.3769ZM170.371 35.3867C171.549 35.3867 172.613 35.1716 173.406 34.5858L172.219 32.9767C171.919 33.1982 171.355 33.3867 170.371 33.3867V35.3867ZM173.41 34.5835C174.208 33.9894 174.652 33.1587 174.652 32.1602H172.652C172.652 32.4897 172.537 32.7398 172.215 32.979L173.41 34.5835Z" fill="#134487"/>
</svg>
