<svg width="64" height="538" viewBox="0 0 64 538" fill="none" xmlns="http://www.w3.org/2000/svg">
<path d="M60.1005 496.942L58.8255 497.732L58.828 497.736L60.1005 496.942ZM60.1432 524.529L61.4222 525.313L60.1432 524.529ZM49.5686 533.91L50.2193 535.262L50.2226 535.26L49.5686 533.91ZM33.7068 537.279L33.7068 538.779L33.7139 538.779L33.7068 537.279ZM14.5191 533.995L13.8748 535.35L13.8784 535.352L14.5191 533.995ZM3.81664 524.657L5.0932 523.87L5.09166 523.867L3.81664 524.657ZM3.81664 497.07L5.08919 497.864L5.09567 497.853L3.81664 497.07ZM14.5191 487.732L15.1566 489.09L15.1666 489.085L14.5191 487.732ZM15.6704 520.777L16.5313 519.549L16.5264 519.545L15.6704 520.777ZM30.3383 524.316L30.3317 525.816L30.3383 525.816L30.3383 524.316ZM48.3321 500.865L49.181 499.628L49.1761 499.625L48.3321 500.865ZM33.5789 497.368L33.5855 495.868L33.5789 495.868L33.5789 497.368ZM33.3657 485.906C39.3008 485.906 44.434 486.955 48.8036 489.004L50.0778 486.288C45.2373 484.018 39.6538 482.906 33.3657 482.906L33.3657 485.906ZM48.8036 489.004C53.1651 491.051 56.4882 493.96 58.8255 497.732L61.3755 496.152C58.7099 491.85 54.9264 488.563 50.0778 486.288L48.8036 489.004ZM58.828 497.736C61.166 501.482 62.3528 505.806 62.3528 510.757L65.3528 510.757C65.3528 505.304 64.038 500.418 61.373 496.148L58.828 497.736ZM62.3528 510.757C62.3528 515.65 61.1802 519.966 58.8641 523.746L61.4222 525.313C64.0523 521.02 65.3528 516.154 65.3528 510.757L62.3528 510.757ZM58.8641 523.746C56.5522 527.519 53.253 530.458 48.9146 532.56L50.2226 535.26C55.0374 532.927 58.788 529.613 61.4222 525.313L58.8641 523.746ZM48.9179 532.559C44.5447 534.664 39.4835 535.751 33.6997 535.779L33.7139 538.779C39.8691 538.749 45.3824 537.591 50.2193 535.262L48.9179 532.559ZM33.7068 535.779L30.6368 535.779L30.6368 538.779L33.7068 538.779L33.7068 535.779ZM30.6368 535.779C24.7045 535.779 19.558 534.717 15.1598 532.639L13.8784 535.352C18.7471 537.652 24.3457 538.779 30.6368 538.779L30.6368 535.779ZM15.1634 532.641C10.7364 530.535 7.40005 527.608 5.0932 523.87L2.54009 525.445C5.1794 529.723 8.97804 533.021 13.8748 535.35L15.1634 532.641ZM5.09166 523.867C2.75028 520.089 1.56438 515.763 1.56438 510.842L-1.43562 510.842C-1.43562 516.269 -0.120012 521.153 2.54163 525.448L5.09166 523.867ZM1.56438 510.842C1.56438 505.922 2.7503 501.611 5.08915 497.864L2.54414 496.276C-0.120027 500.544 -1.43562 505.416 -1.43562 510.842L1.56438 510.842ZM5.09567 497.853C7.40214 494.089 10.7357 491.165 15.1566 489.09L13.8816 486.374C8.9787 488.676 5.17731 491.978 2.53761 496.286L5.09567 497.853ZM15.1666 489.085C19.564 486.981 24.6941 485.906 30.5941 485.906L30.5941 482.906C24.3277 482.906 18.7412 484.049 13.8716 486.379L15.1666 489.085ZM30.5941 485.906L33.3657 485.906L33.3657 482.906L30.5941 482.906L30.5941 485.906ZM30.5515 495.868C23.9016 495.868 18.6023 497.052 14.8619 499.63L16.5641 502.1C19.5891 500.015 24.1822 498.868 30.5515 498.868L30.5515 495.868ZM14.8619 499.63C11.0486 502.257 9.13893 506.058 9.13893 510.842L12.1389 510.842C12.1389 506.985 13.612 504.134 16.5641 502.1L14.8619 499.63ZM9.13893 510.842C9.13893 515.596 11.0329 519.381 14.8144 522.009L16.5264 519.545C13.5992 517.511 12.1389 514.673 12.1389 510.842L9.13893 510.842ZM14.8095 522.006C18.4938 524.588 23.7389 525.787 30.3317 525.816L30.3449 522.816C24.0322 522.788 19.4986 521.629 16.5313 519.549L14.8095 522.006ZM30.3383 525.816L33.3657 525.816L33.3657 522.816L30.3383 522.816L30.3383 525.816ZM33.3657 525.816C39.8599 525.816 45.1124 524.627 48.9509 522.068L47.2868 519.572C44.1325 521.675 39.5496 522.816 33.3657 522.816L33.3657 525.816ZM48.9509 522.068C52.8851 519.445 54.8635 515.611 54.8635 510.757L51.8635 510.757C51.8635 514.658 50.3455 517.533 47.2868 519.572L48.9509 522.068ZM54.8635 510.757C54.8635 506.003 52.9687 502.228 49.181 499.628L47.4832 502.101C50.404 504.106 51.8635 506.927 51.8635 510.757L54.8635 510.757ZM49.1761 499.625C45.4416 497.083 40.1783 495.897 33.5855 495.868L33.5723 498.868C39.8849 498.896 44.4572 500.042 47.488 502.105L49.1761 499.625ZM33.5789 495.868L30.5515 495.868L30.5515 498.868L33.5789 498.868L33.5789 495.868ZM0.917169 428.122L0.917169 426.622L-0.582831 426.622L-0.582831 428.122L0.917169 428.122ZM57.9259 434.518L56.8257 435.537L56.8291 435.541L57.9259 434.518ZM42.2773 475.707L42.2773 477.207L42.2868 477.207L42.2964 477.207L42.2773 475.707ZM0.917169 475.707L-0.582831 475.707L-0.582831 477.207L0.917169 477.207L0.917169 475.707ZM0.917169 462.916L0.917169 461.416L-0.582831 461.416L-0.582831 462.916L0.917169 462.916ZM50.8052 460.016L51.8815 461.061L51.8893 461.053L51.897 461.045L50.8052 460.016ZM42.2347 440.956L42.2572 439.457L42.2459 439.456L42.2347 439.456L42.2347 440.956ZM0.917169 440.956L-0.582831 440.956L-0.582831 442.456L0.917169 442.456L0.917169 440.956ZM0.917169 429.622L41.8083 429.622L41.8083 426.622L0.917169 426.622L0.917169 429.622ZM41.8083 429.622C48.2615 429.622 53.2067 431.632 56.8257 435.537L59.0262 433.498C54.7426 428.876 48.9428 426.622 41.8083 426.622L41.8083 429.622ZM56.8291 435.541C60.4565 439.429 62.3528 444.825 62.3528 451.915L65.3528 451.915C65.3528 444.28 63.2979 438.077 59.0228 433.495L56.8291 435.541ZM62.3528 451.915C62.3528 458.894 60.5109 464.259 56.9815 468.18L59.2114 470.187C63.3571 465.581 65.3528 459.433 65.3528 451.915L62.3528 451.915ZM56.9815 468.18C53.472 472.08 48.6258 474.127 42.2582 474.208L42.2964 477.207C49.3459 477.118 55.0459 474.815 59.2114 470.187L56.9815 468.18ZM42.2773 474.207L0.917169 474.207L0.917169 477.207L42.2773 477.207L42.2773 474.207ZM2.41717 475.707L2.41717 462.916L-0.582831 462.916L-0.582831 475.707L2.41717 475.707ZM0.917169 464.416L41.8935 464.416L41.8935 461.416L0.917169 461.416L0.917169 464.416ZM41.8935 464.416C46.1596 464.416 49.6067 463.405 51.8815 461.061L49.7288 458.972C48.2514 460.494 45.7574 461.416 41.8935 461.416L41.8935 464.416ZM51.897 461.045C54.0736 458.734 55.0767 455.627 55.0767 451.915L52.0767 451.915C52.0767 455.082 51.2321 457.375 49.7133 458.988L51.897 461.045ZM55.0767 451.915C55.0767 448.066 54.0612 444.903 51.7835 442.703C49.5192 440.515 46.2527 439.517 42.2572 439.457L42.2121 442.456C45.778 442.51 48.1825 443.395 49.6989 444.86C51.2019 446.312 52.0767 448.572 52.0767 451.915L55.0767 451.915ZM42.2347 439.456L0.917169 439.456L0.917169 442.456L42.2347 442.456L42.2347 439.456ZM2.41717 440.956L2.41717 428.122L-0.582831 428.122L-0.582831 440.956L2.41717 440.956ZM40.2733 394.65L39.5894 393.315L38.7733 393.733L38.7733 394.65L40.2733 394.65ZM40.2733 404.841L38.7733 404.841L38.7733 406.341L40.2733 406.341L40.2733 404.841ZM63 404.841L64.5 404.841L64.5 403.341L63 403.341L63 404.841ZM63 417.633L63 419.133L64.5 419.133L64.5 417.633L63 417.633ZM0.917169 417.633L-0.582831 417.633L-0.582831 419.133L0.917169 419.133L0.917169 417.633ZM5.82069 377.594L4.6616 376.642L5.82069 377.594ZM30.2957 374.396L29.4782 375.654L29.4813 375.656L30.2957 374.396ZM37.0327 382.711L35.665 383.327L36.3215 384.785L37.7345 384.037L37.0327 382.711ZM62.4031 369.28L62.4031 367.78L62.0305 367.78L61.7012 367.954L62.4031 369.28ZM63 369.28L64.5 369.28L64.5 367.78L63 367.78L63 369.28ZM63 383.01L63.6838 384.345L64.5 383.927L64.5 383.01L63 383.01ZM29.9119 404.841L29.9119 406.341L31.4119 406.341L31.4119 404.841L29.9119 404.841ZM27.4815 387.06L28.5858 386.045L28.5769 386.036L27.4815 387.06ZM13.7942 386.932L14.8458 388.002L14.8549 387.993L13.7942 386.932ZM11.2785 404.841L9.77852 404.841L9.77852 406.341L11.2785 406.341L11.2785 404.841ZM38.7733 394.65L38.7733 404.841L41.7733 404.841L41.7733 394.65L38.7733 394.65ZM40.2733 406.341L63 406.341L63 403.341L40.2733 403.341L40.2733 406.341ZM61.5 404.841L61.5 417.633L64.5 417.633L64.5 404.841L61.5 404.841ZM63 416.133L0.917169 416.133L0.917169 419.133L63 419.133L63 416.133ZM2.41717 417.633L2.41717 394.565L-0.58283 394.565L-0.582831 417.633L2.41717 417.633ZM2.41717 394.565C2.41717 387.434 4.00811 382.164 6.97978 378.547L4.6616 376.642C1.09524 380.984 -0.58283 387.028 -0.58283 394.565L2.41717 394.565ZM6.97978 378.547C9.9168 374.971 14.078 373.125 19.6785 373.125L19.6785 370.125C13.3399 370.125 8.26261 372.258 4.6616 376.642L6.97978 378.547ZM19.6785 373.125C23.6961 373.125 26.9331 374 29.4782 375.654L31.1131 373.139C27.973 371.098 24.1319 370.125 19.6785 370.125L19.6785 373.125ZM29.4813 375.656C32.0045 377.287 34.0803 379.809 35.665 383.327L38.4004 382.095C36.6307 378.166 34.2152 375.144 31.11 373.137L29.4813 375.656ZM37.7345 384.037L63.1049 370.605L61.7012 367.954L36.3308 381.385L37.7345 384.037ZM62.4031 370.78L63 370.78L63 367.78L62.4031 367.78L62.4031 370.78ZM61.5 369.28L61.5 383.01L64.5 383.01L64.5 369.28L61.5 369.28ZM62.3162 381.675L39.5894 393.315L40.9571 395.985L63.6838 384.345L62.3162 381.675ZM31.4119 404.841L31.4119 394.522L28.4119 394.522L28.4119 404.841L31.4119 404.841ZM31.4119 394.522C31.4119 391.065 30.537 388.168 28.5857 386.045L26.3772 388.076C27.6665 389.478 28.4119 391.555 28.4119 394.522L31.4119 394.522ZM28.5769 386.036C26.591 383.913 23.9026 382.917 20.7018 382.917L20.7018 385.917C23.2431 385.917 25.0745 386.683 26.3861 388.085L28.5769 386.036ZM20.7018 382.917C17.475 382.917 14.755 383.85 12.7336 385.872L14.8549 387.993C16.1878 386.66 18.0728 385.917 20.7018 385.917L20.7018 382.917ZM12.7427 385.863C10.6687 387.902 9.77852 390.909 9.77852 394.565L12.7785 394.565C12.7785 391.341 13.5655 389.261 14.8458 388.002L12.7427 385.863ZM9.77852 394.565L9.77852 404.841L12.7785 404.841L12.7785 394.565L9.77852 394.565ZM11.2785 406.341L29.9119 406.341L29.9119 403.341L11.2785 403.341L11.2785 406.341ZM41.1687 310.48L42.3591 311.393L42.3639 311.387L42.3687 311.38L41.1687 310.48ZM37.0753 319.69L38.5011 320.156L38.5037 320.148L37.0753 319.69ZM32.8114 330.222L34.1311 330.935L34.1321 330.933L32.8114 330.222ZM8.46433 337.983L7.58753 339.2L7.58997 339.201L8.46433 337.983ZM2.28163 329.838L0.89668 330.415L0.898337 330.419L2.28163 329.838ZM2.49482 306.046L3.85385 306.681L3.85807 306.671L2.49482 306.046ZM9.27448 297.987L10.0924 299.244L10.1009 299.239L9.27448 297.987ZM19.2521 295.087L20.7521 295.087L20.7521 293.587L19.2521 293.587L19.2521 295.087ZM19.2521 307.879L19.2521 309.379L20.7521 309.379L20.7521 307.879L19.2521 307.879ZM12.643 310.565L13.7641 311.562L13.773 311.552L12.643 310.565ZM12.2592 325.404L13.4569 324.501L13.4522 324.495L13.4474 324.488L12.2592 325.404ZM22.5353 324.978L23.778 325.818L23.7834 325.81L22.5353 324.978ZM26.3728 315.981L27.8087 316.415L27.8093 316.413L26.3728 315.981ZM59.2904 301.185L60.4914 300.286L60.4874 300.281L59.2904 301.185ZM61.2518 330.649L62.6201 331.263L62.6237 331.255L61.2518 330.649ZM54.0457 339.645L54.8832 340.89L54.8911 340.885L54.0457 339.645ZM43.4712 342.715L41.9712 342.715L41.9712 344.215L43.4712 344.215L43.4712 342.715ZM43.4712 329.881L43.4712 328.381L41.9712 328.381L41.9712 329.881L43.4712 329.881ZM51.9138 310.48L53.133 309.606L53.1282 309.6L53.1234 309.593L51.9138 310.48ZM46.7118 306.422C43.8954 306.422 41.5717 307.443 39.9687 309.58L42.3687 311.38C43.324 310.106 44.6957 309.422 46.7118 309.422L46.7118 306.422ZM39.9783 309.568C38.5014 311.494 37.074 314.78 35.6469 319.232L38.5037 320.148C39.9193 315.732 41.2207 312.878 42.3591 311.393L39.9783 309.568ZM35.6496 319.224C34.2134 323.617 32.8242 327.034 31.4907 329.511L34.1321 330.933C35.5843 328.236 37.0377 324.632 38.501 320.156L35.6496 319.224ZM31.4917 329.509C27.8697 336.213 23.1789 339.297 17.4186 339.297L17.4186 342.297C24.5638 342.297 30.1349 338.331 34.1311 330.935L31.4917 329.509ZM17.4186 339.297C14.3639 339.297 11.6878 338.449 9.33869 336.764L7.58997 339.201C10.4713 341.268 13.7647 342.297 17.4186 342.297L17.4186 339.297ZM9.34113 336.765C6.95812 335.049 5.05493 332.573 3.66492 329.258L0.898337 330.419C2.46466 334.154 4.68326 337.107 7.58753 339.2L9.34113 336.765ZM3.66657 329.262C2.27457 325.916 1.56439 322.136 1.56439 317.899L-1.43561 317.899C-1.43561 322.475 -0.667642 326.654 0.896685 330.415L3.66657 329.262ZM1.56439 317.899C1.56439 313.65 2.34002 309.921 3.85382 306.681L1.13583 305.411C-0.590953 309.107 -1.43561 313.28 -1.43561 317.899L1.56439 317.899ZM3.85807 306.671C5.34293 303.437 7.4242 300.98 10.0924 299.244L8.45656 296.729C5.26896 298.803 2.83046 301.719 1.13158 305.42L3.85807 306.671ZM10.1009 299.239C12.7682 297.478 15.8031 296.587 19.2521 296.587L19.2521 293.587C15.2534 293.587 11.6365 294.63 8.44804 296.735L10.1009 299.239ZM17.7521 295.087L17.7521 307.879L20.7521 307.879L20.7521 295.087L17.7521 295.087ZM19.2521 306.379C16.0692 306.379 13.4172 307.398 11.513 309.579L13.773 311.552C14.9957 310.151 16.7497 309.379 19.2521 309.379L19.2521 306.379ZM11.5219 309.569C9.61114 311.718 8.75518 314.635 8.75518 318.113L11.7552 318.113C11.7552 315.109 12.4911 312.994 13.7641 311.562L11.5219 309.569ZM8.75518 318.113C8.75518 321.433 9.4623 324.232 11.071 326.319L13.4474 324.488C12.3841 323.108 11.7552 321.046 11.7552 318.113L8.75518 318.113ZM11.0616 326.307C12.6509 328.415 14.8272 329.505 17.4612 329.505L17.4612 326.505C15.7745 326.505 14.4828 325.861 13.4569 324.501L11.0616 326.307ZM17.4612 329.505C20.085 329.505 22.2006 328.151 23.778 325.818L21.2926 324.137C20.1411 325.841 18.874 326.505 17.4612 326.505L17.4612 329.505ZM23.7834 325.81C25.2664 323.585 26.5969 320.425 27.8087 316.415L24.937 315.547C23.761 319.439 22.5331 322.277 21.2872 324.145L23.7834 325.81ZM27.8093 316.413C29.9678 309.236 32.5936 304.199 35.5913 301.123L33.4426 299.029C29.9591 302.605 27.1555 308.171 24.9364 315.549L27.8093 316.413ZM35.5913 301.123C38.5369 298.1 42.1802 296.587 46.6265 296.587L46.6265 293.587C41.4079 293.587 36.9781 295.401 33.4426 299.029L35.5913 301.123ZM46.6265 296.587C51.5587 296.587 55.3245 298.423 58.0934 302.089L60.4874 300.281C57.1163 295.817 52.4394 293.587 46.6265 293.587L46.6265 296.587ZM58.0894 302.083C60.8784 305.811 62.3528 310.932 62.3528 317.601L65.3528 317.601C65.3528 310.511 63.7856 304.689 60.4914 300.286L58.0894 302.083ZM62.3528 317.601C62.3528 322.191 61.5203 326.331 59.8798 330.042L62.6237 331.255C64.4513 327.121 65.3528 322.562 65.3528 317.601L62.3528 317.601ZM59.8835 330.034C58.2152 333.747 55.9774 336.512 53.2004 338.406L54.8911 340.885C58.1973 338.629 60.7636 335.395 62.62 331.263L59.8835 330.034ZM53.2083 338.401C50.4373 340.266 47.21 341.215 43.4712 341.215L43.4712 344.215C47.7486 344.215 51.571 343.119 54.8832 340.89L53.2083 338.401ZM44.9712 342.715L44.9712 329.881L41.9712 329.881L41.9712 342.715L44.9712 342.715ZM43.4712 331.381C47.2049 331.381 50.254 330.253 52.3286 327.774C54.3604 325.346 55.2473 321.867 55.2473 317.601L52.2473 317.601C52.2473 321.522 51.4215 324.183 50.0279 325.848C48.6771 327.463 46.5882 328.381 43.4712 328.381L43.4712 331.381ZM55.2473 317.601C55.2473 314.381 54.6034 311.658 53.133 309.606L50.6946 311.354C51.6689 312.713 52.2473 314.738 52.2473 317.601L55.2473 317.601ZM53.1234 309.593C51.5744 307.481 49.3797 306.422 46.7118 306.422L46.7118 309.422C48.4783 309.422 49.7517 310.068 50.7042 311.367L53.1234 309.593ZM36.0946 249.037L37.5946 249.037L37.5946 247.537L36.0946 247.537L36.0946 249.037ZM36.0946 273.597L34.5946 273.597L34.5946 275.097L36.0946 275.097L36.0946 273.597ZM52.7239 273.597L52.7239 275.097L54.2239 275.097L54.2239 273.597L52.7239 273.597ZM52.7239 244.773L52.7239 243.273L51.2239 243.273L51.2239 244.773L52.7239 244.773ZM63 244.773L64.5 244.773L64.5 243.273L63 243.273L63 244.773ZM63 286.389L63 287.889L64.5 287.889L64.5 286.389L63 286.389ZM0.917171 286.389L-0.582829 286.389L-0.582829 287.889L0.917171 287.889L0.917171 286.389ZM0.917171 244.858L0.917171 243.358L-0.582829 243.358L-0.582829 244.858L0.917171 244.858ZM11.2785 244.858L12.7785 244.858L12.7785 243.358L11.2785 243.358L11.2785 244.858ZM11.2785 273.597L9.77852 273.597L9.77852 275.097L11.2785 275.097L11.2785 273.597ZM26.0744 273.597L26.0744 275.097L27.5744 275.097L27.5744 273.597L26.0744 273.597ZM26.0744 249.037L26.0744 247.537L24.5744 247.537L24.5744 249.037L26.0744 249.037ZM34.5946 249.037L34.5946 273.597L37.5946 273.597L37.5946 249.037L34.5946 249.037ZM36.0946 275.097L52.7239 275.097L52.7239 272.097L36.0946 272.097L36.0946 275.097ZM54.2239 273.597L54.2239 244.773L51.2239 244.773L51.2239 273.597L54.2239 273.597ZM52.7239 246.273L63 246.273L63 243.273L52.7239 243.273L52.7239 246.273ZM61.5 244.773L61.5 286.389L64.5 286.389L64.5 244.773L61.5 244.773ZM63 284.889L0.917171 284.889L0.917171 287.889L63 287.889L63 284.889ZM2.41717 286.389L2.41717 244.858L-0.582829 244.858L-0.582829 286.389L2.41717 286.389ZM0.917171 246.358L11.2785 246.358L11.2785 243.358L0.917171 243.358L0.917171 246.358ZM9.77852 244.858L9.77852 273.597L12.7785 273.597L12.7785 244.858L9.77852 244.858ZM11.2785 275.097L26.0744 275.097L26.0744 272.097L11.2785 272.097L11.2785 275.097ZM27.5744 273.597L27.5744 249.037L24.5744 249.037L24.5744 273.597L27.5744 273.597ZM26.0744 250.537L36.0946 250.537L36.0946 247.537L26.0744 247.537L26.0744 250.537ZM40.2733 214.286L39.5894 212.951L38.7733 213.369L38.7733 214.286L40.2733 214.286ZM40.2733 224.477L38.7733 224.477L38.7733 225.977L40.2733 225.977L40.2733 224.477ZM63 224.477L64.5 224.477L64.5 222.977L63 222.977L63 224.477ZM63 237.268L63 238.768L64.5 238.768L64.5 237.268L63 237.268ZM0.917171 237.268L-0.582829 237.268L-0.582829 238.768L0.917171 238.768L0.917171 237.268ZM5.82069 197.23L4.6616 196.278L5.82069 197.23ZM30.2957 194.032L29.4782 195.29L29.4813 195.292L30.2957 194.032ZM37.0327 202.347L35.665 202.963L36.3215 204.421L37.7345 203.673L37.0327 202.347ZM62.4031 188.915L62.4031 187.415L62.0305 187.415L61.7012 187.59L62.4031 188.915ZM63 188.915L64.5 188.915L64.5 187.415L63 187.415L63 188.915ZM63 202.645L63.6838 203.98L64.5 203.562L64.5 202.645L63 202.645ZM29.9119 224.477L29.9119 225.977L31.4119 225.977L31.4119 224.477L29.9119 224.477ZM27.4815 206.696L28.5858 205.681L28.5769 205.671L27.4815 206.696ZM13.7942 206.568L14.8458 207.638L14.8549 207.629L13.7942 206.568ZM11.2785 224.477L9.77852 224.477L9.77852 225.977L11.2785 225.977L11.2785 224.477ZM38.7733 214.286L38.7733 224.477L41.7733 224.477L41.7733 214.286L38.7733 214.286ZM40.2733 225.977L63 225.977L63 222.977L40.2733 222.977L40.2733 225.977ZM61.5 224.477L61.5 237.268L64.5 237.268L64.5 224.477L61.5 224.477ZM63 235.768L0.917171 235.768L0.917171 238.768L63 238.768L63 235.768ZM2.41717 237.268L2.41717 214.201L-0.582828 214.201L-0.582829 237.268L2.41717 237.268ZM2.41717 214.201C2.41717 207.07 4.00812 201.8 6.97978 198.182L4.6616 196.278C1.09524 200.62 -0.582828 206.664 -0.582828 214.201L2.41717 214.201ZM6.97978 198.182C9.9168 194.607 14.078 192.761 19.6785 192.761L19.6785 189.761C13.3399 189.761 8.26262 191.894 4.6616 196.278L6.97978 198.182ZM19.6785 192.761C23.6961 192.761 26.9331 193.636 29.4782 195.29L31.1131 192.775C27.973 190.733 24.1319 189.761 19.6785 189.761L19.6785 192.761ZM29.4813 195.292C32.0045 196.923 34.0803 199.444 35.665 202.963L38.4004 201.731C36.6307 197.802 34.2152 194.78 31.11 192.773L29.4813 195.292ZM37.7345 203.673L63.1049 190.241L61.7012 187.59L36.3308 201.021L37.7345 203.673ZM62.4031 190.415L63 190.415L63 187.415L62.4031 187.415L62.4031 190.415ZM61.5 188.915L61.5 202.645L64.5 202.645L64.5 188.915L61.5 188.915ZM62.3162 201.31L39.5894 212.951L40.9571 215.621L63.6838 203.98L62.3162 201.31ZM31.4119 224.477L31.4119 214.158L28.4119 214.158L28.4119 224.477L31.4119 224.477ZM31.4119 214.158C31.4119 210.701 30.537 207.803 28.5857 205.681L26.3772 207.711C27.6665 209.114 28.4119 211.191 28.4119 214.158L31.4119 214.158ZM28.5769 205.671C26.591 203.549 23.9026 202.552 20.7018 202.552L20.7018 205.552C23.2431 205.552 25.0745 206.319 26.3861 207.721L28.5769 205.671ZM20.7018 202.552C17.475 202.552 14.755 203.486 12.7336 205.508L14.8549 207.629C16.1878 206.296 18.0728 205.552 20.7018 205.552L20.7018 202.552ZM12.7427 205.498C10.6687 207.537 9.77852 210.545 9.77852 214.201L12.7785 214.201C12.7785 210.977 13.5655 208.896 14.8458 207.638L12.7427 205.498ZM9.77852 214.201L9.77852 224.477L12.7785 224.477L12.7785 214.201L9.77852 214.201ZM11.2785 225.977L29.9119 225.977L29.9119 222.977L11.2785 222.977L11.2785 225.977ZM47.6072 159.409L48.0376 160.846L52.8201 159.413L48.04 157.973L47.6072 159.409ZM0.917173 145.338L-0.582827 145.338L-0.582827 146.453L0.484346 146.774L0.917173 145.338ZM0.917173 131.097L1.41045 129.68L-0.582827 128.986L-0.582827 131.097L0.917173 131.097ZM63 152.715L64.5 152.715L64.5 151.649L63.4933 151.298L63 152.715ZM63 166.061L63.4915 167.478L64.5 167.128L64.5 166.061L63 166.061ZM0.917172 187.594L-0.582828 187.594L-0.582828 189.702L1.40871 189.011L0.917172 187.594ZM0.917172 173.395L0.486752 171.958L-0.582828 172.278L-0.582828 173.395L0.917172 173.395ZM48.04 157.973L1.35 143.902L0.484346 146.774L47.1744 160.845L48.04 157.973ZM2.41717 145.338L2.41717 131.097L-0.582827 131.097L-0.582827 145.338L2.41717 145.338ZM0.423902 132.513L62.5067 154.131L63.4933 151.298L1.41045 129.68L0.423902 132.513ZM61.5 152.715L61.5 166.061L64.5 166.061L64.5 152.715L61.5 152.715ZM62.5085 164.644L0.425637 186.176L1.40871 189.011L63.4915 167.478L62.5085 164.644ZM2.41717 187.594L2.41717 173.395L-0.582828 173.395L-0.582828 187.594L2.41717 187.594ZM1.34759 174.832L48.0376 160.846L47.1768 157.972L0.486752 171.958L1.34759 174.832ZM63 111.61L64.5 111.61L64.5 110.11L63 110.11L63 111.61ZM63 124.402L63 125.902L64.5 125.902L64.5 124.402L63 124.402ZM0.917173 124.402L-0.582827 124.402L-0.582827 125.902L0.917173 125.902L0.917173 124.402ZM0.917173 111.61L0.917173 110.11L-0.582827 110.11L-0.582827 111.61L0.917173 111.61ZM61.5 111.61L61.5 124.402L64.5 124.402L64.5 111.61L61.5 111.61ZM63 122.902L0.917173 122.902L0.917173 125.902L63 125.902L63 122.902ZM2.41717 124.402L2.41717 111.61L-0.582827 111.61L-0.582827 124.402L2.41717 124.402ZM0.917173 113.11L63 113.11L63 110.11L0.917173 110.11L0.917173 113.11ZM42.3199 50.9773L42.4282 49.4812L40.8199 49.3649L40.8199 50.9773L42.3199 50.9773ZM58.0965 58.3966L56.9591 59.3745L56.9622 59.3781L58.0965 58.3966ZM55.8366 94.7679L56.8058 95.9128L56.8123 95.9072L55.8366 94.7679ZM14.178 98.4349L13.5483 99.7963L14.178 98.4349ZM3.73137 89.438L5.00597 88.6472L5.0044 88.6447L3.73137 89.438ZM5.82069 58.4818L6.94865 59.4706L5.82069 58.4818ZM21.981 50.8921L23.481 50.8921L23.481 49.2373L21.8342 49.3993L21.981 50.8921ZM21.981 63.6838L22.0977 65.1793L23.481 65.0714L23.481 63.6838L21.981 63.6838ZM13.2826 67.0523L14.3672 68.0884L14.3751 68.0802L14.3829 68.0718L13.2826 67.0523ZM15.1587 85.3873L14.3031 86.6193L14.3055 86.621L15.1587 85.3873ZM29.3576 88.6278L29.3443 90.1278L29.3576 90.1278L29.3576 88.6278ZM48.7585 85.6005L49.5772 86.8574L49.5852 86.8521L48.7585 85.6005ZM50.7199 67.1376L51.8202 66.1182L51.8196 66.1176L50.7199 67.1376ZM42.3199 63.7691L40.8199 63.7691L40.8199 65.1606L42.2075 65.2649L42.3199 63.7691ZM42.2117 52.4734C48.5534 52.9322 53.4186 55.2571 56.9591 59.3745L59.2338 57.4186C55.0992 52.6102 49.4469 49.989 42.4282 49.4812L42.2117 52.4734ZM56.9622 59.3781C60.511 63.4789 62.3528 68.9574 62.3528 75.964L65.3528 75.964C65.3528 68.4164 63.3571 62.1832 59.2307 57.415L56.9622 59.3781ZM62.3528 75.964C62.3528 83.5495 59.8264 89.3763 54.8609 93.6286L56.8123 95.9072C62.5351 91.0063 65.3528 84.2972 65.3528 75.964L62.3528 75.964ZM54.8674 93.623C49.8438 97.8759 42.8645 100.09 33.7494 100.09L33.7494 103.09C43.3388 103.09 51.0843 100.756 56.8058 95.9128L54.8674 93.623ZM33.7494 100.09L29.9545 100.09L29.9545 103.09L33.7494 103.09L33.7494 100.09ZM29.9545 100.09C24.1614 100.09 19.1244 99.0699 14.8077 97.0735L13.5483 99.7963C18.328 102.007 23.8086 103.09 29.9545 103.09L29.9545 100.09ZM14.8077 97.0735C10.4997 95.081 7.25323 92.2692 5.00597 88.6472L2.45676 90.2288C5.04196 94.3955 8.7599 97.5817 13.5483 99.7963L14.8077 97.0735ZM5.0044 88.6447C2.7253 84.9875 1.56439 80.7209 1.56439 75.7934L-1.43561 75.7934C-1.43561 81.213 -0.151871 86.0428 2.45834 90.2313L5.0044 88.6447ZM1.56439 75.7934C1.56439 68.9065 3.40284 63.5155 6.94865 59.4706L4.69274 57.4931C0.563475 62.2035 -1.43561 68.3535 -1.43561 75.7934L1.56439 75.7934ZM6.94865 59.4706C10.487 55.4343 15.4917 53.0376 22.1278 52.3849L21.8342 49.3993C14.5983 50.111 8.82945 52.7741 4.69274 57.4931L6.94865 59.4706ZM20.481 50.8921L20.481 63.6838L23.481 63.6838L23.481 50.8921L20.481 50.8921ZM21.8643 62.1884C17.6719 62.5155 14.3356 63.7087 12.1822 66.0329L14.3829 68.0718C15.8113 66.5301 18.2739 65.4776 22.0977 65.1793L21.8643 62.1884ZM12.1979 66.0163C10.0066 68.3103 9.05366 71.6706 9.05366 75.7934L12.0537 75.7934C12.0537 72.0706 12.92 69.6035 14.3672 68.0884L12.1979 66.0163ZM9.05366 75.7934C9.05366 80.4687 10.7678 84.1642 14.3031 86.6193L16.0143 84.1552C13.4096 82.3464 12.0537 79.646 12.0537 75.7934L9.05366 75.7934ZM14.3055 86.621C17.717 88.9803 22.8154 90.07 29.3443 90.1278L29.3709 87.1279C23.0511 87.072 18.6837 86.0013 16.0119 84.1536L14.3055 86.621ZM29.3576 90.1278L34.0479 90.1278L34.0479 87.1278L29.3576 87.1278L29.3576 90.1278ZM34.0479 90.1278C40.8428 90.1278 46.1071 89.1176 49.5772 86.8573L47.9398 84.3436C45.2129 86.1198 40.6702 87.1278 34.0479 87.1278L34.0479 90.1278ZM49.5852 86.8521C53.1842 84.4747 54.9062 80.7411 54.9062 75.964L51.9062 75.964C51.9062 79.9421 50.5297 82.6328 47.9317 84.3488L49.5852 86.8521ZM54.9062 75.964C54.9062 71.8192 53.9706 68.4393 51.8202 66.1182L49.6195 68.1571C51.0508 69.7019 51.9062 72.2062 51.9062 75.964L54.9062 75.964ZM51.8196 66.1176C49.6528 63.7815 46.4331 62.5742 42.4324 62.2733L42.2075 65.2649C45.7681 65.5326 48.1484 66.571 49.6201 68.1577L51.8196 66.1176ZM43.8199 63.7691L43.8199 50.9773L40.8199 50.9773L40.8199 63.7691L43.8199 63.7691ZM36.0946 5.22534L37.5946 5.22534L37.5946 3.72534L36.0946 3.72534L36.0946 5.22534ZM36.0946 29.7856L34.5946 29.7856L34.5946 31.2856L36.0946 31.2856L36.0946 29.7856ZM52.7239 29.7856L52.7239 31.2856L54.2239 31.2856L54.2239 29.7856L52.7239 29.7856ZM52.7239 0.961427L52.7239 -0.538573L51.2239 -0.538573L51.2239 0.961427L52.7239 0.961427ZM63 0.961427L64.5 0.961427L64.5 -0.538573L63 -0.538573L63 0.961427ZM63 42.5774L63 44.0774L64.5 44.0774L64.5 42.5774L63 42.5774ZM0.917174 42.5774L-0.582826 42.5774L-0.582826 44.0774L0.917174 44.0774L0.917174 42.5774ZM0.917174 1.04669L0.917174 -0.453308L-0.582826 -0.453308L-0.582826 1.04669L0.917174 1.04669ZM11.2785 1.04669L12.7785 1.04669L12.7785 -0.453308L11.2785 -0.453308L11.2785 1.04669ZM11.2785 29.7856L9.77853 29.7856L9.77853 31.2856L11.2785 31.2856L11.2785 29.7856ZM26.0744 29.7856L26.0744 31.2856L27.5744 31.2856L27.5744 29.7856L26.0744 29.7856ZM26.0744 5.22534L26.0744 3.72534L24.5744 3.72534L24.5744 5.22534L26.0744 5.22534ZM34.5946 5.22534L34.5946 29.7856L37.5946 29.7856L37.5946 5.22534L34.5946 5.22534ZM36.0946 31.2856L52.7239 31.2856L52.7239 28.2856L36.0946 28.2856L36.0946 31.2856ZM54.2239 29.7856L54.2239 0.961427L51.2239 0.961427L51.2239 29.7856L54.2239 29.7856ZM52.7239 2.46143L63 2.46143L63 -0.538573L52.7239 -0.538573L52.7239 2.46143ZM61.5 0.961427L61.5 42.5774L64.5 42.5774L64.5 0.961427L61.5 0.961427ZM63 41.0774L0.917174 41.0774L0.917174 44.0774L63 44.0774L63 41.0774ZM2.41717 42.5774L2.41717 1.04669L-0.582826 1.04669L-0.582826 42.5774L2.41717 42.5774ZM0.917174 2.54669L11.2785 2.54669L11.2785 -0.453308L0.917174 -0.453308L0.917174 2.54669ZM9.77853 1.04669L9.77853 29.7856L12.7785 29.7856L12.7785 1.04669L9.77853 1.04669ZM11.2785 31.2856L26.0744 31.2856L26.0744 28.2856L11.2785 28.2856L11.2785 31.2856ZM27.5744 29.7856L27.5744 5.22534L24.5744 5.22534L24.5744 29.7856L27.5744 29.7856ZM26.0744 6.72534L36.0946 6.72534L36.0946 3.72534L26.0744 3.72534L26.0744 6.72534Z" fill="#FAFAFA"/>
</svg>
