<svg width="64" height="467" viewBox="0 0 64 467" fill="none" xmlns="http://www.w3.org/2000/svg">
<path d="M60.1005 425.881L58.8255 426.672L58.828 426.676L60.1005 425.881ZM60.1432 453.469L61.4222 454.253L60.1432 453.469ZM49.5686 462.85L50.2193 464.201L50.2226 464.2L49.5686 462.85ZM33.7068 466.218L33.7068 467.718L33.7139 467.718L33.7068 466.218ZM14.5191 462.935L13.8748 464.29L13.8784 464.291L14.5191 462.935ZM3.81664 453.597L5.0932 452.809L5.09166 452.807L3.81664 453.597ZM3.81664 426.009L5.08919 426.804L5.09567 426.793L3.81664 426.009ZM14.5191 416.671L15.1566 418.029L15.1666 418.024L14.5191 416.671ZM15.6704 449.717L16.5313 448.488L16.5264 448.485L15.6704 449.717ZM30.3383 453.256L30.3317 454.756L30.3383 454.756L30.3383 453.256ZM48.3321 429.804L49.181 428.568L49.1761 428.564L48.3321 429.804ZM33.5789 426.308L33.5855 424.808L33.5789 424.808L33.5789 426.308ZM33.3657 414.845C39.3008 414.845 44.434 415.894 48.8036 417.944L50.0778 415.228C45.2373 412.957 39.6538 411.845 33.3657 411.845L33.3657 414.845ZM48.8036 417.944C53.1651 419.99 56.4882 422.9 58.8255 426.672L61.3755 425.091C58.7099 420.79 54.9264 417.503 50.0778 415.228L48.8036 417.944ZM58.828 426.676C61.166 430.422 62.3528 434.746 62.3528 439.697L65.3528 439.697C65.3528 434.243 64.038 429.357 61.373 425.087L58.828 426.676ZM62.3528 439.697C62.3528 444.59 61.1802 448.905 58.8641 452.685L61.4222 454.253C64.0523 449.96 65.3528 445.093 65.3528 439.697L62.3528 439.697ZM58.8641 452.685C56.5522 456.459 53.253 459.398 48.9146 461.5L50.2226 464.2C55.0374 461.867 58.788 458.552 61.4222 454.253L58.8641 452.685ZM48.9179 461.498C44.5447 463.604 39.4835 464.691 33.6997 464.718L33.7139 467.718C39.8691 467.689 45.3824 466.53 50.2193 464.201L48.9179 461.498ZM33.7068 464.718L30.6368 464.718L30.6368 467.718L33.7068 467.718L33.7068 464.718ZM30.6368 464.718C24.7045 464.718 19.558 463.656 15.1598 461.579L13.8784 464.291C18.7471 466.591 24.3457 467.718 30.6368 467.718L30.6368 464.718ZM15.1634 461.58C10.7364 459.475 7.40005 456.548 5.0932 452.809L2.54009 454.385C5.1794 458.662 8.97804 461.961 13.8748 464.29L15.1634 461.58ZM5.09166 452.807C2.75028 449.029 1.56438 444.702 1.56438 439.782L-1.43562 439.782C-1.43562 445.209 -0.120011 450.092 2.54163 454.387L5.09166 452.807ZM1.56438 439.782C1.56438 434.861 2.7503 430.551 5.08915 426.804L2.54414 425.215C-0.120026 429.484 -1.43562 434.355 -1.43562 439.782L1.56438 439.782ZM5.09567 426.793C7.40214 423.028 10.7357 420.105 15.1566 418.029L13.8816 415.314C8.9787 417.615 5.17731 420.917 2.53761 425.226L5.09567 426.793ZM15.1666 418.024C19.564 415.92 24.6941 414.845 30.5941 414.845L30.5941 411.845C24.3277 411.845 18.7412 412.988 13.8716 415.318L15.1666 418.024ZM30.5941 414.845L33.3657 414.845L33.3657 411.845L30.5941 411.845L30.5941 414.845ZM30.5515 424.808C23.9016 424.808 18.6023 425.992 14.8619 428.569L16.5641 431.039C19.5891 428.955 24.1822 427.808 30.5515 427.808L30.5515 424.808ZM14.8619 428.569C11.0486 431.197 9.13893 434.998 9.13893 439.782L12.1389 439.782C12.1389 435.924 13.612 433.074 16.5641 431.039L14.8619 428.569ZM9.13893 439.782C9.13893 444.536 11.0329 448.321 14.8144 450.949L16.5264 448.485C13.5992 446.451 12.1389 443.612 12.1389 439.782L9.13893 439.782ZM14.8095 450.945C18.4938 453.527 23.7389 454.727 30.3317 454.756L30.3449 451.756C24.0322 451.728 19.4986 450.568 16.5313 448.488L14.8095 450.945ZM30.3383 454.756L33.3657 454.756L33.3657 451.756L30.3383 451.756L30.3383 454.756ZM33.3657 454.756C39.8599 454.756 45.1124 453.567 48.9509 451.007L47.2868 448.511C44.1325 450.614 39.5496 451.756 33.3657 451.756L33.3657 454.756ZM48.9509 451.007C52.8851 448.385 54.8635 444.551 54.8635 439.697L51.8635 439.697C51.8635 443.598 50.3455 446.472 47.2868 448.511L48.9509 451.007ZM54.8635 439.697C54.8635 434.942 52.9687 431.168 49.181 428.568L47.4832 431.041C50.404 433.046 51.8635 435.866 51.8635 439.697L54.8635 439.697ZM49.1761 428.564C45.4416 426.022 40.1783 424.837 33.5855 424.808L33.5723 427.808C39.8849 427.836 44.4572 428.981 47.488 431.044L49.1761 428.564ZM33.5789 424.808L30.5515 424.808L30.5515 427.808L33.5789 427.808L33.5789 424.808ZM0.91717 357.062L0.91717 355.562L-0.58283 355.562L-0.58283 357.062L0.91717 357.062ZM57.9259 363.457L56.8257 364.477L56.8291 364.481L57.9259 363.457ZM42.2773 404.647L42.2773 406.147L42.2868 406.147L42.2964 406.147L42.2773 404.647ZM0.917169 404.647L-0.582831 404.647L-0.582831 406.147L0.917169 406.147L0.917169 404.647ZM0.91717 391.855L0.91717 390.355L-0.58283 390.355L-0.58283 391.855L0.91717 391.855ZM50.8052 388.956L51.8815 390L51.8893 389.992L51.897 389.984L50.8052 388.956ZM42.2347 369.896L42.2572 368.396L42.2459 368.396L42.2347 368.396L42.2347 369.896ZM0.91717 369.896L-0.58283 369.896L-0.58283 371.396L0.91717 371.396L0.91717 369.896ZM0.91717 358.562L41.8083 358.562L41.8083 355.562L0.91717 355.562L0.91717 358.562ZM41.8083 358.562C48.2615 358.562 53.2067 360.572 56.8257 364.477L59.0262 362.438C54.7426 357.815 48.9428 355.562 41.8083 355.562L41.8083 358.562ZM56.8291 364.481C60.4565 368.369 62.3528 373.765 62.3528 380.854L65.3528 380.854C65.3528 373.219 63.2979 367.017 59.0228 362.434L56.8291 364.481ZM62.3528 380.854C62.3528 387.834 60.5109 393.198 56.9815 397.12L59.2114 399.127C63.3571 394.52 65.3528 388.372 65.3528 380.854L62.3528 380.854ZM56.9815 397.12C53.472 401.019 48.6258 403.066 42.2582 403.147L42.2964 406.147C49.3459 406.057 55.0459 403.755 59.2114 399.127L56.9815 397.12ZM42.2773 403.147L0.917169 403.147L0.917169 406.147L42.2773 406.147L42.2773 403.147ZM2.41717 404.647L2.41717 391.855L-0.58283 391.855L-0.582831 404.647L2.41717 404.647ZM0.91717 393.355L41.8935 393.355L41.8935 390.355L0.91717 390.355L0.91717 393.355ZM41.8935 393.355C46.1596 393.355 49.6067 392.344 51.8815 390L49.7288 387.911C48.2514 389.433 45.7574 390.355 41.8935 390.355L41.8935 393.355ZM51.897 389.984C54.0736 387.674 55.0767 384.566 55.0767 380.854L52.0767 380.854C52.0767 384.021 51.2321 386.315 49.7133 387.927L51.897 389.984ZM55.0767 380.854C55.0767 377.006 54.0612 373.843 51.7835 371.642C49.5192 369.454 46.2527 368.456 42.2572 368.396L42.2121 371.396C45.778 371.449 48.1825 372.334 49.6989 373.8C51.2019 375.252 52.0767 377.511 52.0767 380.854L55.0767 380.854ZM42.2347 368.396L0.91717 368.396L0.91717 371.396L42.2347 371.396L42.2347 368.396ZM2.41717 369.896L2.41717 357.062L-0.58283 357.062L-0.58283 369.896L2.41717 369.896ZM40.2733 323.59L39.5894 322.255L38.7733 322.673L38.7733 323.59L40.2733 323.59ZM40.2733 333.78L38.7733 333.78L38.7733 335.28L40.2733 335.28L40.2733 333.78ZM63 333.78L64.5 333.78L64.5 332.28L63 332.28L63 333.78ZM63 346.572L63 348.072L64.5 348.072L64.5 346.572L63 346.572ZM0.91717 346.572L-0.58283 346.572L-0.58283 348.072L0.91717 348.072L0.91717 346.572ZM5.82069 306.534L4.6616 305.582L5.82069 306.534ZM30.2957 303.336L29.4782 304.594L29.4813 304.596L30.2957 303.336ZM37.0327 311.651L35.665 312.267L36.3215 313.724L37.7345 312.976L37.0327 311.651ZM62.4031 298.219L62.4031 296.719L62.0305 296.719L61.7012 296.894L62.4031 298.219ZM63 298.219L64.5 298.219L64.5 296.719L63 296.719L63 298.219ZM63 311.949L63.6838 313.284L64.5 312.866L64.5 311.949L63 311.949ZM29.9119 333.78L29.9119 335.28L31.4119 335.28L31.4119 333.78L29.9119 333.78ZM27.4815 316L28.5858 314.985L28.5769 314.975L27.4815 316ZM13.7942 315.872L14.8458 316.942L14.8549 316.933L13.7942 315.872ZM11.2785 333.78L9.77852 333.78L9.77852 335.28L11.2785 335.28L11.2785 333.78ZM38.7733 323.59L38.7733 333.78L41.7733 333.78L41.7733 323.59L38.7733 323.59ZM40.2733 335.28L63 335.28L63 332.28L40.2733 332.28L40.2733 335.28ZM61.5 333.78L61.5 346.572L64.5 346.572L64.5 333.78L61.5 333.78ZM63 345.072L0.91717 345.072L0.91717 348.072L63 348.072L63 345.072ZM2.41717 346.572L2.41717 323.504L-0.58283 323.504L-0.58283 346.572L2.41717 346.572ZM2.41717 323.504C2.41717 316.373 4.00811 311.104 6.97978 307.486L4.6616 305.582C1.09524 309.924 -0.582829 315.968 -0.58283 323.504L2.41717 323.504ZM6.97978 307.486C9.9168 303.911 14.078 302.064 19.6785 302.064L19.6785 299.064C13.3399 299.064 8.26261 301.198 4.6616 305.582L6.97978 307.486ZM19.6785 302.064C23.6961 302.064 26.9331 302.939 29.4782 304.594L31.1131 302.078C27.973 300.037 24.1319 299.064 19.6785 299.064L19.6785 302.064ZM29.4813 304.596C32.0045 306.227 34.0803 308.748 35.665 312.267L38.4004 311.035C36.6307 307.105 34.2152 304.084 31.11 302.076L29.4813 304.596ZM37.7345 312.976L63.1049 299.545L61.7012 296.894L36.3308 310.325L37.7345 312.976ZM62.4031 299.719L63 299.719L63 296.719L62.4031 296.719L62.4031 299.719ZM61.5 298.219L61.5 311.949L64.5 311.949L64.5 298.219L61.5 298.219ZM62.3162 310.614L39.5894 322.255L40.9571 324.925L63.6838 313.284L62.3162 310.614ZM31.4119 333.78L31.4119 323.462L28.4119 323.462L28.4119 333.78L31.4119 333.78ZM31.4119 323.462C31.4119 320.004 30.537 317.107 28.5857 314.985L26.3772 317.015C27.6665 318.417 28.4119 320.495 28.4119 323.462L31.4119 323.462ZM28.5769 314.975C26.591 312.852 23.9026 311.856 20.7018 311.856L20.7018 314.856C23.2431 314.856 25.0745 315.623 26.3861 317.025L28.5769 314.975ZM20.7018 311.856C17.475 311.856 14.755 312.79 12.7336 314.811L14.8549 316.933C16.1878 315.6 18.0728 314.856 20.7018 314.856L20.7018 311.856ZM12.7427 314.802C10.6687 316.841 9.77852 319.849 9.77852 323.504L12.7785 323.504C12.7785 320.281 13.5655 318.2 14.8458 316.942L12.7427 314.802ZM9.77852 323.504L9.77852 333.78L12.7785 333.78L12.7785 323.504L9.77852 323.504ZM11.2785 335.28L29.9119 335.28L29.9119 332.28L11.2785 332.28L11.2785 335.28ZM41.1687 239.42L42.3591 240.332L42.3639 240.326L42.3687 240.32L41.1687 239.42ZM37.0753 248.63L38.5011 249.096L38.5037 249.088L37.0753 248.63ZM32.8114 259.162L34.1311 259.875L34.1321 259.873L32.8114 259.162ZM8.46433 266.922L7.58753 268.139L7.58997 268.141L8.46433 266.922ZM2.28163 258.778L0.896681 259.354L0.898338 259.358L2.28163 258.778ZM2.49483 234.985L3.85385 235.62L3.85807 235.611L2.49483 234.985ZM9.27448 226.926L10.0924 228.184L10.1009 228.178L9.27448 226.926ZM19.2521 224.027L20.7521 224.027L20.7521 222.527L19.2521 222.527L19.2521 224.027ZM19.2521 236.819L19.2521 238.319L20.7521 238.319L20.7521 236.819L19.2521 236.819ZM12.643 239.505L13.7641 240.502L13.773 240.491L12.643 239.505ZM12.2592 254.343L13.4569 253.44L13.4522 253.434L13.4474 253.428L12.2592 254.343ZM22.5353 253.917L23.778 254.757L23.7834 254.749L22.5353 253.917ZM26.3728 244.92L27.8087 245.354L27.8093 245.352L26.3728 244.92ZM59.2904 230.124L60.4914 229.226L60.4874 229.22L59.2904 230.124ZM61.2518 259.588L62.6201 260.203L62.6237 260.195L61.2518 259.588ZM54.0457 268.585L54.8832 269.829L54.8911 269.824L54.0457 268.585ZM43.4712 271.655L41.9712 271.655L41.9712 273.155L43.4712 273.155L43.4712 271.655ZM43.4712 258.821L43.4712 257.321L41.9712 257.321L41.9712 258.821L43.4712 258.821ZM51.9138 239.42L53.133 238.546L53.1282 238.539L53.1234 238.533L51.9138 239.42ZM46.7118 235.361C43.8955 235.361 41.5717 236.382 39.9687 238.52L42.3687 240.32C43.324 239.046 44.6957 238.361 46.7118 238.361L46.7118 235.361ZM39.9783 238.507C38.5014 240.433 37.074 243.719 35.6469 248.172L38.5037 249.088C39.9193 244.671 41.2207 241.817 42.3591 240.332L39.9783 238.507ZM35.6496 248.164C34.2134 252.557 32.8242 255.974 31.4907 258.451L34.1321 259.873C35.5843 257.176 37.0377 253.572 38.501 249.096L35.6496 248.164ZM31.4917 258.449C27.8697 265.152 23.1789 268.236 17.4186 268.236L17.4186 271.236C24.5638 271.236 30.1349 267.271 34.1311 259.875L31.4917 258.449ZM17.4186 268.236C14.3639 268.236 11.6878 267.388 9.33869 265.703L7.58997 268.141C10.4713 270.208 13.7647 271.236 17.4186 271.236L17.4186 268.236ZM9.34113 265.705C6.95813 263.988 5.05493 261.512 3.66492 258.198L0.898338 259.358C2.46466 263.093 4.68326 266.047 7.58753 268.139L9.34113 265.705ZM3.66657 258.202C2.27457 254.856 1.56439 251.076 1.56439 246.839L-1.43561 246.839C-1.43561 251.414 -0.667641 255.594 0.896686 259.354L3.66657 258.202ZM1.56439 246.839C1.56439 242.589 2.34002 238.86 3.85382 235.62L1.13584 234.35C-0.590952 238.046 -1.43561 242.22 -1.43561 246.839L1.56439 246.839ZM3.85807 235.611C5.34293 232.376 7.4242 229.919 10.0924 228.184L8.45656 225.669C5.26896 227.742 2.83046 230.658 1.13158 234.359L3.85807 235.611ZM10.1009 228.178C12.7682 226.417 15.8031 225.527 19.2521 225.527L19.2521 222.527C15.2534 222.527 11.6365 223.57 8.44804 225.675L10.1009 228.178ZM17.7521 224.027L17.7521 236.819L20.7521 236.819L20.7521 224.027L17.7521 224.027ZM19.2521 235.319C16.0692 235.319 13.4172 236.337 11.513 238.518L13.773 240.491C14.9957 239.091 16.7497 238.319 19.2521 238.319L19.2521 235.319ZM11.5219 238.508C9.61114 240.658 8.75518 243.575 8.75518 247.052L11.7552 247.052C11.7552 244.048 12.4911 241.934 13.7641 240.502L11.5219 238.508ZM8.75518 247.052C8.75518 250.372 9.4623 253.171 11.071 255.259L13.4474 253.428C12.3841 252.048 11.7552 249.986 11.7552 247.052L8.75518 247.052ZM11.0616 255.247C12.6509 257.354 14.8272 258.444 17.4612 258.444L17.4612 255.444C15.7745 255.444 14.4828 254.801 13.4569 253.44L11.0616 255.247ZM17.4612 258.444C20.085 258.444 22.2006 257.09 23.778 254.757L21.2926 253.077C20.1411 254.78 18.874 255.444 17.4612 255.444L17.4612 258.444ZM23.7834 254.749C25.2664 252.525 26.5969 249.365 27.8087 245.354L24.937 244.486C23.761 248.378 22.5331 251.216 21.2872 253.085L23.7834 254.749ZM27.8093 245.352C29.9678 238.176 32.5936 233.139 35.5913 230.063L33.4426 227.969C29.9591 231.544 27.1555 237.11 24.9364 244.488L27.8093 245.352ZM35.5913 230.063C38.5369 227.039 42.1802 225.527 46.6265 225.527L46.6265 222.527C41.4079 222.527 36.9781 224.34 33.4426 227.969L35.5913 230.063ZM46.6265 225.527C51.5587 225.527 55.3245 227.362 58.0934 231.028L60.4874 229.22C57.1163 224.757 52.4394 222.527 46.6265 222.527L46.6265 225.527ZM58.0894 231.023C60.8784 234.75 62.3528 239.872 62.3528 246.54L65.3528 246.54C65.3528 239.451 63.7856 233.628 60.4914 229.226L58.0894 231.023ZM62.3528 246.54C62.3528 251.131 61.5203 255.271 59.8798 258.982L62.6237 260.195C64.4513 256.06 65.3528 251.501 65.3528 246.54L62.3528 246.54ZM59.8835 258.973C58.2152 262.687 55.9774 265.451 53.2004 267.346L54.8911 269.824C58.1973 267.568 60.7636 264.335 62.62 260.203L59.8835 258.973ZM53.2083 267.341C50.4373 269.205 47.21 270.155 43.4712 270.155L43.4712 273.155C47.7486 273.155 51.571 272.058 54.8832 269.829L53.2083 267.341ZM44.9712 271.655L44.9712 258.821L41.9712 258.821L41.9712 271.655L44.9712 271.655ZM43.4712 260.321C47.2049 260.321 50.254 259.192 52.3286 256.713C54.3604 254.285 55.2473 250.806 55.2473 246.54L52.2473 246.54C52.2473 250.461 51.4215 253.123 50.0279 254.788C48.6772 256.402 46.5882 257.321 43.4712 257.321L43.4712 260.321ZM55.2473 246.54C55.2473 243.32 54.6034 240.598 53.133 238.546L50.6946 240.293C51.6689 241.653 52.2473 243.677 52.2473 246.54L55.2473 246.54ZM53.1234 238.533C51.5744 236.42 49.3797 235.361 46.7118 235.361L46.7118 238.361C48.4783 238.361 49.7517 239.008 50.7042 240.307L53.1234 238.533ZM11.2785 168.596L12.7785 168.596L12.7785 167.096L11.2785 167.096L11.2785 168.596ZM11.2785 187.613L9.77852 187.613L9.77852 189.113L11.2785 189.113L11.2785 187.613ZM63 187.613L64.5 187.613L64.5 186.113L63 186.113L63 187.613ZM63 200.405L63 201.905L64.5 201.905L64.5 200.405L63 200.405ZM11.2785 200.405L11.2785 198.905L9.77852 198.905L9.77852 200.405L11.2785 200.405ZM11.2785 219.166L11.2785 220.666L12.7785 220.666L12.7785 219.166L11.2785 219.166ZM0.917172 219.166L-0.582828 219.166L-0.582828 220.666L0.917172 220.666L0.917172 219.166ZM0.917172 168.596L0.917172 167.096L-0.582828 167.096L-0.582828 168.596L0.917172 168.596ZM9.77853 168.596L9.77852 187.613L12.7785 187.613L12.7785 168.596L9.77853 168.596ZM11.2785 189.113L63 189.113L63 186.113L11.2785 186.113L11.2785 189.113ZM61.5 187.613L61.5 200.405L64.5 200.405L64.5 187.613L61.5 187.613ZM63 198.905L11.2785 198.905L11.2785 201.905L63 201.905L63 198.905ZM9.77852 200.405L9.77852 219.166L12.7785 219.166L12.7785 200.405L9.77852 200.405ZM11.2785 217.666L0.917172 217.666L0.917172 220.666L11.2785 220.666L11.2785 217.666ZM2.41717 219.166L2.41717 168.596L-0.582828 168.596L-0.582828 219.166L2.41717 219.166ZM0.917172 170.096L11.2785 170.096L11.2785 167.096L0.917172 167.096L0.917172 170.096ZM60.1005 123.995L58.8255 124.785L58.828 124.789L60.1005 123.995ZM60.1432 151.583L61.4222 152.366L60.1432 151.583ZM49.5686 160.963L50.2193 162.315L50.2226 162.313L49.5686 160.963ZM33.7068 164.332L33.7068 165.832L33.7139 165.832L33.7068 164.332ZM14.5191 161.049L13.8749 162.403L13.8784 162.405L14.5191 161.049ZM3.81665 151.711L5.0932 150.923L5.09166 150.921L3.81665 151.711ZM3.81665 124.123L5.08919 124.917L5.09568 124.907L3.81665 124.123ZM14.5191 114.785L15.1566 116.143L15.1666 116.138L14.5191 114.785ZM15.6704 147.83L16.5313 146.602L16.5264 146.599L15.6704 147.83ZM30.3383 151.37L30.3317 152.87L30.3383 152.87L30.3383 151.37ZM48.3321 127.918L49.181 126.681L49.1761 126.678L48.3321 127.918ZM33.5789 124.422L33.5855 122.922L33.5789 122.922L33.5789 124.422ZM33.3657 112.959C39.3008 112.959 44.4341 114.008 48.8036 116.058L50.0778 113.342C45.2373 111.071 39.6538 109.959 33.3657 109.959L33.3657 112.959ZM48.8036 116.058C53.1651 118.104 56.4882 121.014 58.8255 124.785L61.3755 123.205C58.7099 118.904 54.9264 115.616 50.0778 113.342L48.8036 116.058ZM58.828 124.789C61.1661 128.535 62.3528 132.86 62.3528 137.81L65.3528 137.81C65.3528 132.357 64.038 127.471 61.373 123.201L58.828 124.789ZM62.3528 137.81C62.3528 142.704 61.1802 147.019 58.8641 150.799L61.4222 152.366C64.0523 148.074 65.3528 143.207 65.3528 137.81L62.3528 137.81ZM58.8641 150.799C56.5522 154.573 53.253 157.512 48.9146 159.613L50.2226 162.313C55.0374 159.981 58.788 156.666 61.4222 152.366L58.8641 150.799ZM48.9179 159.612C44.5447 161.717 39.4835 162.804 33.6997 162.832L33.7139 165.832C39.8691 165.803 45.3824 164.644 50.2193 162.315L48.9179 159.612ZM33.7068 162.832L30.6368 162.832L30.6368 165.832L33.7068 165.832L33.7068 162.832ZM30.6368 162.832C24.7045 162.832 19.558 161.77 15.1598 159.692L13.8784 162.405C18.7471 164.705 24.3457 165.832 30.6368 165.832L30.6368 162.832ZM15.1634 159.694C10.7364 157.589 7.40005 154.662 5.0932 150.923L2.54009 152.498C5.1794 156.776 8.97805 160.074 13.8749 162.403L15.1634 159.694ZM5.09166 150.921C2.75029 147.142 1.56439 142.816 1.56439 137.896L-1.43561 137.896C-1.43561 143.322 -0.120007 148.206 2.54163 152.501L5.09166 150.921ZM1.56439 137.896C1.56439 132.975 2.7503 128.665 5.08915 124.917L2.54414 123.329C-0.120022 127.598 -1.43561 132.469 -1.43561 137.896L1.56439 137.896ZM5.09568 124.907C7.40214 121.142 10.7357 118.218 15.1566 116.143L13.8816 113.427C8.97871 115.729 5.17731 119.031 2.53761 123.339L5.09568 124.907ZM15.1666 116.138C19.564 114.034 24.6941 112.959 30.5941 112.959L30.5941 109.959C24.3277 109.959 18.7412 111.102 13.8716 113.432L15.1666 116.138ZM30.5941 112.959L33.3657 112.959L33.3657 109.959L30.5941 109.959L30.5941 112.959ZM30.5515 122.922C23.9016 122.922 18.6023 124.105 14.8619 126.683L16.5641 129.153C19.5891 127.069 24.1822 125.922 30.5515 125.922L30.5515 122.922ZM14.8619 126.683C11.0486 129.31 9.13893 133.112 9.13893 137.896L12.1389 137.896C12.1389 134.038 13.612 131.187 16.5641 129.153L14.8619 126.683ZM9.13893 137.896C9.13893 142.65 11.0329 146.434 14.8144 149.062L16.5264 146.599C13.5992 144.565 12.1389 141.726 12.1389 137.896L9.13893 137.896ZM14.8095 149.059C18.4938 151.641 23.7389 152.84 30.3317 152.87L30.3449 149.87C24.0322 149.842 19.4987 148.682 16.5313 146.602L14.8095 149.059ZM30.3383 152.87L33.3657 152.87L33.3657 149.87L30.3383 149.87L30.3383 152.87ZM33.3657 152.87C39.8599 152.87 45.1124 151.68 48.9509 149.121L47.2868 146.625C44.1325 148.728 39.5496 149.87 33.3657 149.87L33.3657 152.87ZM48.9509 149.121C52.8851 146.498 54.8635 142.664 54.8635 137.81L51.8635 137.81C51.8635 141.711 50.3455 144.586 47.2868 146.625L48.9509 149.121ZM54.8635 137.81C54.8635 133.056 52.9687 129.281 49.181 126.681L47.4832 129.155C50.404 131.16 51.8635 133.98 51.8635 137.81L54.8635 137.81ZM49.1761 126.678C45.4416 124.136 40.1783 122.951 33.5855 122.922L33.5723 125.921C39.8849 125.949 44.4572 127.095 47.488 129.158L49.1761 126.678ZM33.5789 122.922L30.5515 122.922L30.5515 125.922L33.5789 125.922L33.5789 122.922ZM40.2733 79.1812L39.5894 77.8461L38.7733 78.2642L38.7733 79.1812L40.2733 79.1812ZM40.2733 89.372L38.7733 89.372L38.7733 90.872L40.2733 90.872L40.2733 89.372ZM63 89.372L64.5 89.372L64.5 87.872L63 87.872L63 89.372ZM63 102.164L63 103.664L64.5 103.664L64.5 102.164L63 102.164ZM0.917173 102.164L-0.582827 102.164L-0.582827 103.664L0.917173 103.664L0.917173 102.164ZM5.82069 62.1255L4.6616 61.1733L5.82069 62.1255ZM30.2957 58.9275L29.4782 60.1852L29.4813 60.1872L30.2957 58.9275ZM37.0327 67.2422L35.665 67.8582L36.3215 69.3159L37.7345 68.5679L37.0327 67.2422ZM62.4031 53.8108L62.4031 52.3108L62.0305 52.3108L61.7012 52.4851L62.4031 53.8108ZM63 53.8108L64.5 53.8108L64.5 52.3108L63 52.3108L63 53.8108ZM63 67.5407L63.6838 68.8757L64.5 68.4577L64.5 67.5407L63 67.5407ZM29.9119 89.372L29.9119 90.872L31.4119 90.872L31.4119 89.372L29.9119 89.372ZM27.4815 71.5914L28.5858 70.5761L28.5769 70.5667L27.4815 71.5914ZM13.7942 71.4635L14.8458 72.5332L14.8549 72.5241L13.7942 71.4635ZM11.2785 89.372L9.77853 89.372L9.77853 90.872L11.2785 90.872L11.2785 89.372ZM38.7733 79.1812L38.7733 89.372L41.7733 89.372L41.7733 79.1812L38.7733 79.1812ZM40.2733 90.872L63 90.872L63 87.872L40.2733 87.872L40.2733 90.872ZM61.5 89.372L61.5 102.164L64.5 102.164L64.5 89.372L61.5 89.372ZM63 100.664L0.917173 100.664L0.917173 103.664L63 103.664L63 100.664ZM2.41717 102.164L2.41717 79.0959L-0.582827 79.0959L-0.582827 102.164L2.41717 102.164ZM2.41717 79.0959C2.41717 71.9648 4.00812 66.6953 6.97978 63.0776L4.6616 61.1733C1.09524 65.515 -0.582827 71.5591 -0.582827 79.0959L2.41717 79.0959ZM6.97978 63.0776C9.9168 59.5021 14.078 57.6559 19.6785 57.6559L19.6785 54.6559C13.3399 54.6559 8.26262 56.7895 4.6616 61.1733L6.97978 63.0776ZM19.6785 57.6559C23.6961 57.6559 26.9331 58.5309 29.4782 60.1852L31.1131 57.6698C27.973 55.6287 24.1319 54.6559 19.6785 54.6559L19.6785 57.6559ZM29.4813 60.1872C32.0045 61.8184 34.0803 64.3397 35.665 67.8582L38.4004 66.6262C36.6307 62.697 34.2152 59.6752 31.11 57.6678L29.4813 60.1872ZM37.7345 68.5679L63.1049 55.1365L61.7012 52.4851L36.3308 65.9165L37.7345 68.5679ZM62.4031 55.3108L63 55.3108L63 52.3108L62.4031 52.3108L62.4031 55.3108ZM61.5 53.8108L61.5 67.5407L64.5 67.5407L64.5 53.8108L61.5 53.8108ZM62.3162 66.2056L39.5894 77.8461L40.9571 80.5162L63.6838 68.8757L62.3162 66.2056ZM31.4119 89.372L31.4119 79.0533L28.4119 79.0533L28.4119 89.372L31.4119 89.372ZM31.4119 79.0533C31.4119 75.5959 30.537 72.6986 28.5857 70.5762L26.3772 72.6066C27.6665 74.009 28.4119 76.0863 28.4119 79.0533L31.4119 79.0533ZM28.5769 70.5667C26.591 68.4438 23.9026 67.4478 20.7018 67.4478L20.7018 70.4478C23.2431 70.4478 25.0745 71.2141 26.3861 72.6161L28.5769 70.5667ZM20.7018 67.4478C17.475 67.4478 14.755 68.3814 12.7336 70.4028L14.8549 72.5241C16.1878 71.1913 18.0728 70.4478 20.7018 70.4478L20.7018 67.4478ZM12.7427 70.3938C10.6687 72.4326 9.77853 75.4402 9.77853 79.0959L12.7785 79.0959C12.7785 75.8724 13.5655 73.7917 14.8458 72.5331L12.7427 70.3938ZM9.77853 79.0959L9.77853 89.372L12.7785 89.372L12.7785 79.0959L9.77853 79.0959ZM11.2785 90.872L29.9119 90.872L29.9119 87.872L11.2785 87.872L11.2785 90.872ZM28.8886 27.0333L29.5141 28.3967L32.4755 27.0378L29.5175 25.6716L28.8886 27.0333ZM0.917174 14.1136L-0.582826 14.1136L-0.582826 15.0731L0.288192 15.4753L0.917174 14.1136ZM0.917174 0.12793L1.60404 -1.20557L-0.582826 -2.33203L-0.582826 0.12793L0.917174 0.12793ZM40.4865 20.5095L39.7996 21.843L40.1228 22.0095L40.4865 22.0095L40.4865 20.5095ZM63 20.5095L64.5 20.5095L64.5 19.0095L63 19.0095L63 20.5095ZM63 33.5145L63 35.0145L64.5 35.0145L64.5 33.5145L63 33.5145ZM40.4865 33.5145L40.4865 32.0145L40.1228 32.0145L39.7996 32.181L40.4865 33.5145ZM0.917174 53.8961L-0.582826 53.8961L-0.582826 56.356L1.60404 55.2296L0.917174 53.8961ZM0.917174 39.8677L0.291619 38.5044L-0.582826 38.9056L-0.582826 39.8677L0.917174 39.8677ZM29.5175 25.6716L1.54616 12.7518L0.288192 15.4753L28.2596 28.3951L29.5175 25.6716ZM2.41717 14.1136L2.41717 0.12793L-0.582826 0.12793L-0.582826 14.1136L2.41717 14.1136ZM0.230309 1.46143L39.7996 21.843L41.1733 19.176L1.60404 -1.20557L0.230309 1.46143ZM40.4865 22.0095L63 22.0095L63 19.0095L40.4865 19.0095L40.4865 22.0095ZM61.5 20.5095L61.5 33.5145L64.5 33.5145L64.5 20.5095L61.5 20.5095ZM63 32.0145L40.4865 32.0145L40.4865 35.0145L63 35.0145L63 32.0145ZM39.7996 32.181L0.230309 52.5626L1.60404 55.2296L41.1733 34.848L39.7996 32.181ZM2.41717 53.8961L2.41717 39.8677L-0.582826 39.8677L-0.582826 53.8961L2.41717 53.8961ZM1.54273 41.2311L29.5141 28.3967L28.263 25.67L0.291619 38.5044L1.54273 41.2311Z" fill="#D46918"/>
</svg>
