<svg width="165" height="37" viewBox="0 0 165 37" fill="none" xmlns="http://www.w3.org/2000/svg">
<path d="M30.3389 14.3886C27.359 14.36 24.9384 16.4968 24.9088 19.5767C24.8793 22.6566 27.2584 24.8395 30.2383 24.8681C33.1782 24.8963 35.5988 22.7594 35.6283 19.6796C35.6579 16.5997 33.2787 14.4168 30.3389 14.3886ZM30.256 23.0282C28.416 23.0105 26.929 21.6562 26.9487 19.5963C26.9685 17.5364 28.4813 16.2108 30.3212 16.2285C32.1211 16.2458 33.6282 17.6003 33.6084 19.6602C33.5887 21.7201 32.0559 23.0454 30.256 23.0282ZM47.2234 14.8306L45.1435 14.8107L45.0995 19.3904C45.0755 21.8903 43.9041 23.0791 42.1241 23.0621C40.6842 23.0482 39.7548 21.9393 39.7704 20.3193L39.8237 14.7596L37.7438 14.7396L37.6864 20.7194C37.6624 23.2193 39.2259 24.9543 41.6257 24.9774C43.0857 24.9914 44.2508 24.4625 45.06 23.5103L45.0483 24.7302L47.1282 24.7502L47.2234 14.8306ZM56.2464 14.7972C54.4665 14.7801 53.2185 15.6082 52.4459 16.9208L52.4655 14.8809L50.3856 14.861L50.2904 24.7805L52.3703 24.8005L52.4039 21.3006C52.43 18.5807 53.6868 16.8327 56.2067 16.8569C56.3867 16.8586 56.6267 16.8609 56.7865 16.8825L56.9456 14.8839C56.6864 14.8014 56.4864 14.7995 56.2464 14.7972ZM62.8152 22.2406C63.0154 24.3026 64.8669 25.2004 66.8668 25.2196C69.1867 25.2418 70.7975 24.1172 70.8171 22.0773C70.8303 20.6974 70.059 19.79 68.4631 19.3546L66.5282 18.816C65.6503 18.5876 65.2338 18.2236 65.24 17.5836C65.2473 16.8237 65.852 16.3294 66.812 16.3386C67.9719 16.3498 68.6048 17.0959 68.7558 18.0374L70.7397 17.6364C70.4157 15.9732 68.9872 14.7594 66.8273 14.7387C64.6074 14.7174 63.1554 15.9635 63.1379 17.7835C63.1239 19.2434 64.0558 20.0924 65.6519 20.5077L67.7066 21.0674C68.4847 21.2749 68.781 21.6578 68.7757 22.2178C68.7682 22.9977 68.1424 23.5917 67.0025 23.5808C65.9225 23.5704 65.048 23.002 64.9193 21.8207L62.8152 22.2406ZM82.313 19.9076C82.2416 16.9267 80.0613 14.8657 77.4014 14.8402C74.6015 14.8133 72.2415 16.8908 72.2111 20.0506C72.181 23.1905 74.5209 25.293 77.2208 25.3189C79.4207 25.34 81.1906 24.317 82.0305 22.2449L80.1745 21.8271C79.4611 23.2203 78.338 23.5296 77.2381 23.519C75.7782 23.505 74.4488 22.3922 74.2664 20.5504L82.3061 20.6275L82.313 19.9076ZM77.3837 16.6801C78.7437 16.6932 79.8759 17.5041 80.1804 19.1271L74.3406 19.071C74.676 17.4742 76.0838 16.6676 77.3837 16.6801ZM90.5222 15.1261C88.7423 15.109 87.4943 15.9371 86.7217 17.2497L86.7412 15.2098L84.6613 15.1899L84.5661 25.1094L86.646 25.1294L86.6796 21.6295C86.7057 18.9097 87.9626 17.1616 90.4824 17.1858C90.6624 17.1875 90.9024 17.1898 91.0622 17.2114L91.2214 15.2128C90.9622 15.1303 90.7622 15.1284 90.5222 15.1261ZM102.739 15.3433L100.499 15.3218L97.1724 22.2702L93.9795 15.2593L91.7396 15.2378L96.344 25.2224L97.944 25.2378L102.739 15.3433ZM105.809 10.5526C105.029 10.5451 104.463 11.1597 104.457 11.8597C104.45 12.5796 105.004 13.125 105.784 13.1325C106.544 13.1398 107.11 12.6052 107.116 11.8852C107.123 11.1852 106.569 10.5599 105.809 10.5526ZM106.707 25.3219L106.803 15.4023L104.723 15.3824L104.628 25.3019L106.707 25.3219ZM114.509 23.7967C112.589 23.7783 111.223 22.3651 111.242 20.4052C111.26 18.4653 112.654 17.0586 114.574 17.077C115.994 17.0906 117.126 17.8815 117.532 19.3655L119.537 18.8047C118.898 16.6385 116.932 15.2195 114.592 15.1971C111.652 15.1689 109.231 17.3057 109.202 20.3856C109.172 23.4654 111.552 25.6284 114.491 25.6566C116.871 25.6794 118.905 24.2789 119.506 22.1045L117.591 21.5861C117.077 23.0613 115.929 23.8103 114.509 23.7967ZM130.963 20.3744C130.892 17.3936 128.711 15.3326 126.051 15.307C123.252 15.2802 120.892 17.3576 120.861 20.5175C120.831 23.6573 123.171 25.7599 125.871 25.7858C128.071 25.8069 129.841 24.7838 130.681 22.7118L128.825 22.294C128.111 23.6872 126.988 23.9964 125.888 23.9859C124.428 23.9719 123.099 22.8591 122.917 21.0172L130.956 21.0944L130.963 20.3744ZM126.034 17.147C127.394 17.16 128.526 17.9709 128.83 19.5939L122.991 19.5379C123.326 17.941 124.734 17.1345 126.034 17.147ZM132.402 22.9083C132.602 24.9703 134.453 25.8681 136.453 25.8873C138.773 25.9096 140.384 24.785 140.404 22.7451C140.417 21.3652 139.646 20.4577 138.05 20.0224L136.115 19.4838C135.237 19.2554 134.82 18.8913 134.827 18.2514C134.834 17.4914 135.439 16.9972 136.399 17.0064C137.559 17.0175 138.191 17.7636 138.342 18.7051L140.326 18.3042C140.002 16.641 138.574 15.4272 136.414 15.4065C134.194 15.3852 132.742 16.6313 132.725 18.4512C132.711 19.9111 133.642 20.7601 135.239 21.1755L137.293 21.7352C138.071 21.9427 138.368 22.3255 138.362 22.8855C138.355 23.6655 137.729 24.2595 136.589 24.2486C135.509 24.2382 134.635 23.6698 134.506 22.4885L132.402 22.9083Z" fill="#0D3475"/>
</svg>
