<svg width="185" height="554" viewBox="0 0 185 554" fill="none" xmlns="http://www.w3.org/2000/svg">
<path d="M177.101 387.165L175.826 387.955L175.828 387.959L177.101 387.165ZM177.143 414.753L178.422 415.536L177.143 414.753ZM166.569 424.133L167.219 425.485L167.223 425.483L166.569 424.133ZM150.707 427.502L150.707 429.002L150.714 429.002L150.707 427.502ZM131.519 424.218L130.875 425.573L130.878 425.575L131.519 424.218ZM120.817 414.88L122.093 414.093L122.092 414.09L120.817 414.88ZM120.817 387.293L122.089 388.087L122.096 388.076L120.817 387.293ZM131.519 377.955L132.157 379.313L132.167 379.308L131.519 377.955ZM132.67 411L133.531 409.772L133.526 409.768L132.67 411ZM147.338 414.539L147.332 416.039L147.338 416.039L147.338 414.539ZM165.332 391.088L166.181 389.851L166.176 389.848L165.332 391.088ZM150.579 387.591L150.585 386.091L150.579 386.091L150.579 387.591ZM150.366 376.129C156.301 376.129 161.434 377.178 165.804 379.228L167.078 376.512C162.237 374.241 156.654 373.129 150.366 373.129L150.366 376.129ZM165.804 379.228C170.165 381.274 173.488 384.183 175.826 387.955L178.376 386.375C175.71 382.073 171.926 378.786 167.078 376.512L165.804 379.228ZM175.828 387.959C178.166 391.705 179.353 396.03 179.353 400.98L182.353 400.98C182.353 395.527 181.038 390.641 178.373 386.371L175.828 387.959ZM179.353 400.98C179.353 405.873 178.18 410.189 175.864 413.969L178.422 415.536C181.052 411.243 182.353 406.377 182.353 400.98L179.353 400.98ZM175.864 413.969C173.552 417.742 170.253 420.681 165.915 422.783L167.223 425.483C172.037 423.15 175.788 419.836 178.422 415.536L175.864 413.969ZM165.918 422.782C161.545 424.887 156.483 425.974 150.7 426.002L150.714 429.002C156.869 428.972 162.382 427.814 167.219 425.485L165.918 422.782ZM150.707 426.002L147.637 426.002L147.637 429.002L150.707 429.002L150.707 426.002ZM147.637 426.002C141.705 426.002 136.558 424.94 132.16 422.862L130.878 425.575C135.747 427.875 141.346 429.002 147.637 429.002L147.637 426.002ZM132.163 422.864C127.736 420.758 124.4 417.831 122.093 414.093L119.54 415.668C122.179 419.946 125.978 423.244 130.875 425.573L132.163 422.864ZM122.092 414.09C119.75 410.312 118.564 405.986 118.564 401.065L115.564 401.065C115.564 406.492 116.88 411.376 119.542 415.671L122.092 414.09ZM118.564 401.065C118.564 396.145 119.75 391.834 122.089 388.087L119.544 386.499C116.88 390.767 115.564 395.639 115.564 401.065L118.564 401.065ZM122.096 388.076C124.402 384.312 127.736 381.388 132.157 379.313L130.882 376.597C125.979 378.899 122.177 382.201 119.538 386.509L122.096 388.076ZM132.167 379.308C136.564 377.204 141.694 376.129 147.594 376.129L147.594 373.129C141.328 373.129 135.741 374.272 130.872 376.602L132.167 379.308ZM147.594 376.129L150.366 376.129L150.366 373.129L147.594 373.129L147.594 376.129ZM147.551 386.091C140.902 386.091 135.602 387.275 131.862 389.853L133.564 392.323C136.589 390.238 141.182 389.091 147.551 389.091L147.551 386.091ZM131.862 389.853C128.049 392.48 126.139 396.281 126.139 401.065L129.139 401.065C129.139 397.208 130.612 394.357 133.564 392.323L131.862 389.853ZM126.139 401.065C126.139 405.819 128.033 409.604 131.814 412.232L133.526 409.768C130.599 407.734 129.139 404.896 129.139 401.065L126.139 401.065ZM131.809 412.229C135.494 414.811 140.739 416.01 147.332 416.039L147.345 413.039C141.032 413.012 136.499 411.852 133.531 409.772L131.809 412.229ZM147.338 416.039L150.366 416.039L150.366 413.039L147.338 413.039L147.338 416.039ZM150.366 416.039C156.86 416.039 162.112 414.85 165.951 412.291L164.287 409.795C161.133 411.898 156.55 413.039 150.366 413.039L150.366 416.039ZM165.951 412.291C169.885 409.668 171.864 405.834 171.864 400.98L168.864 400.98C168.864 404.881 167.346 407.756 164.287 409.795L165.951 412.291ZM171.864 400.98C171.864 396.226 169.969 392.451 166.181 389.851L164.483 392.324C167.404 394.329 168.864 397.15 168.864 400.98L171.864 400.98ZM166.176 389.848C162.442 387.306 157.178 386.12 150.585 386.091L150.572 389.091C156.885 389.119 161.457 390.265 164.488 392.328L166.176 389.848ZM150.579 386.091L147.551 386.091L147.551 389.091L150.579 389.091L150.579 386.091ZM117.917 318.345L117.917 316.845L116.417 316.845L116.417 318.345L117.917 318.345ZM174.926 324.741L173.826 325.761L173.829 325.764L174.926 324.741ZM159.277 365.931L159.277 367.431L159.287 367.431L159.296 367.43L159.277 365.931ZM117.917 365.931L116.417 365.931L116.417 367.431L117.917 367.431L117.917 365.931ZM117.917 353.139L117.917 351.639L116.417 351.639L116.417 353.139L117.917 353.139ZM167.805 350.239L168.882 351.284L168.889 351.276L168.897 351.268L167.805 350.239ZM159.235 331.18L159.257 329.68L159.246 329.68L159.235 329.68L159.235 331.18ZM117.917 331.18L116.417 331.18L116.417 332.68L117.917 332.68L117.917 331.18ZM117.917 319.845L158.808 319.845L158.808 316.845L117.917 316.845L117.917 319.845ZM158.808 319.845C165.261 319.845 170.207 321.855 173.826 325.761L176.026 323.721C171.743 319.099 165.943 316.845 158.808 316.845L158.808 319.845ZM173.829 325.764C177.456 329.653 179.353 335.048 179.353 342.138L182.353 342.138C182.353 334.503 180.298 328.3 176.023 323.718L173.829 325.764ZM179.353 342.138C179.353 349.117 177.511 354.482 173.982 358.403L176.211 360.41C180.357 355.804 182.353 349.656 182.353 342.138L179.353 342.138ZM173.982 358.403C170.472 362.303 165.626 364.35 159.258 364.431L159.296 367.43C166.346 367.341 172.046 365.039 176.211 360.41L173.982 358.403ZM159.277 364.431L117.917 364.431L117.917 367.431L159.277 367.431L159.277 364.431ZM119.417 365.931L119.417 353.139L116.417 353.139L116.417 365.931L119.417 365.931ZM117.917 354.639L158.894 354.639L158.894 351.639L117.917 351.639L117.917 354.639ZM158.894 354.639C163.16 354.639 166.607 353.628 168.882 351.284L166.729 349.195C165.251 350.717 162.757 351.639 158.894 351.639L158.894 354.639ZM168.897 351.268C171.074 348.957 172.077 345.85 172.077 342.138L169.077 342.138C169.077 345.305 168.232 347.598 166.713 349.211L168.897 351.268ZM172.077 342.138C172.077 338.289 171.061 335.126 168.783 332.926C166.519 330.738 163.253 329.74 159.257 329.68L159.212 332.679C162.778 332.733 165.183 333.618 166.699 335.083C168.202 336.535 169.077 338.795 169.077 342.138L172.077 342.138ZM159.235 329.68L117.917 329.68L117.917 332.68L159.235 332.68L159.235 329.68ZM119.417 331.18L119.417 318.345L116.417 318.345L116.417 331.18L119.417 331.18ZM157.273 284.873L156.589 283.538L155.773 283.956L155.773 284.873L157.273 284.873ZM157.273 295.064L155.773 295.064L155.773 296.564L157.273 296.564L157.273 295.064ZM180 295.064L181.5 295.064L181.5 293.564L180 293.564L180 295.064ZM180 307.856L180 309.356L181.5 309.356L181.5 307.856L180 307.856ZM117.917 307.856L116.417 307.856L116.417 309.356L117.917 309.356L117.917 307.856ZM122.821 267.817L121.662 266.865L122.821 267.817ZM147.296 264.62L146.478 265.877L146.481 265.879L147.296 264.62ZM154.033 272.934L152.665 273.55L153.322 275.008L154.734 274.26L154.033 272.934ZM179.403 259.503L179.403 258.003L179.03 258.003L178.701 258.177L179.403 259.503ZM180 259.503L181.5 259.503L181.5 258.003L180 258.003L180 259.503ZM180 273.233L180.684 274.568L181.5 274.15L181.5 273.233L180 273.233ZM146.912 295.064L146.912 296.564L148.412 296.564L148.412 295.064L146.912 295.064ZM144.481 277.283L145.586 276.268L145.577 276.259L144.481 277.283ZM130.794 277.155L131.846 278.225L131.855 278.216L130.794 277.155ZM128.279 295.064L126.779 295.064L126.779 296.564L128.279 296.564L128.279 295.064ZM155.773 284.873L155.773 295.064L158.773 295.064L158.773 284.873L155.773 284.873ZM157.273 296.564L180 296.564L180 293.564L157.273 293.564L157.273 296.564ZM178.5 295.064L178.5 307.856L181.5 307.856L181.5 295.064L178.5 295.064ZM180 306.356L117.917 306.356L117.917 309.356L180 309.356L180 306.356ZM119.417 307.856L119.417 284.788L116.417 284.788L116.417 307.856L119.417 307.856ZM119.417 284.788C119.417 277.657 121.008 272.387 123.98 268.77L121.662 266.865C118.095 271.207 116.417 277.251 116.417 284.788L119.417 284.788ZM123.98 268.77C126.917 265.194 131.078 263.348 136.678 263.348L136.678 260.348C130.34 260.348 125.263 262.482 121.662 266.865L123.98 268.77ZM136.678 263.348C140.696 263.348 143.933 264.223 146.478 265.877L148.113 263.362C144.973 261.321 141.132 260.348 136.678 260.348L136.678 263.348ZM146.481 265.879C149.005 267.51 151.08 270.032 152.665 273.55L155.4 272.318C153.631 268.389 151.215 265.367 148.11 263.36L146.481 265.879ZM154.734 274.26L180.105 260.828L178.701 258.177L153.331 271.609L154.734 274.26ZM179.403 261.003L180 261.003L180 258.003L179.403 258.003L179.403 261.003ZM178.5 259.503L178.5 273.233L181.5 273.233L181.5 259.503L178.5 259.503ZM179.316 271.898L156.589 283.538L157.957 286.208L180.684 274.568L179.316 271.898ZM148.412 295.064L148.412 284.745L145.412 284.745L145.412 295.064L148.412 295.064ZM148.412 284.745C148.412 281.288 147.537 278.391 145.586 276.268L143.377 278.299C144.666 279.701 145.412 281.778 145.412 284.745L148.412 284.745ZM145.577 276.259C143.591 274.136 140.903 273.14 137.702 273.14L137.702 276.14C140.243 276.14 142.074 276.906 143.386 278.308L145.577 276.259ZM137.702 273.14C134.475 273.14 131.755 274.073 129.734 276.095L131.855 278.216C133.188 276.883 135.073 276.14 137.702 276.14L137.702 273.14ZM129.743 276.086C127.669 278.125 126.779 281.132 126.779 284.788L129.779 284.788C129.779 281.564 130.566 279.484 131.846 278.225L129.743 276.086ZM126.779 284.788L126.779 295.064L129.779 295.064L129.779 284.788L126.779 284.788ZM128.279 296.564L146.912 296.564L146.912 293.564L128.279 293.564L128.279 296.564ZM128.279 186.163L129.779 186.163L129.779 184.663L128.279 184.663L128.279 186.163ZM128.279 205.18L126.779 205.18L126.779 206.68L128.279 206.68L128.279 205.18ZM180 205.18L181.5 205.18L181.5 203.68L180 203.68L180 205.18ZM180 217.972L180 219.472L181.5 219.472L181.5 217.972L180 217.972ZM128.279 217.972L128.279 216.472L126.779 216.472L126.779 217.972L128.279 217.972ZM128.279 236.733L128.279 238.233L129.779 238.233L129.779 236.733L128.279 236.733ZM117.917 236.733L116.417 236.733L116.417 238.233L117.917 238.233L117.917 236.733ZM117.917 186.163L117.917 184.663L116.417 184.663L116.417 186.163L117.917 186.163ZM126.779 186.163L126.779 205.18L129.779 205.18L129.779 186.163L126.779 186.163ZM128.279 206.68L180 206.68L180 203.68L128.279 203.68L128.279 206.68ZM178.5 205.18L178.5 217.972L181.5 217.972L181.5 205.18L178.5 205.18ZM180 216.472L128.279 216.472L128.279 219.472L180 219.472L180 216.472ZM126.779 217.972L126.779 236.733L129.779 236.733L129.779 217.972L126.779 217.972ZM128.279 235.233L117.917 235.233L117.917 238.233L128.279 238.233L128.279 235.233ZM119.417 236.733L119.417 186.163L116.417 186.163L116.417 236.733L119.417 236.733ZM117.917 187.663L128.279 187.663L128.279 184.663L117.917 184.663L117.917 187.663ZM153.095 141.477L154.595 141.477L154.595 139.977L153.095 139.977L153.095 141.477ZM153.095 166.037L151.595 166.037L151.595 167.537L153.095 167.537L153.095 166.037ZM169.724 166.037L169.724 167.537L171.224 167.537L171.224 166.037L169.724 166.037ZM169.724 137.213L169.724 135.713L168.224 135.713L168.224 137.213L169.724 137.213ZM180 137.213L181.5 137.213L181.5 135.713L180 135.713L180 137.213ZM180 178.829L180 180.329L181.5 180.329L181.5 178.829L180 178.829ZM117.917 178.829L116.417 178.829L116.417 180.329L117.917 180.329L117.917 178.829ZM117.917 137.299L117.917 135.799L116.417 135.799L116.417 137.299L117.917 137.299ZM128.279 137.299L129.779 137.299L129.779 135.799L128.279 135.799L128.279 137.299ZM128.279 166.037L126.779 166.037L126.779 167.537L128.279 167.537L128.279 166.037ZM143.074 166.037L143.074 167.537L144.574 167.537L144.574 166.037L143.074 166.037ZM143.074 141.477L143.074 139.977L141.574 139.977L141.574 141.477L143.074 141.477ZM151.595 141.477L151.595 166.037L154.595 166.037L154.595 141.477L151.595 141.477ZM153.095 167.537L169.724 167.537L169.724 164.537L153.095 164.537L153.095 167.537ZM171.224 166.037L171.224 137.213L168.224 137.213L168.224 166.037L171.224 166.037ZM169.724 138.713L180 138.713L180 135.713L169.724 135.713L169.724 138.713ZM178.5 137.213L178.5 178.829L181.5 178.829L181.5 137.213L178.5 137.213ZM180 177.329L117.917 177.329L117.917 180.329L180 180.329L180 177.329ZM119.417 178.829L119.417 137.299L116.417 137.299L116.417 178.829L119.417 178.829ZM117.917 138.799L128.279 138.799L128.279 135.799L117.917 135.799L117.917 138.799ZM126.779 137.299L126.779 166.037L129.779 166.037L129.779 137.299L126.779 137.299ZM128.279 167.537L143.074 167.537L143.074 164.537L128.279 164.537L128.279 167.537ZM144.574 166.037L144.574 141.477L141.574 141.477L141.574 166.037L144.574 166.037ZM143.074 142.977L153.095 142.977L153.095 139.977L143.074 139.977L143.074 142.977ZM167.208 94.6592L166.73 93.2376L165.708 93.5815L165.708 94.6592L167.208 94.6592ZM167.208 117.088L165.708 117.088L165.708 118.169L166.734 118.511L167.208 117.088ZM180 121.351L181.5 121.351L181.5 120.27L180.474 119.928L180 121.351ZM180 134.953L179.477 136.359L181.5 137.112L181.5 134.953L180 134.953ZM117.917 111.843L116.417 111.843L116.417 112.885L117.394 113.249L117.917 111.843ZM117.917 99.9892L117.391 98.5844L116.417 98.949L116.417 99.9892L117.917 99.9892ZM180 76.7507L181.5 76.7507L181.5 74.5876L179.474 75.3459L180 76.7507ZM180 90.3527L180.479 91.7743L181.5 91.4304L181.5 90.3527L180 90.3527ZM156.847 113.634L156.374 115.057L158.347 115.712L158.347 113.634L156.847 113.634ZM156.847 98.113L158.347 98.113L158.347 96.027L156.369 96.691L156.847 98.113ZM133.608 105.916L133.131 104.494L128.873 105.924L133.136 107.34L133.608 105.916ZM165.708 94.6592L165.708 117.088L168.708 117.088L168.708 94.6592L165.708 94.6592ZM166.734 118.511L179.526 122.774L180.474 119.928L167.683 115.664L166.734 118.511ZM178.5 121.351L178.5 134.953L181.5 134.953L181.5 121.351L178.5 121.351ZM180.523 133.548L118.44 110.437L117.394 113.249L179.477 136.359L180.523 133.548ZM119.417 111.843L119.417 99.9892L116.417 99.9892L116.417 111.843L119.417 111.843ZM118.443 101.394L180.526 78.1555L179.474 75.3459L117.391 98.5844L118.443 101.394ZM178.5 76.7507L178.5 90.3527L181.5 90.3527L181.5 76.7507L178.5 76.7507ZM179.521 88.9311L166.73 93.2376L167.687 96.0808L180.479 91.7743L179.521 88.9311ZM158.347 113.634L158.347 98.113L155.347 98.113L155.347 113.634L158.347 113.634ZM156.369 96.691L133.131 104.494L134.086 107.338L157.324 99.535L156.369 96.691ZM133.136 107.34L156.374 115.057L157.32 112.21L134.081 104.492L133.136 107.34ZM117.917 54.2372L117.416 52.8232L116.417 53.1771L116.417 54.2372L117.917 54.2372ZM162.944 38.2901L163.445 39.704L167.448 38.2863L163.443 36.8753L162.944 38.2901ZM117.917 22.4283L116.417 22.4283L116.417 23.4902L117.419 23.843L117.917 22.4283ZM117.917 5.62836L117.917 4.12836L116.417 4.12836L116.417 5.62836L117.917 5.62836ZM180 5.62836L181.5 5.62836L181.5 4.12836L180 4.12836L180 5.62836ZM180 18.4628L180 19.9628L181.5 19.9628L181.5 18.4628L180 18.4628ZM163.03 18.4628L162.964 19.9614L162.997 19.9628L163.03 19.9628L163.03 18.4628ZM133.736 17.1837L133.802 15.6851L133.226 18.5939L133.736 17.1837ZM180 33.9409L181.5 33.9409L181.5 32.8889L180.511 32.5305L180 33.9409ZM180 42.7246L180.51 44.1352L181.5 43.7772L181.5 42.7246L180 42.7246ZM133.779 59.4392L133.269 58.0286L133.845 60.9377L133.779 59.4392ZM163.03 58.16L163.03 56.66L162.997 56.66L162.964 56.6614L163.03 58.16ZM180 58.16L181.5 58.16L181.5 56.66L180 56.66L180 58.16ZM180 70.9518L180 72.4518L181.5 72.4518L181.5 70.9518L180 70.9518ZM117.917 70.9518L116.417 70.9518L116.417 72.4518L117.917 72.4518L117.917 70.9518ZM118.418 55.6511L163.445 39.704L162.444 36.8762L117.416 52.8232L118.418 55.6511ZM163.443 36.8753L118.416 21.0135L117.419 23.843L162.446 39.7049L163.443 36.8753ZM119.417 22.4283L119.417 5.62836L116.417 5.62836L116.417 22.4283L119.417 22.4283ZM117.917 7.12836L180 7.12836L180 4.12836L117.917 4.12836L117.917 7.12836ZM178.5 5.62836L178.5 18.4628L181.5 18.4628L181.5 5.62836L178.5 5.62836ZM180 16.9628L163.03 16.9628L163.03 19.9628L180 19.9628L180 16.9628ZM163.095 16.9642L133.802 15.6851L133.671 18.6822L162.964 19.9614L163.095 16.9642ZM133.226 18.5939L179.489 35.3512L180.511 32.5305L134.247 15.7733L133.226 18.5939ZM178.5 33.9409L178.5 42.7246L181.5 42.7246L181.5 33.9409L178.5 33.9409ZM179.49 41.314L133.269 58.0286L134.289 60.8498L180.51 44.1352L179.49 41.314ZM133.845 60.9377L163.095 59.6586L162.964 56.6614L133.713 57.9406L133.845 60.9377ZM163.03 59.66L180 59.66L180 56.66L163.03 56.66L163.03 59.66ZM178.5 58.16L178.5 70.9518L181.5 70.9518L181.5 58.16L178.5 58.16ZM180 69.4518L117.917 69.4518L117.917 72.4518L180 72.4518L180 69.4518ZM119.417 70.9518L119.417 54.2372L116.417 54.2372L116.417 70.9518L119.417 70.9518Z" fill="#D46918"/>
<g opacity="0.8">
<mask id="mask0" style="mask-type:alpha" maskUnits="userSpaceOnUse" x="56" y="3" width="62" height="230">
<path d="M117 232.53L117 233.971L118.441 233.971L118.441 232.53L117 232.53ZM57.3518 232.53L55.9106 232.53L55.9106 233.971L57.3518 233.971L57.3518 232.53ZM61.5304 195.168L62.6864 196.028L62.6905 196.023L61.5304 195.168ZM81.4405 191.808L82.2501 190.616L82.2433 190.611L81.4405 191.808ZM86.3156 198.076L84.9719 198.597L86.6129 202.829L87.7137 198.426L86.3156 198.076ZM90.9449 190.866L91.8118 192.017L91.8203 192.011L90.9449 190.866ZM117 209.342L118.441 209.342L118.441 209.331L117 209.342ZM91.0268 220.24L89.5856 220.24L89.5856 221.681L91.0268 221.681L91.0268 220.24ZM107.127 220.24L107.127 221.681L108.568 221.681L108.568 220.24L107.127 220.24ZM105.079 202.951L106.178 202.02L106.177 202.018L105.079 202.951ZM91.0268 208.974L89.5858 208.953L89.5856 208.963L89.5856 208.974L91.0268 208.974ZM82.3418 220.24L82.3418 221.681L83.7829 221.681L83.7829 220.24L82.3418 220.24ZM82.3418 211.145L83.7829 211.145L83.7829 211.132L83.7827 211.119L82.3418 211.145ZM69.1094 204.221L70.2502 205.102L70.2587 205.091L70.2671 205.08L69.1094 204.221ZM67.3068 220.24L65.8656 220.24L65.8656 221.681L67.3068 221.681L67.3068 220.24ZM117 231.089L57.3518 231.089L57.3518 233.971L117 233.971L117 231.089ZM58.793 232.53L58.793 211.636L55.9106 211.636L55.9106 232.53L58.793 232.53ZM58.793 211.636C58.793 204.549 60.1629 199.418 62.6864 196.028L60.3745 194.307C57.3265 198.401 55.9106 204.249 55.9106 211.636L58.793 211.636ZM62.6905 196.023C65.1334 192.709 68.7232 190.996 73.6977 190.996L73.6977 188.114C67.9661 188.114 63.4444 190.143 60.3704 194.312L62.6905 196.023ZM73.6977 190.996C76.3592 190.996 78.6556 191.676 80.6377 193.005L82.2433 190.611C79.7463 188.937 76.8809 188.114 73.6977 188.114L73.6977 190.996ZM80.6309 193.001C82.583 194.326 84.0316 196.172 84.9719 198.597L87.6593 197.555C86.5239 194.627 84.7224 192.295 82.2501 190.616L80.6309 193.001ZM87.7137 198.426C88.4057 195.658 89.777 193.549 91.8117 192.017L90.078 189.715C87.4698 191.679 85.7549 194.377 84.9174 197.727L87.7137 198.426ZM91.8203 192.011C93.8538 190.456 96.3738 189.644 99.466 189.644L99.466 186.762C95.8397 186.762 92.6789 187.726 90.0694 189.721L91.8203 192.011ZM99.466 189.644C104.871 189.644 108.756 191.352 111.372 194.597L113.616 192.788C110.332 188.715 105.531 186.762 99.466 186.762L99.466 189.644ZM111.372 194.597C114.044 197.913 115.506 202.766 115.559 209.354L118.441 209.331C118.385 202.372 116.842 196.792 113.616 192.788L111.372 194.597ZM115.559 209.342L115.559 232.53L118.441 232.53L118.441 209.342L115.559 209.342ZM91.0268 221.681L107.127 221.681L107.127 218.798L91.0268 218.798L91.0268 221.681ZM108.568 220.24L108.568 209.711L105.686 209.711L105.686 220.24L108.568 220.24ZM108.568 209.711C108.568 206.601 107.834 203.974 106.178 202.02L103.979 203.883C105.054 205.152 105.686 207.031 105.686 209.711L108.568 209.711ZM106.177 202.018C104.472 200.013 102.135 199.052 99.3431 199.052L99.3431 201.935C101.413 201.935 102.899 202.612 103.98 203.885L106.177 202.018ZM99.3431 199.052C96.3753 199.052 93.8853 199.823 92.1384 201.604C90.4002 203.377 89.6298 205.914 89.5858 208.953L92.4678 208.994C92.5057 206.379 93.1624 204.677 94.1963 203.622C95.2215 202.577 96.8487 201.935 99.3431 201.935L99.3431 199.052ZM89.5856 208.974L89.5856 220.24L92.468 220.24L92.468 208.974L89.5856 208.974ZM83.7829 220.24L83.7829 211.145L80.9006 211.145L80.9006 220.24L83.7829 220.24ZM83.7827 211.119C83.7255 207.87 83.0508 205.175 81.5329 203.272C79.9635 201.303 77.676 200.404 74.9267 200.404L74.9267 203.286C77.0116 203.286 78.3769 203.937 79.2792 205.069C80.233 206.265 80.8488 208.22 80.9008 211.17L83.7827 211.119ZM74.9267 200.404C71.9487 200.404 69.4907 201.287 67.9517 203.363L70.2671 205.08C71.0768 203.987 72.4971 203.286 74.9267 203.286L74.9267 200.404ZM67.9685 203.341C66.4751 205.275 65.8656 208.138 65.8656 211.636L68.748 211.636C68.748 208.361 69.3402 206.281 70.2502 205.102L67.9685 203.341ZM65.8656 211.636L65.8656 220.24L68.748 220.24L68.748 211.636L65.8656 211.636ZM67.3068 221.681L82.3418 221.681L82.3418 218.798L67.3068 218.798L67.3068 221.681ZM117 165.876L118.441 165.876L118.441 164.435L117 164.435L117 165.876ZM117 178.166L117 179.607L118.441 179.607L118.441 178.166L117 178.166ZM57.3518 178.166L55.9106 178.166L55.9106 179.607L57.3518 179.607L57.3518 178.166ZM57.3518 165.876L57.3518 164.435L55.9106 164.435L55.9106 165.876L57.3518 165.876ZM115.559 165.876L115.559 178.166L118.441 178.166L118.441 165.876L115.559 165.876ZM117 176.725L57.3518 176.725L57.3518 179.607L117 179.607L117 176.725ZM58.793 178.166L58.793 165.876L55.9106 165.876L55.9106 178.166L58.793 178.166ZM57.3518 167.317L117 167.317L117 164.435L57.3518 164.435L57.3518 167.317ZM95.1645 132.365L94.5075 131.082L93.7233 131.484L93.7233 132.365L95.1645 132.365ZM95.1645 142.156L93.7233 142.156L93.7233 143.597L95.1645 143.597L95.1645 142.156ZM117 142.156L118.441 142.156L118.441 140.715L117 140.715L117 142.156ZM117 154.446L117 155.887L118.441 155.887L118.441 154.446L117 154.446ZM57.3518 154.446L55.9106 154.446L55.9106 155.887L57.3518 155.887L57.3518 154.446ZM85.5782 112.906L84.7927 114.114L84.7958 114.116L85.5782 112.906ZM92.051 120.894L90.7369 121.486L91.3677 122.887L92.7253 122.168L92.051 120.894ZM116.426 107.989L116.426 106.548L116.069 106.548L115.752 106.716L116.426 107.989ZM117 107.989L118.441 107.989L118.441 106.548L117 106.548L117 107.989ZM117 121.181L117.657 122.464L118.441 122.062L118.441 121.181L117 121.181ZM85.2095 142.156L85.2095 143.597L86.6506 143.597L86.6506 142.156L85.2095 142.156ZM82.8743 125.073L83.9353 124.097L83.9268 124.088L82.8743 125.073ZM69.7239 124.95L70.7342 125.978L70.7429 125.969L69.7239 124.95ZM67.3068 142.156L65.8656 142.156L65.8656 143.597L67.3068 143.597L67.3068 142.156ZM93.7233 132.365L93.7233 142.156L96.6057 142.156L96.6057 132.365L93.7233 132.365ZM95.1645 143.597L117 143.597L117 140.715L95.1645 140.715L95.1645 143.597ZM115.559 142.156L115.559 154.446L118.441 154.446L118.441 142.156L115.559 142.156ZM117 153.005L57.3518 153.005L57.3518 155.887L117 155.887L117 153.005ZM58.793 154.446L58.793 132.283L55.9106 132.283L55.9106 154.446L58.793 154.446ZM58.793 132.283C58.793 125.432 60.3215 120.369 63.1767 116.893L60.9494 115.063C57.5229 119.235 55.9106 125.042 55.9106 132.283L58.793 132.283ZM63.1767 116.893C65.9985 113.458 69.9965 111.684 75.3773 111.684L75.3773 108.801C69.2874 108.801 64.4092 110.851 60.9494 115.063L63.1767 116.893ZM75.3773 111.684C79.2374 111.684 82.3475 112.524 84.7928 114.114L86.3636 111.697C83.3466 109.736 79.6561 108.801 75.3773 108.801L75.3773 111.684ZM84.7958 114.116C87.22 115.683 89.2144 118.105 90.7369 121.486L93.365 120.302C91.6648 116.527 89.344 113.624 86.3606 111.695L84.7958 114.116ZM92.7253 122.168L117.101 109.263L115.752 106.716L91.3767 119.62L92.7253 122.168ZM116.426 109.431L117 109.431L117 106.548L116.426 106.548L116.426 109.431ZM115.559 107.989L115.559 121.181L118.441 121.181L118.441 107.989L115.559 107.989ZM116.343 119.898L94.5075 131.082L95.8215 133.648L117.657 122.464L116.343 119.898ZM86.6506 142.156L86.6506 132.242L83.7683 132.242L83.7683 142.156L86.6506 142.156ZM86.6506 132.242C86.6506 128.92 85.8101 126.137 83.9353 124.097L81.8134 126.048C83.0521 127.396 83.7683 129.391 83.7683 132.242L86.6506 132.242ZM83.9268 124.088C82.0188 122.049 79.4359 121.092 76.3606 121.092L76.3606 123.974C78.8022 123.974 80.5617 124.71 81.8219 126.057L83.9268 124.088ZM76.3606 121.092C73.2603 121.092 70.647 121.989 68.7048 123.931L70.7429 125.969C72.0235 124.688 73.8347 123.974 76.3606 123.974L76.3606 121.092ZM68.7136 123.922C66.7209 125.881 65.8656 128.771 65.8656 132.283L68.748 132.283C68.748 129.186 69.5041 127.187 70.7342 125.978L68.7136 123.922ZM65.8656 132.283L65.8656 142.156L68.748 142.156L68.748 132.283L65.8656 132.283ZM67.3068 143.597L85.2095 143.597L85.2095 140.715L67.3068 140.715L67.3068 143.597ZM117 100.861L117 102.302L118.441 102.302L118.441 100.861L117 100.861ZM57.3518 100.861L55.9106 100.861L55.9106 102.302L57.3518 102.302L57.3518 100.861ZM60.9159 68.4562L62.1647 69.1757L62.1703 69.1658L60.9159 68.4562ZM70.9939 58.7469L71.67 60.0197L71.6733 60.0179L70.9939 58.7469ZM103.358 58.706L102.681 59.9785L102.688 59.9818L103.358 58.706ZM117 82.385L118.441 82.385L118.441 82.3775L117 82.385ZM67.3068 88.571L65.8656 88.571L65.8656 90.0122L67.3068 90.0122L67.3068 88.571ZM107.127 88.571L107.127 90.0122L108.568 90.0122L108.568 88.571L107.127 88.571ZM88.9375 67.7188L88.951 66.2776L88.9375 66.2776L88.9375 67.7188ZM72.018 71.4877L72.9183 72.6131L72.9231 72.6093L72.018 71.4877ZM117 99.42L57.3518 99.42L57.3518 102.302L117 102.302L117 99.42ZM58.793 100.861L58.793 82.5079L55.9106 82.5079L55.9106 100.861L58.793 100.861ZM58.793 82.5079C58.793 77.4903 59.9272 73.0591 62.1647 69.1756L59.6672 67.7367C57.1525 72.1013 55.9106 77.0379 55.9106 82.5079L58.793 82.5079ZM62.1703 69.1658C64.3786 65.2627 67.533 62.2174 71.67 60.0197L70.3177 57.4742C65.715 59.9194 62.1508 63.347 59.6616 67.7465L62.1703 69.1658ZM71.6733 60.0179C75.7816 57.8216 80.4865 56.7059 85.824 56.7059L85.824 53.8236C80.073 53.8236 74.8911 55.0293 70.3144 57.476L71.6733 60.0179ZM85.824 56.7059L88.5688 56.7059L88.5688 53.8236L85.824 53.8236L85.824 56.7059ZM88.5688 56.7059C93.9092 56.7059 98.6011 57.8092 102.681 59.9785L104.034 57.4335C99.4844 55.0144 94.3168 53.8236 88.5688 53.8236L88.5688 56.7059ZM102.688 59.9818C106.765 62.1237 109.907 65.1407 112.144 69.0492L114.646 67.6174C112.131 63.2232 108.581 59.822 104.028 57.4301L102.688 59.9818ZM112.144 69.0492C114.386 72.9655 115.533 77.4015 115.559 82.3925L118.441 82.3775C118.413 76.9355 117.156 72.0037 114.646 67.6174L112.144 69.0492ZM115.559 82.385L115.559 100.861L118.441 100.861L118.441 82.385L115.559 82.385ZM67.3068 90.0122L107.127 90.0122L107.127 87.1299L67.3068 87.1299L67.3068 90.0122ZM108.568 88.571L108.568 82.6308L105.686 82.6308L105.686 88.571L108.568 88.571ZM108.568 82.6308C108.568 77.4808 106.867 73.3566 103.322 70.49L101.509 72.7312C104.246 74.9446 105.686 78.1672 105.686 82.6308L108.568 82.6308ZM103.322 70.49C99.8368 67.6717 94.9798 66.334 88.951 66.2776L88.924 69.1599C94.5845 69.2128 98.7129 70.4697 101.509 72.7312L103.322 70.49ZM88.9375 66.2776L85.783 66.2776L85.783 69.1599L88.9375 69.1599L88.9375 66.2776ZM85.783 66.2776C79.5527 66.2776 74.5855 67.5638 71.113 70.3662L72.9231 72.6093C75.6776 70.3864 79.8871 69.1599 85.783 69.1599L85.783 66.2776ZM71.1177 70.3624C67.5651 73.2045 65.8656 77.3341 65.8656 82.5079L68.748 82.5079C68.748 78.0134 70.1893 74.7963 72.9183 72.6131L71.1177 70.3624ZM65.8656 82.5079L65.8656 88.571L68.748 88.571L68.748 82.5079L65.8656 82.5079ZM96.0248 17.8207L97.1685 18.6976L97.1732 18.6915L97.1777 18.6854L96.0248 17.8207ZM92.092 26.6696L93.4618 27.1175L93.4644 27.1095L92.092 26.6696ZM87.9952 36.7885L89.2632 37.4736L89.2642 37.4718L87.9952 36.7885ZM64.603 44.2446L63.7606 45.4139L63.7629 45.4156L64.603 44.2446ZM58.6627 36.4198L57.3321 36.9734L57.3337 36.9772L58.6627 36.4198ZM58.8676 13.5602L60.1733 14.1702L60.1774 14.1614L58.8676 13.5602ZM65.3814 5.81735L66.1672 7.02545L66.1754 7.02007L65.3814 5.81735ZM74.9677 3.03159L76.4089 3.03159L76.4089 1.59041L74.9677 1.59041L74.9677 3.03159ZM74.9677 15.3217L74.9677 16.7629L76.4089 16.7629L76.4089 15.3217L74.9677 15.3217ZM68.6178 17.9027L69.695 18.8602L69.7034 18.8505L68.6178 17.9027ZM68.2491 32.1592L69.3997 31.2915L69.3952 31.2856L69.3907 31.2796L68.2491 32.1592ZM78.1221 31.7496L79.3161 32.5567L79.3213 32.549L78.1221 31.7496ZM81.8092 23.1055L83.1888 23.5224L83.1893 23.5206L81.8092 23.1055ZM113.436 8.88989L114.59 8.02646L114.586 8.02133L113.436 8.88989ZM115.32 37.1982L116.635 37.7888L116.638 37.7809L115.32 37.1982ZM108.397 45.8423L109.201 47.038L109.209 47.0328L108.397 45.8423ZM98.237 48.7919L96.7959 48.7919L96.7959 50.2331L98.237 50.2331L98.237 48.7919ZM98.237 36.4608L98.237 35.0196L96.7959 35.0196L96.7959 36.4608L98.237 36.4608ZM106.349 17.8207L107.52 16.9812L107.515 16.9748L107.511 16.9685L106.349 17.8207ZM101.351 13.9215C98.6446 13.9215 96.4121 14.9024 94.8719 16.956L97.1777 18.6854C98.0956 17.4617 99.4135 16.8039 101.351 16.8039L101.351 13.9215ZM94.8811 16.9439C93.4622 18.7946 92.0907 21.9519 90.7196 26.2298L93.4644 27.1095C94.8244 22.8662 96.0748 20.1242 97.1685 18.6976L94.8811 16.9439ZM90.7221 26.2218C89.3423 30.4425 88.0076 33.7258 86.7263 36.1053L89.2642 37.4718C90.6594 34.8806 92.0558 31.418 93.4618 27.1175L90.7221 26.2218ZM86.7273 36.1034C83.2473 42.544 78.7405 45.5072 73.2061 45.5072L73.2061 48.3896C80.0711 48.3896 85.4237 44.5795 89.2632 37.4736L86.7273 36.1034ZM73.2061 45.5072C70.2712 45.5072 67.7 44.6927 65.4431 43.0735L63.7629 45.4156C66.5312 47.4015 69.6955 48.3896 73.2061 48.3896L73.2061 45.5072ZM65.4454 43.0752C63.1558 41.4258 61.3273 39.0471 59.9918 35.8625L57.3337 36.9772C58.8386 40.5658 60.9702 43.4036 63.7606 45.4139L65.4454 43.0752ZM59.9934 35.8663C58.656 32.6514 57.9736 29.0196 57.9736 24.949L55.0913 24.949C55.0913 29.345 55.8291 33.3604 57.3321 36.9734L59.9934 35.8663ZM57.9736 24.949C57.9736 20.866 58.7188 17.2832 60.1733 14.1702L57.5619 12.9501C55.9028 16.5011 55.0913 20.5109 55.0913 24.949L57.9736 24.949ZM60.1774 14.1614C61.604 11.0533 63.6036 8.69298 66.1672 7.02542L64.5955 4.60927C61.5329 6.60146 59.1901 9.40294 57.5578 12.9589L60.1774 14.1614ZM66.1754 7.02007C68.7381 5.32817 71.654 4.47276 74.9677 4.47276L74.9677 1.59041C71.1258 1.59041 67.6508 2.59218 64.5873 4.61464L66.1754 7.02007ZM73.5265 3.03159L73.5265 15.3217L76.4089 15.3217L76.4089 3.03159L73.5265 3.03159ZM74.9677 13.8806C71.9096 13.8806 69.3616 14.8593 67.5321 16.9549L69.7034 18.8505C70.8782 17.5048 72.5634 16.7629 74.9677 16.7629L74.9677 13.8806ZM67.5406 16.9452C65.7048 19.0105 64.8824 21.813 64.8824 25.1539L67.7648 25.1539C67.7648 22.2677 68.4718 20.2361 69.6949 18.8601L67.5406 16.9452ZM64.8824 25.1539C64.8824 28.3439 65.5618 31.0328 67.1074 33.0388L69.3907 31.2796C68.369 29.9537 67.7648 27.9724 67.7648 25.1539L64.8824 25.1539ZM67.0984 33.027C68.6253 35.0518 70.7163 36.0994 73.2471 36.0994L73.2471 33.2171C71.6265 33.2171 70.3854 32.5986 69.3997 31.2915L67.0984 33.027ZM73.2471 36.0994C75.7679 36.0994 77.8006 34.7984 79.3161 32.5567L76.9282 30.9424C75.8218 32.579 74.6044 33.2171 73.2471 33.2171L73.2471 36.0994ZM79.3213 32.549C80.7462 30.4116 82.0244 27.3757 83.1888 23.5224L80.4296 22.6886C79.2998 26.4279 78.12 29.1547 76.923 30.9501L79.3213 32.549ZM83.1893 23.5206C85.2632 16.6256 87.7861 11.7864 90.6661 8.83049L88.6017 6.819C85.2548 10.254 82.5612 15.6019 80.4291 22.6904L83.1893 23.5206ZM90.6661 8.83049C93.4963 5.92589 96.9967 4.47276 101.269 4.47276L101.269 1.59041C96.2547 1.59041 91.9986 3.33272 88.6017 6.819L90.6661 8.83049ZM101.269 4.47276C106.007 4.47276 109.625 6.23593 112.286 9.75845L114.586 8.02133C111.347 3.73276 106.854 1.59041 101.269 1.59041L101.269 4.47276ZM112.282 9.7533C114.962 13.3345 116.378 18.2551 116.378 24.6622L119.261 24.6622C119.261 17.8507 117.755 12.2563 114.59 8.02647L112.282 9.7533ZM116.378 24.6622C116.378 29.0728 115.578 33.0499 114.002 36.6156L116.638 37.7809C118.394 33.8085 119.261 29.4284 119.261 24.6622L116.378 24.6622ZM114.006 36.6076C112.403 40.1754 110.253 42.8315 107.585 44.6518L109.209 47.0328C112.386 44.8656 114.851 41.7589 116.635 37.7888L114.006 36.6076ZM107.592 44.6466C104.93 46.4381 101.829 47.3507 98.237 47.3507L98.237 50.2331C102.347 50.2331 106.019 49.1793 109.201 47.038L107.592 44.6466ZM99.6782 48.7919L99.6782 36.4608L96.7959 36.4608L96.7959 48.7919L99.6782 48.7919ZM98.237 37.902C101.824 37.902 104.754 36.818 106.747 34.436C108.699 32.1032 109.551 28.7609 109.551 24.6622L106.669 24.6622C106.669 28.4293 105.876 30.9862 104.537 32.5863C103.239 34.1371 101.232 35.0196 98.237 35.0196L98.237 37.902ZM109.551 24.6622C109.551 21.5685 108.933 18.9524 107.52 16.9812L105.177 18.6602C106.113 19.9664 106.669 21.9114 106.669 24.6622L109.551 24.6622ZM107.511 16.9685C106.022 14.9391 103.914 13.9215 101.351 13.9215L101.351 16.8039C103.048 16.8039 104.271 17.425 105.186 18.673L107.511 16.9685Z" fill="#D46918"/>
</mask>
<g mask="url(#mask0)">
<rect x="54" y="-24" width="53" height="278" fill="#E5954C"/>
</g>
</g>
<g opacity="0.5">
<mask id="mask1" style="mask-type:alpha" maskUnits="userSpaceOnUse" x="17" y="3" width="62" height="230">
<path d="M78 232.53L78 233.971L79.4412 233.971L79.4412 232.53L78 232.53ZM18.3518 232.53L16.9106 232.53L16.9106 233.971L18.3518 233.971L18.3518 232.53ZM22.5304 195.168L23.6864 196.028L23.6905 196.023L22.5304 195.168ZM42.4405 191.808L43.2501 190.616L43.2433 190.611L42.4405 191.808ZM47.3156 198.076L45.9719 198.597L47.6129 202.829L48.7137 198.426L47.3156 198.076ZM51.9449 190.866L52.8118 192.017L52.8203 192.011L51.9449 190.866ZM78 209.342L79.4412 209.342L79.4411 209.331L78 209.342ZM52.0268 220.24L50.5856 220.24L50.5856 221.681L52.0268 221.681L52.0268 220.24ZM68.1269 220.24L68.1269 221.681L69.5681 221.681L69.5681 220.24L68.1269 220.24ZM66.0786 202.951L67.178 202.02L67.1766 202.018L66.0786 202.951ZM52.0268 208.974L50.5858 208.953L50.5856 208.963L50.5856 208.974L52.0268 208.974ZM43.3418 220.24L43.3418 221.681L44.7829 221.681L44.7829 220.24L43.3418 220.24ZM43.3418 211.145L44.7829 211.145L44.7829 211.132L44.7827 211.119L43.3418 211.145ZM30.1094 204.221L31.2502 205.102L31.2587 205.091L31.2671 205.08L30.1094 204.221ZM28.3068 220.24L26.8656 220.24L26.8656 221.681L28.3068 221.681L28.3068 220.24ZM78 231.089L18.3518 231.089L18.3518 233.971L78 233.971L78 231.089ZM19.793 232.53L19.793 211.636L16.9106 211.636L16.9106 232.53L19.793 232.53ZM19.793 211.636C19.793 204.549 21.1629 199.418 23.6864 196.028L21.3745 194.307C18.3265 198.401 16.9106 204.249 16.9106 211.636L19.793 211.636ZM23.6905 196.023C26.1334 192.709 29.7232 190.996 34.6977 190.996L34.6977 188.114C28.9661 188.114 24.4444 190.143 21.3704 194.312L23.6905 196.023ZM34.6977 190.996C37.3592 190.996 39.6556 191.676 41.6377 193.005L43.2433 190.611C40.7463 188.937 37.8809 188.114 34.6977 188.114L34.6977 190.996ZM41.6309 193.001C43.583 194.326 45.0316 196.172 45.9719 198.597L48.6593 197.555C47.5239 194.627 45.7224 192.295 43.2501 190.616L41.6309 193.001ZM48.7137 198.426C49.4057 195.658 50.777 193.549 52.8117 192.017L51.078 189.715C48.4698 191.679 46.7549 194.377 45.9174 197.727L48.7137 198.426ZM52.8203 192.011C54.8538 190.456 57.3738 189.644 60.466 189.644L60.466 186.762C56.8397 186.762 53.6789 187.726 51.0694 189.721L52.8203 192.011ZM60.466 189.644C65.8714 189.644 69.7557 191.352 72.3715 194.597L74.6157 192.788C71.3323 188.715 66.5315 186.762 60.466 186.762L60.466 189.644ZM72.3715 194.597C75.0442 197.913 76.5057 202.766 76.5589 209.354L79.4411 209.331C79.385 202.372 77.8423 196.792 74.6157 192.788L72.3715 194.597ZM76.5588 209.342L76.5588 232.53L79.4412 232.53L79.4412 209.342L76.5588 209.342ZM52.0268 221.681L68.1269 221.681L68.1269 218.798L52.0268 218.798L52.0268 221.681ZM69.5681 220.24L69.5681 209.711L66.6857 209.711L66.6857 220.24L69.5681 220.24ZM69.5681 209.711C69.5681 206.601 68.834 203.974 67.178 202.02L64.9791 203.883C66.0542 205.152 66.6857 207.031 66.6857 209.711L69.5681 209.711ZM67.1766 202.018C65.4724 200.013 63.135 199.052 60.3431 199.052L60.3431 201.935C62.4127 201.935 63.899 202.612 64.9805 203.885L67.1766 202.018ZM60.3431 199.052C57.3753 199.052 54.8853 199.823 53.1384 201.604C51.4002 203.377 50.6298 205.914 50.5858 208.953L53.4678 208.994C53.5057 206.379 54.1624 204.677 55.1963 203.622C56.2215 202.577 57.8487 201.935 60.3431 201.935L60.3431 199.052ZM50.5856 208.974L50.5856 220.24L53.468 220.24L53.468 208.974L50.5856 208.974ZM44.7829 220.24L44.7829 211.145L41.9006 211.145L41.9006 220.24L44.7829 220.24ZM44.7827 211.119C44.7255 207.87 44.0508 205.175 42.5329 203.272C40.9635 201.303 38.676 200.404 35.9267 200.404L35.9267 203.286C38.0116 203.286 39.3769 203.937 40.2792 205.069C41.233 206.265 41.8488 208.22 41.9008 211.17L44.7827 211.119ZM35.9267 200.404C32.9487 200.404 30.4907 201.287 28.9517 203.363L31.2671 205.08C32.0768 203.987 33.4971 203.286 35.9267 203.286L35.9267 200.404ZM28.9685 203.341C27.4751 205.275 26.8656 208.138 26.8656 211.636L29.748 211.636C29.748 208.361 30.3402 206.281 31.2502 205.102L28.9685 203.341ZM26.8656 211.636L26.8656 220.24L29.748 220.24L29.748 211.636L26.8656 211.636ZM28.3068 221.681L43.3418 221.681L43.3418 218.798L28.3068 218.798L28.3068 221.681ZM78 165.876L79.4412 165.876L79.4412 164.435L78 164.435L78 165.876ZM78 178.166L78 179.607L79.4412 179.607L79.4412 178.166L78 178.166ZM18.3518 178.166L16.9106 178.166L16.9106 179.607L18.3518 179.607L18.3518 178.166ZM18.3518 165.876L18.3518 164.435L16.9106 164.435L16.9106 165.876L18.3518 165.876ZM76.5588 165.876L76.5588 178.166L79.4412 178.166L79.4412 165.876L76.5588 165.876ZM78 176.725L18.3518 176.725L18.3518 179.607L78 179.607L78 176.725ZM19.793 178.166L19.793 165.876L16.9106 165.876L16.9106 178.166L19.793 178.166ZM18.3518 167.317L78 167.317L78 164.435L18.3518 164.435L18.3518 167.317ZM56.1645 132.365L55.5075 131.082L54.7233 131.484L54.7233 132.365L56.1645 132.365ZM56.1645 142.156L54.7233 142.156L54.7233 143.597L56.1645 143.597L56.1645 142.156ZM78 142.156L79.4412 142.156L79.4412 140.715L78 140.715L78 142.156ZM78 154.446L78 155.887L79.4412 155.887L79.4412 154.446L78 154.446ZM18.3518 154.446L16.9106 154.446L16.9106 155.887L18.3518 155.887L18.3518 154.446ZM46.5782 112.906L45.7927 114.114L45.7958 114.116L46.5782 112.906ZM53.051 120.894L51.7369 121.486L52.3677 122.887L53.7253 122.168L53.051 120.894ZM77.4265 107.989L77.4265 106.548L77.0685 106.548L76.7522 106.716L77.4265 107.989ZM78 107.989L79.4412 107.989L79.4412 106.548L78 106.548L78 107.989ZM78 121.181L78.657 122.464L79.4412 122.062L79.4412 121.181L78 121.181ZM46.2095 142.156L46.2095 143.597L47.6506 143.597L47.6506 142.156L46.2095 142.156ZM43.8743 125.073L44.9353 124.097L44.9268 124.088L43.8743 125.073ZM30.7239 124.95L31.7342 125.978L31.7429 125.969L30.7239 124.95ZM28.3068 142.156L26.8656 142.156L26.8656 143.597L28.3068 143.597L28.3068 142.156ZM54.7233 132.365L54.7233 142.156L57.6057 142.156L57.6057 132.365L54.7233 132.365ZM56.1645 143.597L78 143.597L78 140.715L56.1645 140.715L56.1645 143.597ZM76.5588 142.156L76.5588 154.446L79.4412 154.446L79.4412 142.156L76.5588 142.156ZM78 153.005L18.3518 153.005L18.3518 155.887L78 155.887L78 153.005ZM19.793 154.446L19.793 132.283L16.9106 132.283L16.9106 154.446L19.793 154.446ZM19.793 132.283C19.793 125.432 21.3215 120.369 24.1767 116.893L21.9494 115.063C18.5229 119.235 16.9106 125.042 16.9106 132.283L19.793 132.283ZM24.1767 116.893C26.9985 113.458 30.9965 111.684 36.3773 111.684L36.3773 108.801C30.2874 108.801 25.4092 110.851 21.9494 115.063L24.1767 116.893ZM36.3773 111.684C40.2374 111.684 43.3475 112.524 45.7928 114.114L47.3636 111.697C44.3466 109.736 40.6561 108.801 36.3773 108.801L36.3773 111.684ZM45.7958 114.116C48.22 115.683 50.2144 118.105 51.7369 121.486L54.365 120.302C52.6648 116.527 50.344 113.624 47.3606 111.695L45.7958 114.116ZM53.7253 122.168L78.1008 109.263L76.7522 106.716L52.3767 119.62L53.7253 122.168ZM77.4265 109.431L78 109.431L78 106.548L77.4265 106.548L77.4265 109.431ZM76.5588 107.989L76.5588 121.181L79.4412 121.181L79.4412 107.989L76.5588 107.989ZM77.343 119.898L55.5075 131.082L56.8215 133.648L78.657 122.464L77.343 119.898ZM47.6506 142.156L47.6506 132.242L44.7683 132.242L44.7683 142.156L47.6506 142.156ZM47.6506 132.242C47.6506 128.92 46.8101 126.137 44.9353 124.097L42.8134 126.048C44.0521 127.396 44.7683 129.391 44.7683 132.242L47.6506 132.242ZM44.9268 124.088C43.0188 122.049 40.4359 121.092 37.3606 121.092L37.3606 123.974C39.8022 123.974 41.5617 124.71 42.8219 126.057L44.9268 124.088ZM37.3606 121.092C34.2603 121.092 31.647 121.989 29.7048 123.931L31.7429 125.969C33.0235 124.688 34.8347 123.974 37.3606 123.974L37.3606 121.092ZM29.7136 123.922C27.7209 125.881 26.8656 128.771 26.8656 132.283L29.748 132.283C29.748 129.186 30.5041 127.187 31.7342 125.978L29.7136 123.922ZM26.8656 132.283L26.8656 142.156L29.748 142.156L29.748 132.283L26.8656 132.283ZM28.3068 143.597L46.2095 143.597L46.2095 140.715L28.3068 140.715L28.3068 143.597ZM78 100.861L78 102.302L79.4412 102.302L79.4412 100.861L78 100.861ZM18.3518 100.861L16.9106 100.861L16.9106 102.302L18.3518 102.302L18.3518 100.861ZM21.9159 68.4562L23.1647 69.1757L23.1703 69.1658L21.9159 68.4562ZM31.9939 58.7469L32.67 60.0197L32.6733 60.0179L31.9939 58.7469ZM64.3579 58.706L63.6814 59.9785L63.6877 59.9818L64.3579 58.706ZM78 82.385L79.4412 82.385L79.4412 82.3775L78 82.385ZM28.3068 88.571L26.8656 88.571L26.8656 90.0122L28.3068 90.0122L28.3068 88.571ZM68.1269 88.571L68.1269 90.0122L69.5681 90.0122L69.5681 88.571L68.1269 88.571ZM49.9375 67.7188L49.951 66.2776L49.9375 66.2776L49.9375 67.7188ZM33.018 71.4877L33.9183 72.6131L33.9231 72.6093L33.018 71.4877ZM78 99.42L18.3518 99.42L18.3518 102.302L78 102.302L78 99.42ZM19.793 100.861L19.793 82.5079L16.9106 82.5079L16.9106 100.861L19.793 100.861ZM19.793 82.5079C19.793 77.4903 20.9272 73.0591 23.1647 69.1756L20.6672 67.7367C18.1525 72.1013 16.9106 77.0379 16.9106 82.5079L19.793 82.5079ZM23.1703 69.1658C25.3786 65.2627 28.533 62.2174 32.67 60.0197L31.3177 57.4742C26.715 59.9194 23.1508 63.347 20.6616 67.7465L23.1703 69.1658ZM32.6733 60.0179C36.7816 57.8216 41.4865 56.7059 46.824 56.7059L46.824 53.8236C41.073 53.8236 35.8911 55.0293 31.3144 57.476L32.6733 60.0179ZM46.824 56.7059L49.5688 56.7059L49.5688 53.8236L46.824 53.8236L46.824 56.7059ZM49.5688 56.7059C54.9092 56.7059 59.6011 57.8092 63.6814 59.9785L65.0345 57.4335C60.4844 55.0144 55.3168 53.8236 49.5688 53.8236L49.5688 56.7059ZM63.6877 59.9818C67.7649 62.1237 70.907 65.1407 73.1441 69.0492L75.6457 67.6174C73.1306 63.2232 69.5813 59.822 65.0282 57.4301L63.6877 59.9818ZM73.1441 69.0492C75.3857 72.9655 76.5327 77.4015 76.5588 82.3925L79.4412 82.3775C79.4127 76.9355 78.1563 72.0037 75.6457 67.6174L73.1441 69.0492ZM76.5588 82.385L76.5588 100.861L79.4412 100.861L79.4412 82.385L76.5588 82.385ZM28.3068 90.0122L68.1269 90.0122L68.1269 87.1299L28.3068 87.1299L28.3068 90.0122ZM69.5681 88.571L69.5681 82.6308L66.6857 82.6308L66.6857 88.571L69.5681 88.571ZM69.5681 82.6308C69.5681 77.4808 67.8666 73.3566 64.3219 70.49L62.5095 72.7312C65.2464 74.9446 66.6857 78.1672 66.6857 82.6308L69.5681 82.6308ZM64.3219 70.49C60.8368 67.6717 55.9798 66.334 49.951 66.2776L49.924 69.1599C55.5845 69.2128 59.7129 70.4697 62.5095 72.7312L64.3219 70.49ZM49.9375 66.2776L46.783 66.2776L46.783 69.1599L49.9375 69.1599L49.9375 66.2776ZM46.783 66.2776C40.5527 66.2776 35.5855 67.5638 32.113 70.3662L33.9231 72.6093C36.6776 70.3864 40.8871 69.1599 46.783 69.1599L46.783 66.2776ZM32.1177 70.3624C28.5651 73.2045 26.8656 77.3341 26.8656 82.5079L29.748 82.5079C29.748 78.0134 31.1893 74.7963 33.9183 72.6131L32.1177 70.3624ZM26.8656 82.5079L26.8656 88.571L29.748 88.571L29.748 82.5079L26.8656 82.5079ZM57.0248 17.8207L58.1685 18.6976L58.1732 18.6915L58.1777 18.6854L57.0248 17.8207ZM53.092 26.6696L54.4618 27.1175L54.4644 27.1095L53.092 26.6696ZM48.9952 36.7885L50.2632 37.4736L50.2642 37.4718L48.9952 36.7885ZM25.603 44.2446L24.7606 45.4139L24.7629 45.4156L25.603 44.2446ZM19.6627 36.4198L18.3321 36.9734L18.3337 36.9772L19.6627 36.4198ZM19.8676 13.5602L21.1733 14.1702L21.1774 14.1614L19.8676 13.5602ZM26.3814 5.81735L27.1672 7.02545L27.1754 7.02007L26.3814 5.81735ZM35.9677 3.03159L37.4089 3.03159L37.4089 1.59041L35.9677 1.59041L35.9677 3.03159ZM35.9677 15.3217L35.9677 16.7629L37.4089 16.7629L37.4089 15.3217L35.9677 15.3217ZM29.6178 17.9027L30.695 18.8602L30.7034 18.8505L29.6178 17.9027ZM29.2491 32.1592L30.3997 31.2915L30.3952 31.2856L30.3907 31.2796L29.2491 32.1592ZM39.1221 31.7496L40.3161 32.5567L40.3213 32.549L39.1221 31.7496ZM42.8092 23.1055L44.1888 23.5224L44.1893 23.5206L42.8092 23.1055ZM74.4359 8.88989L75.5898 8.02646L75.5859 8.02133L74.4359 8.88989ZM76.3203 37.1982L77.635 37.7888L77.6385 37.7809L76.3203 37.1982ZM69.3969 45.8423L70.2015 47.038L70.2091 47.0328L69.3969 45.8423ZM59.237 48.7919L57.7959 48.7919L57.7959 50.2331L59.237 50.2331L59.237 48.7919ZM59.237 36.4608L59.237 35.0196L57.7959 35.0196L57.7959 36.4608L59.237 36.4608ZM67.3485 17.8207L68.5199 16.9812L68.5154 16.9748L68.5107 16.9685L67.3485 17.8207ZM62.3505 13.9215C59.6446 13.9215 57.4121 14.9024 55.8719 16.956L58.1777 18.6854C59.0956 17.4617 60.4135 16.8039 62.3505 16.8039L62.3505 13.9215ZM55.8811 16.9439C54.4622 18.7946 53.0907 21.9519 51.7196 26.2298L54.4644 27.1095C55.8244 22.8662 57.0748 20.1242 58.1685 18.6976L55.8811 16.9439ZM51.7221 26.2218C50.3423 30.4425 49.0076 33.7258 47.7263 36.1053L50.2642 37.4718C51.6594 34.8806 53.0558 31.418 54.4618 27.1175L51.7221 26.2218ZM47.7273 36.1034C44.2473 42.544 39.7405 45.5072 34.2061 45.5072L34.2061 48.3896C41.0711 48.3896 46.4237 44.5795 50.2632 37.4736L47.7273 36.1034ZM34.2061 45.5072C31.2712 45.5072 28.7 44.6927 26.4431 43.0735L24.7629 45.4156C27.5312 47.4015 30.6955 48.3896 34.2061 48.3896L34.2061 45.5072ZM26.4454 43.0752C24.1558 41.4258 22.3273 39.0471 20.9918 35.8625L18.3337 36.9772C19.8386 40.5658 21.9702 43.4036 24.7606 45.4139L26.4454 43.0752ZM20.9934 35.8663C19.656 32.6514 18.9736 29.0196 18.9736 24.949L16.0913 24.949C16.0913 29.345 16.8291 33.3604 18.3321 36.9734L20.9934 35.8663ZM18.9736 24.949C18.9736 20.866 19.7188 17.2832 21.1733 14.1702L18.5619 12.9501C16.9028 16.5011 16.0913 20.5109 16.0913 24.949L18.9736 24.949ZM21.1774 14.1614C22.604 11.0533 24.6036 8.69298 27.1672 7.02542L25.5955 4.60927C22.5329 6.60146 20.1901 9.40294 18.5578 12.9589L21.1774 14.1614ZM27.1754 7.02007C29.7381 5.32817 32.654 4.47276 35.9677 4.47276L35.9677 1.59041C32.1258 1.59041 28.6508 2.59218 25.5873 4.61464L27.1754 7.02007ZM34.5265 3.03159L34.5265 15.3217L37.4089 15.3217L37.4089 3.03159L34.5265 3.03159ZM35.9677 13.8806C32.9096 13.8806 30.3616 14.8593 28.5321 16.9549L30.7034 18.8505C31.8782 17.5048 33.5634 16.7629 35.9677 16.7629L35.9677 13.8806ZM28.5406 16.9452C26.7048 19.0105 25.8824 21.813 25.8824 25.1539L28.7648 25.1539C28.7648 22.2677 29.4718 20.2361 30.6949 18.8601L28.5406 16.9452ZM25.8824 25.1539C25.8824 28.3439 26.5618 31.0328 28.1074 33.0388L30.3907 31.2796C29.369 29.9537 28.7648 27.9724 28.7648 25.1539L25.8824 25.1539ZM28.0984 33.027C29.6253 35.0518 31.7163 36.0994 34.2471 36.0994L34.2471 33.2171C32.6265 33.2171 31.3854 32.5986 30.3997 31.2915L28.0984 33.027ZM34.2471 36.0994C36.7679 36.0994 38.8006 34.7984 40.3161 32.5567L37.9282 30.9424C36.8218 32.579 35.6044 33.2171 34.2471 33.2171L34.2471 36.0994ZM40.3213 32.549C41.7462 30.4116 43.0244 27.3757 44.1888 23.5224L41.4296 22.6886C40.2998 26.4279 39.12 29.1547 37.923 30.9501L40.3213 32.549ZM44.1893 23.5206C46.2632 16.6256 48.7861 11.7864 51.6661 8.83049L49.6017 6.819C46.2548 10.254 43.5612 15.6019 41.4291 22.6904L44.1893 23.5206ZM51.6661 8.83049C54.4963 5.92589 57.9967 4.47276 62.2686 4.47276L62.2686 1.59041C57.2547 1.59041 52.9986 3.33272 49.6017 6.819L51.6661 8.83049ZM62.2686 4.47276C67.0074 4.47276 70.6255 6.23593 73.2858 9.75845L75.5859 8.02133C72.347 3.73276 67.8536 1.59041 62.2686 1.59041L62.2686 4.47276ZM73.2819 9.7533C75.9616 13.3345 77.3782 18.2551 77.3782 24.6622L80.2605 24.6622C80.2605 17.8507 78.7548 12.2563 75.5898 8.02647L73.2819 9.7533ZM77.3782 24.6622C77.3782 29.0728 76.5783 33.0499 75.0022 36.6156L77.6385 37.7809C79.3944 33.8085 80.2605 29.4284 80.2605 24.6622L77.3782 24.6622ZM75.0058 36.6076C73.4028 40.1754 71.2528 42.8315 68.5847 44.6518L70.2091 47.0328C73.3857 44.8656 75.8513 41.7589 77.6349 37.7888L75.0058 36.6076ZM68.5923 44.6466C65.93 46.4381 62.8292 47.3507 59.237 47.3507L59.237 50.2331C63.3467 50.2331 67.0192 49.1793 70.2015 47.038L68.5923 44.6466ZM60.6782 48.7919L60.6782 36.4608L57.7959 36.4608L57.7959 48.7919L60.6782 48.7919ZM59.237 37.902C62.8243 37.902 65.7538 36.818 67.7471 34.436C69.6992 32.1032 70.5513 28.7609 70.5513 24.6622L67.6689 24.6622C67.6689 28.4293 66.8755 30.9862 65.5366 32.5863C64.2388 34.1371 62.2318 35.0196 59.237 35.0196L59.237 37.902ZM70.5513 24.6622C70.5513 21.5685 69.9326 18.9524 68.5199 16.9812L66.1771 18.6602C67.1132 19.9664 67.6689 21.9114 67.6689 24.6622L70.5513 24.6622ZM68.5107 16.9685C67.0225 14.9391 64.9139 13.9215 62.3505 13.9215L62.3505 16.8039C64.0478 16.8039 65.2712 17.425 66.1864 18.673L68.5107 16.9685Z" fill="#D46918"/>
</mask>
<g mask="url(#mask1)">
<rect x="15" y="-24" width="31" height="278" fill="#E5954C"/>
</g>
</g>
</svg>
