<svg width="749" height="192" viewBox="0 0 749 192" fill="none" xmlns="http://www.w3.org/2000/svg">
<path d="M39.9352 93.1831L42.6054 91.8155L41.7693 90.1831H39.9352V93.1831ZM25.6684 93.1831V90.1831H22.6684V93.1831H25.6684ZM25.6684 125V128H28.6684V125H25.6684ZM7.76021 125H4.76021V128H7.76021V125ZM7.76021 38.0856V35.0856H4.76021V38.0856H7.76021ZM63.8128 44.9504L65.717 42.6323L63.8128 44.9504ZM68.2899 79.2148L65.7745 77.5798L65.7705 77.5861L68.2899 79.2148ZM56.6495 88.6464L55.4176 85.911L52.5021 87.2241L53.9982 90.0501L56.6495 88.6464ZM75.4531 124.164H78.4531V123.419L78.1045 122.761L75.4531 124.164ZM75.4531 125V128H78.4531V125H75.4531ZM56.2317 125L53.5616 126.368L54.3976 128H56.2317V125ZM25.6684 78.6775H22.6684V81.6775H25.6684V78.6775ZM50.5608 75.275L52.5912 77.4835L52.6007 77.4747L52.6102 77.4658L50.5608 75.275ZM50.7398 56.1132L48.6005 58.2163L48.6095 58.2255L48.6185 58.2345L50.7398 56.1132ZM25.6684 52.5913V49.5913H22.6684V52.5913H25.6684ZM39.9352 90.1831H25.6684V96.1831H39.9352V90.1831ZM22.6684 93.1831V125H28.6684V93.1831H22.6684ZM25.6684 122H7.76021V128H25.6684V122ZM10.7602 125V38.0856H4.76021V125H10.7602ZM7.76021 41.0856H40.0546V35.0856H7.76021V41.0856ZM40.0546 41.0856C49.9163 41.0856 57.0611 43.2868 61.9086 47.2686L65.717 42.6323C59.4216 37.461 50.7277 35.0856 40.0546 35.0856V41.0856ZM61.9086 47.2686C66.6717 51.1812 69.17 56.7319 69.17 64.351H75.17C75.17 55.2557 72.0968 47.8728 65.717 42.6323L61.9086 47.2686ZM69.17 64.351C69.17 69.8447 67.9744 74.1953 65.7745 77.5798L70.8052 80.8497C73.7788 76.275 75.17 70.7164 75.17 64.351H69.17ZM65.7705 77.5861C63.5997 80.9439 60.2201 83.7481 55.4176 85.911L57.8815 91.3818C63.5055 88.8488 67.8861 85.3652 70.8092 80.8435L65.7705 77.5861ZM53.9982 90.0501L72.8018 125.568L78.1045 122.761L59.3009 87.2427L53.9982 90.0501ZM72.4531 124.164V125H78.4531V124.164H72.4531ZM75.4531 122H56.2317V128H75.4531V122ZM58.9018 123.632L42.6054 91.8155L37.2651 94.5508L53.5616 126.368L58.9018 123.632ZM25.6684 81.6775H40.1143V75.6775H25.6684V81.6775ZM40.1143 81.6775C45.1017 81.6775 49.4037 80.4138 52.5912 77.4835L48.5304 73.0665C46.7831 74.6728 44.1208 75.6775 40.1143 75.6775V81.6775ZM52.6102 77.4658C55.7983 74.4833 57.2618 70.4625 57.2618 65.7836H51.2618C51.2618 69.1435 50.2579 71.4502 48.5113 73.0841L52.6102 77.4658ZM57.2618 65.7836C57.2618 61.0868 55.8977 57.0284 52.8612 53.9919L48.6185 58.2345C50.2779 59.8939 51.2618 62.2824 51.2618 65.7836H57.2618ZM52.8792 54.0101C49.7907 50.8684 45.3021 49.5913 40.0546 49.5913V55.5913C44.4378 55.5913 47.0726 56.6621 48.6005 58.2163L52.8792 54.0101ZM40.0546 49.5913H25.6684V55.5913H40.0546V49.5913ZM22.6684 52.5913V78.6775H28.6684V52.5913H22.6684ZM91.272 117.479L89.1724 119.621L89.1796 119.628L91.272 117.479ZM86.1383 75.2153L88.83 76.5401L88.834 76.5318L86.1383 75.2153ZM96.7639 63.3959L98.3074 65.9684L98.3139 65.9644L96.7639 63.3959ZM133.356 67.5744L131.134 69.5901L131.142 69.5987L133.356 67.5744ZM140.997 98.3168V101.317H143.997V98.3168H140.997ZM99.8679 98.3168V95.3168H96.4457L96.8938 98.7096L99.8679 98.3168ZM104.882 108.465L102.858 110.679L102.866 110.686L102.874 110.693L104.882 108.465ZM131.148 105.062L133.385 103.064L130.987 100.379L128.778 103.222L131.148 105.062ZM139.624 114.554L142.074 116.285L143.451 114.335L141.862 112.555L139.624 114.554ZM129.118 123.149L130.37 125.876L130.381 125.871L130.391 125.866L129.118 123.149ZM104.106 76.6479L101.911 74.6037L101.901 74.6139L101.892 74.6242L104.106 76.6479ZM100.047 86.5571L97.0755 86.1444L96.6016 89.5571H100.047V86.5571ZM124.044 86.5571V89.5571H127.044V86.5571H124.044ZM124.044 85.1842H127.044V85.1529L127.043 85.1217L124.044 85.1842ZM120.94 76.3494L118.758 78.4081L118.768 78.4185L118.777 78.4288L120.94 76.3494ZM114.433 123.194C105.627 123.194 98.6958 120.518 93.3645 115.329L89.1796 119.628C95.787 126.06 104.296 129.194 114.433 129.194V123.194ZM93.3717 115.336C88.1133 110.183 85.3776 103.266 85.3776 94.2576H79.3776C79.3776 104.59 82.5716 113.153 89.1724 119.621L93.3717 115.336ZM85.3776 94.2576V92.5862H79.3776V94.2576H85.3776ZM85.3776 92.5862C85.3776 86.4931 86.5528 81.1666 88.83 76.5401L83.4467 73.8905C80.7095 79.4517 79.3776 85.7058 79.3776 92.5862H85.3776ZM88.834 76.5318C91.1054 71.8809 94.2637 68.3945 98.3073 65.9683L95.2204 60.8234C90.111 63.889 86.1856 68.2823 83.4426 73.8988L88.834 76.5318ZM98.3139 65.9644C102.42 63.4868 107.127 62.2173 112.523 62.2173V56.2173C106.139 56.2173 100.341 57.7335 95.2139 60.8273L98.3139 65.9644ZM112.523 62.2173C120.673 62.2173 126.749 64.756 131.134 69.5901L135.578 65.5588C129.855 59.25 122.042 56.2173 112.523 56.2173V62.2173ZM131.142 69.5987C135.574 74.4462 137.997 81.5252 137.997 91.2729H143.997C143.997 80.5656 141.326 71.8455 135.57 65.5501L131.142 69.5987ZM137.997 91.2729V98.3168H143.997V91.2729H137.997ZM140.997 95.3168H99.8679V101.317H140.997V95.3168ZM96.8938 98.7096C97.5308 103.533 99.4847 107.595 102.858 110.679L106.907 106.251C104.708 104.241 103.319 101.537 102.842 97.924L96.8938 98.7096ZM102.874 110.693C106.322 113.802 110.631 115.285 115.567 115.285V109.285C111.908 109.285 109.093 108.222 106.891 106.236L102.874 110.693ZM115.567 115.285C123.044 115.285 129.151 112.522 133.517 106.903L128.778 103.222C125.662 107.233 121.383 109.285 115.567 109.285V115.285ZM128.91 107.061L137.387 116.552L141.862 112.555L133.385 103.064L128.91 107.061ZM137.174 112.822C134.914 116.022 131.834 118.564 127.845 120.433L130.391 125.866C135.237 123.596 139.161 120.408 142.074 116.285L137.174 112.822ZM127.865 120.423C123.881 122.254 119.419 123.194 114.433 123.194V129.194C120.192 129.194 125.521 128.104 130.37 125.876L127.865 120.423ZM112.463 70.1857C108.287 70.1857 104.679 71.6303 101.911 74.6037L106.302 78.6922C107.832 77.0492 109.795 76.1857 112.463 76.1857V70.1857ZM101.892 74.6242C99.2421 77.5236 97.7246 81.4712 97.0755 86.1444L103.019 86.9698C103.563 83.0471 104.752 80.3886 106.321 78.6716L101.892 74.6242ZM100.047 89.5571H124.044V83.5571H100.047V89.5571ZM127.044 86.5571V85.1842H121.044V86.5571H127.044ZM127.043 85.1217C126.953 80.8025 125.768 77.0421 123.102 74.2701L118.777 78.4288C120.092 79.7955 120.975 81.925 121.045 85.2466L127.043 85.1217ZM123.122 74.2908C120.425 71.4315 116.72 70.1857 112.463 70.1857V76.1857C115.529 76.1857 117.476 77.049 118.758 78.4081L123.122 74.2908ZM188.275 125L185.605 126.369L186.442 128H188.275V125ZM186.544 119.21L189.508 118.75L188.538 112.496L184.311 117.206L186.544 119.21ZM154.488 120.702L152.5 122.949L152.506 122.954L152.511 122.958L154.488 120.702ZM155.861 91.0938L154.11 88.6578L154.101 88.6643L155.861 91.0938ZM177.888 85.5423V82.5423L177.875 82.5423L177.888 85.5423ZM185.827 85.5423V88.5423H188.827V85.5423H185.827ZM183.499 74.678L181.207 76.6136L181.219 76.6283L181.232 76.6428L183.499 74.678ZM169.411 74.0811L167.491 71.7764L167.477 71.7878L167.464 71.7994L169.411 74.0811ZM166.964 79.8117V82.8117H169.964V79.8117H166.964ZM149.712 79.8117H146.712V82.8117H149.712V79.8117ZM162.964 61.9632L164.137 64.7247L164.148 64.72L164.159 64.7152L162.964 61.9632ZM196.095 65.2464L194.134 67.5173L194.145 67.5262L194.155 67.5351L196.095 65.2464ZM203.138 110.077H200.138V110.086L200.139 110.096L203.138 110.077ZM205.705 123.985H208.705V123.237L208.354 122.577L205.705 123.985ZM205.705 125V128H208.705V125H205.705ZM181.052 111.33L182.433 113.993L182.452 113.983L182.471 113.973L181.052 111.33ZM185.827 106.734L188.465 108.163L188.827 107.494V106.734H185.827ZM185.827 95.6306H188.827V92.6306H185.827V95.6306ZM165.591 104.585L162.604 104.306L162.599 104.357L162.596 104.409L165.591 104.585ZM165.531 105.599L162.536 105.423L162.531 105.511V105.599H165.531ZM190.944 123.631C190.335 122.442 189.833 120.841 189.508 118.75L183.579 119.67C183.971 122.194 184.623 124.453 185.605 126.369L190.944 123.631ZM184.311 117.206C180.744 121.181 176.147 123.194 170.247 123.194V129.194C177.719 129.194 183.986 126.551 188.776 121.213L184.311 117.206ZM170.247 123.194C164.539 123.194 160.02 121.561 156.465 118.446L152.511 122.958C157.312 127.166 163.3 129.194 170.247 129.194V123.194ZM156.476 118.455C152.987 115.369 151.28 111.573 151.28 106.853H145.28C145.28 113.276 147.712 118.713 152.5 122.949L156.476 118.455ZM151.28 106.853C151.28 100.862 153.429 96.5597 157.621 93.5234L154.101 88.6643C148.184 92.9504 145.28 99.1546 145.28 106.853H151.28ZM157.612 93.5299C161.995 90.3794 168.624 88.5808 177.9 88.5423L177.875 82.5423C167.97 82.5834 159.914 84.4859 154.11 88.6578L157.612 93.5299ZM177.888 88.5423H185.827V82.5423H177.888V88.5423ZM188.827 85.5423V81.8413H182.827V85.5423H188.827ZM188.827 81.8413C188.827 78.328 187.904 75.1796 185.766 72.7132L181.232 76.6428C182.199 77.758 182.827 79.3852 182.827 81.8413H188.827ZM185.791 72.7425C183.504 70.0341 180.087 68.9918 176.276 68.9918V74.9918C179.072 74.9918 180.47 75.7403 181.207 76.6136L185.791 72.7425ZM176.276 68.9918C172.906 68.9918 169.859 69.803 167.491 71.7764L171.332 76.3857C172.307 75.5734 173.836 74.9918 176.276 74.9918V68.9918ZM167.464 71.7994C165.072 73.8411 163.964 76.6355 163.964 79.8117H169.964C169.964 78.1328 170.488 77.1068 171.359 76.3628L167.464 71.7994ZM166.964 76.8117H149.712V82.8117H166.964V76.8117ZM152.712 79.8117C152.712 76.737 153.646 73.8854 155.603 71.1859L150.746 67.664C148.087 71.3319 146.712 75.4048 146.712 79.8117H152.712ZM155.603 71.1859C157.542 68.5123 160.336 66.3381 164.137 64.7247L161.792 59.2017C157.156 61.1699 153.424 63.9703 150.746 67.664L155.603 71.1859ZM164.159 64.7152C167.95 63.0699 172.271 62.2173 177.172 62.2173V56.2173C171.566 56.2173 166.415 57.1953 161.77 59.2112L164.159 64.7152ZM177.172 62.2173C184.627 62.2173 190.167 64.0925 194.134 67.5173L198.055 62.9755C192.71 58.3615 185.634 56.2173 177.172 56.2173V62.2173ZM194.155 67.5351C198.057 70.8419 200.138 75.5465 200.138 82.0801H206.138C206.138 74.1279 203.524 67.6101 198.034 62.9577L194.155 67.5351ZM200.138 82.0801V110.077H206.138V82.0801H200.138ZM200.139 110.096C200.179 116.406 201.048 121.617 203.056 125.393L208.354 122.577C207.019 120.066 206.177 116.004 206.138 110.057L200.139 110.096ZM202.705 123.985V125H208.705V123.985H202.705ZM205.705 122H188.275V128H205.705V122ZM174.008 116.002C177.01 116.002 179.835 115.34 182.433 113.993L179.671 108.667C177.971 109.548 176.1 110.002 174.008 110.002V116.002ZM182.471 113.973C185.07 112.577 187.118 110.649 188.465 108.163L183.189 105.305C182.467 106.638 181.331 107.775 179.632 108.687L182.471 113.973ZM188.827 106.734V95.6306H182.827V106.734H188.827ZM185.827 92.6306H179.38V98.6306H185.827V92.6306ZM179.38 92.6306C174.789 92.6306 170.812 93.4115 167.822 95.353C164.676 97.3964 162.959 100.506 162.604 104.306L168.578 104.863C168.78 102.694 169.64 101.327 171.09 100.385C172.696 99.342 175.336 98.6306 179.38 98.6306V92.6306ZM162.596 104.409L162.536 105.423L168.526 105.776L168.586 104.761L162.596 104.409ZM162.531 105.599C162.531 108.544 163.607 111.13 165.767 113.119L169.832 108.706C168.967 107.909 168.531 106.953 168.531 105.599H162.531ZM165.767 113.119C167.974 115.152 170.845 116.002 174.008 116.002V110.002C171.918 110.002 170.649 109.458 169.832 108.706L165.767 113.119ZM220.45 68.1714L218.061 66.3561L218.054 66.3663L220.45 68.1714ZM254.595 66.2612L252.335 68.234L257.595 74.2601V66.2612H254.595ZM254.595 33.3101V30.3101H251.595V33.3101H254.595ZM271.906 33.3101H274.906V30.3101H271.906V33.3101ZM271.906 125V128H274.906V125H271.906ZM256.326 125L253.348 125.363L253.669 128H256.326V125ZM255.49 118.135L258.468 117.773L257.606 110.688L253.147 116.261L255.49 118.135ZM220.569 117.24L218.182 119.057L218.189 119.066L218.196 119.075L220.569 117.24ZM254.595 105.48L257.292 106.793L257.595 106.171V105.48H254.595ZM254.595 79.9908H257.595V79.3108L257.301 78.6973L254.595 79.9908ZM216.704 92.228C216.704 82.5871 218.857 75.2715 222.846 69.9765L218.054 66.3663C213.049 73.01 210.704 81.7322 210.704 92.228H216.704ZM222.838 69.9866C226.778 64.8026 232.062 62.2173 239.014 62.2173V56.2173C230.287 56.2173 223.195 59.6014 218.061 66.3561L222.838 69.9866ZM239.014 62.2173C244.445 62.2173 248.811 64.1973 252.335 68.234L256.855 64.2884C252.18 58.9332 246.16 56.2173 239.014 56.2173V62.2173ZM257.595 66.2612V33.3101H251.595V66.2612H257.595ZM254.595 36.3101H271.906V30.3101H254.595V36.3101ZM268.906 33.3101V125H274.906V33.3101H268.906ZM271.906 122H256.326V128H271.906V122ZM259.304 124.637L258.468 117.773L252.512 118.498L253.348 125.363L259.304 124.637ZM253.147 116.261C249.408 120.936 244.731 123.194 238.895 123.194V129.194C246.59 129.194 252.977 126.079 257.833 120.009L253.147 116.261ZM238.895 123.194C232.215 123.194 226.986 120.633 222.942 115.405L218.196 119.075C223.385 125.785 230.373 129.194 238.895 129.194V123.194ZM222.956 115.422C218.912 110.112 216.704 102.5 216.704 92.228H210.704C210.704 103.286 213.073 112.349 218.182 119.057L222.956 115.422ZM227.956 93.4816C227.956 99.8081 229.046 105.116 231.609 109.033L236.63 105.748C234.974 103.217 233.956 99.2531 233.956 93.4816H227.956ZM231.609 109.033C234.301 113.147 238.334 115.226 243.312 115.226V109.226C240.252 109.226 238.157 108.081 236.63 105.748L231.609 109.033ZM243.312 115.226C246.403 115.226 249.235 114.571 251.672 113.114C254.121 111.65 255.98 109.489 257.292 106.793L251.897 104.167C251.021 105.968 249.905 107.18 248.593 107.964C247.27 108.756 245.554 109.226 243.312 109.226V115.226ZM257.595 105.48V79.9908H251.595V105.48H257.595ZM257.301 78.6973C256.012 75.9999 254.176 73.8337 251.744 72.3641C249.323 70.9012 246.506 70.2454 243.432 70.2454V76.2454C245.65 76.2454 247.341 76.7138 248.641 77.4993C249.929 78.2782 251.028 79.4847 251.888 81.2843L257.301 78.6973ZM243.432 70.2454C238.295 70.2454 234.179 72.4192 231.521 76.73C229.01 80.8024 227.956 86.5254 227.956 93.4816H233.956C233.956 86.947 234.98 82.5519 236.628 79.8788C238.129 77.4442 240.251 76.2454 243.432 76.2454V70.2454ZM309.394 100.585L306.519 101.444L309.401 111.092L312.269 101.44L309.394 100.585ZM321.332 60.4112V57.4112H319.094L318.457 59.5566L321.332 60.4112ZM339.838 60.4112L342.671 61.3972L344.058 57.4112H339.838V60.4112ZM313.871 135.029L316.636 136.193L316.673 136.105L316.704 136.015L313.871 135.029ZM312.438 138.431L315.166 139.679L315.185 139.638L315.203 139.595L312.438 138.431ZM285.695 149.952H282.695V152.201L284.853 152.832L285.695 149.952ZM285.695 136.879L285.763 133.88L282.695 133.81V136.879H285.695ZM288.322 136.939L288.254 139.938L288.288 139.939H288.322V136.939ZM295.604 135.446L294.043 132.885L294.028 132.894L294.014 132.902L295.604 135.446ZM299.425 130.492L302.213 131.598L302.22 131.58L302.227 131.562L299.425 130.492ZM301.454 125.179L304.257 126.25L304.648 125.225L304.286 124.19L301.454 125.179ZM278.83 60.4112V57.4112H274.605L275.998 61.4005L278.83 60.4112ZM297.395 60.4112L300.27 59.5527L299.63 57.4112H297.395V60.4112ZM312.269 101.44L324.208 61.2658L318.457 59.5566L306.518 99.7306L312.269 101.44ZM321.332 63.4112H339.838V57.4112H321.332V63.4112ZM337.004 59.4252L311.037 134.043L316.704 136.015L342.671 61.3972L337.004 59.4252ZM311.106 133.864L309.673 137.267L315.203 139.595L316.636 136.193L311.106 133.864ZM309.71 137.183C307.963 141.002 305.736 143.682 303.11 145.422C300.494 147.155 297.282 148.086 293.336 148.086V154.086C298.265 154.086 302.674 152.908 306.424 150.423C310.166 147.944 313.053 144.297 315.166 139.679L309.71 137.183ZM293.336 148.086C291.134 148.086 288.871 147.755 286.537 147.073L284.853 152.832C287.693 153.662 290.523 154.086 293.336 154.086V148.086ZM288.695 149.952V136.879H282.695V149.952H288.695ZM285.627 139.878L288.254 139.938L288.39 133.94L285.763 133.88L285.627 139.878ZM288.322 139.939C291.783 139.939 294.89 139.43 297.194 137.99L294.014 132.902C293.135 133.452 291.387 133.939 288.322 133.939V139.939ZM297.166 138.008C299.5 136.584 301.13 134.33 302.213 131.598L296.636 129.386C295.889 131.27 294.971 132.319 294.043 132.885L297.166 138.008ZM302.227 131.562L304.257 126.25L298.652 124.108L296.622 129.421L302.227 131.562ZM304.286 124.19L281.663 59.4219L275.998 61.4005L298.622 126.168L304.286 124.19ZM278.83 63.4112H297.395V57.4112H278.83V63.4112ZM294.521 61.2697L306.519 101.444L312.268 99.7267L300.27 59.5527L294.521 61.2697ZM397.741 44.5326H400.741V41.5326H397.741V44.5326ZM397.741 60.4112H394.741V63.4112H397.741V60.4112ZM408.784 60.4112H411.784V57.4112H408.784V60.4112ZM408.784 73.0663V76.0663H411.784V73.0663H408.784ZM397.741 73.0663V70.0663H394.741V73.0663H397.741ZM399.114 110.435L401.361 108.447L399.114 110.435ZM409.441 111.569H412.441V107.948L408.883 108.621L409.441 111.569ZM409.441 124.642L410.318 127.511L412.441 126.861V124.642H409.441ZM380.489 107.868H377.489V107.897L377.49 107.926L380.489 107.868ZM380.489 73.0663H383.489V70.0663H380.489V73.0663ZM371.057 73.0663H368.057V76.0663H371.057V73.0663ZM371.057 60.4112V57.4112H368.057V60.4112H371.057ZM380.489 60.4112V63.4112H383.489V60.4112H380.489ZM380.489 44.5326V41.5326H377.489V44.5326H380.489ZM394.741 44.5326V60.4112H400.741V44.5326H394.741ZM397.741 63.4112H408.784V57.4112H397.741V63.4112ZM405.784 60.4112V73.0663H411.784V60.4112H405.784ZM408.784 70.0663H397.741V76.0663H408.784V70.0663ZM394.741 73.0663V105.301H400.741V73.0663H394.741ZM394.741 105.301C394.741 107.933 395.219 110.56 396.867 112.422L401.361 108.447C401.178 108.24 400.741 107.444 400.741 105.301H394.741ZM396.867 112.422C398.686 114.479 401.605 114.987 404.367 114.987V108.987C403.252 108.987 402.475 108.873 401.963 108.722C401.458 108.572 401.343 108.427 401.361 108.447L396.867 112.422ZM404.367 114.987C406.416 114.987 408.3 114.838 409.998 114.517L408.883 108.621C407.636 108.857 406.138 108.987 404.367 108.987V114.987ZM406.441 111.569V124.642H412.441V111.569H406.441ZM408.563 121.773C405.468 122.72 402.282 123.194 398.994 123.194V129.194C402.869 129.194 406.648 128.633 410.318 127.511L408.563 121.773ZM398.994 123.194C393.42 123.194 389.737 121.79 387.405 119.481C385.068 117.166 383.599 113.458 383.489 107.809L377.49 107.926C377.618 114.495 379.352 119.95 383.183 123.744C387.02 127.543 392.47 129.194 398.994 129.194V123.194ZM383.489 107.868V73.0663H377.489V107.868H383.489ZM380.489 70.0663H371.057V76.0663H380.489V70.0663ZM374.057 73.0663V60.4112H368.057V73.0663H374.057ZM371.057 63.4112H380.489V57.4112H371.057V63.4112ZM383.489 60.4112V44.5326H377.489V60.4112H383.489ZM380.489 47.5326H397.741V41.5326H380.489V47.5326ZM417.619 74.9765L414.927 73.652L417.619 74.9765ZM428.244 63.3362L426.72 60.7521L426.711 60.7578L428.244 63.3362ZM465.732 67.2163L463.642 69.3686L463.65 69.3761L465.732 67.2163ZM474.985 88.9449L477.983 88.8638L477.982 88.8002L477.977 88.7367L474.985 88.9449ZM475.104 93.3622H478.104V93.3217L478.103 93.2812L475.104 93.3622ZM466.807 117.24L469.007 119.279L469.014 119.272L466.807 117.24ZM422.215 117.24L420.015 119.279L420.022 119.287L422.215 117.24ZM434.632 107.45L432.182 109.182L432.187 109.189L432.192 109.197L434.632 107.45ZM454.331 107.51L456.745 109.29L456.75 109.283L456.755 109.276L454.331 107.51ZM434.632 78.1403L437.081 79.8727L437.086 79.8657L437.091 79.8587L434.632 78.1403ZM416.918 92.1086C416.918 86.0933 418.074 80.8467 420.31 76.301L414.927 73.652C412.229 79.1349 410.918 85.3097 410.918 92.1086H416.918ZM420.31 76.301C422.532 71.7857 425.682 68.351 429.778 65.9145L426.711 60.7578C421.574 63.8132 417.64 68.1386 414.927 73.652L420.31 76.301ZM429.768 65.9203C433.903 63.4815 438.756 62.2173 444.421 62.2173V56.2173C437.83 56.2173 431.897 57.699 426.72 60.7521L429.768 65.9203ZM444.421 62.2173C452.473 62.2173 458.789 64.656 463.642 69.3686L467.822 65.064C461.692 59.1113 453.8 56.2173 444.421 56.2173V62.2173ZM463.65 69.3761C468.547 74.0967 471.396 80.589 471.992 89.1531L477.977 88.7367C477.3 78.9946 473.981 71.0012 467.814 65.0565L463.65 69.3761ZM471.986 89.0259L472.105 93.4433L478.103 93.2812L477.983 88.8638L471.986 89.0259ZM472.104 93.3622C472.104 102.688 469.517 109.866 464.599 115.208L469.014 119.272C475.159 112.596 478.104 103.855 478.104 93.3622H472.104ZM464.606 115.201C459.726 120.467 453.15 123.194 444.541 123.194V129.194C454.556 129.194 462.823 125.952 469.007 119.279L464.606 115.201ZM444.541 123.194C435.932 123.194 429.33 120.466 424.408 115.193L420.022 119.287C426.243 125.952 434.525 129.194 444.541 129.194V123.194ZM424.416 115.201C419.523 109.92 416.918 102.602 416.918 92.8847H410.918C410.918 103.702 413.844 112.62 420.015 119.279L424.416 115.201ZM416.918 92.8847V92.1086H410.918V92.8847H416.918ZM428.169 93.3622C428.169 99.8016 429.371 105.208 432.182 109.182L437.081 105.718C435.276 103.166 434.169 99.18 434.169 93.3622H428.169ZM432.192 109.197C435.117 113.281 439.37 115.285 444.541 115.285V109.285C441.115 109.285 438.762 108.066 437.071 105.703L432.192 109.197ZM444.541 115.285C449.609 115.285 453.795 113.29 456.745 109.29L451.916 105.729C450.17 108.097 447.829 109.285 444.541 109.285V115.285ZM456.755 109.276C459.669 105.276 460.852 99.3572 460.852 92.1086H454.852C454.852 98.9479 453.688 103.296 451.906 105.743L456.755 109.276ZM460.852 92.1086C460.852 85.7619 459.621 80.4044 456.776 76.4021L451.885 79.8784C453.736 82.4823 454.852 86.437 454.852 92.1086H460.852ZM456.776 76.4021C453.832 72.2612 449.593 70.1857 444.421 70.1857V76.1857C447.766 76.1857 450.133 77.4132 451.885 79.8784L456.776 76.4021ZM444.421 70.1857C439.278 70.1857 435.072 72.2721 432.172 76.4219L437.091 79.8587C438.807 77.4023 441.128 76.1857 444.421 76.1857V70.1857ZM432.182 76.4079C429.339 80.4277 428.169 86.2566 428.169 93.3622H434.169C434.169 86.6985 435.308 82.3794 437.081 79.8727L432.182 76.4079ZM559.451 46.6816H562.451V44.0102L559.798 43.7016L559.451 46.6816ZM538.2 60.4112H535.2V63.4112H538.2V60.4112ZM551.035 60.4112H554.035V57.4112H551.035V60.4112ZM551.035 73.0663V76.0663H554.035V73.0663H551.035ZM538.2 73.0663V70.0663H535.2V73.0663H538.2ZM538.2 125V128H541.2V125H538.2ZM520.889 125H517.889V128H520.889V125ZM520.889 73.0663H523.889V70.0663H520.889V73.0663ZM511.278 73.0663H508.278V76.0663H511.278V73.0663ZM511.278 60.4112V57.4112H508.278V60.4112H511.278ZM520.889 60.4112V63.4112H523.889V60.4112H520.889ZM520.889 55.3969L517.889 55.365L517.889 55.3809V55.3969H520.889ZM527.933 38.1453L529.903 40.4079L529.909 40.4031L529.914 40.3982L527.933 38.1453ZM576.763 33.9668H579.763V31.2366L577.045 30.98L576.763 33.9668ZM576.763 125V128H579.763V125H576.763ZM559.451 125H556.451V128H559.451V125ZM559.798 43.7016C556.279 43.2925 552.979 43.0846 549.9 43.0846V49.0846C552.712 49.0846 555.779 49.2747 559.105 49.6615L559.798 43.7016ZM549.9 43.0846C545.645 43.0846 541.894 43.9809 539.18 46.2933C536.374 48.6841 535.2 52.1313 535.2 56.0535H541.2C541.2 53.3298 541.977 51.7925 543.071 50.8604C544.257 49.8498 546.356 49.0846 549.9 49.0846V43.0846ZM535.2 56.0535V60.4112H541.2V56.0535H535.2ZM538.2 63.4112H551.035V57.4112H538.2V63.4112ZM548.035 60.4112V73.0663H554.035V60.4112H548.035ZM551.035 70.0663H538.2V76.0663H551.035V70.0663ZM535.2 73.0663V125H541.2V73.0663H535.2ZM538.2 122H520.889V128H538.2V122ZM523.889 125V73.0663H517.889V125H523.889ZM520.889 70.0663H511.278V76.0663H520.889V70.0663ZM514.279 73.0663V60.4112H508.278V73.0663H514.279ZM511.278 63.4112H520.889V57.4112H511.278V63.4112ZM523.889 60.4112V55.3969H517.889V60.4112H523.889ZM523.889 55.4288C523.962 48.5971 526.074 43.7421 529.903 40.4079L525.963 35.8828C520.56 40.5873 517.976 47.2334 517.889 55.365L523.889 55.4288ZM529.914 40.3982C533.808 36.9743 539.533 35.0566 547.513 35.0566V29.0566C538.619 29.0566 531.291 31.198 525.952 35.8924L529.914 40.3982ZM547.513 35.0566C553.369 35.0566 562.997 35.6807 576.481 36.9535L577.045 30.98C563.546 29.7059 553.675 29.0566 547.513 29.0566V35.0566ZM573.763 33.9668V125H579.763V33.9668H573.763ZM576.763 122H559.451V128H576.763V122ZM562.451 125V46.6816H556.451V125H562.451ZM615.265 100.585L612.391 101.444L615.273 111.092L618.141 101.44L615.265 100.585ZM627.204 60.4112V57.4112H624.966L624.328 59.5566L627.204 60.4112ZM645.709 60.4112L648.543 61.3972L649.93 57.4112H645.709V60.4112ZM619.742 135.029L622.507 136.193L622.544 136.105L622.576 136.015L619.742 135.029ZM618.31 138.431L621.038 139.679L621.057 139.638L621.075 139.595L618.31 138.431ZM591.567 149.952H588.567V152.201L590.725 152.832L591.567 149.952ZM591.567 136.879L591.635 133.88L588.567 133.81V136.879H591.567ZM594.193 136.939L594.125 139.938L594.159 139.939H594.193V136.939ZM601.476 135.446L599.914 132.885L599.9 132.894L599.886 132.902L601.476 135.446ZM605.296 130.492L608.085 131.598L608.092 131.58L608.099 131.562L605.296 130.492ZM607.326 125.179L610.128 126.25L610.52 125.225L610.158 124.19L607.326 125.179ZM584.702 60.4112V57.4112H580.476L581.87 61.4005L584.702 60.4112ZM603.267 60.4112L606.141 59.5527L605.502 57.4112H603.267V60.4112ZM618.141 101.44L630.08 61.2658L624.328 59.5566L612.39 99.7306L618.141 101.44ZM627.204 63.4112H645.709V57.4112H627.204V63.4112ZM642.876 59.4252L616.909 134.043L622.576 136.015L648.543 61.3972L642.876 59.4252ZM616.977 133.864L615.545 137.267L621.075 139.595L622.507 136.193L616.977 133.864ZM615.582 137.183C613.834 141.002 611.607 143.682 608.982 145.422C606.365 147.155 603.153 148.086 599.208 148.086V154.086C604.136 154.086 608.545 152.908 612.296 150.423C616.038 147.944 618.925 144.297 621.038 139.679L615.582 137.183ZM599.208 148.086C597.006 148.086 594.742 147.755 592.409 147.073L590.725 152.832C593.565 153.662 596.395 154.086 599.208 154.086V148.086ZM594.567 149.952V136.879H588.567V149.952H594.567ZM591.499 139.878L594.125 139.938L594.262 133.94L591.635 133.88L591.499 139.878ZM594.193 139.939C597.655 139.939 600.762 139.43 603.066 137.99L599.886 132.902C599.006 133.452 597.258 133.939 594.193 133.939V139.939ZM603.038 138.008C605.372 136.584 607.002 134.33 608.085 131.598L602.508 129.386C601.76 131.27 600.843 132.319 599.914 132.885L603.038 138.008ZM608.099 131.562L610.128 126.25L604.524 124.108L602.494 129.421L608.099 131.562ZM610.158 124.19L587.534 59.4219L581.87 61.4005L604.494 126.168L610.158 124.19ZM584.702 63.4112H603.267V57.4112H584.702V63.4112ZM600.392 61.2697L612.391 101.444L618.14 99.7267L606.141 59.5527L600.392 61.2697ZM666.602 98.3168H663.602V101.317H666.602V98.3168ZM676.034 75.275L678.027 77.5172L678.028 77.5158L676.034 75.275ZM683.257 67.4551L685.829 68.9985L685.836 68.9874L685.843 68.9761L683.257 67.4551ZM668.632 53.7254L666.487 51.6276L666.487 51.6281L668.632 53.7254ZM665.886 61.1872V64.1872H668.812L668.885 61.2622L665.886 61.1872ZM648.575 61.1872L645.575 61.1558L645.543 64.1872H648.575V61.1872ZM655.917 43.3387L653.928 41.0924L653.919 41.1006L655.917 43.3387ZM695.375 43.0402L693.392 45.292L693.398 45.2968L693.403 45.3016L695.375 43.0402ZM700.09 69.9025L702.766 71.2584L702.77 71.2513L702.774 71.2441L700.09 69.9025ZM692.151 79.8714L694.218 82.0457L694.228 82.0361L694.238 82.0265L692.151 79.8714ZM687.316 84.4678L685.249 82.2935L685.243 82.2989L685.238 82.3042L687.316 84.4678ZM682.122 94.6755L679.141 94.3409L679.133 94.4099L679.129 94.4792L682.122 94.6755ZM681.884 98.3168V101.317H684.693L684.877 98.5131L681.884 98.3168ZM667.557 110.077L669.63 112.245L669.631 112.244L667.557 110.077ZM681.466 110.077L679.369 112.222L679.393 112.245L679.417 112.268L681.466 110.077ZM681.526 123.149L679.453 120.981L679.441 120.992L679.429 121.004L681.526 123.149ZM667.497 123.149L665.401 125.295L665.413 125.307L665.425 125.318L667.497 123.149ZM669.602 98.3168C669.602 92.9406 670.262 88.9397 671.408 86.1423L665.856 83.8679C664.295 87.6766 663.602 92.5502 663.602 98.3168H669.602ZM671.408 86.1423C672.539 83.3817 674.676 80.4961 678.027 77.5172L674.041 73.0327C670.229 76.4211 667.431 80.0223 665.856 83.8679L671.408 86.1423ZM678.028 77.5158C681.685 74.2606 684.387 71.4024 685.829 68.9985L680.684 65.9116C679.739 67.4873 677.625 69.8424 674.039 73.0341L678.028 77.5158ZM685.843 68.9761C687.292 66.5126 688.048 63.8619 688.048 61.0678H682.048C682.048 62.7309 681.61 64.3383 680.671 65.934L685.843 68.9761ZM688.048 61.0678C688.048 57.2995 687.183 53.9141 684.924 51.4668C682.623 48.9741 679.366 47.9795 675.735 47.9795V53.9795C678.312 53.9795 679.712 54.6664 680.515 55.5364C681.36 56.4519 682.048 58.1105 682.048 61.0678H688.048ZM675.735 47.9795C672.115 47.9795 668.928 49.1322 666.487 51.6276L670.776 55.8233C671.917 54.6574 673.466 53.9795 675.735 53.9795V47.9795ZM666.487 51.6281C664.073 54.0966 662.98 57.3845 662.887 61.1122L668.885 61.2622C668.951 58.6226 669.688 56.936 670.777 55.8228L666.487 51.6281ZM665.886 58.1872H648.575V64.1872H665.886V58.1872ZM651.574 61.2186C651.647 54.2975 653.841 49.2123 657.915 45.5768L653.919 41.1006C648.362 46.061 645.661 52.8748 645.575 61.1558L651.574 61.2186ZM657.905 45.585C662.069 41.8996 667.893 39.8918 675.735 39.8918V33.8918C666.863 33.8918 659.475 36.1819 653.928 41.0924L657.905 45.585ZM675.735 39.8918C683.707 39.8918 689.454 41.8253 693.392 45.292L697.357 40.7885C691.983 36.0572 684.637 33.8918 675.735 33.8918V39.8918ZM693.403 45.3016C697.272 48.6748 699.359 53.5229 699.359 60.2918H705.359C705.359 52.177 702.789 45.5241 697.346 40.7789L693.403 45.3016ZM699.359 60.2918C699.359 63.2089 698.711 65.9531 697.407 68.5609L702.774 71.2441C704.494 67.8029 705.359 64.14 705.359 60.2918H699.359ZM697.414 68.5466C696.113 71.114 693.726 74.1698 690.064 77.7163L694.238 82.0265C698.137 78.2505 701.043 74.6604 702.766 71.2584L697.414 68.5466ZM690.084 77.6971L685.249 82.2935L689.383 86.6422L694.218 82.0457L690.084 77.6971ZM685.238 82.3042C681.745 85.6589 679.663 89.6946 679.141 94.3409L685.104 95.0101C685.458 91.8564 686.838 89.087 689.394 86.6314L685.238 82.3042ZM679.129 94.4792L678.89 98.1205L684.877 98.5131L685.116 94.8718L679.129 94.4792ZM681.884 95.3168H666.602V101.317H681.884V95.3168ZM667.871 116.643C667.871 114.726 668.48 113.344 669.63 112.245L665.485 107.908C663.053 110.231 661.871 113.227 661.871 116.643H667.871ZM669.631 112.244C670.837 111.091 672.392 110.45 674.541 110.45V104.45C671.04 104.45 667.939 105.56 665.484 107.909L669.631 112.244ZM674.541 110.45C676.692 110.45 678.212 111.09 679.369 112.222L683.563 107.931C681.138 105.561 678.042 104.45 674.541 104.45V110.45ZM679.417 112.268C680.599 113.373 681.212 114.748 681.212 116.643H687.212C687.212 113.205 685.994 110.203 683.515 107.885L679.417 112.268ZM681.212 116.643C681.212 118.505 680.613 119.872 679.453 120.981L683.598 125.318C686.02 123.004 687.212 120.033 687.212 116.643H681.212ZM679.429 121.004C678.341 122.067 676.819 122.716 674.541 122.716V128.716C678.074 128.716 681.208 127.654 683.622 125.295L679.429 121.004ZM674.541 122.716C672.266 122.716 670.707 122.067 669.57 120.981L665.425 125.318C667.869 127.654 671.007 128.716 674.541 128.716V122.716ZM669.594 121.004C668.466 119.901 667.871 118.527 667.871 116.643H661.871C661.871 120.012 663.027 122.975 665.401 125.295L669.594 121.004Z" fill="#0D3475"/>
</svg>
