<svg width="147" height="54" viewBox="0 0 147 54" fill="none" xmlns="http://www.w3.org/2000/svg">
<path d="M51.1661 28.8354C51.1661 28.568 51.0531 28.3536 50.8272 28.1922C50.6013 28.0308 50.2163 27.8856 49.6723 27.7565C49.1282 27.6274 48.6695 27.4914 48.296 27.3485C47.9272 27.2009 47.6229 27.028 47.3832 26.8298C47.1434 26.6315 46.9659 26.4033 46.8506 26.1451C46.7354 25.8823 46.6777 25.5711 46.6777 25.2115C46.6777 24.5199 46.9659 23.9505 47.5422 23.5033C48.1185 23.0561 48.8608 22.8325 49.7691 22.8325C50.7603 22.8325 51.5603 23.0584 52.1689 23.5102C52.7821 23.9575 53.0887 24.5706 53.0887 25.3498H51.09C51.09 25.0548 50.9701 24.8081 50.7304 24.6098C50.4952 24.4116 50.1771 24.3125 49.776 24.3125C49.421 24.3125 49.1328 24.3908 48.9115 24.5476C48.6902 24.7044 48.5796 24.9003 48.5796 25.1354C48.5796 25.3706 48.6948 25.5619 48.9254 25.7094C49.1559 25.8524 49.5386 25.9907 50.0734 26.1244C51.1476 26.3595 51.9153 26.6846 52.3763 27.0995C52.842 27.5145 53.0748 28.0746 53.0748 28.78C53.0748 29.4993 52.7913 30.0687 52.2242 30.4882C51.6571 30.9032 50.8825 31.1107 49.9005 31.1107C49.232 31.1107 48.628 31.0023 48.0886 30.7856C47.5491 30.5689 47.1319 30.26 46.8368 29.8589C46.5463 29.4578 46.4011 28.9829 46.4011 28.4343H48.4067C48.4067 28.863 48.5381 29.1719 48.8009 29.361C49.0683 29.55 49.4671 29.6445 49.9973 29.6445C50.3569 29.6445 50.6405 29.5707 50.8479 29.4232C51.06 29.2757 51.1661 29.0797 51.1661 28.8354ZM62.636 22.9431V28.1576C62.636 29.0751 62.3386 29.7967 61.7439 30.3223C61.1491 30.8479 60.3215 31.1107 59.2611 31.1107C58.2053 31.1107 57.3754 30.8479 56.7714 30.3223C56.1675 29.7967 55.8655 29.0774 55.8655 28.1645V22.9431H57.871V28.2614C57.8987 29.0913 58.3621 29.5062 59.2611 29.5062C59.7083 29.5062 60.0472 29.4025 60.2777 29.195C60.5129 28.9875 60.6304 28.6463 60.6304 28.1715V22.9431H62.636ZM65.6134 31V22.9431H68.7255C69.7997 22.9431 70.625 23.1345 71.2013 23.5171C71.7776 23.8952 72.0658 24.4462 72.0658 25.17C72.0658 25.5757 71.9597 25.9331 71.7477 26.242C71.5402 26.5463 71.2405 26.7699 70.8486 26.9128C71.3004 27.028 71.6462 27.247 71.886 27.5698C72.1257 27.8925 72.2456 28.266 72.2456 28.6901C72.2456 29.4878 71.9713 30.0733 71.4226 30.4467C70.874 30.8156 70.0763 31 69.0298 31H65.6134ZM67.6189 27.6459V29.3955H69.0298C69.417 29.3955 69.7167 29.3195 69.9288 29.1673C70.1409 29.0106 70.2469 28.8054 70.2469 28.5518C70.2469 27.9663 69.8942 27.6643 69.1888 27.6459H67.6189ZM67.6189 26.2973H68.8499C69.6568 26.2973 70.0602 26.016 70.0602 25.4536C70.0602 25.1308 69.9611 24.9026 69.7628 24.7689C69.5692 24.6306 69.2718 24.5614 68.8707 24.5614H67.6189V26.2973ZM77.7196 22.9431L79.732 28.372L81.7307 22.9431H84.3794V31H82.3669V29.3679L82.5744 25.1354L80.396 31H79.0612L76.8897 25.1562L77.0971 29.3679V31H75.0846V22.9431H77.7196ZM89.5283 31H87.5228V22.9431H89.5283V31ZM99.3938 24.5614H96.7797V31H94.7741V24.5614H92.2083V22.9431H99.3938V24.5614Z" fill="#0D3475"/>
<path d="M48.296 27.3485L48.253 27.4561L48.2546 27.4567L48.296 27.3485ZM46.8506 26.1451L46.7445 26.1917L46.7448 26.1924L46.8506 26.1451ZM47.5422 23.5033L47.6132 23.5948L47.5422 23.5033ZM52.1689 23.5102L52.0998 23.6033L52.1006 23.6038L52.1689 23.5102ZM53.0887 25.3498V25.4657H53.2045V25.3498H53.0887ZM51.09 25.3498H50.9741V25.4657H51.09V25.3498ZM50.7304 24.6098L50.6557 24.6984L50.6566 24.6991L50.7304 24.6098ZM48.9254 25.7094L48.8629 25.807L48.8643 25.8079L48.9254 25.7094ZM50.0734 26.1244L50.0453 26.2368L50.0486 26.2376L50.0734 26.1244ZM52.3763 27.0995L52.2988 27.1856L52.2993 27.186L52.3763 27.0995ZM52.2242 30.4882L52.2926 30.5817L52.2931 30.5814L52.2242 30.4882ZM46.8368 29.8589L46.743 29.9269L46.7435 29.9276L46.8368 29.8589ZM46.4011 28.4343V28.3184H46.2853V28.4343H46.4011ZM48.4067 28.4343H48.5225V28.3184H48.4067V28.4343ZM48.8009 29.361L48.7332 29.455L48.734 29.4556L48.8009 29.361ZM50.8479 29.4232L50.7818 29.3281L50.7808 29.3288L50.8479 29.4232ZM51.2819 28.8354C51.2819 28.5289 51.1495 28.2801 50.8945 28.0979L50.7599 28.2865C50.9567 28.4271 51.0502 28.607 51.0502 28.8354H51.2819ZM50.8945 28.0979C50.6494 27.9228 50.2459 27.7735 49.699 27.6438L49.6455 27.8692C50.1867 27.9977 50.5532 28.1388 50.7599 28.2865L50.8945 28.0979ZM49.699 27.6438C49.1582 27.5154 48.7047 27.3808 48.3374 27.2403L48.2546 27.4567C48.6343 27.602 49.0983 27.7394 49.6455 27.8692L49.699 27.6438ZM48.3391 27.2409C47.9784 27.0967 47.6853 26.9293 47.457 26.7405L47.3093 26.9191C47.5605 27.1268 47.8759 27.3052 48.253 27.456L48.3391 27.2409ZM47.457 26.7405C47.2296 26.5525 47.0637 26.3382 46.9564 26.0979L46.7448 26.1924C46.8681 26.4684 47.0572 26.7106 47.3093 26.9191L47.457 26.7405ZM46.9567 26.0986C46.8493 25.8537 46.7936 25.559 46.7936 25.2115H46.5619C46.5619 25.5832 46.6214 25.911 46.7445 26.1917L46.9567 26.0986ZM46.7936 25.2115C46.7936 24.5579 47.0634 24.0215 47.6132 23.5948L47.4712 23.4118C46.8684 23.8796 46.5619 24.4819 46.5619 25.2115H46.7936ZM47.6132 23.5948C48.1647 23.1669 48.8801 22.9483 49.7691 22.9483V22.7166C48.8415 22.7166 48.0724 22.9453 47.4712 23.4118L47.6132 23.5948ZM49.7691 22.9483C50.7431 22.9483 51.5166 23.1702 52.0998 23.6033L52.2379 23.4172C51.604 22.9466 50.7776 22.7166 49.7691 22.7166V22.9483ZM52.1006 23.6038C52.683 24.0286 52.9728 24.6065 52.9728 25.3498H53.2045C53.2045 24.5348 52.8812 23.8863 52.2371 23.4166L52.1006 23.6038ZM53.0887 25.234H51.09V25.4657H53.0887V25.234ZM51.2059 25.3498C51.2059 25.0181 51.0689 24.7394 50.8042 24.5206L50.6566 24.6991C50.8713 24.8767 50.9741 25.0914 50.9741 25.3498H51.2059ZM50.8051 24.5213C50.5434 24.3006 50.196 24.1966 49.776 24.1966V24.4283C50.1582 24.4283 50.4471 24.5225 50.6557 24.6984L50.8051 24.5213ZM49.776 24.1966C49.4044 24.1966 49.0907 24.2787 48.8446 24.4531L48.9785 24.6421C49.175 24.503 49.4376 24.4283 49.776 24.4283V24.1966ZM48.8446 24.4531C48.598 24.6277 48.4637 24.8565 48.4637 25.1354H48.6954C48.6954 24.944 48.7825 24.781 48.9785 24.6421L48.8446 24.4531ZM48.4637 25.1354C48.4637 25.4171 48.6055 25.6423 48.8629 25.807L48.9878 25.6119C48.7842 25.4815 48.6954 25.324 48.6954 25.1354H48.4637ZM48.8643 25.8079C49.1109 25.9608 49.5083 26.1025 50.0453 26.2368L50.1015 26.012C49.5689 25.8788 49.2009 25.744 48.9864 25.611L48.8643 25.8079ZM50.0486 26.2376C51.1163 26.4713 51.8602 26.7909 52.2988 27.1856L52.4538 27.0134C51.9703 26.5782 51.179 26.2478 50.0982 26.0112L50.0486 26.2376ZM52.2993 27.186C52.7369 27.576 52.959 28.1029 52.959 28.78H53.1907C53.1907 28.0464 52.9471 27.453 52.4534 27.013L52.2993 27.186ZM52.959 28.78C52.959 29.4634 52.6922 29.9979 52.1553 30.3951L52.2931 30.5814C52.8904 30.1395 53.1907 29.5352 53.1907 28.78H52.959ZM52.1558 30.3947C51.615 30.7904 50.8674 30.9948 49.9005 30.9948V31.2265C50.8976 31.2265 51.6991 31.016 52.2926 30.5817L52.1558 30.3947ZM49.9005 30.9948C49.2446 30.9948 48.6555 30.8885 48.1317 30.6781L48.0454 30.8931C48.6004 31.1161 49.2194 31.2265 49.9005 31.2265V30.9948ZM48.1317 30.6781C47.6089 30.4681 47.2104 30.1713 46.9301 29.7902L46.7435 29.9276C47.0533 30.3488 47.4893 30.6698 48.0454 30.8931L48.1317 30.6781ZM46.9306 29.7909C46.656 29.4117 46.517 28.9613 46.517 28.4343H46.2853C46.2853 29.0045 46.4367 29.5038 46.743 29.9268L46.9306 29.7909ZM46.4011 28.5501H48.4067V28.3184H46.4011V28.5501ZM48.2908 28.4343C48.2908 28.8871 48.4308 29.2375 48.7332 29.455L48.8685 29.2669C48.6454 29.1064 48.5225 28.839 48.5225 28.4343H48.2908ZM48.734 29.4556C49.0297 29.6646 49.4567 29.7604 49.9973 29.7604V29.5287C49.4775 29.5287 49.1069 29.4354 48.8678 29.2664L48.734 29.4556ZM49.9973 29.7604C50.3714 29.7604 50.6814 29.6838 50.9151 29.5176L50.7808 29.3288C50.5995 29.4577 50.3425 29.5287 49.9973 29.5287V29.7604ZM50.9141 29.5183C51.1552 29.3506 51.2819 29.1201 51.2819 28.8354H51.0502C51.0502 29.0393 50.9648 29.2008 50.7818 29.3281L50.9141 29.5183ZM62.636 22.9431H62.7519V22.8273H62.636V22.9431ZM55.8655 22.9431V22.8273H55.7496V22.9431H55.8655ZM57.871 22.9431H57.9869V22.8273H57.871V22.9431ZM57.871 28.2614H57.7551L57.7553 28.2652L57.871 28.2614ZM60.2777 29.195L60.2011 29.1081L60.2002 29.1089L60.2777 29.195ZM60.6304 22.9431V22.8273H60.5146V22.9431H60.6304ZM62.5201 22.9431V28.1576H62.7519V22.9431H62.5201ZM62.5201 28.1576C62.5201 29.0476 62.233 29.7354 61.6671 30.2354L61.8206 30.4091C62.4442 29.858 62.7519 29.1026 62.7519 28.1576H62.5201ZM61.6671 30.2354C61.0998 30.7368 60.3029 30.9948 59.2611 30.9948V31.2265C60.3402 31.2265 61.1984 30.9589 61.8206 30.4091L61.6671 30.2354ZM59.2611 30.9948C58.2242 30.9948 57.4244 30.7369 56.8475 30.2349L56.6954 30.4097C57.3264 30.9588 58.1864 31.2265 59.2611 31.2265V30.9948ZM56.8475 30.2349C56.2725 29.7345 55.9813 29.0491 55.9813 28.1645H55.7496C55.7496 29.1057 56.0624 29.8588 56.6954 30.4097L56.8475 30.2349ZM55.9813 28.1645V22.9431H55.7496V28.1645H55.9813ZM55.8655 23.059H57.871V22.8273H55.8655V23.059ZM57.7552 22.9431V28.2614H57.9869V22.9431H57.7552ZM57.7553 28.2652C57.7698 28.7007 57.8997 29.0464 58.162 29.2813C58.4227 29.5148 58.7956 29.622 59.2611 29.622V29.3903C58.8276 29.3903 58.5192 29.2902 58.3166 29.1087C58.1156 28.9286 58 28.6519 57.9868 28.2575L57.7553 28.2652ZM59.2611 29.622C59.7244 29.622 60.0957 29.5147 60.3552 29.2811L60.2002 29.1089C59.9987 29.2902 59.6922 29.3903 59.2611 29.3903V29.622ZM60.3544 29.2819C60.6249 29.0431 60.7463 28.6624 60.7463 28.1715H60.5146C60.5146 28.6303 60.4008 28.9319 60.2011 29.1081L60.3544 29.2819ZM60.7463 28.1715V22.9431H60.5146V28.1715H60.7463ZM60.6304 23.059H62.636V22.8273H60.6304V23.059ZM65.6134 31H65.4975V31.1159H65.6134V31ZM65.6134 22.9431V22.8273H65.4975V22.9431H65.6134ZM71.2013 23.5171L71.1372 23.6137L71.1378 23.614L71.2013 23.5171ZM71.7477 26.242L71.6521 26.1764L71.6519 26.1767L71.7477 26.242ZM70.8486 26.9128L70.8089 26.8039L70.4567 26.9324L70.82 27.025L70.8486 26.9128ZM71.886 27.5698L71.793 27.6389L71.886 27.5698ZM71.4226 30.4467L71.4872 30.5429L71.4878 30.5425L71.4226 30.4467ZM67.6189 27.6459V27.53H67.5031V27.6459H67.6189ZM67.6189 29.3955H67.5031V29.5114H67.6189V29.3955ZM69.9288 29.1673L69.9963 29.2615L69.9977 29.2605L69.9288 29.1673ZM69.1888 27.6459L69.1919 27.53H69.1888V27.6459ZM67.6189 26.2973H67.5031V26.4131H67.6189V26.2973ZM69.7628 24.7689L69.6955 24.8632L69.6981 24.865L69.7628 24.7689ZM67.6189 24.5614V24.4456H67.5031V24.5614H67.6189ZM65.7292 31V22.9431H65.4975V31H65.7292ZM65.6134 23.059H68.7255V22.8273H65.6134V23.059ZM68.7255 23.059C69.7886 23.059 70.5877 23.2488 71.1372 23.6137L71.2654 23.4206C70.6623 23.0202 69.8109 22.8273 68.7255 22.8273V23.059ZM71.1378 23.614C71.6795 23.9694 71.9499 24.4829 71.9499 25.17H72.1816C72.1816 24.4095 71.8757 23.821 71.2649 23.4203L71.1378 23.614ZM71.9499 25.17C71.9499 25.5544 71.8499 25.8884 71.6521 26.1764L71.8432 26.3075C72.0696 25.9777 72.1816 25.5971 72.1816 25.17H71.9499ZM71.6519 26.1767C71.4599 26.4584 71.1812 26.6682 70.8089 26.8039L70.8883 27.0216C71.2998 26.8715 71.6205 26.6341 71.8434 26.3072L71.6519 26.1767ZM70.82 27.025C71.2503 27.1348 71.5716 27.3408 71.793 27.6389L71.979 27.5007C71.7209 27.1533 71.3505 26.9213 70.8772 26.8005L70.82 27.025ZM71.793 27.6389C72.017 27.9405 72.1297 28.2894 72.1297 28.6901H72.3614C72.3614 28.2425 72.2344 27.8446 71.979 27.5007L71.793 27.6389ZM72.1297 28.6901C72.1297 29.4583 71.8677 30.0036 71.3574 30.351L71.4878 30.5425C72.0748 30.1429 72.3614 29.5172 72.3614 28.6901H72.1297ZM71.358 30.3506C70.8366 30.7011 70.0657 30.8841 69.0298 30.8841V31.1159C70.087 31.1159 70.9113 30.9301 71.4872 30.5429L71.358 30.3506ZM69.0298 30.8841H65.6134V31.1159H69.0298V30.8841ZM67.5031 27.6459V29.3955H67.7348V27.6459H67.5031ZM67.6189 29.5114H69.0298V29.2797H67.6189V29.5114ZM69.0298 29.5114C69.4301 29.5114 69.7571 29.4331 69.9963 29.2615L69.8613 29.0732C69.6763 29.2059 69.4039 29.2797 69.0298 29.2797V29.5114ZM69.9977 29.2605C70.2379 29.0829 70.3628 28.8438 70.3628 28.5518H70.1311C70.1311 28.767 70.0439 28.9382 69.8599 29.0742L69.9977 29.2605ZM70.3628 28.5518C70.3628 28.2348 70.2663 27.9767 70.0578 27.7982C69.8531 27.6229 69.5579 27.5396 69.1918 27.53L69.1858 27.7617C69.5251 27.7705 69.7591 27.8475 69.9071 27.9742C70.0512 28.0976 70.1311 28.2834 70.1311 28.5518H70.3628ZM69.1888 27.53H67.6189V27.7617H69.1888V27.53ZM67.6189 26.4131H68.8499V26.1814H67.6189V26.4131ZM68.8499 26.4131C69.2633 26.4131 69.5939 26.3417 69.8239 26.1814C70.0615 26.0157 70.1761 25.7664 70.1761 25.4536H69.9444C69.9444 25.7032 69.8572 25.8757 69.6914 25.9913C69.518 26.1122 69.2435 26.1814 68.8499 26.1814V26.4131ZM70.1761 25.4536C70.1761 25.1071 70.0684 24.8352 69.8276 24.6728L69.6981 24.865C69.8538 24.97 69.9444 25.1545 69.9444 25.4536H70.1761ZM69.8302 24.6746C69.6075 24.5156 69.281 24.4456 68.8707 24.4456V24.6773C69.2626 24.6773 69.5309 24.7456 69.6955 24.8632L69.8302 24.6746ZM68.8707 24.4456H67.6189V24.6773H68.8707V24.4456ZM67.5031 24.5614V26.2973H67.7348V24.5614H67.5031ZM77.7196 22.9431L77.8282 22.9029L77.8002 22.8273H77.7196V22.9431ZM79.732 28.372L79.6234 28.4123L79.7324 28.7063L79.8408 28.412L79.732 28.372ZM81.7307 22.9431V22.8273H81.6499L81.622 22.9031L81.7307 22.9431ZM84.3794 22.9431H84.4953V22.8273H84.3794V22.9431ZM84.3794 31V31.1159H84.4953V31H84.3794ZM82.3669 31H82.2511V31.1159H82.3669V31ZM82.3669 29.3679L82.2511 29.3622V29.3679H82.3669ZM82.5744 25.1354L82.6901 25.1411L82.4658 25.0951L82.5744 25.1354ZM80.396 31V31.1159H80.4765L80.5046 31.0403L80.396 31ZM79.0612 31L78.9526 31.0404L78.9807 31.1159H79.0612V31ZM76.8897 25.1562L76.9983 25.1158L76.7739 25.1619L76.8897 25.1562ZM77.0971 29.3679H77.2131L77.2128 29.3622L77.0971 29.3679ZM77.0971 31V31.1159H77.213V31H77.0971ZM75.0846 31H74.9688V31.1159H75.0846V31ZM75.0846 22.9431V22.8273H74.9688V22.9431H75.0846ZM77.6109 22.9834L79.6234 28.4123L79.8407 28.3317L77.8282 22.9029L77.6109 22.9834ZM79.8408 28.412L81.8394 22.9832L81.622 22.9031L79.6233 28.332L79.8408 28.412ZM81.7307 23.059H84.3794V22.8273H81.7307V23.059ZM84.2636 22.9431V31H84.4953V22.9431H84.2636ZM84.3794 30.8841H82.3669V31.1159H84.3794V30.8841ZM82.4828 31V29.3679H82.2511V31H82.4828ZM82.4827 29.3736L82.6901 25.1411L82.4587 25.1298L82.2512 29.3622L82.4827 29.3736ZM82.4658 25.0951L80.2873 30.9597L80.5046 31.0403L82.683 25.1758L82.4658 25.0951ZM80.396 30.8841H79.0612V31.1159H80.396V30.8841ZM79.1698 30.9596L76.9983 25.1158L76.7811 25.1965L78.9526 31.0404L79.1698 30.9596ZM76.7739 25.1619L76.9814 29.3736L77.2128 29.3622L77.0054 25.1505L76.7739 25.1619ZM76.9813 29.3679V31H77.213V29.3679H76.9813ZM77.0971 30.8841H75.0846V31.1159H77.0971V30.8841ZM75.2005 31V22.9431H74.9688V31H75.2005ZM75.0846 23.059H77.7196V22.8273H75.0846V23.059ZM89.5283 31V31.1159H89.6442V31H89.5283ZM87.5228 31H87.4069V31.1159H87.5228V31ZM87.5228 22.9431V22.8273H87.4069V22.9431H87.5228ZM89.5283 22.9431H89.6442V22.8273H89.5283V22.9431ZM89.5283 30.8841H87.5228V31.1159H89.5283V30.8841ZM87.6386 31V22.9431H87.4069V31H87.6386ZM87.5228 23.059H89.5283V22.8273H87.5228V23.059ZM89.4125 22.9431V31H89.6442V22.9431H89.4125ZM99.3938 24.5614V24.6773H99.5097V24.5614H99.3938ZM96.7797 24.5614V24.4456H96.6638V24.5614H96.7797ZM96.7797 31V31.1159H96.8955V31H96.7797ZM94.7741 31H94.6582V31.1159H94.7741V31ZM94.7741 24.5614H94.8899V24.4456H94.7741V24.5614ZM92.2083 24.5614H92.0925V24.6773H92.2083V24.5614ZM92.2083 22.9431V22.8273H92.0925V22.9431H92.2083ZM99.3938 22.9431H99.5097V22.8273H99.3938V22.9431ZM99.3938 24.4456H96.7797V24.6773H99.3938V24.4456ZM96.6638 24.5614V31H96.8955V24.5614H96.6638ZM96.7797 30.8841H94.7741V31.1159H96.7797V30.8841ZM94.8899 31V24.5614H94.6582V31H94.8899ZM94.7741 24.4456H92.2083V24.6773H94.7741V24.4456ZM92.3242 24.5614V22.9431H92.0925V24.5614H92.3242ZM92.2083 23.059H99.3938V22.8273H92.2083V23.059ZM99.278 22.9431V24.5614H99.5097V22.9431H99.278Z" fill="#0D3475"/>
<rect x="0.5" y="0.5" width="146" height="53" stroke="#0D3475"/>
</svg>
