<svg width="629" height="268" viewBox="0 0 629 268" fill="none" xmlns="http://www.w3.org/2000/svg">
<path d="M73.1848 126.401V129.401H76.1848V126.401H73.1848ZM46.5613 126.401V123.401H43.5613V126.401H46.5613ZM46.5613 198.81V201.81H49.5613V198.81H46.5613ZM28.6531 198.81H25.6531V201.81H28.6531V198.81ZM28.6531 126.401H31.6531V123.401H28.6531V126.401ZM2.38776 126.401H-0.612243V129.401H2.38776V126.401ZM2.38776 111.895V108.895H-0.612243V111.895H2.38776ZM73.1848 111.895H76.1848V108.895H73.1848V111.895ZM73.1848 123.401H46.5613V129.401H73.1848V123.401ZM43.5613 126.401V198.81H49.5613V126.401H43.5613ZM46.5613 195.81H28.6531V201.81H46.5613V195.81ZM31.6531 198.81V126.401H25.6531V198.81H31.6531ZM28.6531 123.401H2.38776V129.401H28.6531V123.401ZM5.38776 126.401V111.895H-0.612243V126.401H5.38776ZM2.38776 114.895H73.1848V108.895H2.38776V114.895ZM70.1848 111.895V126.401H76.1848V111.895H70.1848ZM100.525 198.81V201.81H103.525V198.81H100.525ZM83.2133 198.81H80.2133V201.81H83.2133V198.81ZM83.2133 134.221V131.221H80.2133V134.221H83.2133ZM100.525 134.221H103.525V131.221H100.525V134.221ZM84.7654 111.119L82.694 108.949L82.6815 108.961L82.6692 108.973L84.7654 111.119ZM98.8531 123.954L96.8062 121.76L96.7939 121.772L96.7817 121.783L98.8531 123.954ZM84.8251 123.954L82.7536 126.124L82.7658 126.135L82.7781 126.147L84.8251 123.954ZM100.525 195.81H83.2133V201.81H100.525V195.81ZM86.2133 198.81V134.221H80.2133V198.81H86.2133ZM83.2133 137.221H100.525V131.221H83.2133V137.221ZM97.5246 134.221V198.81H103.525V134.221H97.5246ZM85.1985 117.507C85.1985 115.655 85.7784 114.323 86.8616 113.265L82.6692 108.973C80.3299 111.258 79.1985 114.185 79.1985 117.507H85.1985ZM86.8368 113.289C87.9063 112.268 89.4664 111.612 91.869 111.612V105.612C88.3021 105.612 85.1264 106.627 82.694 108.949L86.8368 113.289ZM91.869 111.612C94.2191 111.612 95.7644 112.261 96.8414 113.289L100.984 108.949C98.5592 106.634 95.4086 105.612 91.869 105.612V111.612ZM96.8414 113.289C97.9555 114.353 98.5394 115.677 98.5394 117.507H104.539C104.539 114.163 103.372 111.229 100.984 108.949L96.8414 113.289ZM98.5394 117.507C98.5394 119.369 97.9417 120.701 96.8062 121.76L100.9 126.147C103.346 123.864 104.539 120.897 104.539 117.507H98.5394ZM96.7817 121.783C95.6971 122.819 94.1666 123.461 91.869 123.461V129.461C95.3815 129.461 98.5071 128.431 100.925 126.124L96.7817 121.783ZM91.869 123.461C89.5735 123.461 88.0065 122.819 86.872 121.76L82.7781 126.147C85.2253 128.431 88.3542 129.461 91.869 129.461V123.461ZM86.8965 121.783C85.7923 120.729 85.1985 119.391 85.1985 117.507H79.1985C79.1985 120.876 80.3558 123.835 82.7536 126.124L86.8965 121.783ZM130.968 134.221L133.96 133.998L133.754 131.221H130.968V134.221ZM131.506 141.444L128.514 141.666L129.072 149.174L133.831 143.34L131.506 141.444ZM167.203 142.877L164.49 144.159L166.714 148.862L169.671 144.582L167.203 142.877ZM202.243 139.175L199.94 141.098L199.945 141.104L199.949 141.109L202.243 139.175ZM207.377 198.81V201.81H210.377V198.81H207.377ZM190.065 198.81H187.065V201.81H190.065V198.81ZM187.916 149.622L185.616 151.548L185.627 151.561L185.639 151.574L187.916 149.622ZM169.59 154.457L166.808 153.335L166.59 153.877L166.59 154.461L169.59 154.457ZM169.65 198.81V201.81H172.654L172.65 198.806L169.65 198.81ZM152.399 198.81H149.399V201.81H152.399V198.81ZM132.043 153.144L129.402 151.72L129.043 152.387V153.144H132.043ZM132.043 198.81V201.81H135.043V198.81H132.043ZM114.791 198.81H111.791V201.81H114.791V198.81ZM114.791 134.221V131.221H111.791V134.221H114.791ZM127.977 134.443L128.514 141.666L134.497 141.221L133.96 133.998L127.977 134.443ZM133.831 143.34C137.789 138.487 143.092 136.027 150.071 136.027V130.027C141.449 130.027 134.376 133.179 129.181 139.548L133.831 143.34ZM150.071 136.027C153.84 136.027 156.801 136.77 159.096 138.09C161.367 139.396 163.172 141.37 164.49 144.159L169.915 141.594C168.129 137.817 165.527 134.866 162.087 132.889C158.672 130.925 154.618 130.027 150.071 130.027V136.027ZM169.671 144.582C173.614 138.875 179.131 136.027 186.603 136.027V130.027C177.282 130.027 169.865 133.745 164.734 141.171L169.671 144.582ZM186.603 136.027C193.015 136.027 197.254 137.881 199.94 141.098L204.546 137.253C200.387 132.272 194.2 130.027 186.603 130.027V136.027ZM199.949 141.109C202.725 144.401 204.377 149.704 204.377 157.561H210.377C210.377 149.023 208.606 142.068 204.537 137.242L199.949 141.109ZM204.377 157.561V198.81H210.377V157.561H204.377ZM207.377 195.81H190.065V201.81H207.377V195.81ZM193.065 198.81V157.621H187.065V198.81H193.065ZM193.065 157.621C193.065 153.683 192.316 150.145 190.194 147.67L185.639 151.574C186.382 152.442 187.065 154.236 187.065 157.621H193.065ZM190.217 147.696C187.939 144.975 184.301 144.055 180.335 144.055V150.055C183.613 150.055 185.029 150.846 185.616 151.548L190.217 147.696ZM180.335 144.055C177.258 144.055 174.447 144.795 172.067 146.435C169.693 148.071 167.974 150.445 166.808 153.335L172.373 155.579C173.197 153.535 174.263 152.208 175.471 151.376C176.672 150.548 178.239 150.055 180.335 150.055V144.055ZM166.59 154.461L166.65 198.814L172.65 198.806L172.59 154.453L166.59 154.461ZM169.65 195.81H152.399V201.81H169.65V195.81ZM155.399 198.81V157.681H149.399V198.81H155.399ZM155.399 157.681C155.399 153.669 154.631 150.066 152.441 147.579L147.939 151.545C148.693 152.402 149.399 154.211 149.399 157.681H155.399ZM152.441 147.579C150.136 144.962 146.572 144.055 142.668 144.055V150.055C145.849 150.055 147.299 150.819 147.939 151.545L152.441 147.579ZM142.668 144.055C139.802 144.055 137.157 144.652 134.849 145.974C132.532 147.302 130.727 149.264 129.402 151.72L134.684 154.568C135.548 152.965 136.608 151.882 137.833 151.18C139.067 150.473 140.64 150.055 142.668 150.055V144.055ZM129.043 153.144V198.81H135.043V153.144H129.043ZM132.043 195.81H114.791V201.81H132.043V195.81ZM117.791 198.81V134.221H111.791V198.81H117.791ZM114.791 137.221H130.968V131.221H114.791V137.221ZM227.255 191.288L225.155 193.431L225.162 193.438L227.255 191.288ZM222.121 149.025L224.813 150.35L224.817 150.341L222.121 149.025ZM232.747 137.206L234.29 139.778L234.297 139.774L232.747 137.206ZM269.339 141.384L267.117 143.4L267.125 143.408L269.339 141.384ZM276.98 172.127V175.127H279.98V172.127H276.98ZM235.851 172.127V169.127H232.428L232.877 172.519L235.851 172.127ZM240.865 182.275L238.841 184.489L238.849 184.496L238.856 184.503L240.865 182.275ZM267.13 178.872L269.368 176.874L266.97 174.188L264.761 177.031L267.13 178.872ZM275.607 188.363L278.057 190.094L279.434 188.145L277.844 186.365L275.607 188.363ZM265.101 196.959L266.353 199.685L266.363 199.681L266.373 199.676L265.101 196.959ZM240.089 150.458L237.893 148.413L237.884 148.424L237.874 148.434L240.089 150.458ZM236.03 160.367L233.058 159.954L232.584 163.367H236.03V160.367ZM260.027 160.367V163.367H263.027V160.367H260.027ZM260.027 158.994H263.027V158.963L263.026 158.931L260.027 158.994ZM256.923 150.159L254.74 152.218L254.75 152.228L254.76 152.238L256.923 150.159ZM250.416 197.004C241.61 197.004 234.679 194.328 229.347 189.138L225.162 193.438C231.77 199.869 240.279 203.004 250.416 203.004V197.004ZM229.354 189.146C224.096 183.993 221.36 177.076 221.36 168.067H215.36C215.36 178.4 218.554 186.963 225.155 193.431L229.354 189.146ZM221.36 168.067V166.396H215.36V168.067H221.36ZM221.36 166.396C221.36 160.303 222.536 154.976 224.813 150.35L219.429 147.7C216.692 153.261 215.36 159.516 215.36 166.396H221.36ZM224.817 150.341C227.088 145.691 230.246 142.204 234.29 139.778L231.203 134.633C226.094 137.699 222.168 142.092 219.425 147.708L224.817 150.341ZM234.297 139.774C238.402 137.296 243.11 136.027 248.506 136.027V130.027C242.122 130.027 236.323 131.543 231.197 134.637L234.297 139.774ZM248.506 136.027C256.656 136.027 262.732 138.566 267.117 143.4L271.561 139.369C265.838 133.06 258.025 130.027 248.506 130.027V136.027ZM267.125 143.408C271.557 148.256 273.98 155.335 273.98 165.083H279.98C279.98 154.375 277.309 145.655 271.553 139.36L267.125 143.408ZM273.98 165.083V172.127H279.98V165.083H273.98ZM276.98 169.127H235.851V175.127H276.98V169.127ZM232.877 172.519C233.514 177.343 235.467 181.405 238.841 184.489L242.889 180.06C240.691 178.051 239.302 175.347 238.825 171.734L232.877 172.519ZM238.856 184.503C242.305 187.612 246.614 189.095 251.55 189.095V183.095C247.891 183.095 245.076 182.031 242.874 180.046L238.856 184.503ZM251.55 189.095C259.027 189.095 265.134 186.332 269.499 180.712L264.761 177.031C261.645 181.043 257.366 183.095 251.55 183.095V189.095ZM264.893 180.87L273.369 190.362L277.844 186.365L269.368 176.874L264.893 180.87ZM273.157 186.632C270.896 189.831 267.817 192.374 263.828 194.243L266.373 199.676C271.219 197.406 275.144 194.218 278.057 190.094L273.157 186.632ZM263.848 194.233C259.863 196.064 255.402 197.004 250.416 197.004V203.004C256.175 203.004 261.503 201.914 266.353 199.685L263.848 194.233ZM248.446 143.995C244.27 143.995 240.662 145.44 237.893 148.413L242.285 152.502C243.814 150.859 245.777 149.995 248.446 149.995V143.995ZM237.874 148.434C235.225 151.333 233.707 155.281 233.058 159.954L239.001 160.78C239.546 156.857 240.735 154.198 242.304 152.481L237.874 148.434ZM236.03 163.367H260.027V157.367H236.03V163.367ZM263.027 160.367V158.994H257.027V160.367H263.027ZM263.026 158.931C262.936 154.612 261.751 150.852 259.085 148.08L254.76 152.238C256.074 153.605 256.958 155.735 257.027 159.056L263.026 158.931ZM259.105 148.101C256.407 145.241 252.703 143.995 248.446 143.995V149.995C251.512 149.995 253.458 150.859 254.74 152.218L259.105 148.101ZM337.927 118.342H340.927V115.342H337.927V118.342ZM337.927 134.221H334.927V137.221H337.927V134.221ZM348.971 134.221H351.971V131.221H348.971V134.221ZM348.971 146.876V149.876H351.971V146.876H348.971ZM337.927 146.876V143.876H334.927V146.876H337.927ZM339.3 184.244L341.547 182.257L339.3 184.244ZM349.627 185.379H352.627V181.758L349.07 182.431L349.627 185.379ZM349.627 198.452L350.505 201.32L352.627 200.671V198.452H349.627ZM320.676 181.678H317.676V181.707L317.676 181.736L320.676 181.678ZM320.676 146.876H323.676V143.876H320.676V146.876ZM311.244 146.876H308.244V149.876H311.244V146.876ZM311.244 134.221V131.221H308.244V134.221H311.244ZM320.676 134.221V137.221H323.676V134.221H320.676ZM320.676 118.342V115.342H317.676V118.342H320.676ZM334.927 118.342V134.221H340.927V118.342H334.927ZM337.927 137.221H348.971V131.221H337.927V137.221ZM345.971 134.221V146.876H351.971V134.221H345.971ZM348.971 143.876H337.927V149.876H348.971V143.876ZM334.927 146.876V179.111H340.927V146.876H334.927ZM334.927 179.111C334.927 181.743 335.406 184.369 337.053 186.232L341.547 182.257C341.364 182.05 340.927 181.254 340.927 179.111H334.927ZM337.053 186.232C338.873 188.289 341.792 188.796 344.553 188.796V182.796C343.438 182.796 342.661 182.682 342.15 182.531C341.645 182.382 341.53 182.237 341.547 182.257L337.053 186.232ZM344.553 188.796C346.602 188.796 348.487 188.648 350.185 188.326L349.07 182.431C347.823 182.667 346.325 182.796 344.553 182.796V188.796ZM346.627 185.379V198.452H352.627V185.379H346.627ZM348.75 195.583C345.655 196.529 342.469 197.004 339.181 197.004V203.004C343.056 203.004 346.834 202.443 350.505 201.32L348.75 195.583ZM339.181 197.004C333.607 197.004 329.924 195.6 327.592 193.29C325.255 190.976 323.786 187.268 323.675 181.619L317.676 181.736C317.805 188.304 319.539 193.76 323.37 197.554C327.206 201.353 332.657 203.004 339.181 203.004V197.004ZM323.676 181.678V146.876H317.676V181.678H323.676ZM320.676 143.876H311.244V149.876H320.676V143.876ZM314.244 146.876V134.221H308.244V146.876H314.244ZM311.244 137.221H320.676V131.221H311.244V137.221ZM323.676 134.221V118.342H317.676V134.221H323.676ZM320.676 121.342H337.927V115.342H320.676V121.342ZM357.805 148.786L355.114 147.462L357.805 148.786ZM368.431 137.146L366.907 134.562L366.897 134.568L368.431 137.146ZM405.919 141.026L403.829 143.178L403.837 143.186L405.919 141.026ZM415.171 162.755L418.17 162.674L418.168 162.61L418.164 162.546L415.171 162.755ZM415.291 167.172H418.291V167.131L418.29 167.091L415.291 167.172ZM406.993 191.05L409.194 193.089L409.2 193.081L406.993 191.05ZM362.402 191.05L360.201 193.089L360.209 193.096L362.402 191.05ZM374.818 181.26L372.369 182.992L372.374 182.999L372.379 183.006L374.818 181.26ZM394.517 181.319L396.932 183.1L396.937 183.093L396.942 183.086L394.517 181.319ZM374.818 151.95L377.267 153.682L377.272 153.675L377.277 153.668L374.818 151.95ZM357.104 165.918C357.104 159.903 358.26 154.656 360.497 150.111L355.114 147.462C352.416 152.945 351.104 159.119 351.104 165.918H357.104ZM360.497 150.111C362.719 145.595 365.868 142.161 369.965 139.724L366.897 134.568C361.761 137.623 357.827 141.948 355.114 147.462L360.497 150.111ZM369.955 139.73C374.09 137.291 378.942 136.027 384.608 136.027V130.027C378.017 130.027 372.084 131.509 366.907 134.562L369.955 139.73ZM384.608 136.027C392.66 136.027 398.976 138.466 403.829 143.178L408.009 138.874C401.878 132.921 393.987 130.027 384.608 130.027V136.027ZM403.837 143.186C408.733 147.906 411.583 154.399 412.178 162.963L418.164 162.546C417.486 152.804 414.167 144.811 408.001 138.866L403.837 143.186ZM412.172 162.836L412.292 167.253L418.29 167.091L418.17 162.674L412.172 162.836ZM412.291 167.172C412.291 176.497 409.704 183.675 404.786 189.018L409.2 193.081C415.346 186.405 418.291 177.665 418.291 167.172H412.291ZM404.793 189.01C399.913 194.276 393.337 197.004 384.727 197.004V203.004C394.742 203.004 403.01 199.762 409.194 193.089L404.793 189.01ZM384.727 197.004C376.118 197.004 369.517 194.276 364.595 189.003L360.209 193.096C366.43 199.762 374.712 203.004 384.727 203.004V197.004ZM364.602 189.01C359.709 183.73 357.104 176.411 357.104 166.694H351.104C351.104 177.512 354.031 186.43 360.201 193.089L364.602 189.01ZM357.104 166.694V165.918H351.104V166.694H357.104ZM368.356 167.172C368.356 173.611 369.558 179.017 372.369 182.992L377.267 179.527C375.462 176.975 374.356 172.99 374.356 167.172H368.356ZM372.379 183.006C375.304 187.091 379.557 189.095 384.727 189.095V183.095C381.302 183.095 378.949 181.876 377.257 179.513L372.379 183.006ZM384.727 189.095C389.796 189.095 393.982 187.1 396.932 183.1L392.103 179.539C390.357 181.906 388.016 183.095 384.727 183.095V189.095ZM396.942 183.086C399.855 179.086 401.039 173.167 401.039 165.918H395.039C395.039 172.758 393.875 177.106 392.092 179.553L396.942 183.086ZM401.039 165.918C401.039 159.572 399.807 154.214 396.962 150.212L392.072 153.688C393.923 156.292 395.039 160.247 395.039 165.918H401.039ZM396.962 150.212C394.019 146.071 389.779 143.995 384.608 143.995V149.995C387.953 149.995 390.32 151.223 392.072 153.688L396.962 150.212ZM384.608 143.995C379.464 143.995 375.259 146.082 372.359 150.232L377.277 153.668C378.994 151.212 381.315 149.995 384.608 149.995V143.995ZM372.369 150.218C369.526 154.237 368.356 160.066 368.356 167.172H374.356C374.356 160.508 375.494 156.189 377.267 153.682L372.369 150.218Z" fill="#0D3475"/>
<path d="M494.864 67.5236C491.428 67.7831 488.265 68.1926 485.374 68.7521C477.716 70.234 474.518 74.2373 475.781 80.7622L476.609 85.0405L489.209 82.6022L491.613 95.0268L479.013 97.4651L488.88 148.453L471.884 151.742L462.017 100.754L452.581 102.58L450.177 90.1553L459.613 88.3294L458.66 83.4065C457.317 76.046 458.529 69.9541 462.298 65.1309C466.059 60.2686 472.081 57.036 480.364 55.4331C486.264 54.2915 495.957 53.0642 509.444 51.7514L526.739 141.127L509.744 144.416L494.864 67.5236ZM559.902 109.842L563.991 68.131L582.159 64.6153L570.842 142.807L570.081 146.42C567.894 155.436 562.445 160.788 553.732 162.474C551.27 162.95 548.698 163.063 546.015 162.812L543.531 149.977L546.121 149.536C549.325 148.916 551.614 147.967 552.987 146.688C554.4 145.401 555.337 143.537 555.797 141.097L556.78 135.496L522.263 76.2058L540.49 72.6788L559.902 109.842ZM590.534 120.148C590.012 117.452 590.488 115.09 591.96 113.062C593.471 111.027 595.594 109.744 598.329 109.215C601.103 108.678 603.551 109.076 605.674 110.408C607.835 111.733 609.177 113.743 609.699 116.439C610.213 119.096 609.734 121.439 608.261 123.466C606.782 125.455 604.635 126.722 601.822 127.266C599.048 127.803 596.604 127.425 594.489 126.132C592.367 124.799 591.048 122.805 590.534 120.148Z" fill="#0D3475"/>
</svg>
