<svg width="262" height="100" viewBox="0 0 262 100" fill="none" xmlns="http://www.w3.org/2000/svg">
<path d="M47.2344 62.5625V81.293C47.2344 84.4049 46.2578 86.8659 44.3047 88.6758C42.3646 90.4857 39.7083 91.3906 36.3359 91.3906C33.0156 91.3906 30.3789 90.5117 28.4258 88.7539C26.4727 86.9961 25.4766 84.5807 25.4375 81.5078V62.5625H31.2969V81.332C31.2969 83.194 31.7396 84.5547 32.625 85.4141C33.5234 86.2604 34.7604 86.6836 36.3359 86.6836C39.6302 86.6836 41.3034 84.9518 41.3555 81.4883V62.5625H47.2344ZM62.2148 72.3672L67.5469 62.5625H74.2852L66.0039 76.6641L74.5 91H67.6836L62.2148 81.0391L56.7461 91H49.9297L58.4258 76.6641L50.1445 62.5625H56.8828L62.2148 72.3672ZM78.875 93.4414H74.6758L85.1445 62.5625H89.3438L78.875 93.4414ZM113.953 62.5625V81.293C113.953 84.4049 112.977 86.8659 111.023 88.6758C109.083 90.4857 106.427 91.3906 103.055 91.3906C99.7344 91.3906 97.0977 90.5117 95.1445 88.7539C93.1914 86.9961 92.1953 84.5807 92.1562 81.5078V62.5625H98.0156V81.332C98.0156 83.194 98.4583 84.5547 99.3438 85.4141C100.242 86.2604 101.479 86.6836 103.055 86.6836C106.349 86.6836 108.022 84.9518 108.074 81.4883V62.5625H113.953ZM124.988 91H119.129V62.5625H124.988V91ZM140.398 91V62.5625H149.148C151.648 62.5625 153.882 63.1289 155.848 64.2617C157.827 65.3815 159.37 66.9831 160.477 69.0664C161.583 71.1367 162.137 73.4935 162.137 76.1367V77.4453C162.137 80.0885 161.59 82.4388 160.496 84.4961C159.415 86.5534 157.885 88.1484 155.906 89.2812C153.927 90.4141 151.694 90.987 149.207 91H140.398ZM146.258 67.3086V86.293H149.09C151.382 86.293 153.133 85.5443 154.344 84.0469C155.555 82.5495 156.173 80.4076 156.199 77.6211V76.1172C156.199 73.2266 155.6 71.0391 154.402 69.5547C153.204 68.0573 151.453 67.3086 149.148 67.3086H146.258ZM175.77 91.3906C172.671 91.3906 170.145 90.4401 168.191 88.5391C166.251 86.638 165.281 84.1055 165.281 80.9414V80.3945C165.281 78.2721 165.691 76.3776 166.512 74.7109C167.332 73.0312 168.491 71.7422 169.988 70.8438C171.499 69.9323 173.217 69.4766 175.145 69.4766C178.035 69.4766 180.307 70.388 181.961 72.2109C183.628 74.0339 184.461 76.6185 184.461 79.9648V82.2695H171.004C171.186 83.6497 171.733 84.7565 172.645 85.5898C173.569 86.4232 174.734 86.8398 176.141 86.8398C178.315 86.8398 180.014 86.0521 181.238 84.4766L184.012 87.582C183.165 88.7799 182.02 89.7174 180.574 90.3945C179.129 91.0586 177.527 91.3906 175.77 91.3906ZM175.125 74.0469C174.005 74.0469 173.094 74.4245 172.391 75.1797C171.701 75.9349 171.258 77.0156 171.062 78.4219H178.914V77.9727C178.888 76.7227 178.549 75.7591 177.898 75.082C177.247 74.3919 176.323 74.0469 175.125 74.0469ZM199.129 85.1602C199.129 84.4701 198.784 83.9297 198.094 83.5391C197.417 83.1354 196.323 82.7773 194.812 82.4648C189.786 81.4102 187.273 79.2747 187.273 76.0586C187.273 74.1836 188.048 72.6211 189.598 71.3711C191.16 70.1081 193.198 69.4766 195.711 69.4766C198.393 69.4766 200.535 70.1081 202.137 71.3711C203.751 72.6341 204.559 74.2747 204.559 76.293H198.914C198.914 75.4857 198.654 74.8216 198.133 74.3008C197.612 73.7669 196.798 73.5 195.691 73.5C194.741 73.5 194.005 73.7148 193.484 74.1445C192.964 74.5742 192.703 75.1211 192.703 75.7852C192.703 76.4102 192.996 76.918 193.582 77.3086C194.181 77.6862 195.184 78.0182 196.59 78.3047C197.996 78.5781 199.181 78.8906 200.145 79.2422C203.126 80.3359 204.617 82.2305 204.617 84.9258C204.617 86.8529 203.79 88.4154 202.137 89.6133C200.483 90.7982 198.348 91.3906 195.73 91.3906C193.96 91.3906 192.384 91.0781 191.004 90.4531C189.637 89.8151 188.562 88.9492 187.781 87.8555C187 86.7487 186.609 85.5573 186.609 84.2812H191.961C192.013 85.2839 192.384 86.0521 193.074 86.5859C193.764 87.1198 194.689 87.3867 195.848 87.3867C196.928 87.3867 197.742 87.1849 198.289 86.7812C198.849 86.3646 199.129 85.8242 199.129 85.1602ZM214.227 91H208.562V69.8672H214.227V91ZM208.23 64.3984C208.23 63.5521 208.51 62.8555 209.07 62.3086C209.643 61.7617 210.418 61.4883 211.395 61.4883C212.358 61.4883 213.126 61.7617 213.699 62.3086C214.272 62.8555 214.559 63.5521 214.559 64.3984C214.559 65.2578 214.266 65.9609 213.68 66.5078C213.107 67.0547 212.345 67.3281 211.395 67.3281C210.444 67.3281 209.676 67.0547 209.09 66.5078C208.517 65.9609 208.23 65.2578 208.23 64.3984ZM218.074 80.2773C218.074 77.0352 218.842 74.4245 220.379 72.4453C221.928 70.4661 224.012 69.4766 226.629 69.4766C228.947 69.4766 230.75 70.2708 232.039 71.8594L232.273 69.8672H237.391V90.2969C237.391 92.1458 236.967 93.7539 236.121 95.1211C235.288 96.4883 234.109 97.5299 232.586 98.2461C231.062 98.9622 229.279 99.3203 227.234 99.3203C225.685 99.3203 224.174 99.0078 222.703 98.3828C221.232 97.7708 220.118 96.9766 219.363 96L221.863 92.5625C223.27 94.138 224.975 94.9258 226.98 94.9258C228.478 94.9258 229.643 94.5221 230.477 93.7148C231.31 92.9206 231.727 91.7878 231.727 90.3164V89.1836C230.424 90.6549 228.712 91.3906 226.59 91.3906C224.051 91.3906 221.993 90.401 220.418 88.4219C218.855 86.4297 218.074 83.793 218.074 80.5117V80.2773ZM223.719 80.6875C223.719 82.6016 224.103 84.1055 224.871 85.1992C225.639 86.2799 226.694 86.8203 228.035 86.8203C229.754 86.8203 230.984 86.1758 231.727 84.8867V76C230.971 74.7109 229.754 74.0664 228.074 74.0664C226.72 74.0664 225.652 74.6198 224.871 75.7266C224.103 76.8333 223.719 78.487 223.719 80.6875ZM246.941 69.8672L247.117 72.3086C248.628 70.4206 250.652 69.4766 253.191 69.4766C255.431 69.4766 257.098 70.1341 258.191 71.4492C259.285 72.7643 259.845 74.7305 259.871 77.3477V91H254.227V77.4844C254.227 76.2865 253.966 75.4206 253.445 74.8867C252.924 74.3398 252.059 74.0664 250.848 74.0664C249.259 74.0664 248.068 74.7435 247.273 76.0977V91H241.629V69.8672H246.941Z" fill="#FAFAFA"/>
<g opacity="0.8">
<mask id="mask0" style="mask-type:alpha" maskUnits="userSpaceOnUse" x="24" y="30" width="237" height="41">
<path d="M47.2344 32.5625H48.2344V31.5625H47.2344V32.5625ZM44.3047 58.6758L43.625 57.9423L43.6225 57.9446L44.3047 58.6758ZM25.4375 51.5078H24.4374L24.4376 51.5205L25.4375 51.5078ZM25.4375 32.5625V31.5625H24.4375V32.5625H25.4375ZM31.2969 32.5625H32.2969V31.5625H31.2969V32.5625ZM32.625 55.4141L31.9285 56.1316L31.9339 56.1368L31.9393 56.142L32.625 55.4141ZM41.3555 51.4883L42.3554 51.5033L42.3555 51.4958V51.4883H41.3555ZM41.3555 32.5625V31.5625H40.3555V32.5625H41.3555ZM46.2344 32.5625V51.293H48.2344V32.5625H46.2344ZM46.2344 51.293C46.2344 54.1778 45.3391 56.3539 43.625 57.9423L44.9844 59.4093C47.1766 57.3779 48.2344 54.6321 48.2344 51.293H46.2344ZM43.6225 57.9446C41.9139 59.5386 39.5265 60.3906 36.3359 60.3906V62.3906C39.8902 62.3906 42.8153 61.4328 44.9868 59.407L43.6225 57.9446ZM36.3359 60.3906C33.1952 60.3906 30.8196 59.563 29.0947 58.0106L27.7568 59.4972C29.9382 61.4604 32.836 62.3906 36.3359 62.3906V60.3906ZM29.0947 58.0106C27.3846 56.4715 26.4736 54.3407 26.4374 51.4951L24.4376 51.5205C24.4795 54.8208 25.5607 57.5207 27.7568 59.4972L29.0947 58.0106ZM26.4375 51.5078V32.5625H24.4375V51.5078H26.4375ZM25.4375 33.5625H31.2969V31.5625H25.4375V33.5625ZM30.2969 32.5625V51.332H32.2969V32.5625H30.2969ZM30.2969 51.332C30.2969 53.3281 30.7693 55.0065 31.9285 56.1316L33.3215 54.6965C32.7099 54.1029 32.2969 53.0599 32.2969 51.332H30.2969ZM31.9393 56.142C33.0705 57.2076 34.5788 57.6836 36.3359 57.6836V55.6836C34.9421 55.6836 33.9764 55.3133 33.3107 54.6862L31.9393 56.142ZM36.3359 57.6836C38.1515 57.6836 39.6946 57.2037 40.7807 56.0796C41.8581 54.9644 42.3272 53.3783 42.3554 51.5033L40.3556 51.4732C40.3317 53.0618 39.9381 54.0733 39.3424 54.6899C38.7553 55.2976 37.8146 55.6836 36.3359 55.6836V57.6836ZM42.3555 51.4883V32.5625H40.3555V51.4883H42.3555ZM41.3555 33.5625H47.2344V31.5625H41.3555V33.5625ZM62.2148 42.3672L61.3363 42.8449L62.2148 44.4603L63.0933 42.8449L62.2148 42.3672ZM67.5469 32.5625V31.5625H66.9524L66.6684 32.0848L67.5469 32.5625ZM74.2852 32.5625L75.1475 33.0689L76.0321 31.5625H74.2852V32.5625ZM66.0039 46.6641L65.1416 46.1577L64.8429 46.6664L65.1436 47.1739L66.0039 46.6641ZM74.5 61V62H76.2551L75.3603 60.4902L74.5 61ZM67.6836 61L66.807 61.4813L67.0918 62H67.6836V61ZM62.2148 51.0391L63.0914 50.5578L62.2148 48.9612L61.3383 50.5578L62.2148 51.0391ZM56.7461 61V62H57.3379L57.6227 61.4813L56.7461 61ZM49.9297 61L49.0694 60.4902L48.1746 62H49.9297V61ZM58.4258 46.6641L59.2861 47.1739L59.5868 46.6664L59.2881 46.1577L58.4258 46.6641ZM50.1445 32.5625V31.5625H48.3976L49.2822 33.0689L50.1445 32.5625ZM56.8828 32.5625L57.7613 32.0848L57.4773 31.5625H56.8828V32.5625ZM63.0933 42.8449L68.4254 33.0402L66.6684 32.0848L61.3363 41.8894L63.0933 42.8449ZM67.5469 33.5625H74.2852V31.5625H67.5469V33.5625ZM73.4229 32.0561L65.1416 46.1577L66.8662 47.1705L75.1475 33.0689L73.4229 32.0561ZM65.1436 47.1739L73.6397 61.5098L75.3603 60.4902L66.8642 46.1542L65.1436 47.1739ZM74.5 60H67.6836V62H74.5V60ZM68.5602 60.5187L63.0914 50.5578L61.3383 51.5203L66.807 61.4813L68.5602 60.5187ZM61.3383 50.5578L55.8695 60.5187L57.6227 61.4813L63.0914 51.5203L61.3383 50.5578ZM56.7461 60H49.9297V62H56.7461V60ZM50.79 61.5098L59.2861 47.1739L57.5655 46.1542L49.0694 60.4902L50.79 61.5098ZM59.2881 46.1577L51.0068 32.0561L49.2822 33.0689L57.5635 47.1705L59.2881 46.1577ZM50.1445 33.5625H56.8828V31.5625H50.1445V33.5625ZM56.0043 33.0402L61.3363 42.8449L63.0933 41.8894L57.7613 32.0848L56.0043 33.0402ZM78.875 63.4414V64.4414H79.5919L79.8221 63.7625L78.875 63.4414ZM74.6758 63.4414L73.7287 63.1203L73.2808 64.4414H74.6758V63.4414ZM85.1445 32.5625V31.5625H84.4277L84.1975 32.2414L85.1445 32.5625ZM89.3438 32.5625L90.2908 32.8836L90.7387 31.5625H89.3438V32.5625ZM78.875 62.4414H74.6758V64.4414H78.875V62.4414ZM75.6228 63.7625L86.0916 32.8836L84.1975 32.2414L73.7287 63.1203L75.6228 63.7625ZM85.1445 33.5625H89.3438V31.5625H85.1445V33.5625ZM88.3967 32.2414L77.9279 63.1203L79.8221 63.7625L90.2908 32.8836L88.3967 32.2414ZM113.953 32.5625H114.953V31.5625H113.953V32.5625ZM111.023 58.6758L110.344 57.9423L110.341 57.9446L111.023 58.6758ZM92.1562 51.5078H91.1562L91.1563 51.5205L92.1562 51.5078ZM92.1562 32.5625V31.5625H91.1562V32.5625H92.1562ZM98.0156 32.5625H99.0156V31.5625H98.0156V32.5625ZM99.3438 55.4141L98.6473 56.1316L98.6526 56.1368L98.6581 56.142L99.3438 55.4141ZM108.074 51.4883L109.074 51.5033L109.074 51.4958V51.4883H108.074ZM108.074 32.5625V31.5625H107.074V32.5625H108.074ZM112.953 32.5625V51.293H114.953V32.5625H112.953ZM112.953 51.293C112.953 54.1778 112.058 56.3539 110.344 57.9423L111.703 59.4093C113.895 57.3779 114.953 54.6321 114.953 51.293H112.953ZM110.341 57.9446C108.633 59.5386 106.245 60.3906 103.055 60.3906V62.3906C106.609 62.3906 109.534 61.4328 111.706 59.407L110.341 57.9446ZM103.055 60.3906C99.9139 60.3906 97.5384 59.563 95.8135 58.0106L94.4756 59.4972C96.6569 61.4604 99.5548 62.3906 103.055 62.3906V60.3906ZM95.8135 58.0106C94.1033 56.4715 93.1923 54.3407 93.1562 51.4951L91.1563 51.5205C91.1983 54.8208 92.2795 57.5207 94.4756 59.4972L95.8135 58.0106ZM93.1562 51.5078V32.5625H91.1562V51.5078H93.1562ZM92.1562 33.5625H98.0156V31.5625H92.1562V33.5625ZM97.0156 32.5625V51.332H99.0156V32.5625H97.0156ZM97.0156 51.332C97.0156 53.3281 97.488 55.0065 98.6473 56.1316L100.04 54.6965C99.4287 54.1029 99.0156 53.0599 99.0156 51.332H97.0156ZM98.6581 56.142C99.7892 57.2076 101.298 57.6836 103.055 57.6836V55.6836C101.661 55.6836 100.695 55.3133 100.029 54.6862L98.6581 56.142ZM103.055 57.6836C104.87 57.6836 106.413 57.2037 107.499 56.0796C108.577 54.9644 109.046 53.3783 109.074 51.5033L107.074 51.4732C107.05 53.0618 106.657 54.0733 106.061 54.6899C105.474 55.2976 104.533 55.6836 103.055 55.6836V57.6836ZM109.074 51.4883V32.5625H107.074V51.4883H109.074ZM108.074 33.5625H113.953V31.5625H108.074V33.5625ZM124.988 61V62H125.988V61H124.988ZM119.129 61H118.129V62H119.129V61ZM119.129 32.5625V31.5625H118.129V32.5625H119.129ZM124.988 32.5625H125.988V31.5625H124.988V32.5625ZM124.988 60H119.129V62H124.988V60ZM120.129 61V32.5625H118.129V61H120.129ZM119.129 33.5625H124.988V31.5625H119.129V33.5625ZM123.988 32.5625V61H125.988V32.5625H123.988ZM140.398 61H139.398V62H140.398V61ZM140.398 32.5625V31.5625H139.398V32.5625H140.398ZM155.848 34.2617L155.348 35.1282L155.355 35.1321L155.848 34.2617ZM160.477 39.0664L159.593 39.5356L159.595 39.5379L160.477 39.0664ZM160.496 54.4961L159.613 54.0267L159.611 54.031L160.496 54.4961ZM155.906 59.2812L156.403 60.1491L155.906 59.2812ZM149.207 61V62L149.212 62L149.207 61ZM146.258 37.3086V36.3086H145.258V37.3086H146.258ZM146.258 56.293H145.258V57.293H146.258V56.293ZM156.199 47.6211L157.199 47.6304V47.6211H156.199ZM154.402 39.5547L153.621 40.1794L153.624 40.1827L154.402 39.5547ZM141.398 61V32.5625H139.398V61H141.398ZM140.398 33.5625H149.148V31.5625H140.398V33.5625ZM149.148 33.5625C151.492 33.5625 153.549 34.0916 155.348 35.1282L156.347 33.3952C154.214 32.1662 151.805 31.5625 149.148 31.5625V33.5625ZM155.355 35.1321C157.162 36.1544 158.573 37.6138 159.593 39.5356L161.36 38.5973C160.167 36.3523 158.491 34.6086 156.34 33.3914L155.355 35.1321ZM159.595 39.5379C160.615 41.4457 161.137 43.637 161.137 46.1367H163.137C163.137 43.35 162.552 40.8278 161.358 38.595L159.595 39.5379ZM161.137 46.1367V47.4453H163.137V46.1367H161.137ZM161.137 47.4453C161.137 49.9471 160.62 52.1324 159.613 54.0267L161.379 54.9655C162.559 52.7452 163.137 50.23 163.137 47.4453H161.137ZM159.611 54.031C158.617 55.9232 157.22 57.377 155.41 58.4134L156.403 60.1491C158.551 58.9199 160.214 57.1836 161.381 54.9611L159.611 54.031ZM155.41 58.4134C153.593 59.4528 151.532 59.9878 149.202 60L149.212 62C151.856 61.9861 154.261 61.3753 156.403 60.1491L155.41 58.4134ZM149.207 60H140.398V62H149.207V60ZM145.258 37.3086V56.293H147.258V37.3086H145.258ZM146.258 57.293H149.09V55.293H146.258V57.293ZM149.09 57.293C151.62 57.293 153.684 56.4533 155.121 54.6757L153.566 53.4181C152.582 54.6352 151.143 55.293 149.09 55.293V57.293ZM155.121 54.6757C156.525 52.9394 157.172 50.5447 157.199 47.6304L155.199 47.6117C155.174 50.2704 154.584 52.1595 153.566 53.4181L155.121 54.6757ZM157.199 47.6211V46.1172H155.199V47.6211H157.199ZM157.199 46.1172C157.199 43.1105 156.58 40.6602 155.181 38.9267L153.624 40.1827C154.621 41.4179 155.199 43.3426 155.199 46.1172H157.199ZM155.183 38.93C153.757 37.1469 151.689 36.3086 149.148 36.3086V38.3086C151.217 38.3086 152.652 38.9677 153.621 40.1794L155.183 38.93ZM149.148 36.3086H146.258V38.3086H149.148V36.3086ZM168.191 58.5391L167.492 59.2533L167.494 59.2557L168.191 58.5391ZM166.512 44.7109L167.409 45.1525L167.41 45.1498L166.512 44.7109ZM169.988 40.8438L170.503 41.7012L170.505 41.6999L169.988 40.8438ZM181.961 42.2109L181.22 42.8828L181.223 42.8857L181.961 42.2109ZM184.461 52.2695V53.2695H185.461V52.2695H184.461ZM171.004 52.2695V51.2695H169.863L170.013 52.4005L171.004 52.2695ZM172.645 55.5898L171.97 56.3279L171.975 56.3326L172.645 55.5898ZM181.238 54.4766L181.984 53.8105L181.185 52.9154L180.449 53.8631L181.238 54.4766ZM184.012 57.582L184.828 58.1591L185.288 57.5093L184.758 56.9159L184.012 57.582ZM180.574 60.3945L180.992 61.3032L180.998 61.3001L180.574 60.3945ZM172.391 45.1797L171.659 44.4982L171.652 44.5051L172.391 45.1797ZM171.062 48.4219L170.072 48.2843L169.914 49.4219H171.062V48.4219ZM178.914 48.4219V49.4219H179.914V48.4219H178.914ZM178.914 47.9727H179.914V47.9622L179.914 47.9518L178.914 47.9727ZM177.898 45.082L177.171 45.7683L177.178 45.7751L177.898 45.082ZM175.77 60.3906C172.892 60.3906 170.629 59.5165 168.889 57.8225L167.494 59.2557C169.66 61.3637 172.449 62.3906 175.77 62.3906V60.3906ZM168.891 57.8248C167.175 56.143 166.281 53.8847 166.281 50.9414H164.281C164.281 54.3262 165.328 57.1331 167.492 59.2533L168.891 57.8248ZM166.281 50.9414V50.3945H164.281V50.9414H166.281ZM166.281 50.3945C166.281 48.4034 166.665 46.6634 167.409 45.1525L165.615 44.2693C164.718 46.0918 164.281 48.1409 164.281 50.3945H166.281ZM167.41 45.1498C168.152 43.631 169.183 42.4931 170.503 41.7012L169.474 39.9863C167.799 40.9913 166.512 42.4315 165.613 44.2721L167.41 45.1498ZM170.505 41.6999C171.845 40.8912 173.382 40.4766 175.145 40.4766V38.4766C173.053 38.4766 171.152 38.9734 169.472 39.9876L170.505 41.6999ZM175.145 40.4766C177.807 40.4766 179.79 41.3057 181.22 42.8828L182.702 41.5391C180.825 39.4704 178.263 38.4766 175.145 38.4766V40.4766ZM181.223 42.8857C182.669 44.4673 183.461 46.7784 183.461 49.9648H185.461C185.461 46.4586 184.586 43.6004 182.699 41.5362L181.223 42.8857ZM183.461 49.9648V52.2695H185.461V49.9648H183.461ZM184.461 51.2695H171.004V53.2695H184.461V51.2695ZM170.013 52.4005C170.221 53.9824 170.862 55.3155 171.97 56.3279L173.319 54.8518C172.604 54.1975 172.151 53.3171 171.995 52.1386L170.013 52.4005ZM171.975 56.3326C173.107 57.3532 174.522 57.8398 176.141 57.8398V55.8398C174.947 55.8398 174.031 55.4931 173.314 54.8471L171.975 56.3326ZM176.141 57.8398C178.592 57.8398 180.596 56.9336 182.028 55.09L180.449 53.8631C179.433 55.1706 178.038 55.8398 176.141 55.8398V57.8398ZM180.492 55.1427L183.266 58.2481L184.758 56.9159L181.984 53.8105L180.492 55.1427ZM183.195 57.005C182.457 58.0489 181.452 58.8788 180.15 59.489L180.998 61.3001C182.587 60.5561 183.873 59.511 184.828 58.1591L183.195 57.005ZM180.157 59.4859C178.856 60.0837 177.398 60.3906 175.77 60.3906V62.3906C177.656 62.3906 179.402 62.0335 180.992 61.3032L180.157 59.4859ZM175.125 43.0469C173.754 43.0469 172.568 43.5213 171.659 44.4983L173.123 45.8611C173.619 45.3276 174.256 45.0469 175.125 45.0469V43.0469ZM171.652 44.5051C170.782 45.4574 170.285 46.753 170.072 48.2843L172.053 48.5594C172.231 47.2783 172.619 46.4124 173.129 45.8543L171.652 44.5051ZM171.062 49.4219H178.914V47.4219H171.062V49.4219ZM179.914 48.4219V47.9727H177.914V48.4219H179.914ZM179.914 47.9518C179.884 46.5356 179.496 45.3002 178.619 44.3889L177.178 45.7751C177.603 46.218 177.892 46.9097 177.914 47.9935L179.914 47.9518ZM178.626 44.3958C177.739 43.4557 176.521 43.0469 175.125 43.0469V45.0469C176.124 45.0469 176.756 45.3282 177.171 45.7683L178.626 44.3958ZM198.094 53.5391L197.582 54.398L197.591 54.4038L197.601 54.4093L198.094 53.5391ZM194.812 52.4648L194.607 53.4435L194.61 53.4441L194.812 52.4648ZM189.598 41.3711L190.226 42.1494L190.226 42.1488L189.598 41.3711ZM202.137 41.3711L201.517 42.1563L201.521 42.1587L202.137 41.3711ZM204.559 46.293V47.293H205.559V46.293H204.559ZM198.914 46.293H197.914V47.293H198.914V46.293ZM198.133 44.3008L197.417 44.9992L197.426 45.0079L198.133 44.3008ZM193.582 47.3086L193.027 48.1406L193.038 48.1477L193.049 48.1545L193.582 47.3086ZM196.59 48.3047L196.39 49.2846L196.399 49.2863L196.59 48.3047ZM200.145 49.2422L200.489 48.3034L200.487 48.3028L200.145 49.2422ZM202.137 59.6133L202.719 60.4262L202.723 60.4231L202.137 59.6133ZM191.004 60.4531L190.581 61.3594L190.591 61.3641L191.004 60.4531ZM187.781 57.8555L186.964 58.4322L186.968 58.4367L187.781 57.8555ZM186.609 54.2812V53.2812H185.609V54.2812H186.609ZM191.961 54.2812L192.96 54.2294L192.91 53.2812H191.961V54.2812ZM198.289 56.7812L198.883 57.5858L198.886 57.5835L198.289 56.7812ZM200.129 55.1602C200.129 54.0495 199.534 53.2051 198.586 52.6688L197.601 54.4093C198.034 54.6542 198.129 54.8906 198.129 55.1602H200.129ZM198.606 52.6801C197.78 52.1878 196.551 51.8034 195.015 51.4856L194.61 53.4441C196.095 53.7513 197.053 54.083 197.582 54.398L198.606 52.6801ZM195.018 51.4862C192.585 50.9757 190.884 50.2261 189.806 49.3102C188.766 48.427 188.273 47.3648 188.273 46.0586H186.273C186.273 47.9685 187.037 49.5821 188.511 50.8343C189.946 52.0538 192.013 52.8993 194.607 53.4435L195.018 51.4862ZM188.273 46.0586C188.273 44.5068 188.895 43.2231 190.226 42.1494L188.97 40.5928C187.202 42.0191 186.273 43.8604 186.273 46.0586H188.273ZM190.226 42.1488C191.57 41.0627 193.368 40.4766 195.711 40.4766V38.4766C193.028 38.4766 190.75 39.1535 188.969 40.5934L190.226 42.1488ZM195.711 40.4766C198.24 40.4766 200.141 41.0708 201.517 42.1563L202.756 40.5859C200.929 39.1453 198.547 38.4766 195.711 38.4766V40.4766ZM201.521 42.1587C202.897 43.2357 203.559 44.588 203.559 46.293H205.559C205.559 43.9615 204.605 42.0325 202.753 40.5835L201.521 42.1587ZM204.559 45.293H198.914V47.293H204.559V45.293ZM199.914 46.293C199.914 45.2485 199.567 44.321 198.84 43.5937L197.426 45.0079C197.74 45.3223 197.914 45.7229 197.914 46.293H199.914ZM198.849 43.6025C198.065 42.7992 196.938 42.5 195.691 42.5V44.5C196.659 44.5 197.159 44.7347 197.417 44.9991L198.849 43.6025ZM195.691 42.5C194.602 42.5 193.609 42.7456 192.848 43.3732L194.121 44.9159C194.402 44.6841 194.88 44.5 195.691 44.5V42.5ZM192.848 43.3732C192.101 43.9891 191.703 44.8168 191.703 45.7852H193.703C193.703 45.4254 193.826 45.1593 194.121 44.9159L192.848 43.3732ZM191.703 45.7852C191.703 46.7913 192.204 47.5921 193.027 48.1406L194.137 46.4765C193.788 46.2438 193.703 46.029 193.703 45.7852H191.703ZM193.049 48.1545C193.809 48.6337 194.962 48.9936 196.39 49.2846L196.789 47.3248C195.405 47.0429 194.553 46.7387 194.115 46.4627L193.049 48.1545ZM196.399 49.2863C197.772 49.5533 198.903 49.8536 199.802 50.1816L200.487 48.3028C199.459 47.9277 198.22 47.6029 196.781 47.3231L196.399 49.2863ZM199.8 50.181C201.171 50.6839 202.113 51.3396 202.713 52.1018C203.304 52.852 203.617 53.7745 203.617 54.9258H205.617C205.617 53.3818 205.185 52.0093 204.285 50.865C203.394 49.7327 202.1 48.8943 200.489 48.3034L199.8 50.181ZM203.617 54.9258C203.617 56.5105 202.962 57.7804 201.55 58.8034L202.723 60.4231C204.618 59.0503 205.617 57.1953 205.617 54.9258H203.617ZM201.554 58.8004C200.113 59.8329 198.199 60.3906 195.73 60.3906V62.3906C198.497 62.3906 200.853 61.7635 202.719 60.4261L201.554 58.8004ZM195.73 60.3906C194.078 60.3906 192.647 60.0994 191.416 59.5422L190.591 61.3641C192.121 62.0569 193.841 62.3906 195.73 62.3906V60.3906ZM191.427 59.5469C190.196 58.9727 189.264 58.2113 188.595 57.2742L186.968 58.4367C187.861 59.6871 189.077 60.6575 190.581 61.3593L191.427 59.5469ZM188.598 57.2788C187.928 56.3297 187.609 55.3377 187.609 54.2812H185.609C185.609 55.7769 186.072 57.1677 186.964 58.4322L188.598 57.2788ZM186.609 55.2812H191.961V53.2812H186.609V55.2812ZM190.962 54.3331C191.027 55.5779 191.506 56.6369 192.462 57.3769L193.686 55.795C193.262 55.4672 192.999 54.9898 192.96 54.2294L190.962 54.3331ZM192.462 57.3769C193.377 58.0848 194.54 58.3867 195.848 58.3867V56.3867C194.838 56.3867 194.151 56.1548 193.686 55.795L192.462 57.3769ZM195.848 58.3867C197.025 58.3867 198.089 58.1716 198.883 57.5858L197.695 55.9767C197.395 56.1982 196.831 56.3867 195.848 56.3867V58.3867ZM198.886 57.5835C199.684 56.9894 200.129 56.1587 200.129 55.1602H198.129C198.129 55.4897 198.014 55.7398 197.692 55.979L198.886 57.5835ZM214.227 61V62H215.227V61H214.227ZM208.562 61H207.562V62H208.562V61ZM208.562 39.8672V38.8672H207.562V39.8672H208.562ZM214.227 39.8672H215.227V38.8672H214.227V39.8672ZM209.07 32.3086L208.38 31.5852L208.372 31.5932L209.07 32.3086ZM213.68 36.5078L212.997 35.7767L212.989 35.7845L213.68 36.5078ZM209.09 36.5078L208.399 37.2312L208.408 37.2389L209.09 36.5078ZM214.227 60H208.562V62H214.227V60ZM209.562 61V39.8672H207.562V61H209.562ZM208.562 40.8672H214.227V38.8672H208.562V40.8672ZM213.227 39.8672V61H215.227V39.8672H213.227ZM209.23 34.3984C209.23 33.7971 209.419 33.3664 209.769 33.024L208.372 31.5932C207.602 32.3446 207.23 33.3071 207.23 34.3984H209.23ZM209.761 33.0319C210.107 32.7019 210.612 32.4883 211.395 32.4883V30.4883C210.224 30.4883 209.18 30.8215 208.38 31.5852L209.761 33.0319ZM211.395 32.4883C212.16 32.4883 212.661 32.6995 213.009 33.0319L214.39 31.5852C213.592 30.8239 212.556 30.4883 211.395 30.4883V32.4883ZM213.009 33.0319C213.369 33.3762 213.559 33.8045 213.559 34.3984H215.559C215.559 33.2997 215.175 32.3348 214.39 31.5852L213.009 33.0319ZM213.559 34.3984C213.559 35.003 213.365 35.4338 212.997 35.7768L214.362 37.2389C215.166 36.4881 215.559 35.5126 215.559 34.3984H213.559ZM212.989 35.7845C212.638 36.1193 212.143 36.3281 211.395 36.3281V38.3281C212.548 38.3281 213.575 37.9901 214.37 37.2312L212.989 35.7845ZM211.395 36.3281C210.647 36.3281 210.139 36.1194 209.772 35.7768L208.408 37.2389C209.212 37.9899 210.241 38.3281 211.395 38.3281V36.3281ZM209.78 35.7845C209.423 35.4434 209.23 35.0104 209.23 34.3984H207.23C207.23 35.5053 207.611 36.4785 208.399 37.2312L209.78 35.7845ZM220.379 42.4453L219.592 41.8289L219.589 41.8321L220.379 42.4453ZM232.039 41.8594L231.263 42.4895L232.755 44.3291L233.032 41.9762L232.039 41.8594ZM232.273 39.8672V38.8672H231.384L231.28 39.7503L232.273 39.8672ZM237.391 39.8672H238.391V38.8672H237.391V39.8672ZM236.121 65.1211L235.271 64.5947L235.267 64.6006L236.121 65.1211ZM222.703 68.3828L223.094 67.4624L223.087 67.4595L222.703 68.3828ZM219.363 66L218.555 65.4118L218.113 66.0184L218.572 66.6117L219.363 66ZM221.863 62.5625L222.609 61.8966L221.784 60.9717L221.055 61.9743L221.863 62.5625ZM230.477 63.7148L229.787 62.991L229.781 62.9966L230.477 63.7148ZM231.727 59.1836H232.727V56.5447L230.978 58.5209L231.727 59.1836ZM220.418 58.4219L219.631 59.039L219.636 59.0447L220.418 58.4219ZM224.871 55.1992L224.053 55.774L224.056 55.7786L224.871 55.1992ZM231.727 54.8867L232.593 55.3857L232.727 55.154V54.8867H231.727ZM231.727 46H232.727V45.7286L232.589 45.4945L231.727 46ZM224.871 45.7266L224.054 45.1499L224.05 45.1563L224.871 45.7266ZM219.074 50.2773C219.074 47.1914 219.804 44.8166 221.169 43.0585L219.589 41.8321C217.881 44.0324 217.074 46.8789 217.074 50.2773H219.074ZM221.166 43.0618C222.517 41.3361 224.304 40.4766 226.629 40.4766V38.4766C223.719 38.4766 221.339 39.5962 219.592 41.8289L221.166 43.0618ZM226.629 40.4766C228.69 40.4766 230.19 41.1679 231.263 42.4895L232.816 41.2293C231.31 39.3738 229.203 38.4766 226.629 38.4766V40.4766ZM233.032 41.9762L233.267 39.984L231.28 39.7503L231.046 41.7425L233.032 41.9762ZM232.273 40.8672H237.391V38.8672H232.273V40.8672ZM236.391 39.8672V60.2969H238.391V39.8672H236.391ZM236.391 60.2969C236.391 61.9883 236.005 63.4082 235.271 64.5947L236.971 65.6474C237.93 64.0996 238.391 62.3033 238.391 60.2969H236.391ZM235.267 64.6006C234.541 65.7916 233.516 66.7038 232.161 67.3411L233.011 69.1511C234.703 68.356 236.034 67.185 236.975 65.6416L235.267 64.6006ZM232.161 67.3411C230.796 67.9827 229.163 68.3203 227.234 68.3203V70.3203C229.395 70.3203 231.329 69.9418 233.011 69.1511L232.161 67.3411ZM227.234 68.3203C225.824 68.3203 224.446 68.0366 223.094 67.4624L222.312 69.3032C223.903 69.979 225.546 70.3203 227.234 70.3203V68.3203ZM223.087 67.4595C221.731 66.8953 220.777 66.193 220.154 65.3883L218.572 66.6117C219.46 67.7601 220.733 68.6464 222.319 69.3061L223.087 67.4595ZM220.172 66.5882L222.672 63.1507L221.055 61.9743L218.555 65.4118L220.172 66.5882ZM221.117 63.2284C222.702 65.0037 224.674 65.9258 226.98 65.9258V63.9258C225.277 63.9258 223.837 63.2724 222.609 61.8966L221.117 63.2284ZM226.98 65.9258C228.659 65.9258 230.103 65.4692 231.172 64.4331L229.781 62.9966C229.184 63.5751 228.297 63.9258 226.98 63.9258V65.9258ZM231.167 64.4387C232.249 63.4066 232.727 61.9809 232.727 60.3164H230.727C230.727 61.5946 230.37 62.4345 229.787 62.991L231.167 64.4387ZM232.727 60.3164V59.1836H230.727V60.3164H232.727ZM230.978 58.5209C229.882 59.7591 228.452 60.3906 226.59 60.3906V62.3906C228.973 62.3906 230.967 61.5508 232.475 59.8463L230.978 58.5209ZM226.59 60.3906C224.354 60.3906 222.585 59.5389 221.2 57.7991L219.636 59.0447C221.402 61.2632 223.747 62.3906 226.59 62.3906V60.3906ZM221.205 57.8047C219.817 56.0348 219.074 53.636 219.074 50.5117H217.074C217.074 53.9499 217.894 56.8246 219.631 59.039L221.205 57.8047ZM219.074 50.5117V50.2773H217.074V50.5117H219.074ZM222.719 50.6875C222.719 52.7219 223.125 54.4534 224.053 55.774L225.689 54.6244C225.08 53.7575 224.719 52.4812 224.719 50.6875H222.719ZM224.056 55.7786C225.014 57.1268 226.375 57.8203 228.035 57.8203V55.8203C227.013 55.8203 226.264 55.4331 225.686 54.6198L224.056 55.7786ZM228.035 57.8203C230.045 57.8203 231.642 57.0383 232.593 55.3857L230.86 54.3878C230.327 55.3132 229.463 55.8203 228.035 55.8203V57.8203ZM232.727 54.8867V46H230.727V54.8867H232.727ZM232.589 45.4945C231.629 43.856 230.056 43.0664 228.074 43.0664V45.0664C229.452 45.0664 230.313 45.5659 230.864 46.5055L232.589 45.4945ZM228.074 43.0664C226.395 43.0664 225.023 43.7778 224.054 45.1499L225.688 46.3032C226.282 45.4618 227.045 45.0664 228.074 45.0664V43.0664ZM224.05 45.1563C223.113 46.5064 222.719 48.4006 222.719 50.6875H224.719C224.719 48.5733 225.093 47.1603 225.693 46.2968L224.05 45.1563ZM246.941 39.8672L247.939 39.7954L247.872 38.8672H246.941V39.8672ZM247.117 42.3086L246.12 42.3804L246.303 44.927L247.898 42.9333L247.117 42.3086ZM258.191 41.4492L258.96 40.8098L258.191 41.4492ZM259.871 47.3477H260.871L260.871 47.3377L259.871 47.3477ZM259.871 61V62H260.871V61H259.871ZM254.227 61H253.227V62H254.227V61ZM253.445 44.8867L252.721 45.5764L252.73 45.585L253.445 44.8867ZM247.273 46.0977L246.411 45.5917L246.273 45.826V46.0977H247.273ZM247.273 61V62H248.273V61H247.273ZM241.629 61H240.629V62H241.629V61ZM241.629 39.8672V38.8672H240.629V39.8672H241.629ZM245.944 39.939L246.12 42.3804L248.115 42.2368L247.939 39.7954L245.944 39.939ZM247.898 42.9333C249.208 41.2959 250.939 40.4766 253.191 40.4766V38.4766C250.366 38.4766 248.047 39.5453 246.336 41.6839L247.898 42.9333ZM253.191 40.4766C255.232 40.4766 256.574 41.0682 257.423 42.0887L258.96 40.8098C257.621 39.2 255.63 38.4766 253.191 38.4766V40.4766ZM257.423 42.0887C258.309 43.1543 258.846 44.8543 258.871 47.3576L260.871 47.3377C260.844 44.6066 260.261 42.3743 258.96 40.8098L257.423 42.0887ZM258.871 47.3477V61H260.871V47.3477H258.871ZM259.871 60H254.227V62H259.871V60ZM255.227 61V47.4844H253.227V61H255.227ZM255.227 47.4844C255.227 46.1769 254.948 44.9949 254.161 44.1884L252.73 45.585C252.984 45.8463 253.227 46.396 253.227 47.4844H255.227ZM254.169 44.1971C253.372 43.3602 252.172 43.0664 250.848 43.0664V45.0664C251.945 45.0664 252.477 45.3195 252.721 45.5764L254.169 44.1971ZM250.848 43.0664C248.91 43.0664 247.387 43.927 246.411 45.5917L248.136 46.6036C248.748 45.5599 249.609 45.0664 250.848 45.0664V43.0664ZM246.273 46.0977V61H248.273V46.0977H246.273ZM247.273 60H241.629V62H247.273V60ZM242.629 61V39.8672H240.629V61H242.629ZM241.629 40.8672H246.941V38.8672H241.629V40.8672Z" fill="#FAFAFA"/>
</mask>
<g mask="url(#mask0)">
<rect x="-11" y="3" width="291" height="50" fill="#FAFAFA"/>
</g>
</g>
<g opacity="0.5">
<mask id="mask1" style="mask-type:alpha" maskUnits="userSpaceOnUse" x="24" y="7" width="237" height="41">
<path d="M47.2344 9.5625H48.2344V8.5625H47.2344V9.5625ZM44.3047 35.6758L43.625 34.9423L43.6225 34.9446L44.3047 35.6758ZM25.4375 28.5078H24.4374L24.4376 28.5205L25.4375 28.5078ZM25.4375 9.5625V8.5625H24.4375V9.5625H25.4375ZM31.2969 9.5625H32.2969V8.5625H31.2969V9.5625ZM32.625 32.4141L31.9285 33.1316L31.9339 33.1368L31.9393 33.142L32.625 32.4141ZM41.3555 28.4883L42.3554 28.5033L42.3555 28.4958V28.4883H41.3555ZM41.3555 9.5625V8.5625H40.3555V9.5625H41.3555ZM46.2344 9.5625V28.293H48.2344V9.5625H46.2344ZM46.2344 28.293C46.2344 31.1778 45.3391 33.3539 43.625 34.9423L44.9844 36.4093C47.1766 34.3779 48.2344 31.6321 48.2344 28.293H46.2344ZM43.6225 34.9446C41.9139 36.5386 39.5265 37.3906 36.3359 37.3906V39.3906C39.8902 39.3906 42.8153 38.4328 44.9868 36.407L43.6225 34.9446ZM36.3359 37.3906C33.1952 37.3906 30.8196 36.563 29.0947 35.0106L27.7568 36.4972C29.9382 38.4604 32.836 39.3906 36.3359 39.3906V37.3906ZM29.0947 35.0106C27.3846 33.4715 26.4736 31.3407 26.4374 28.4951L24.4376 28.5205C24.4795 31.8208 25.5607 34.5207 27.7568 36.4972L29.0947 35.0106ZM26.4375 28.5078V9.5625H24.4375V28.5078H26.4375ZM25.4375 10.5625H31.2969V8.5625H25.4375V10.5625ZM30.2969 9.5625V28.332H32.2969V9.5625H30.2969ZM30.2969 28.332C30.2969 30.3281 30.7693 32.0065 31.9285 33.1316L33.3215 31.6965C32.7099 31.1029 32.2969 30.0599 32.2969 28.332H30.2969ZM31.9393 33.142C33.0705 34.2076 34.5788 34.6836 36.3359 34.6836V32.6836C34.9421 32.6836 33.9764 32.3133 33.3107 31.6862L31.9393 33.142ZM36.3359 34.6836C38.1515 34.6836 39.6946 34.2037 40.7807 33.0796C41.8581 31.9644 42.3272 30.3783 42.3554 28.5033L40.3556 28.4732C40.3317 30.0618 39.9381 31.0733 39.3424 31.6899C38.7553 32.2976 37.8146 32.6836 36.3359 32.6836V34.6836ZM42.3555 28.4883V9.5625H40.3555V28.4883H42.3555ZM41.3555 10.5625H47.2344V8.5625H41.3555V10.5625ZM62.2148 19.3672L61.3363 19.8449L62.2148 21.4603L63.0933 19.8449L62.2148 19.3672ZM67.5469 9.5625V8.5625H66.9524L66.6684 9.08475L67.5469 9.5625ZM74.2852 9.5625L75.1475 10.0689L76.0321 8.5625H74.2852V9.5625ZM66.0039 23.6641L65.1416 23.1577L64.8429 23.6664L65.1436 24.1739L66.0039 23.6641ZM74.5 38V39H76.2551L75.3603 37.4902L74.5 38ZM67.6836 38L66.807 38.4813L67.0918 39H67.6836V38ZM62.2148 28.0391L63.0914 27.5578L62.2148 25.9612L61.3383 27.5578L62.2148 28.0391ZM56.7461 38V39H57.3379L57.6227 38.4813L56.7461 38ZM49.9297 38L49.0694 37.4902L48.1746 39H49.9297V38ZM58.4258 23.6641L59.2861 24.1739L59.5868 23.6664L59.2881 23.1577L58.4258 23.6641ZM50.1445 9.5625V8.5625H48.3976L49.2822 10.0689L50.1445 9.5625ZM56.8828 9.5625L57.7613 9.08475L57.4773 8.5625H56.8828V9.5625ZM63.0933 19.8449L68.4254 10.0402L66.6684 9.08475L61.3363 18.8894L63.0933 19.8449ZM67.5469 10.5625H74.2852V8.5625H67.5469V10.5625ZM73.4229 9.05611L65.1416 23.1577L66.8662 24.1705L75.1475 10.0689L73.4229 9.05611ZM65.1436 24.1739L73.6397 38.5098L75.3603 37.4902L66.8642 23.1542L65.1436 24.1739ZM74.5 37H67.6836V39H74.5V37ZM68.5602 37.5187L63.0914 27.5578L61.3383 28.5203L66.807 38.4813L68.5602 37.5187ZM61.3383 27.5578L55.8695 37.5187L57.6227 38.4813L63.0914 28.5203L61.3383 27.5578ZM56.7461 37H49.9297V39H56.7461V37ZM50.79 38.5098L59.2861 24.1739L57.5655 23.1542L49.0694 37.4902L50.79 38.5098ZM59.2881 23.1577L51.0068 9.05611L49.2822 10.0689L57.5635 24.1705L59.2881 23.1577ZM50.1445 10.5625H56.8828V8.5625H50.1445V10.5625ZM56.0043 10.0402L61.3363 19.8449L63.0933 18.8894L57.7613 9.08475L56.0043 10.0402ZM78.875 40.4414V41.4414H79.5919L79.8221 40.7625L78.875 40.4414ZM74.6758 40.4414L73.7287 40.1203L73.2808 41.4414H74.6758V40.4414ZM85.1445 9.5625V8.5625H84.4277L84.1975 9.24142L85.1445 9.5625ZM89.3438 9.5625L90.2908 9.88358L90.7387 8.5625H89.3438V9.5625ZM78.875 39.4414H74.6758V41.4414H78.875V39.4414ZM75.6228 40.7625L86.0916 9.88358L84.1975 9.24142L73.7287 40.1203L75.6228 40.7625ZM85.1445 10.5625H89.3438V8.5625H85.1445V10.5625ZM88.3967 9.24142L77.9279 40.1203L79.8221 40.7625L90.2908 9.88358L88.3967 9.24142ZM113.953 9.5625H114.953V8.5625H113.953V9.5625ZM111.023 35.6758L110.344 34.9423L110.341 34.9446L111.023 35.6758ZM92.1562 28.5078H91.1562L91.1563 28.5205L92.1562 28.5078ZM92.1562 9.5625V8.5625H91.1562V9.5625H92.1562ZM98.0156 9.5625H99.0156V8.5625H98.0156V9.5625ZM99.3438 32.4141L98.6473 33.1316L98.6526 33.1368L98.6581 33.142L99.3438 32.4141ZM108.074 28.4883L109.074 28.5033L109.074 28.4958V28.4883H108.074ZM108.074 9.5625V8.5625H107.074V9.5625H108.074ZM112.953 9.5625V28.293H114.953V9.5625H112.953ZM112.953 28.293C112.953 31.1778 112.058 33.3539 110.344 34.9423L111.703 36.4093C113.895 34.3779 114.953 31.6321 114.953 28.293H112.953ZM110.341 34.9446C108.633 36.5386 106.245 37.3906 103.055 37.3906V39.3906C106.609 39.3906 109.534 38.4328 111.706 36.407L110.341 34.9446ZM103.055 37.3906C99.9139 37.3906 97.5384 36.563 95.8135 35.0106L94.4756 36.4972C96.6569 38.4604 99.5548 39.3906 103.055 39.3906V37.3906ZM95.8135 35.0106C94.1033 33.4715 93.1923 31.3407 93.1562 28.4951L91.1563 28.5205C91.1983 31.8208 92.2795 34.5207 94.4756 36.4972L95.8135 35.0106ZM93.1562 28.5078V9.5625H91.1562V28.5078H93.1562ZM92.1562 10.5625H98.0156V8.5625H92.1562V10.5625ZM97.0156 9.5625V28.332H99.0156V9.5625H97.0156ZM97.0156 28.332C97.0156 30.3281 97.488 32.0065 98.6473 33.1316L100.04 31.6965C99.4287 31.1029 99.0156 30.0599 99.0156 28.332H97.0156ZM98.6581 33.142C99.7892 34.2076 101.298 34.6836 103.055 34.6836V32.6836C101.661 32.6836 100.695 32.3133 100.029 31.6862L98.6581 33.142ZM103.055 34.6836C104.87 34.6836 106.413 34.2037 107.499 33.0796C108.577 31.9644 109.046 30.3783 109.074 28.5033L107.074 28.4732C107.05 30.0618 106.657 31.0733 106.061 31.6899C105.474 32.2976 104.533 32.6836 103.055 32.6836V34.6836ZM109.074 28.4883V9.5625H107.074V28.4883H109.074ZM108.074 10.5625H113.953V8.5625H108.074V10.5625ZM124.988 38V39H125.988V38H124.988ZM119.129 38H118.129V39H119.129V38ZM119.129 9.5625V8.5625H118.129V9.5625H119.129ZM124.988 9.5625H125.988V8.5625H124.988V9.5625ZM124.988 37H119.129V39H124.988V37ZM120.129 38V9.5625H118.129V38H120.129ZM119.129 10.5625H124.988V8.5625H119.129V10.5625ZM123.988 9.5625V38H125.988V9.5625H123.988ZM140.398 38H139.398V39H140.398V38ZM140.398 9.5625V8.5625H139.398V9.5625H140.398ZM155.848 11.2617L155.348 12.1282L155.355 12.1321L155.848 11.2617ZM160.477 16.0664L159.593 16.5356L159.595 16.5379L160.477 16.0664ZM160.496 31.4961L159.613 31.0267L159.611 31.031L160.496 31.4961ZM155.906 36.2812L156.403 37.1491L155.906 36.2812ZM149.207 38V39L149.212 39L149.207 38ZM146.258 14.3086V13.3086H145.258V14.3086H146.258ZM146.258 33.293H145.258V34.293H146.258V33.293ZM156.199 24.6211L157.199 24.6304V24.6211H156.199ZM154.402 16.5547L153.621 17.1794L153.624 17.1827L154.402 16.5547ZM141.398 38V9.5625H139.398V38H141.398ZM140.398 10.5625H149.148V8.5625H140.398V10.5625ZM149.148 10.5625C151.492 10.5625 153.549 11.0916 155.348 12.1282L156.347 10.3952C154.214 9.16625 151.805 8.5625 149.148 8.5625V10.5625ZM155.355 12.1321C157.162 13.1544 158.573 14.6138 159.593 16.5356L161.36 15.5973C160.167 13.3523 158.491 11.6086 156.34 10.3914L155.355 12.1321ZM159.595 16.5379C160.615 18.4457 161.137 20.637 161.137 23.1367H163.137C163.137 20.35 162.552 17.8278 161.358 15.595L159.595 16.5379ZM161.137 23.1367V24.4453H163.137V23.1367H161.137ZM161.137 24.4453C161.137 26.9471 160.62 29.1324 159.613 31.0267L161.379 31.9655C162.559 29.7452 163.137 27.23 163.137 24.4453H161.137ZM159.611 31.031C158.617 32.9232 157.22 34.377 155.41 35.4134L156.403 37.1491C158.551 35.9199 160.214 34.1836 161.381 31.9611L159.611 31.031ZM155.41 35.4134C153.593 36.4528 151.532 36.9878 149.202 37L149.212 39C151.856 38.9861 154.261 38.3753 156.403 37.1491L155.41 35.4134ZM149.207 37H140.398V39H149.207V37ZM145.258 14.3086V33.293H147.258V14.3086H145.258ZM146.258 34.293H149.09V32.293H146.258V34.293ZM149.09 34.293C151.62 34.293 153.684 33.4533 155.121 31.6757L153.566 30.4181C152.582 31.6352 151.143 32.293 149.09 32.293V34.293ZM155.121 31.6757C156.525 29.9394 157.172 27.5447 157.199 24.6304L155.199 24.6117C155.174 27.2704 154.584 29.1595 153.566 30.4181L155.121 31.6757ZM157.199 24.6211V23.1172H155.199V24.6211H157.199ZM157.199 23.1172C157.199 20.1105 156.58 17.6602 155.181 15.9267L153.624 17.1827C154.621 18.4179 155.199 20.3426 155.199 23.1172H157.199ZM155.183 15.93C153.757 14.1469 151.689 13.3086 149.148 13.3086V15.3086C151.217 15.3086 152.652 15.9677 153.621 17.1794L155.183 15.93ZM149.148 13.3086H146.258V15.3086H149.148V13.3086ZM168.191 35.5391L167.492 36.2533L167.494 36.2557L168.191 35.5391ZM166.512 21.7109L167.409 22.1525L167.41 22.1498L166.512 21.7109ZM169.988 17.8438L170.503 18.7012L170.505 18.6999L169.988 17.8438ZM181.961 19.2109L181.22 19.8828L181.223 19.8857L181.961 19.2109ZM184.461 29.2695V30.2695H185.461V29.2695H184.461ZM171.004 29.2695V28.2695H169.863L170.013 29.4005L171.004 29.2695ZM172.645 32.5898L171.97 33.3279L171.975 33.3326L172.645 32.5898ZM181.238 31.4766L181.984 30.8105L181.185 29.9154L180.449 30.8631L181.238 31.4766ZM184.012 34.582L184.828 35.1591L185.288 34.5093L184.758 33.9159L184.012 34.582ZM180.574 37.3945L180.992 38.3032L180.998 38.3001L180.574 37.3945ZM172.391 22.1797L171.659 21.4982L171.652 21.5051L172.391 22.1797ZM171.062 25.4219L170.072 25.2843L169.914 26.4219H171.062V25.4219ZM178.914 25.4219V26.4219H179.914V25.4219H178.914ZM178.914 24.9727H179.914V24.9622L179.914 24.9518L178.914 24.9727ZM177.898 22.082L177.171 22.7683L177.178 22.7751L177.898 22.082ZM175.77 37.3906C172.892 37.3906 170.629 36.5165 168.889 34.8225L167.494 36.2557C169.66 38.3637 172.449 39.3906 175.77 39.3906V37.3906ZM168.891 34.8248C167.175 33.143 166.281 30.8847 166.281 27.9414H164.281C164.281 31.3262 165.328 34.1331 167.492 36.2533L168.891 34.8248ZM166.281 27.9414V27.3945H164.281V27.9414H166.281ZM166.281 27.3945C166.281 25.4034 166.665 23.6634 167.409 22.1525L165.615 21.2693C164.718 23.0918 164.281 25.1409 164.281 27.3945H166.281ZM167.41 22.1498C168.152 20.631 169.183 19.4931 170.503 18.7012L169.474 16.9863C167.799 17.9913 166.512 19.4315 165.613 21.2721L167.41 22.1498ZM170.505 18.6999C171.845 17.8912 173.382 17.4766 175.145 17.4766V15.4766C173.053 15.4766 171.152 15.9734 169.472 16.9876L170.505 18.6999ZM175.145 17.4766C177.807 17.4766 179.79 18.3057 181.22 19.8828L182.702 18.5391C180.825 16.4704 178.263 15.4766 175.145 15.4766V17.4766ZM181.223 19.8857C182.669 21.4673 183.461 23.7784 183.461 26.9648H185.461C185.461 23.4586 184.586 20.6004 182.699 18.5362L181.223 19.8857ZM183.461 26.9648V29.2695H185.461V26.9648H183.461ZM184.461 28.2695H171.004V30.2695H184.461V28.2695ZM170.013 29.4005C170.221 30.9824 170.862 32.3155 171.97 33.3279L173.319 31.8518C172.604 31.1975 172.151 30.3171 171.995 29.1386L170.013 29.4005ZM171.975 33.3326C173.107 34.3532 174.522 34.8398 176.141 34.8398V32.8398C174.947 32.8398 174.031 32.4931 173.314 31.8471L171.975 33.3326ZM176.141 34.8398C178.592 34.8398 180.596 33.9336 182.028 32.09L180.449 30.8631C179.433 32.1706 178.038 32.8398 176.141 32.8398V34.8398ZM180.492 32.1427L183.266 35.2481L184.758 33.9159L181.984 30.8105L180.492 32.1427ZM183.195 34.005C182.457 35.0489 181.452 35.8788 180.15 36.489L180.998 38.3001C182.587 37.5561 183.873 36.511 184.828 35.1591L183.195 34.005ZM180.157 36.4859C178.856 37.0837 177.398 37.3906 175.77 37.3906V39.3906C177.656 39.3906 179.402 39.0335 180.992 38.3032L180.157 36.4859ZM175.125 20.0469C173.754 20.0469 172.568 20.5213 171.659 21.4983L173.123 22.8611C173.619 22.3276 174.256 22.0469 175.125 22.0469V20.0469ZM171.652 21.5051C170.782 22.4574 170.285 23.753 170.072 25.2843L172.053 25.5594C172.231 24.2783 172.619 23.4124 173.129 22.8543L171.652 21.5051ZM171.062 26.4219H178.914V24.4219H171.062V26.4219ZM179.914 25.4219V24.9727H177.914V25.4219H179.914ZM179.914 24.9518C179.884 23.5356 179.496 22.3002 178.619 21.3889L177.178 22.7751C177.603 23.218 177.892 23.9097 177.914 24.9935L179.914 24.9518ZM178.626 21.3958C177.739 20.4557 176.521 20.0469 175.125 20.0469V22.0469C176.124 22.0469 176.756 22.3282 177.171 22.7683L178.626 21.3958ZM198.094 30.5391L197.582 31.398L197.591 31.4038L197.601 31.4093L198.094 30.5391ZM194.812 29.4648L194.607 30.4435L194.61 30.4441L194.812 29.4648ZM189.598 18.3711L190.226 19.1494L190.226 19.1488L189.598 18.3711ZM202.137 18.3711L201.517 19.1563L201.521 19.1587L202.137 18.3711ZM204.559 23.293V24.293H205.559V23.293H204.559ZM198.914 23.293H197.914V24.293H198.914V23.293ZM198.133 21.3008L197.417 21.9992L197.426 22.0079L198.133 21.3008ZM193.582 24.3086L193.027 25.1406L193.038 25.1477L193.049 25.1545L193.582 24.3086ZM196.59 25.3047L196.39 26.2846L196.399 26.2863L196.59 25.3047ZM200.145 26.2422L200.489 25.3034L200.487 25.3028L200.145 26.2422ZM202.137 36.6133L202.719 37.4262L202.723 37.4231L202.137 36.6133ZM191.004 37.4531L190.581 38.3594L190.591 38.3641L191.004 37.4531ZM187.781 34.8555L186.964 35.4322L186.968 35.4367L187.781 34.8555ZM186.609 31.2812V30.2812H185.609V31.2812H186.609ZM191.961 31.2812L192.96 31.2294L192.91 30.2812H191.961V31.2812ZM198.289 33.7812L198.883 34.5858L198.886 34.5835L198.289 33.7812ZM200.129 32.1602C200.129 31.0495 199.534 30.2051 198.586 29.6688L197.601 31.4093C198.034 31.6542 198.129 31.8906 198.129 32.1602H200.129ZM198.606 29.6801C197.78 29.1878 196.551 28.8034 195.015 28.4856L194.61 30.4441C196.095 30.7513 197.053 31.083 197.582 31.398L198.606 29.6801ZM195.018 28.4862C192.585 27.9757 190.884 27.2261 189.806 26.3102C188.766 25.427 188.273 24.3648 188.273 23.0586H186.273C186.273 24.9685 187.037 26.5821 188.511 27.8343C189.946 29.0538 192.013 29.8993 194.607 30.4435L195.018 28.4862ZM188.273 23.0586C188.273 21.5068 188.895 20.2231 190.226 19.1494L188.97 17.5928C187.202 19.0191 186.273 20.8604 186.273 23.0586H188.273ZM190.226 19.1488C191.57 18.0627 193.368 17.4766 195.711 17.4766V15.4766C193.028 15.4766 190.75 16.1535 188.969 17.5934L190.226 19.1488ZM195.711 17.4766C198.24 17.4766 200.141 18.0708 201.517 19.1563L202.756 17.5859C200.929 16.1453 198.547 15.4766 195.711 15.4766V17.4766ZM201.521 19.1587C202.897 20.2357 203.559 21.588 203.559 23.293H205.559C205.559 20.9615 204.605 19.0325 202.753 17.5835L201.521 19.1587ZM204.559 22.293H198.914V24.293H204.559V22.293ZM199.914 23.293C199.914 22.2485 199.567 21.321 198.84 20.5937L197.426 22.0079C197.74 22.3223 197.914 22.7229 197.914 23.293H199.914ZM198.849 20.6025C198.065 19.7992 196.938 19.5 195.691 19.5V21.5C196.659 21.5 197.159 21.7347 197.417 21.9991L198.849 20.6025ZM195.691 19.5C194.602 19.5 193.609 19.7456 192.848 20.3732L194.121 21.9159C194.402 21.6841 194.88 21.5 195.691 21.5V19.5ZM192.848 20.3732C192.101 20.9891 191.703 21.8168 191.703 22.7852H193.703C193.703 22.4254 193.826 22.1593 194.121 21.9159L192.848 20.3732ZM191.703 22.7852C191.703 23.7913 192.204 24.5921 193.027 25.1406L194.137 23.4765C193.788 23.2438 193.703 23.029 193.703 22.7852H191.703ZM193.049 25.1545C193.809 25.6337 194.962 25.9936 196.39 26.2846L196.789 24.3248C195.405 24.0429 194.553 23.7387 194.115 23.4627L193.049 25.1545ZM196.399 26.2863C197.772 26.5533 198.903 26.8536 199.802 27.1816L200.487 25.3028C199.459 24.9277 198.22 24.6029 196.781 24.3231L196.399 26.2863ZM199.8 27.181C201.171 27.6839 202.113 28.3396 202.713 29.1018C203.304 29.852 203.617 30.7745 203.617 31.9258H205.617C205.617 30.3818 205.185 29.0093 204.285 27.865C203.394 26.7327 202.1 25.8943 200.489 25.3034L199.8 27.181ZM203.617 31.9258C203.617 33.5105 202.962 34.7804 201.55 35.8034L202.723 37.4231C204.618 36.0503 205.617 34.1953 205.617 31.9258H203.617ZM201.554 35.8004C200.113 36.8329 198.199 37.3906 195.73 37.3906V39.3906C198.497 39.3906 200.853 38.7635 202.719 37.4261L201.554 35.8004ZM195.73 37.3906C194.078 37.3906 192.647 37.0994 191.416 36.5422L190.591 38.3641C192.121 39.0569 193.841 39.3906 195.73 39.3906V37.3906ZM191.427 36.5469C190.196 35.9727 189.264 35.2113 188.595 34.2742L186.968 35.4367C187.861 36.6871 189.077 37.6575 190.581 38.3593L191.427 36.5469ZM188.598 34.2788C187.928 33.3297 187.609 32.3377 187.609 31.2812H185.609C185.609 32.7769 186.072 34.1677 186.964 35.4322L188.598 34.2788ZM186.609 32.2812H191.961V30.2812H186.609V32.2812ZM190.962 31.3331C191.027 32.5779 191.506 33.6369 192.462 34.3769L193.686 32.795C193.262 32.4672 192.999 31.9898 192.96 31.2294L190.962 31.3331ZM192.462 34.3769C193.377 35.0848 194.54 35.3867 195.848 35.3867V33.3867C194.838 33.3867 194.151 33.1548 193.686 32.795L192.462 34.3769ZM195.848 35.3867C197.025 35.3867 198.089 35.1716 198.883 34.5858L197.695 32.9767C197.395 33.1982 196.831 33.3867 195.848 33.3867V35.3867ZM198.886 34.5835C199.684 33.9894 200.129 33.1587 200.129 32.1602H198.129C198.129 32.4897 198.014 32.7398 197.692 32.979L198.886 34.5835ZM214.227 38V39H215.227V38H214.227ZM208.562 38H207.562V39H208.562V38ZM208.562 16.8672V15.8672H207.562V16.8672H208.562ZM214.227 16.8672H215.227V15.8672H214.227V16.8672ZM209.07 9.30859L208.38 8.58519L208.372 8.59322L209.07 9.30859ZM213.68 13.5078L212.997 12.7767L212.989 12.7845L213.68 13.5078ZM209.09 13.5078L208.399 14.2312L208.408 14.2389L209.09 13.5078ZM214.227 37H208.562V39H214.227V37ZM209.562 38V16.8672H207.562V38H209.562ZM208.562 17.8672H214.227V15.8672H208.562V17.8672ZM213.227 16.8672V38H215.227V16.8672H213.227ZM209.23 11.3984C209.23 10.7971 209.419 10.3664 209.769 10.024L208.372 8.59322C207.602 9.34458 207.23 10.3071 207.23 11.3984H209.23ZM209.761 10.0319C210.107 9.70191 210.612 9.48828 211.395 9.48828V7.48828C210.224 7.48828 209.18 7.82153 208.38 8.58524L209.761 10.0319ZM211.395 9.48828C212.16 9.48828 212.661 9.69954 213.009 10.0319L214.39 8.58524C213.592 7.8239 212.556 7.48828 211.395 7.48828V9.48828ZM213.009 10.0319C213.369 10.3762 213.559 10.8045 213.559 11.3984H215.559C215.559 10.2997 215.175 9.33478 214.39 8.58524L213.009 10.0319ZM213.559 11.3984C213.559 12.003 213.365 12.4338 212.997 12.7768L214.362 14.2389C215.166 13.4881 215.559 12.5126 215.559 11.3984H213.559ZM212.989 12.7845C212.638 13.1193 212.143 13.3281 211.395 13.3281V15.3281C212.548 15.3281 213.575 14.9901 214.37 14.2312L212.989 12.7845ZM211.395 13.3281C210.647 13.3281 210.139 13.1194 209.772 12.7768L208.408 14.2389C209.212 14.9899 210.241 15.3281 211.395 15.3281V13.3281ZM209.78 12.7845C209.423 12.4434 209.23 12.0104 209.23 11.3984H207.23C207.23 12.5053 207.611 13.4785 208.399 14.2312L209.78 12.7845ZM220.379 19.4453L219.592 18.8289L219.589 18.8321L220.379 19.4453ZM232.039 18.8594L231.263 19.4895L232.755 21.3291L233.032 18.9762L232.039 18.8594ZM232.273 16.8672V15.8672H231.384L231.28 16.7503L232.273 16.8672ZM237.391 16.8672H238.391V15.8672H237.391V16.8672ZM236.121 42.1211L235.271 41.5947L235.267 41.6006L236.121 42.1211ZM222.703 45.3828L223.094 44.4624L223.087 44.4595L222.703 45.3828ZM219.363 43L218.555 42.4118L218.113 43.0184L218.572 43.6117L219.363 43ZM221.863 39.5625L222.609 38.8966L221.784 37.9717L221.055 38.9743L221.863 39.5625ZM230.477 40.7148L229.787 39.991L229.781 39.9966L230.477 40.7148ZM231.727 36.1836H232.727V33.5447L230.978 35.5209L231.727 36.1836ZM220.418 35.4219L219.631 36.039L219.636 36.0447L220.418 35.4219ZM224.871 32.1992L224.053 32.774L224.056 32.7786L224.871 32.1992ZM231.727 31.8867L232.593 32.3857L232.727 32.154V31.8867H231.727ZM231.727 23H232.727V22.7286L232.589 22.4945L231.727 23ZM224.871 22.7266L224.054 22.1499L224.05 22.1563L224.871 22.7266ZM219.074 27.2773C219.074 24.1914 219.804 21.8166 221.169 20.0585L219.589 18.8321C217.881 21.0324 217.074 23.8789 217.074 27.2773H219.074ZM221.166 20.0618C222.517 18.3361 224.304 17.4766 226.629 17.4766V15.4766C223.719 15.4766 221.339 16.5962 219.592 18.8289L221.166 20.0618ZM226.629 17.4766C228.69 17.4766 230.19 18.1679 231.263 19.4895L232.816 18.2293C231.31 16.3738 229.203 15.4766 226.629 15.4766V17.4766ZM233.032 18.9762L233.267 16.984L231.28 16.7503L231.046 18.7425L233.032 18.9762ZM232.273 17.8672H237.391V15.8672H232.273V17.8672ZM236.391 16.8672V37.2969H238.391V16.8672H236.391ZM236.391 37.2969C236.391 38.9883 236.005 40.4082 235.271 41.5947L236.971 42.6474C237.93 41.0996 238.391 39.3033 238.391 37.2969H236.391ZM235.267 41.6006C234.541 42.7916 233.516 43.7038 232.161 44.3411L233.011 46.1511C234.703 45.356 236.034 44.185 236.975 42.6416L235.267 41.6006ZM232.161 44.3411C230.796 44.9827 229.163 45.3203 227.234 45.3203V47.3203C229.395 47.3203 231.329 46.9418 233.011 46.1511L232.161 44.3411ZM227.234 45.3203C225.824 45.3203 224.446 45.0366 223.094 44.4624L222.312 46.3032C223.903 46.979 225.546 47.3203 227.234 47.3203V45.3203ZM223.087 44.4595C221.731 43.8953 220.777 43.193 220.154 42.3883L218.572 43.6117C219.46 44.7601 220.733 45.6464 222.319 46.3061L223.087 44.4595ZM220.172 43.5882L222.672 40.1507L221.055 38.9743L218.555 42.4118L220.172 43.5882ZM221.117 40.2284C222.702 42.0037 224.674 42.9258 226.98 42.9258V40.9258C225.277 40.9258 223.837 40.2724 222.609 38.8966L221.117 40.2284ZM226.98 42.9258C228.659 42.9258 230.103 42.4692 231.172 41.4331L229.781 39.9966C229.184 40.5751 228.297 40.9258 226.98 40.9258V42.9258ZM231.167 41.4387C232.249 40.4066 232.727 38.9809 232.727 37.3164H230.727C230.727 38.5946 230.37 39.4345 229.787 39.991L231.167 41.4387ZM232.727 37.3164V36.1836H230.727V37.3164H232.727ZM230.978 35.5209C229.882 36.7591 228.452 37.3906 226.59 37.3906V39.3906C228.973 39.3906 230.967 38.5508 232.475 36.8463L230.978 35.5209ZM226.59 37.3906C224.354 37.3906 222.585 36.5389 221.2 34.7991L219.636 36.0447C221.402 38.2632 223.747 39.3906 226.59 39.3906V37.3906ZM221.205 34.8047C219.817 33.0348 219.074 30.636 219.074 27.5117H217.074C217.074 30.9499 217.894 33.8246 219.631 36.039L221.205 34.8047ZM219.074 27.5117V27.2773H217.074V27.5117H219.074ZM222.719 27.6875C222.719 29.7219 223.125 31.4534 224.053 32.774L225.689 31.6244C225.08 30.7575 224.719 29.4812 224.719 27.6875H222.719ZM224.056 32.7786C225.014 34.1268 226.375 34.8203 228.035 34.8203V32.8203C227.013 32.8203 226.264 32.4331 225.686 31.6198L224.056 32.7786ZM228.035 34.8203C230.045 34.8203 231.642 34.0383 232.593 32.3857L230.86 31.3878C230.327 32.3132 229.463 32.8203 228.035 32.8203V34.8203ZM232.727 31.8867V23H230.727V31.8867H232.727ZM232.589 22.4945C231.629 20.856 230.056 20.0664 228.074 20.0664V22.0664C229.452 22.0664 230.313 22.5659 230.864 23.5055L232.589 22.4945ZM228.074 20.0664C226.395 20.0664 225.023 20.7778 224.054 22.1499L225.688 23.3032C226.282 22.4618 227.045 22.0664 228.074 22.0664V20.0664ZM224.05 22.1563C223.113 23.5064 222.719 25.4006 222.719 27.6875H224.719C224.719 25.5733 225.093 24.1603 225.693 23.2968L224.05 22.1563ZM246.941 16.8672L247.939 16.7954L247.872 15.8672H246.941V16.8672ZM247.117 19.3086L246.12 19.3804L246.303 21.927L247.898 19.9333L247.117 19.3086ZM258.191 18.4492L258.96 17.8098L258.191 18.4492ZM259.871 24.3477H260.871L260.871 24.3377L259.871 24.3477ZM259.871 38V39H260.871V38H259.871ZM254.227 38H253.227V39H254.227V38ZM253.445 21.8867L252.721 22.5764L252.73 22.585L253.445 21.8867ZM247.273 23.0977L246.411 22.5917L246.273 22.826V23.0977H247.273ZM247.273 38V39H248.273V38H247.273ZM241.629 38H240.629V39H241.629V38ZM241.629 16.8672V15.8672H240.629V16.8672H241.629ZM245.944 16.939L246.12 19.3804L248.115 19.2368L247.939 16.7954L245.944 16.939ZM247.898 19.9333C249.208 18.2959 250.939 17.4766 253.191 17.4766V15.4766C250.366 15.4766 248.047 16.5453 246.336 18.6839L247.898 19.9333ZM253.191 17.4766C255.232 17.4766 256.574 18.0682 257.423 19.0887L258.96 17.8098C257.621 16.2 255.63 15.4766 253.191 15.4766V17.4766ZM257.423 19.0887C258.309 20.1543 258.846 21.8543 258.871 24.3576L260.871 24.3377C260.844 21.6066 260.261 19.3743 258.96 17.8098L257.423 19.0887ZM258.871 24.3477V38H260.871V24.3477H258.871ZM259.871 37H254.227V39H259.871V37ZM255.227 38V24.4844H253.227V38H255.227ZM255.227 24.4844C255.227 23.1769 254.948 21.9949 254.161 21.1884L252.73 22.585C252.984 22.8463 253.227 23.396 253.227 24.4844H255.227ZM254.169 21.1971C253.372 20.3602 252.172 20.0664 250.848 20.0664V22.0664C251.945 22.0664 252.477 22.3195 252.721 22.5764L254.169 21.1971ZM250.848 20.0664C248.91 20.0664 247.387 20.927 246.411 22.5917L248.136 23.6036C248.748 22.5599 249.609 22.0664 250.848 22.0664V20.0664ZM246.273 23.0977V38H248.273V23.0977H246.273ZM247.273 37H241.629V39H247.273V37ZM242.629 38V16.8672H240.629V38H242.629ZM241.629 17.8672H246.941V15.8672H241.629V17.8672Z" fill="#FAFAFA"/>
</mask>
<g mask="url(#mask1)">
<rect x="-11" y="-20" width="291" height="41" fill="#FAFAFA"/>
</g>
</g>
</svg>
