<svg width="239" height="100" viewBox="0 0 239 100" fill="none" xmlns="http://www.w3.org/2000/svg">
<g opacity="0.8">
<mask id="mask0_581:7412" style="mask-type:alpha" maskUnits="userSpaceOnUse" x="1" y="30" width="237" height="41">
<path d="M24.2344 32.5626H25.2344V31.5626H24.2344V32.5626ZM21.3047 58.6759L20.625 57.9424L20.6225 57.9447L21.3047 58.6759ZM2.4375 51.5079H1.43742L1.43758 51.5206L2.4375 51.5079ZM2.4375 32.5626V31.5626H1.4375V32.5626H2.4375ZM8.29688 32.5626H9.29688V31.5626H8.29688V32.5626ZM9.625 55.4142L8.92852 56.1318L8.93388 56.137L8.93931 56.1421L9.625 55.4142ZM18.3555 51.4884L19.3554 51.5034L19.3555 51.4959V51.4884H18.3555ZM18.3555 32.5626V31.5626H17.3555V32.5626H18.3555ZM23.2344 32.5626V51.2931H25.2344V32.5626H23.2344ZM23.2344 51.2931C23.2344 54.178 22.3391 56.354 20.625 57.9424L21.9844 59.4094C24.1766 57.378 25.2344 54.6322 25.2344 51.2931H23.2344ZM20.6225 57.9447C18.9139 59.5387 16.5265 60.3907 13.3359 60.3907V62.3907C16.8902 62.3907 19.8153 61.4329 21.9868 59.4071L20.6225 57.9447ZM13.3359 60.3907C10.1952 60.3907 7.81962 59.5631 6.09475 58.0107L4.75682 59.4973C6.9382 61.4606 9.83605 62.3907 13.3359 62.3907V60.3907ZM6.09475 58.0107C4.38459 56.4716 3.47359 54.3408 3.43742 51.4952L1.43758 51.5206C1.47953 54.8209 2.56072 57.5208 4.75682 59.4973L6.09475 58.0107ZM3.4375 51.5079V32.5626H1.4375V51.5079H3.4375ZM2.4375 33.5626H8.29688V31.5626H2.4375V33.5626ZM7.29688 32.5626V51.3322H9.29688V32.5626H7.29688ZM7.29688 51.3322C7.29688 53.3282 7.76925 55.0066 8.92852 56.1318L10.3215 54.6966C9.70992 54.103 9.29688 53.0601 9.29688 51.3322H7.29688ZM8.93931 56.1421C10.0705 57.2077 11.5788 57.6837 13.3359 57.6837V55.6837C11.9421 55.6837 10.9764 55.3134 10.3107 54.6863L8.93931 56.1421ZM13.3359 57.6837C15.1515 57.6837 16.6946 57.2039 17.7807 56.0797C18.8581 54.9646 19.3272 53.3784 19.3554 51.5034L17.3556 51.4734C17.3317 53.0619 16.9381 54.0735 16.3424 54.6901C15.7553 55.2977 14.8146 55.6837 13.3359 55.6837V57.6837ZM19.3555 51.4884V32.5626H17.3555V51.4884H19.3555ZM18.3555 33.5626H24.2344V31.5626H18.3555V33.5626ZM39.2148 42.3673L38.3363 42.8451L39.2148 44.4605L40.0933 42.8451L39.2148 42.3673ZM44.5469 32.5626V31.5626H43.9524L43.6684 32.0849L44.5469 32.5626ZM51.2852 32.5626L52.1475 33.069L53.0321 31.5626H51.2852V32.5626ZM43.0039 46.6642L42.1416 46.1578L41.8429 46.6665L42.1436 47.174L43.0039 46.6642ZM51.5 61.0001V62.0001H53.2551L52.3603 60.4903L51.5 61.0001ZM44.6836 61.0001L43.807 61.4814L44.0918 62.0001H44.6836V61.0001ZM39.2148 51.0392L40.0914 50.5579L39.2148 48.9613L38.3383 50.5579L39.2148 51.0392ZM33.7461 61.0001V62.0001H34.3379L34.6227 61.4814L33.7461 61.0001ZM26.9297 61.0001L26.0694 60.4903L25.1746 62.0001H26.9297V61.0001ZM35.4258 46.6642L36.2861 47.174L36.5868 46.6665L36.2881 46.1578L35.4258 46.6642ZM27.1445 32.5626V31.5626H25.3976L26.2822 33.069L27.1445 32.5626ZM33.8828 32.5626L34.7613 32.0849L34.4773 31.5626H33.8828V32.5626ZM40.0933 42.8451L45.4254 33.0404L43.6684 32.0849L38.3363 41.8896L40.0933 42.8451ZM44.5469 33.5626H51.2852V31.5626H44.5469V33.5626ZM50.4229 32.0562L42.1416 46.1578L43.8662 47.1706L52.1475 33.069L50.4229 32.0562ZM42.1436 47.174L50.6397 61.51L52.3603 60.4903L43.8642 46.1544L42.1436 47.174ZM51.5 60.0001H44.6836V62.0001H51.5V60.0001ZM45.5602 60.5189L40.0914 50.5579L38.3383 51.5204L43.807 61.4814L45.5602 60.5189ZM38.3383 50.5579L32.8695 60.5189L34.6227 61.4814L40.0914 51.5204L38.3383 50.5579ZM33.7461 60.0001H26.9297V62.0001H33.7461V60.0001ZM27.79 61.51L36.2861 47.174L34.5655 46.1544L26.0694 60.4903L27.79 61.51ZM36.2881 46.1578L28.0068 32.0562L26.2822 33.069L34.5635 47.1706L36.2881 46.1578ZM27.1445 33.5626H33.8828V31.5626H27.1445V33.5626ZM33.0043 33.0404L38.3363 42.8451L40.0933 41.8896L34.7613 32.0849L33.0043 33.0404ZM55.875 63.4415V64.4415H56.5919L56.8221 63.7626L55.875 63.4415ZM51.6758 63.4415L50.7287 63.1205L50.2808 64.4415H51.6758V63.4415ZM62.1445 32.5626V31.5626H61.4277L61.1975 32.2415L62.1445 32.5626ZM66.3438 32.5626L67.2908 32.8837L67.7387 31.5626H66.3438V32.5626ZM55.875 62.4415H51.6758V64.4415H55.875V62.4415ZM52.6228 63.7626L63.0916 32.8837L61.1975 32.2415L50.7287 63.1205L52.6228 63.7626ZM62.1445 33.5626H66.3438V31.5626H62.1445V33.5626ZM65.3967 32.2415L54.9279 63.1205L56.8221 63.7626L67.2908 32.8837L65.3967 32.2415ZM90.9531 32.5626H91.9531V31.5626H90.9531V32.5626ZM88.0234 58.6759L87.3437 57.9424L87.3413 57.9447L88.0234 58.6759ZM69.1562 51.5079H68.1562L68.1563 51.5206L69.1562 51.5079ZM69.1562 32.5626V31.5626H68.1562V32.5626H69.1562ZM75.0156 32.5626H76.0156V31.5626H75.0156V32.5626ZM76.3438 55.4142L75.6473 56.1318L75.6526 56.137L75.6581 56.1421L76.3438 55.4142ZM85.0742 51.4884L86.0741 51.5034L86.0742 51.4959V51.4884H85.0742ZM85.0742 32.5626V31.5626H84.0742V32.5626H85.0742ZM89.9531 32.5626V51.2931H91.9531V32.5626H89.9531ZM89.9531 51.2931C89.9531 54.178 89.0578 56.354 87.3437 57.9424L88.7031 59.4094C90.8953 57.378 91.9531 54.6322 91.9531 51.2931H89.9531ZM87.3413 57.9447C85.6326 59.5387 83.2452 60.3907 80.0547 60.3907V62.3907C83.609 62.3907 86.534 61.4329 88.7056 59.4071L87.3413 57.9447ZM80.0547 60.3907C76.9139 60.3907 74.5384 59.5631 72.8135 58.0107L71.4756 59.4973C73.6569 61.4606 76.5548 62.3907 80.0547 62.3907V60.3907ZM72.8135 58.0107C71.1033 56.4716 70.1923 54.3408 70.1562 51.4952L68.1563 51.5206C68.1983 54.8209 69.2795 57.5208 71.4756 59.4973L72.8135 58.0107ZM70.1562 51.5079V32.5626H68.1562V51.5079H70.1562ZM69.1562 33.5626H75.0156V31.5626H69.1562V33.5626ZM74.0156 32.5626V51.3322H76.0156V32.5626H74.0156ZM74.0156 51.3322C74.0156 53.3282 74.488 55.0066 75.6473 56.1318L77.0402 54.6966C76.4287 54.103 76.0156 53.0601 76.0156 51.3322H74.0156ZM75.6581 56.1421C76.7892 57.2077 78.2975 57.6837 80.0547 57.6837V55.6837C78.6608 55.6837 77.6951 55.3134 77.0294 54.6863L75.6581 56.1421ZM80.0547 57.6837C81.8703 57.6837 83.4133 57.2039 84.4994 56.0797C85.5769 54.9646 86.0459 53.3784 86.0741 51.5034L84.0743 51.4734C84.0504 53.0619 83.6568 54.0735 83.0611 54.6901C82.474 55.2977 81.5334 55.6837 80.0547 55.6837V57.6837ZM86.0742 51.4884V32.5626H84.0742V51.4884H86.0742ZM85.0742 33.5626H90.9531V31.5626H85.0742V33.5626ZM101.988 61.0001V62.0001H102.988V61.0001H101.988ZM96.1289 61.0001H95.1289V62.0001H96.1289V61.0001ZM96.1289 32.5626V31.5626H95.1289V32.5626H96.1289ZM101.988 32.5626H102.988V31.5626H101.988V32.5626ZM101.988 60.0001H96.1289V62.0001H101.988V60.0001ZM97.1289 61.0001V32.5626H95.1289V61.0001H97.1289ZM96.1289 33.5626H101.988V31.5626H96.1289V33.5626ZM100.988 32.5626V61.0001H102.988V32.5626H100.988ZM117.398 61.0001H116.398V62.0001H117.398V61.0001ZM117.398 32.5626V31.5626H116.398V32.5626H117.398ZM132.848 34.2618L132.348 35.1283L132.355 35.1322L132.848 34.2618ZM137.477 39.0665L136.593 39.5357L136.595 39.538L137.477 39.0665ZM137.496 54.4962L136.613 54.0268L136.611 54.0312L137.496 54.4962ZM132.906 59.2814L133.403 60.1493L132.906 59.2814ZM126.207 61.0001V62.0001L126.212 62.0001L126.207 61.0001ZM123.258 37.3087V36.3087H122.258V37.3087H123.258ZM123.258 56.2931H122.258V57.2931H123.258V56.2931ZM133.199 47.6212L134.199 47.6306V47.6212H133.199ZM131.402 39.5548L130.621 40.1795L130.624 40.1828L131.402 39.5548ZM118.398 61.0001V32.5626H116.398V61.0001H118.398ZM117.398 33.5626H126.148V31.5626H117.398V33.5626ZM126.148 33.5626C128.492 33.5626 130.549 34.0917 132.348 35.1283L133.347 33.3954C131.214 32.1664 128.805 31.5626 126.148 31.5626V33.5626ZM132.355 35.1322C134.162 36.1546 135.573 37.6139 136.593 39.5357L138.36 38.5974C137.167 36.3525 135.491 34.6087 133.34 33.3915L132.355 35.1322ZM136.595 39.538C137.615 41.4458 138.137 43.6371 138.137 46.1368H140.137C140.137 43.3501 139.552 40.8279 138.358 38.5951L136.595 39.538ZM138.137 46.1368V47.4454H140.137V46.1368H138.137ZM138.137 47.4454C138.137 49.9472 137.62 52.1325 136.613 54.0268L138.379 54.9656C139.559 52.7454 140.137 50.2301 140.137 47.4454H138.137ZM136.611 54.0312C135.617 55.9233 134.22 57.3771 132.41 58.4135L133.403 60.1493C135.551 58.92 137.214 57.1837 138.381 54.9613L136.611 54.0312ZM132.41 58.4135C130.593 59.453 128.532 59.9879 126.202 60.0001L126.212 62.0001C128.856 61.9863 131.261 61.3754 133.403 60.1493L132.41 58.4135ZM126.207 60.0001H117.398V62.0001H126.207V60.0001ZM122.258 37.3087V56.2931H124.258V37.3087H122.258ZM123.258 57.2931H126.09V55.2931H123.258V57.2931ZM126.09 57.2931C128.62 57.2931 130.684 56.4535 132.121 54.6758L130.566 53.4182C129.582 54.6353 128.143 55.2931 126.09 55.2931V57.2931ZM132.121 54.6758C133.525 52.9395 134.172 50.5448 134.199 47.6306L132.199 47.6119C132.174 50.2705 131.584 52.1597 130.566 53.4182L132.121 54.6758ZM134.199 47.6212V46.1173H132.199V47.6212H134.199ZM134.199 46.1173C134.199 43.1107 133.58 40.6603 132.181 38.9268L130.624 40.1828C131.621 41.4181 132.199 43.3427 132.199 46.1173H134.199ZM132.183 38.9301C130.757 37.147 128.689 36.3087 126.148 36.3087V38.3087C128.217 38.3087 129.652 38.9678 130.621 40.1795L132.183 38.9301ZM126.148 36.3087H123.258V38.3087H126.148V36.3087ZM145.191 58.5392L144.492 59.2534L144.494 59.2558L145.191 58.5392ZM143.512 44.7111L144.409 45.1527L144.41 45.1499L143.512 44.7111ZM146.988 40.8439L147.503 41.7014L147.505 41.7001L146.988 40.8439ZM158.961 42.2111L158.22 42.8829L158.223 42.8858L158.961 42.2111ZM161.461 52.2697V53.2697H162.461V52.2697H161.461ZM148.004 52.2697V51.2697H146.863L147.013 52.4006L148.004 52.2697ZM149.645 55.59L148.97 56.328L148.975 56.3327L149.645 55.59ZM158.238 54.4767L158.984 53.8106L158.185 52.9155L157.449 53.8632L158.238 54.4767ZM161.012 57.5822L161.828 58.1592L162.288 57.5094L161.758 56.916L161.012 57.5822ZM157.574 60.3947L157.992 61.3034L157.998 61.3002L157.574 60.3947ZM149.391 45.1798L148.659 44.4984L148.652 44.5052L149.391 45.1798ZM148.062 48.422L147.072 48.2844L146.914 49.422H148.062V48.422ZM155.914 48.422V49.422H156.914V48.422H155.914ZM155.914 47.9728H156.914V47.9624L156.914 47.952L155.914 47.9728ZM154.898 45.0822L154.171 45.7684L154.178 45.7753L154.898 45.0822ZM152.77 60.3907C149.892 60.3907 147.629 59.5166 145.889 57.8226L144.494 59.2558C146.66 61.3638 149.449 62.3907 152.77 62.3907V60.3907ZM145.891 57.8249C144.175 56.1431 143.281 53.8849 143.281 50.9415H141.281C141.281 54.3263 142.328 57.1332 144.492 59.2534L145.891 57.8249ZM143.281 50.9415V50.3947H141.281V50.9415H143.281ZM143.281 50.3947C143.281 48.4035 143.665 46.6635 144.409 45.1527L142.615 44.2695C141.718 46.0919 141.281 48.141 141.281 50.3947H143.281ZM144.41 45.1499C145.152 43.6311 146.183 42.4932 147.503 41.7014L146.474 39.9864C144.799 40.9914 143.512 42.4316 142.613 44.2722L144.41 45.1499ZM147.505 41.7001C148.845 40.8913 150.382 40.4767 152.145 40.4767V38.4767C150.053 38.4767 148.152 38.9735 146.472 39.9877L147.505 41.7001ZM152.145 40.4767C154.807 40.4767 156.79 41.3058 158.22 42.8829L159.702 41.5392C157.825 39.4705 155.263 38.4767 152.145 38.4767V40.4767ZM158.223 42.8858C159.669 44.4674 160.461 46.7785 160.461 49.965H162.461C162.461 46.4587 161.586 43.6005 159.699 41.5363L158.223 42.8858ZM160.461 49.965V52.2697H162.461V49.965H160.461ZM161.461 51.2697H148.004V53.2697H161.461V51.2697ZM147.013 52.4006C147.221 53.9825 147.862 55.3156 148.97 56.328L150.319 54.8519C149.604 54.1977 149.151 53.3172 148.995 52.1387L147.013 52.4006ZM148.975 56.3327C150.107 57.3534 151.522 57.84 153.141 57.84V55.84C151.947 55.84 151.031 55.4932 150.314 54.8472L148.975 56.3327ZM153.141 57.84C155.592 57.84 157.596 56.9337 159.028 55.0902L157.449 53.8632C156.433 55.1707 155.038 55.84 153.141 55.84V57.84ZM157.492 55.1428L160.266 58.2483L161.758 56.916L158.984 53.8106L157.492 55.1428ZM160.195 57.0051C159.457 58.049 158.452 58.8789 157.15 59.4891L157.998 61.3002C159.587 60.5562 160.873 59.5111 161.828 58.1592L160.195 57.0051ZM157.157 59.486C155.856 60.0838 154.398 60.3907 152.77 60.3907V62.3907C154.656 62.3907 156.402 62.0336 157.992 61.3033L157.157 59.486ZM152.125 43.047C150.754 43.047 149.568 43.5215 148.659 44.4984L150.123 45.8612C150.619 45.3277 151.256 45.047 152.125 45.047V43.047ZM148.652 44.5052C147.782 45.4575 147.285 46.7531 147.072 48.2844L149.053 48.5596C149.231 47.2784 149.619 46.4125 150.129 45.8544L148.652 44.5052ZM148.062 49.422H155.914V47.422H148.062V49.422ZM156.914 48.422V47.9728H154.914V48.422H156.914ZM156.914 47.952C156.884 46.5357 156.496 45.3003 155.619 44.389L154.178 45.7753C154.603 46.2181 154.892 46.9099 154.914 47.9936L156.914 47.952ZM155.626 44.3959C154.739 43.4558 153.521 43.047 152.125 43.047V45.047C153.124 45.047 153.756 45.3283 154.171 45.7684L155.626 44.3959ZM175.094 53.5392L174.582 54.3981L174.591 54.4039L174.601 54.4094L175.094 53.5392ZM171.812 52.465L171.607 53.4437L171.61 53.4442L171.812 52.465ZM166.598 41.3712L167.226 42.1495L167.226 42.1489L166.598 41.3712ZM179.137 41.3712L178.517 42.1564L178.521 42.1589L179.137 41.3712ZM181.559 46.2931V47.2931H182.559V46.2931H181.559ZM175.914 46.2931H174.914V47.2931H175.914V46.2931ZM175.133 44.3009L174.417 44.9993L174.426 45.008L175.133 44.3009ZM170.582 47.3087L170.027 48.1408L170.038 48.1478L170.049 48.1546L170.582 47.3087ZM173.59 48.3048L173.39 49.2847L173.399 49.2864L173.59 48.3048ZM177.145 49.2423L177.489 48.3035L177.487 48.3029L177.145 49.2423ZM179.137 59.6134L179.719 60.4263L179.723 60.4232L179.137 59.6134ZM168.004 60.4532L167.581 61.3595L167.591 61.3642L168.004 60.4532ZM164.781 57.8556L163.964 58.4323L163.968 58.4368L164.781 57.8556ZM163.609 54.2814V53.2814H162.609V54.2814H163.609ZM168.961 54.2814L169.96 54.2295L169.91 53.2814H168.961V54.2814ZM175.289 56.7814L175.883 57.586L175.886 57.5836L175.289 56.7814ZM177.129 55.1603C177.129 54.0496 176.534 53.2053 175.586 52.6689L174.601 54.4094C175.034 54.6544 175.129 54.8907 175.129 55.1603H177.129ZM175.606 52.6802C174.78 52.188 173.551 51.8035 172.015 51.4857L171.61 53.4442C173.095 53.7515 174.053 54.0831 174.582 54.3981L175.606 52.6802ZM172.018 51.4863C169.585 50.9759 167.884 50.2262 166.806 49.3104C165.766 48.4271 165.273 47.3649 165.273 46.0587H163.273C163.273 47.9687 164.037 49.5823 165.511 50.8344C166.946 52.0539 169.013 52.8994 171.607 53.4436L172.018 51.4863ZM165.273 46.0587C165.273 44.5069 165.895 43.2232 167.226 42.1495L165.97 40.5929C164.202 42.0193 163.273 43.8605 163.273 46.0587H165.273ZM167.226 42.1489C168.57 41.0628 170.368 40.4767 172.711 40.4767V38.4767C170.028 38.4767 167.75 39.1536 165.969 40.5935L167.226 42.1489ZM172.711 40.4767C175.24 40.4767 177.141 41.0709 178.517 42.1564L179.756 40.586C177.929 39.1455 175.547 38.4767 172.711 38.4767V40.4767ZM178.521 42.1589C179.897 43.2358 180.559 44.5881 180.559 46.2931H182.559C182.559 43.9616 181.605 42.0326 179.753 40.5836L178.521 42.1589ZM181.559 45.2931H175.914V47.2931H181.559V45.2931ZM176.914 46.2931C176.914 45.2486 176.567 44.3211 175.84 43.5938L174.426 45.008C174.74 45.3224 174.914 45.723 174.914 46.2931H176.914ZM175.849 43.6026C175.065 42.7993 173.938 42.5001 172.691 42.5001V44.5001C173.659 44.5001 174.159 44.7348 174.417 44.9992L175.849 43.6026ZM172.691 42.5001C171.602 42.5001 170.609 42.7457 169.848 43.3733L171.121 44.916C171.402 44.6843 171.88 44.5001 172.691 44.5001V42.5001ZM169.848 43.3733C169.101 43.9892 168.703 44.817 168.703 45.7853H170.703C170.703 45.4255 170.826 45.1594 171.121 44.916L169.848 43.3733ZM168.703 45.7853C168.703 46.7914 169.204 47.5922 170.027 48.1408L171.137 46.4767C170.788 46.244 170.703 46.0292 170.703 45.7853H168.703ZM170.049 48.1546C170.809 48.6338 171.962 48.9937 173.39 49.2847L173.789 47.3249C172.405 47.043 171.553 46.7388 171.115 46.4628L170.049 48.1546ZM173.399 49.2864C174.772 49.5534 175.903 49.8537 176.802 50.1817L177.487 48.3029C176.459 47.9278 175.22 47.6031 173.781 47.3232L173.399 49.2864ZM176.8 50.1811C178.171 50.684 179.113 51.3397 179.713 52.1019C180.304 52.8521 180.617 53.7746 180.617 54.9259H182.617C182.617 53.3819 182.185 52.0094 181.285 50.8651C180.394 49.7328 179.1 48.8944 177.489 48.3035L176.8 50.1811ZM180.617 54.9259C180.617 56.5106 179.962 57.7806 178.55 58.8036L179.723 60.4232C181.618 59.0504 182.617 57.1954 182.617 54.9259H180.617ZM178.554 58.8005C177.113 59.833 175.199 60.3907 172.73 60.3907V62.3907C175.497 62.3907 177.853 61.7636 179.719 60.4263L178.554 58.8005ZM172.73 60.3907C171.078 60.3907 169.647 60.0995 168.416 59.5423L167.591 61.3642C169.121 62.057 170.841 62.3907 172.73 62.3907V60.3907ZM168.427 59.5471C167.196 58.9728 166.264 58.2114 165.595 57.2744L163.968 58.4368C164.861 59.6873 166.077 60.6577 167.581 61.3594L168.427 59.5471ZM165.598 57.2789C164.928 56.3298 164.609 55.3378 164.609 54.2814H162.609C162.609 55.777 163.072 57.1678 163.964 58.4323L165.598 57.2789ZM163.609 55.2814H168.961V53.2814H163.609V55.2814ZM167.962 54.3333C168.027 55.5781 168.506 56.6371 169.462 57.377L170.686 55.7951C170.262 55.4673 169.999 54.9899 169.96 54.2295L167.962 54.3333ZM169.462 57.377C170.377 58.0849 171.54 58.3868 172.848 58.3868V56.3868C171.838 56.3868 171.151 56.1549 170.686 55.7951L169.462 57.377ZM172.848 58.3868C174.025 58.3868 175.089 58.1718 175.883 57.5859L174.695 55.9768C174.395 56.1983 173.831 56.3868 172.848 56.3868V58.3868ZM175.886 57.5836C176.684 56.9895 177.129 56.1588 177.129 55.1603H175.129C175.129 55.4899 175.014 55.7399 174.692 55.9791L175.886 57.5836ZM191.227 61.0001V62.0001H192.227V61.0001H191.227ZM185.562 61.0001H184.562V62.0001H185.562V61.0001ZM185.562 39.8673V38.8673H184.562V39.8673H185.562ZM191.227 39.8673H192.227V38.8673H191.227V39.8673ZM186.07 32.3087L185.38 31.5853L185.372 31.5933L186.07 32.3087ZM190.68 36.5079L189.997 35.7768L189.989 35.7846L190.68 36.5079ZM186.09 36.5079L185.399 37.2313L185.408 37.239L186.09 36.5079ZM191.227 60.0001H185.562V62.0001H191.227V60.0001ZM186.562 61.0001V39.8673H184.562V61.0001H186.562ZM185.562 40.8673H191.227V38.8673H185.562V40.8673ZM190.227 39.8673V61.0001H192.227V39.8673H190.227ZM186.23 34.3986C186.23 33.7972 186.419 33.3665 186.769 33.0241L185.372 31.5933C184.602 32.3447 184.23 33.3072 184.23 34.3986H186.23ZM186.761 33.0321C187.107 32.702 187.612 32.4884 188.395 32.4884V30.4884C187.224 30.4884 186.18 30.8217 185.38 31.5854L186.761 33.0321ZM188.395 32.4884C189.16 32.4884 189.661 32.6997 190.009 33.0321L191.39 31.5854C190.592 30.824 189.556 30.4884 188.395 30.4884V32.4884ZM190.009 33.0321C190.369 33.3763 190.559 33.8046 190.559 34.3986H192.559C192.559 33.2998 192.175 32.3349 191.39 31.5854L190.009 33.0321ZM190.559 34.3986C190.559 35.0031 190.365 35.4339 189.997 35.7769L191.362 37.239C192.166 36.4882 192.559 35.5127 192.559 34.3986H190.559ZM189.989 35.7846C189.638 36.1194 189.143 36.3282 188.395 36.3282V38.3282C189.548 38.3282 190.575 37.9902 191.37 37.2313L189.989 35.7846ZM188.395 36.3282C187.647 36.3282 187.139 36.1196 186.772 35.7769L185.408 37.239C186.212 37.9901 187.241 38.3282 188.395 38.3282V36.3282ZM186.78 35.7846C186.423 35.4435 186.23 35.0105 186.23 34.3986H184.23C184.23 35.5054 184.611 36.4786 185.399 37.2313L186.78 35.7846ZM197.379 42.4454L196.592 41.829L196.589 41.8322L197.379 42.4454ZM209.039 41.8595L208.263 42.4896L209.755 44.3293L210.032 41.9763L209.039 41.8595ZM209.273 39.8673V38.8673H208.384L208.28 39.7505L209.273 39.8673ZM214.391 39.8673H215.391V38.8673H214.391V39.8673ZM213.121 65.1212L212.271 64.5948L212.267 64.6008L213.121 65.1212ZM199.703 68.3829L200.094 67.4625L200.087 67.4596L199.703 68.3829ZM196.363 66.0001L195.555 65.4119L195.113 66.0185L195.572 66.6119L196.363 66.0001ZM198.863 62.5626L199.609 61.8967L198.784 60.9718L198.055 61.9744L198.863 62.5626ZM207.477 63.715L206.787 62.9911L206.781 62.9967L207.477 63.715ZM208.727 59.1837H209.727V56.5448L207.978 58.521L208.727 59.1837ZM197.418 58.422L196.631 59.0392L196.636 59.0448L197.418 58.422ZM201.871 55.1993L201.053 55.7741L201.056 55.7787L201.871 55.1993ZM208.727 54.8868L209.593 55.3858L209.727 55.1541V54.8868H208.727ZM208.727 46.0001H209.727V45.7288L209.589 45.4946L208.727 46.0001ZM201.871 45.7267L201.054 45.15L201.05 45.1565L201.871 45.7267ZM196.074 50.2775C196.074 47.1916 196.804 44.8167 198.169 43.0587L196.589 41.8322C194.881 44.0325 194.074 46.879 194.074 50.2775H196.074ZM198.166 43.0619C199.517 41.3362 201.304 40.4767 203.629 40.4767V38.4767C200.719 38.4767 198.339 39.5963 196.592 41.829L198.166 43.0619ZM203.629 40.4767C205.69 40.4767 207.19 41.168 208.263 42.4896L209.816 41.2294C208.31 39.3739 206.203 38.4767 203.629 38.4767V40.4767ZM210.032 41.9763L210.267 39.9841L208.28 39.7505L208.046 41.7427L210.032 41.9763ZM209.273 40.8673H214.391V38.8673H209.273V40.8673ZM213.391 39.8673V60.297H215.391V39.8673H213.391ZM213.391 60.297C213.391 61.9884 213.005 63.4083 212.271 64.5949L213.971 65.6476C214.93 64.0997 215.391 62.3035 215.391 60.297H213.391ZM212.267 64.6008C211.541 65.7917 210.516 66.704 209.161 67.3412L210.011 69.1512C211.703 68.3562 213.034 67.1851 213.975 65.6417L212.267 64.6008ZM209.161 67.3412C207.796 67.9828 206.163 68.3204 204.234 68.3204V70.3204C206.395 70.3204 208.329 69.9419 210.011 69.1512L209.161 67.3412ZM204.234 68.3204C202.824 68.3204 201.446 68.0367 200.094 67.4625L199.312 69.3033C200.903 69.9792 202.546 70.3204 204.234 70.3204V68.3204ZM200.087 67.4596C198.731 66.8954 197.777 66.1931 197.154 65.3884L195.572 66.6119C196.46 67.7603 197.733 68.6465 199.319 69.3063L200.087 67.4596ZM197.172 66.5883L199.672 63.1508L198.055 61.9744L195.555 65.4119L197.172 66.5883ZM198.117 63.2285C199.702 65.0038 201.674 65.9259 203.98 65.9259V63.9259C202.277 63.9259 200.837 63.2725 199.609 61.8967L198.117 63.2285ZM203.98 65.9259C205.659 65.9259 207.103 65.4693 208.172 64.4332L206.781 62.9967C206.184 63.5752 205.297 63.9259 203.98 63.9259V65.9259ZM208.167 64.4388C209.249 63.4068 209.727 61.9811 209.727 60.3165H207.727C207.727 61.5947 207.37 62.4346 206.787 62.9911L208.167 64.4388ZM209.727 60.3165V59.1837H207.727V60.3165H209.727ZM207.978 58.521C206.882 59.7592 205.452 60.3907 203.59 60.3907V62.3907C205.973 62.3907 207.967 61.5509 209.475 59.8464L207.978 58.521ZM203.59 60.3907C201.354 60.3907 199.585 59.539 198.2 57.7992L196.636 59.0448C198.402 61.2633 200.747 62.3907 203.59 62.3907V60.3907ZM198.205 57.8049C196.817 56.0349 196.074 53.6361 196.074 50.5118H194.074C194.074 53.9501 194.894 56.8247 196.631 59.0391L198.205 57.8049ZM196.074 50.5118V50.2775H194.074V50.5118H196.074ZM199.719 50.6876C199.719 52.722 200.125 54.4536 201.053 55.7741L202.689 54.6246C202.08 53.7576 201.719 52.4813 201.719 50.6876H199.719ZM201.056 55.7787C202.014 57.1269 203.375 57.8204 205.035 57.8204V55.8204C204.013 55.8204 203.264 55.4332 202.686 54.62L201.056 55.7787ZM205.035 57.8204C207.045 57.8204 208.642 57.0385 209.593 55.3858L207.86 54.3879C207.327 55.3133 206.463 55.8204 205.035 55.8204V57.8204ZM209.727 54.8868V46.0001H207.727V54.8868H209.727ZM209.589 45.4946C208.629 43.8561 207.056 43.0665 205.074 43.0665V45.0665C206.452 45.0665 207.313 45.566 207.864 46.5056L209.589 45.4946ZM205.074 43.0665C203.395 43.0665 202.023 43.7779 201.054 45.15L202.688 46.3034C203.282 45.4619 204.045 45.0665 205.074 45.0665V43.0665ZM201.05 45.1565C200.113 46.5065 199.719 48.4008 199.719 50.6876H201.719C201.719 48.5734 202.093 47.1604 202.693 46.2969L201.05 45.1565ZM223.941 39.8673L224.939 39.7955L224.872 38.8673H223.941V39.8673ZM224.117 42.3087L223.12 42.3805L223.303 44.9271L224.898 42.9334L224.117 42.3087ZM235.191 41.4493L235.96 40.8099L235.191 41.4493ZM236.871 47.3478H237.871L237.871 47.3378L236.871 47.3478ZM236.871 61.0001V62.0001H237.871V61.0001H236.871ZM231.227 61.0001H230.227V62.0001H231.227V61.0001ZM230.445 44.8868L229.721 45.5765L229.73 45.5852L230.445 44.8868ZM224.273 46.0978L223.411 45.5918L223.273 45.8261V46.0978H224.273ZM224.273 61.0001V62.0001H225.273V61.0001H224.273ZM218.629 61.0001H217.629V62.0001H218.629V61.0001ZM218.629 39.8673V38.8673H217.629V39.8673H218.629ZM222.944 39.9391L223.12 42.3805L225.115 42.2369L224.939 39.7955L222.944 39.9391ZM224.898 42.9334C226.208 41.296 227.939 40.4767 230.191 40.4767V38.4767C227.366 38.4767 225.047 39.5454 223.336 41.684L224.898 42.9334ZM230.191 40.4767C232.232 40.4767 233.574 41.0683 234.423 42.0888L235.96 40.8099C234.621 39.2001 232.63 38.4767 230.191 38.4767V40.4767ZM234.423 42.0888C235.309 43.1545 235.846 44.8545 235.871 47.3577L237.871 47.3378C237.844 44.6067 237.261 42.3744 235.96 40.8099L234.423 42.0888ZM235.871 47.3478V61.0001H237.871V47.3478H235.871ZM236.871 60.0001H231.227V62.0001H236.871V60.0001ZM232.227 61.0001V47.4845H230.227V61.0001H232.227ZM232.227 47.4845C232.227 46.177 231.948 44.995 231.161 44.1885L229.73 45.5852C229.984 45.8464 230.227 46.3961 230.227 47.4845H232.227ZM231.169 44.1972C230.372 43.3603 229.172 43.0665 227.848 43.0665V45.0665C228.945 45.0665 229.477 45.3196 229.721 45.5765L231.169 44.1972ZM227.848 43.0665C225.91 43.0665 224.387 43.9272 223.411 45.5918L225.136 46.6037C225.748 45.5601 226.609 45.0665 227.848 45.0665V43.0665ZM223.273 46.0978V61.0001H225.273V46.0978H223.273ZM224.273 60.0001H218.629V62.0001H224.273V60.0001ZM219.629 61.0001V39.8673H217.629V61.0001H219.629ZM218.629 40.8673H223.941V38.8673H218.629V40.8673Z" fill="#FAFAFA"/>
</mask>
<g mask="url(#mask0_581:7412)">
<rect x="-34" y="3.00012" width="291" height="50" fill="#FAFAFA"/>
</g>
</g>
<path d="M24.2344 62.5626V81.2931C24.2344 84.4051 23.2578 86.866 21.3047 88.6759C19.3646 90.4858 16.7083 91.3907 13.3359 91.3907C10.0156 91.3907 7.37891 90.5118 5.42578 88.754C3.47266 86.9962 2.47656 84.5809 2.4375 81.5079V62.5626H8.29688V81.3322C8.29688 83.1941 8.73958 84.5548 9.625 85.4142C10.5234 86.2605 11.7604 86.6837 13.3359 86.6837C16.6302 86.6837 18.3034 84.9519 18.3555 81.4884V62.5626H24.2344ZM39.2148 72.3673L44.5469 62.5626H51.2852L43.0039 76.6642L51.5 91.0001H44.6836L39.2148 81.0392L33.7461 91.0001H26.9297L35.4258 76.6642L27.1445 62.5626H33.8828L39.2148 72.3673ZM55.875 93.4415H51.6758L62.1445 62.5626H66.3438L55.875 93.4415ZM90.9531 62.5626V81.2931C90.9531 84.4051 89.9766 86.866 88.0234 88.6759C86.0833 90.4858 83.4271 91.3907 80.0547 91.3907C76.7344 91.3907 74.0977 90.5118 72.1445 88.754C70.1914 86.9962 69.1953 84.5809 69.1562 81.5079V62.5626H75.0156V81.3322C75.0156 83.1941 75.4583 84.5548 76.3438 85.4142C77.2422 86.2605 78.4792 86.6837 80.0547 86.6837C83.349 86.6837 85.0221 84.9519 85.0742 81.4884V62.5626H90.9531ZM101.988 91.0001H96.1289V62.5626H101.988V91.0001ZM117.398 91.0001V62.5626H126.148C128.648 62.5626 130.882 63.129 132.848 64.2618C134.827 65.3816 136.37 66.9832 137.477 69.0665C138.583 71.1368 139.137 73.4936 139.137 76.1368V77.4454C139.137 80.0887 138.59 82.4389 137.496 84.4962C136.415 86.5535 134.885 88.1486 132.906 89.2814C130.927 90.4142 128.694 90.9871 126.207 91.0001H117.398ZM123.258 67.3087V86.2931H126.09C128.382 86.2931 130.133 85.5444 131.344 84.047C132.555 82.5496 133.173 80.4077 133.199 77.6212V76.1173C133.199 73.2267 132.6 71.0392 131.402 69.5548C130.204 68.0574 128.453 67.3087 126.148 67.3087H123.258ZM152.77 91.3907C149.671 91.3907 147.145 90.4402 145.191 88.5392C143.251 86.6381 142.281 84.1056 142.281 80.9415V80.3947C142.281 78.2723 142.691 76.3777 143.512 74.7111C144.332 73.0314 145.491 71.7423 146.988 70.8439C148.499 69.9324 150.217 69.4767 152.145 69.4767C155.035 69.4767 157.307 70.3881 158.961 72.2111C160.628 74.034 161.461 76.6186 161.461 79.965V82.2697H148.004C148.186 83.6499 148.733 84.7566 149.645 85.59C150.569 86.4233 151.734 86.84 153.141 86.84C155.315 86.84 157.014 86.0522 158.238 84.4767L161.012 87.5822C160.165 88.7801 159.02 89.7176 157.574 90.3947C156.129 91.0587 154.527 91.3907 152.77 91.3907ZM152.125 74.047C151.005 74.047 150.094 74.4246 149.391 75.1798C148.701 75.935 148.258 77.0157 148.062 78.422H155.914V77.9728C155.888 76.7228 155.549 75.7592 154.898 75.0822C154.247 74.392 153.323 74.047 152.125 74.047ZM176.129 85.1603C176.129 84.4702 175.784 83.9298 175.094 83.5392C174.417 83.1355 173.323 82.7775 171.812 82.465C166.786 81.4103 164.273 79.2749 164.273 76.0587C164.273 74.1837 165.048 72.6212 166.598 71.3712C168.16 70.1082 170.198 69.4767 172.711 69.4767C175.393 69.4767 177.535 70.1082 179.137 71.3712C180.751 72.6342 181.559 74.2749 181.559 76.2931H175.914C175.914 75.4858 175.654 74.8217 175.133 74.3009C174.612 73.767 173.798 73.5001 172.691 73.5001C171.741 73.5001 171.005 73.715 170.484 74.1447C169.964 74.5743 169.703 75.1212 169.703 75.7853C169.703 76.4103 169.996 76.9181 170.582 77.3087C171.181 77.6863 172.184 78.0184 173.59 78.3048C174.996 78.5782 176.181 78.8907 177.145 79.2423C180.126 80.3361 181.617 82.2306 181.617 84.9259C181.617 86.853 180.79 88.4155 179.137 89.6134C177.483 90.7983 175.348 91.3907 172.73 91.3907C170.96 91.3907 169.384 91.0782 168.004 90.4532C166.637 89.8152 165.562 88.9493 164.781 87.8556C164 86.7488 163.609 85.5574 163.609 84.2814H168.961C169.013 85.284 169.384 86.0522 170.074 86.5861C170.764 87.1199 171.689 87.3868 172.848 87.3868C173.928 87.3868 174.742 87.185 175.289 86.7814C175.849 86.3647 176.129 85.8243 176.129 85.1603ZM191.227 91.0001H185.562V69.8673H191.227V91.0001ZM185.23 64.3986C185.23 63.5522 185.51 62.8556 186.07 62.3087C186.643 61.7618 187.418 61.4884 188.395 61.4884C189.358 61.4884 190.126 61.7618 190.699 62.3087C191.272 62.8556 191.559 63.5522 191.559 64.3986C191.559 65.2579 191.266 65.9611 190.68 66.5079C190.107 67.0548 189.345 67.3282 188.395 67.3282C187.444 67.3282 186.676 67.0548 186.09 66.5079C185.517 65.9611 185.23 65.2579 185.23 64.3986ZM195.074 80.2775C195.074 77.0353 195.842 74.4246 197.379 72.4454C198.928 70.4663 201.012 69.4767 203.629 69.4767C205.947 69.4767 207.75 70.271 209.039 71.8595L209.273 69.8673H214.391V90.297C214.391 92.146 213.967 93.754 213.121 95.1212C212.288 96.4884 211.109 97.5301 209.586 98.2462C208.062 98.9624 206.279 99.3204 204.234 99.3204C202.685 99.3204 201.174 99.0079 199.703 98.3829C198.232 97.771 197.118 96.9767 196.363 96.0001L198.863 92.5626C200.27 94.1381 201.975 94.9259 203.98 94.9259C205.478 94.9259 206.643 94.5223 207.477 93.715C208.31 92.9207 208.727 91.7879 208.727 90.3165V89.1837C207.424 90.6551 205.712 91.3907 203.59 91.3907C201.051 91.3907 198.993 90.4012 197.418 88.422C195.855 86.4298 195.074 83.7931 195.074 80.5118V80.2775ZM200.719 80.6876C200.719 82.6017 201.103 84.1056 201.871 85.1993C202.639 86.2801 203.694 86.8204 205.035 86.8204C206.754 86.8204 207.984 86.1759 208.727 84.8868V76.0001C207.971 74.7111 206.754 74.0665 205.074 74.0665C203.72 74.0665 202.652 74.6199 201.871 75.7267C201.103 76.8335 200.719 78.4871 200.719 80.6876ZM223.941 69.8673L224.117 72.3087C225.628 70.4207 227.652 69.4767 230.191 69.4767C232.431 69.4767 234.098 70.1342 235.191 71.4493C236.285 72.7644 236.845 74.7306 236.871 77.3478V91.0001H231.227V77.4845C231.227 76.2866 230.966 75.4207 230.445 74.8868C229.924 74.34 229.059 74.0665 227.848 74.0665C226.259 74.0665 225.068 74.7436 224.273 76.0978V91.0001H218.629V69.8673H223.941Z" fill="#FAFAFA"/>
<g opacity="0.5">
<mask id="mask1_581:7412" style="mask-type:alpha" maskUnits="userSpaceOnUse" x="1" y="7" width="237" height="41">
<path d="M24.2344 9.56262H25.2344V8.56262H24.2344V9.56262ZM21.3047 35.6759L20.625 34.9424L20.6225 34.9447L21.3047 35.6759ZM2.4375 28.5079H1.43742L1.43758 28.5206L2.4375 28.5079ZM2.4375 9.56262V8.56262H1.4375V9.56262H2.4375ZM8.29688 9.56262H9.29688V8.56262H8.29688V9.56262ZM9.625 32.4142L8.92852 33.1318L8.93388 33.137L8.93931 33.1421L9.625 32.4142ZM18.3555 28.4884L19.3554 28.5034L19.3555 28.4959V28.4884H18.3555ZM18.3555 9.56262V8.56262H17.3555V9.56262H18.3555ZM23.2344 9.56262V28.2931H25.2344V9.56262H23.2344ZM23.2344 28.2931C23.2344 31.178 22.3391 33.354 20.625 34.9424L21.9844 36.4094C24.1766 34.378 25.2344 31.6322 25.2344 28.2931H23.2344ZM20.6225 34.9447C18.9139 36.5387 16.5265 37.3907 13.3359 37.3907V39.3907C16.8902 39.3907 19.8153 38.4329 21.9868 36.4071L20.6225 34.9447ZM13.3359 37.3907C10.1952 37.3907 7.81962 36.5631 6.09475 35.0107L4.75682 36.4973C6.9382 38.4606 9.83605 39.3907 13.3359 39.3907V37.3907ZM6.09475 35.0107C4.38459 33.4716 3.47359 31.3408 3.43742 28.4952L1.43758 28.5206C1.47953 31.8209 2.56072 34.5208 4.75682 36.4973L6.09475 35.0107ZM3.4375 28.5079V9.56262H1.4375V28.5079H3.4375ZM2.4375 10.5626H8.29688V8.56262H2.4375V10.5626ZM7.29688 9.56262V28.3322H9.29688V9.56262H7.29688ZM7.29688 28.3322C7.29688 30.3282 7.76925 32.0066 8.92852 33.1318L10.3215 31.6966C9.70992 31.103 9.29688 30.0601 9.29688 28.3322H7.29688ZM8.93931 33.1421C10.0705 34.2077 11.5788 34.6837 13.3359 34.6837V32.6837C11.9421 32.6837 10.9764 32.3134 10.3107 31.6863L8.93931 33.1421ZM13.3359 34.6837C15.1515 34.6837 16.6946 34.2039 17.7807 33.0797C18.8581 31.9646 19.3272 30.3784 19.3554 28.5034L17.3556 28.4734C17.3317 30.0619 16.9381 31.0735 16.3424 31.6901C15.7553 32.2977 14.8146 32.6837 13.3359 32.6837V34.6837ZM19.3555 28.4884V9.56262H17.3555V28.4884H19.3555ZM18.3555 10.5626H24.2344V8.56262H18.3555V10.5626ZM39.2148 19.3673L38.3363 19.8451L39.2148 21.4605L40.0933 19.8451L39.2148 19.3673ZM44.5469 9.56262V8.56262H43.9524L43.6684 9.08487L44.5469 9.56262ZM51.2852 9.56262L52.1475 10.069L53.0321 8.56262H51.2852V9.56262ZM43.0039 23.6642L42.1416 23.1578L41.8429 23.6665L42.1436 24.174L43.0039 23.6642ZM51.5 38.0001V39.0001H53.2551L52.3603 37.4903L51.5 38.0001ZM44.6836 38.0001L43.807 38.4814L44.0918 39.0001H44.6836V38.0001ZM39.2148 28.0392L40.0914 27.5579L39.2148 25.9613L38.3383 27.5579L39.2148 28.0392ZM33.7461 38.0001V39.0001H34.3379L34.6227 38.4814L33.7461 38.0001ZM26.9297 38.0001L26.0694 37.4903L25.1746 39.0001H26.9297V38.0001ZM35.4258 23.6642L36.2861 24.174L36.5868 23.6665L36.2881 23.1578L35.4258 23.6642ZM27.1445 9.56262V8.56262H25.3976L26.2822 10.069L27.1445 9.56262ZM33.8828 9.56262L34.7613 9.08487L34.4773 8.56262H33.8828V9.56262ZM40.0933 19.8451L45.4254 10.0404L43.6684 9.08487L38.3363 18.8896L40.0933 19.8451ZM44.5469 10.5626H51.2852V8.56262H44.5469V10.5626ZM50.4229 9.05623L42.1416 23.1578L43.8662 24.1706L52.1475 10.069L50.4229 9.05623ZM42.1436 24.174L50.6397 38.51L52.3603 37.4903L43.8642 23.1544L42.1436 24.174ZM51.5 37.0001H44.6836V39.0001H51.5V37.0001ZM45.5602 37.5189L40.0914 27.5579L38.3383 28.5204L43.807 38.4814L45.5602 37.5189ZM38.3383 27.5579L32.8695 37.5189L34.6227 38.4814L40.0914 28.5204L38.3383 27.5579ZM33.7461 37.0001H26.9297V39.0001H33.7461V37.0001ZM27.79 38.51L36.2861 24.174L34.5655 23.1544L26.0694 37.4903L27.79 38.51ZM36.2881 23.1578L28.0068 9.05623L26.2822 10.069L34.5635 24.1706L36.2881 23.1578ZM27.1445 10.5626H33.8828V8.56262H27.1445V10.5626ZM33.0043 10.0404L38.3363 19.8451L40.0933 18.8896L34.7613 9.08487L33.0043 10.0404ZM55.875 40.4415V41.4415H56.5919L56.8221 40.7626L55.875 40.4415ZM51.6758 40.4415L50.7287 40.1205L50.2808 41.4415H51.6758V40.4415ZM62.1445 9.56262V8.56262H61.4277L61.1975 9.24155L62.1445 9.56262ZM66.3438 9.56262L67.2908 9.8837L67.7387 8.56262H66.3438V9.56262ZM55.875 39.4415H51.6758V41.4415H55.875V39.4415ZM52.6228 40.7626L63.0916 9.8837L61.1975 9.24155L50.7287 40.1205L52.6228 40.7626ZM62.1445 10.5626H66.3438V8.56262H62.1445V10.5626ZM65.3967 9.24155L54.9279 40.1205L56.8221 40.7626L67.2908 9.8837L65.3967 9.24155ZM90.9531 9.56262H91.9531V8.56262H90.9531V9.56262ZM88.0234 35.6759L87.3437 34.9424L87.3413 34.9447L88.0234 35.6759ZM69.1562 28.5079H68.1562L68.1563 28.5206L69.1562 28.5079ZM69.1562 9.56262V8.56262H68.1562V9.56262H69.1562ZM75.0156 9.56262H76.0156V8.56262H75.0156V9.56262ZM76.3438 32.4142L75.6473 33.1318L75.6526 33.137L75.6581 33.1421L76.3438 32.4142ZM85.0742 28.4884L86.0741 28.5034L86.0742 28.4959V28.4884H85.0742ZM85.0742 9.56262V8.56262H84.0742V9.56262H85.0742ZM89.9531 9.56262V28.2931H91.9531V9.56262H89.9531ZM89.9531 28.2931C89.9531 31.178 89.0578 33.354 87.3437 34.9424L88.7031 36.4094C90.8953 34.378 91.9531 31.6322 91.9531 28.2931H89.9531ZM87.3413 34.9447C85.6326 36.5387 83.2452 37.3907 80.0547 37.3907V39.3907C83.609 39.3907 86.534 38.4329 88.7056 36.4071L87.3413 34.9447ZM80.0547 37.3907C76.9139 37.3907 74.5384 36.5631 72.8135 35.0107L71.4756 36.4973C73.6569 38.4606 76.5548 39.3907 80.0547 39.3907V37.3907ZM72.8135 35.0107C71.1033 33.4716 70.1923 31.3408 70.1562 28.4952L68.1563 28.5206C68.1983 31.8209 69.2795 34.5208 71.4756 36.4973L72.8135 35.0107ZM70.1562 28.5079V9.56262H68.1562V28.5079H70.1562ZM69.1562 10.5626H75.0156V8.56262H69.1562V10.5626ZM74.0156 9.56262V28.3322H76.0156V9.56262H74.0156ZM74.0156 28.3322C74.0156 30.3282 74.488 32.0066 75.6473 33.1318L77.0402 31.6966C76.4287 31.103 76.0156 30.0601 76.0156 28.3322H74.0156ZM75.6581 33.1421C76.7892 34.2077 78.2975 34.6837 80.0547 34.6837V32.6837C78.6608 32.6837 77.6951 32.3134 77.0294 31.6863L75.6581 33.1421ZM80.0547 34.6837C81.8703 34.6837 83.4133 34.2039 84.4994 33.0797C85.5769 31.9646 86.0459 30.3784 86.0741 28.5034L84.0743 28.4734C84.0504 30.0619 83.6568 31.0735 83.0611 31.6901C82.474 32.2977 81.5334 32.6837 80.0547 32.6837V34.6837ZM86.0742 28.4884V9.56262H84.0742V28.4884H86.0742ZM85.0742 10.5626H90.9531V8.56262H85.0742V10.5626ZM101.988 38.0001V39.0001H102.988V38.0001H101.988ZM96.1289 38.0001H95.1289V39.0001H96.1289V38.0001ZM96.1289 9.56262V8.56262H95.1289V9.56262H96.1289ZM101.988 9.56262H102.988V8.56262H101.988V9.56262ZM101.988 37.0001H96.1289V39.0001H101.988V37.0001ZM97.1289 38.0001V9.56262H95.1289V38.0001H97.1289ZM96.1289 10.5626H101.988V8.56262H96.1289V10.5626ZM100.988 9.56262V38.0001H102.988V9.56262H100.988ZM117.398 38.0001H116.398V39.0001H117.398V38.0001ZM117.398 9.56262V8.56262H116.398V9.56262H117.398ZM132.848 11.2618L132.348 12.1283L132.355 12.1322L132.848 11.2618ZM137.477 16.0665L136.593 16.5357L136.595 16.538L137.477 16.0665ZM137.496 31.4962L136.613 31.0268L136.611 31.0312L137.496 31.4962ZM132.906 36.2814L133.403 37.1493L132.906 36.2814ZM126.207 38.0001V39.0001L126.212 39.0001L126.207 38.0001ZM123.258 14.3087V13.3087H122.258V14.3087H123.258ZM123.258 33.2931H122.258V34.2931H123.258V33.2931ZM133.199 24.6212L134.199 24.6306V24.6212H133.199ZM131.402 16.5548L130.621 17.1795L130.624 17.1828L131.402 16.5548ZM118.398 38.0001V9.56262H116.398V38.0001H118.398ZM117.398 10.5626H126.148V8.56262H117.398V10.5626ZM126.148 10.5626C128.492 10.5626 130.549 11.0917 132.348 12.1283L133.347 10.3954C131.214 9.16637 128.805 8.56262 126.148 8.56262V10.5626ZM132.355 12.1322C134.162 13.1546 135.573 14.6139 136.593 16.5357L138.36 15.5974C137.167 13.3525 135.491 11.6087 133.34 10.3915L132.355 12.1322ZM136.595 16.538C137.615 18.4458 138.137 20.6371 138.137 23.1368H140.137C140.137 20.3501 139.552 17.8279 138.358 15.5951L136.595 16.538ZM138.137 23.1368V24.4454H140.137V23.1368H138.137ZM138.137 24.4454C138.137 26.9472 137.62 29.1325 136.613 31.0268L138.379 31.9656C139.559 29.7454 140.137 27.2301 140.137 24.4454H138.137ZM136.611 31.0312C135.617 32.9233 134.22 34.3771 132.41 35.4135L133.403 37.1493C135.551 35.92 137.214 34.1837 138.381 31.9613L136.611 31.0312ZM132.41 35.4135C130.593 36.453 128.532 36.9879 126.202 37.0001L126.212 39.0001C128.856 38.9863 131.261 38.3754 133.403 37.1493L132.41 35.4135ZM126.207 37.0001H117.398V39.0001H126.207V37.0001ZM122.258 14.3087V33.2931H124.258V14.3087H122.258ZM123.258 34.2931H126.09V32.2931H123.258V34.2931ZM126.09 34.2931C128.62 34.2931 130.684 33.4535 132.121 31.6758L130.566 30.4182C129.582 31.6353 128.143 32.2931 126.09 32.2931V34.2931ZM132.121 31.6758C133.525 29.9395 134.172 27.5448 134.199 24.6306L132.199 24.6119C132.174 27.2705 131.584 29.1597 130.566 30.4182L132.121 31.6758ZM134.199 24.6212V23.1173H132.199V24.6212H134.199ZM134.199 23.1173C134.199 20.1107 133.58 17.6603 132.181 15.9268L130.624 17.1828C131.621 18.4181 132.199 20.3427 132.199 23.1173H134.199ZM132.183 15.9301C130.757 14.147 128.689 13.3087 126.148 13.3087V15.3087C128.217 15.3087 129.652 15.9678 130.621 17.1795L132.183 15.9301ZM126.148 13.3087H123.258V15.3087H126.148V13.3087ZM145.191 35.5392L144.492 36.2534L144.494 36.2558L145.191 35.5392ZM143.512 21.7111L144.409 22.1527L144.41 22.1499L143.512 21.7111ZM146.988 17.8439L147.503 18.7014L147.505 18.7001L146.988 17.8439ZM158.961 19.2111L158.22 19.8829L158.223 19.8858L158.961 19.2111ZM161.461 29.2697V30.2697H162.461V29.2697H161.461ZM148.004 29.2697V28.2697H146.863L147.013 29.4006L148.004 29.2697ZM149.645 32.59L148.97 33.328L148.975 33.3327L149.645 32.59ZM158.238 31.4767L158.984 30.8106L158.185 29.9155L157.449 30.8632L158.238 31.4767ZM161.012 34.5822L161.828 35.1592L162.288 34.5094L161.758 33.916L161.012 34.5822ZM157.574 37.3947L157.992 38.3034L157.998 38.3002L157.574 37.3947ZM149.391 22.1798L148.659 21.4984L148.652 21.5052L149.391 22.1798ZM148.062 25.422L147.072 25.2844L146.914 26.422H148.062V25.422ZM155.914 25.422V26.422H156.914V25.422H155.914ZM155.914 24.9728H156.914V24.9624L156.914 24.952L155.914 24.9728ZM154.898 22.0822L154.171 22.7684L154.178 22.7753L154.898 22.0822ZM152.77 37.3907C149.892 37.3907 147.629 36.5166 145.889 34.8226L144.494 36.2558C146.66 38.3638 149.449 39.3907 152.77 39.3907V37.3907ZM145.891 34.8249C144.175 33.1431 143.281 30.8849 143.281 27.9415H141.281C141.281 31.3263 142.328 34.1332 144.492 36.2534L145.891 34.8249ZM143.281 27.9415V27.3947H141.281V27.9415H143.281ZM143.281 27.3947C143.281 25.4035 143.665 23.6635 144.409 22.1527L142.615 21.2695C141.718 23.0919 141.281 25.141 141.281 27.3947H143.281ZM144.41 22.1499C145.152 20.6311 146.183 19.4932 147.503 18.7014L146.474 16.9864C144.799 17.9914 143.512 19.4316 142.613 21.2722L144.41 22.1499ZM147.505 18.7001C148.845 17.8913 150.382 17.4767 152.145 17.4767V15.4767C150.053 15.4767 148.152 15.9735 146.472 16.9877L147.505 18.7001ZM152.145 17.4767C154.807 17.4767 156.79 18.3058 158.22 19.8829L159.702 18.5392C157.825 16.4705 155.263 15.4767 152.145 15.4767V17.4767ZM158.223 19.8858C159.669 21.4674 160.461 23.7785 160.461 26.965H162.461C162.461 23.4587 161.586 20.6005 159.699 18.5363L158.223 19.8858ZM160.461 26.965V29.2697H162.461V26.965H160.461ZM161.461 28.2697H148.004V30.2697H161.461V28.2697ZM147.013 29.4006C147.221 30.9825 147.862 32.3156 148.97 33.328L150.319 31.8519C149.604 31.1977 149.151 30.3172 148.995 29.1387L147.013 29.4006ZM148.975 33.3327C150.107 34.3534 151.522 34.84 153.141 34.84V32.84C151.947 32.84 151.031 32.4932 150.314 31.8472L148.975 33.3327ZM153.141 34.84C155.592 34.84 157.596 33.9337 159.028 32.0902L157.449 30.8632C156.433 32.1707 155.038 32.84 153.141 32.84V34.84ZM157.492 32.1428L160.266 35.2483L161.758 33.916L158.984 30.8106L157.492 32.1428ZM160.195 34.0051C159.457 35.049 158.452 35.8789 157.15 36.4891L157.998 38.3002C159.587 37.5562 160.873 36.5111 161.828 35.1592L160.195 34.0051ZM157.157 36.486C155.856 37.0838 154.398 37.3907 152.77 37.3907V39.3907C154.656 39.3907 156.402 39.0336 157.992 38.3033L157.157 36.486ZM152.125 20.047C150.754 20.047 149.568 20.5215 148.659 21.4984L150.123 22.8612C150.619 22.3277 151.256 22.047 152.125 22.047V20.047ZM148.652 21.5052C147.782 22.4575 147.285 23.7531 147.072 25.2844L149.053 25.5596C149.231 24.2784 149.619 23.4125 150.129 22.8544L148.652 21.5052ZM148.062 26.422H155.914V24.422H148.062V26.422ZM156.914 25.422V24.9728H154.914V25.422H156.914ZM156.914 24.952C156.884 23.5357 156.496 22.3003 155.619 21.389L154.178 22.7753C154.603 23.2181 154.892 23.9099 154.914 24.9936L156.914 24.952ZM155.626 21.3959C154.739 20.4558 153.521 20.047 152.125 20.047V22.047C153.124 22.047 153.756 22.3283 154.171 22.7684L155.626 21.3959ZM175.094 30.5392L174.582 31.3981L174.591 31.4039L174.601 31.4094L175.094 30.5392ZM171.812 29.465L171.607 30.4437L171.61 30.4442L171.812 29.465ZM166.598 18.3712L167.226 19.1495L167.226 19.1489L166.598 18.3712ZM179.137 18.3712L178.517 19.1564L178.521 19.1589L179.137 18.3712ZM181.559 23.2931V24.2931H182.559V23.2931H181.559ZM175.914 23.2931H174.914V24.2931H175.914V23.2931ZM175.133 21.3009L174.417 21.9993L174.426 22.008L175.133 21.3009ZM170.582 24.3087L170.027 25.1408L170.038 25.1478L170.049 25.1546L170.582 24.3087ZM173.59 25.3048L173.39 26.2847L173.399 26.2864L173.59 25.3048ZM177.145 26.2423L177.489 25.3035L177.487 25.3029L177.145 26.2423ZM179.137 36.6134L179.719 37.4263L179.723 37.4232L179.137 36.6134ZM168.004 37.4532L167.581 38.3595L167.591 38.3642L168.004 37.4532ZM164.781 34.8556L163.964 35.4323L163.968 35.4368L164.781 34.8556ZM163.609 31.2814V30.2814H162.609V31.2814H163.609ZM168.961 31.2814L169.96 31.2295L169.91 30.2814H168.961V31.2814ZM175.289 33.7814L175.883 34.586L175.886 34.5836L175.289 33.7814ZM177.129 32.1603C177.129 31.0496 176.534 30.2053 175.586 29.6689L174.601 31.4094C175.034 31.6544 175.129 31.8907 175.129 32.1603H177.129ZM175.606 29.6802C174.78 29.188 173.551 28.8035 172.015 28.4857L171.61 30.4442C173.095 30.7515 174.053 31.0831 174.582 31.3981L175.606 29.6802ZM172.018 28.4863C169.585 27.9759 167.884 27.2262 166.806 26.3104C165.766 25.4271 165.273 24.3649 165.273 23.0587H163.273C163.273 24.9687 164.037 26.5823 165.511 27.8344C166.946 29.0539 169.013 29.8994 171.607 30.4436L172.018 28.4863ZM165.273 23.0587C165.273 21.5069 165.895 20.2232 167.226 19.1495L165.97 17.5929C164.202 19.0193 163.273 20.8605 163.273 23.0587H165.273ZM167.226 19.1489C168.57 18.0628 170.368 17.4767 172.711 17.4767V15.4767C170.028 15.4767 167.75 16.1536 165.969 17.5935L167.226 19.1489ZM172.711 17.4767C175.24 17.4767 177.141 18.0709 178.517 19.1564L179.756 17.586C177.929 16.1455 175.547 15.4767 172.711 15.4767V17.4767ZM178.521 19.1589C179.897 20.2358 180.559 21.5881 180.559 23.2931H182.559C182.559 20.9616 181.605 19.0326 179.753 17.5836L178.521 19.1589ZM181.559 22.2931H175.914V24.2931H181.559V22.2931ZM176.914 23.2931C176.914 22.2486 176.567 21.3211 175.84 20.5938L174.426 22.008C174.74 22.3224 174.914 22.723 174.914 23.2931H176.914ZM175.849 20.6026C175.065 19.7993 173.938 19.5001 172.691 19.5001V21.5001C173.659 21.5001 174.159 21.7348 174.417 21.9992L175.849 20.6026ZM172.691 19.5001C171.602 19.5001 170.609 19.7457 169.848 20.3733L171.121 21.916C171.402 21.6843 171.88 21.5001 172.691 21.5001V19.5001ZM169.848 20.3733C169.101 20.9892 168.703 21.817 168.703 22.7853H170.703C170.703 22.4255 170.826 22.1594 171.121 21.916L169.848 20.3733ZM168.703 22.7853C168.703 23.7914 169.204 24.5922 170.027 25.1408L171.137 23.4767C170.788 23.244 170.703 23.0292 170.703 22.7853H168.703ZM170.049 25.1546C170.809 25.6338 171.962 25.9937 173.39 26.2847L173.789 24.3249C172.405 24.043 171.553 23.7388 171.115 23.4628L170.049 25.1546ZM173.399 26.2864C174.772 26.5534 175.903 26.8537 176.802 27.1817L177.487 25.3029C176.459 24.9278 175.22 24.6031 173.781 24.3232L173.399 26.2864ZM176.8 27.1811C178.171 27.684 179.113 28.3397 179.713 29.1019C180.304 29.8521 180.617 30.7746 180.617 31.9259H182.617C182.617 30.3819 182.185 29.0094 181.285 27.8651C180.394 26.7328 179.1 25.8944 177.489 25.3035L176.8 27.1811ZM180.617 31.9259C180.617 33.5106 179.962 34.7806 178.55 35.8036L179.723 37.4232C181.618 36.0504 182.617 34.1954 182.617 31.9259H180.617ZM178.554 35.8005C177.113 36.833 175.199 37.3907 172.73 37.3907V39.3907C175.497 39.3907 177.853 38.7636 179.719 37.4263L178.554 35.8005ZM172.73 37.3907C171.078 37.3907 169.647 37.0995 168.416 36.5423L167.591 38.3642C169.121 39.057 170.841 39.3907 172.73 39.3907V37.3907ZM168.427 36.5471C167.196 35.9728 166.264 35.2114 165.595 34.2744L163.968 35.4368C164.861 36.6873 166.077 37.6577 167.581 38.3594L168.427 36.5471ZM165.598 34.2789C164.928 33.3298 164.609 32.3378 164.609 31.2814H162.609C162.609 32.777 163.072 34.1678 163.964 35.4323L165.598 34.2789ZM163.609 32.2814H168.961V30.2814H163.609V32.2814ZM167.962 31.3333C168.027 32.5781 168.506 33.6371 169.462 34.377L170.686 32.7951C170.262 32.4673 169.999 31.9899 169.96 31.2295L167.962 31.3333ZM169.462 34.377C170.377 35.0849 171.54 35.3868 172.848 35.3868V33.3868C171.838 33.3868 171.151 33.1549 170.686 32.7951L169.462 34.377ZM172.848 35.3868C174.025 35.3868 175.089 35.1718 175.883 34.5859L174.695 32.9768C174.395 33.1983 173.831 33.3868 172.848 33.3868V35.3868ZM175.886 34.5836C176.684 33.9895 177.129 33.1588 177.129 32.1603H175.129C175.129 32.4899 175.014 32.7399 174.692 32.9791L175.886 34.5836ZM191.227 38.0001V39.0001H192.227V38.0001H191.227ZM185.562 38.0001H184.562V39.0001H185.562V38.0001ZM185.562 16.8673V15.8673H184.562V16.8673H185.562ZM191.227 16.8673H192.227V15.8673H191.227V16.8673ZM186.07 9.30872L185.38 8.58531L185.372 8.59334L186.07 9.30872ZM190.68 13.5079L189.997 12.7768L189.989 12.7846L190.68 13.5079ZM186.09 13.5079L185.399 14.2313L185.408 14.239L186.09 13.5079ZM191.227 37.0001H185.562V39.0001H191.227V37.0001ZM186.562 38.0001V16.8673H184.562V38.0001H186.562ZM185.562 17.8673H191.227V15.8673H185.562V17.8673ZM190.227 16.8673V38.0001H192.227V16.8673H190.227ZM186.23 11.3986C186.23 10.7972 186.419 10.3665 186.769 10.0241L185.372 8.59334C184.602 9.3447 184.23 10.3072 184.23 11.3986H186.23ZM186.761 10.0321C187.107 9.70203 187.612 9.4884 188.395 9.4884V7.4884C187.224 7.4884 186.18 7.82165 185.38 8.58536L186.761 10.0321ZM188.395 9.4884C189.16 9.4884 189.661 9.69966 190.009 10.0321L191.39 8.58536C190.592 7.82402 189.556 7.4884 188.395 7.4884V9.4884ZM190.009 10.0321C190.369 10.3763 190.559 10.8046 190.559 11.3986H192.559C192.559 10.2998 192.175 9.3349 191.39 8.58536L190.009 10.0321ZM190.559 11.3986C190.559 12.0031 190.365 12.4339 189.997 12.7769L191.362 14.239C192.166 13.4882 192.559 12.5127 192.559 11.3986H190.559ZM189.989 12.7846C189.638 13.1194 189.143 13.3282 188.395 13.3282V15.3282C189.548 15.3282 190.575 14.9902 191.37 14.2313L189.989 12.7846ZM188.395 13.3282C187.647 13.3282 187.139 13.1196 186.772 12.7769L185.408 14.239C186.212 14.9901 187.241 15.3282 188.395 15.3282V13.3282ZM186.78 12.7846C186.423 12.4435 186.23 12.0105 186.23 11.3986H184.23C184.23 12.5054 184.611 13.4786 185.399 14.2313L186.78 12.7846ZM197.379 19.4454L196.592 18.829L196.589 18.8322L197.379 19.4454ZM209.039 18.8595L208.263 19.4896L209.755 21.3293L210.032 18.9763L209.039 18.8595ZM209.273 16.8673V15.8673H208.384L208.28 16.7505L209.273 16.8673ZM214.391 16.8673H215.391V15.8673H214.391V16.8673ZM213.121 42.1212L212.271 41.5948L212.267 41.6008L213.121 42.1212ZM199.703 45.3829L200.094 44.4625L200.087 44.4596L199.703 45.3829ZM196.363 43.0001L195.555 42.4119L195.113 43.0185L195.572 43.6119L196.363 43.0001ZM198.863 39.5626L199.609 38.8967L198.784 37.9718L198.055 38.9744L198.863 39.5626ZM207.477 40.715L206.787 39.9911L206.781 39.9967L207.477 40.715ZM208.727 36.1837H209.727V33.5448L207.978 35.521L208.727 36.1837ZM197.418 35.422L196.631 36.0392L196.636 36.0448L197.418 35.422ZM201.871 32.1993L201.053 32.7741L201.056 32.7787L201.871 32.1993ZM208.727 31.8868L209.593 32.3858L209.727 32.1541V31.8868H208.727ZM208.727 23.0001H209.727V22.7288L209.589 22.4946L208.727 23.0001ZM201.871 22.7267L201.054 22.15L201.05 22.1565L201.871 22.7267ZM196.074 27.2775C196.074 24.1916 196.804 21.8167 198.169 20.0587L196.589 18.8322C194.881 21.0325 194.074 23.879 194.074 27.2775H196.074ZM198.166 20.0619C199.517 18.3362 201.304 17.4767 203.629 17.4767V15.4767C200.719 15.4767 198.339 16.5963 196.592 18.829L198.166 20.0619ZM203.629 17.4767C205.69 17.4767 207.19 18.168 208.263 19.4896L209.816 18.2294C208.31 16.3739 206.203 15.4767 203.629 15.4767V17.4767ZM210.032 18.9763L210.267 16.9841L208.28 16.7505L208.046 18.7427L210.032 18.9763ZM209.273 17.8673H214.391V15.8673H209.273V17.8673ZM213.391 16.8673V37.297H215.391V16.8673H213.391ZM213.391 37.297C213.391 38.9884 213.005 40.4083 212.271 41.5949L213.971 42.6476C214.93 41.0997 215.391 39.3035 215.391 37.297H213.391ZM212.267 41.6008C211.541 42.7917 210.516 43.704 209.161 44.3412L210.011 46.1512C211.703 45.3562 213.034 44.1851 213.975 42.6417L212.267 41.6008ZM209.161 44.3412C207.796 44.9828 206.163 45.3204 204.234 45.3204V47.3204C206.395 47.3204 208.329 46.9419 210.011 46.1512L209.161 44.3412ZM204.234 45.3204C202.824 45.3204 201.446 45.0367 200.094 44.4625L199.312 46.3033C200.903 46.9792 202.546 47.3204 204.234 47.3204V45.3204ZM200.087 44.4596C198.731 43.8954 197.777 43.1931 197.154 42.3884L195.572 43.6119C196.46 44.7603 197.733 45.6465 199.319 46.3063L200.087 44.4596ZM197.172 43.5883L199.672 40.1508L198.055 38.9744L195.555 42.4119L197.172 43.5883ZM198.117 40.2285C199.702 42.0038 201.674 42.9259 203.98 42.9259V40.9259C202.277 40.9259 200.837 40.2725 199.609 38.8967L198.117 40.2285ZM203.98 42.9259C205.659 42.9259 207.103 42.4693 208.172 41.4332L206.781 39.9967C206.184 40.5752 205.297 40.9259 203.98 40.9259V42.9259ZM208.167 41.4388C209.249 40.4068 209.727 38.9811 209.727 37.3165H207.727C207.727 38.5947 207.37 39.4346 206.787 39.9911L208.167 41.4388ZM209.727 37.3165V36.1837H207.727V37.3165H209.727ZM207.978 35.521C206.882 36.7592 205.452 37.3907 203.59 37.3907V39.3907C205.973 39.3907 207.967 38.5509 209.475 36.8464L207.978 35.521ZM203.59 37.3907C201.354 37.3907 199.585 36.539 198.2 34.7992L196.636 36.0448C198.402 38.2633 200.747 39.3907 203.59 39.3907V37.3907ZM198.205 34.8049C196.817 33.0349 196.074 30.6361 196.074 27.5118H194.074C194.074 30.9501 194.894 33.8247 196.631 36.0391L198.205 34.8049ZM196.074 27.5118V27.2775H194.074V27.5118H196.074ZM199.719 27.6876C199.719 29.722 200.125 31.4536 201.053 32.7741L202.689 31.6246C202.08 30.7576 201.719 29.4813 201.719 27.6876H199.719ZM201.056 32.7787C202.014 34.1269 203.375 34.8204 205.035 34.8204V32.8204C204.013 32.8204 203.264 32.4332 202.686 31.62L201.056 32.7787ZM205.035 34.8204C207.045 34.8204 208.642 34.0385 209.593 32.3858L207.86 31.3879C207.327 32.3133 206.463 32.8204 205.035 32.8204V34.8204ZM209.727 31.8868V23.0001H207.727V31.8868H209.727ZM209.589 22.4946C208.629 20.8561 207.056 20.0665 205.074 20.0665V22.0665C206.452 22.0665 207.313 22.566 207.864 23.5056L209.589 22.4946ZM205.074 20.0665C203.395 20.0665 202.023 20.7779 201.054 22.15L202.688 23.3034C203.282 22.4619 204.045 22.0665 205.074 22.0665V20.0665ZM201.05 22.1565C200.113 23.5065 199.719 25.4008 199.719 27.6876H201.719C201.719 25.5734 202.093 24.1604 202.693 23.2969L201.05 22.1565ZM223.941 16.8673L224.939 16.7955L224.872 15.8673H223.941V16.8673ZM224.117 19.3087L223.12 19.3805L223.303 21.9271L224.898 19.9334L224.117 19.3087ZM235.191 18.4493L235.96 17.8099L235.191 18.4493ZM236.871 24.3478H237.871L237.871 24.3378L236.871 24.3478ZM236.871 38.0001V39.0001H237.871V38.0001H236.871ZM231.227 38.0001H230.227V39.0001H231.227V38.0001ZM230.445 21.8868L229.721 22.5765L229.73 22.5852L230.445 21.8868ZM224.273 23.0978L223.411 22.5918L223.273 22.8261V23.0978H224.273ZM224.273 38.0001V39.0001H225.273V38.0001H224.273ZM218.629 38.0001H217.629V39.0001H218.629V38.0001ZM218.629 16.8673V15.8673H217.629V16.8673H218.629ZM222.944 16.9391L223.12 19.3805L225.115 19.2369L224.939 16.7955L222.944 16.9391ZM224.898 19.9334C226.208 18.296 227.939 17.4767 230.191 17.4767V15.4767C227.366 15.4767 225.047 16.5454 223.336 18.684L224.898 19.9334ZM230.191 17.4767C232.232 17.4767 233.574 18.0683 234.423 19.0888L235.96 17.8099C234.621 16.2001 232.63 15.4767 230.191 15.4767V17.4767ZM234.423 19.0888C235.309 20.1545 235.846 21.8545 235.871 24.3577L237.871 24.3378C237.844 21.6067 237.261 19.3744 235.96 17.8099L234.423 19.0888ZM235.871 24.3478V38.0001H237.871V24.3478H235.871ZM236.871 37.0001H231.227V39.0001H236.871V37.0001ZM232.227 38.0001V24.4845H230.227V38.0001H232.227ZM232.227 24.4845C232.227 23.177 231.948 21.995 231.161 21.1885L229.73 22.5852C229.984 22.8464 230.227 23.3961 230.227 24.4845H232.227ZM231.169 21.1972C230.372 20.3603 229.172 20.0665 227.848 20.0665V22.0665C228.945 22.0665 229.477 22.3196 229.721 22.5765L231.169 21.1972ZM227.848 20.0665C225.91 20.0665 224.387 20.9272 223.411 22.5918L225.136 23.6037C225.748 22.5601 226.609 22.0665 227.848 22.0665V20.0665ZM223.273 23.0978V38.0001H225.273V23.0978H223.273ZM224.273 37.0001H218.629V39.0001H224.273V37.0001ZM219.629 38.0001V16.8673H217.629V38.0001H219.629ZM218.629 17.8673H223.941V15.8673H218.629V17.8673Z" fill="#FAFAFA"/>
</mask>
<g mask="url(#mask1_581:7412)">
<rect x="-34" y="-19.9999" width="291" height="41" fill="#FAFAFA"/>
</g>
</g>
</svg>
