<svg width="165" height="45" viewBox="0 0 165 45" fill="none" xmlns="http://www.w3.org/2000/svg">
<path d="M37.487 18.6564L35.2671 18.6351L32.7416 25.4512L30.3273 18.5877L28.7074 18.5722L26.1622 25.3481L23.7676 18.5248L21.5477 18.5035L25.152 28.4985L26.9319 28.5156L29.4959 21.8599L31.9117 28.5634L33.6916 28.5805L37.487 18.6564ZM43.7761 18.4368C40.7962 18.4082 38.3756 20.5451 38.3461 23.6249C38.3165 26.7048 40.6957 28.8877 43.6755 28.9163C46.6154 28.9445 49.036 26.8076 49.0656 23.7278C49.0951 20.6479 46.716 18.465 43.7761 18.4368ZM43.6932 27.0764C41.8533 27.0587 40.3662 25.7044 40.386 23.6445C40.4057 21.5846 41.9185 20.259 43.7584 20.2767C45.5584 20.294 47.0654 21.6485 47.0457 23.7084C47.0259 25.7683 45.4931 27.0936 43.6932 27.0764ZM57.2819 18.7264C55.502 18.7093 54.254 19.5374 53.4813 20.85L53.5009 18.8101L51.421 18.7901L51.3258 28.7097L53.4057 28.7297L53.4393 25.2298C53.4654 22.5099 54.7223 20.7619 57.2421 20.7861C57.4221 20.7878 57.6621 20.7901 57.8219 20.8117L57.9811 18.8131C57.7219 18.7306 57.5219 18.7287 57.2819 18.7264ZM66.6436 28.8567L69.5234 28.8843L63.8113 23.8693L69.2386 18.9611L66.5588 18.9354L61.8585 23.1105L61.9573 12.811L59.8774 12.791L59.7239 28.7903L61.8038 28.8102L61.8431 24.7104L66.6436 28.8567ZM90.8634 19.1686L88.6435 19.1473L86.118 25.9634L83.7038 19.0999L82.0838 19.0844L79.5387 25.8603L77.1441 19.037L74.9242 19.0157L78.5284 29.0107L80.3083 29.0278L82.8723 22.3721L85.2881 29.0756L87.068 29.0927L90.8634 19.1686ZM93.9546 14.3581C93.1746 14.3506 92.6087 14.9652 92.602 15.6652C92.5951 16.3851 93.1498 16.9305 93.9298 16.938C94.6898 16.9453 95.2549 16.4107 95.2618 15.6907C95.2686 14.9907 94.7145 14.3654 93.9546 14.3581ZM94.8529 29.1274L94.9481 19.2078L92.8682 19.1879L92.773 29.1074L94.8529 29.1274ZM100.878 20.9848L104.978 21.0242L104.994 19.3042L100.895 19.2649L100.938 14.7851L98.8516 15.4051L98.8148 19.2449L96.6749 19.2244L96.6584 20.9443L98.7983 20.9649L98.7505 25.9446C98.7294 28.1445 99.9768 29.4566 102.157 29.4775C102.977 29.4854 103.679 29.2921 104.604 28.7409L104.001 26.9951C103.477 27.3301 102.836 27.5239 102.316 27.5189C101.396 27.5101 100.822 26.8846 100.832 25.8046L100.878 20.9848ZM112.156 19.093C110.676 19.0787 109.511 19.6076 108.702 20.5599L108.772 13.2602L106.692 13.2403L106.538 29.2395L108.618 29.2595L108.662 24.6797C108.686 22.1798 109.877 20.9912 111.657 21.0083C113.077 21.0219 114.007 22.1109 113.991 23.7308L113.938 29.3105L116.038 29.3307L116.095 23.3309C116.119 20.8511 114.536 19.1158 112.156 19.093ZM133.216 19.5751L131.136 19.5551L131.092 24.1349C131.068 26.6348 129.897 27.8236 128.117 27.8065C126.677 27.7927 125.747 26.6837 125.763 25.0638L125.816 19.5041L123.736 19.4841L123.679 25.4638C123.655 27.9637 125.218 29.6988 127.618 29.7218C129.078 29.7358 130.243 29.207 131.052 28.2547L131.041 29.4746L133.121 29.4946L133.216 19.5751ZM135.332 26.8557C135.532 28.9177 137.383 29.8155 139.383 29.8347C141.703 29.857 143.314 28.7324 143.334 26.6925C143.347 25.3125 142.576 24.4051 140.98 23.9698L139.045 23.4312C138.167 23.2027 137.75 22.8387 137.757 22.1987C137.764 21.4388 138.369 20.9446 139.329 20.9538C140.488 20.9649 141.121 21.711 141.272 22.6525L143.256 22.2515C142.932 20.5883 141.504 19.3746 139.344 19.3538C137.124 19.3325 135.672 20.5787 135.654 22.3986C135.64 23.8585 136.572 24.7075 138.168 25.1228L140.223 25.6826C141.001 25.8901 141.298 26.2729 141.292 26.8329C141.285 27.6129 140.659 28.2069 139.519 28.1959C138.439 28.1856 137.565 27.6172 137.436 26.4359L135.332 26.8557Z" fill="#0D3475"/>
<rect x="1.59165" y="0.981283" width="162.5" height="41.5" transform="rotate(0.549798 1.59165 0.981283)" stroke="#0D3475" stroke-width="1.5"/>
</svg>
