<svg width="190" height="64" viewBox="0 0 190 64" fill="none" xmlns="http://www.w3.org/2000/svg">
<rect width="190" height="63.5814" transform="translate(0 0.208984)" fill="#0D3475"/>
<path d="M43.9209 35.7778L45.4463 28.3765H48.4434L45.4785 39.9995H42.8789L40.6768 32.6841L38.4746 39.9995H35.8857L32.9209 28.3765H35.918L37.4326 35.7671L39.5596 28.3765H41.8047L43.9209 35.7778ZM49.5068 34.0806C49.5068 32.9276 49.7288 31.8999 50.1729 30.9976C50.6169 30.0952 51.2542 29.397 52.085 28.9028C52.9229 28.4087 53.8932 28.1616 54.9961 28.1616C56.5645 28.1616 57.8428 28.6414 58.8311 29.6011C59.8265 30.5607 60.3815 31.8641 60.4961 33.5112L60.5176 34.3062C60.5176 36.0894 60.0199 37.5216 59.0244 38.603C58.029 39.6772 56.6934 40.2144 55.0176 40.2144C53.3418 40.2144 52.0026 39.6772 51 38.603C50.0046 37.5288 49.5068 36.0679 49.5068 34.2202V34.0806ZM52.6113 34.3062C52.6113 35.409 52.819 36.2541 53.2344 36.8413C53.6497 37.4214 54.2441 37.7114 55.0176 37.7114C55.7695 37.7114 56.3568 37.425 56.7793 36.8521C57.2018 36.272 57.4131 35.3481 57.4131 34.0806C57.4131 32.9992 57.2018 32.1613 56.7793 31.5669C56.3568 30.9725 55.7624 30.6753 54.9961 30.6753C54.237 30.6753 53.6497 30.9725 53.2344 31.5669C52.819 32.1541 52.6113 33.0672 52.6113 34.3062ZM68.9609 31.2876C68.5384 31.2303 68.166 31.2017 67.8438 31.2017C66.6693 31.2017 65.8994 31.5991 65.5342 32.394V39.9995H62.4297V28.3765H65.3623L65.4482 29.7622C66.0713 28.6951 66.9342 28.1616 68.0371 28.1616C68.3809 28.1616 68.7031 28.2082 69.0039 28.3013L68.9609 31.2876ZM74.6865 35.3374L73.5693 36.4546V39.9995H70.4648V23.4995H73.5693V32.6411L74.1709 31.8677L77.1465 28.3765H80.874L76.6738 33.2212L81.2393 39.9995H77.6729L74.6865 35.3374ZM97.8037 35.7778L99.3291 28.3765H102.326L99.3613 39.9995H96.7617L94.5596 32.6841L92.3574 39.9995H89.7686L86.8037 28.3765H89.8008L91.3154 35.7671L93.4424 28.3765H95.6875L97.8037 35.7778ZM107.149 39.9995H104.034V28.3765H107.149V39.9995ZM103.852 25.3687C103.852 24.9032 104.006 24.52 104.313 24.2192C104.629 23.9185 105.055 23.7681 105.592 23.7681C106.122 23.7681 106.544 23.9185 106.859 24.2192C107.174 24.52 107.332 24.9032 107.332 25.3687C107.332 25.8413 107.171 26.228 106.849 26.5288C106.534 26.8296 106.115 26.98 105.592 26.98C105.069 26.98 104.646 26.8296 104.324 26.5288C104.009 26.228 103.852 25.8413 103.852 25.3687ZM113.434 25.519V28.3765H115.421V30.6538H113.434V36.4546C113.434 36.8843 113.516 37.1922 113.681 37.3784C113.845 37.5646 114.16 37.6577 114.626 37.6577C114.97 37.6577 115.274 37.6326 115.539 37.5825V39.9351C114.93 40.1213 114.304 40.2144 113.659 40.2144C111.482 40.2144 110.372 39.1151 110.329 36.9165V30.6538H108.632V28.3765H110.329V25.519H113.434ZM120.18 29.644C121.003 28.6558 122.038 28.1616 123.284 28.1616C125.805 28.1616 127.083 29.6261 127.119 32.5552V39.9995H124.015V32.6411C124.015 31.9751 123.871 31.4845 123.585 31.1694C123.299 30.8472 122.822 30.686 122.156 30.686C121.247 30.686 120.588 31.0369 120.18 31.7388V39.9995H117.075V23.4995H120.18V29.644ZM141.9 38.8179C141.134 39.7489 140.074 40.2144 138.721 40.2144C137.475 40.2144 136.522 39.8563 135.863 39.1401C135.212 38.424 134.879 37.3748 134.864 35.9927V28.3765H137.969V35.8853C137.969 37.0955 138.52 37.7007 139.623 37.7007C140.676 37.7007 141.399 37.3354 141.793 36.605V28.3765H144.908V39.9995H141.986L141.9 38.8179ZM153.545 36.7876C153.545 36.408 153.355 36.1108 152.976 35.896C152.603 35.674 152.002 35.4771 151.171 35.3052C148.407 34.7251 147.024 33.5506 147.024 31.7817C147.024 30.7505 147.451 29.8911 148.303 29.2036C149.162 28.509 150.283 28.1616 151.665 28.1616C153.14 28.1616 154.318 28.509 155.199 29.2036C156.087 29.8983 156.531 30.8006 156.531 31.9106H153.427C153.427 31.4666 153.284 31.1014 152.997 30.8149C152.711 30.5213 152.263 30.3745 151.654 30.3745C151.132 30.3745 150.727 30.4927 150.44 30.729C150.154 30.9653 150.011 31.2661 150.011 31.6313C150.011 31.9751 150.172 32.2544 150.494 32.4692C150.824 32.6769 151.375 32.8595 152.148 33.0171C152.922 33.1675 153.574 33.3394 154.104 33.5327C155.743 34.1343 156.563 35.1763 156.563 36.6587C156.563 37.7186 156.109 38.578 155.199 39.2368C154.29 39.8885 153.115 40.2144 151.676 40.2144C150.702 40.2144 149.835 40.0425 149.076 39.6987C148.324 39.3478 147.733 38.8716 147.304 38.27C146.874 37.6613 146.659 37.006 146.659 36.3042H149.603C149.631 36.8556 149.835 37.2782 150.215 37.5718C150.594 37.8654 151.103 38.0122 151.74 38.0122C152.335 38.0122 152.782 37.9012 153.083 37.6792C153.391 37.45 153.545 37.1528 153.545 36.7876Z" fill="#F4F5F7"/>
</svg>
