<svg width="244" height="64" viewBox="0 0 244 64" fill="none" xmlns="http://www.w3.org/2000/svg">
<rect width="244" height="63.5814" transform="translate(0 0.209473)" fill="#0D3475"/>
<path d="M64.203 27.3116H61.3635L58.217 36.0605L55.0449 27.3116H52.9728L49.8007 36.0093L46.6542 27.3116H43.8147L48.5472 40.0512H50.824L54.0216 31.507L57.1937 40.0512H59.4705L64.203 27.3116ZM72.2442 26.9535C68.4326 26.9535 65.3628 29.7163 65.3628 33.6558C65.3628 37.5953 68.4326 40.3581 72.2442 40.3581C76.0046 40.3581 79.0744 37.5953 79.0744 33.6558C79.0744 29.7163 76.0046 26.9535 72.2442 26.9535ZM72.2442 38.0047C69.8907 38.0047 67.9721 36.2907 67.9721 33.6558C67.9721 31.0209 69.8907 29.307 72.2442 29.307C74.5465 29.307 76.4907 31.0209 76.4907 33.6558C76.4907 36.2907 74.5465 38.0047 72.2442 38.0047ZM89.5218 27.1581C87.2451 27.1581 85.659 28.2326 84.6869 29.9209V27.3116H82.0265V40H84.6869V35.5233C84.6869 32.0442 86.273 29.793 89.4962 29.793C89.7265 29.793 90.0334 29.793 90.2381 29.8186L90.4172 27.2605C90.0846 27.1581 89.8288 27.1581 89.5218 27.1581ZM101.62 40H105.304L97.9361 33.6558L104.817 27.3116H101.39L95.4291 32.7093V19.5349H92.7687V40H95.4291V34.7558L101.62 40ZM132.478 27.3116H129.639L126.492 36.0605L123.32 27.3116H121.248L118.076 36.0093L114.93 27.3116H112.09L116.823 40.0512H119.099L122.297 31.507L125.469 40.0512H127.746L132.478 27.3116ZM136.373 21.1209C135.375 21.1209 134.659 21.914 134.659 22.8093C134.659 23.7302 135.375 24.4209 136.373 24.4209C137.345 24.4209 138.061 23.7302 138.061 22.8093C138.061 21.914 137.345 21.1209 136.373 21.1209ZM137.703 40V27.3116H135.043V40H137.703ZM145.31 29.5116H150.554V27.3116H145.31V21.5814L142.649 22.4V27.3116H139.912V29.5116H142.649V35.8814C142.649 38.6953 144.261 40.3581 147.049 40.3581C148.098 40.3581 148.993 40.1023 150.17 39.386L149.377 37.1605C148.712 37.5953 147.893 37.8512 147.228 37.8512C146.052 37.8512 145.31 37.0581 145.31 35.6767V29.5116ZM159.711 26.9535C157.818 26.9535 156.334 27.6442 155.311 28.8721V19.5349H152.65V40H155.311V34.1419C155.311 30.9442 156.82 29.4093 159.097 29.4093C160.913 29.4093 162.115 30.7907 162.115 32.8628V40H164.801V32.3256C164.801 29.1535 162.755 26.9535 159.711 26.9535ZM186.653 27.3116H183.992V33.1698C183.992 36.3674 182.508 37.9023 180.232 37.9023C178.39 37.9023 177.187 36.4953 177.187 34.4233V27.3116H174.527V34.9605C174.527 38.1581 176.548 40.3581 179.618 40.3581C181.485 40.3581 182.969 39.6674 183.992 38.4395V40H186.653V27.3116ZM189.448 36.5977C189.73 39.2326 192.109 40.3581 194.667 40.3581C197.634 40.3581 199.681 38.9 199.681 36.2907C199.681 34.5256 198.683 33.3744 196.637 32.8372L194.155 32.1721C193.03 31.8907 192.492 31.4302 192.492 30.6116C192.492 29.6395 193.26 29 194.488 29C195.971 29 196.79 29.9465 196.995 31.1488L199.527 30.6116C199.092 28.4884 197.25 26.9535 194.488 26.9535C191.648 26.9535 189.806 28.5651 189.806 30.893C189.806 32.7605 191.009 33.8349 193.055 34.3465L195.69 35.0372C196.688 35.293 197.071 35.7791 197.071 36.4953C197.071 37.493 196.278 38.2605 194.82 38.2605C193.439 38.2605 192.313 37.5442 192.134 36.0349L189.448 36.5977Z" fill="#FAFAFA"/>
</svg>
